<svg xmlns="http://www.w3.org/2000/svg" viewBox="0 0 259.2 122.73"><title>instructions-diagram-fill-bubble</title><rect x="14" y="12" width="45" height="30" rx="15" ry="15"></rect><rect x="16" y="63" width="41" height="26" rx="15" ry="15" style="fill:none;stroke:#000;stroke-width:3"></rect><rect x="16" y="110" width="41" height="26" rx="15" ry="15" style="fill:none;stroke:#000;stroke-width:3"></rect><path d="M63.9 30.8c0 1.42 5.45 5.59 10.76 9.14l2.73-11.56c-6.98.39-13.49 1.16-13.49 2.42Z" style="stroke:#000;stroke-miterlimit:10;stroke-width:2"></path><path d="M218.44 104.45c2.23 2.45 16.83 9.57 33.61 17.27h6.1V88.38L127 49.23c-4 18.89-5.4 40.41 42.86 42.32 32.14 1.27 42.4 15.08 48.58 12.9Z" style="fill:#b3b3b3;stroke:#000;stroke-miterlimit:10;stroke-width:2"></path><path d="M258.16 9.88c-16.39-.86-34.1 1.5-42.17 2.86-10.71 1.82-67.46 1.71-78.64 1.27-8.35-.32-15.52 35.86 25.34 44.4s50.76-.26 56.21-4.07l39.26 16.3Z" style="fill:#b3b3b3;stroke:#000;stroke-miterlimit:10;stroke-width:2"></path><path d="M214.74 39.2s-8.8 14.56-16.89 13.89" style="fill:none;stroke:#000;stroke-miterlimit:10;stroke-width:2"></path><path d="M.97.97h257.18v120.77H.97z" style="fill:none;stroke:#000;stroke-miterlimit:10;stroke-width:1.9348652921848282px"></path><path d="M258.2 59.45C213.27 48.68 153 34.33 145.11 33c-12.71-2.2-46.68-4.74-54.31-4.93-3.23-.07-8.62 0-13.75.31l-2.73 11.56c2.86 1.91 5.68 3.65 7.58 4.66 5.45 2.91 43.6 20.16 56.13 24.7 7.88 2.86 72.95 20.24 120.17 32.75Z" style="fill:#737373;stroke:#000;stroke-miterlimit:10;stroke-width:2"></path><path d="M258.15 121.73V117c-7.92-3.68-15.6-7.07-22-9.62-7.39-13.94-20-25.29-32.39-32.68-15.54-9.28-36.45-11.47-47.34-8.63s-20.88 15.69-19.74 29c.47 5.47 5 14.81 15.16 26.62Z" style="fill:#b3b3b3;stroke:#000;stroke-miterlimit:10;stroke-width:2"></path><path d="M163.92 121.73h14.81c1.88-9 8.06-22.63 22.63-27.09-24-24.92-42.8-27.83-53.62-13.15-9.15 12.4 2.85 30.08 16.18 40.24Z" style="fill:#d9d9d9;stroke:#000;stroke-linecap:round;stroke-linejoin:round;stroke-width:2"></path></svg>