<svg xmlns="http://www.w3.org/2000/svg" viewBox="0 0 417.79 417.79"><path d="M208.9 0c115.06 0 208.9 93.84 208.9 208.89s-93.84 208.9-208.9 208.9S0 323.95 0 208.89 93.84 0 208.9 0z" fill="#161413" fill-rule="evenodd"/><path d="M208.9 13.78c107.46 0 195.1 87.65 195.1 195.11S316.4 404 208.9 404 13.79 316.35 13.79 208.89 101.4 13.78 208.9 13.78zm0 50.44c79.68 0 144.67 65 144.67 144.67s-64.99 144.7-144.67 144.7-144.67-65-144.67-144.7S129.21 64.22 208.9 64.22z" fill="#fff" fill-rule="evenodd"/><path d="M208.9 12.31c108.27 0 196.58 88.31 196.58 196.58S317.17 405.47 208.9 405.47 12.32 317.16 12.32 208.89 100.63 12.31 208.9 12.31zm0-1.62c109.16 0 198.2 89 198.2 198.2s-89 198.2-198.2 198.2-198.2-89-198.2-198.2 89.04-198.2 198.2-198.2z" fill="#fff" fill-rule="evenodd"/><path d="M208.9 71.11c75.89 0 137.78 61.89 137.78 137.78S284.79 346.67 208.9 346.67 71.12 284.78 71.12 208.89 133.01 71.11 208.9 71.11zm0-5.43c78.88 0 143.2 64.34 143.2 143.21S287.78 352.1 208.9 352.1 65.69 287.77 65.69 208.89 130.02 65.68 208.9 65.68z" fill="#fff" fill-rule="evenodd"/><path d="M208.9 8.87c110.17 0 200 89.85 200 200s-89.85 200-200 200-200-89.85-200-200 89.83-200 200-200zm0-5.07c113 0 205.09 92.13 205.09 205.09S321.86 413.98 208.9 413.98 3.81 321.85 3.81 208.89 95.94 3.8 208.9 3.8z" fill="#fff" fill-rule="evenodd"/><path d="M31.27 232.7l.42 1.84a13.2 13.2 0 00-3 5.88 11.16 11.16 0 000 4 .64.64 0 000 .09.45.45 0 000 .08 5.38 5.38 0 00.7 1.75c.32.47 1.05.58 2.2.31l27.86-6.43H59.62l.35-.08.35-.08a2.6 2.6 0 001.32-1c.35-.49.37-1.4.06-2.75l-.28-1.2 2.88-.67 4.17 18.15-2.88.66-.26-1.15c-.36-1.57-.87-2.45-1.52-2.62a4.69 4.69 0 00-2.23 0l-27.86 6.43c-1.16.27-1.77.68-1.84 1.25a5.22 5.22 0 00.12 1.82.45.45 0 000 .08.51.51 0 000 .09 7.81 7.81 0 00.21.77 7.21 7.21 0 00.25.7 8.77 8.77 0 002 3 22.71 22.71 0 004.6 3.21l.42 1.84-9.08-.73-7-30.68zm-4.13-9.62a2.72 2.72 0 00-2.33.72 4.38 4.38 0 00-.68 2.55v.76l-2.95-.1.62-17.71 2.95.1v.77a4.25 4.25 0 00.53 2.65 3.17 3.17 0 002.43.82l10.27.36.53-15.18-10.27-.36h-.89a2.54 2.54 0 00-1.53.6 3.67 3.67 0 00-.77 2.63v.83l-2.95-.1.62-17.72 2.95.11a2.44 2.44 0 010 .26 2.26 2.26 0 010 .27c-.06 1.73.19 2.77.75 3.13a4.37 4.37 0 002.2.58l28.46 1a4.42 4.42 0 002.2-.42c.6-.32.93-1.26 1-2.84v-.76l2.95.1-.61 17.71-3-.1v-.83c.05-1.38-.15-2.27-.58-2.68a2.55 2.55 0 00-1.49-.7H56.67l-14.65-.51-.53 15.17 14.65.51a3.09 3.09 0 002.47-.65 4.24 4.24 0 00.72-2.61v-.76l3 .1-.62 17.72-3-.11v-.77a4.19 4.19 0 00-.53-2.62 3.06 3.06 0 00-2.42-.85zm15.13-76.49l-.52 1.82-1.17.22a9 9 0 00-1.33.35 10.39 10.39 0 00-3.49 2.11 9.16 9.16 0 00-2.59 4.5l-1.19 4.14a4.59 4.59 0 00-.17 2.66c.22.59 1 1.07 2.2 1.43l10 2.86 1.1-3.86c.91-3.18 1.27-5.16 1.06-5.93a2.82 2.82 0 00-1.37-1.78.42.42 0 01-.13-.07.68.68 0 00-.19-.08.88.88 0 01-.22-.1.85.85 0 00-.22-.09 1.17 1.17 0 00-.26-.17 2.19 2.19 0 00-.33-.12l.52-1.82 10.85 3.11-.52 1.82a2.17 2.17 0 00-.35-.07 1.6 1.6 0 00-.31 0 1 1 0 00-.24 0h-.23a2.26 2.26 0 01-.37 0 1.43 1.43 0 00-.36 0 2.94 2.94 0 00-1.69.83 7.37 7.37 0 00-1.59 3.24l-1.76 6 12.84 3.68a3.21 3.21 0 002.47 0 3.78 3.78 0 001.41-2.36l1.38-4.83a23.47 23.47 0 00.6-2.81 9 9 0 00-.3-3.68 9.8 9.8 0 00-1.17-2.67 15 15 0 00-2.34-2.89l.53-1.87 9 4.74-9.07 31.69-2.84-.82.34-1.19c.38-1.33.41-2.24.08-2.74a2.47 2.47 0 00-1.27-1l-.34-.1-.32-.15H58.23l-27.45-7.9H30.61a4 4 0 00-2-.09c-.66.14-1.2 1-1.64 2.49l-.34 1.19-2.84-.82 8.61-29.87zm28.18-48.5a10.93 10.93 0 00-4.55-.06 12.32 12.32 0 00-3.82 1.43 11.86 11.86 0 00-2.3 1.61 12.48 12.48 0 00-1.57 1.71 4.54 4.54 0 00-1 3.31 4.93 4.93 0 001.19 2.59 3.42 3.42 0 00.38.39 5 5 0 00.41.33 4.43 4.43 0 003.15.94 10.09 10.09 0 003-.77l.83-.39.74-.37c2.93-1.48 5.49-2.68 7.7-3.61a32.67 32.67 0 015.89-1.92 12.92 12.92 0 014.93-.11 10.51 10.51 0 014.15 1.88 9.9 9.9 0 014.32 9 19 19 0 01-3.74 10.43 34.17 34.17 0 01-3.84 4.33 42.71 42.71 0 01-6.3 4.78l-7.55-4.17 1.11-1.53a14.69 14.69 0 004.62-.23 17.17 17.17 0 004-1.35 16.69 16.69 0 003.2-2.01 11.78 11.78 0 002.09-2.13 6.68 6.68 0 001.6-4.61 4.83 4.83 0 00-2.11-3.43 4.66 4.66 0 00-2.66-.91 10.38 10.38 0 00-3.24.49 24.82 24.82 0 00-3.07 1.21l-3.66 1.72c-.47.24-.93.47-1.4.67l-1.36.61a27.26 27.26 0 01-7.54 2.3 9.84 9.84 0 01-7.16-2.17 11 11 0 01-4.49-7.46q-.77-4.74 3.31-10.33a20 20 0 011.7-2 25.84 25.84 0 012.13-2 30.82 30.82 0 012.78-2.11 20.17 20.17 0 012.77-1.6l6.56 4zm31.33-33l-1.38 1.23a13.24 13.24 0 00-6.6.33 11.27 11.27 0 00-3.52 2l-.06.06-.07.06a5.46 5.46 0 00-1.16 1.48c-.25.51 0 1.2.83 2.06l19.5 20.91.06.07.06.06.24.26a3.07 3.07 0 00.25.26 2.47 2.47 0 001.5.66c.6.06 1.4-.37 2.41-1.31l.9-.85 2 2.16-13.57 12.65-2-2.16.86-.81c1.18-1.1 1.69-2 1.51-2.62a4.65 4.65 0 00-1.14-1.92L82.91 78.75c-.81-.87-1.47-1.19-2-1a5.36 5.36 0 00-1.52 1l-.06.06-.07.06c-.2.19-.39.38-.56.57s-.33.38-.48.57a8.69 8.69 0 00-1.53 3.25 21.33 21.33 0 00-.49 5.58l-1.38 1.29-4-8.25 23-21.47zm43.62 1.42l.91.78c.42.36.89.72 1.42 1.11l1.06.63a5.52 5.52 0 001.1.47 1.88 1.88 0 00.52.15h.47a2.24 2.24 0 001.02-.06 6.87 6.87 0 001.1-.51l.13-.08.13-.07.13-.07.12-.07 1.44 2.58-13.44 7.45-1.43-2.58 1.71-1H141.94l.1-.06a.78.78 0 00.28-.29.63.63 0 000-.54l-.06-.11-.06-.1v-.05l-.06-.1a.84.84 0 00-.19-.23 6.12 6.12 0 00-.66-.58l-5.72-5.08-12.5 6.93 1.1 6.62a1.76 1.76 0 00.07.37 2 2 0 01.07.5.34.34 0 010 .12.2.2 0 000 .11 5.74 5.74 0 00.1.62 1.65 1.65 0 00.15.46.48.48 0 010 .18.18.18 0 00.08.09.23.23 0 01.08.09.56.56 0 00.43.1 1.36 1.36 0 00.55-.17 1.13 1.13 0 00.31-.1l.23-.13 1.3-.72 1.43 2.58-10.44 5.79-1.43-2.58a8.38 8.38 0 002.48-2 4.17 4.17 0 00.6-1.89v-.31-.38-1.24a3.16 3.16 0 00-.12-.71v-.08a.61.61 0 01-.06-.24 2 2 0 000-.31l-3.6-25.69a4.63 4.63 0 01-.09-.7 2.33 2.33 0 00-.13-.67 3.25 3.25 0 00-.39-1.2l-.08-.12a1.18 1.18 0 00-.1-.19 1.13 1.13 0 00-.74-.36 2.84 2.84 0 00-1.6.52l-.57.31-.92-1.65a15.26 15.26 0 002.16-1.53 7.63 7.63 0 001.41-1.66 10.84 10.84 0 00.85-1.63q.39-.89.87-2.1l2.12-1.17zm-22.83 4.76l10-5.56-11.86-10.26-.62.34zm54.16-38.51l-1.82.49a13.35 13.35 0 00-6-2.81 11.25 11.25 0 00-4 .11H164.74a5.36 5.36 0 00-1.72.77c-.47.33-.55 1.06-.24 2.2l7.4 27.63a.31.31 0 010 .08v.09l.09.34.09.34a2.55 2.55 0 001 1.29c.5.33 1.41.32 2.74 0l1.2-.32.77 2.85-17.92 4.77-.75-2.81 1.14-.31c1.56-.42 2.42-.95 2.57-1.6a4.57 4.57 0 00-.11-2.24l-7.4-27.62c-.31-1.14-.74-1.74-1.31-1.79a5.26 5.26 0 00-1.81.18H150.31c-.27.07-.53.15-.77.23s-.47.18-.69.28a8.76 8.76 0 00-2.88 2.15 21.81 21.81 0 00-3.05 4.7l-1.83.49.36-9.15 30.42-8.15zm36-2.16l-1.88.14-.61-1a8.6 8.6 0 00-.84-1.15 10.5 10.5 0 00-3.17-2.56 9.17 9.17 0 00-5.12-.88l-4.3.3a4.5 4.5 0 00-2.56.74c-.48.41-.68 1.26-.59 2.56l.74 10.36 4-.28q5-.35 5.94-1a2.81 2.81 0 001.2-1.89 1 1 0 010-.15.68.68 0 000-.21.91.91 0 010-.23 1 1 0 000-.24.83.83 0 00.07-.3v-.36l1.88-.13.83 11.27-1.89.13a2 2 0 00-.05-.35 1.18 1.18 0 00-.11-.29.86.86 0 00-.05-.23 1 1 0 010-.24 2.06 2.06 0 01-.12-.35 1.5 1.5 0 00-.11-.34 3 3 0 00-1.36-1.3 7.38 7.38 0 00-3.67-.37l-6.31.45.93 13.32a3.21 3.21 0 00.88 2.3 3.75 3.75 0 002.7.53l5-.35a24.5 24.5 0 002.84-.41 8.88 8.88 0 003.4-1.62 9.92 9.92 0 002.12-2 14.76 14.76 0 001.9-3.18l1.95-.14L215 61.26l-32.96 2.33-.21-3 1.24-.09c1.37-.1 2.24-.38 2.6-.86a2.49 2.49 0 00.55-1.55v-.35-.36-.09a.34.34 0 000-.09l-2-28.46a.34.34 0 010-.09v-.09a4 4 0 00-.61-1.91c-.35-.57-1.31-.8-2.89-.69l-1.23.09-.21-2.95 31-2.17zm39.9 39.24a21.16 21.16 0 01-11.69-9.42q-4.25-6.93-1-16.88 3-9.16 10.11-12.87t15.62-.95a21.08 21.08 0 0111.73 9.37q4.22 6.9.95 17t-10.71 13.03a21 21 0 01-15.06.67zm1.09-3.37a12.88 12.88 0 001.94.44 7 7 0 002.48-.06q2.44-.45 5.29-3.38t5.32-10.57q3-9.09 1.61-13.36c-.9-2.84-2.28-4.75-4.16-5.73a5.4 5.4 0 00-.83-.42l-.8-.3a8.57 8.57 0 00-8.17 1.5q-3.91 2.9-6.9 12.05-2.46 7.59-1.9 11.59a11.11 11.11 0 002.2 5.84 7 7 0 002 1.58 13.19 13.19 0 001.85.82zm61.08-1.25l-1.64-.95a12.54 12.54 0 00-.92-5.85 9.44 9.44 0 00-4.13-4.3l-3.58-2.06c-1.47-.85-2.48-1.07-3-.66a5.29 5.29 0 00-1.42 1.63l-5.2 9 3.38 2q4.31 2.47 5.5 2.46a2.6 2.6 0 002-.88 1.4 1.4 0 00.18-.13 1.11 1.11 0 00.12-.16 1 1 0 00.18-.14.53.53 0 00.13-.16l.11-.18.1-.18.07-.13.08-.13 1.69 1-5.65 9.77-1.68-1 .1-.17.07-.13a3.18 3.18 0 00.16-.32l.13-.41a1.4 1.4 0 01.1-.35 3.57 3.57 0 00.1-.35 3 3 0 00-.41-1.84 7.65 7.65 0 00-2.97-2.42l-5.32-3.07-7 12.07c-.77 1.33-.9 2.29-.4 2.88a8.83 8.83 0 002.24 1.73l.1.06.77.45-1.48 2.55-16.42-9.48 1.47-2.56 1.08.62a4.23 4.23 0 002.56.77q1-.17 1.89-1.74l14.22-24.67a3 3 0 00.56-2.5 4.17 4.17 0 00-1.94-1.84l-1.07-.62 1.47-2.56L318 55.78zm41 41l-1.24-1.42a13.36 13.36 0 00-.11-6.61 11.3 11.3 0 00-1.92-3.6l-.06-.07-.06-.06a5.24 5.24 0 00-1.44-1.21c-.5-.28-1.19 0-2.09.75l-21.58 18.77-.06.06-.07.06-.27.23-.27.23a2.58 2.58 0 00-.71 1.48c-.08.59.33 1.41 1.23 2.45l.82.94-2.23 1.94-12.17-14 2.23-1.94.77.89c1.06 1.22 1.92 1.75 2.57 1.6a4.67 4.67 0 002-1.07l21.58-18.76c.89-.78 1.24-1.43 1-2a5.23 5.23 0 00-1-1.56l-.06-.06-.06-.07c-.18-.21-.36-.4-.54-.58s-.37-.35-.55-.5a8.77 8.77 0 00-3.2-1.65 21.47 21.47 0 00-5.56-.68l-1.24-1.43 8.38-3.68 20.66 23.76zm16.79 33.37l-.89-1.67.69-1a10.24 10.24 0 00.71-1.18 10.51 10.51 0 001.05-3.94 9.17 9.17 0 00-1.28-5l-2-3.81a4.59 4.59 0 00-1.72-2c-.57-.28-1.43-.11-2.58.5l-9.17 4.85 1.89 3.55q2.33 4.38 3.36 5a2.79 2.79 0 002.22.33.39.39 0 01.14 0 1 1 0 00.2-.07.85.85 0 01.22-.09l.22-.08.31-.06.32-.14.89 1.66-10 5.3-.89-1.67a2.49 2.49 0 00.3-.19 1.14 1.14 0 00.22-.22.8.8 0 00.19-.13.9.9 0 01.2-.14 2.16 2.16 0 01.27-.25 2.91 2.91 0 00.27-.24 3 3 0 00.63-1.77 7.39 7.39 0 00-1.16-3.5l-3-5.58-11.79 6.27a3.25 3.25 0 00-1.75 1.73 3.75 3.75 0 00.62 2.68l2.36 4.43a23.86 23.86 0 001.53 2.44 9 9 0 002.82 2.48 10.55 10.55 0 002.7 1.11 14.93 14.93 0 003.71.4l.91 1.73-9.79 2.86-15.5-29.16 2.61-1.39.58 1.1c.65 1.21 1.26 1.89 1.85 2a2.51 2.51 0 001.63-.14l.31-.16.32-.17H337.47l25.2-13.4h.16a4.22 4.22 0 001.5-1.34c.37-.55.19-1.53-.55-2.92l-.59-1.09 2.61-1.39 14.6 27.31zm17 20l-2.84.81V160.06v-.11a3.91 3.91 0 00-.73-1.6.91.91 0 00-1-.25 2.29 2.29 0 00-.77.44 13 13 0 00-1.23 1.18l-5.64 6 .1.34 7 2.06c.8.22 1.51.39 2.14.52a3.09 3.09 0 001.35.07 1.06 1.06 0 00.76-.67 3 3 0 00-.14-1.65l-.24-.86 2.83-.81 3.51 12.21-2.84.81-.45-1.15a4.94 4.94 0 00-2.35-3 17.17 17.17 0 00-4-1.6l-10.48-2.9-12 12.73a13.81 13.81 0 00-2.77 4 8.15 8.15 0 00-.54 4.43l-2.84.81-5.02-17.85 2.84-.82.43 1.48a1.32 1.32 0 00.64.86 1.52 1.52 0 00.88.17H356.36a1.63 1.63 0 00.77-.44l.53-.61a1.09 1.09 0 00.08-.15 1.29 1.29 0 00.19-.21 1.8 1.8 0 01.19-.2l7.16-7.59-.13-.45-9.51-2.66c-.58-.16-1.07-.28-1.47-.38a2.78 2.78 0 00-1.06-.06h-.22a1.28 1.28 0 00-1 .88 2.89 2.89 0 00.1 1.54l.14.51-2.83.81-3.9-13.3 2.84-.81.23.79a6.84 6.84 0 002.82 4.05 16.63 16.63 0 004.83 2.05l12.53 3.42 10.13-11.21c.41-.44.77-.86 1.11-1.27s.64-.78.9-1.15a6.61 6.61 0 001.1-2.68 7.91 7.91 0 00-.25-3.15l2.84-.82zm-25 61.06q-.35.12-1.11.45c-.5.21-1 .47-1.63.76l-1 .66a5.78 5.78 0 00-.92.77 2.28 2.28 0 00-.37.4l-.25.39a2.41 2.41 0 00-.41 1 7.65 7.65 0 000 1.22V226.89l-3 .1-.5-15.4 2.95-.1.07 1.94v.3a.78.78 0 00.13.38.64.64 0 00.48.25h.42a1.3 1.3 0 00.29-.07 6.6 6.6 0 00.81-.32l7.12-2.79-.5-14.29-6.4-2a1.2 1.2 0 00-.35-.11 2.26 2.26 0 01-.48-.16.27.27 0 01-.12 0h-.12l-.6-.19a2 2 0 00-.47-.07.41.41 0 01-.18-.05.27.27 0 00-.12 0h-.12a.53.53 0 00-.28.33 1.37 1.37 0 00-.1.57 1.25 1.25 0 00-.05.32 2.62 2.62 0 010 .27l.05 1.47-2.95.11-.41-11.93 2.95-.1a8.06 8.06 0 00.7 3.14 4 4 0 001.41 1.39l.27.14.33.2c.48.26.85.44 1.11.55a2.93 2.93 0 00.69.21.05.05 0 00.06.06.52.52 0 01.24.05 2.45 2.45 0 00.3.11l24.53 8.31a5.06 5.06 0 01.66.24 2.23 2.23 0 00.65.18 2.67 2.67 0 00.6.16 4.36 4.36 0 00.65 0h.36a1.13 1.13 0 00.66-.49 3 3 0 00.27-1.67v-.65l1.89-.06a16.13 16.13 0 00.39 2.61 6.9 6.9 0 00.84 2 9.57 9.57 0 001.06 1.5c.41.5.9 1.08 1.47 1.73l.09 2.42zm6.13-22.51l.4 11.46 14.52-5.89V203z" fill="none"/><path d="M26.4 187.85l7.46-.11v.89a8.93 8.93 0 00-2.83.61 4.73 4.73 0 00-2.07 1.87 6.77 6.77 0 00-.74 3.15l-.15 4.47 24.27.79c2 .06 3.18-.11 3.67-.52a3.49 3.49 0 001.08-2.7v-1.11h.87l-.44 13.47h-.86v-1.12a3.23 3.23 0 00-1.12-2.9 7.07 7.07 0 00-3.41-.62l-24.26-.79-.13 3.82a10.48 10.48 0 00.23 3.17 4.35 4.35 0 001.64 2.14A6.83 6.83 0 0033 213.5v.89l-7.44-.61zm17.4-14.4l3.6-14.33-8.82-2.2a10.61 10.61 0 00-3.19-.49 2.13 2.13 0 00-1.22.72 4.33 4.33 0 00-1.06 1.93l-.27 1.09-.84-.21 3.29-13.19.84.21-.27 1.09a4.43 4.43 0 000 2.2 2 2 0 00.85 1.27 11.67 11.67 0 002.95 1l19.9 5a10.15 10.15 0 003.16.47 2.06 2.06 0 001.21-.68 4.46 4.46 0 001.07-2l.27-1.09.85.21-3.3 13.19-.84-.21.27-1.09a3.34 3.34 0 00-.42-3c-.39-.5-1.51-1-3.36-1.45l-9.39-2.3-3.58 14.28 9.39 2.34a10.65 10.65 0 003.17.48 2.11 2.11 0 001.21-.72 4.35 4.35 0 001.07-1.93l.27-1.11.85.21-3.3 13.21-.84-.21.27-1.09a3.37 3.37 0 00-.42-3.05c-.4-.49-1.52-1-3.37-1.42l-19.9-5a10.44 10.44 0 00-3.18-.48 2 2 0 00-1.22.69 4.35 4.35 0 00-1.06 2l-.28 1.09-.84-.21 3.3-13.21.84.21-.28 1.12a4.39 4.39 0 000 2.19 2 2 0 00.86 1.26 11.2 11.2 0 002.94 1l8.83 2.21zm.33-42.25l11.27 5.55 3.08-6.26c.8-1.63 1.09-2.84.87-3.62a5.24 5.24 0 00-2.8-2.9l.38-.78 9.92 4.89-.38.78a12.12 12.12 0 00-3-.73 2.94 2.94 0 00-1.77.67 7.19 7.19 0 00-1.72 2.44l-3.09 6.27 9.4 4.63a9.52 9.52 0 002.39 1 1.38 1.38 0 00.94-.27 4 4 0 001-1.47l2.38-4.84a14.51 14.51 0 001.39-3.68 5.72 5.72 0 00-.29-2.75 18.11 18.11 0 00-2.61-4.61l.41-.84 5.94 6-10.73 21.91-.78-.38.5-1a4.53 4.53 0 00.46-2.15 2 2 0 00-.56-1.41 11 11 0 00-2.64-1.6l-18.52-9.12c-1.81-.89-3-1.26-3.62-1.1a3.65 3.65 0 00-2.08 2.11l-.5 1-.77-.35 10.8-22 6.4 2.76-.41.82a11.06 11.06 0 00-3.57-.54 3.71 3.71 0 00-2.06 1 10.74 10.74 0 00-1.78 2.81zm32.48-52l8.26 7.26-.57.65a13.74 13.74 0 00-4.79-2.19 7.78 7.78 0 00-4.28.37 8.48 8.48 0 00-3.58 2.41 5.65 5.65 0 00-1.55 4 4.56 4.56 0 001.5 3.43 4 4 0 002.65 1q2.28.08 8.09-2.1a46.73 46.73 0 016.77-2.15 9 9 0 013.91.1 8.05 8.05 0 013.38 1.72 8.24 8.24 0 012.83 6.21 10.17 10.17 0 01-2.83 7.14 16 16 0 01-1.88 1.82 27.13 27.13 0 01-2.64 1.72 13.53 13.53 0 00-2.48 1.66 1.22 1.22 0 00-.35.93 2.87 2.87 0 00.76 1.34l-.57.65-8.19-7.19.57-.66a15.21 15.21 0 004.93 2.15 7.94 7.94 0 004.2-.5 9.83 9.83 0 003.92-2.76 6.57 6.57 0 001.89-4.49 4.77 4.77 0 00-1.63-3.69 4.84 4.84 0 00-2.2-1.08 7 7 0 00-3 0c-.76.15-2.61.75-5.54 1.78a49.09 49.09 0 01-6.57 2 9.84 9.84 0 01-4 0 7.59 7.59 0 01-3.22-1.74 7.83 7.83 0 01-2.69-5.87 9.32 9.32 0 012.55-6.65 13.53 13.53 0 014.47-3.21 5.44 5.44 0 001.66-1 1.42 1.42 0 00.39-1 2.87 2.87 0 00-.69-1.43l.57-.66zm29.68-24.38l4.88 5.64-.7.55a9.19 9.19 0 00-2.29-1.77 4.73 4.73 0 00-2.76-.38 6.74 6.74 0 00-2.89 1.46l-3.52 2.77 15 19.08c1.2 1.53 2.12 2.36 2.75 2.48a3.53 3.53 0 002.77-.92l.86-.68.54.68-10.53 8.31-.54-.68.89-.7a3.24 3.24 0 001.49-2.72 7.11 7.11 0 00-1.71-3l-15-19.08-3 2.36a10.39 10.39 0 00-2.28 2.22 4.27 4.27 0 00-.58 2.63 6.89 6.89 0 001.3 3.33l-.7.55-4.31-6.09zm35.86 4.48l-11.03 5.39.28 5.46a7.77 7.77 0 00.5 2.83 1.6 1.6 0 001.18.84 6 6 0 003-.67l.38.78-9 4.4-.36-.74a5.53 5.53 0 001.91-2 14.53 14.53 0 00.36-5.27l-1.48-28.41.74-.36 21.57 18.88a12.19 12.19 0 004 2.64 5 5 0 003.2-.38l.38.78-11.26 5.52-.38-.78a4.62 4.62 0 002-1.69 1.64 1.64 0 000-1.48 10.16 10.16 0 00-2.28-2.51l-3.74-3.25zm-1.35-1.27l-10.5-9.16.69 14zm37-32.1l2.13 7.15-.86.22a8.84 8.84 0 00-1.36-2.56 4.62 4.62 0 00-2.31-1.5 6.73 6.73 0 00-3.24.13l-4.34 1.08 5.84 23.57c.47 1.89 1 3 1.5 3.4a3.52 3.52 0 002.9.29l1.07-.26.2.84-13.13 3.24-.21-.84 1.1-.27a3.23 3.23 0 002.48-1.83 7.27 7.27 0 00-.32-3.45l-5.85-23.61-3.71.92a10.9 10.9 0 00-3 1.08 4.37 4.37 0 00-1.61 2.17 6.91 6.91 0 00-.18 3.57l-.86.21-1.43-7.32 25.18-6.25zm17.83 0l.61 12.55 7-.34c1.81-.09 3-.42 3.58-1a5.26 5.26 0 001.18-3.85h.86l.54 11-.87.05a12 12 0 00-.8-3 2.93 2.93 0 00-1.44-1.22 7 7 0 00-3-.32l-7 .34.54 10.45a9.86 9.86 0 00.31 2.56 1.53 1.53 0 00.69.69 4.09 4.09 0 001.79.18l5.39-.26a14.75 14.75 0 003.89-.56 5.9 5.9 0 002.27-1.61 18.15 18.15 0 002.76-4.52h.94l-2.36 8.09-24.46 1.19v-.87h1.12a4.56 4.56 0 002.11-.64 2 2 0 001-1.18 11.42 11.42 0 00.12-3.08l-1-20.62c-.1-2-.36-3.24-.79-3.69a3.58 3.58 0 00-2.85-.8l-1.13.05v-.86l24.46-1.19.69 6.94h-.91a11.06 11.06 0 00-1.26-3.39 3.74 3.74 0 00-1.83-1.34 10.65 10.65 0 00-3.32-.19l-8.71.42zm57.77 2.47a14.39 14.39 0 019.27 7.19 16.2 16.2 0 011.59 12.47 16.71 16.71 0 01-7.33 10.53 15.26 15.26 0 01-21.47-5.19 16.73 16.73 0 01-1.43-12.81 16.08 16.08 0 018-10.75 15.2 15.2 0 0111.37-1.44zm-.85 1.55a8.37 8.37 0 00-7.4 1.43q-4.06 3-5.89 10.42c-1.25 5-1.13 9.18.35 12.42a8.2 8.2 0 005.79 4.72 9.21 9.21 0 008-1.61q3.67-2.68 5.48-10 2-7.92-.19-12.58a8.67 8.67 0 00-6.15-4.81zm31.47 11.69l-5.4 11.27 5.22 2.5a4.1 4.1 0 003 .47 5.78 5.78 0 002.61-2.61l.78.38-4.65 9.7-.78-.38a6.17 6.17 0 00.74-2.66 3 3 0 00-.57-1.72 5.31 5.31 0 00-2-1.42l-5.22-2.51-4.32 9a10.35 10.35 0 00-1.1 3 2.09 2.09 0 00.45 1.34 4.53 4.53 0 001.7 1.44l1 .49-.38.78-12.3-5.89.38-.78 1 .48a3.36 3.36 0 003.07.2c.56-.29 1.25-1.29 2.07-3l8.88-18.51a10.71 10.71 0 001.1-3 2.05 2.05 0 00-.43-1.32 4.31 4.31 0 00-1.7-1.44l-1-.49.38-.78 21.38 10.21-2.74 6.43-.74-.35a9.39 9.39 0 00.13-3.56 4.58 4.58 0 00-1.18-2.23 10.7 10.7 0 00-3.1-2l-6.32-3zm54.27 34.95l-4.6 5.88-.67-.58a9.13 9.13 0 001.3-2.59 4.73 4.73 0 00-.16-2.78 6.67 6.67 0 00-2-2.56l-3.39-2.92-15.83 18.38c-1.27 1.48-1.9 2.54-1.9 3.18a3.51 3.51 0 001.44 2.54l.83.71-.56.66-10.22-8.79.56-.65.86.73a3.21 3.21 0 003 .94 7 7 0 002.62-2.26l15.83-18.41-2.93-2.48a11 11 0 00-2.61-1.81 4.27 4.27 0 00-2.7-.06 6.86 6.86 0 00-3 1.92l-.68-.58 5.15-5.41 19.66 16.94zm10.32 14.4l-9.86 7.79 4.33 5.48c1.13 1.42 2.09 2.2 2.9 2.34a5.29 5.29 0 003.82-1.29l.54.68-8.68 6.86-.54-.68a12.21 12.21 0 001.93-2.36 3 3 0 00.15-1.88 7 7 0 00-1.46-2.61l-4.34-5.48-8.22 6.49a9.66 9.66 0 00-1.9 1.74 1.5 1.5 0 00-.16 1 4 4 0 00.89 1.57l3.34 4.23a14.72 14.72 0 002.72 2.84 5.83 5.83 0 002.61.92 18.16 18.16 0 005.29-.38l.58.74-8 2.78-15.15-19.26.68-.53.69.88a4.45 4.45 0 001.75 1.34 1.94 1.94 0 001.51.1 10.79 10.79 0 002.58-1.69l16.2-12.8q2.37-1.87 2.55-2.79a3.66 3.66 0 00-1-2.79l-.7-.88.68-.54 15.19 19.22-5.23 4.56-.56-.71a11.12 11.12 0 002-3 3.76 3.76 0 000-2.28 11.13 11.13 0 00-1.77-2.81l-5.41-6.84zm13.15 43.52l-6.11 10.61a28.52 28.52 0 00-2.92 6.13 5.92 5.92 0 00.43 3.67l-.77.38-6-12.23.77-.39a6.27 6.27 0 001.15 1.69 1.91 1.91 0 00.93.44 1.49 1.49 0 00.93-.11 3.08 3.08 0 00.88-.66 20.54 20.54 0 001.28-2.07l4.93-8.44-10.59-2.2a12.78 12.78 0 00-2.19-.33 2.22 2.22 0 00-.95.23 1.48 1.48 0 00-.83 1.11 4.48 4.48 0 00.56 2.42l-.78.38-5-10.11.78-.38a6.85 6.85 0 001.35 1.63 11.87 11.87 0 002.69 1.75 19.55 19.55 0 004.17 1.3l11.81 2.54 5.45-9.66a18.51 18.51 0 002.47-6.05 7.82 7.82 0 00-.71-4.23l.78-.38 6.49 13.18-.78.38a4.65 4.65 0 00-1.68-2 1.53 1.53 0 00-1.37-.09 5.33 5.33 0 00-1.78 2.13l-4.38 7.59 8.91 1.91a12.36 12.36 0 002.09.32 2.26 2.26 0 001-.23 1.42 1.42 0 00.65-.63 1.91 1.91 0 00.23-1.11 7.91 7.91 0 00-.79-2.09l.78-.39 5 10.11-.77.39a6.69 6.69 0 00-1.35-1.77 8.57 8.57 0 00-2.33-1.44 26.56 26.56 0 00-4.34-1.18l-10-2.09zm6.26 40.46l-2.78-12-5.37-1a7.83 7.83 0 00-2.87-.15 1.61 1.61 0 00-1.09 1 6.07 6.07 0 000 3.07l-.85.2-2.25-9.75.84-.2a5.51 5.51 0 001.47 2.31 14.65 14.65 0 005.05 1.55l28 5 .19.8-23.27 16.73a12 12 0 00-3.48 3.3 4.91 4.91 0 00-.36 3.19l-.84.2-2.83-12.22.85-.19a4.7 4.7 0 001.19 2.36 1.63 1.63 0 001.43.35 9.55 9.55 0 003-1.65l4-2.9zm1.54-1l11.3-8.14-13.76-2.5zm23.57 37.22l-11 .26v-.87a13.64 13.64 0 005-1.63 7.9 7.9 0 002.9-3.18 8.65 8.65 0 001-4.19 5.71 5.71 0 00-1.58-4 4.53 4.53 0 00-3.43-1.51 4 4 0 00-2.62 1.07q-1.72 1.5-4.52 7a48 48 0 01-3.53 6.17 8.73 8.73 0 01-2.95 2.58 7.94 7.94 0 01-3.61 1 8.18 8.18 0 01-6.28-2.65 10.13 10.13 0 01-2.79-7.14 15.67 15.67 0 01.15-2.61 27.59 27.59 0 01.79-3 13.49 13.49 0 00.66-2.91 1.2 1.2 0 00-.37-.92 2.79 2.79 0 00-1.46-.47v-.86l10.91-.34v.86a15.28 15.28 0 00-5.1 1.74 7.84 7.84 0 00-2.75 3.21 9.89 9.89 0 00-1 4.68 6.63 6.63 0 001.65 4.59 4.81 4.81 0 003.7 1.62 5 5 0 002.35-.71 7 7 0 002.18-2q.68-.93 2.87-5.06a49.65 49.65 0 013.5-5.89 9.83 9.83 0 012.94-2.68 7.45 7.45 0 013.59-1 7.84 7.84 0 015.95 2.49 9.32 9.32 0 012.63 6.62 13.44 13.44 0 01-1.11 5.39 5.51 5.51 0 00-.54 1.87 1.42 1.42 0 00.38 1 2.88 2.88 0 001.48.59v.87z" fill="#231f20"/><path d="M208.92 69.66c-76.59 0-139.1 62.5-139.1 139.1s62.51 139.09 139.1 139.09 139.09-62.5 139.09-139.09-62.5-139.1-139.09-139.1z" fill="#fff" stroke="#000" stroke-width="1.2"/><path d="M270.06 326.93c5.2 1 9.13-2.67 9.13-2.67l-3.93-8.75s-2.21 3.89-5.33 2.54c-3.62-1.57-3-7.07-4.78-9.14-2.3-2.63-6.14-3.95-9.63-4.12-5.49-.28-20.24 9.4-25.36 11.4-6.14 2.39-8.84-.79-8.84-.79l1.38 10.61a46.08 46.08 0 008.45-1c7.47-2.12 15.82-7.71 22-11 1.32-.7 3.42.46 4.13 1.77 4.1 7.58 5.75 9.83 12.77 11.14z" fill="#fff" stroke="#000"/><path d="M211.69 313.41c5.11 2.2 7.57 5.53 8.63 11.79 1.41 1.44 6.61 2.22 9.42 0-1.62-7.89-8.51-15.88-18.3-16.83z" fill="#fff" stroke="#000"/><path d="M184.68 315.82c2.37 3.29 6.53 9 9.62 8.6l5.6-7.78c-4.86-.61-6.77-4.79-9.08-8.46l-4.09.41z" fill="#fff" stroke="#000" stroke-miterlimit="3.2"/><path d="M210.09 313.41c-5.11 2.2-7.57 5.53-8.62 11.79-1.57 1.44-6.77 1-9.23-1.21 1.62-7.89 8.31-14.7 18.1-15.65z" fill="#fff" stroke="#000" stroke-miterlimit="3.2"/><path d="M117.82 279.68a122.94 122.94 0 0122-1.15l1-2.83c-6.56-.67-14.07-.08-23.08 2.21zM142.82 111.14a123.3 123.3 0 01-5.68 21.25l2.4 1.79c2.65-6 4.41-13.36 5-22.63zM98.49 241.49a123.77 123.77 0 0120 9.28l2.18-2.05c-5.48-3.66-12.4-6.66-21.43-8.85zM121.64 189.19a122.93 122.93 0 00-11.73 18.61l-2.94-.55c2.62-6 6.8-12.31 13.2-19z"/><path d="M168.61 258.48c-4.27 11.19-4.3 20.59-1.31 28 3.5 8.69 11.26 14.76 21.06 17.66 1.65-11.34 1.06-20.4-1.61-27.52-3.09-8.19-9.09-13.96-18.14-18.14z" fill="#fff" stroke="#000" stroke-miterlimit="3.2"/><path d="M170.4 264.44c-.29 12.39 3.21 24.59 16.62 39 2.59 2.79 11 2.95 12.51 3.27 2.12-1.56-8.8-1.18-11-4.24-10.66-14.52-15.72-25.98-18.13-38.03z"/><path d="M107.86 291.28c8.83-8.09 17.57-11.57 25.56-11.52 9.37.06 17.87 5 24.17 13.09-9.93 5.7-18.57 8.49-26.18 8.62-8.76.12-16.33-3.31-23.55-10.19z" fill="#fff" stroke="#000" stroke-miterlimit="3.2"/><path d="M114.05 290.74c11.42-4.83 24-6.06 42.39 1.11 3.54 1.38 10.44 3.8 11.31 5.13-.67 2.55-8-2.45-11.67-3.4-17.41-4.53-29.92-4.99-42.03-2.84z"/><path d="M165.96 131.78c-11.61-2.91-20.95-1.82-28 2-8.21 4.51-13.31 12.94-15 23 11.45.29 20.37-1.37 27.13-4.88 7.79-3.99 12.8-10.64 15.87-20.12z" fill="#fff" stroke="#000" stroke-miterlimit="3.2"/><path d="M160.27 134.25c-12.34 1.19-24 6.11-36.76 21.14-2.45 2.91-7.37 8.32-7.5 9.9 1.8 1.93 5.88-6 8.64-8.54 13.16-12.27 23.93-18.66 35.62-22.5z"/><path d="M97.27 145.32c-6.4 10.12-8.29 19.33-6.82 27.19 1.71 9.21 8.11 16.7 17.14 21.48 3.87-10.79 5.08-19.78 3.87-27.29-1.4-8.65-6.14-15.49-14.19-21.38z" fill="#fff" stroke="#000" stroke-miterlimit="3.2"/><path d="M97.83 151.51c-2.73 12.08-1.72 24.74 8.57 41.52 2 3.25.22 8.08 1.68 8.69 2.39-1.1 1.54-5.91 0-9.34-7.56-16.34-10.26-28.57-10.25-40.87z"/><path d="M110.64 124.97c8.85 8.07 13.1 16.45 13.78 24.42.78 9.34-3.41 18.25-10.86 25.25-6.58-9.38-10.13-17.73-10.94-25.3-.95-8.7 1.78-16.56 8.02-24.37z" fill="#fff" stroke="#000" stroke-miterlimit="3.2"/><path d="M111.73 131.09c5.84 10.94 8.21 23.4 2.73 42.31-1.06 3.66-2.85 10.75-4.1 11.73-2.6-.43 1.72-8.2 2.34-11.93 2.94-17.75 2.3-30.25-.97-42.11z"/><path d="M183.68 88.24c-11.94-.86-20.95 1.83-27.19 6.83-7.31 5.87-10.88 15-10.82 25.27 11.33-1.7 19.83-4.88 25.88-9.5 6.95-5.31 10.74-12.73 12.13-22.6z" fill="#fff" stroke="#000" stroke-miterlimit="3.2"/><path d="M178.5 91.66c-11.95 3.3-22.62 10.17-32.55 27.18-1.92 3.28-6.34 9.21-6.2 10.78 2.11 1.59 5.28-6.63 7.55-9.65 10.84-14.38 20.35-22.51 31.2-28.31z"/><path d="M199.81 123.93c-8.87-8-17.62-11.48-25.61-11.39-9.37.1-17.85 5.13-24.11 13.2 10 5.66 18.62 8.4 26.23 8.49 8.75.11 16.31-3.38 23.49-10.3z" fill="#fff" stroke="#000" stroke-miterlimit="3.2"/><path d="M193.62 123.42c-11.44-4.77-24.08-5.94-42.38 1.31-3.54 1.41-10.43 3.86-11.28 5.19.67 2.55 8-2.49 11.64-3.46 17.39-4.61 29.91-5.16 42.02-3.04z"/><path d="M198.79 103.01c-10.89-5-20.28-5.57-27.87-3-8.89 3-15.43 10.32-18.93 19.92 11.21 2.35 20.29 2.33 27.57.1 8.37-2.61 14.5-8.25 19.23-17.02z" fill="#fff" stroke="#000" stroke-miterlimit="3.2"/><path d="M192.74 104.41c-12.35-1.06-24.74 1.68-40 14.16-2.95 2.42-10.7 8.28-11.11 9.81 1.42 2.22 8.8-6.23 12-8.27 15.18-9.69 26.93-14.03 39.11-15.7z"/><path d="M141.58 125.73a104.42 104.42 0 0069.47 182.34v-3.19a101.21 101.21 0 01-67.31-176.78z"/><path d="M133.18 106.15c6.38 10.13 8.25 19.35 6.78 27.2-1.73 9.21-8.15 16.69-17.19 21.45-3.84-10.79-5-19.79-3.81-27.3 1.44-8.64 6.16-15.47 14.22-21.35z" fill="#fff" stroke="#000" stroke-miterlimit="3.2"/><path d="M132.6 112.34c2.72 12.09 1.68 24.74-8.64 41.51-2 3.24-5.6 9.6-7.06 10.21-2.39-1.11 3.83-7.44 5.42-10.87 7.56-16.33 10.27-28.55 10.28-40.85z"/><path d="M150.33 153.25c-12-.79-20.94 2-27.15 7-7.27 5.9-10.78 15.1-10.68 25.34 11.32-1.76 19.81-5 25.83-9.65 6.92-5.35 10.67-12.81 12-22.69z" fill="#fff" stroke="#000" stroke-miterlimit="3.2"/><path d="M145.16 156.7c-11.92 3.37-22.56 10.31-32.38 27.37-1.9 3.3-5.77 9.5-5.62 11.07 2.12 1.58 4.72-6.91 7-9.94 10.74-14.43 20.24-22.61 31-28.5z"/><path d="M132.95 192.11c-10.38 6-16.35 13.24-18.72 20.88-2.78 8.95-.6 18.55 5.16 27 8.45-7.74 13.71-15.13 16.14-22.34 2.79-8.31 1.79-16.58-2.58-25.54z" fill="#fff" stroke="#000" stroke-miterlimit="3.2"/><path d="M130.56 197.85c-8.06 9.42-13.06 21.09-11.77 40.73.24 3.8.47 11.11 1.47 12.33 2.63.14.09-8.37.29-12.14.95-17.97 4.27-30.05 10.01-40.92z"/><path d="M83.97 180.59c11.62 2.89 19.35 8.24 23.73 14.93 5.13 7.84 5.68 17.67 2.47 27.37-10.25-5.12-17.35-10.78-21.67-17-4.97-7.24-6.27-15.46-4.53-25.3z" fill="#fff" stroke="#000" stroke-miterlimit="3.2"/><path d="M87.84 185.47c10.34 6.85 18.35 16.69 22.52 35.93.81 3.72 2.6 10.8 2 12.26-2.5.85-2.39-8-3.62-11.6-5.88-17.01-12.34-27.71-20.9-36.59z"/><path d="M77.4 203.13c12 0 20.78 3.27 26.66 8.69 6.89 6.35 9.82 15.75 9.07 25.94-11.19-2.46-19.45-6.22-25.17-11.24-6.63-5.78-9.9-13.44-10.56-23.39z" fill="#fff" stroke="#000" stroke-miterlimit="3.2"/><path d="M82.29 206.9c11.7 4.12 21.87 11.7 30.61 29.35 1.69 3.41 5.16 9.84 4.91 11.4-2.21 1.44-4.27-7.2-6.34-10.36-9.83-15.07-18.75-23.86-29.18-30.39z"/><path d="M86.33 251.7c11.14-4.37 20.55-4.49 28-1.57 8.72 3.42 14.86 11.13 17.86 20.9-11.33 1.75-20.39 1.25-27.54-1.36-8.25-3.01-14.06-8.96-18.32-17.97z" fill="#fff" stroke="#000" stroke-miterlimit="3.2"/><path d="M92.3 253.42c12.39-.4 24.62 3 39.16 16.26 2.81 2.57 8.38 7.3 8.71 8.85-1.54 2.14-6.59-5.16-9.67-7.36-14.62-10.48-26.1-15.44-38.2-17.75z"/><path d="M137.64 220.49c-8.35 8.58-12.1 17.2-12.29 25.2-.23 9.36 4.49 18 12.34 24.55 6-9.75 9.05-18.3 9.42-25.9.42-8.75-2.81-16.43-9.47-23.85z" fill="#fff" stroke="#000" stroke-miterlimit="3.2"/><path d="M136.92 226.66c-5.18 11.27-6.8 23.85-.2 42.4 1.28 3.59 3.49 10.56 4.79 11.46 2.57-.59-2.21-8.08-3-11.76-4.04-17.54-4.11-30.07-1.59-42.1z"/><path d="M146.47 245.11c-4.5 11.09-4.73 20.49-1.9 28 3.32 8.76 10.94 15 20.68 18.1 1.89-11.29 1.49-20.37-1-27.54-2.94-8.29-8.85-14.19-17.78-18.56z" fill="#fff" stroke="#000" stroke-miterlimit="3.2"/><path d="M148.12 251.1c-.55 12.38 2.69 24.66 15.79 39.35 2.53 2.84 7.2 8.47 8.75 8.82 2.16-1.51-5.08-6.66-7.25-9.76-10.31-14.74-15.12-26.3-17.29-38.41z"/><g fill="#fff" stroke="#000" stroke-miterlimit="5.324"><path d="M131.04 190.71c-4.31 3.54-9.93 3.83-12.54.65s-1.25-8.64 3.06-12.19 11.7-5.29 14.32-2.1-.48 10.1-4.84 13.64z"/><path d="M120.96 179.66a19.84 19.84 0 009.49 11.54l-.27 2c-3.7 2.07-9.43.91-11.68-1.84s-2.56-8.65.38-11.9z"/><path d="M116.34 193.13c-3.07-3.74-2.49-9.56 2.18-13.4a24 24 0 0011.36 13.72c-4.67 3.84-10.48 3.41-13.54-.32z"/></g><g fill="#fff" stroke="#000" stroke-miterlimit="5.324"><path d="M89.99 244.35c5 2.4 10.56 1.32 12.33-2.4s-.92-8.69-5.92-11.09-12.63-2.27-14.4 1.42 2.95 9.67 7.99 12.07z"/><path d="M97.1 231.19a19.81 19.81 0 01-6.42 13.49l.72 1.91c4.08 1.11 9.36-1.4 10.89-4.61s.39-9-3.25-11.46z"/><path d="M104.84 243.14c2.07-4.36.1-9.87-5.36-12.47a24 24 0 01-7.7 16.06c5.46 2.59 10.98.78 13.06-3.59z"/></g><g fill="#fff" stroke="#000" stroke-miterlimit="5.324"><path d="M151.83 108.7c-1.06 5.48-5.2 9.28-9.25 8.5s-6.47-5.86-5.41-11.34 5.64-11.54 9.69-10.76 6.03 8.12 4.97 13.6z"/><path d="M137.03 106.59a19.82 19.82 0 0014.66 2.83l1.07 1.72c-1.53 4-6.68 6.7-10.18 6s-7.48-5-7.29-9.41z"/><path d="M142.05 119.94c-4.74-.92-8-5.78-6.86-11.71a24 24 0 0017.5 3.32c-1.15 5.94-5.89 9.3-10.64 8.39z"/></g><g fill="#fff" stroke="#000" stroke-miterlimit="5.324"><path d="M159.96 137.21c-5.52-.8-9.52-4.75-8.93-8.83s5.55-6.74 11.07-5.94 11.8 5.08 11.21 9.16-7.83 6.41-13.35 5.61z"/><path d="M161.34 122.33a19.81 19.81 0 00-2.14 14.77l-1.66 1.15c-4-1.34-7-6.35-6.51-9.87s4.67-7.72 9.06-7.73z"/><path d="M148.27 127.98c.7-4.79 5.39-8.28 11.37-7.41a24 24 0 00-2.49 17.63c-5.98-.87-9.57-5.44-8.88-10.22z"/></g><g fill="#fff" stroke="#000" stroke-miterlimit="5.324"><path d="M110.84 285.06c5.58-.08 10.06-3.48 10-7.61s-4.62-7.4-10.2-7.32-12.36 3.51-12.3 7.63 6.92 7.37 12.5 7.3z"/><path d="M111.4 270.12a19.83 19.83 0 01.2 14.93l1.5 1.35c4.15-.8 7.78-5.39 7.73-8.95s-3.63-8.25-8-8.84z"/><path d="M123.63 277.42c-.07-4.84-4.27-8.91-10.31-8.83a24 24 0 01.18 17.81c6.04-.08 10.19-4.15 10.13-8.98z"/></g><path d="M166.4 283.99a122.83 122.83 0 0014.32 16.71l-1.39 2.65c-5-4.29-9.76-10.14-14.3-18.24z"/><g fill="#fff" stroke="#000" stroke-miterlimit="5.324"><path d="M172.71 276.88c2.11 5.17.73 10.62-3.09 12.18s-8.62-1.36-10.73-6.53-1.6-12.75 2.22-14.31 9.49 3.5 11.6 8.66z"/><path d="M159.18 283.24a19.78 19.78 0 0013.82-5.65l1.84.85c.88 4.14-1.92 9.27-5.22 10.62s-9-.12-11.25-3.89z"/><path d="M170.68 291.64c-4.48 1.83-9.87-.45-12.15-6.05a24 24 0 0016.46-6.79c2.28 5.6.16 11.01-4.31 12.84z"/></g><path d="M138.95 310.45c7.4-9.42 15.45-14.27 23.35-15.52 9.25-1.47 18.45 2.07 26 9-8.87 7.25-17 11.4-24.43 12.76-8.65 1.55-16.68-.63-24.92-6.24z" fill="#fff" stroke="#000" stroke-miterlimit="3.2"/><path d="M144.97 308.91c10.48-6.62 22.75-9.89 42-5.8 3.73.8 10.93 2.06 12 3.23-.25 2.63-8.3-1.11-12.07-1.46-17.91-1.64-30.34-.09-41.93 4.03zM250.03 300.59a104.33 104.33 0 01-38.87 7.46v-3.19a101.22 101.22 0 0035.94-6.54z"/><path d="M292.7 312.64c-12-2.53-19.35 2.09-27.84.86s-16.13-5-27.83-10.62c21.44-12.41 41.69-9.5 55.67 9.76z" fill="#fff" stroke="#000" stroke-miterlimit="3.2"/><path d="M289.21 311.12c-9.72-7.71-26.6-11.48-46.19-9.47-3.79.38-9.08.94-10.27 2 0 2.63 6.38.08 10.15-.23 21.21-1.73 35.23 2.36 46.31 7.7z"/><path d="M267.4 257.16c-7.18 10-15.69 11.52-21.13 18.15s-8.52 14.57-13.37 26.62c24.16-5.34 37.14-21.11 34.5-44.77z" fill="#fff" stroke="#000" stroke-miterlimit="3.2"/><path d="M265.82 260.64c-2 12.24-11.9 26.42-27.71 38.16-3.06 2.27-10.15 6.94-11.73 7-1.81-1.91 7.47-5.87 10.45-8.19 16.82-13.02 24.41-25.55 28.99-36.97z"/><path d="M338.57 247.2c-11.34 4.78-14.72 12.74-22.4 16.55s-16.11 5.07-28.93 7.11c10.57-22.41 28.87-31.54 51.33-23.66z" fill="#fff" stroke="#000" stroke-miterlimit="3.2"/><path d="M334.83 247.93c-12.37-.8-28.4 5.71-43.37 18.51-2.89 2.47-10.52 8.49-10.9 10 1.46 2.19 8.89-6.11 11.81-8.51 16.46-13.46 30.31-18.08 42.46-20z"/><path d="M279.21 199.53c6.71 10.32 5.05 18.81 9.27 26.27s10.5 13.23 20 22.11c3.78-24.48-6.25-42.32-29.27-48.38z" fill="#fff" stroke="#000" stroke-miterlimit="3.2"/><path d="M281.9 202.24c10.69 6.27 20.32 20.65 25.53 39.64 1 3.67 4 12.93 3.41 14.42-2.44 1-3.93-10-5-13.67-6.08-20.4-14.96-31.99-23.94-40.39z"/><path d="M338.63 165.32c-7 10.15-5.5 18.67-9.89 26s-10.82 13-20.5 21.61c-3.22-24.52 7.24-42.1 30.39-47.61z" fill="#fff" stroke="#000" stroke-miterlimit="3.2"/><path d="M335.88 167.96c-10.84 6-20.81 20.16-26.48 39-1.09 3.65-4.26 12.84-3.75 14.33 2.42 1 4.17-10 5.34-13.54 6.55-20.23 15.71-31.61 24.89-39.79z"/><path d="M277.4 174.9c8.24 9.14 7.93 17.78 13.26 24.5s12.45 11.41 23.2 18.7c-.13-24.78-12.83-40.81-36.46-43.2z" fill="#fff" stroke="#000" stroke-miterlimit="3.2"/><path d="M280.4 177.16c11.54 4.51 23.3 17.21 31.42 35.14 1.57 3.47 5.94 12.16 5.63 13.71-2.26 1.36-5.46-9.31-7.09-12.72-9.16-19.19-19.75-29.25-29.96-36.13z"/><path d="M338.1 194.73c-6.71 10.32-5.06 18.81-9.27 26.27s-10.5 13.23-20 22.11c-3.78-24.52 6.25-42.31 29.27-48.38z" fill="#fff" stroke="#000" stroke-miterlimit="3.2"/><path d="M335.4 197.44c-10.69 6.27-20.32 20.65-25.53 39.64-1 3.67-4 12.93-3.41 14.42 2.44 1 3.93-10 5-13.67 6.08-20.4 14.94-31.99 23.94-40.39z"/><path d="M288 105.17c3.77 11.72-.06 19.47 2 27.78s6.67 15.52 13.49 26.57c10.14-22.62 5.13-42.46-15.49-54.35z" fill="#fff" stroke="#000" stroke-miterlimit="3.2"/><path d="M289.88 108.49c8.68 8.85 14.19 25.26 14.25 44.94 0 3.81.43 13.52-.49 14.81-2.62.32-1.16-10.72-1.25-14.5-.51-21.27-5.99-34.79-12.51-45.25z"/><path d="M235.46 90.35c9.52 7.8 10.51 16.39 16.79 22.23s14 9.43 25.73 15c-3.78-24.46-18.74-38.41-42.52-37.23z" fill="#fff" stroke="#000" stroke-miterlimit="3.2"/><path d="M238.84 92.12c12.09 2.74 25.62 13.53 36.34 30.05 2.07 3.19 7.68 11.13 7.61 12.71-2 1.68-6.79-8.39-8.91-11.51-11.96-17.6-23.93-25.97-35.04-31.25z"/><g><path d="M229.58 122.21c12 2.58 16.84 9.76 25.1 12.08s16.77 2 29.75 1.58c-14.57-20.04-34.25-25.59-54.85-13.66z" fill="#fff" stroke="#000" stroke-miterlimit="3.2"/><path d="M233.4 122.23c12-3.1 29 .31 46.06 10.09 3.3 1.89 11.93 6.38 12.59 7.82-1 2.42-9.88-4.35-13.2-6.16-18.69-10.18-33.17-12.13-45.45-11.75z"/></g><g><path d="M259.69 91.96c7 10.09 5.68 18.63 10.14 25.95s10.93 12.87 20.7 21.43c2.99-24.6-7.63-42.08-30.84-47.38z" fill="#fff" stroke="#000" stroke-miterlimit="3.2"/><path d="M262.46 94.59c10.9 5.91 21 20 26.85 38.76 1.13 3.64 4.38 12.8 3.88 14.3-2.41 1.07-4.26-9.91-5.46-13.49-6.74-20.19-16.01-31.49-25.27-39.57z"/></g><g><path d="M224.98 105.12c11.43 4.54 15 12.43 22.73 16.09s16.21 4.73 29.08 6.51c-11.03-22.13-29.51-30.94-51.81-22.6z" fill="#fff" stroke="#000" stroke-miterlimit="3.2"/><path d="M228.73 105.77c12.36-1.05 28.52 5.13 43.74 17.62 2.94 2.41 10.7 8.28 11.11 9.8-1.42 2.22-9-5.93-12-8.26-16.71-13.15-30.66-17.49-42.85-19.16z"/></g><g><path d="M255.4 123.71c10.26 6.8 12.11 15.25 18.94 20.42s14.89 8 27.11 12.36c-6.18-23.98-22.47-36.36-46.05-32.78z" fill="#fff" stroke="#000" stroke-miterlimit="3.2"/><path d="M258.99 125.12c12.3 1.51 26.85 10.89 39.17 26.24 2.38 3 8.77 10.3 8.85 11.88-1.84 1.88-7.59-7.66-10-10.56-13.69-16.3-26.44-23.42-38.02-27.56z"/></g><g><path d="M312.45 127.65c-2.81 12-10.1 16.65-12.58 24.85s-2.3 16.73-2.17 29.72c20.32-14.17 26.27-33.74 14.75-54.57z" fill="#fff" stroke="#000" stroke-miterlimit="3.2"/><path d="M299.7 176.67c10.55-18.48 12.79-32.91 12.65-45.21 2.86 12.07-.88 29-11 45.85z"/></g><g><path d="M265.1 151.74c-6.69-2.9-10.42-9.16-8.33-14s9.21-6.37 15.9-3.47 10.42 9.16 8.33 14-9.21 6.37-15.9 3.47z" fill="#231f20" stroke="#000" stroke-width="1.177"/><path d="M279.57 146.45c.83-6.82-9.57-14.44-18.54-10.78 6.22 1.86 12.47 1.21 18.54 10.78z" fill="#fff"/></g><g><path d="M317.49 150.59c.05 7.3-4.16 13.24-9.41 13.28s-9.56-5.84-9.61-13.13 4.16-13.24 9.41-13.28 9.52 5.87 9.61 13.13z" fill="#231f20" stroke="#000" stroke-width="1.177"/><path d="M306.8 139.53c-6.59 2-9.34 14.6-2.36 21.32-.81-6.44-3.94-11.89 2.36-21.32z" fill="#fff"/></g><g><path d="M268.62 148.59c10 7.14 11.59 15.64 18.25 21s14.62 8.46 26.69 13.24c-5.43-24.17-21.3-37.07-44.94-34.24z" fill="#fff" stroke="#000" stroke-miterlimit="3.2"/><path d="M309.18 178.88c-13.12-16.74-25.63-24.27-37.07-28.79 12.29 1.91 26.48 11.76 38.29 27.5z"/></g><g><path d="M279.28 157.76c7.87 9.46 7.2 18.09 12.25 25s12 11.92 22.41 19.65c.94-24.75-11.09-41.29-34.66-44.65z" fill="#fff" stroke="#000" stroke-miterlimit="3.2"/><path d="M282.27 160.13c11.35 5 22.57 18.16 29.95 36.41 1.43 3.53 5.43 12.39 5.06 13.93-2.31 1.27-5.07-9.52-6.56-13-8.39-19.55-18.55-30.03-28.45-37.34z"/></g><g><path d="M321.1 142.79c-2.15 12.12 2.69 19.28 1.73 27.8s-4.5 16.28-9.75 28.16c-13.07-21.05-10.8-41.38 8.02-55.96z" fill="#fff" stroke="#000" stroke-miterlimit="3.2"/><path d="M319.68 146.33c-7.39 9.95-10.63 26.95-8 46.47.5 3.77 1.41 13.45 2.5 14.6 2.63 0-.31-10.78-.74-14.54-2.39-21.14 1.25-35.27 6.24-46.53z"/></g><g><path d="M289.53 207.4c-4.7-5.58-5.24-12.85-1.22-16.23s11.08-1.59 15.77 4 5.24 12.84 1.22 16.22-11.08 1.59-15.77-3.99z" fill="#231f20" stroke="#000" stroke-width="1.177"/><path d="M304.84 209.12c3.79-5.74-2.12-17.2-11.78-17.92 4.72 4.44 10.62 6.64 11.78 17.92z" fill="#fff"/></g><g><path d="M308.84 176.59c-.06 12.31-6.11 18.49-6.69 27s1.5 16.82 4.54 29.45c16.64-18.33 18.05-38.74 2.15-56.45z" fill="#fff" stroke="#000" stroke-miterlimit="3.2"/><path d="M309.6 180.32c5.49 11.12 5.63 28.42-.45 47.15-1.17 3.62-3.8 13-5.08 13.92-2.58-.52 2.24-10.56 3.33-14.18 6.14-20.37 5.09-34.93 2.2-46.89z"/></g><g><path d="M340.48 215.77c-8.32 9.07-17 9.58-23.14 15.51s-10.2 13.46-16.44 24.85c24.66-2.4 39.42-16.54 39.58-40.36z" fill="#fff" stroke="#000" stroke-miterlimit="3.2"/><path d="M338.53 219.05c-3.42 11.92-14.95 24.82-32.05 34.59-3.3 1.89-11.54 7.05-13.12 6.88-1.56-2.11 8.76-6.3 12-8.25 18.24-10.94 27.27-22.43 33.17-33.22z"/></g><g><path d="M282.79 218.53c3.38 11.83-.7 19.46 1.13 27.83s6.14 15.73 12.58 27c10.9-22.26 6.51-42.25-13.71-54.83z" fill="#fff" stroke="#000" stroke-miterlimit="3.2"/><path d="M284.57 221.91c8.37 9.14 13.33 25.72 12.73 45.4-.12 3.8 0 13.52-1 14.78-2.63.23-.8-10.76-.77-14.54.22-21.27-4.85-34.96-10.96-45.64z"/></g><g><path d="M318.58 217.68c-4.09 11.6-.48 19.46-2.81 27.71s-7.09 15.33-14.2 26.19c-9.48-22.89-3.93-42.58 17.01-53.9z" fill="#fff" stroke="#000" stroke-miterlimit="3.2"/><path d="M316.6 220.94c-8.91 8.62-14.87 24.86-15.46 44.54-.12 3.81-.79 13.5.09 14.82 2.6.38 1.45-10.69 1.64-14.47 1.09-21.24 6.98-34.61 13.73-44.89z"/></g><g><path d="M282.22 236.92c-3.69 11.74-11.29 15.85-14.37 23.85s-3.53 16.52-4.36 29.48c21.31-12.66 28.69-31.66 18.73-53.33z" fill="#fff" stroke="#000" stroke-miterlimit="3.2"/><path d="M281.84 240.71c2 12.24-3 28.82-14.35 44.91-2.19 3.12-7.46 11.28-9 11.8-2.31-1.25 5.26-9.42 7.37-12.56 11.92-17.65 15.22-31.87 15.98-44.15z"/></g><g><path d="M295.21 265.93c-3.57 6.36-10.18 9.42-14.76 6.84s-5.39-9.81-1.82-16.16 10.19-9.42 14.76-6.85 5.4 9.83 1.82 16.17z" fill="#231f20" stroke="#000" stroke-width="1.177"/><path d="M291.4 250.99c-6.71-1.53-15.35 8-12.64 17.33 2.54-5.99 2.53-12.28 12.64-17.33z" fill="#fff"/></g><g><path d="M330.46 263.67c-11.9 3.13-16.38 10.53-24.52 13.22s-16.66 2.74-29.65 2.95c13.64-20.69 33.05-27.14 54.17-16.17z" fill="#fff" stroke="#000" stroke-miterlimit="3.2"/><path d="M326.65 263.87c-12.13-2.54-28.93 1.64-45.55 12.19-3.21 2-13.28 8.82-13.88 10.29 1.14 2.37 11.33-6.7 14.57-8.66 18.19-11.02 32.61-13.64 44.86-13.82z"/></g><g><path d="M321.98 285.03c-12.3.34-18.34 6.54-26.87 7.32s-16.85-1.12-29.55-3.86c17.97-17.06 38.34-18.9 56.42-3.46z" fill="#fff" stroke="#000" stroke-miterlimit="3.2"/><path d="M318.23 284.36c-11.24-5.23-28.55-5-47.13 1.54-3.59 1.26-12.88 4.1-13.79 5.4.57 2.57 10.5-2.48 14.09-3.66 20.22-6.61 34.81-5.9 46.83-3.28z"/></g><g><path d="M292.65 298.48c-12.31.1-18.47 6.17-27 6.77s-16.82-1.46-29.46-4.46c18.3-16.68 38.7-18.15 56.46-2.31z" fill="#fff" stroke="#000" stroke-miterlimit="3.2"/><path d="M288.91 297.74c-11.13-5.46-28.43-5.55-47.15.58-3.61 1.18-11.3 4.55-12.23 5.83.52 2.58 8.88-3 12.49-4.08 20.38-6.2 34.93-5.19 46.89-2.33z"/></g><g><path d="M211.5 309.1c12.48 2.91 25.18 5.8 30.93 9.16a12.94 12.94 0 006.92 1c-.73-2.25.27-3.29-3.46-6.22-14.31-5.49-23.3-5.67-34.74-8.3zM210.6 309.1c-12.48 2.91-25.18 5.8-30.93 9.16a12.94 12.94 0 01-6.92 1c.73-2.25-.26-3.29 3.46-6.22 14.31-5.49 23.3-5.67 34.74-8.3z"/></g><g fill="#fff" stroke="#000"><g stroke-width="1.283"><path d="M208.12 306.75c-9.82-.61-12.1-.76-14.71-2.49-3.65-2.41-5.41-8.5-4-12.44l6.51-4.23 3 4.23c-8 4.1-.76 11.26 9.37 12.82z"/><path d="M206.05 300.11a2.42 2.42 0 01-1-2.11c.85-6.4.53-12.27-8.26-13.12-3.19.31-6.1 4.88-7.3 7.09 0 0 4.26-.75 5.87.3 6 3.94 1.12 9.05 7.47 13 2 1.23 6.51 2.11 6.51 2.11l-.64-5.73a23.93 23.93 0 01-2.7-1.51z"/></g><g stroke-width=".931"><path d="M213.1 307.67c10.12-.72 14.08-2.35 16.77-4.39 3.76-2.84 5.58-9.59 4.16-14.23l-6.72-5-3.11 5c8.26 4.83.78 13.25-9.66 15.09z"/><path d="M216.98 298.82c1.85-1.91 1.61-6.05.74-9.2 10.24-4.72 7.59 1.23 6.57 7-.36 2.86-.52 5.74-4 8.23-2 1.45-6.71 2.48-6.71 2.48l.65-6.75a25.71 25.71 0 002.79-1.77z"/><path d="M217.72 289.59c-1-2.06 2.49-8.53 8.76-8.74 3.3-.11 7.4 5.08 7.53 8.35 0 0-4.39-.89-6.06.35-2.89 2.15-3.35 4.59-3.66 7.05-2.79-4.92-5.01-7.36-6.57-7.01z"/></g></g><path d="M214.65 315.24c.22-6 .34-10.86 1.41-15.5-2.1-2.74-7.42-2.74-10 0 1.07 4.64 1.19 9.53 1.41 15.5 1.73 1.09 2.36 1.63 3.6 1.63s1.87-.54 3.6-1.63z" fill="#fff" stroke="#000"/><path d="M151.75 323.68l3.93 8.75a6.87 6.87 0 015.33-2.53c4.51.08 11 5.12 18.81 1.3 9.35-4.57 5.61-18.41 9.34-21.72.54-.48 2.92-.51 2.92-.51a5.9 5.9 0 00-2.15-1.4 11.09 11.09 0 00-8.25 2c-5.51 3.89-.5 11.71-6.72 14.34-6.06 2.55-10-2.54-14.08-2.92a13.62 13.62 0 00-9.13 2.66z" fill="#fff" stroke="#000" stroke-miterlimit="3.2"/><g stroke="#000"><path d="M153.12 187.51h42.72l13.08-40.1 13.6 40.1h42.2l-34 25.29 13.12 41.3-34.91-26-34.41 25.71 13-41z" fill="#fff"/><path d="M208.92 227.84v-79.85" fill="none"/><g fill="none"><path d="M174.92 253.12l34-47.78M242.91 253.12l-34-47.78"/></g><g fill="none"><path d="M153.14 187.43l55.56 18.1M264.7 187.43l-55.56 18.1"/></g><g fill="none" stroke-width=".8"><path d="M187.12 212.84l21.74-7.2 13.54-18.27" stroke-miterlimit="3.2"/><path d="M230.71 212.84l-21.74-7.2-13.57-18.27"/></g></g></svg>