<svg xmlns="http://www.w3.org/2000/svg" viewBox="0 0 512 512"><title>arrow-left-open-black</title><rect width="512" height="512" style="fill:none"/><rect width="512" height="512" style="fill:none"/><rect width="512" height="512" style="fill:none"/><path d="M256,464.56a34.74,34.74,0,0,1-21.73-7.7L13.07,283.27l-.35-.28A35,35,0,0,1,8,233.76l.1-.11A34.82,34.82,0,0,1,12.8,229l.27-.22L234.21,55.16a34.72,34.72,0,0,1,56.53,27.25v74.83H477.25a34.81,34.81,0,0,1,34.75,35V319.9a34.81,34.81,0,0,1-34.65,34.87H290.74v74.84a34.71,34.71,0,0,1-34.39,34.94ZM39.68,256,252.86,423.34V335.83A18.93,18.93,0,0,1,271.8,316.9H474.12V195.12H271.8a18.94,18.94,0,0,1-18.94-18.94V88.67Zm434.44,64v0Zm0-127.86v0Z" transform="translate(0)"/></svg>