<svg xmlns="http://www.w3.org/2000/svg" viewBox="0 0 308.73 459">
  <g>
    <g>
      <path d="M217.5,214.49a4.75,4.75,0,0,1,8-3.43c2.49,2.36,60.9,58.1,68.54,65.73,8.22,8.22,14.66,24.12,14.66,36.19V454.25a4.75,4.75,0,0,1-9.5,0V313c0-8.5-4.78-22.37-11.88-29.47-7.56-7.56-67.77-65-68.37-65.58A4.74,4.74,0,0,1,217.5,214.49Z" style="fill: #010101"/>
      <g>
        <rect x="4.75" y="135.97" width="232.91" height="167.52" rx="11.89" style="fill: #fff"/>
        <path d="M0,291.6V147.86a16.66,16.66,0,0,1,16.64-16.64H225.77a16.66,16.66,0,0,1,16.64,16.64V291.6a16.66,16.66,0,0,1-16.64,16.64H16.64A16.66,16.66,0,0,1,0,291.6ZM232.91,147.86a7.14,7.14,0,0,0-7.14-7.14H16.64a7.14,7.14,0,0,0-7.14,7.14V291.6a7.14,7.14,0,0,0,7.14,7.14H225.77a7.14,7.14,0,0,0,7.14-7.14Z" style="fill: #010101"/>
      </g>
      <g>
        <path d="M255.1,314.69S195.5,258,180,242.78c-20.26-19.91-53.09,10.83-35.63,30,21.76,23.93,40.51,42.6,40.51,42.6-20.95,40.17.62,80.21,41.67,89.86" style="fill: #fff"/>
        <path d="M134.67,260.58a23.61,23.61,0,0,1,.27-3.53,29.44,29.44,0,0,1,9-16.56c10.18-9.79,27-13.31,39.42-1.1,15.3,15,74.46,71.29,75.05,71.85a4.75,4.75,0,0,1-6.54,6.89c-.6-.57-59.81-56.87-75.16-72-8.49-8.34-19.52-5.24-26.18,1.17-6.07,5.83-9.23,15-2.6,22.28,21.43,23.58,40.16,42.25,40.35,42.44l2.47,2.46-1.61,3.1c-9,17.27-10,35.38-2.89,51,7.28,15.89,22.38,27.57,41.42,32a4.75,4.75,0,1,1-2.17,9.25c-21.92-5.15-39.38-18.76-47.88-37.33-8-17.38-7.39-37.22,1.54-56.21-5.78-5.83-21.18-21.55-38.26-40.35A22.6,22.6,0,0,1,134.67,260.58Z" style="fill: #010101"/>
      </g>
      <path d="M36.17,208.72v-29.1a11.25,11.25,0,0,1,11.24-11.24H93a11.25,11.25,0,0,1,11.24,11.24v29.1A11.25,11.25,0,0,1,93,220H47.41A11.25,11.25,0,0,1,36.17,208.72Zm58.55-29.1A1.77,1.77,0,0,0,93,177.88H47.41a1.76,1.76,0,0,0-1.74,1.74v29.1a1.75,1.75,0,0,0,1.74,1.73H93a1.76,1.76,0,0,0,1.74-1.73Z" style="fill: #010101"/>
    </g>
    <g>
      <polygon points="103.23 112.63 148.9 112.63 148.9 63.2 172.33 63.2 126.06 4.47 79.8 63.2 103.23 63.2 103.23 112.63" style="fill: #995aa4"/>
      <path d="M126.07,0a4.47,4.47,0,0,1,3.51,1.7l46.26,58.73a4.47,4.47,0,0,1-.75,6.28,4.52,4.52,0,0,1-2.76,1h-19v45a4.46,4.46,0,0,1-4.41,4.44H103.25a4.47,4.47,0,0,1-4.47-4.47v-45h-19a4.47,4.47,0,0,1-4.46-4.48,4.52,4.52,0,0,1,1-2.75L122.53,1.67A4.47,4.47,0,0,1,126.07,0Zm37.06,58.73-37.06-47L89,58.73h14.22a4.47,4.47,0,0,1,4.47,4.47v45h36.73v-45a4.47,4.47,0,0,1,4.47-4.47h14.23Z" style="fill: #995aa4"/>
    </g>
  </g>
</svg>
