<svg xmlns="http://www.w3.org/2000/svg" viewBox="0 0 316.63 441.12">
  <g>
    <polygon points="179.84 4.47 134.17 4.47 134.17 53.9 110.74 53.9 157.01 112.63 203.27 53.9 179.84 53.9 179.84 4.47" style="fill: #995aa4"/>
    <path d="M157,117.1a4.44,4.44,0,0,1-3.51-1.7L107.23,56.67a4.47,4.47,0,0,1,.75-6.28,4.52,4.52,0,0,1,2.76-1h19v-45A4.46,4.46,0,0,1,134.15,0h45.67a4.47,4.47,0,0,1,4.47,4.47v45h19A4.47,4.47,0,0,1,207.75,54a4.52,4.52,0,0,1-.95,2.75l-46.26,58.73A4.47,4.47,0,0,1,157,117.1ZM119.94,58.37l37.06,47,37.06-47H179.84a4.47,4.47,0,0,1-4.47-4.47V8.9H138.64v45a4.47,4.47,0,0,1-4.47,4.47H119.94Z" transform="translate(0)" style="fill: #995aa4"/>
  </g>
  <path d="M112.77,148.57H120a10,10,0,0,1,2.44.27,5,5,0,0,1,1.93.9,4.2,4.2,0,0,1,1.26,1.68,6.69,6.69,0,0,1,.45,2.58,5.38,5.38,0,0,1-.81,3,4.08,4.08,0,0,1-2.43,1.69v.06a4.22,4.22,0,0,1,2.85,1.53,5.32,5.32,0,0,1,1,3.45,8.85,8.85,0,0,1-.33,2.4,5,5,0,0,1-1.12,2,5.61,5.61,0,0,1-2.07,1.36A8.55,8.55,0,0,1,120,170h-7.29V148.57Zm4.32,8.79h1.23a4.24,4.24,0,0,0,2.62-.64,2.61,2.61,0,0,0,.83-2.17,2.69,2.69,0,0,0-.75-2.16,3.64,3.64,0,0,0-2.37-.63h-1.56v5.61Zm0,9.45h1.68a4.25,4.25,0,0,0,2.52-.69,3,3,0,0,0,1-2.55A4.25,4.25,0,0,0,122,162a2.68,2.68,0,0,0-.69-1,2.54,2.54,0,0,0-1-.53,5.94,5.94,0,0,0-1.32-.15h-1.86v6.45Z" transform="translate(0)" style="fill: #010101"/>
  <path d="M133.62,148.57H139L144.62,170h-4.47l-1-4.53h-5.7l-1,4.53H128Zm.53,13.34h4.2l-2.07-9.63h0Z" transform="translate(0)" style="fill: #010101"/>
  <path d="M146.15,170V148.57h4.32v17.87h7.65V170Z" transform="translate(0)" style="fill: #010101"/>
  <path d="M160,170V148.57h4.32v17.87H172V170H160Z" transform="translate(0)" style="fill: #010101"/>
  <path d="M173.44,159.27a39.41,39.41,0,0,1,.22-4.48,9.82,9.82,0,0,1,1-3.52,5.52,5.52,0,0,1,2.2-2.29,9.49,9.49,0,0,1,7.74,0,5.58,5.58,0,0,1,2.2,2.29,10,10,0,0,1,1,3.52,45.11,45.11,0,0,1,0,9,10,10,0,0,1-1,3.52,5.58,5.58,0,0,1-2.2,2.29,9.49,9.49,0,0,1-7.74,0,5.46,5.46,0,0,1-2.2-2.29,9.82,9.82,0,0,1-1-3.52A40.12,40.12,0,0,1,173.44,159.27Zm4.32,0c0,1.44,0,2.66.1,3.67a10.31,10.31,0,0,0,.42,2.46,2.72,2.72,0,0,0,.9,1.38,3,3,0,0,0,3.09,0,2.78,2.78,0,0,0,.9-1.38,10.31,10.31,0,0,0,.42-2.46c.07-1,.11-2.23.11-3.67s0-2.66-.11-3.66a10.83,10.83,0,0,0-.42-2.46,2.77,2.77,0,0,0-.9-1.39,3,3,0,0,0-3.09,0,2.7,2.7,0,0,0-.9,1.39,10.31,10.31,0,0,0-.42,2.46C177.79,156.61,177.76,157.83,177.76,159.27Z" transform="translate(0)" style="fill: #010101"/>
  <path d="M202.38,148.57v3.54H197.7V170h-4.32V152.1H188.7v-3.54h13.68Z" transform="translate(0)" style="fill: #010101"/>
  <path d="M152.21,219.9H119.52a1.54,1.54,0,0,1-1.55-1.55V194.91a1.54,1.54,0,0,1,1.55-1.55H152.2a1.55,1.55,0,0,1,1.55,1.55v23.44A1.56,1.56,0,0,1,152.21,219.9Zm-31.13-3.1h29.57V196.46H121.07V216.8Z" transform="translate(0)" style="fill: #010101"/>
  <path d="M136,221.22a3.47,3.47,0,0,1-3.06-1.81l-8.61-15.74a3.49,3.49,0,0,1,6.12-3.35l5.37,9.81,15.76-32.4a3.49,3.49,0,1,1,6.28,3.05l-18.74,38.48a3.49,3.49,0,0,1-3.05,2H136Z" transform="translate(0)" style="fill: #995aa4"/>
  <path d="M193.57,219.9H160.89a1.54,1.54,0,0,1-1.55-1.55V194.91a1.54,1.54,0,0,1,1.55-1.55h32.69a1.55,1.55,0,0,1,1.55,1.55v23.44a1.55,1.55,0,0,1-1.55,1.55Zm-31.14-3.1H192V196.46H162.44V216.8Z" transform="translate(0)" style="fill: #010101"/>
  <path d="M232.54,222.48H81.47a4.63,4.63,0,1,1,0-9.25H232.54a4.63,4.63,0,0,1,0,9.25Z" transform="translate(0)" style="fill: #010101"/>
  <path d="M214.72,222.48H99.29a4.62,4.62,0,0,1-4.62-4.62V133.77a4.62,4.62,0,0,1,4.62-4.62H214.72a4.62,4.62,0,0,1,4.62,4.62v84.09A4.62,4.62,0,0,1,214.72,222.48Zm-110.8-9.25H210.09V138.39H103.92v74.85Z" transform="translate(0)" style="fill: #010101"/>
  <path d="M310.53,255.23H5.79a4.63,4.63,0,1,1,0-9.25H310.53a4.63,4.63,0,0,1,0,9.25Z" transform="translate(0)" style="fill: #010101"/>
  <path d="M156.78,304.73a21,21,0,0,1-21-21h0V253.27H145v30.49a11.72,11.72,0,0,0,23.44,0h0V253.27h9.25v30.49A21,21,0,0,1,156.78,304.73Z" transform="translate(0)" style="fill: #010101"/>
  <path d="M140.44,247.51c2.88-5.17,7.32-4.79,16.34-4.79h0c9,0,12-.39,16.34,4.79" transform="translate(0)" style="fill: #010101"/>
  <path d="M140.43,252.13a4.61,4.61,0,0,1-4-6.87c4-7.21,10.44-7.16,18.64-7.16h3.48c7.91,0,12.66,0,18.13,6.43a4.63,4.63,0,1,1-7.06,6c-2.62-3.09-3.38-3.16-11-3.15h-3.54c-8.2,0-9.33.25-10.54,2.42A4.62,4.62,0,0,1,140.43,252.13Z" transform="translate(0)" style="fill: #010101"/>
  <path d="M156.78,363.31a13.15,13.15,0,1,1,13.15-13.15A13.15,13.15,0,0,1,156.78,363.31Zm0-17.37a4.22,4.22,0,1,0,4.22,4.22h0A4.24,4.24,0,0,0,156.78,345.94Z" transform="translate(0)" style="fill: #010101"/>
  <path d="M156.78,288.45a4.62,4.62,0,0,1-4.62-4.62V267.91a4.63,4.63,0,0,1,9.25,0v15.92a4.62,4.62,0,0,1-4.62,4.62Z" transform="translate(0)" style="fill: #010101"/>
  <path d="M156.78,373.83a4.62,4.62,0,0,1-4.62-4.62v-9a4.63,4.63,0,1,1,9.25,0v9a4.62,4.62,0,0,1-4.62,4.62Z" transform="translate(0)" style="fill: #010101"/>
  <path d="M126.28,391.12a13.41,13.41,0,0,1-13.4-13.31l-.24-51.43A13.4,13.4,0,0,1,126,313l61.26-.27A13.42,13.42,0,0,1,200.68,326l.24,51.38a13.4,13.4,0,0,1-13.31,13.44Zm61-69.16-61.26.27a4.13,4.13,0,0,0-4.15,4.13h0l.24,51.4a4.14,4.14,0,0,0,4.13,4.11l61.26-.27a4.14,4.14,0,0,0,4.15-4.13v0h0l-.24-51.38A4.15,4.15,0,0,0,187.3,322Z" transform="translate(0)" style="fill: #010101"/>
  <path d="M132.42,322.17a4.62,4.62,0,0,1-4.62-4.62V303.07c-.08-17,12.86-30.92,28.84-31h.16a27.91,27.91,0,0,1,20.51,9.08,31.77,31.77,0,0,1,8.46,21.68v14.5a4.62,4.62,0,0,1-4.6,4.62l-48.72.24h0Zm4.62-4.62,19.62-40.86v4.62c-10.89.06-19.7,9.81-19.65,21.74v9.85l39.48-.19v-9.88a22.54,22.54,0,0,0-6-15.38,18.75,18.75,0,0,0-13.78-6.15h-.08Z" transform="translate(0)" style="fill: #010101"/>
  <path d="M301.91,441.12H14.15C6.09,441.12,0,434.81,0,426.44V253.87a15.25,15.25,0,0,1,2.42-9l41-57.83c3.17-4.44,7.68-7.08,12.07-7.08H99.42a4.63,4.63,0,0,1,0,9.25H55.49c-1.33,0-3.19,1.31-4.54,3.19L10,250.23a7,7,0,0,0-.71,3.67V426.44c0,2.7,1.51,5.43,4.89,5.43H301.91a5.43,5.43,0,0,0,5.52-5.32V253.87a5.58,5.58,0,0,0-1-3.23L265.1,192.36c-1.34-1.87-3.2-3.18-4.52-3.18H217.29a4.63,4.63,0,1,1,0-9.25h43.28c4.38,0,8.88,2.64,12,7.06l41.33,58.29a14.77,14.77,0,0,1,2.73,8.59V426.44A14.74,14.74,0,0,1,301.91,441.12Z" transform="translate(0)" style="fill: #010101"/>
</svg>
