<svg xmlns="http://www.w3.org/2000/svg" viewBox="0 0 512 512"><title>printing-ballot</title><rect width="512" height="512" fill="none"/><path d="M372.81,405.44a8.89,8.89,0,1,1,8.89-8.89A8.9,8.9,0,0,1,372.81,405.44Zm0-10.35a1.46,1.46,0,1,0,1.46,1.46A1.46,1.46,0,0,0,372.81,395.09Z"/><path d="M372.81,434.55a8.89,8.89,0,1,1,8.89-8.89A8.9,8.9,0,0,1,372.81,434.55Zm0-10.35a1.46,1.46,0,1,0,1.46,1.46A1.46,1.46,0,0,0,372.81,424.21Z"/><path d="M204.75,178.07h8.37a12.1,12.1,0,0,1,2.83.31,5.82,5.82,0,0,1,2.24,1,4.81,4.81,0,0,1,1.46,1.95,7.58,7.58,0,0,1,.52,3,6.19,6.19,0,0,1-.94,3.46,4.71,4.71,0,0,1-2.81,2v0.07a4.92,4.92,0,0,1,3.3,1.77,6.14,6.14,0,0,1,1.22,4,9.94,9.94,0,0,1-.38,2.78,5.65,5.65,0,0,1-1.3,2.31,6.53,6.53,0,0,1-2.4,1.58,9.91,9.91,0,0,1-3.67.59h-8.44V178.07Zm5,10.18h1.42a5,5,0,0,0,3-.75,3,3,0,0,0,1-2.52,3.12,3.12,0,0,0-.87-2.5,4.23,4.23,0,0,0-2.75-.73h-1.81v6.5Zm0,10.94h1.95a4.89,4.89,0,0,0,2.92-.8,3.41,3.41,0,0,0,1.11-3,4.71,4.71,0,0,0-.29-1.79,3,3,0,0,0-.8-1.15,2.87,2.87,0,0,0-1.2-.61,6.23,6.23,0,0,0-1.53-.17h-2.15v7.47Z"/><path d="M228.9,178.07h6.18l6.57,24.81h-5.21l-1.15-5.25h-6.6l-1.15,5.25h-5.21Zm0.66,15.46h4.86L232,182.38H232Z"/><path d="M243.39,202.88V178.07h5v20.71h8.86v4.1H243.39Z"/><path d="M259.48,202.88V178.07h5v20.71h8.86v4.1H259.48Z"/><path d="M275,190.48a47.91,47.91,0,0,1,.26-5.2,11.51,11.51,0,0,1,1.15-4.08,6.42,6.42,0,0,1,2.55-2.66,11,11,0,0,1,9,0,6.41,6.41,0,0,1,2.55,2.66,11.51,11.51,0,0,1,1.15,4.08,52.08,52.08,0,0,1,0,10.39,11.51,11.51,0,0,1-1.15,4.08,6.41,6.41,0,0,1-2.55,2.66,11,11,0,0,1-9,0,6.42,6.42,0,0,1-2.55-2.66,11.51,11.51,0,0,1-1.15-4.08A47.88,47.88,0,0,1,275,190.48Zm5,0q0,2.5.12,4.26a11.81,11.81,0,0,0,.49,2.85,3.16,3.16,0,0,0,1,1.6,3.43,3.43,0,0,0,3.58,0,3.17,3.17,0,0,0,1-1.6,11.81,11.81,0,0,0,.49-2.85q0.12-1.75.12-4.26t-0.12-4.24a12,12,0,0,0-.49-2.85,3.17,3.17,0,0,0-1-1.62,3.43,3.43,0,0,0-3.58,0,3.16,3.16,0,0,0-1,1.62,12,12,0,0,0-.49,2.85Q280,188,280,190.48Z"/><path d="M308.58,178.07v4.1h-5.42v20.71h-5V182.17h-5.42v-4.1h15.84Z"/><path d="M250.44,271.43H212.57a1.8,1.8,0,0,1-1.8-1.8V231.77a1.8,1.8,0,0,1,1.8-1.8h37.87a1.8,1.8,0,0,1,1.8,1.8v37.87A1.8,1.8,0,0,1,250.44,271.43Zm-36.08-3.59h34.28V233.56H214.36v34.28Z"/><path d="M231.7,264.94a4,4,0,0,1-3.65-2.3l-10-20.91a4,4,0,0,1,7.3-3.48l6.26,13.12L249.71,212a4,4,0,1,1,7.35,3.37l-21.69,47.26a4,4,0,0,1-3.64,2.35h0Z" fill="#9959a4"/><path d="M298.37,271.43H260.5a1.8,1.8,0,0,1-1.8-1.8V231.77a1.8,1.8,0,0,1,1.8-1.8h37.87a1.8,1.8,0,0,1,1.8,1.8v37.87A1.8,1.8,0,0,1,298.37,271.43Zm-36.08-3.59h34.28V233.56H262.29v34.28Z"/><path d="M250.44,318.69H212.57a1.8,1.8,0,0,1-1.8-1.8V279a1.8,1.8,0,0,1,1.8-1.8h37.87a1.8,1.8,0,0,1,1.8,1.8V316.9A1.8,1.8,0,0,1,250.44,318.69Zm-36.08-3.59h34.28V280.82H214.36V315.1Z"/><path d="M298.37,318.69H260.5a1.8,1.8,0,0,1-1.8-1.8V279a1.8,1.8,0,0,1,1.8-1.8h37.87a1.8,1.8,0,0,1,1.8,1.8V316.9A1.8,1.8,0,0,1,298.37,318.69Zm-36.08-3.59h34.28V280.82H262.29V315.1Z"/><path d="M279.63,312.2a4,4,0,0,1-3.65-2.3L266,289a4,4,0,1,1,7.3-3.48l6.26,13.12,18.08-39.41a4,4,0,1,1,7.35,3.37L283.3,309.84a4,4,0,0,1-3.64,2.35h0Z" fill="#9959a4"/><path d="M343.52,325.31h-175a5.36,5.36,0,0,1,0-10.71h175A5.36,5.36,0,0,1,343.52,325.31Z"/><path d="M322.87,325.31H189.13a5.36,5.36,0,0,1-5.36-5.36v-159a5.36,5.36,0,0,1,5.36-5.36H322.87a5.36,5.36,0,0,1,5.36,5.36V320A5.36,5.36,0,0,1,322.87,325.31ZM194.49,314.6h123V166.28h-123V314.6Z"/><path d="M386.94,512H125.05A20.26,20.26,0,0,1,105,494.3L94.63,359.16a5.36,5.36,0,0,1,5.34-5.77H412a5.36,5.36,0,0,1,5.34,5.77L407,494A20.31,20.31,0,0,1,386.94,512ZM105.75,364.1l9.9,129.11a9.48,9.48,0,0,0,9.4,8.07H386.94a9.53,9.53,0,0,0,9.43-8.33l9.88-128.85H105.75Z"/><path d="M412,364.1H100a5.36,5.36,0,0,1-4.64-8l37.4-64.65a20.11,20.11,0,0,1,18.6-12.33h37.8a5.36,5.36,0,0,1,0,10.71h-37.8a9.45,9.45,0,0,0-8.81,6,5.47,5.47,0,0,1-.34.69l-32.92,56.92H402.74l-32.92-56.92a5.25,5.25,0,0,1-.33-0.69,9.46,9.46,0,0,0-8.82-6h-37.8a5.36,5.36,0,0,1,0-10.71h37.8a20.11,20.11,0,0,1,18.61,12.33l37.4,64.65A5.36,5.36,0,0,1,412,364.1Z"/><path d="M404,465.31H108.54a5.36,5.36,0,1,1,0-10.71H404A5.36,5.36,0,0,1,404,465.31Z"/><polygon points="229.54 130.4 282.46 130.4 282.46 73.12 309.61 73.12 256 5.07 202.39 73.12 229.54 73.12 229.54 130.4" fill="#9959a4"/><path d="M282.46,135.57H229.54a5.18,5.18,0,0,1-5.18-5.18V78.29h-22a5.17,5.17,0,0,1-4.06-8.38l53.61-68a5.35,5.35,0,0,1,8.13,0l53.61,68a5.17,5.17,0,0,1-4.06,8.38h-22v52.1A5.18,5.18,0,0,1,282.46,135.57Zm-47.75-10.35h42.57V73.12a5.18,5.18,0,0,1,5.18-5.18h16.48L256,13.43,213.06,67.94h16.48a5.18,5.18,0,0,1,5.18,5.18v52.1Z" fill="#9959a4"/></svg>