<svg xmlns="http://www.w3.org/2000/svg" viewBox="0 0 825 512"><title>verify-and-cast</title><rect width="512" height="512" fill="none"/><polygon points="603.69 4.47 558.02 4.47 558.02 53.9 534.59 53.9 580.86 112.63 627.12 53.9 603.69 53.9 603.69 4.47" fill="#9959a4"/><path d="M580.85,117.1a4.46,4.46,0,0,1-3.51-1.7L531.08,56.67a4.47,4.47,0,0,1,3.51-7.23h19v-45A4.47,4.47,0,0,1,558,0h45.67a4.47,4.47,0,0,1,4.47,4.47v45h19a4.47,4.47,0,0,1,3.51,7.23l-46.26,58.73A4.46,4.46,0,0,1,580.85,117.1ZM543.79,58.37l37.06,47,37.06-47H603.69a4.47,4.47,0,0,1-4.47-4.47v-45H562.49v45A4.47,4.47,0,0,1,558,58.37H543.79Z" fill="#9959a4"/><path d="M536.62,148.57h7.23a10.48,10.48,0,0,1,2.44.27,5,5,0,0,1,1.93.9,4.15,4.15,0,0,1,1.26,1.68,6.55,6.55,0,0,1,.45,2.58,5.35,5.35,0,0,1-.81,3,4.06,4.06,0,0,1-2.43,1.69v0.06a4.24,4.24,0,0,1,2.85,1.53,5.29,5.29,0,0,1,1,3.45,8.59,8.59,0,0,1-.33,2.4,4.88,4.88,0,0,1-1.12,2,5.63,5.63,0,0,1-2.07,1.36,8.56,8.56,0,0,1-3.16.51h-7.29V148.57Zm4.32,8.79h1.23a4.27,4.27,0,0,0,2.62-.64,2.6,2.6,0,0,0,.83-2.17,2.69,2.69,0,0,0-.75-2.16,3.65,3.65,0,0,0-2.37-.63h-1.56v5.61Zm0,9.45h1.68a4.22,4.22,0,0,0,2.52-.69,3,3,0,0,0,1-2.55,4.06,4.06,0,0,0-.25-1.54,2.6,2.6,0,0,0-.69-1,2.49,2.49,0,0,0-1-.53,5.45,5.45,0,0,0-1.32-.15h-1.86v6.45Z"/><path d="M557.47,148.57h5.34L568.47,170H564l-1-4.53h-5.7l-1,4.53h-4.5ZM558,161.91h4.2l-2.07-9.63H560.1Z"/><path d="M570,170V148.57h4.32v17.87h7.65V170H570Z"/><path d="M583.85,170V148.57h4.32v17.87h7.65V170h-12Z"/><path d="M597.29,159.27a41.48,41.48,0,0,1,.22-4.48,9.94,9.94,0,0,1,1-3.52,5.55,5.55,0,0,1,2.2-2.29,9.49,9.49,0,0,1,7.74,0,5.55,5.55,0,0,1,2.2,2.29,9.92,9.92,0,0,1,1,3.52,44.66,44.66,0,0,1,0,9,9.91,9.91,0,0,1-1,3.52,5.53,5.53,0,0,1-2.2,2.29,9.48,9.48,0,0,1-7.74,0,5.53,5.53,0,0,1-2.2-2.29,9.93,9.93,0,0,1-1-3.52A41.48,41.48,0,0,1,597.29,159.27Zm4.32,0q0,2.16.1,3.67a10.21,10.21,0,0,0,.42,2.46,2.74,2.74,0,0,0,.9,1.38,3,3,0,0,0,3.09,0,2.74,2.74,0,0,0,.9-1.38,10.21,10.21,0,0,0,.42-2.46q0.11-1.51.11-3.67t-0.11-3.66a10.4,10.4,0,0,0-.42-2.46,2.74,2.74,0,0,0-.9-1.39,3,3,0,0,0-3.09,0,2.74,2.74,0,0,0-.9,1.39,10.4,10.4,0,0,0-.42,2.46Q601.61,157.11,601.61,159.27Z"/><path d="M626.23,148.57v3.54h-4.68V170h-4.32V152.1h-4.68v-3.54h13.67Z"/><path d="M576.06,219.9H543.37a1.55,1.55,0,0,1-1.55-1.55V194.91a1.55,1.55,0,0,1,1.55-1.55h32.68a1.55,1.55,0,0,1,1.55,1.55v23.44A1.55,1.55,0,0,1,576.06,219.9Zm-31.13-3.1H574.5V196.46H544.92V216.8Z"/><path d="M559.88,221.22a3.49,3.49,0,0,1-3.06-1.81l-8.61-15.74a3.49,3.49,0,0,1,6.12-3.35l5.37,9.81,15.76-32.4a3.49,3.49,0,0,1,6.28,3.05L563,219.26a3.49,3.49,0,0,1-3.05,2h-0.08Z" fill="#9959a4"/><path d="M617.42,219.9H584.74a1.55,1.55,0,0,1-1.55-1.55V194.91a1.55,1.55,0,0,1,1.55-1.55h32.69a1.55,1.55,0,0,1,1.55,1.55v23.44A1.55,1.55,0,0,1,617.42,219.9Zm-31.14-3.1h29.59V196.46H586.29V216.8Z"/><path d="M656.39,222.48H505.32a4.62,4.62,0,1,1,0-9.25H656.39A4.62,4.62,0,1,1,656.39,222.48Z"/><path d="M638.57,222.48H523.14a4.62,4.62,0,0,1-4.62-4.62V133.77a4.62,4.62,0,0,1,4.62-4.62H638.57a4.62,4.62,0,0,1,4.62,4.62v84.09A4.62,4.62,0,0,1,638.57,222.48Zm-110.8-9.25H633.94V138.39H527.77v74.85Z"/><path d="M734.38,255.23H429.64a4.62,4.62,0,1,1,0-9.25H734.38A4.62,4.62,0,1,1,734.38,255.23Z"/><path d="M580.63,304.73a21,21,0,0,1-21-21V253.27h9.25v30.49a11.72,11.72,0,0,0,23.44,0V253.27h9.25v30.49A21,21,0,0,1,580.63,304.73Z"/><path d="M564.29,247.51c2.88-5.17,7.32-4.79,16.34-4.79h0c9,0,12-.39,16.34,4.79"/><path d="M564.28,252.13a4.62,4.62,0,0,1-4-6.87c4-7.21,10.44-7.16,18.64-7.16h3.48c7.91,0,12.66,0,18.13,6.43a4.62,4.62,0,0,1-7.06,6c-2.62-3.09-3.38-3.16-11-3.15h-3.54c-8.2,0-9.33.25-10.54,2.42A4.62,4.62,0,0,1,564.28,252.13Z"/><path d="M580.63,363.31a13.15,13.15,0,1,1,13.15-13.15A13.16,13.16,0,0,1,580.63,363.31Zm0-17.37a4.22,4.22,0,1,0,4.22,4.22A4.23,4.23,0,0,0,580.63,345.94Z"/><path d="M580.63,288.45a4.62,4.62,0,0,1-4.62-4.62V267.91a4.62,4.62,0,0,1,9.25,0v15.92A4.62,4.62,0,0,1,580.63,288.45Z"/><path d="M580.63,373.83a4.62,4.62,0,0,1-4.62-4.62v-9a4.62,4.62,0,0,1,9.25,0v9A4.62,4.62,0,0,1,580.63,373.83Z"/><path d="M550.13,391.12a13.41,13.41,0,0,1-13.4-13.31l-0.24-51.43A13.4,13.4,0,0,1,549.88,313l61.26-.27A13.41,13.41,0,0,1,624.53,326l0.24,51.38a13.39,13.39,0,0,1-13.31,13.44Zm61-69.16-61.26.27a4.14,4.14,0,0,0-4.15,4.13l0.24,51.4a4.14,4.14,0,0,0,4.13,4.11l61.26-.27a4.14,4.14,0,0,0,4.15-4.15h0l-0.24-51.38A4.14,4.14,0,0,0,611.15,322Z"/><path d="M556.27,322.17a4.62,4.62,0,0,1-4.62-4.62V303.07c-0.08-17,12.86-30.92,28.84-31h0.16a27.9,27.9,0,0,1,20.51,9.08,31.74,31.74,0,0,1,8.46,21.68v14.5a4.62,4.62,0,0,1-4.6,4.62l-48.72.24h0Zm4.62-4.62h0Zm19.62-40.86,0,4.62c-10.89.06-19.7,9.81-19.65,21.74v9.85l39.48-.19v-9.88a22.51,22.51,0,0,0-6-15.38,18.77,18.77,0,0,0-13.78-6.15h-0.08Z"/><path d="M725.76,441.12H438c-8.06,0-14.13-6.31-14.13-14.68V253.87a15.32,15.32,0,0,1,2.42-9l41-57.83c3.17-4.44,7.68-7.08,12.07-7.08h43.91a4.62,4.62,0,1,1,0,9.25H479.34c-1.33,0-3.19,1.31-4.54,3.19l-41,57.83a7.06,7.06,0,0,0-.71,3.67V426.44c0,2.7,1.51,5.43,4.89,5.43H725.76a5.42,5.42,0,0,0,5.52-5.43V253.87a5.55,5.55,0,0,0-1-3.23l-41.33-58.28c-1.34-1.87-3.2-3.18-4.52-3.18H641.14a4.62,4.62,0,1,1,0-9.25h43.28c4.38,0,8.88,2.64,12,7.06l41.33,58.29a14.72,14.72,0,0,1,2.73,8.59V426.44A14.74,14.74,0,0,1,725.76,441.12Z"/><path d="M140.85,172.3H154a19,19,0,0,1,4.44.49,9.09,9.09,0,0,1,3.51,1.63,7.52,7.52,0,0,1,2.29,3,11.88,11.88,0,0,1,.82,4.68,9.72,9.72,0,0,1-1.47,5.42,7.39,7.39,0,0,1-4.41,3.08v0.11a7.71,7.71,0,0,1,5.17,2.78,9.62,9.62,0,0,1,1.91,6.26,15.61,15.61,0,0,1-.6,4.35,8.86,8.86,0,0,1-2,3.62,10.2,10.2,0,0,1-3.76,2.48,15.51,15.51,0,0,1-5.74.93H140.85V172.3Zm7.84,16h2.23a7.75,7.75,0,0,0,4.76-1.17,4.72,4.72,0,0,0,1.5-3.95q0-2.78-1.36-3.92a6.63,6.63,0,0,0-4.3-1.14h-2.83v10.18Zm0,17.15h3a7.66,7.66,0,0,0,4.57-1.25q1.74-1.25,1.74-4.63a7.38,7.38,0,0,0-.46-2.8,4.71,4.71,0,0,0-1.25-1.8,4.51,4.51,0,0,0-1.88-1,9.87,9.87,0,0,0-2.4-.27h-3.37v11.7Z"/><path d="M178.69,172.3h9.69l10.29,38.87H190.5L188.7,203H178.36l-1.8,8.22H168.4Zm1,24.22h7.62l-3.76-17.47h-0.11Z"/><path d="M201.39,211.17V172.3h7.84v32.44h13.88v6.42H201.39Z"/><path d="M226.59,211.17V172.3h7.84v32.44h13.88v6.42H226.59Z"/><path d="M251,191.74a75,75,0,0,1,.41-8.14,18,18,0,0,1,1.8-6.4,10.05,10.05,0,0,1,4-4.16,17.22,17.22,0,0,1,14,0,10.06,10.06,0,0,1,4,4.16,18,18,0,0,1,1.8,6.4,81.33,81.33,0,0,1,0,16.28,18,18,0,0,1-1.8,6.4,10,10,0,0,1-4,4.16,17.22,17.22,0,0,1-14,0,10,10,0,0,1-4-4.16,18,18,0,0,1-1.8-6.4A75,75,0,0,1,251,191.74Zm7.84,0q0,3.92.19,6.67a18.52,18.52,0,0,0,.76,4.46,5,5,0,0,0,1.63,2.5,5.37,5.37,0,0,0,5.61,0,5,5,0,0,0,1.63-2.5,18.56,18.56,0,0,0,.76-4.46q0.19-2.75.19-6.67t-0.19-6.64a18.9,18.9,0,0,0-.76-4.46A5,5,0,0,0,267,178.1a5.37,5.37,0,0,0-5.61,0,5,5,0,0,0-1.63,2.53,18.86,18.86,0,0,0-.76,4.46Q258.81,187.82,258.82,191.74Z"/><path d="M303.51,172.3v6.42H295v32.44h-7.84V178.73h-8.49V172.3h24.82Z"/><path d="M212.43,317.31H153.1a1.55,1.55,0,0,1-1.55-1.55V256.43a1.55,1.55,0,0,1,1.55-1.55h59.33a1.55,1.55,0,0,1,1.55,1.55v59.33A1.55,1.55,0,0,1,212.43,317.31Zm-57.78-3.1h56.23V258H154.65v56.23Z"/><path d="M183.07,305.55a3.49,3.49,0,0,1-3.15-2l-15.63-32.76a3.49,3.49,0,0,1,6.3-3l12.42,26,30.87-67.26a3.49,3.49,0,0,1,6.34,2.91l-34,74a3.49,3.49,0,0,1-3.14,2h0Z" fill="#9959a4"/><path d="M287.52,317.31H228.19a1.55,1.55,0,0,1-1.55-1.55V256.43a1.55,1.55,0,0,1,1.55-1.55h59.33a1.55,1.55,0,0,1,1.55,1.55v59.33A1.55,1.55,0,0,1,287.52,317.31Zm-57.78-3.1H286V258H229.74v56.23Z"/><path d="M212.43,391.35H153.1a1.55,1.55,0,0,1-1.55-1.55V330.46a1.55,1.55,0,0,1,1.55-1.55h59.33a1.55,1.55,0,0,1,1.55,1.55V389.8A1.55,1.55,0,0,1,212.43,391.35Zm-57.78-3.1h56.23V332H154.65v56.23Z"/><path d="M287.52,391.35H228.19a1.55,1.55,0,0,1-1.55-1.55V330.46a1.55,1.55,0,0,1,1.55-1.55h59.33a1.55,1.55,0,0,1,1.55,1.55V389.8A1.55,1.55,0,0,1,287.52,391.35Zm-57.78-3.1H286V332H229.74v56.23Z"/><path d="M258.16,379.59a3.49,3.49,0,0,1-3.15-2l-15.63-32.76a3.49,3.49,0,0,1,6.3-3l12.42,26L289,300.61a3.49,3.49,0,0,1,6.34,2.91l-34,74a3.49,3.49,0,0,1-3.14,2h0Z" fill="#9959a4"/><path d="M325.91,441.17H116.38a4.62,4.62,0,0,1-4.62-4.62V145.44a4.62,4.62,0,0,1,4.62-4.62H325.91a4.62,4.62,0,0,1,4.62,4.62V436.55A4.62,4.62,0,0,1,325.91,441.17ZM121,431.93H321.28V150.06H121V431.93Z"/><path d="M109.59,297.45a105,105,0,1,1-105,105A105,105,0,0,1,109.59,297.45Z" fill="#fff"/><path d="M109.59,512A109.59,109.59,0,1,1,219.18,402.41,109.71,109.71,0,0,1,109.59,512Zm0-209.93A100.34,100.34,0,1,0,209.93,402.41,100.46,100.46,0,0,0,109.59,302.07Z"/><path d="M115.95,448.1c-13.49,0-19.59-1.85-44.13-14.25-1.8-.91-3.61-1.83-5.42-2.75a4.62,4.62,0,0,1,4.23-8.22q2.66,1.37,5.34,2.72c26.9,13.6,29.49,13.53,46.29,13.17,3.29-.07,7.07-0.16,11.63-0.16,8.4,0,13.46-4.63,16.89-15.45,0-.12.05-0.24,0.09-0.36l8.54-28.49c0-.13.06-0.25,0.09-0.37a4.39,4.39,0,0,0-4.23-5.66H133.09a13.63,13.63,0,0,1-13.21-17.12l4-15a3,3,0,0,0-.58-2.69,3.14,3.14,0,0,0-4.43-.45,3.33,3.33,0,0,0-.6.64l-22,33.81A13.87,13.87,0,0,1,85,393.34H68.52a4.62,4.62,0,1,1,0-9.25H85a4.52,4.52,0,0,0,3.64-1.88l22-33.83a12.91,12.91,0,0,1,2.38-2.58,12.35,12.35,0,0,1,19.78,12.67l-4,15.05a4.35,4.35,0,0,0,.76,3.78,4.48,4.48,0,0,0,3.53,1.72h22.16a13.63,13.63,0,0,1,13.18,17.25q0,0.2-.09.39l-8.53,28.47a4.1,4.1,0,0,1-.11.44c-4.65,15-13.09,22.29-25.82,22.29-4.47,0-8.19.08-11.42,0.15C120.08,448.06,117.93,448.1,115.95,448.1Z"/><path d="M68.52,448.11H59.39a4.62,4.62,0,1,1,0-9.25h4.5V384.21h-4.5a4.62,4.62,0,1,1,0-9.25h9.13a4.62,4.62,0,0,1,4.62,4.62v63.89A4.62,4.62,0,0,1,68.52,448.11Z"/><rect width="825" height="512" fill="none"/></svg>