<?xml version="1.0" encoding="iso-8859-1"?>
<!-- SOURCE: https://www.flaticon.com/free-icon/task-sheet_81665 -->
<!-- Generator: Adobe Illustrator 18.0.0, SVG Export Plug-In . SVG Version: 6.00 Build 0)  -->
<!DOCTYPE svg PUBLIC "-//W3C//DTD SVG 1.1//EN" "http://www.w3.org/Graphics/SVG/1.1/DTD/svg11.dtd">
<svg version="1.1" id="Capa_1" xmlns="http://www.w3.org/2000/svg" xmlns:xlink="http://www.w3.org/1999/xlink" x="0px" y="0px"
	 viewBox="0 0 482.14 482.14" style="enable-background:new 0 0 482.14 482.14;" xml:space="preserve">
<g>
	<path d="M302.614,0H108.968C80.676,0,57.652,23.026,57.652,51.315v379.509c0,28.289,23.024,51.316,51.316,51.316h264.221
		c28.274,0,51.3-23.026,51.3-51.316V121.449L302.614,0z M373.188,450.698H108.968c-10.955,0-19.875-8.905-19.875-19.874V51.315
		c0-10.953,8.92-19.858,19.875-19.858l181.89-0.188v67.217c0,19.653,15.934,35.604,35.585,35.604l65.863-0.188l0.741,296.924
		C393.047,441.793,384.141,450.698,373.188,450.698z"/>
	<path d="M128.02,160.148h79.449c6.682,0,12.104-5.421,12.104-12.104V68.589c0-6.684-5.422-12.104-12.104-12.104H128.02
		c-6.681,0-12.104,5.421-12.104,12.104v79.455C115.917,154.727,121.339,160.148,128.02,160.148z M140.124,80.692h55.241v55.247
		h-55.241V80.692z"/>
	<path d="M128.02,292.913h79.449c6.682,0,12.104-5.421,12.104-12.103v-79.455c0-6.684-5.422-12.105-12.104-12.105H128.02
		c-6.681,0-12.104,5.421-12.104,12.105v79.455C115.917,287.492,121.339,292.913,128.02,292.913z M140.124,213.458h55.241v55.247
		h-55.241V213.458z"/>
	<path d="M166.554,401.447h-26.43v-55.248h55.241v15.595l7.337,7.337l16.871-16.873v-18.162c0-6.683-5.422-12.104-12.104-12.104
		H128.02c-6.681,0-12.104,5.421-12.104,12.104v79.455c0,6.683,5.422,12.103,12.104,12.103h65.358
		c-2.821-1.181-5.492-2.876-7.793-5.177L166.554,401.447z"/>
	<path d="M249.62,339.328l-46.918,46.918l-18.598-18.597c-4.729-4.729-12.388-4.729-17.116,0c-4.728,4.727-4.728,12.387,0,17.115
		l27.155,27.154c2.364,2.364,5.461,3.548,8.559,3.548c3.097,0,6.192-1.184,8.557-3.548l55.476-55.477
		c4.729-4.727,4.729-12.388,0-17.114C262.008,334.6,254.348,334.6,249.62,339.328z"/>
</g>
<g>
</g>
<g>
</g>
<g>
</g>
<g>
</g>
<g>
</g>
<g>
</g>
<g>
</g>
<g>
</g>
<g>
</g>
<g>
</g>
<g>
</g>
<g>
</g>
<g>
</g>
<g>
</g>
<g>
</g>
</svg>
