<?xml version="1.0" encoding="utf-8"?>
<!-- Uploaded to SVGRepo https://www.svgrepo.com -->
<!DOCTYPE svg PUBLIC "-//W3C//DTD SVG 1.1//EN" "http://www.w3.org/Graphics/SVG/1.1/DTD/svg11.dtd">
<svg width="1000px" height="1000px" viewBox="0 0 1000 1000" version="1.1" xmlns="http://www.w3.org/2000/svg" xmlns:xlink="http://www.w3.org/1999/xlink" x="0px" y="0px" enable-background="new 0 0 1000 1000" xml:space="preserve">
<metadata> Svg Vector Icons : http://www.onlinewebfonts.com/icon </metadata>
<g><g transform="translate(0.000000,511.000000) scale(0.100000,-0.100000)"><path d="M4671,4991.6C3739.9,4871,2907.3,4147,2647.9,3234c-74.4-263.4-92.5-462.5-92.5-1007.5v-486.7l-275.5-8.1c-269.5-6-281.5-8-428.3-78.4c-259.4-122.7-456.5-337.8-543-591.2c-40.2-114.6-40.2-166.9-40.2-2588.2c0-2447.4,0-2471.5,42.2-2594.2c86.5-257.4,271.5-462.5,538.9-595.2l150.8-74.4h2998.4h2998.4l160.9,78.4c267.5,132.7,476.6,380.1,551,655.6c18.1,68.4,24.1,675.7,22.1,2550c-4,2379.1-6,2461.5-44.2,2572.1c-84.5,249.4-283.6,464.5-541,587.2c-146.8,70.4-158.9,72.4-426.3,78.4l-277.5,8.1v494.7c0,273.5-10,565.1-20.1,647.6C7281.3,3966,6394.5,4852.9,5310.5,4993.7C5133.6,5015.8,4850,5015.8,4671,4991.6z M5521.7,4354.1c647.5-179,1073.9-603.3,1262.9-1260.9c36.2-124.7,42.2-215.2,50.3-748.1l8.1-609.3H4998.8H3154.7l8.1,609.3c8,543,14.1,623.4,52.3,760.2c181,643.5,653.6,1104.1,1281,1250.9c219.2,52.3,223.2,52.3,563.1,44.2C5298.5,4394.4,5417.1,4384.3,5521.7,4354.1z M7985.2,1102.3c38.2-24.1,86.5-72.4,110.6-110.6c40.2-70.4,40.2-92.5,40.2-2523.8c0-2431.3,0-2453.5-40.2-2523.8c-24.1-38.2-72.4-86.5-110.6-110.6c-70.4-40.2-90.5-40.2-2986.4-40.2c-2895.9,0-2916,0-2986.4,40.2c-38.2,24.1-86.5,72.4-110.6,110.6c-40.2,70.4-40.2,92.5-40.2,2523.8c0,2676.7-6,2521.8,112.6,2610.3c30.2,20.1,84.5,46.3,120.7,54.3c38.2,8,1363.5,14.1,2944.1,14.1C7892.7,1142.5,7914.8,1142.5,7985.2,1102.3z"/><path d="M4707.2,275.8c-221.2-56.3-400.2-164.9-595.3-360c-279.5-279.5-396.2-543-394.2-894.9c2-279.5,124.7-601.3,313.7-816.5l88.5-100.6l8.1-392.1l6-390.1l64.4-136.7c86.5-179,273.5-376.1,436.4-456.5c335.8-164.9,653.6-110.6,945.2,160.9c239.3,225.2,293.6,384.1,293.6,870.8v339.9l76.4,86.5c197.1,225.2,305.7,490.7,321.8,780.3c12.1,245.4-14.1,372-120.7,597.3c-68.4,140.8-112.6,201.1-265.5,351.9c-197.1,197.1-370,299.7-605.3,362C5133.6,316,4854,316,4707.2,275.8z M5280.4-329.5c140.8-46.3,311.7-219.2,362-368c56.3-160.9,52.3-402.2-6-532.9c-48.3-106.6-193.1-267.5-299.6-333.8l-64.4-40.2l-6-520.9l-6-522.9l-56.3-54.3c-50.3-52.3-68.4-56.3-207.1-56.3c-146.8,0-154.8,2-211.2,66.4l-58.3,64.4v510.8v510.8l-54.3,36.2c-120.7,76.4-265.4,235.3-309.7,335.8c-70.4,152.9-66.4,420.3,6,577.2C4518.2-337.6,4890.2-202.8,5280.4-329.5z"/></g></g>
</svg>