<svg xmlns="http://www.w3.org/2000/svg" viewBox="0 0 512 512"><title>arrow-right-open-black2</title><rect width="512" height="512" style="fill:none"/><rect width="512" height="512" style="fill:none"/><rect width="512" height="512" style="fill:none"/><path d="M256.06,464.56a35.51,35.51,0,0,1-3.56-.18,34.73,34.73,0,0,1-31.24-34.78V354.77H34.74A34.81,34.81,0,0,1,0,319.81V192.11a34.83,34.83,0,0,1,34.65-34.87H221.26V82.41a34.72,34.72,0,0,1,56.51-27.26L498.92,228.74l.35.28A35,35,0,0,1,504,278.25l-.1.12a34.67,34.67,0,0,1-4.71,4.68l-.28.22L277.79,456.85A34.42,34.42,0,0,1,256.06,464.56ZM240.2,316.9a18.93,18.93,0,0,1,18.94,18.93v87.51L472.32,256,259.14,88.67v87.51a18.94,18.94,0,0,1-18.94,18.94H37.88V316.9Zm-202.32,3v0Zm0-127.86v0Z" transform="translate(0)"/></svg>