<svg xmlns="http://www.w3.org/2000/svg" viewBox="0 0 330.53 371.18">
  <path d="M140.85,31.48H154a19,19,0,0,1,4.44.49A9.17,9.17,0,0,1,162,33.6a7.52,7.52,0,0,1,2.29,3,11.89,11.89,0,0,1,.82,4.68,9.77,9.77,0,0,1-1.47,5.42,7.43,7.43,0,0,1-4.41,3.08v.11a7.73,7.73,0,0,1,5.17,2.78,9.63,9.63,0,0,1,1.91,6.26,15.59,15.59,0,0,1-.6,4.35,8.84,8.84,0,0,1-2,3.62,10.2,10.2,0,0,1-3.76,2.48,15.61,15.61,0,0,1-5.74.93H140.85Zm7.84,16h2.23a7.75,7.75,0,0,0,4.76-1.17,4.74,4.74,0,0,0,1.5-4c0-1.85-.45-3.16-1.36-3.92a6.64,6.64,0,0,0-4.3-1.14h-2.83V47.48Zm0,17.15h3a7.62,7.62,0,0,0,4.57-1.25c1.16-.83,1.74-2.38,1.74-4.63a7.42,7.42,0,0,0-.46-2.8,4.72,4.72,0,0,0-1.25-1.8,4.51,4.51,0,0,0-1.88-1,9.71,9.71,0,0,0-2.4-.27h-3.37v11.7Z" style="fill: #010101"/>
  <path d="M178.69,31.48h9.69l10.29,38.87H190.5l-1.8-8.17H178.36l-1.8,8.22H168.4Zm1,24.22h7.62l-3.76-17.47h-.11Z" style="fill: #010101"/>
  <path d="M201.39,70.35V31.48h7.84V63.92h13.88v6.42H201.39Z" style="fill: #010101"/>
  <path d="M226.59,70.35V31.48h7.84V63.92h13.88v6.42H226.59Z" style="fill: #010101"/>
  <path d="M251,50.92a76.24,76.24,0,0,1,.41-8.14,18.06,18.06,0,0,1,1.8-6.4,10.08,10.08,0,0,1,4-4.16,17.24,17.24,0,0,1,14,0,10.08,10.08,0,0,1,4,4.16,18.06,18.06,0,0,1,1.8,6.4,82,82,0,0,1,0,16.28,18.06,18.06,0,0,1-1.8,6.4,10,10,0,0,1-4,4.16,17.24,17.24,0,0,1-14,0,10,10,0,0,1-4-4.16,18.06,18.06,0,0,1-1.8-6.4A76.24,76.24,0,0,1,251,50.92Zm7.84,0c0,2.61.06,4.84.19,6.67a18.76,18.76,0,0,0,.76,4.46,5,5,0,0,0,1.63,2.5,5.39,5.39,0,0,0,5.61,0,5,5,0,0,0,1.63-2.5,18.76,18.76,0,0,0,.76-4.46c.13-1.83.19-4.06.19-6.67s-.06-4.83-.19-6.64a18.76,18.76,0,0,0-.76-4.46A5,5,0,0,0,267,37.28a5.39,5.39,0,0,0-5.61,0,5,5,0,0,0-1.63,2.53,18.76,18.76,0,0,0-.76,4.46q-.19,2.73-.18,6.65Z" style="fill: #010101"/>
  <path d="M303.51,31.48V37.9H295V70.34h-7.84V37.91h-8.49V31.48h24.84Z" style="fill: #010101"/>
  <path d="M212.43,176.49H153.1a1.54,1.54,0,0,1-1.55-1.55V115.61a1.54,1.54,0,0,1,1.55-1.55h59.33a1.54,1.54,0,0,1,1.55,1.55h0v59.33a1.54,1.54,0,0,1-1.55,1.55Zm-57.78-3.1h56.23V117.18H154.65v56.21Z" style="fill: #010101"/>
  <path d="M183.07,164.73a3.49,3.49,0,0,1-3.15-2L164.29,130a3.49,3.49,0,0,1,6.3-3L183,153l30.87-67.26a3.49,3.49,0,0,1,6.34,2.91l-34,74a3.49,3.49,0,0,1-3.14,2h0Z" style="fill: #995aa4"/>
  <path d="M287.52,176.49H228.19a1.54,1.54,0,0,1-1.55-1.55V115.61a1.54,1.54,0,0,1,1.55-1.55h59.33a1.54,1.54,0,0,1,1.55,1.55v59.33a1.54,1.54,0,0,1-1.55,1.55Zm-57.78-3.1H286V117.18H229.74v56.21Z" style="fill: #010101"/>
  <path d="M212.43,250.53H153.1a1.54,1.54,0,0,1-1.55-1.55V189.64a1.54,1.54,0,0,1,1.55-1.55h59.33a1.54,1.54,0,0,1,1.55,1.55V249a1.54,1.54,0,0,1-1.55,1.55Zm-57.78-3.1h56.23V191.18H154.65v56.25Z" style="fill: #010101"/>
  <path d="M287.52,250.53H228.19a1.54,1.54,0,0,1-1.55-1.55V189.64a1.54,1.54,0,0,1,1.55-1.55h59.33a1.54,1.54,0,0,1,1.55,1.55V249a1.54,1.54,0,0,1-1.55,1.55Zm-57.78-3.1H286V191.18H229.74v56.25Z" style="fill: #010101"/>
  <path d="M258.16,238.77a3.49,3.49,0,0,1-3.15-2L239.38,204a3.49,3.49,0,0,1,6.3-3l12.42,26L289,159.79a3.49,3.49,0,0,1,6.34,2.91l-34,74a3.49,3.49,0,0,1-3.14,2h0Z" style="fill: #995aa4"/>
  <path d="M325.91,300.35H116.38a4.62,4.62,0,0,1-4.62-4.62V4.62A4.62,4.62,0,0,1,116.38,0H325.91a4.62,4.62,0,0,1,4.62,4.62V295.73a4.62,4.62,0,0,1-4.62,4.62ZM121,291.11H321.28V9.24H121Z" style="fill: #010101"/>
  <path d="M109.59,156.63a105,105,0,1,1-105,105A105,105,0,0,1,109.59,156.63Z" style="fill: #fff"/>
  <path d="M109.59,371.18A109.59,109.59,0,1,1,219.18,261.59h0A109.71,109.71,0,0,1,109.59,371.18Zm0-209.93A100.34,100.34,0,1,0,209.93,261.59h0A100.46,100.46,0,0,0,109.59,161.25Z" style="fill: #010101"/>
  <path d="M116,307.28c-13.49,0-19.59-1.85-44.13-14.25l-5.42-2.75a4.62,4.62,0,0,1,4.23-8.22q2.66,1.37,5.34,2.72c26.9,13.6,29.49,13.53,46.29,13.17,3.29-.07,7.07-.16,11.63-.16,8.4,0,13.46-4.63,16.89-15.45a1.19,1.19,0,0,1,.09-.36l8.54-28.49a1.54,1.54,0,0,1,.09-.37,4.39,4.39,0,0,0-4.23-5.66H133.09a13.64,13.64,0,0,1-13.21-17.12l4-15a3,3,0,0,0-.58-2.69,3.14,3.14,0,0,0-4.42-.46h0a3.3,3.3,0,0,0-.6.64l-22,33.81A13.89,13.89,0,0,1,85,252.52H68.52a4.63,4.63,0,1,1,0-9.25H85a4.53,4.53,0,0,0,3.64-1.88l22-33.83A12.94,12.94,0,0,1,113,205a12.35,12.35,0,0,1,19.78,12.67l-4,15a4.34,4.34,0,0,0,.76,3.78,4.47,4.47,0,0,0,3.53,1.72h22.16a13.63,13.63,0,0,1,13.18,17.25.92.92,0,0,1-.09.39l-8.53,28.47c0,.15-.07.3-.11.44-4.65,15-13.09,22.29-25.82,22.29-4.47,0-8.19.08-11.42.15C120.08,307.24,117.93,307.28,116,307.28Z" style="fill: #010101"/>
  <path d="M68.52,307.29H59.39a4.63,4.63,0,0,1,0-9.25h4.5V243.39h-4.5a4.63,4.63,0,0,1,0-9.25h9.13a4.62,4.62,0,0,1,4.62,4.62v63.89a4.62,4.62,0,0,1-4.6,4.64Z" style="fill: #010101"/>
</svg>
