<svg xmlns="http://www.w3.org/2000/svg" viewBox="0 0 512 512">
  <path d="M484.9,139.15v26.6H27.1v-26.6H484.9m12.4-21.1H14.7a8.7,8.7,0,0,0-8.7,8.7v51.4a8.71,8.71,0,0,0,8.7,8.71H497.3a8.71,8.71,0,0,0,8.7-8.71v-51.4a8.7,8.7,0,0,0-8.7-8.7Z" style="fill: #010101"/>
  <g>
    <g>
      <path d="M447.25,506.57H64.75l55-357.86H411.91Z" style="fill: #fff"/>
      <path d="M447.25,512H64.75a5.43,5.43,0,0,1-5.37-6.26l55-357.86a5.43,5.43,0,0,1,5.37-4.6H411.91a5.43,5.43,0,0,1,5.41,4.89L452.65,506a5.43,5.43,0,0,1-5.4,6ZM71.08,501.14H441.25L407,154.14H124.45Z" style="fill: #010101"/>
    </g>
    <g>
      <path d="M150.71,174.49h18.7a38,38,0,0,1,6.27.48,14.79,14.79,0,0,1,4.85,1.61,7.35,7.35,0,0,1,3,3,8.23,8.23,0,0,1,.73,4.65,8.46,8.46,0,0,1-2.64,5.42,12.75,12.75,0,0,1-6.68,3.11v.11a11.84,11.84,0,0,1,7.21,2.81,7.36,7.36,0,0,1,2.17,6.4,12.47,12.47,0,0,1-1.3,4.49,10.33,10.33,0,0,1-3.35,3.76,18.53,18.53,0,0,1-5.78,2.59,32.82,32.82,0,0,1-8.56,1H145.81Zm9.35,15.86h3.22c3.15,0,5.48-.39,7-1.18a4.67,4.67,0,0,0,2.57-3.95c.2-1.85-.32-3.15-1.54-3.91s-3.23-1.13-6-1.13h-4.05Zm-2,17.53h4.46a15.65,15.65,0,0,0,6.84-1.3,5.49,5.49,0,0,0,3.05-4.77,5.27,5.27,0,0,0-.38-2.87,4.43,4.43,0,0,0-1.63-1.83,7,7,0,0,0-2.62-1,19.2,19.2,0,0,0-3.45-.28h-4.89Z" style="fill: #010101"/>
      <path d="M204.63,174.49h13.81L231,213.9h-12l-2.08-8.55H201.72l-3.32,8.55h-12Zm-.4,24.26h11.08l-4.18-17.6H211Z" style="fill: #010101"/>
      <path d="M235,213.9l2-39.41h11.18l-1.37,32.71h20.33l-.17,6.7Z" style="fill: #010101"/>
      <path d="M272.08,213.9l.83-39.41h11.17l-.38,32.71H304l0,6.7Z" style="fill: #010101"/>
      <path d="M307.83,193.87a52.24,52.24,0,0,1,.52-8.19,13.88,13.88,0,0,1,2.51-6.36,12.58,12.58,0,0,1,5.66-4.11,27.66,27.66,0,0,1,10-1.47,28.23,28.23,0,0,1,10.05,1.47,13.47,13.47,0,0,1,5.86,4.11,14.68,14.68,0,0,1,2.83,6.36,53.79,53.79,0,0,1,.91,8.19,53.15,53.15,0,0,1-.26,8.31,14.12,14.12,0,0,1-2.37,6.61,12.67,12.67,0,0,1-5.72,4.34,27.75,27.75,0,0,1-10.3,1.57,28.4,28.4,0,0,1-10.38-1.57,13.57,13.57,0,0,1-5.93-4.34,14.89,14.89,0,0,1-2.7-6.61A54.69,54.69,0,0,1,307.83,193.87Zm11.35,0c.05,2.66.18,4.92.4,6.8a14.26,14.26,0,0,0,1.2,4.59,5.6,5.6,0,0,0,2.44,2.59,8.92,8.92,0,0,0,4.13.82,8.66,8.66,0,0,0,4.09-.82,5.23,5.23,0,0,0,2.32-2.59,13.91,13.91,0,0,0,1-4.59c.13-1.88.15-4.14.07-6.8s-.24-4.87-.48-6.69a14.16,14.16,0,0,0-1.23-4.46,5.46,5.46,0,0,0-2.42-2.51,8.92,8.92,0,0,0-4-.78,8.76,8.76,0,0,0-4,.78,5.13,5.13,0,0,0-2.29,2.51,13.74,13.74,0,0,0-1,4.46Q319.12,189.91,319.18,193.87Z" style="fill: #010101"/>
      <path d="M382.54,174.49l.45,6.34H370.82l2,33.07H361.31l-1.72-33.07H347.42l-.26-6.34Z" style="fill: #010101"/>
    </g>
    <polygon points="246.65 334.26 249.35 263.22 158.44 263.22 150.66 334.26 246.65 334.26" style="fill: none;stroke: #010101;stroke-linejoin: round;stroke-width: 9.571208718323012px"/>
    <polyline points="179.05 278 200.41 317.17 257.45 231.81" style="fill: none;stroke: #995aa4;stroke-linecap: round;stroke-linejoin: round;stroke-width: 23.928021795807528px"/>
    <polygon points="368.14 334.26 364.41 263.22 273.5 263.22 272.14 334.26 368.14 334.26" style="fill: none;stroke: #010101;stroke-linejoin: round;stroke-width: 9.571208718323012px"/>
    <polygon points="242.82 434.88 245.93 353.11 148.59 353.11 139.63 434.88 242.82 434.88" style="fill: none;stroke: #010101;stroke-linejoin: round;stroke-width: 9.571208718323012px"/>
    <polygon points="373.42 434.88 369.13 353.11 271.79 353.11 270.23 434.88 373.42 434.88" style="fill: none;stroke: #010101;stroke-linejoin: round;stroke-width: 9.571208718323012px"/>
    <polyline points="295.28 370.07 322.02 415.15 374.62 317.17" style="fill: none;stroke: #995aa4;stroke-linecap: round;stroke-linejoin: round;stroke-width: 23.928021795807528px"/>
  </g>
  <g>
    <polygon points="276.39 3.99 235.61 3.99 235.61 48.12 214.7 48.12 256 100.54 297.3 48.12 276.39 48.12 276.39 3.99" style="fill: #995aa4"/>
    <path d="M256,104.53a4,4,0,0,1-3.13-1.52l-41.3-52.42a4,4,0,0,1,3.13-6.46h16.93V4a4,4,0,0,1,4-4h40.78a4,4,0,0,1,4,4V44.13H297.3a4,4,0,0,1,3.13,6.46L259.13,103A4,4,0,0,1,256,104.53ZM222.92,52.11,256,94.1l33.08-42H276.39a4,4,0,0,1-4-4V8H239.6V48.12a4,4,0,0,1-4,4Z" style="fill: #995aa4"/>
  </g>
</svg>
