<svg xmlns="http://www.w3.org/2000/svg" viewBox="0 0 480 480">
  <path d="M142.246 131l-64-80c-3.048-3.8-9.456-3.8-12.496 0l-64 80c-1.92 2.4-2.288 5.688-.96 8.464C2.126 142.24 4.918 144 7.998 144h24v88c0 4.416 3.576 8 8 8h64c4.424 0 8-3.584 8-8v-88h24c3.08 0 5.872-1.76 7.208-4.536 1.328-2.768.96-6.064-.96-8.464zm-38.248-3c-4.424 0-8 3.584-8 8v88h-48v-88c0-4.416-3.576-8-8-8H24.646l47.352-59.192L119.35 128h-15.352zM103.998 384h-64c-4.424 0-8 3.584-8 8v32c0 4.416 3.576 8 8 8h64c4.424 0 8-3.584 8-8v-32c0-4.416-3.576-8-8-8zm-8 32h-48v-16h48v16zM103.998 320h-64c-4.424 0-8 3.584-8 8v32c0 4.416 3.576 8 8 8h64c4.424 0 8-3.584 8-8v-32c0-4.416-3.576-8-8-8zm-8 32h-48v-16h48v16zM103.998 256h-64c-4.424 0-8 3.584-8 8v32c0 4.416 3.576 8 8 8h64c4.424 0 8-3.584 8-8v-32c0-4.416-3.576-8-8-8zm-8 32h-48v-16h48v16zM468.278 272.976l-60.28-60.288V112c30.872 0 56-25.12 56-56s-25.128-56-56-56h-208c-30.872 0-56 25.12-56 56s25.128 56 56 56v168c0 13.232 10.768 24 24 24h92.688l9.584 9.584c-4.784 10.544-9.816 27.512-6.152 47.832 5.68 31.424 28.576 48.704 35.472 53.256l8.816-13.352c-5.536-3.664-23.984-17.568-28.528-42.744-3.512-19.448 2.96-35.12 7.144-42.728 1.712-3.12 1.16-6.992-1.36-9.504l-16-16-39.592-39.592c-6.472-6.464-7.04-16.728-1.288-23.904 3.152-3.944 7.656-6.312 12.688-6.68 5.016-.384 9.832 1.328 13.528 4.768l99.544 92.912 10.92-11.696-16.272-15.192c1.76-3.376 2.808-7.096 2.808-10.96v-44.688l48.968 48.968c4.472 4.472 7.032 10.656 7.032 16.976V480h16V301.256c0-10.68-4.168-20.728-11.72-28.28zM391.998 104v174.656l-70.096-65.424c-6.872-6.416-16.256-9.736-25.6-9.024-9.392.68-18.152 5.288-24.064 12.68-5.408 6.76-7.84 14.992-7.392 23.064.448 8.072 3.776 15.992 9.896 22.112L300.686 288h-76.688c-4.416 0-8-3.592-8-8V64h176v40zm8-56h-192c-4.424 0-8 3.584-8 8v40c-22.056 0-40-17.944-40-40s17.944-40 40-40h208c22.056 0 40 17.944 40 40s-17.944 40-40 40V56c0-4.416-3.576-8-8-8zM310.75 419.704c-10.656-16.752-13.912-33.352-14.776-44.336l-15.952 1.248c1 12.792 4.8 32.136 17.224 51.664 8.744 13.752 20.648 25.664 34.448 34.464l8.608-13.496c-11.84-7.552-22.064-17.768-29.552-29.544z"/>
  <path d="M343.998 80h-16c-13.232 0-24 10.768-24 24v32c0 13.232 10.768 24 24 24h16c13.232 0 24-10.768 24-24v-32c0-13.232-10.768-24-24-24zm8 56c0 4.408-3.584 8-8 8h-16c-4.416 0-8-3.592-8-8v-32c0-4.408 3.584-8 8-8h16c4.416 0 8 3.592 8 8v32zM239.998 80h16v40h-16zM239.998 152h16v40h-16zM239.998 224h16v48h-16z"/>
</svg>
