<svg xmlns="http://www.w3.org/2000/svg" viewBox="0 0 1024 1024">
  <path d="M755.3 500.5c-5.2-6.6-8.8-13.9-4.5-21.6 5.9 3.6 6 13.5 7.4 19.9-.9.5-1.9 1.1-2.9 1.7M0 480.6c2.4-.9 5.8-3.4 7.1-2.6 9 5.5 18.2 10.8 25.7 18 3.5 3.2 3.6 10.3 4.3 15.9.2 1.3-4.8 4.8-5.9 4.3C19.4 510 4.8 506.9 0 491.7v-11.1zM1024 541.8c-1.6 5.3-5.1 6.1-9.6 3.8-6-3.1-11.9-6.2-17.8-9.5-8.8-4.9-11.3-13-10.3-22.5.6-5.5 3-7.5 8.3-4.8 12.3 6.2 24.6 12.4 29.4 26.8v6.2zM1024 513.6c-15.9 1.9-37.1-12.4-38.5-26.5-.3-3.1.3-7.2 2.3-9.1 1.2-1.2 5.8.1 8.5 1.2 11.3 4.6 22 10.1 27.7 21.9v12.5zM494.7 1024c-.6-2-2.1-4.3-1.5-5.7 5-11 8.7-23.1 20.6-29.4 1.9-.9 3.9-2.1 5.8-2.1 3.5-.1 7 .6 10.5 1-.5 3.4-.1 7.2-1.5 10.2-4.9 9.9-8.1 21.1-19.6 26h-14.3zM0 512c1.7-.6 3.6-2.1 4.9-1.6 11.8 4.5 24.4 8 31 20.4.9 1.8 1.9 3.9 1.9 5.9.1 3.2-.6 6.5-1 9.7-3.2-.3-6.7-.1-9.6-1.3-10.3-4.4-21.7-7.7-27.2-18.9V512zM494.7 0c.7 1.6 2.3 3.6 1.9 4.9-4.5 12.5-7.4 26.3-21.1 32.8-3 1.4-6.6 2.4-9.6 1.9-1.9-.3-5.3-4.5-4.8-5.6C466.5 21.3 468 5.7 483.9.2l10.8-.2zM529.2 0c.4.7 1.1 1.3 1.3 2 3.3 14.9-17 37.5-31.9 35.8-5.5-.6-7-3.6-4.8-7.9 5.8-11.8 10.7-24.5 24.5-29.7l10.9-.2zM529.2 1024c-.7-2.1-2.5-4.6-1.9-6.2 3.6-8.9 6.9-18.1 11.8-26.2 4.4-7.2 12.6-7.7 20.4-6.8 4.6.5 4.1 3.8 2.9 7.1-5 12.9-9.7 25.9-23.7 32.1h-9.5zM388.7 815.4c5.6 2 11.3 3.5 16.6 6.1 5.1 2.4 5.6 6.4.3 9.4-7 4-14.1 7.9-21.6 11-10.6 4.3-20.5 1.2-29.8-4.3-4.4-2.6-5.2-6.2-.3-8.9 10.8-6.1 21.5-12.5 34.8-13.3M288.9 247.5c-1.2-13.2 2.4-26.1 15.9-34.2 2.6-1.6 6.1-1.9 9.2-2.7.8 2.9 2.5 6 2 8.6-1.7 10.4-3 21.1-6.6 30.9-1.9 5.2-7.9 9.5-12.9 13-5.2 3.7-7.9 1.8-8.3-4.8-.1-1.5-.1-3.2 0-4.7.3-1.5.4-3.1.7-6.1M499.5 873.4c-.8 0-1.1.1-1.4 0-4-1.2-8-2.5-12-3.8 1.9-3.5 3.4-7.4 5.9-10.5 7.9-9.5 16.2-18.4 29.3-20.5 1-.2 2.1-.8 3-.5 4.4.9 8.8 2 13.2 3-1.9 3.8-3.3 7.8-5.6 11.1-3.1 4.4-6.6 8.7-10.5 12.5-6.1 6.2-13.7 9.2-21.9 8.7M859.5 611.1c0 .3.2 1.4-.2 2.4-2.1 5.1-4.4 10.1-6.6 15.2-3.6-3.4-7.4-6.6-10.6-10.2-2.9-3.3-5.3-7-7.7-10.7-6.5-10.6-5.2-21.3-.5-32 1.8-4 5.1-6.1 8.3-2 8.4 10.9 16.9 21.9 17.3 37.3M828.9 355c-6.9-1.3-14.6-2.4-22.2-4.3-11.4-2.9-17.4-11.6-21.4-22-1.5-3.9-.3-7.3 4.4-6.8 14.5 1.8 29.2 3.5 39.8 15.3 2.5 2.8 4.6 6.4 6 10 2.4 6 .5 8.3-6.6 7.8M667.9 828.1c1.3-6.8 2.2-14.7 4.1-22.2 3-11.3 11.3-17.9 22-21.3 1.8-.6 6.3 1.6 6.7 3.2 3.6 15.4-10.5 41.2-25 46.7-6.1 2.4-8.2 1-7.8-6.4M708.5 793.9c-1-13 2.6-25.7 16.2-33.7 2.5-1.4 6.3-3.2 8.4-2.2 1.8.8 2.9 5.4 2.5 8-1.2 9.7-1.8 19.9-5.2 28.9-2.5 6.1-9 11.2-14.5 15.6-4.6 3.6-7.8 1.1-7.9-4.7 0-3.2.3-6.6.5-11.9M438.4 156.2c4.7-.3 7.9 1.4 5.9 6.2-5.1 12.3-10.2 24.7-22.1 32.4-1.3.9-2.6 2-4.1 2.2-5.4.7-10.9 1-16.3 1.4 1.2-4.6 1.9-9.4 3.7-13.6 2.7-6.1 5.6-12.4 9.6-17.8 5.5-7.6 14.2-9.8 23.3-10.8M250.5 297.3c.1 13.6-2.7 22.4-9.7 29.5-5.2 5.4-8.5 4.7-10.3-2.2-1.8-6.8-3.4-13.6-4.6-20.5-2-11.9 3-21.4 11.3-29.3 4.5-4.3 8-3.4 9.6 2.7 1.8 7.7 2.9 15.6 3.7 19.8M482.4 148.1c9.1 1.4 11.3 4.3 6.5 11-5.9 8.4-12.2 17.1-20 23.5-5.2 4.2-13.4 4.9-20.4 6.1-3.6.7-7.5-1.9-4.8-6.1 5.8-9.2 11.4-18.9 19-26.3 4.7-4.8 13-5.6 19.7-8.2M824.6 688.3c-3 6.9-5.2 14.2-9.1 20.8-3.2 5.6-6.9 5.1-9.4-.8-3-7.4-6-15-8.1-22.8-3-11.1 1.4-20.5 8.3-28.8 3.4-4.1 7.2-3.7 9 1.4 3.3 9.5 5.9 19.3 9.3 30.2M585.4 866c-5.3.2-7.4-2-5.4-6.7 3.6-8 7-16.2 11.5-23.7 5.7-9.5 15.6-12.4 26-13.3 1.7-.2 5.3 3.5 5.2 5.2-.8 14.5-19 34.9-33.1 37.8-1.4.5-3 .6-4.2.7M433.7 829.1c4.2 1.1 8.6 1.9 12.7 3.4 6.3 2.5 6.8 5.7 1.2 10s-11.3 8.4-17.3 12.1c-10.5 6.6-21.3 5.4-32.1.3-4.4-2-5.5-5.5-1.6-8.4 10.9-8.2 21.9-16.9 37.1-17.4M796.8 314.8c-15.2.9-27.9-3.3-35.9-17.2-1.4-2.5-2.5-6.1-1.6-8.4.6-1.5 5.1-2.6 7.6-2.1 10.2 1.5 20.7 2.6 30.3 6.2 5.5 2 10.1 7.9 13.9 13 4.1 5.6 2.2 8.4-4.8 8.6-3.3 0-6.4-.1-9.5-.1M718.4 225.5c14.1 0 23.2 3.2 30.3 10.8 4 4.3 3 7.6-2.5 9-7.8 2-15.6 4-23.6 4.9-11.3 1.4-20-4-27.5-11.8-4.1-4.3-2.9-7.8 2.5-9 8.1-1.9 16.3-3.2 20.8-3.9M457.2 870.7c-6.3-2.4-11.7-4.4-17.1-6.5 3.1-4.3 5.8-9.2 9.5-13 10.2-10.1 22-16.6 37.1-13.5 2.8.6 5.2 2.7 8 4.1-1.5 2.6-2.7 5.5-4.7 7.6-4.3 4.4-8.6 9.2-13.9 12.5-5.8 3.7-12.4 5.9-18.9 8.8M321.4 234.4c3.6-12.5 5-24 10.2-33.6 3.2-6.1 11.6-9.6 18.1-13.6 3.6-2.3 7.4-.3 6.9 4-2 14.6-3.6 29.7-15.7 40.2-3.2 2.8-7.4 4.9-11.5 6.2-2.1.6-4.9-1.8-8-3.2M208.6 386.2c-2.9 7.2-5 13.6-8 19.4-.6 1.2-5.5 2-6.6.9-12.4-11.1-17.5-34.7-10.6-48.8 1.5-3.1 4.5-5.4 6.8-8.1 2.4 2.6 5.6 4.7 6.9 7.8 4.1 9.4 7.6 19 11.5 28.8M334.1 824.7c-6.9-3.6-14.4-7-21.3-11.3-1.2-.8-1.5-6.2-.3-7.3 10.7-9.8 39-11.4 50.8-3 2.4 1.7 3.9 4.5 5.8 6.8-2.4 1.8-4.6 4.3-7.3 5.3-8.5 3.3-17.4 6-27.7 9.5M249.3 734.2c-14.2 1.4-27-2.7-35.1-16.5-1.4-2.5-2.5-6-2-8.5.3-1.3 5-2.4 7.5-2 9.5 1.1 19.5 1.4 28.3 4.8 6.4 2.6 11.9 8.9 16.4 14.7 4.1 5.1 2.1 7.7-4.7 8-1.5.1-3.1 0-4.7 0-1.7-.2-3.2-.3-5.7-.5M163.4 413.1c1.6-5.5 2.7-11.1 5-16.2.8-1.6 5.6-3.2 6.9-2.4 13 8.3 21.3 35.5 15.6 49.9-3 7.4-6.2 8.3-10.6 1.7-6.6-10.1-16.8-18.7-16.9-33M856.6 393.4c-2.7 2.3-4.1 4.5-5.8 4.8-15.4 2.4-38.6-13.1-43.1-28.8-.8-2.6-1.4-7.1-.3-7.9 2.1-1.4 6.2-1.8 8.5-.7 9.7 4.2 19.9 8 28.3 14.1 5.5 3.8 8.1 11.7 12.4 18.5M839.3 497.3c0-1.5-.3-3.2.1-4.7.7-2.4 1.4-6.2 2.9-6.6 2.2-.7 6 .3 7.6 2 7.7 8.3 16 16.4 21.9 25.9 3 4.9 1.9 12.5 1.7 18.9 0 1.3-5.1 3.9-5.7 3.4-10.2-8.3-22.9-14.2-27.1-28.1-1-3.4-1.3-7.2-1.9-10.7.2-.1.4-.1.5-.1M186.3 478.5c0 .5.1 1.1-.1 1.5l-5.1 13.2c-3.5-2.5-7.1-4.7-10.2-7.5-3.1-2.7-5.8-6.1-8.6-9.1-9.1-10-9.6-21.5-6.1-33.7 1.1-3.8 3.7-6.6 7.4-3.2 11.1 10.7 21.8 21.9 22.7 38.8M201.9 620.9c-21.1 2-44.7-18.2-44.9-36.6-.1-3.8 1.2-7.6 5.8-5.7 13.5 5.4 27.4 10.8 34.4 24.8 2.7 5.3 3.2 11.5 4.7 17.5M527.3 148.6c1.8.1 3.6.1 5.4.4 4.9.9 7.3 3.5 3.6 8-5.3 6.7-10.6 13.6-16.7 19.4-8.1 7.9-18.7 8.4-29.2 6.4-1.7-.3-4.2-4.2-3.8-5.7 3.5-12.8 26.7-28.8 40.7-28.5M399.4 171.4c-.3 18.4-14.6 39.6-28.7 43.8-2.7.9-5.9.2-8.9.2 0-2.8-.5-5.6.2-8.3 1.4-5.5 3.1-11 4.9-16.4 4.1-12.6 13.5-19.4 26.1-21.7 2.2-.5 4.8 1.8 6.4 2.4M592.8 193.7c-5.5-1.5-11-2.8-16.3-4.8-3.7-1.4-5.6-4.9-1.9-7.8 12.3-9.7 24.9-19.3 42-17 2.5.3 5.1 1.1 7.5 2 7 2.8 7.8 6.2 1.7 10.3-10.1 6.8-18.9 16.9-33 17.3M539.8 872.7c-1.4-.5-5.3-.9-6.1-2.6-.8-1.9.7-5.4 2-7.7 3.4-5.9 6.9-11.7 11-17.1 7.2-9.8 17.7-12.3 29.1-12 4.2.1 7 2.6 4.8 6.6-7.5 13.5-15.4 26.9-31.6 31.7-2.6.7-5.3.6-9.2 1.1M260.7 742.4c12.4-.3 25 2.3 33.8 14.2 4.1 5.6 3 8.4-4.1 9.1-7.2.8-14.5 1.3-21.7 1.7-12.3.7-20.6-6.1-27.2-15.3-3.5-4.7-1.9-7.8 3.8-8.5 4.7-.4 9.4-.7 15.4-1.2M873.7 484c-.3.7-.8 4.1-2.6 5.5-1.4.9-4.9-.5-7-1.7-5.7-3.2-11.1-6.7-16.4-10.4-10.8-7.4-14-18.2-13-30.6.2-1.8 3.6-4.9 5-4.6 14.6 2.1 33.6 24.6 34 41.8M689.7 198.2c7 3.2 14.6 6.1 21.6 10.1 4.1 2.4 3.6 6.3-1.1 8.1-8 3.2-15.9 6.6-24.1 8.5-10.6 2.6-20-1.4-28.1-8.2-4.3-3.6-4.2-7.4 1.3-9.3 9.5-3 19.1-5.8 30.4-9.2M845.5 650.1c-2.7 7.1-4.7 13.2-7.6 18.8-.8 1.4-5.4 2.6-6.6 1.7-9.6-7.1-16.8-32.9-12.8-44.5.4-1.2.7-2.6 1.4-3.6 2.3-3 4.7-5.8 7.2-8.7 2.5 2.7 5.8 5 7.3 8.2 4 9.2 7.4 18.6 11.1 28.1M189.7 569.7c0 10.7-2.4 12.3-9.6 8-5.3-3.2-10.7-6.5-15.8-10-10.6-7.2-13.9-17.6-13.7-29.7.1-4.4 2.2-7.8 6.8-5.4 12.9 7.2 26.1 14.7 31 30.1 1 3 1.1 6.1 1.3 7M629.8 856.1c-2.5-3.3-4.7-4.9-4.9-6.8-1.3-15.9 12.3-37.1 27.1-41.9 3.2-1 6.9-.4 10.4-.5-.1 3.2.7 6.8-.5 9.6-3.6 8.8-6.9 18.2-12.5 25.7-4.5 5.6-12.2 8.8-19.6 13.9M230.3 699.7c-6.3-1.3-14.6-2.5-22.6-4.8-10.3-3.1-15.8-11.5-19.3-21.1-.6-1.7 1.5-6.4 3.1-6.7 15.4-3.7 40.4 9.5 46.4 23.9 3.1 7.1 1.7 9.2-7.6 8.7M867.5 439.8c-1.4.9-3.6 3.5-5.6 3.3-15.7-1-34.3-16.4-37.6-30.9-.7-2.7-1.1-5.8-.6-8.4.3-1.5 2.9-3.8 4.4-3.8 14.9.4 36.3 20.1 38.7 35.4.1.7.2 1.5.7 4.4M547.2 187.1c-6.9-2.7-12.2-4.9-17.5-7 3.4-4.3 6.3-9 10.2-12.8 9.5-9.2 20.4-15.6 34.3-13.6 3.6.5 6.8 3 10.2 4.6-1.9 2.9-3.5 6.1-5.8 8.6-3.3 3.7-6.8 7.5-10.9 10-6.5 4-13.6 6.8-20.5 10.2M280.6 257.9c.7 13.6-2 25.8-13.3 34.9-6.1 4.9-9.1 3.8-10.2-3.9-.8-6.4-1.4-12.9-1.8-19.3-.7-12.6 5.4-21.8 15.2-28.9 4.5-3.2 7.9-2.6 8.8 3.4.7 4.5.9 9.2 1.3 13.8M837.5 544c.4-2.4.8-6.2 1.8-10 1.3-5.1 4.9-7.9 8.7-3.3 7.3 8.9 14.7 18.2 19.6 28.5 2.6 5.5.6 13.6-.2 20.4-.2 1.3-5.2 3.6-5.8 3.1-10.5-10.7-23.9-19.7-24.1-38.7M227.6 344c-3.2 7.1-6 14.4-9.8 21.2-2.1 3.8-6.2 4.5-8.2-.5-3.4-8.4-6.9-16.9-8.9-25.7-2.4-10.1 1.8-18.9 8-26.6 4-4.9 7.5-4.5 9.7 1.4 3.4 9.5 5.9 19.2 9.2 30.2M176.2 623.6c16.2 5.4 34.1 9.3 40.3 29.3.8 2.5 1.3 6.3-.1 7.9-1.2 1.4-5.2.9-7.7.3-6-1.4-12-3.3-17.8-5.4-12.3-4.3-18.3-13.8-21.1-25.9-1.2-4.7 1-6.8 6.4-6.2M184.7 527.8c0 .4 0 2.6-.4 4.5-1.1 4.9-4 6.1-7.9 3-6.9-5.5-14-11-20-17.4-7.6-8.1-7.9-18.4-5.8-28.6.3-1.5 5-3.8 6.7-3.2 13.6 5 27.5 25.9 27.4 41.7M302.3 771.9c10.2.7 19.1 3.7 26.1 11.1 4.7 4.9 4.1 7.8-2.1 9.4-7.8 2-15.6 3.8-23.5 4.9-11.3 1.6-20-3.8-27.5-11.7-4.1-4.3-2.9-7.7 2.6-8.9 8.2-1.9 16.3-3.3 24.4-4.8M747.1 254.9c13.3-.5 25.5 1.9 34.3 13.2 4.9 6.3 3.9 9.3-3.9 10.1-7.2.9-14.5 1.4-21.7 1.6-11.8.3-20-6.3-26.6-15.3-3.5-4.8-1.4-7.9 4-8.7 4.5-.5 9.3-.5 13.9-.9M650.9 177.5c7.4 2.8 13.6 4.8 19.3 7.7 1.3.7 2.2 5.5 1.3 6.6-10.3 12.8-35.7 17.8-50.2 10.1-2.5-1.4-5.8-4-5.9-6.2-.1-2 3.3-5.1 5.8-6.2 9.8-4.4 19.9-8.1 29.7-12M767.8 745.2c.8 13.6-1.4 26.1-12.8 35.1-6.3 5-9.1 4.1-10.2-3.7-.9-6.7-1.5-13.5-1.9-20.2-.7-12.4 5.8-21.3 15.3-28.3 4.7-3.5 8-1.8 8.7 3.8.7 4.4.6 8.8.9 13.3M797.5 717.9c.3 11.8-2.2 21.7-10.4 29.4-4.7 4.4-7.6 3.8-9.3-2.5-1.9-7-3.5-14.1-4.7-21.3-1.9-11.6 2.6-20.9 10.8-28.7 5-4.8 8-3.9 10 2.6.6 2 1 4 1.4 6.1.8 5.1 1.5 10.3 2.2 14.4M720.1 82.9c-3-.2-4.2.1-5.1-.3-4.5-2.3-8.8-4.9-13.2-7.3 2.9-3.3 5.2-7.4 8.7-9.8 6.3-4.3 13.3-7.8 20.1-11.1 1.9-.9 4.8-1.2 6.9-.4 4.2 1.5 8.1 3.9 12.1 5.9-2.5 3.3-4.6 7-7.5 9.8-3.7 3.6-7.9 6.8-12.4 9.5-3.3 1.9-7.4 2.8-9.6 3.7M65.7 724c-9.3-.1-20-.6-25.5-12.4-4.2-9-2.5-12.2 7.3-11.4 6.9.6 14.4.4 20.7 2.9 5.6 2.2 11 6.8 14.7 11.8 4.6 6.1 2.2 9.6-5.3 9.9-3.5-.1-6.9-.5-11.9-.8M63.9 354.2c-.4 1.8-.8 4.3-1.6 6.8-1.9 5.2-5.2 6.6-9.4 2.6-5.8-5.7-11.4-11.5-16.4-17.8-5.7-7.2-4.6-15.3-.4-22.8.9-1.7 5.8-3.4 6.4-2.7 9.7 9.4 20.9 17.9 21.4 33.9M348.1 996.2c-1.8-.3-3.8 0-5.4-.8-3.1-1.5-6-3.7-9-5.5 1.8-2.7 3.2-5.8 5.4-8.1 3.7-4 7.5-8.2 12.1-11 4.5-2.8 9.9-5.1 15.1-5.6 4.1-.3 8.6 2.4 12.9 3.8-1.9 3.7-3.3 7.7-5.8 10.9-2.8 3.7-6.2 7.2-10 9.9-4.5 3.2-9.7 5.3-14.5 7.8-.3-.5-.6-1-.8-1.4M567.1 1021.5c-6.8.2-9.1-2.1-7.6-6.7 2.5-7.9 5-15.9 8.5-23.4 3.8-8.4 11.7-10.8 20.1-10.7 1.8.1 5.3 3.8 5 4.8-3.5 11.3-5.3 23.7-15.8 31.4-3.5 2.5-7.9 3.7-10.2 4.6M827 150.1c-4.4-.9-7.4-.7-9.3-2-4.1-3-7.4-6.8-11.2-10.2 3.6-2.6 6.8-5.7 10.7-7.6 5.2-2.4 10.7-4.8 16.2-5.2 5.4-.4 11.3.9 16.6 2.8 2.7.9 5.9 4.5 6 7.1.1 2-3.8 5-6.6 6.2-7.8 3.5-15.8 6.4-22.4 8.9M285 73.4c-.6-10.4.4-21.3 13-26.9 7.8-3.5 10.7-1.8 10.3 6.7-.3 6.7-.4 13.6-1.5 20.2-1.4 7.8-5.8 13.9-13.1 17.4-5.7 2.7-8.2 1.2-8.7-5.1-.2-3.7 0-7.3 0-12.3M565.7 41.8c-4-1.5-9.1-2-10.5-4.6-1.2-2.1 1.4-7.1 3.4-10.1 3.4-5.2 7.1-10.3 11.4-14.7 5.6-5.7 12.8-7.8 20.8-6.5 3.9.7 7 2.7 4.3 6.8-5.3 8.3-10.8 16.5-17.3 23.9-2.5 2.9-7.8 3.4-12.1 5.2M981.2 581.1c.5-2.8.3-6.1 1.7-8.3 1.3-1.8 5.7-3.8 6.8-3 7.5 5.5 14.7 11.4 21.5 17.8 2.1 2 3.6 5.5 3.7 8.4.1 4.9-1.1 9.8-1.8 14.7-3.9-1.5-8-2.6-11.7-4.7-4.1-2.3-8.3-4.8-11.3-8.2-4.1-4.6-7-10.1-10.5-15.3.5-.5 1-1 1.6-1.4M849.1 171.4c-3.6-1.2-7.1-1.4-9.3-3.3-3.7-3.2-6.6-7.4-9.9-11.2 3.6-2.1 7.1-4.7 10.9-6.2 4.8-2 9.9-4.1 14.9-4.2 5.8-.1 11.8 1.4 17.2 3.4 2.9 1.1 4.7 5.1 6.9 7.8-2.7 2.1-5.1 4.9-8.1 6.2-7.4 2.9-15.2 5-22.6 7.5M1009.4 634.3c-.8 1.9-1.4 6.6-3.8 7.8-2 1-6.4-1.5-9.2-3.4-4.5-3.1-8.7-6.6-12.8-10.2-7.5-6.7-9.9-15.9-6-24.7.8-2 5.8-4.4 6.6-3.8 10.3 7.7 22.2 14.3 24.6 28.7.2 1.2.3 2.5.6 5.6M441.2 1019.7c-4.7-1-7.7-1.1-10.1-2.5-1.4-.8-3.1-4.3-2.5-5.3 6.2-10.1 11.5-21.2 23.3-26.5 1.2-.5 2.5-1.2 3.7-1.1 4.5.3 9 1 13.5 1.5-1.3 3.9-1.9 8.3-4 11.8-3.3 5.5-6.9 11.3-11.5 15.6-3.6 3.5-9 4.8-12.4 6.5M715.3 961.8c-.6-10.7-.1-22 13-27.8 7.9-3.5 10.7-1.8 10.3 6.8-.3 6.2-.4 12.5-1.3 18.7-1.2 8.2-5.4 14.6-12.9 18.6-6 3.2-8.8 1.8-9.2-4.9-.1-3.4.1-6.8.1-11.4M983.5 549.8c1.6-4.3 2-9.3 4.3-10.5 2.2-1.1 6.9.9 9.6 2.7 5.8 3.8 12.6 7.3 16.4 12.8 3.8 5.3 5.1 12.6 6.2 19.3.6 3.7-2.5 6.8-6.7 4.4-8-4.7-16.2-9.5-23.3-15.4-3.3-3-4.3-8.9-6.5-13.3M762.3 69c1 0 2.3-.3 3.1.1 4.2 2.1 8.4 4.4 12.6 6.7-2.6 3.2-4.9 6.8-8 9.4-4.4 3.6-9.3 6.6-14.3 9.4-8.4 4.7-16.2 2.4-23.3-3.1-1.5-1.1-2.4-6.2-1.5-6.9 9.5-7.1 18.5-15.5 31.4-15.6M75 323.6c-.2 1.3 0 3.2-.8 4.8-1.6 3.1-3.7 5.8-5.7 8.7-2.7-1.9-5.8-3.3-7.9-5.6-4.1-4.3-8-9-11.4-13.9-5.3-7.4-5.3-18.2.1-24.8 1.3-1.5 6-2.7 6.8-1.9 8.4 9.3 18.3 18.1 18.9 32.7M106.1 806.5c-10.7.1-18.9-4.8-21.7-13-.7-1.9 1.4-6.7 2.6-6.9 9.7-1.1 19.6-1.6 29.4-2 2.1-.1 4.9 1 6.3 2.6 3.6 3.8 6.5 8.2 9.7 12.3-4.1 1.7-8.1 3.9-12.4 4.9-4.9 1.4-10.2 1.6-13.9 2.1M279.5 72.7c1.3 12.9.1 23.3-9.3 30.7-2.4 1.9-6.2 3.2-9 2.8-1.4-.3-2.6-5-3-7.9-.7-5.9-1-11.9-1.1-17.8-.1-8.9 4.1-15.3 11.9-19.5 7.1-3.8 9.9-2.3 10.5 5.8v5.9M947.3 775.4c-.2 1.4.1 3.2-.6 4.4-2.1 3.9-4.7 7.6-7 11.3-3-2.7-6.6-5.2-9.1-8.4-3.2-4-5.8-8.5-8.3-13.1-4.3-8.2-3.2-18.2 3-24.5 1.4-1.4 6.6-2 7.3-1 6.7 9.7 14.4 18.8 14.7 31.3M47.5 416.6c-.8 1.6-1.6 6.2-4.2 7.8-1.6 1-6.4-1.9-9.1-3.8-5-3.7-9.9-7.8-14.3-12.1-6.8-6.6-7.2-14.8-3.8-23.2.7-1.8 5.2-4.1 6-3.4 10.5 7.6 22.1 14.3 25 28.6 0 1.2 0 2.6.4 6.1M990 692.5c-.3 1.9-.4 4.3-1.1 6.5-2.1 6.7-5.6 7.8-10.7 2.8-5.2-5.1-10.2-10.4-14.8-16.1-5.9-7.3-5.2-15.6-1.2-23.5.8-1.7 5.7-3.7 6.3-3.1 9.7 9.2 20.9 17.6 21.5 33.4M628.7 51.8c-1.6-.2-3 0-4.1-.5-3.2-1.4-6.3-3.1-9.5-4.7 1.5-3.1 2.6-6.6 4.7-9.2 4-4.8 8.3-9.5 13.2-13.2 6.4-5 14.1-7 22-3.8 1.9.8 4.3 5.2 3.8 5.9-7 9.5-13.1 20.3-25 24.8-1.7.6-3.7.5-5.1.7M654.6 994.5c1-6.8 1.8-14.3 3.5-21.6 1.9-8.2 10.4-15.3 18.5-15.4 1.9 0 5.7 3.2 5.5 4.3-2.2 10.6-4.4 21.2-8.2 31.3-1.4 3.7-6.6 6.5-10.7 8.4-6 2.6-8.8.2-8.6-7M341.4 57.9c.9-5.9 1.7-13.1 3.3-20.2 2-9.3 9.1-13.6 17.7-15.6 4-.9 7.4.6 6.7 5-1.4 8.9-2.7 18.2-6.1 26.4-2 4.9-7.5 9.2-12.4 12.1-6.7 3.9-9.6 1.4-9.2-7.7M977.8 420.4c1.1-.9 3.7-4.2 5.4-3.8 10.7 2.6 22.1 4.5 30.1 13.3 1.2 1.4 2.8 2.7 3.1 4.3 1.1 4.3 1.6 8.9 2.4 13.3-4.1-.1-8.4.4-12.4-.3-5.1-.9-10.1-2.7-14.9-4.6-8.9-3.5-13-10.5-13.7-22.2M818.9 906.2c-.3 10-2.7 17.6-9.8 23.2-4.1 3.2-8 3.2-9.2-2.6-1.8-8.1-3.6-16.2-4.2-24.5-.7-8.9 4.7-15 12.2-19.3 3.9-2.2 6.8-1.1 7.7 3.1 1.4 7.1 2.4 14.2 3.3 20.1M819.5 882c.2-8.4 4.7-13.9 10.8-18.3 3.2-2.2 7.2-2.7 8.1 1.7 2 9.8 3.2 19.8 4.5 29.7.3 1.9-.5 4.4-1.8 5.8-3.5 3.8-7.4 7.2-11.3 10.7-2.1-3.8-4.7-7.6-6.1-11.7-1.8-5.7-2.7-11.9-4.2-17.9M227.1 116.7c-.1 10.6-2.6 18-9.5 23.4-5 4-8.1 3.2-9.6-2.9-1.8-7.3-3.2-14.7-4.1-22.2-1.1-9.4 3.9-15.9 11.5-20.6 4.3-2.7 7.5-1.9 8.5 3.6 1.2 6.7 2.3 13.7 3.2 18.7M685.5 978c.6-5.2.9-10.4 1.9-15.5 1.5-8.4 8.5-15.4 16.7-16.4 2-.3 6.5 2.7 6.4 3.8-1.1 10-2.9 19.9-4.7 29.8-.3 1.4-1.4 3.2-2.5 3.8-4.9 2.9-10.1 5.5-15.1 8.2-1.2-4.5-2.5-8.9-3.6-13.5.3 0 .6-.1.9-.2M126.8 808.7c10.4.3 17.5 2.6 22.8 9.3 3.4 4.3 3 7.8-2.6 9.2-8 2-16.2 3.9-24.4 4.9-9 .9-15.1-4.5-19.6-11.7-2.4-3.8-1.1-6.6 3.1-7.6 7.5-1.7 15.2-3.1 20.7-4.1M985.8 354.2c-5.4-.6-10.9-1.1-16.2-2-9.2-1.5-16.3-8.5-17.3-17.6-.2-2 2.9-6.3 4-6.2 9.9 1.4 19.8 3.2 29.6 5.6 2.7.7 5.6 3.3 7 5.9 2.1 3.7 3 7.9 4.4 12-3.6 1.1-7.4 2.3-11 3.4-.2-.4-.4-.7-.5-1.1M963.2 748c-.1 1.6.2 3.1-.3 4.2-1.9 3.8-4.1 7.5-6.1 11.3-3.1-2.4-6.7-4.3-9.2-7.2-3.7-4.3-7-9-10-14-4.8-8-3.6-16.1 1.5-23.4 1.3-1.7 6.8-3.1 7.4-2.3 7.4 9.5 16.4 18.4 16.7 31.4M1008.3 417.8c-8.7-2.5-17.7-4.3-26.1-7.6-7.8-3.1-10.5-10.6-11-18.4-.1-1.7 3.6-5.5 4.5-5.2 10.5 3.3 21.1 6.5 31 11.4 3.6 1.8 5.6 7.8 7.3 12.4 1.5 4.3-.7 7-5.7 7.4M49.2 639.3c-11-3.3-20.3-5.8-29.3-9-2.6-.9-5.5-3.8-6.3-6.5-1.6-4.9-1.9-10.2-2.7-15.3 4.5.3 9.1-.4 13.3.9 7.1 2.1 14.5 4.5 20.5 8.7 4 2.8 6.2 8.7 8 13.6.6 1.6-2.1 4.7-3.5 7.6M597.8 45.4c-2.5-.4-4.9-.7-7.1-1.3-6.9-1.8-8-4.4-3.7-9.8 5-6.3 10.1-12.7 16.1-17.9 5.7-4.9 13-6.9 20.5-4.2 1.9.7 4.3 5.2 3.9 5.8-7.1 8.8-14.5 17.3-22.2 25.5-1.7 1.6-5.1 1.3-7.5 1.9M590.8 1010.9c3-8.9 5.2-18 9.1-26.4 3.3-7.3 10.8-9.5 18.4-9.5 1.7 0 5.1 3 4.8 4.1-2.5 12.4-3.9 25.5-15.1 33.8-2.6 2-6 3.1-9.1 4.1-5 1.4-7.7-.5-8.1-6.1M48.3 603.3c-3.6 2-6.2 4.8-8.1 4.3-8.7-2.2-17.4-4.9-25.8-8.4-3-1.3-6-4.7-7.1-7.8-1.6-4.7-1.4-10-2-15 4.3.3 9.1-.3 13 1.3 7.4 2.9 14.8 6.2 21.1 10.9 3.8 2.8 5.4 8.5 8.9 14.7M336.7 954.8c2 .2 3.7-.2 5.1.4 3 1.3 7.2 2.5 8.2 4.9.8 1.9-2 5.9-4.1 8.2-3.9 4.2-8.4 7.8-12.8 11.4-7.9 6.3-17.5 7.2-25.4 2-1.9-1.3-3.6-6.4-2.9-7.1 9.4-8.8 17.7-19.7 31.9-19.8M52.2 667.1c-5.5-1.1-13-2-20.3-4-8-2.1-14.5-10.4-14.4-18.4 0-2 3.6-6 4.7-5.7 10.1 2.2 20.2 4.4 29.6 8.4 3.9 1.6 6.9 7 8.9 11.3 2.9 6.3.6 8.8-8.5 8.4M1000.5 663.8c-.3 1.1-.7 4-1.5 6.6-1.4 4.3-4.7 5.2-7.9 2.3-6.8-6.1-13.9-12-19.5-19.1-5.2-6.4-3.8-14.4-.4-21.6.8-1.5 4.4-3.2 6-2.6 9.7 3.5 23.2 22.7 23.3 34.4M868.7 871c-2.8 5.4-5.4 11.7-9.1 17.2-2.9 4.2-7.1 3.6-8.9-1.4-3-8.3-5.9-16.6-7.4-25.2-1.4-8.4 3.2-15.1 10.2-19.4 1.5-.9 6.6.5 7.1 1.9 2.9 8.1 5 16.6 8.1 26.9M279.4 928.4c1.7.3 4.2.2 6.2 1.3 3.2 1.8 6 4.3 8.9 6.6-2.2 2.6-4.1 5.8-6.8 7.8-5 3.8-10.2 7.2-15.6 10.2-7.6 4.1-17.3 2.9-23.2-3-1.5-1.4-2.4-6.3-1.5-6.9 9.3-7.3 18.4-15.3 32-16M472.2 1024c-5.2-1.9-9.6-2.2-10.8-4.4-1.1-2 .8-6.2 2.2-9 2.7-5 5.7-10 9.2-14.5 5.2-6.6 12.2-10.3 21-10 6.1.3 8.5 2.8 5.5 8.4-3.6 6.9-7.1 14.2-12.2 19.9-3.8 4.5-10.3 6.8-14.9 9.6M180.7 164.2c-2.6 5.2-5 11.4-8.7 16.7-3 4.3-7.4 4.1-9.4-1.5-2.7-7.8-5.6-15.8-7.2-23.9-1.7-8.5 2.9-15 9.4-20.1 3.9-3.1 7-2 8.5 2.4 2.6 8.1 4.6 16.3 7.4 26.4M159.4 187.3c-2.8 5.5-5.2 11.5-8.5 16.7-2.6 4-6.5 3.4-8.5-1-3.4-7.8-6.9-15.8-9.1-24-2.1-8.3 1.7-15.3 8.1-20.7 3.2-2.7 6.6-2.8 8.2 1.4 3.6 8.6 6.3 17.5 9.8 27.6M933.4 267.7c-12.1.2-20-4.7-23.3-13.6-1.4-3.6-1.4-7.4 3.2-7.7 9.6-.5 19.4-1.3 28.6.3 5.2.9 10.2 5.9 14 10.1 4 4.6 1.9 8.3-4.1 9.1-6.4 1-12.9 1.3-18.4 1.8M2.2 455.2c1.4-3.2 1.9-8 4.2-9.1 2.3-1 6.6 1.4 9.6 3 4.5 2.6 9.1 5.2 12.9 8.8 3.5 3.3 7.2 7.4 8.4 11.8 1.3 4.8-.3 10.3-.5 15.5-4.2-1.4-8.6-2.3-12.6-4.2-4.2-2-8-4.7-11.9-7.4-6.4-4.4-9.8-10.2-10.1-18.4M882.2 167.6c5 2.6 11.6 5.5 17.3 9.5 3.9 2.8 3.6 7.2-1.5 8.9-8.1 2.6-16.4 5.1-24.8 6.6-8.6 1.4-14.8-3.6-19.7-10.2-2.6-3.6-1.9-6.6 2.3-7.9 7.8-2.4 15.9-4.3 26.4-6.9M103 266.4c-.3 1.1-.2 3.2-.9 4.7-2 3.7-4.5 7.2-6.8 10.7-3-2.6-6.3-4.9-8.7-7.9-3.5-4.5-6.4-9.5-9.1-14.6-4.4-8.4-2.5-16.4 3.2-23.3 1.3-1.6 6.8-2.4 7.4-1.4 6.8 9.4 14.3 18.7 14.9 31.8M970.8 324.3c-5.2-.5-10.4-.8-15.5-1.7-8.6-1.7-13.2-8-15.4-15.9-.5-1.8 1.9-6.3 2.9-6.3 11.8 0 24.5-2.1 34.4 6.1 4.1 3.4 5.9 9.6 8.9 14.6-5 1.4-9.9 2.8-14.9 4.2-.1-.3-.2-.7-.4-1M379.5 1005.7c-3.2-.3-5.2 0-6.8-.7-2.7-1.2-6.7-2.5-7.4-4.6-.7-2 1.7-5.6 3.6-7.8 4-4.8 8.2-9.5 12.9-13.5 6.5-5.5 14.3-7.2 22.7-5.1 3.9.9 6.8 3.8 3.9 7.2-6.6 7.9-13.8 15.3-21.3 22.3-1.9 1.9-5.8 1.8-7.6 2.2M623.2 1002.8c1.7-6.6 3.2-15.6 6.3-24.1 2.9-7.8 10.2-11 18.1-11.4 1.8-.1 5.5 3.4 5.2 4.3-2.9 10.4-5.5 21-10.1 30.7-1.9 3.8-8 6.1-12.7 8-4.2 1.9-6.9-.3-6.8-7.5M119.4 238.1c-.2 2 .3 4.5-.7 6.1-2.2 3.9-5 7.5-7.5 11.2-3-2.9-6.3-5.5-8.7-8.7-3-4.3-5.3-8.9-7.4-13.6-3.8-8.5-2.1-18.8 4.5-24.3 1.6-1.4 7-1.4 7.5-.4 5.2 9.4 9.6 19.2 14.4 28.8-.8.2-1.5.6-2.1.9M893.2 216.8c-9 .1-15.1-4.6-19.1-11.8-1-1.7.4-7.1 1.5-7.3 10.7-2.6 21.5-6.9 32.9-3.3 1.5.4 3.3.8 4.2 1.8 3.3 3.7 6.3 7.7 9.4 11.6-3.8 1.8-7.4 4.1-11.4 5.2-5.7 1.8-11.6 2.6-17.5 3.8M289.5 971.5c-1.2-.3-4.1-.2-6.3-1.4-3.3-1.8-6.1-4.4-9.1-6.7 2.3-2.6 4.3-5.5 6.9-7.9 2.9-2.6 5.8-5.5 9.4-7 5.8-2.5 12.1-5.3 18.3-5.5 4.5-.2 9.1 3.7 13.6 5.7-2.6 3.3-4.7 7.2-8 9.8-7.1 5.6-13.2 13-24.8 13M163.5 880.4c-3.6-1.3-7.1-1.6-9.4-3.4-3.7-3-6.7-6.9-9.9-10.5 3.7-2.3 7.3-5 11.3-6.9 3.7-1.8 7.8-3.3 11.8-3.8 5.1-.5 10.7-1 15.2.9 4.6 1.9 8 6.6 11.8 10-3.7 2.4-7.2 5.5-11.3 7.1-6.4 2.7-13.2 4.5-19.5 6.6M765.6 933.1c.9 11.7-.3 21.6-9.2 28.7-2.4 1.9-6.2 3.5-9 2.9-1.6-.3-3-5-3.3-7.8-.6-6.2-.4-12.4-.7-18.8-.3-8.9 4.1-14.7 11.5-18.8 7.2-4 10.2-2.4 10.6 5.6.3 3.1.1 6.2.1 8.2M198.6 874.3c5.9 2.7 11.6 4.6 16.3 7.8 4.1 2.7 4 6.7-1 8.9-7.1 3.2-14.1 6.6-21.6 9.1-8.8 2.9-16.4-.4-22.6-6.9-2.7-2.9-3.6-6.5.7-8.3 9.1-3.7 18.4-7 28.2-10.6M770.1 923.4c-.8-10.1 3.7-17 12.4-21.6 4.8-2.6 8.2-2 8.6 4.2.6 8.3 2.1 16.7.8 24.8-.8 5.6-4.9 11.3-9 15.7-5.1 5.4-9.5 3.6-10.7-3.7-1-6.5-1.4-13-2.1-19.4M87.9 294.4c-.2 1.4.2 3.2-.5 4.4-1.9 3.5-4.2 6.7-6.3 10.1-2.9-2.3-6.3-4.2-8.6-6.9-3.6-4.1-6.7-8.6-9.6-13.2-5-7.8-4.7-18.4 1.2-24.7 1.5-1.6 6.8-2.6 7.4-1.7 7.2 9.6 16.4 18.4 16.4 32M534.3 39.3c-3.8-1.5-8.1-2-9.9-4.4-1.1-1.5.9-6.2 2.5-8.9 3.5-5.8 6.5-12.5 11.6-16.4 5.4-4.1 12.8-6 19.6-7.7 3.6-.9 7.3 2.2 5.1 6.3-4.8 8.9-10.1 17.6-16.2 25.5-2.6 3.1-8.3 3.8-12.7 5.6M910 824.8c-.1 1.8.4 4-.4 5.4-2.8 4.7-6 9.1-9.1 13.6-2.8-3.4-5.9-6.6-8.2-10.4-2.5-4.2-4.6-8.8-6.3-13.5-3.3-8.9-.8-18.7 6.3-23.9 1.6-1.2 6.9-.8 7.4.3 4.3 9 8 18.4 11.8 27.6-.4.4-1 .7-1.5.9M37.9 670c4.1.8 12.2.8 18.7 4 6 3 11.1 8.9 15 14.7 2.9 4.3 0 8.2-5.7 7.7-8-.8-16.1-1.4-23.9-3.1-7.5-1.5-11.8-7.2-14.2-14.2-2.6-7.5-1.2-9.4 10.1-9.1M42.6 446.8c-.9 2.3-1.5 6.8-3.7 7.8-2.1 1-6.3-1-8.9-2.6-5.1-3.2-10-6.6-14.5-10.4-7.4-6-10.2-15.5-6.6-23.9.8-2 5.6-4.5 6.5-3.9 9.9 6.8 21.6 12.2 25.5 25.1.7 2.2 1 4.5 1.7 7.9M139.6 211.7c-2.9 6.1-4.7 11.4-7.7 16.1-2.5 4-6.5 3.6-8.6-.7-3.8-7.7-7.7-15.3-10.4-23.4-2.7-8.2.7-15.5 7.1-20.9 1.4-1.3 6.9-.9 7.4.3 4.4 9.3 8.1 18.9 12.2 28.6M706 40.3c2.7.2 4.5-.1 5.8.5 3 1.4 7.2 2.6 8 4.9.7 2-2.2 5.9-4.3 8.1-4.1 4.3-8.7 8.2-13.5 11.8-7.4 5.8-17.3 6.4-24.8 1.2-1.8-1.2-3.6-5.9-2.9-6.5 9.3-9 18-19.6 31.7-20M891 848.7c-2.8 5.9-4.7 11.5-8 16.3-3 4.4-7.2 4.3-9.5-1.1-3.1-7.4-6.3-14.9-8.5-22.6-2.3-7.8 1.9-17.8 8.8-21.7 1.7-.9 6.4-.2 6.9 1 3.8 9 6.9 18.3 10.3 28.1M456.2 1.1c8.3 1.6 9.6 3.2 7.2 10.1-2.4 6.8-4.8 13.7-8.2 20.1-3.9 7.2-10.5 11.4-18.8 12.4-4.2.5-7.2-1.5-5.8-5.7 3-9.3 5.7-19.1 10.7-27.4 2.7-4.4 9.8-6.3 14.9-9.5M370 51.4c2.1-8.6 3.6-17.4 6.4-25.7 2.9-8.3 10.2-11.6 18.5-12 1.8-.1 5.6 3.4 5.3 4.4-2.7 10.1-5.2 20.6-9.8 30-2 4.1-8.4 6.6-13.2 8.8-4.4 2-6.8-.6-7.2-5.5M150.7 831.8c8 .8 14.5 3.3 19.5 9.4 3.1 3.8 2.6 7.1-1.9 8.5-8.1 2.6-16.4 5.1-24.9 6.6-8.5 1.4-14.9-3.3-19.8-10.1-2.5-3.5-2.1-6.7 2.1-8 8.5-2.4 16.7-4.3 25-6.4M1.3 548.5c-.2-3.1.5-7.6 5.7-5.5 9.6 4.1 18.9 9.2 28.1 14.2 1.6.9 3.2 3.1 3.6 4.9.9 4.6 1.1 9.5 1.6 14.1-4.1-.4-8.4-.3-12.4-1.3-4.7-1.2-9.3-3.2-13.8-5.2C5.4 566 1.2 559 1.3 548.5M903.1 786.2c.2-1.5-.3-3.5.5-4.6 2.9-4.4 6.2-8.6 9.3-12.9 2.9 3.2 6.3 6.2 8.6 9.9 5.2 8.4 10 17.3 7.2 27.9-.6 2.2-1.4 4.5-2.5 6.6-4 7-7.8 7.2-11.8.2-4.7-8.5-8.8-17.4-13.1-26.1.7-.4 1.2-.7 1.8-1M913 241.7c-9.6.4-15.8-4.8-20.2-12.4-2.1-3.8-1.8-7.6 3.3-8.2 8.7-1 17.6-1.6 26.4-1.8 2.9-.1 6.6 1 8.6 3 3.7 3.6 6.5 8.1 9.6 12.3-4.1 1.7-8.1 3.8-12.4 4.9-4.9 1.1-10.1 1.4-15.3 2.2M977.4 720.3c-.2 2 .1 4.1-.7 5.6-1.4 2.9-2.8 7.1-5.2 7.8-1.9.7-5.8-2.2-8-4.4-4.3-4.5-8.1-9.5-11.8-14.4-5.8-7.8-5.2-16.2-.3-24 1.1-1.8 6.4-3.2 7.1-2.5 8.6 9.4 18.6 18 18.9 31.9M997.5 385.4c-5.5-1-13-1.9-20.3-3.9-8.9-2.6-13.6-9.4-14.5-18.4-.2-1.9 3.2-6.1 4.3-5.9 9.6 1.9 19.5 3.6 28.3 7.3 4.4 1.9 7.9 7.4 10.2 12.1 3.4 6.6 1.3 9-8 8.8M224 895.3c2 .2 4.5-.3 6.2.6 4.1 2.3 8 5.2 11.9 7.8-3.1 3-5.9 6.6-9.5 8.9-4.3 2.8-9.1 4.9-14 6.9-9 3.6-16.8 1.1-23.7-5.2-3-2.6-4.1-6.1.2-8.3 9.2-4.5 18.7-8.4 28-12.6.4.7.6 1.3.9 1.9M203 140c-.3 7.9-2.9 14.5-8.6 19.7-4.2 3.8-8 3.8-9.8-2.5-2-7.5-4.3-15-5.5-22.7-1.4-8.9 3.2-15.4 10.2-20.5 4.3-3.1 7.5-1.9 8.8 3.1 1.9 7.7 3.3 15.3 4.9 22.9M251 912.8c1.7.1 3.6-.3 4.8.3 4.1 2.3 8 4.9 12 7.5-2.9 3-5.3 6.5-8.6 8.9-4.4 3.2-9.2 5.8-14.1 8.2-8.5 4-16.2 1.9-23.3-3.6-3-2.4-4.8-5.9-.8-8.3 9.2-5.7 18.1-13.1 30-13M812.5 102.7c6.3 2.6 11.4 3.8 15.7 6.4 4.7 2.8 4.7 6.8-.3 9.6-6.6 3.6-13.3 7.2-20.2 10.1-8.1 3.4-18.3.9-23.5-5.7-1.3-1.6-1-6.9 0-7.4 9.4-4.8 19.1-8.8 28.3-13M789.7 85.8c1.6.2 3.7-.2 5.2.7 3.6 2.1 6.9 4.8 10.4 7.2-2.6 2.9-4.9 6.2-8 8.4-4.4 3.2-9.2 5.9-14.1 8.3-8.5 4.1-18.5 2.5-24.4-4.1-1.4-1.5-1.8-6.4-.8-7 9.6-6.1 18.9-13.8 31.7-13.5M398.6 45.7c4-11.3 7-20.9 10.9-30.2 1-2.6 4.3-4.9 7-5.8 4.6-1.3 9.5-1.3 14.2-1.8-.2 4.2.4 8.5-.7 12.4-1.9 6.4-3.6 13.5-7.7 18.5-3.7 4.7-10.1 7.6-15.7 10.3-1.5.9-4.8-1.8-8-3.4M83 758.1c11.1-1.8 21.5-.5 28.8 9 1.6 2 3.1 5.6 2.4 7.6-.7 1.8-4.4 3.2-6.9 3.5-6.4.9-12.9 1.3-19.5 1.6-9.5.5-15.7-4.4-20-12.4-3.2-6-1.8-8.7 5-9.4 3.4-.3 6.8.1 10.2.1M1023.8 474.6c-.8 6.2-3 8.7-8.6 6.6-7-2.6-14.2-5-21.1-8.2-8.1-3.8-12.9-12.7-11.3-21.2.4-2 4.7-5.4 5.6-4.9 9.6 4.4 19.3 8.8 27.9 14.7 3.8 2.4 5.2 8.4 7.5 13M658.7 59.8c-1.5-.1-3.3.2-4.7-.4-3.2-1.4-7.8-2.6-8.8-5.2-.8-2 2.3-6.2 4.5-8.7 3.8-4.2 7.9-8.7 12.7-11.4 5-2.8 11-4.7 16.7-5.1 3.5-.3 7.3 2.9 10.9 4.5-1.9 3.2-3.3 6.8-5.7 9.6-3.1 3.8-6.5 7.6-10.5 10.4-4.5 3.2-9.6 5.2-14.5 7.8-.1-.5-.4-1-.6-1.5M338.2 43c-.7 4.4-.5 12.4-3.5 19.1-2.6 6-8 11.2-13.3 15.2-4.1 3.2-8.8 1.8-8.5-5 .4-7.8.8-15.6 1.9-23.3 1.2-8.4 7-13 14.5-15.8 6.8-2.3 9-.5 8.9 9.8M229.8 97.2c-.4-9.7 4.2-16.4 12.5-20.8 4.8-2.6 8.2-1.7 8.7 4.2.6 8.3 1.3 16.5 1 24.8-.2 3.7-1.8 7.9-4.2 10.6-3.1 3.3-7.8 5.2-11.8 7.8-1.4-3.9-3.3-7.8-4.2-11.8-1-4.9-1.4-9.9-2-14.8M410 1013.5c-3.2-.4-5.3-.4-7.4-.9-7-1.7-8.4-4.8-3.9-10.3 4.7-5.9 9.4-11.8 14.9-16.9 5.8-5.4 13.4-7.3 21.1-4.9 1.9.6 4.6 5.5 4 6.1-6.3 8.4-13 16.7-20.3 24.3-2 2-6.2 2-8.4 2.6M55.6 383.9c-1.7 3.6-2.5 8.4-5.3 10.4-1.4 1-6.8-2-9.6-4.3-4.5-3.5-8.5-7.7-12.4-11.8-6.8-7.1-7-15.3-3.4-23.8.8-1.9 4.4-4.1 6.2-3.8 9.2 2.3 23.4 22.7 24.5 33.3M82.7 751.8c-13.3 1.5-23.9.1-29.7-12.3-3.3-7.1-1.8-9.9 5.8-9.8 8 .2 16.3-.3 23.9 1.8 5.4 1.5 10.7 6.2 14.4 10.8 4.4 5.5 2.2 9.1-4.8 9.5-3.9.2-7.5 0-9.6 0M955.3 294.6c-16.3 1.5-23.9-2-28.8-12.7-3-6.6-1.4-9.4 5.7-9.3 8 .1 16.4-.5 23.9 1.7 5.7 1.7 11 6.6 14.9 11.3 4.1 5 1.8 8.6-4.8 8.9-3.6.3-7.2.1-10.9.1"/>
  <path d="M523.7 655.2c.1 0 0 0 0 0zm283-40.2c-9.2-34.9-19.1-69.7-28.5-104.6-7.7-28.6-13.5-57.9-23-85.9-12.4-36.7-27.3-72.6-41.7-108.6-5.9-14.8-15.3-27.2-30.2-34.5-21.5-10.6-45.4 1.7-49 25.3-2.1 13.4-3.4 27-6.5 40.1-4.5 19.1-15.1 34.8-31.6 45.9-6.9 4.6-13.5.6-14-7.6-.2-3-1.4-5.9-2.2-8.9-8.2-29.3-16.3-58.7-24.4-88-1.5-5.4 1.1-7.7 6.4-8 2.9-.2 5.6-1.1 10.7-2.1-4.2-3.1-6.2-4.9-8.5-6.4-8.2-5.5-16.7-10.6-24.7-16.4-9.1-6.6-17.8-13.7-26.6-20.6-4.9-3.8-9.9-4.7-16.1-3.5-3.6.7-7.7-.8-11.4-2-6.9-2.3-13.4-6.4-20.4-7.2-16-1.7-25 10.9-18.7 24.1 4.4-.7 8.7-1.4 15.4-2.5-7.6 10.1-3.7 16.7 1.8 22.7 3.8 4.3 8 8.3 12.2 12.2 11.4 10.7 13.5 23.9 5.2 37.3-3.7 5.9-8.7 11.1-13 16.6-9.2 11.7-18.6 23.1-27.1 35.3-3.1 4.4-3.5 10.6-5.4 15.9-1.3 3.7-3 7.3-4.5 11-1-.2-1.9-.4-2.9-.6-.8-2.3-1.5-4.6-2.3-6.9-9.9-28.8-19.5-57.7-29.8-86.3-4-11.1-13.4-17.1-24.3-20.4-15.5-4.7-34.6 1.3-44.5 15.2-7.3 10.1-13.2 21.2-18.8 32.4-19.3 38.7-29.8 80.4-42.3 121.5-14.2 46.5-28.2 93.1-42.4 139.6-1.7 5.7-4.4 11.1-5.9 16.9-.8 3.2.1 6.8.2 10.2 3.8-.3 7.6-.4 11.3-1.2 1.8-.5 3.5-2.2 5-3.6 5.2-5 8.4-13 17.8-11.5.9.1 2-1.6 3.1-2.3 9.1-5.4 18.3-10.9 27.4-16.3.2-.1.5-.2.7-.3 4.2-2.8 8.9-4.9 12.3-8.4 5.5-5.7 9.3-12.9 17.8-15.6 2.7-.9 4.3-4.9 6.7-7.3 3.1-3.1 6.1-6.4 9.6-8.8 7-4.7 14.1-9.1 21.4-13.3 2.7-1.5 5.9-2.8 8.9-3.1 15.3-1.5 28.2 7.4 42.6 10.2.9.2 1.9.8 2.7 1.4 4.2 3 8.3 6 13.8 10 .8 3.3 3.2 8.5 3 13.7-.5 14.9-2.2 29.7-3.2 44.6-.2 1.8.5 3.7 1 5.4 1.4 4.6 3.3 9.1 4.1 13.8 2.4 13.2 4.4 26.4 6.3 39.7.4 3 .1 6.3-.5 9.3-.9 4.9-2.9 9.5-9 8.7-5.6-.7-12.2 0-13.1-8.9-1.1-11.3-7.5-20.1-15.4-29-2.3 7.1-4.4 13.4-5.8 17.6-5.8-9.5-12.6-20.4-19.3-31.2-.8.3-1.5.5-2.3.8-.6 4.4-1.2 8.7-1.9 13.6-7.1-8-12-17.3-23.7-19.9 2.7 7.2 5.1 13.4 7.7 20.1-15.1-5.3-9.4-20.6-16.8-31.4-3.9 8.7-7 15.8-10.3 23.2-6.5-8.1-10.8-19.2-25.1-16.7 1.9 5.7 3.6 10.7 4.7 13.9-9.9-4.2-20.4-8.6-30.9-13-.7.6-1.4 1.2-2.2 1.8 3.6 9.1 7.1 18.3 10.7 27.4-3.4 1.6-7.4 3.3-11.6 5.2 5 12.9 15.7 12 26.1 12.2-2 3.3-3.7 6-6.4 10.3 8.8 2.3 16.2 4.4 23.9 6.4-2.4 3.6-5.1 7.6-8.7 13.1h24.4c-2.8 6.8-5.3 13.1-8.7 21.4 8.7-1.5 16.6-1.5 23-4.6 7.6-3.7 14.2-4.4 21.9-1.2-1.1 3.3-2.2 6.7-3.9 12 6-2.4 10.6-4.3 12.9-5.2 6.1 4.1 10.8 8.5 16.4 10.6 3.3 1.2 6.2 1.3 8.5 4.9 1.7 2.6 5.6 3.7 7.7 5 6.6-8.3 2.9-19.2 14.3-26.3.5 6.3 1.8 10.8.9 14.7-3.7 15.4 1 22 16.4 21.7 4.2 10.6 9.2 12.8 20.7 9.3 7.3 9.7 9.8 10.3 20.1 5.3 9.6 8.9 12.8 9.3 22.6 2.9 4.6 6.4 9.6 7.8 14.4.3 11.9 6 13.6 5.9 20.2-.6 3.3.7 6.2 2.1 8.9 1.8 5.9-.6 11.8-1.5 17.5-3.1 8-2.3 16.4-4.4 23.3-8.6 4.2-2.6 5.1-10.7 9.3-13.5 4.4-3 11.3-2 16.7-3.8 3.1-1 5.8-6.2 8.2-5.9 8 1 10.8-3.4 12.9-10.3 9.4 4.8 18.3 9.4 27.8 14.2-3.3 3.7-6.3 7.1-10 11.3 14 .9 26.3 1.6 40.3 2.5-8.2-10.9-15.2-20.1-22.7-30-1.8 4.5-3.2 7.9-4.8 11.9-8.7-4.3-16.8-8.5-25-12.3-5-2.3-7.2-5.7-6-11.6h41.3c-.6 3.9-1.1 7.6-1.8 12.4 13.5-4.7 26.1-9 40.4-14-13.4-6.5-25.2-12.3-37.9-18.5v15.2c-13.7 0-27 .3-40.2-.2-4-.2-8-2.5-12-3.9l.3-2.7c10.4-6.1 20.9-12.2 31.7-18.5 1.8 4.2 3.3 7.7 5.2 12.1 8.7-11.4 16.9-22.1 26.2-34.3-15.1 2-28.1 3.7-42 5.6 2.9 4.6 5.3 8.4 7.9 12.5-11 6.5-21.4 12.4-31.7 18.6-4.7 2.9-7.1 1.3-8.6-3.5-2.3-7.2-5-14.3-7.2-21.5-.6-1.9-1.2-4.8-.2-6 7.3-8.7 2.6-17.1.3-25.8-1.2-4.5-.7-9.6-.2-14.4.5-4.5 2.1-8.9 2.8-13.4.5-3.3-.5-7.1.8-10 3.9-8.7 2-16.9-.5-25.2-1.8-6-3.5-12-5.5-17.9-1.7-4.8-.2-7.6 4.1-10.3 5.6-3.5 11.8-6.9 15.8-11.9 7-8.8 15.8-14.6 25.7-19.2 1.8-.9 4-1.2 6.1-1.4 4.2-.5 8.3-.7 13-1.1 2.4 9.4 11.5 5 18.4 6.1.5 1.7 1 3.2 1.4 4.7 2.2 8.7 3.9 19.1 12.9 22 9.4 3 11 9.5 13.6 16.6 2 5.6 4.2 11.3 7.1 16.5 1.5 2.8 4.5 6.5 7 6.6 7.7.4 10.5 5.5 13.7 10.9 1.7 3 4 5.5 5.9 8.3 3.6 5.2 8.1 6.9 14.2 4.7 1.9-.7 4.8-.8 6.4.2 9 5.7 17.3 12.5 26.6 17.4 4.1 2.2 10.5 1.9 15.1.3 1.9-.7 3.1-8 2.1-11.6zm-140 118.2c2.9 3.8 6 7.9 10.2 13.6-7.2-.7-12.5-1.1-17.3-1.5 2.4-4.1 4.6-7.9 7.1-12.1zm8.5-35.7c6.8 3.2 12.7 6.1 20.7 10-8.1 2.7-14.3 4.9-20.7 7.1v-17.1zm-4.3-34c-5.5 7.2-9.6 12.4-13.8 18-2.9-4.9-5.4-9.4-8.5-14.7 7-1.1 13.7-2.1 22.3-3.3zm-179-354.7c7.1-23.9-14-31.8-24.5-48.8 6.3 1.3 12.4 2.6 18.7 3.8-9.5-11.8-15.8-26.8-33.2-27.7 4.3-12.4 14.2-7.5 23.3-4 5 2 9.4 5.2 15 5.5 8.3.5 8.3-4.3 15.6.2 7.5 4.7 10.4 15.7 18.3 20.7 8 5.1 19.3 10.8 28.1 14.7-14.5 4.3 12.6 84.4 14.3 97.7-4.7-6.4-9.6-12.8-14.4-19.3-1.4 4.6-3.1 9.6-5.2 16.3-2.5-4.6-4.3-8-7-13.1-1.6 7.2-2.9 13-4.1 18.8-.3.1-.8.2-1.1.3-1.3-5.7-2.5-11.4-3.9-17.5-1.6.3-3.2.6-4.9.9-.9-3.2-1.7-6.2-2.8-10.1-3 3.8-5.8 7.1-8.4 10.4-.8-.1-1.7-.3-2.5-.3-.8-14-.1-28-5.1-41.3-3.4 15.3 5 30.3-6.9 42.4-.8-1-1.9-2.2-3.2-3.8-2.1 2.2-4.1 4.3-6.9 7.3-.7-3.4-1.3-6.2-2.1-10.4-5.2 5.9-9.6 10.8-15 16.7-.5-3.8-.8-6.2-1.4-9.3-7.9 4.3-15.5 8.6-23 12.8-.8-.3-1.3-.5-1.9-.8 13.5-18 37.6-40.3 44.2-62.1zm52.5 89.9c-1 .6-1.9 1.2-3 1.8-5.4-4.3-10.9-8.7-16.3-13 .7-.6 1.3-1.4 1.9-2.1 4.1 3.3 8 6.6 13.4 11 .8-4.7 1.4-7.8 1.9-10.9.4 0 .8-.1 1.3-.1.2 4.4.5 8.9.8 13.3zM493.9 381c-5.1 8.1-8.6 16.4-19.1 20.9-.7-4.2-1.2-6.8-1.7-10.1 13.3 7 12.5-8.5 20.8-10.8zm-96.2-40.2h1.1c.2 3.5.3 7.1.5 11.3 2.1-.7 3.8-1.3 7.4-2.5-3 4-4.9 6.6-6.8 9.1-.8-.2-1.5-.3-2.3-.5l.1-17.4zm.9 115.9c1 2.8 1.9 5.6 3.3 9.4 2.5-2 4.2-3.2 5.9-4.6.3.2.6.3.9.4-2 3.4-4.1 6.9-6.2 10.3-.9-.1-1.9-.3-2.8-.3-.9-4.9-1.8-10-2.7-14.9.6-.1 1.1-.2 1.6-.3zm-1.6-46.2c-4.9 3.3-8.5 5.8-12.1 8.2-.8-.3-1.7-.8-2.5-1.1.8-7.1 1.5-14.2 2.3-21.3 2.2 15.2 2.2 15.2 12.3 14.2zM378.6 439c.3-.1.6-.2.8-.3 1.1 3.8 2.2 7.8 3.5 12.3 3-1.2 5.2-2 7.5-3 .3.3.6.8.9 1.1-3.4 3.1-6.9 6.1-10.2 9.2-.8-.5-1.7-.9-2.5-1.4V439zm-1.6-74.7c3 16.6 3 16.6 14.4 16.6-17.2 4.2-19.5 1.3-14.4-16.6zm10.5-36.4c2.8-1.4 4.5-2.3 6.2-3.2.3.3.7.4 1 .7-8.5 12.1-13.4 3.3-9.8-9.6.9 3.7 1.7 7.4 2.6 12.1zm-13.7-31.6h1.4c.2 3.2.4 6.4.7 11 3.2-1.9 5.2-3.1 7.2-4.2.3.3.7.7.9 1.1-3.1 2.8-6.3 5.5-9.4 8.4-.8-.5-1.5-.9-2.3-1.4.5-5 1-9.9 1.5-14.9zm1 106.3c.3.2.5.3.7.5-3.8 3.6-7.5 7.2-11.3 10.8-.8-.5-1.6-1.1-2.5-1.6l6-17.7c.4.1.8.1 1.3.1-.3 3.2-.7 6.5-1.1 10.6 2.8-1.2 4.8-1.9 6.9-2.7zm-34.1 9.7c.8-7.6 1.4-14.1 2.2-20.6.5 0 1.1.1 1.6.1.4 3.9.8 7.9 1.5 14 5.8-4.3 10.3-7.7 14.9-11-4.6 7.5-8.8 15.3-20.2 17.5zm9.3 23.5c-4.1 6.6-8 13.4-18.9 14.4 1.4-8.9 2.5-16.4 3.7-24.1.6.1 1 .2 1.5.3.3 5.5.6 11.1.9 18.6 5.6-4 9.2-6.6 12.8-9.2zm8.4-2.4c.4.1.8.2 1.4.3-.3 2.8-.5 5.7-.8 10 3.8-1.9 6.5-3.3 9.2-4.7.3.3.5.6.8.9-4.5 4-9.1 7.9-13.5 11.9-.8-.4-1.6-.9-2.4-1.4 1.7-5.6 3.5-11.3 5.3-17zm-1.9-140.5c.5 2.5 1 4.9 1.8 8.2 3-2 5.2-3.5 7.4-4.9.4.6.9 1.1 1.4 1.7-3.3 2.4-6.7 4.8-10 7.2-.9-3.9-1.8-7.8-2.7-11.8.6-.1 1.4-.3 2.1-.4zm-1.3 34.6c.5 0 1-.1 1.5-.1 0 14.7-6.3 33.6 12.8 31.4-4.3 3.1-8.6 6.1-13 9.1-1.1-.6-2.2-1.1-3.3-1.6.7-13 1.4-25.9 2-38.8zm-20.6-3c1.1 8.7 2.1 17.4 3.2 26.9 3.8-1 5.8-1.5 9.8-2.6-3.6 4.8-6.1 8.2-9.6 12.8-7.2-12.9-3.6-25.1-3.4-37.1zm-6.9 71.3c2.6-2 5.2-4 7.9-6.1.3.2.7.3.9.6-3.1 4.9-6.3 9.8-10.3 16.1-8.1-11.6-4.5-22.3-2.8-32.9l1.8 21.6c.7.3 1.6.6 2.5.7zm-.5 34.8c-3.7 4.3-7.4 8.5-11.8 13.6-7.1-11.1-2.9-21.2-1.4-31.4.6 7.3 1.1 14.6 1.8 23.6 4.7-3 7.6-4.9 10.5-6.6.3.2.6.6.9.8zm-12-98.2c3.9 3.9-3.6 14.4 9.5 13.6-1.6 2.8-3.1 5.4-5.1 8.7-6.6-7.3-6-14.6-4.4-22.3zM302.7 366c1.4 4.9 2.5 8.9 3.6 12.8.8.3 1.5.6 2.3.9 1.9-3.1 3.9-6.1 5.8-9.2.6.7 1.2 1.4 1.9 2-2.9 5-5.8 10.1-9.1 16-6.8-7-6.1-14.3-4.5-22.5zm-7.6 41.6c1.4 5.2 2.6 9.6 4.4 16.2 3.4-5.7 5.8-9.6 8.1-13.6.4.1.8.2 1.4.3-1.7 7.2-3.3 14.4-5.2 22.5-10.3-7.6-12.4-14.1-8.7-25.4zM227 609.7c11.3-28.7 23.5-54.9 31.2-85.1 8.5-33.8 19.4-66.5 28.7-100 1.1.2 2.1.3 3.1.5-4 33-17.5 66.6-26.9 98.6-8.3 28.4-13.6 65.1-36.1 86zm22.4-11.9c10.1-25.1 19.7-48.2 26.2-74.5 6.3-25.5 9.9-57.8 23.7-80.3.8 30.4-36.1 144.3-49.9 154.8zm24.5-11.5c-1.4-.5-2.6-1-4-1.5 10.3-22 22.8-48.2 26.5-72.4 3-19.3 3.7-45.6 17.5-61.5.7.4 1.4.7 2 1-14.6 44.6-17.8 92.9-42 134.4zm14.2-11.3c16.1-39.6 27.2-78.7 38.8-119.7 5.8 18.1-9.5 48.5-14.7 66.6-4.1 14.2-7 47.2-24.1 53.1zm25.2-20.8c-.7-.3-1.4-.4-2.1-.7 6.5-15.9 12.5-31 16.9-47.7 4.2-15.9 4-33.2 12-47.1.9.3 1.8.7 2.6 1-9 31.8-8.2 66.6-29.4 94.5zm31.5-30.1c1-2.6 2.1-5.4 3.1-8.1-5.6 6.1-10.5 17.5-19.1 19 15.6-24.1 19.1-52.2 26.9-80.7 5 8.5-.7 19.9-2.1 28.7-1.9 11.3-2.5 21.6-5.7 33 1.4-5.3 3-10.7 4.4-16 11-12.3 8.1-30.4 18.6-43.7 3.2 15.9-10.4 60.7-26.1 67.8zm16.6-4.4c4.6-9.8 9.5-18.6 11.9-29.2 2.5-10.7 2.7-19.3 9.4-28.4 1.8 17.2-11.1 53-21.3 57.6zm13.1 3.4c6.3-17.4 12.4-34.2 18.9-52 4.5 11-8.6 46-18.9 52zm20.2 1.6c-.9-.3-1.8-.5-2.6-.9 4.6-14.9 9.1-29.8 13.7-44.7 1.1.3 2.2.7 3.3 1-1.7 15.8-6.5 30.7-14.4 44.6zm11.9 2.3c3.4-10 6.7-19.9 10.2-30.3 4.6 5.5-.4 22.7-10.2 30.3zm8.9 7.7c2.6-7.7 5.3-15.3 8.1-23.4 4.2 7.3 1.6 16.5-8.1 23.4zm10.3 74.6c-.8-.3-1.8-.7-2.6-1.1.3-4.3.8-8.6 1.1-12.9.3 0 .6-.1.8-.1.5 2.5.9 4.9 1.4 8.6 4.1-2.3 7.7-4.2 11.2-6.1l.8.8c-4.3 3.7-8.5 7.3-12.7 10.8zm13.5 31.8c1.7 10.3 15.6 14.7 28.3 9-6.1 19.3-34.8 6.7-33.5-11.1 1.1 2.6 1.9 4.6 3.2 7.6.9-2.4 1.5-3.8 2-5.5zm-.1-79.5c4.6 2 2.7 10.5 12.4 6.2-2.4 4-3.9 6.6-5.5 9.2-.8 0-1.6-.1-2.4-.1-1.5-5.1-2.9-10.2-4.5-15.3zm27.8 59.7l-9.6 10.5c-.8-.3-1.5-.4-2.3-.7-1.1-5.8-2.2-11.7-3.2-17.6 5.4 11.2 5.4 11.2 15.1 7.8zm-10.1-36.4c3.6 1.5 6.5 2.8 10.1 4.3-1.1 1.5-3 4.2-6 8.4-1.8-5.5-3-9.3-4.1-12.7zM396 652.4c3.4 8.4 6.3 15.9 9.6 23.9-4-.9-6.3-1.4-9.9-2.2-5.2-10.3-5.4-13.2.3-21.7zm-20.2 19.8c-2.6-10.1-5-19.2-7.4-28.2 10.6 7.4 13.2 15.9 7.4 28.2zm-6.6-1.4c-3-2.5-5.7-4.6-8.3-6.7-.3.5-.6 1-.8 1.5-3.5-9.7-6.9-19.5-10.7-30.2 10.7 10 17.1 21.3 19.8 35.4zm-39.3-45.1c2.8 8.6 5.5 16.9 8.3 25.4-11.3-3.4-13.8-11.1-8.3-25.4zm-26.6-2.2c3.9 6.5 7.8 13 11.7 19.4-.8.4-1.5.9-2.3 1.4-7.8-4.1-11.2-10.9-11.4-19.6.7-.4 1.4-.8 2-1.2zm-27.3 6.4c7.4 3.6 14.1 6.9 21 10.1-.2.5-.3 1-.5 1.4-2.6-.4-5.2-.9-7.9-1.3-.3.4-.5.9-.8 1.2 6 4.3 12 8.7 18.3 13.2-14.5 4.1-28.5-7.1-30.1-24.6zm19.4 47c-.1-.8-.2-1.5-.3-2.3 13.6-11.5 26.6-13.2 36.4-6.1-12.3 3.9-23.3 6.9-36.1 8.4zm17.4 14.7c10.8-12.4 19.2-19.2 32.8-17.7-3.6 2.3-6.5 4.2-9.5 6.1.1.3.2.4.3.7 3.5-.9 7-1.9 11.6-3.2-9.3 12.8-22.9 11.3-35.2 14.1zm14.3 18.9c4-4.2 7.6-8 11.3-11.8-.3-.4-.5-.8-.7-1.2-1.2.6-2.5 1.3-3.6 1.9 3.7-11.7 14.8-18.9 27.7-18.2-18.6 24.7-22.1 27.7-34.7 29.3zm27-3.2c-.3-.7-.8-1.4-1.1-2.2 7.9-19.3 14.5-23.8 26.1-19.4-8.2 9-14.5 15.3-25 21.6zm57.4-6.6c-9.1 5.6-13.8 16.4-12.7 26.8-6.6-10.1-4.9-17.2 6.8-31.2-10-2.9-14.5.7-25.8 20.5-2.8-18.2 13.3-29 29.3-29.4 6.8-.2 19.2 4.8 24.9.5 5.8-4.3 6.5-21.8 7.9-28.2 8 6.6 4.7 10 1.9 18.8-3.1 9.5-3.3 18-1.2 27.9-10.7-5.7-19.3-13.1-31.1-5.7zm14.7 42.4c-1 0-1.9-.2-2.9-.3.9-4.6 1.8-25.7 10.5-20.5-4.1 6.3-5.5 13.6-7.6 20.8zm21.3 2.1c.2.2.2.2 0 0-1.1 3.3-2 6.2-2.9 9-4.4-8.5-2.4-20.5 3.6-22.7.4 3.1.8 5.7 1.3 8.8.2 0 .2 0 0 0-.4.1-1.6.3-3.4.7 2 .8 3 1.1 4.9 1.9-2.1.5-3.6.9-5.4 1.3.9.5 1.6.9 1.9 1zm-24.6-34.4c-.1-.8-.2-1.6-.3-2.5 8.2-1.9 29.8 7.2 31.3 17.4-10.8-5.2-20.9-10.1-31-14.9zm35.9-7.5c-1.5 1.6-3.3 3.3-5.2 5.3 1.7.4 2.9.7 4.1 1 .1.3.2.6.2.9h-8.5c5.4-15.3 10.6-29.7 15.6-44.2.6.1 1.3.2 1.9.3-1.4 9.5-6.2 19.2-4.6 28.3.2 0-.6.1-.9.1-1.9 3.4-3 5.6-4.1 7.7.3.1 1.2.4 1.5.6zm17.5 8.2c-1.9.6-3.1.9-5.1 1.5 1.9.7 2.8 1 4.5 1.7-2.2.5-3.7.9-6.6 1.5 2.5.6 3.7.9 3.9.9-3.8 7.8-4.1 12.8-4.1 21.6h.2c.1 0 .1 0 0 0 0 0-.1 0-.2.1-.4.1-1.2.4-2.2.6 1.5.8 2.6 1.3 4.1 2-1.9.3-3.2.7-5.8 1.2 1.3.5 2.1.8 2.4.9.1.1.1.1 0 0-.8 5.7-1.7 11.2-2.8 18.3-8.5-30.1 9-66 17.5-94.6.8.3 1.7.5 2.5.8-2.5 9.5-3.6 32.6-10.7 39.3 1.6.3 2.8.7 5.2 1.2-2.8.4-4.5.6-8.3 1.2 2.8.9 3.6 1.2 5.5 1.8zm3.9-85.1c4.4 5.4 8 8.2 13.9 2.3-2.5 3.6-5.1 7.2-9.1 12.6-2.1-6.4-3.4-10.7-4.8-14.9zm12 96.2c-1.8.6-3 .9-5.3 1.6 2.1.6 3.3 1 4.1 1.2-2.9 3.6-7.1 17.6-1.2 20.9-1.7.3-3.4.8-6.7 1.4 3.2.7 4.8 1 5.7 1.1-6.5 4.4-2.8 10.7-3.8 17.1-10.9-27 4.4-65.3 11.9-92 2.3 16.7-4.7 31.6-7.4 47.7-.3 0 .9.4 2.7 1zm2.3-56.6c-2-4.2-4.1-8.4-6.2-12.6 4.8 4.3 9.1 7.2 14.7.7-1.9 4-3.6 7.9-5.5 11.8-1 0-2 .1-3 .1zm8.8 72.5c1.2.3 2.8.6 5.1 1.1-2 .6-3.2.9-5.4 1.6l3.6 1.2c-1.4 3.5-2.9 6.8-4.3 10.2 1.5.3 2.8.7 4.5 1.1-1.4.6-2.4.9-4 1.6 1.7.6 2.9 1 2.4.9-.6 2.9-1.1 5.5-1.6 8.2-.4.2-.8.4-1.3.6-6.5-25.1.5-57.8 5.5-83.1.9.2 1.8.3 2.7.4-2.4 18.6-4.7 37.2-7.2 56.2zm21.4 29.2c-.2-3.2-.3-5.4-.4-8.1.1 0-1.1-.3-.7-.3-.1-4.5 5.4-9.1-3.6-11.8 1.5-.3 2.8-.4 5-.8-1.3-.9-2-1.5-3-2.2 1.1-.4 2.1-.8 3.9-1.5-2.1-.7-3.6-1.1-5.8-1.7 2.3-.4 3.8-.7 4.1-.8.5-2.3.8-4.2 1.3-6.7 5.4 7.6 5 24.6-.8 33.9zm-6.9-85.9c1.1-.2 2.1-.3 3.2-.5 2.7 16.4 5.4 32.7 8 49.1-1.4.3-2.9.4-4.4.7-2.2-16.5-4.5-32.9-6.8-49.3zm14.9-13.4c-.8 0-1.6.1-2.4.1-2.1-4.5-4.2-8.9-6.3-13.3h-.2c-2.6 5.1-5.3 10.2-7.9 15.3-.8.1-1.6.2-2.5.3-2.7-5.8-5.4-11.5-8-17.3.4-.3.8-.5 1.2-.8 2.3 3.3 4.7 6.6 7.9 11.2 3.6-4.9 6.5-8.7 10.3-13.8-.6 2.7-.8 3.9-1.1 5.1l.1-.1h.1s0 .1.1.1c7.2-.7 6.1 9 15.2.8-2.2 4.1-4.4 8.3-6.5 12.4zm-25.4-33.5c3.7 1.4 7 2.6 10.8 4.2-.8 1.7-2.3 4.4-4.9 9.5-2.6-6.1-4.4-10.1-5.9-13.7zm31.1 6c-1 0-2 .1-3 .1-2.8-3.9-5.7-7.8-8.5-11.8.5-.3 1-.7 1.5-1.1 2.4 1.9 4.7 3.8 8.2 6.5 2.8-5 5.2-9.4 7.5-13.7.3.1.8.3 1.1.3-2.2 6.6-4.5 13.1-6.8 19.7zm32.9-25.9c.5 6.6-3.4 13.1-5.7 19.2-4.1-4.2-8.2-8.3-12.3-12.4 12.1 7 12.1 7 18-6.8zm-14.2-21.6c.3-.3.5-.7.8-1 1.8.9 3.6 1.8 5.7 2.8 1.4-2 2.8-3.8 4.1-5.6.4.2.8.3 1.2.4-1.2 3.8-2.4 7.8-3.5 11.6l-2.4.3c-2-2.9-3.9-5.7-5.9-8.5zm1.3 112.5c-6.3-10.1-6-9.9 3.6-17.7.6.8 1.3 1.7 1.9 2.6-2.7 1.8-5.3 3.5-8.2 5.5 1.6 2.7 3.2 5.5 4.9 8.2-.7.4-1.4.8-2.2 1.4zm9.8-1.8c-.5.5-1.1 1-1.6 1.5-2.2-3-4.4-6-6.9-9.3 3.2-1.2 6.9-2.6 10.6-4 .3.7.6 1.4.8 2.1-1.9 1.1-3.8 2.3-6 3.7 1.3 2.6 2.2 4.3 3.1 6zm11.8 48.4c-3-5.8-6.1-9.1-4.4-15.4 5.5 3.2 4.8 9.2 5.9 15.2-.5 0-1 .1-1.5.2zm-16.3-94.1c25-.7 28.3-2.8 30.9-17.3 6.9 19-20.6 34.7-30.9 17.3zm39 40.2c10.9 9.8 22 10.4 18.9 29-3.6-12-7.9-21-20-23.4-3.3 10.2 1.5 19.9 3.1 30.9-10.5-7.2-5.8-19-11.7-29.4-1.9 11.8-1.8 18.5 1.1 30.1-11.8-9.1-7.7-16.4-5.6-28.6 2.5-14.4-4.6-24.9-6.4-38.4 10.8-8.6 14.3 24.1 20.6 29.8zm-5.4-111.7c.7-4.8 1.3-9.5 2-15.3 1.3 6.5 2.4 12.3 4 20.5-4.3-2.5-6.3-3.7-8.3-4.9.8-.1 1.5-.2 2.3-.3zm-3.5-68.1c.8-.3 1.7-.4 2.5-.7l5.4 20.9c-6.5-1.6-9.5-9.9-7.9-20.2zm5.6-27.3c-8.2 26.6-20.2 52.6-38.5 73.8-10.4 12-35 39.6-52.4 36-9.3-1.9-23-15-30.3-21.1-10.6-8.9-20.1-19.1-28.2-30.3-29.5-40.5-42.2-93.9-27.6-142.3 16.7 0 34.2 1.7 50.7-1.8 6.1-1.3 12-3.3 17.6-5.9 6-2.7 14.7-11.6 21.3-11.7 5.6-.1 12.7 7 17.3 9.5 7.1 3.8 14.5 6.9 22.3 9.1 15.4 4.5 29.6 1.6 44.7 3.6 25.3 3.4 8.1 64.8 3.1 81.1zm6.5-1.7c3.2 14 4.5 28 8.2 41.8-7-2.6-13.4-27.8-8.2-41.8zm17.1 30c-6.6-13.2-7.2-27.4-8-41.5 1-.2 1.9-.4 3-.6 1.9 6.7 3.7 13.5 5.8 20.8-2.5 2 1.4 17.9 1.7 21.1-.9 0-1.7.1-2.5.2zm107.9-95c.1-.6.3-1.2.4-1.8.8-3.9 1.6-7.9 2.6-11.9 3.6 8.9 1.3 15.9-8.6 22.9l-.1.1c-1.9-7.5-3.7-14.5-5.5-21.6h.1v-.1c.3-.1.7-.2 1-.3 2.5 4.3 5 8.6 7.4 13 1-.1 1.8-.2 2.7-.3zm-5.2-56.2c.5.1 1 .1 1.6.2-.7 6.7-1.4 13.5-2.1 20.2-1.3.1-2.5.3-3.8.4-2.7-4.7-5.4-9.3-8-14 .4-.3.8-.5 1.3-.8 2.4 2.1 4.7 4.3 8.8 7.9.8-5.8 1.5-9.8 2.2-13.9zm-22.6 65.7c10.8 0 10.6-.3 13-10.8.2 0 .4.1.6.1.3 0 .6.1 1 .2-.6 6.9-1.1 13.7-1.7 20.6-1 .3-2 .4-3 .7-3.5-3.8-6.9-7.6-9.9-10.8zm11.8-100.2c-.8 7.1-1.8 14.1-2.6 21.1-1 .2-2 .3-3 .3-1.7-2.6-3.4-5.1-5.4-8.1 6.7.3 6.7.3 11-13.3zm-12.1 65.1c1.3-6.2 2.2-11 3.1-15.7.8.1 1.5.2 2.3.3-.8 7.6-1.6 15.1-2.5 22.7l-3.6.6c-3.5-5.3-7-10.6-10.5-15.8.3-.3.7-.5 1.1-.8 2.9 2.6 5.8 5 10.1 8.7zm-8.6-74.8c.4 12.4 3.7 25.1-3.2 39.1-3.6-4.7-6.3-8.2-9.6-12.4 16.2 2.5 11.9-14.4 12.8-26.7zm-25.5-32.7c5.3 4.1 9.5 5.1 9.6-3.7.8.5 1.4.9 2.2 1.4-.9 3.8-1.9 7.4-2.8 11.2-3.1-2.1-6.3-4.3-9.4-6.4.1-.9.3-1.8.4-2.5zm2.5 71.9V331c.7 0 1.4 0 2.2-.1.8 12.2 1.6 24.5 2.5 36.6-1 .7-1.9 1.3-2.9 1.9-4.6-2.8-9.1-5.7-13.7-8.5.3-.6.7-1.3 1.1-1.9 3.1 1.3 6.3 2.6 10.8 4.6zm-17.6 40.8c2.1.5 4.2 1 7.3 1.8-.3-3.7-.7-6.6-.9-9.6.3-.2.6-.3.9-.4 2.1 5.6 4.2 11.3 6.3 16.9l-2 2c-4.1-3.2-8.2-6.5-12.3-9.6.2-.5.4-.7.7-1.1zm-1.3-18.2c-4-1.3-8-2.6-11.8-3.8 9.7-.3 9.7-.3 12.1-15.3 1.7 7.3.7 11.7-.3 19.1zm.1-86.9c1.9.9 3.8 1.8 6.4 3 .3-3.8.7-7.1.9-10.2.4-.1.8-.1 1.3-.2.6 4.9 1.2 9.7 1.8 14.6-.8.5-1.8 1-2.6 1.5-2.9-2.5-5.8-4.9-8.5-7.4.2-.5.5-.9.7-1.3zm-4.3 25.2c.8-4.6 1.5-8.3 2.2-11.9h1.1c0 7.2.3 11.3-3.5 17.5-6-4-6.3-5.3-9.4-11.4 3.7 2.1 6.2 3.6 9.6 5.8zm-11.2 26.4c1.9 1 3.7 2.1 6.7 3.8.3-4.5.6-7.9.8-11.3h.9V360c-.7.3-1.4.6-2 .9l-7.2-9c.3-.4.5-.7.8-1zm-5 59.7c2.7 1 5.4 1.9 9.5 3.2.8-4.4 1.4-7.9 1.9-11.3.5 0 1 0 1.6-.1.4 5.6.9 11.2 1.4 16.8-.8.3-1.7.8-2.5 1.1-4.1-2.9-8.2-5.7-12.4-8.6.2-.3.4-.7.5-1.1zm-3.1 67.2c.8-.2 1.6-.3 2.4-.6 2 3.2 4 6.3 6 9.4-5.9 1.1 1.4 21.5 1.5 26.5-9.5-10.3-8.7-23.1-9.9-35.3zm6.9-28.6v-.1c.2-.4.5-.8.8-1.2 2.8 1.5 5.5 3.1 9.3 5.2 1.3-3.8 2.5-7.1 3.7-10.5.6.2 1.3.3 1.9.4l-1.5 15.9c-.8.3-1.4.8-2.2 1.1l-12-10.8zm9.1 16.2l2.4-.6c4.6 15.6 4.7 30 8 45.4-10.6-13.4-9.7-29.2-10.4-44.8zm14-24.9c.4-.5.7-.9 1.1-1.3 1 .7 1.9 1.4 3 2.1 2.2 1.5 4.6 3.3 7.8 5.5-.7-5-1.1-8.3-1.6-11.5.3-.1.6-.1.9-.2.1 0 .2-.1.3-.1 1.9 5.5 3.8 11.1 5.7 16.7v.1c-.8.6-1.5 1.2-2.3 1.9-2.3-2-4.6-4.1-6.9-6.1-.7-.6-1.3-1.2-2-1.8-2-1.8-4-3.5-6-5.3zm4.1 18.7c.7-.3 1.4-.7 1.9-.9 5.8 9 1 28.8 9 34.9-1.6 7.7 1.7 13.7 2.8 20.9-12.1-14.6-13.1-36.6-13.7-54.9zm4.9-62.8c4.5 3.4 9.1 6.7 13.5 10.1.7-.6 1.4-1 2-1.5v-16.6c.4-.1.8-.2 1.2-.2 1.3 8.1 2.6 16.3 4.1 25.7-11.8-2.1-16.2-10-20.8-17.5zm10.9 41.1c3.6 2.5 7.3 4.9 12.8 8.7.5-7.7.9-13.4 1.3-19.1h.4c.2 0 .3-.1.5-.1 1.3 7.8 2.5 15.8 3.9 24.5h-.1c-10.8-.2-14.4-7.7-18.8-14-.1 0 0 .1 0 0 0 .1 0 0 0 0zm.2 20.2c.8-.3 1.7-.6 2.5-.9 7.1 27.7 8.9 56 17.1 83.5-10.5-7.9-21.8-57.4-19.6-82.6zm47.9 125.7c-13.6-17.7-17.6-41.9-21.7-63.7-2.5-13.6-15.8-52.3-8-64.3 8.1 20.8 8.5 41.8 12.6 63.6 4.1 21.9 10 42.3 17.8 63.1-.2.5-.4.9-.7 1.3zm-1.3-52.7c-5.7-25.9-15.3-55.7-15.3-82.2.7-.2 1.4-.4 2-.7 9.6 26.9 14.4 56.1 19.5 84.1 2.5 13.7 3 28.2 8.5 41.1 5.2 12.4 8.8 22.2 11.8 35.5-15.3-23.2-20.7-50.9-26.5-77.8zm15.6-1.7c-7.1-28.6-17.1-59-19.3-88.4.8-.1 1.5-.3 2.3-.4 10.1 29.5 14.6 60.2 22.3 90.3 4.1 15.9 6.5 32.7 12.9 47.9 4.6 11 11.1 21.8 11.7 34.3-16.8-23.8-23-55.6-29.9-83.7zm48.7 84.4c-.4 2.5-.7 4.4-1.4 8.8-17.2-26.1-23.9-58.9-31.6-89-8.3-32.5-18.3-65.4-23.2-98.5.8-.3 1.6-.6 2.5-.9 1.9 3.8 3.9 7.6 5.8 11.3.8-.3 1.5-.5 2.3-.8-1.1-8.5-2.2-17-3.2-25.6 1.1-.2 2.2-.3 3.2-.4 6.9 32.2 17.8 63.8 23.9 95.8 3 15.4 6.5 30.6 11 45.8.8 2.9 5.2 36.4 11.4 36.1 3.7 9.4 7.2 18.2 11.7 29.5-4.9-4.8-8.3-8.1-12.4-12.1z"/>
  <path d="M504.8 246.8c6.8 5.7 13.3 11.1 20.1 16.9-10.8 6.7-27.9-3.7-20.1-16.9M484.8 343.7c-1.4-1.6-2.6-3.2-4.1-5 2.5-3.6 5.2-7.2 7.8-10.9 3.1 8.5 3.1 8.5-3.7 15.9M761.5 532.1c-1.4-6.8-3.5-13.2-2.4-20.1 5.4 5.3 5.8 14 7.7 21.1-3.2-.6-4.8-.9-5.3-1M776.5 574.7c4.7 12.8 4.7 12.8-.9 15.5 2-4.8-5.6-9.6.9-15.5M119.9 682.8l1.5 3.1c-2.6 1.6-4.3 3.2-5.1 4.8s-1.1 2.9-.9 4.1.7 2.5 1.4 3.9l2.8 5.5 32-16.2c1.3-.6 2.2-1.3 2.8-1.9.6-.6.8-1.5.7-2.6s-.6-2.6-1.5-4.4l3-1.5 11.1 21.9-3 1.5c-1.4-2.7-2.6-4.2-3.8-4.6s-2.7-.1-4.6.9l-32 16.2 2.3 4.6c.9 1.8 1.8 3.3 2.7 4.3s2.2 1.7 4 2 4-.2 6.8-1.5l1.5 3.1-12.4 6.3-21.7-43.3 12.4-6.2zm12.3-69.8l7.9 22.7-3.1 1.1c-.6-1.9-1.3-3.2-2.1-4-.7-.8-1.5-1.2-2.4-1.2s-1.9.2-3.2.6l-13.9 4.8 7.4 21.4 13.9-4.8c1.9-.7 3.2-1.5 3.7-2.6.6-1.1.4-3.1-.6-5.9l3.1-1.1 7.9 22.9-3.1 1.1c-.6-1.8-1.3-3.2-2.1-4-.7-.8-1.5-1.2-2.4-1.3-.9 0-1.9.2-3.2.6l-29 10c-1.3.4-2.3.9-2.9 1.5-.6.5-1 1.3-1.1 2.4-.1 1.1.2 2.6.8 4.5l-3.1 1.1-8-22.8 3.1-1.1c1 2.8 2 4.5 3.1 5s2.7.4 4.6-.2l11.4-3.9-7.4-21.4-11.4 3.9c-1.3.4-2.3.9-2.9 1.4-.7.5-1 1.3-1.1 2.4-.1 1.1.2 2.6.8 4.6l-3.1 1.1-7.8-22.9 3.1-1.1c.7 1.9 1.4 3.3 2.1 4.1.8.8 1.5 1.2 2.4 1.2.8 0 1.9-.2 3.2-.7l29-10c1.2-.4 2.2-.9 2.9-1.4.7-.5 1-1.3 1.2-2.4.1-1.1-.1-2.6-.8-4.6l3.1-1z"/>
  <path d="M108.1 573.4l15.8-2.8 8.8 42.7-3.2.7c-.6-2.9-1.4-4.8-2.4-5.4-1-.7-2.6-.8-4.6-.4l-30.1 6.2c-1.4.3-2.4.6-3.1 1.1-.7.4-1.2 1.2-1.4 2.3-.2 1.1-.1 2.7.3 4.8l-3.2.7-8.2-39.7 12.3-3.2.7 3.2c-2.6 1.3-4.4 2.5-5.4 3.7s-1.5 2.4-1.5 3.7c0 1.2.2 3.1.7 5.4l1.8 9 16.9-3.5-1-4.9c-.3-1.7-.7-2.9-1.2-3.7s-1.1-1.2-2-1.4-2.2-.1-4 .1l-.7-3.4 15.9-3.3.7 3.3c-1.7.5-3 1-3.8 1.5s-1.2 1.3-1.3 2.1c-.1.9 0 2.1.3 3.8l1 4.9 11.3-2.3c1.9-.4 3.3-.7 4.1-1 .9-.3 1.5-.7 2-1.2s.8-1.3.8-2.3c.1-1-.1-2.3-.4-4.1l-.8-3.8c-.3-1.6-.9-3.1-1.6-4.5s-2.1-2.6-4.1-3.7c-2-1.1-4.9-1.5-8.6-1.3l-.8-3.3zm-8-73.7c.2 1.4.5 2.4.8 3.1s.9 1.2 1.6 1.4c.7.2 1.9.3 3.4.3l11.5-.4c.1 3.5.7 7.2 1.8 11.3.8 2.9 1.3 5.1 1.6 6.5.3 1.5.5 3.2.6 5.2.2 5.3-.9 9.9-3.2 13.7-2.3 3.9-5.4 6.8-9.2 8.8-3.8 2-7.8 3.1-11.9 3.3-4.7.2-9-.8-13-2.9-4-2.1-7.1-5-9.5-8.7s-3.6-7.9-3.8-12.4c-.2-5.5 1.5-10.6 5.2-15.3-1.1-.5-2.5-.9-4.3-1.2l-.1-3.5 16-1 .1 3.3c-2.4.6-4.6 1.6-6.6 3.1s-3.5 3.3-4.6 5.4c-1.1 2.1-1.6 4.4-1.5 6.9.1 1.8.5 3.6 1.2 5.3s1.9 3.3 3.5 4.8 3.8 2.6 6.6 3.4c2.8.8 6.1 1.2 10.1 1 3.4-.1 6.7-.6 9.8-1.5s5.8-2.4 7.9-4.7c2.2-2.3 3.2-5.5 3-9.5-.1-3.2-.7-5.6-1.8-7.2-1.1-1.6-2.3-2.6-3.8-3s-3.1-.6-4.9-.6c-1.7.1-2.9.2-3.7.5-.8.3-1.3.9-1.6 1.8-.3.9-.5 2.4-.4 4.3l-3.3.1-.8-21.8 3.3.2zm24.3-51.6l-1.2 13c-.6.4-1.4 1-2.5 1.6s-2.3 1.3-3.8 2l-3.6 1.8-5.8 2.8c-2.6 1.3-4.4 2.2-5.3 2.9s-1.6 1.5-2 2.4c-.3.9-.6 2.6-.8 4.9l-.2 1.8 12.7 1.2c1.3.1 2.4.1 3.3-.1.8-.2 1.5-.8 2.1-1.9.5-1 .9-2.6 1.1-4.6l3.3.3-2.3 24.4-3.3-.3c.3-3 0-4.9-.8-5.8s-2.2-1.5-4.3-1.7L80.4 490c-2.1-.2-3.6.1-4.5.8-1 .7-1.6 2.6-1.8 5.6l-3.4-.3.7-11.3c0-.9.1-1.9.2-3s.2-2.2.3-3.1c.1-.7.2-2 .4-3.7.3-2.4.7-4.7 1.1-6.7.4-2.1.8-3.7 1.3-4.9.6-1.8 1.5-3.4 2.7-4.9s2.7-2.7 4.5-3.6 3.9-1.2 6.1-1c1.6.2 3.2.7 4.6 1.5 1.5.8 2.7 2.1 3.8 3.8 1.1 1.7 1.8 3.8 2.3 6.5 1.2-1.7 2.6-3 4.2-4.1s4.6-2.7 8.9-5c2.5-1.3 4.3-2.4 5.6-3.2 1.3-.9 2.2-1.7 2.7-2.5s.9-1.8 1.1-3.1l3.2.3zM86.8 465c-3.9-.4-6.6.6-8 2.8-1.5 2.2-2.4 5.3-2.8 9.1 0 .5-.1.9-.1 1.2 0 .3 0 .6-.1 1l19.6 1.8.2-2.3c.3-3.6 0-6.7-.9-9.3-1-2.4-3.6-3.9-7.9-4.3z"/>
  <path d="M118 403.8l15.6 3.8-9.3 42.6-3.2-.7c.6-2.9.6-4.9 0-5.9-.7-1-2-1.8-4.1-2.2l-30-6.5c-1.4-.3-2.5-.4-3.3-.3s-1.6.6-2.2 1.5c-.7.9-1.2 2.4-1.7 4.5l-3.2-.7 8.6-39.6 12.5 2.1-.7 3.2c-2.9.1-5.1.5-6.5 1.2s-2.4 1.6-2.9 2.7-1 2.9-1.6 5.2l-1.9 8.9 16.9 3.7 1.1-4.9c.4-1.7.5-2.9.4-3.8s-.5-1.6-1.3-2.1-2-1-3.7-1.5l.7-3.4 15.9 3.5-.7 3.2c-1.8-.3-3.1-.3-4-.1-.9.2-1.6.7-2.1 1.4s-.9 2-1.2 3.6l-1.1 4.9 11.2 2.4c1.9.4 3.3.7 4.2.8.9.1 1.7 0 2.3-.3s1.2-.9 1.7-1.7c.5-.9.9-2.2 1.2-3.9l.8-3.8c.4-1.6.5-3.2.4-4.8-.1-1.6-.8-3.2-2.2-5s-3.9-3.3-7.4-4.7l.8-3.3zm31.6-43.1l-7.5 21.8-3.1-1.1c.6-1.8 1-3.2 1-4.2 0-.9-.4-1.6-1.4-1.9-.7-.2-1.4-.3-2.2-.3l-6.2.3-5.2 15 2.6 2.2c1.5 1.2 2.6 2 3.3 2.2 1.4.5 2.4.2 3.1-.7.7-.9 1.3-2.1 1.8-3.5l3.1 1.1-5.5 15.9-3.1-1.1c.4-1.3.6-2.4.4-3.5-.2-1.1-.8-2.2-1.8-3.5-1.1-1.3-2.6-2.8-4.7-4.6l-30.3-25.4 1.1-3.2 40.9-1.6c2.9-.1 4.9-.3 5.9-.5 1.1-.2 2-.6 2.8-1.3.8-.7 1.4-1.8 2-3.3l3 1.2zm-23.3 14.7l-18.3.8 14 11.6 4.3-12.4zm11-69.4l-1.5 3.1c-2.9-1-5.2-1.4-6.9-1.1s-3 .9-3.8 1.8-1.6 2.1-2.2 3.5l-2.7 5.6 32.3 15.5c1.3.6 2.3 1 3.2 1 .8.1 1.7-.3 2.5-1 .8-.8 1.7-2.1 2.6-3.9l3 1.4-10.7 22.1-3-1.4c1.3-2.7 1.7-4.6 1.3-5.8s-1.6-2.2-3.5-3.1l-32.3-15.5-2.2 4.7c-.9 1.8-1.5 3.4-1.8 4.8s0 2.8.9 4.4 2.6 3 5.3 4.5l-1.5 3.1-12.5-6 20.9-43.6 12.6 5.9zm49.3-37.3c1.2.9 2.4 2 3.4 3.5s1.8 3.2 2.4 5.2c.5 2 .7 4 .3 6.2-.3 2.2-1.2 4.4-2.7 6.5s-3.4 4-5.8 5.4c-2.4 1.5-5 2.3-7.8 2.5 1 1.6 2.1 3 3.2 4l-1.9 2.7-13.8-9.4 1.9-2.7c2.3.9 4.7 1.4 7 1.8 2.3.3 4.7.1 7-.6 2.4-.7 4.3-2.3 5.9-4.6 1.4-2 1.9-4 1.7-6-.3-2-1.3-3.5-3-4.7-1-.6-1.9-1-2.9-1.1s-2 0-3 .3-2.3.9-3.8 1.7c-1.5.8-3.1 1.8-4.9 2.9-2.8 1.7-5.3 2.9-7.6 3.6-2.2.8-4.2 1.2-5.8 1.2s-3.1-.1-4.3-.5-2.3-.9-3.3-1.6c-1.8-1.2-3.3-2.9-4.4-5.1-1.1-2.2-1.6-4.6-1.4-7.2.2-2.6 1.1-5.2 2.8-7.7 1.3-1.9 2.9-3.4 4.9-4.5s4.2-1.8 6.5-2.1c-.6-.9-1.5-2.1-2.8-3.4l1.9-2.8 11.3 7.7-1.9 2.8c-7.5-2.2-12.9-.8-16.3 4.1-1.2 1.8-1.7 3.5-1.5 5.3.2 1.7 1.1 3.1 2.5 4.1 1.2.8 2.4 1.2 3.7 1.1s2.7-.5 4-1.2c1.4-.7 3.5-1.9 6.3-3.5 3.4-2 6.3-3.5 8.4-4.5 2.2-1 4.4-1.5 6.8-1.6 2.5 0 4.8.7 7 2.2zm28.4-37.1l12 10.7-28.2 33.2-2.5-2.1c1.9-2.3 2.9-4 2.8-5.3-.1-1.2-1-2.5-2.6-3.9l-23.4-19.9c-1.1-.9-2-1.5-2.8-1.8s-1.7-.2-2.7.3-2.2 1.6-3.6 3.2l-2.5-2.1 26.3-30.9 10.1 7.7-2.1 2.5c-2.6-1.3-4.7-1.9-6.3-1.9s-2.8.3-3.8 1.1c-1 .7-2.3 2-3.9 3.9l-5.9 7 13.2 11.2 3.2-3.8c1.1-1.3 1.8-2.4 2.1-3.2s.3-1.7-.2-2.5c-.4-.8-1.3-1.8-2.6-3.1l2.2-2.6 12.4 10.5-2.1 2.5c-1.4-1.1-2.6-1.8-3.5-2-.9-.3-1.7-.2-2.5.3-.8.4-1.7 1.3-2.8 2.6L192 247l8.8 7.5c1.5 1.2 2.6 2.1 3.3 2.6s1.5.8 2.2.8c.7.1 1.5-.2 2.3-.7.8-.6 1.8-1.5 2.9-2.8l2.5-3c1.1-1.3 1.9-2.6 2.6-4 .7-1.4.8-3.2.4-5.5-.4-2.2-1.8-4.8-4.3-7.6l2.3-2.7zm48.2-23.3L246.3 224l-2.3-2.4c1.4-1.3 2.4-2.4 2.8-3.2.5-.8.3-1.6-.4-2.3-.5-.5-1.1-1-1.8-1.3l-5.6-2.7-11.6 10.8 1.3 3.1c.7 1.8 1.3 2.9 1.9 3.5 1 1.1 2 1.3 3.1.9 1.1-.5 2.2-1.2 3.3-2.2l2.3 2.4L227 242l-2.3-2.4c1-.9 1.6-1.9 2-2.9.3-1 .3-2.3 0-3.9s-1-3.7-2-6.2L209.9 190l2.5-2.3 36.8 17.7c2.6 1.2 4.4 2 5.5 2.4s2 .4 3 .2 2.1-.9 3.3-2l2.2 2.3zm-27.5 2l-16.6-7.9 6.9 16.9 9.7-9z"/>
  <path d="M287.9 170.1l9.4 13.4-35.1 25.8-2-2.7c2.4-1.8 3.7-3.3 3.9-4.5.2-1.2-.4-2.7-1.6-4.4L244.4 173c-.8-1.1-1.6-1.9-2.3-2.4s-1.6-.6-2.7-.3-2.5 1-4.1 2.2l-2-2.7 19.8-14.6 2 2.7c-1.6 1.2-2.8 2.3-3.4 3.2-.6.9-.8 1.8-.6 2.7.2.8.7 1.8 1.6 3l16.7 22.7c1.3 1.8 2.3 3 3.1 3.6.7.6 1.7.9 2.7.7 1.1-.2 2.5-.9 4.2-2.2 2.2-1.6 4.1-3.2 5.5-4.8s2.3-3.6 2.7-6.1c.3-2.5-.4-5.4-2.3-8.7l2.6-1.9zm62.1-42.6c2 4 2.9 8.2 2.8 12.6-.2 4.4-1.6 8.6-4.2 12.6-2.7 4-6.5 7.2-11.6 9.7-4.1 2.1-8.1 3.2-11.9 3.5-3.8.2-7.3-.3-10.4-1.5s-5.8-2.9-8.1-5.1c-2.3-2.2-4.1-4.6-5.5-7.3-2-3.9-2.9-8-2.8-12.4s1.4-8.5 4.1-12.5c2.6-4 6.5-7.2 11.6-9.8 4.7-2.3 9-3.6 13-3.7s7.5.5 10.5 1.9 5.5 3.2 7.6 5.3c2.1 2.1 3.7 4.4 4.9 6.7zm-10.5 5.1c-1.2-2.4-2.6-4.7-4.1-6.6-1.5-2-3.2-3.6-5.2-4.8s-4.1-1.9-6.4-2.1c-2.3-.1-4.9.5-7.6 1.8-3.7 1.9-6.1 4.2-7.3 7.1-1.2 2.9-1.4 5.9-.8 9s1.8 6.3 3.4 9.6c.9 1.8 2 3.6 3.2 5.5s2.8 3.6 4.7 5.2c1.9 1.6 4.2 2.6 6.9 3 2.7.4 5.6-.2 8.7-1.7 3.1-1.6 5.3-3.6 6.5-6s1.7-4.9 1.6-7.5c-.2-2.5-.6-4.8-1.3-6.9-.7-2-1.5-3.9-2.3-5.6zm49-31l-3.2 1.1c-1.5-2.4-2.9-4-4.2-4.8-1.4-.8-2.7-1.2-3.9-1.1-1.3.1-2.9.6-5 1.3L364 101l5.8 16.3 4.3-1.5c2-.7 3.3-1.6 3.8-2.5.5-1 .4-2.7-.4-5.1l3.1-1.1 5.4 15.3-3.2 1.1c-.7-1.7-1.4-2.9-2-3.6s-1.3-1-2.1-1-2 .2-3.5.7l-4.2 1.5 4.8 13.7c.7 1.9 1.5 3.1 2.6 3.7 1 .6 3 .4 5.7-.5l1-.3 1.1 3.1-23.7 8.4-1.1-3.1c2.8-1 4.5-2 5-3.2.5-1.1.4-2.7-.3-4.6l-10.2-29c-.5-1.3-1-2.3-1.5-2.9s-1.4-1-2.5-1.1-2.6.2-4.6.9l-1.1-3.1 37.7-13.3 4.6 11.8zM457 88l-3.4.6c-.9-2.9-1.9-5-3.2-6.2-1.3-1.2-2.5-1.9-3.7-2s-2.6 0-4.1.3l-6.1 1.1L443 117c.3 1.4.6 2.4 1 3.2.4.7 1.2 1.2 2.3 1.4 1.1.2 2.7.2 4.7-.2l.6 3.3-24.1 4.5-.6-3.3c3-.6 4.8-1.3 5.5-2.3s.8-2.6.5-4.6l-6.6-35.2-5.1 1c-2 .4-3.6.8-4.9 1.4s-2.3 1.7-3 3.3-.9 3.9-.5 6.9l-3.4.6-2.5-13.6 47.5-8.9L457 88zm63.3 31.2l-24 1.2-.2-3.3c2-.1 3.4-.4 4.4-.9s1.6-1.1 1.8-2c.2-.8.3-1.9.3-3.3l-.7-14.7-22.7 1.1.7 14.7c.1 2 .6 3.5 1.5 4.3.9.9 2.8 1.2 5.8 1.1l.2 3.3-24.2 1.2-.2-3.3c1.9-.1 3.4-.4 4.4-.9s1.6-1.1 1.9-2c.3-.8.4-1.9.3-3.3L468.2 82c-.1-1.4-.3-2.4-.6-3.2-.3-.8-1-1.4-2-1.8s-2.5-.6-4.6-.5l-.2-3.3L485 72l.2 3.3c-3 .2-4.9.7-5.7 1.6-.8.9-1.2 2.4-1.1 4.5l.6 12 22.7-1.1-.6-12c-.1-1.4-.3-2.4-.6-3.2-.3-.8-1-1.4-2-1.8s-2.5-.6-4.6-.5l-.2-3.3 24-1.2.2 3.3c-2 .1-3.5.4-4.5.9s-1.6 1.2-1.8 1.9c-.2.8-.3 1.9-.3 3.2l1.6 30.7c.1 1.3.2 2.4.5 3.1.3.8 1 1.4 2 1.8s2.6.6 4.6.5l.3 3.5z"/>
  <path d="M565.1 106.9l-1.6 16-43.4-3.3.3-3.3c3 .2 5-.1 5.9-.8.9-.8 1.5-2.2 1.6-4.4l2.4-30.6c.1-1.4.1-2.5-.2-3.3-.2-.8-.8-1.5-1.8-2s-2.5-.9-4.7-1l.3-3.3 40.5 3.1-.4 12.7-3.3-.3c-.5-2.9-1.2-4.9-2.1-6.2-.9-1.3-1.9-2.1-3.1-2.5-1.2-.4-3-.6-5.4-.8l-9.1-.7-1.3 17.2 5 .4c1.7.1 3 .1 3.8-.2.9-.2 1.5-.8 1.9-1.6.4-.8.7-2.1 1-3.9l3.5.3-1.2 16.2-3.3-.3c0-1.8-.1-3.1-.4-4-.3-.9-.9-1.5-1.7-1.8s-2.1-.6-3.8-.7l-5-.4-.9 11.5c-.1 1.9-.2 3.3-.2 4.2 0 .9.2 1.7.6 2.3.4.6 1 1.1 1.9 1.4s2.3.6 4 .7l3.9.3c1.7.1 3.2 0 4.8-.3 1.5-.3 3.1-1.3 4.7-2.9 1.6-1.6 2.8-4.3 3.6-7.9l3.2.2zm54.8 13.3c-.3 1.5-1 3-2 4.5s-2.3 2.9-3.9 4.1c-1.6 1.2-3.5 2.1-5.7 2.6s-4.5.5-7.1-.1c-2.5-.6-4.9-1.7-7.2-3.4-2.2-1.7-4-3.8-5.2-6.4-1.1 1.6-2 3.1-2.5 4.5l-3.2-.7 3.7-16.3 3.2.7c.1 2.5.4 4.9.9 7.2.6 2.3 1.6 4.4 3.2 6.3 1.5 1.9 3.7 3.2 6.4 3.8 2.4.5 4.5.3 6.2-.7s2.8-2.5 3.3-4.5c.3-1.1.3-2.2 0-3.1s-.7-1.8-1.4-2.7c-.7-.9-1.7-1.8-3-2.9s-2.8-2.3-4.5-3.5c-2.6-2-4.6-3.9-6.2-5.7-1.5-1.8-2.6-3.5-3.3-5s-1-2.9-1.1-4.2c-.1-1.3 0-2.5.3-3.7.5-2.1 1.5-4.1 3.2-5.9 1.6-1.8 3.7-3.1 6.2-4 2.5-.8 5.2-.9 8.1-.2 2.2.5 4.2 1.5 6 2.9 1.8 1.5 3.2 3.2 4.3 5.3.6-.9 1.3-2.2 2.1-3.9l3.3.8-3 13.3-3.3-.8c-.7-7.8-4-12.3-9.8-13.6-2.1-.5-3.9-.3-5.5.5-1.5.8-2.5 2.1-2.9 3.9-.3 1.4-.2 2.7.4 3.9.6 1.2 1.4 2.3 2.6 3.3 1.1 1 3 2.5 5.6 4.6 3.1 2.5 5.6 4.5 7.3 6.2s3 3.6 4 5.8c.9 2.1 1.1 4.5.5 7.1zm55.5-3.4l-3.2-1.1c.7-3 .8-5.3.3-7s-1.2-2.9-2.2-3.6-2.2-1.3-3.7-1.8l-5.9-2-11.8 33.7c-.5 1.3-.7 2.4-.7 3.3 0 .8.5 1.6 1.3 2.4.9.8 2.2 1.5 4.2 2.1l-1.1 3.1-23.2-8.1 1.1-3.1c2.8 1 4.8 1.2 5.9.7s2-1.8 2.7-3.8L651 97.8l-4.9-1.7c-1.9-.7-3.6-1.1-5-1.2s-2.8.3-4.2 1.3-2.7 3-3.9 5.8l-3.2-1.1 4.6-13.1 45.6 15.9-4.6 13.1zm27.3 51.9l-20.8-9.9 1.4-3c1.8.8 3.1 1.3 4 1.5.9.1 1.6-.3 2-1.2.3-.7.5-1.4.6-2.2l.4-6.2-14.3-6.8-2.4 2.4c-1.4 1.3-2.2 2.3-2.6 3-.6 1.3-.5 2.4.3 3.2s1.9 1.6 3.3 2.2l-1.4 3-15.2-7.2 1.4-3c1.2.6 2.4.8 3.4.8 1.1-.1 2.3-.5 3.7-1.4s3.1-2.3 5.1-4.2l28.6-27.3 3.1 1.5-2.9 40.8c-.2 2.9-.2 4.9-.2 6s.4 2 .9 2.9c.6.9 1.6 1.6 3.1 2.3l-1.5 2.8zM690.8 144l1.3-18.3-13.1 12.6 11.8 5.7zm67.7 18.6l-2.9-1.8c1.3-2.7 2-5 1.9-6.7-.1-1.8-.6-3.1-1.4-4s-1.9-1.8-3.2-2.6l-5.3-3.3-19 30.4c-.8 1.2-1.2 2.2-1.4 3s.1 1.7.7 2.6c.7.9 1.9 1.9 3.6 3l-1.8 2.8-20.8-13 1.8-2.8c2.5 1.6 4.4 2.3 5.6 2 1.2-.3 2.3-1.3 3.5-3.1l19-30.4-4.4-2.8c-1.7-1.1-3.3-1.8-4.6-2.3-1.3-.4-2.8-.3-4.4.4-1.6.7-3.3 2.3-5 4.8l-2.9-1.8 7.4-11.8 41 25.6-7.4 11.8zm25.7 44.8l-10.4 12.3-33.9-27.3 2.1-2.6c2.3 1.9 4.1 2.8 5.3 2.6 1.2-.1 2.5-1 3.8-2.7l19.3-23.9c.9-1.1 1.4-2 1.7-2.8s.2-1.7-.4-2.7c-.5-1-1.6-2.2-3.3-3.5l2.1-2.6 31.6 25.4-7.5 10.3-2.6-2.1c1.2-2.7 1.8-4.8 1.8-6.3 0-1.6-.4-2.8-1.2-3.8s-2.1-2.2-4-3.7l-7.1-5.7-10.8 13.5 3.9 3.1c1.3 1.1 2.4 1.8 3.3 2 .8.3 1.7.2 2.4-.2.8-.4 1.8-1.3 3-2.7l2.7 2.2-10.2 12.7-2.6-2.1c1.1-1.5 1.7-2.7 1.9-3.6.2-.9.1-1.7-.3-2.5-.5-.7-1.4-1.7-2.7-2.7l-3.9-3.2-7.2 9c-1.2 1.5-2 2.6-2.5 3.4-.5.8-.7 1.5-.8 2.2 0 .7.2 1.5.8 2.3s1.5 1.8 2.9 2.9l3.1 2.5c1.3 1 2.7 1.9 4.1 2.5 1.4.6 3.3.7 5.5.2s4.7-2 7.5-4.5l2.6 2.1zm57.8 49.3c-3.3 2.9-7.2 4.9-11.5 5.9s-8.7.7-13.2-.8c-4.5-1.6-8.6-4.4-12.4-8.7-3.1-3.5-5.2-7-6.4-10.6s-1.6-7.1-1.2-10.4c.4-3.3 1.4-6.4 2.9-9.1 1.5-2.8 3.4-5.2 5.7-7.2 3.3-2.9 7-4.8 11.3-5.9 4.3-1 8.6-.8 13.1.7s8.6 4.4 12.4 8.7c3.5 3.9 5.8 7.8 6.9 11.7 1.1 3.9 1.4 7.4.8 10.7-.6 3.2-1.7 6.1-3.2 8.7-1.6 2.5-3.3 4.6-5.2 6.3zm-7.7-8.8c2.1-1.8 3.8-3.7 5.4-5.7s2.6-4.1 3.3-6.3.8-4.4.3-6.7-1.7-4.6-3.7-6.8c-2.7-3.1-5.6-4.8-8.7-5.2s-6 .1-8.9 1.6c-2.9 1.4-5.7 3.3-8.4 5.8-1.5 1.3-3 2.8-4.5 4.5-1.5 1.6-2.7 3.6-3.8 5.9-1 2.3-1.4 4.8-1.1 7.5.3 2.7 1.6 5.4 3.9 8 2.3 2.6 4.8 4.2 7.4 4.7 2.7.6 5.2.4 7.6-.4 2.4-.8 4.5-1.8 6.3-3.1s3.5-2.5 4.9-3.8zm42.6 39.3l-1.9-2.8c1.9-2 3.1-3.8 3.6-5.3s.5-2.9 0-4.1-1.3-2.7-2.6-4.5l-4.9-7.2-14.3 9.8 2.6 3.8c1.2 1.8 2.4 2.8 3.4 3s2.7-.3 4.8-1.7l1.9 2.7-13.4 9.2-1.9-2.8c1.5-1.2 2.5-2.1 3-2.8.5-.7.6-1.5.5-2.3s-.7-1.9-1.6-3.2l-2.5-3.7-12 8.2c-1.6 1.1-2.6 2.3-2.9 3.4-.3 1.2.3 3 2 5.4l.6.8-2.7 1.9-14.2-20.7 2.7-1.9c1.7 2.5 3.1 3.8 4.3 4s2.7-.3 4.4-1.5l25.4-17.4c1.2-.8 2-1.5 2.4-2.2.5-.7.6-1.6.4-2.7-.2-1.1-.9-2.5-2.1-4.2l2.7-1.9 22.6 33-10.3 7.7zm6.6 95.4l-10.1-22.4 3-1.4c.9 1.9 1.7 3.3 2.5 4s1.6 1.1 2.5 1 1.9-.4 3.2-.9l28-12.6-43.8-.6-.9-2 28.6-33.4-26.5 11.9c-1.4.6-2.5 1.2-3.2 1.6s-1.2 1-1.6 1.6c-.3.6-.4 1.5-.3 2.4.1 1 .6 2.3 1.3 3.8l-3 1.4-7.4-16.5 3-1.4c.7 1.6 1.4 2.7 2 3.5s1.3 1.2 2 1.4 1.4.1 2.2-.1 1.9-.7 3.3-1.3l25.3-11.4c1.9-.8 3.2-1.6 3.9-2.1.7-.6 1.1-1.4 1.2-2.5 0-1.1-.4-2.7-1.4-4.8l3-1.4 7.3 16.3-24.8 28.9 38.1.7 7.2 16-3 1.4c-1.2-2.7-2.4-4.3-3.6-4.8-1.2-.4-2.7-.2-4.6.6l-28 12.6c-1.2.5-2.1 1.1-2.8 1.7s-.9 1.5-.9 2.6.5 2.7 1.3 4.6l-3 1.6z"/>
  <path d="M889.6 406.1l-7.4-23.7 3.2-1c.6 2 1.3 3.4 2 4.3s1.5 1.4 2.3 1.4c.9.1 2-.1 3.4-.6l29.3-9.2c2-.6 3.3-1.5 3.9-2.6.6-1.1.4-3.1-.5-6l3.2-1 7.4 23.7-3.2 1c-.6-2-1.3-3.4-2-4.3s-1.5-1.4-2.3-1.4c-.8-.1-2 .1-3.4.5l-29.3 9.2c-1.3.4-2.3.9-3 1.4s-1 1.4-1.2 2.5c-.1 1.1.2 2.7.8 4.8l-3.2 1zm22.2 33.3c-1.5.3-3.1.4-4.9.1-1.8-.3-3.6-.9-5.4-1.8-1.8-.9-3.4-2.3-4.8-4-1.4-1.7-2.4-3.9-3-6.4s-.6-5.2-.1-7.9 1.7-5.2 3.5-7.5c-1.9-.4-3.6-.5-5.1-.3l-.7-3.2 16.3-3.7.7 3.2c-2.2 1.1-4.2 2.4-6.1 3.9-1.8 1.5-3.3 3.4-4.3 5.6-1.1 2.2-1.3 4.7-.7 7.5.5 2.4 1.6 4.2 3.3 5.3 1.6 1.1 3.5 1.5 5.4 1 1.1-.3 2.1-.7 2.8-1.3.7-.6 1.4-1.5 1.8-2.4s.9-2.3 1.4-4c.4-1.6.9-3.5 1.3-5.6.7-3.2 1.5-5.9 2.5-8 1-2.2 2-3.9 3.1-5.1s2.2-2.2 3.3-2.8c1.1-.6 2.2-1.1 3.4-1.4 2.1-.5 4.4-.4 6.7.3s4.4 2 6.2 3.9 3.1 4.3 3.7 7.2c.5 2.2.5 4.5-.1 6.7-.5 2.2-1.5 4.3-2.9 6.2 1.1.2 2.6.3 4.4.2l.8 3.3-13.3 3-.7-3.3c6.7-4 9.4-8.9 8.1-14.7-.5-2.1-1.4-3.7-2.8-4.7s-3-1.3-4.7-.9c-1.4.3-2.5 1-3.3 2s-1.5 2.3-1.9 3.7c-.4 1.5-1 3.8-1.7 7-.9 3.9-1.7 7-2.5 9.2-.8 2.3-1.9 4.3-3.5 6.1s-3.6 3-6.2 3.6zm5.2 45.8c-1.5.2-3.1.1-4.9-.4-1.8-.4-3.5-1.2-5.2-2.3-1.7-1.1-3.2-2.6-4.4-4.5s-2-4.1-2.3-6.7-.1-5.2.7-7.9 2.2-5 4.2-7.1c-1.9-.5-3.6-.8-5.1-.9l-.4-3.3 16.6-2.1.4 3.3c-2.3.9-4.5 2-6.4 3.3-2 1.3-3.6 3-4.9 5.1-1.3 2.1-1.7 4.6-1.4 7.3.3 2.4 1.2 4.3 2.7 5.6s3.3 1.8 5.3 1.6c1.1-.1 2.1-.5 2.9-1.1.8-.6 1.5-1.3 2.1-2.3.6-.9 1.2-2.2 1.7-3.8s1.2-3.4 1.8-5.4c1-3.1 2.1-5.7 3.3-7.7 1.2-2.1 2.4-3.7 3.6-4.8 1.2-1.1 2.4-2 3.5-2.5s2.3-.9 3.5-1c2.2-.3 4.4 0 6.6 1 2.3.9 4.2 2.4 5.8 4.5s2.6 4.6 3 7.6c.3 2.3 0 4.5-.7 6.7-.8 2.2-1.9 4.1-3.5 5.8 1.1.3 2.5.5 4.4.7l.4 3.4-13.5 1.7-.4-3.4c7.1-3.3 10.2-7.9 9.5-13.8-.3-2.1-1-3.8-2.3-5s-2.8-1.6-4.6-1.4c-1.4.2-2.6.7-3.5 1.7-.9.9-1.7 2.1-2.3 3.5s-1.4 3.7-2.4 6.8c-1.2 3.8-2.4 6.8-3.4 8.9-1 2.2-2.3 4.1-4.1 5.7-1.5 1.9-3.7 2.9-6.3 3.2zm-12 25.5l-1.1-24.8 3.3-.1c.1 2.1.4 3.6.8 4.7.4 1 1.1 1.7 1.9 2 .8.3 1.9.4 3.4.3l30.7-1.3c2.1-.1 3.6-.6 4.4-1.5.8-.9 1.2-2.9 1-6l3.3-.1 1.1 24.8-3.3.1c-.1-2.1-.4-3.6-.8-4.7-.5-1-1.1-1.7-1.9-2-.8-.3-1.9-.4-3.4-.3l-30.7 1.3c-1.4.1-2.5.3-3.3.6s-1.4 1-1.8 2.1c-.4 1-.5 2.6-.4 4.8l-3.2.1z"/>
  <path d="M916.9 545c-1.5-.1-3.1-.4-4.8-1.1-1.7-.7-3.3-1.7-4.8-3.1-1.5-1.4-2.7-3.1-3.6-5.1-.9-2-1.3-4.4-1.2-7s.8-5.2 2-7.7 3-4.6 5.3-6.3c-1.8-.8-3.4-1.4-4.9-1.7l.1-3.3 16.7.6-.1 3.3c-2.4.5-4.7 1.3-6.9 2.2-2.2 1-4 2.4-5.6 4.3-1.6 1.9-2.4 4.2-2.5 7-.1 2.5.5 4.4 1.8 6 1.3 1.5 3 2.3 5 2.4 1.2 0 2.2-.2 3.1-.6.9-.4 1.7-1.1 2.4-1.9.7-.8 1.5-2 2.3-3.5s1.7-3.2 2.7-5c1.5-2.9 3-5.3 4.5-7.1s2.9-3.2 4.3-4.2c1.4-.9 2.7-1.6 3.9-1.9s2.4-.5 3.7-.4c2.2.1 4.3.7 6.4 2 2.1 1.3 3.8 3 5 5.4 1.3 2.3 1.9 5 1.7 7.9-.1 2.3-.7 4.4-1.8 6.5-1.1 2-2.6 3.8-4.4 5.2 1 .5 2.4.9 4.2 1.3l-.1 3.4-13.6-.5.1-3.4c7.5-2.1 11.4-6.2 11.6-12.1.1-2.2-.4-3.9-1.5-5.3s-2.5-2.1-4.3-2.1c-1.4-.1-2.7.3-3.7 1.1-1.1.8-2 1.8-2.8 3.1s-1.9 3.4-3.4 6.4c-1.8 3.5-3.4 6.3-4.7 8.3s-3 3.6-4.9 5c-2.2 1.4-4.5 2-7.2 1.9zm-5.2 40c-1.5-.2-3-.7-4.6-1.6-1.6-.9-3.1-2.1-4.4-3.6-1.4-1.5-2.4-3.3-3.1-5.4-.7-2.1-.9-4.5-.5-7.1.3-2.6 1.3-5.1 2.7-7.4 1.5-2.4 3.4-4.3 5.9-5.8-1.7-1-3.2-1.7-4.7-2.1l.4-3.3L920 551l-.4 3.3c-2.5.3-4.8.8-7.1 1.6-2.2.8-4.2 2-6 3.7s-2.8 4-3.2 6.7c-.3 2.4.1 4.5 1.2 6.1 1.1 1.6 2.7 2.6 4.7 2.9 1.1.2 2.2.1 3.1-.3.9-.3 1.8-.9 2.6-1.7s1.7-1.8 2.7-3.2 2-3 3.1-4.8c1.8-2.7 3.5-5 5.2-6.6 1.7-1.7 3.2-2.9 4.7-3.7s2.8-1.3 4-1.5 2.5-.2 3.7-.1c2.2.3 4.2 1.2 6.2 2.6 1.9 1.5 3.4 3.4 4.5 5.8s1.4 5.1 1 8.1c-.3 2.3-1.1 4.3-2.4 6.3-1.3 1.9-2.9 3.5-4.9 4.8.9.6 2.3 1.1 4.1 1.8l-.5 3.4-13.5-1.8.5-3.4c7.7-1.4 11.9-5 12.7-10.9.3-2.1 0-3.9-1-5.4s-2.3-2.3-4.1-2.5c-1.4-.2-2.7 0-3.8.7s-2.2 1.6-3.1 2.8c-.9 1.2-2.3 3.2-4.1 6-2.2 3.3-4 5.9-5.5 7.8-1.5 1.8-3.3 3.3-5.4 4.5-2.2.9-4.6 1.3-7.3 1zM892 608.6l5.3-24.2 3.2.7c-.4 2-.6 3.6-.4 4.7.2 1.1.6 1.9 1.3 2.4s1.8.9 3.2 1.2l30 6.6c2.1.5 3.6.3 4.7-.3 1-.7 1.9-2.5 2.5-5.5l3.2.7-5.3 24.2-3.2-.7c.4-2 .6-3.6.4-4.7-.2-1.1-.6-1.9-1.3-2.4s-1.8-.9-3.2-1.2l-30-6.6c-1.4-.3-2.5-.4-3.3-.2s-1.6.7-2.2 1.6c-.6.9-1.2 2.4-1.7 4.5l-3.2-.8z"/>
  <path d="M913.6 661.2c-3.8-1.2-6.4-3.3-7.6-6.3s-1.6-6.2-1.2-9.5c.4-3.4 1.2-6.8 2.3-10.4l1-3.1-12.2-3.8c-1.4-.4-2.5-.6-3.3-.6-.8.1-1.6.5-2.3 1.4s-1.4 2.3-2 4.3l-3.2-1 7.4-23.5 3.2 1c-.6 2-.9 3.5-.8 4.6.1 1.1.5 1.9 1.2 2.4s1.7 1 3 1.4l29.4 9.3c1.3.4 2.4.6 3.2.6s1.6-.5 2.3-1.3 1.4-2.2 2-4.2l3.2 1-3.8 13.4c-.2.7-.4 1.5-.7 2.3-.2.8-.4 1.5-.6 2-.1.5-.4 1.2-.7 2.1-.4 1.2-.7 2-.9 2.6-1 2.7-2.1 5.2-3.3 7.6-1.2 2.4-3.2 4.6-5.9 6.6-2.5 1.9-5.8 2.3-9.7 1.1zm3.2-10.7c3.7 1.2 6.5.9 8.5-.9 1.9-1.8 3.5-4.4 4.6-8 .2-.6.5-1.5.8-2.7L912 633l-1 3.2c-1.1 3.4-1.3 6.3-.8 8.7.4 2.5 2.6 4.4 6.6 5.6zm-22.5 54.7c-3.7-1.6-6-4-6.8-7.1-.9-3.1-.9-6.3-.1-9.6s2-6.6 3.5-10l1.3-3-11.7-5.2c-1.3-.6-2.4-.9-3.3-.9-.9 0-1.7.3-2.5 1.1s-1.6 2.1-2.5 4.1l-3-1.3 10-22.5 3 1.3c-.8 1.9-1.3 3.4-1.3 4.5s.3 1.9.9 2.5c.6.6 1.5 1.2 2.8 1.7l28.2 12.5c1.3.6 2.3.9 3.2.9.8.1 1.7-.3 2.5-1s1.6-2.1 2.5-4l3.1 1.4-5.3 12.9c-.3.7-.6 1.4-.9 2.2-.3.8-.6 1.4-.8 1.9s-.5 1.2-.9 2.1c-.5 1.1-.9 2-1.1 2.5-1.3 2.6-2.6 5-4.1 7.2s-3.7 4.2-6.6 5.8c-3 1.7-6.4 1.7-10.1 0zm4.4-10.2c3.6 1.6 6.4 1.6 8.5.1s3.9-4 5.4-7.4c.3-.6.6-1.5 1.1-2.6l-18-8-1.3 3c-1.4 3.2-2 6.1-1.8 8.6.3 2.5 2.3 4.6 6.1 6.3zM849 712.5l12-21.7 2.9 1.6c-1 1.8-1.6 3.3-1.8 4.4-.2 1.1 0 2 .6 2.7.5.7 1.4 1.4 2.7 2.1l26.9 14.9c1.8 1 3.4 1.4 4.5 1 1.2-.3 2.5-1.9 4-4.6l2.9 1.6-12 21.7-2.9-1.6c1-1.8 1.6-3.3 1.7-4.4.2-1.1 0-2-.6-2.7s-1.4-1.3-2.7-2.1l-26.9-14.9c-1.2-.7-2.3-1.1-3.1-1.2s-1.7.2-2.6.9c-.9.7-1.8 2-2.9 3.9l-2.7-1.6zM208.3 832.6L190.8 815l2.3-2.3c1.5 1.5 2.7 2.4 3.7 2.9s1.9.5 2.7.2 1.7-1 2.7-2l21.8-21.7c1.5-1.5 2.2-2.9 2.2-4.1 0-1.2-1.1-2.9-3.3-5.1l2.4-2.3 17.5 17.6-2.4 2.3c-1.5-1.5-2.7-2.4-3.7-2.9s-1.9-.5-2.7-.2-1.7 1-2.7 2L209.6 821c-1 1-1.7 1.9-2 2.6s-.3 1.7.1 2.7c.4 1 1.4 2.3 2.9 3.8l-2.3 2.5z"/>
  <path d="M281.1 834.7c-1.8-1.5-3.2-2.4-4.3-2.6-1.1-.3-2-.1-2.8.4-.8.6-1.8 1.6-3.1 3.2l-24.7 29.9-2.6-2.1-.5-49.7-17.1 20.8c-1.3 1.6-2.1 2.8-2.5 3.7s-.4 1.8.1 2.9c.5 1 1.6 2.3 3.4 3.8l-2.1 2.6-14-11.6 2.1-2.6c1.7 1.4 3 2.2 4.1 2.4s2 .1 2.7-.5c.8-.6 1.8-1.6 3.1-3.2l15.9-19.2c1.3-1.6 2.2-2.8 2.8-3.6s.9-1.7 1.1-2.5c.2-.8 0-1.7-.4-2.7-.4-.9-1.2-2-2.4-3.2l2.1-2.6 11 9.1.5 43.1 14.2-17.2c1.2-1.4 2-2.6 2.4-3.5s.4-1.9 0-2.9-1.5-2.3-3.2-3.6l2.1-2.6 14.1 11.6-2 2.4zm45.8 57.9c-1.3-.6-2.3-.9-3.1-1-.8-.1-1.4.1-2 .6s-1.3 1.4-2 2.8l-5.7 9.9c-3-1.7-6.5-3.2-10.5-4.4-2.9-.9-5-1.6-6.4-2.1s-3-1.3-4.7-2.3c-4.6-2.6-7.9-6-9.9-10s-2.9-8.2-2.6-12.5 1.5-8.3 3.5-11.8c2.3-4.1 5.4-7.3 9.3-9.5 3.9-2.3 8-3.4 12.4-3.4s8.6 1.1 12.5 3.3c4.8 2.7 8.2 6.9 10.3 12.5 1-.6 2.1-1.6 3.3-3l3 1.7-7.6 14.1-2.9-1.7c.8-2.4 1.1-4.8.8-7.2-.2-2.4-.9-4.7-2.1-6.8s-2.9-3.7-5.1-4.9c-1.6-.9-3.3-1.5-5.1-1.8-1.8-.3-3.8-.2-5.9.4-2.1.6-4.2 1.9-6.4 3.8s-4.2 4.6-6.2 8c-1.7 3-3 6-4 9.1-.9 3.1-1 6.2-.2 9.2.8 3.1 2.9 5.6 6.4 7.6 2.8 1.6 5.1 2.3 7 2.3 1.9-.1 3.4-.6 4.6-1.6 1.1-1 2.2-2.3 3-3.8s1.3-2.6 1.5-3.4c.2-.8-.1-1.6-.7-2.3-.6-.8-1.8-1.6-3.4-2.6l1.6-2.9 18.9 10.8-1.6 2.9zm58.3 17.7c-1.6 4.1-4.1 7.6-7.5 10.5-3.4 2.8-7.4 4.6-12.2 5.3-4.7.7-9.7 0-15-2.1-4.3-1.7-7.8-3.9-10.5-6.5-2.7-2.7-4.7-5.6-5.8-8.7-1.2-3.1-1.7-6.3-1.6-9.5s.7-6.1 1.8-8.9c1.6-4 4-7.5 7.4-10.4 3.3-2.9 7.3-4.6 12-5.3s9.7 0 15 2.1c4.9 1.9 8.7 4.3 11.5 7.2s4.6 6 5.6 9.1c1 3.2 1.3 6.2 1.1 9.2-.3 3-.9 5.6-1.8 8zm-10.9-4.4c1-2.6 1.7-5.1 2.2-7.5.5-2.5.5-4.8.1-7.1s-1.3-4.3-2.8-6.2c-1.5-1.8-3.6-3.3-6.4-4.4-3.8-1.5-7.2-1.7-10.1-.7-2.9 1.1-5.3 2.9-7.2 5.5-1.9 2.6-3.5 5.6-4.9 9-.7 1.9-1.4 3.9-1.9 6-.6 2.1-.8 4.5-.7 7 .1 2.5.9 4.9 2.4 7.2s3.9 4.1 7.1 5.3c3.2 1.3 6.2 1.6 8.8.8s4.8-2 6.6-3.8c1.8-1.8 3.2-3.7 4.2-5.6s1.9-3.7 2.6-5.5zm67.5 18.5c-.8 3.4-2.1 6.4-3.9 8.9s-3.9 4.5-6.1 5.9c-2.3 1.4-4.6 2.4-6.9 2.8-4.9.9-10.6.7-17-.8l-21.7-5 .7-3.2c2 .5 3.6.6 4.7.5s1.9-.6 2.4-1.3.9-1.8 1.2-3.2l7-30.1c.5-2.1.4-3.6-.3-4.6-.6-1-2.5-1.9-5.5-2.6l.8-3.3 10.3 2.2c.4.1 1.8.4 4.3.9s4 .8 4.4.9c3.9.9 7.2 1.9 9.8 2.9 2.6 1.1 5 2.3 7 3.8 1.9 1.3 3.5 2.9 4.9 4.9 1.4 1.9 2.5 4 3.2 6.2.8 2.2 1.2 4.5 1.3 7 .2 2.2 0 4.7-.6 7.2zm-11.3-2.9c1.1-4.9 1.2-9.3 0-13.1-1.1-3.8-3.1-6.7-6.1-8.7-1.3-.9-2.7-1.6-4.2-2.1s-3.8-1.1-6.7-1.8l-7.8 33.5c-.4 1.9-.7 3.3-.7 4.3s.4 1.7 1.2 2.4c.8.7 2.2 1.2 4.1 1.7 5.7 1.3 10.2.3 13.5-3.2 3.2-3.5 5.5-7.8 6.7-13zm102.4-12.6c-1.8.1-3 .3-3.9.7s-1.5 1.1-2 2.2-1.2 2.9-2.1 5.7l-11.5 37.2-5-.2-11.1-35.5-12.9 34.7-4.9-.2-10-39c-.6-2.3-1.2-4.1-1.7-5.2-.5-1.1-1.2-1.9-1.9-2.3-.7-.4-1.8-.6-3.2-.6l.1-3.3 21.2.7-.1 3.3c-1.7-.1-2.9 0-3.7.3-.8.2-1.2.9-1.2 2.1 0 .8.2 2.1.7 4l6.3 24.7 12.7-33.8 4.7.2 10.9 34.6 6.9-22.7c.5-1.5.7-2.8.8-3.8.1-1.8-.4-2.9-1.5-3.4s-2.5-.8-4.2-.9l.1-3.3 16.8.6-.3 3.2zm47.9 23.5l1.4 16-43.3 4.8-.4-3.3c3-.3 4.9-1 5.6-1.9.8-1 1-2.5.8-4.6l-3.4-30.5c-.2-1.4-.4-2.5-.8-3.2-.4-.7-1.1-1.3-2.1-1.6-1.1-.3-2.7-.4-4.8-.1l-.4-3.3 40.3-4.5 2 12.5-3.3.4c-1.1-2.7-2.1-4.6-3.2-5.7-1.1-1.1-2.3-1.7-3.5-1.9-1.2-.1-3.1-.1-5.5.2l-9.1 1 1.9 17.2 4.9-.5c1.7-.2 2.9-.5 3.7-.9s1.3-1 1.6-1.9c.2-.9.3-2.2.2-4l3.4-.4 1.8 16.2-3.3.4c-.3-1.8-.7-3.1-1.2-3.9-.5-.8-1.1-1.3-2-1.5s-2.1-.2-3.8 0l-5 .6 1.3 11.4c.2 1.9.4 3.3.6 4.2.2.9.5 1.6 1 2.1s1.2.9 2.2 1c1 .2 2.3.1 4.1-.1l3.9-.4c1.6-.2 3.2-.6 4.6-1.2 1.4-.6 2.8-1.8 4-3.7s1.9-4.7 2.1-8.5l3.7-.4zm60.8-34.3l-3.3.9c-1.1-2.8-2.3-4.8-3.7-6-1.4-1.1-2.7-1.7-3.9-1.7s-2.6.2-4.1.6l-6 1.6 9.4 34.6c.4 1.4.8 2.4 1.3 3.1.5.7 1.3 1.1 2.4 1.2 1.1.1 2.7-.1 4.7-.6l.9 3.2-23.7 6.4-.9-3.2c2.9-.8 4.7-1.7 5.3-2.8s.6-2.6.1-4.7l-9.4-34.6-5 1.4c-2 .5-3.6 1.1-4.8 1.8s-2.1 1.8-2.7 3.5-.6 4 .1 6.9l-3.3.9-3.6-13.4 46.6-12.6 3.6 13.5zm65.1 11.1l-12.1 5c-.6-.3-1.5-.8-2.5-1.4-1-.7-2.2-1.5-3.5-2.4s-2.4-1.7-3.2-2.3l-5.2-3.8c-2.3-1.7-4-2.8-5-3.3s-2.1-.7-3.1-.6c-1 .1-2.6.7-4.7 1.6l-1.7.7 4.9 11.8c.5 1.2 1.1 2.2 1.6 2.8.6.6 1.4 1 2.6.9s2.7-.4 4.6-1.2l1.3 3.1-22.6 9.4-1.3-3.1c2.8-1.1 4.4-2.3 4.8-3.4.5-1.1.3-2.7-.5-4.6l-11.9-28.5c-.8-1.9-1.8-3.1-2.9-3.6s-3.1-.2-5.8 1l-1.3-3.1 10.3-4.7c.8-.4 1.7-.8 2.7-1.2 1-.5 2-.9 2.9-1.2.7-.3 1.8-.7 3.5-1.4 2.3-.9 4.4-1.6 6.5-2.2 2-.6 3.7-1 4.9-1.2 1.8-.3 3.7-.2 5.6.1 1.9.4 3.7 1.1 5.3 2.3s2.9 2.9 3.7 5c.6 1.5.9 3.1.8 4.8-.1 1.7-.6 3.4-1.6 5.1s-2.5 3.4-4.6 5c2 .3 3.9.9 5.6 1.8s4.6 2.8 8.6 5.6c2.3 1.6 4.1 2.7 5.5 3.4s2.5 1.1 3.4 1.2c.9.1 2-.1 3.2-.5l1.2 3.1zm-32.5-25.3c-1.5-3.6-3.6-5.5-6.3-5.8s-5.8.3-9.3 1.8c-.5.2-.9.4-1.1.5-.3.1-.6.3-.9.4l7.6 18.1 2.1-.9c3.4-1.4 5.9-3.1 7.8-5.1 1.7-2 1.7-5 .1-9zm56.8-41.1c-1.9 1.1-3.1 2.1-3.7 3-.6.9-.7 1.8-.4 2.7s.9 2.2 1.9 3.9l9 15.7c1.6 2.9 2.8 5.1 3.4 6.7.6 1.6.9 3.3.9 5.3 0 3.8-1 7-3.3 9.7-2.2 2.7-4.7 4.8-7.3 6.3-1.9 1.1-4.1 2-6.4 2.7-2.3.7-4.7.9-7.2.8-2.4-.2-4.7-.9-6.7-2.3-1.1-.8-2.1-1.6-3-2.5s-1.6-1.8-2.2-2.7c-.6-.9-1.3-2.1-2.2-3.6l-10.2-17.6c-1-1.8-2.2-2.9-3.3-3.3-1.2-.3-3 .2-5.7 1.8l-1.6-2.9 21.4-12.2 1.6 2.9c-1.8 1-3.1 2-3.8 2.9s-1 1.7-.9 2.6c.1.8.5 1.9 1.2 3.1l10.1 17.7c1 1.8 2 3.4 3 4.6 1 1.3 1.9 2.3 2.9 3.1 1.7 1.3 3.7 1.9 5.9 2 2.3 0 4.4-.5 6.5-1.7 2.2-1.3 3.9-3 5.2-5.1 1.3-2.2 1.8-4.3 1.5-6.4-.2-1.7-.6-3.3-1.2-4.8s-1.5-3.3-2.7-5.3l-8.7-15.3c-.8-1.4-1.4-2.4-1.9-3s-1-1.1-1.7-1.4c-.7-.3-1.5-.3-2.5 0s-2.3.8-3.8 1.7l-1.6-2.9 15.6-8.9 1.9 2.7zm48.8 2.7c.9 1.2 1.6 2.7 2.1 4.5.5 1.7.7 3.6.5 5.7s-.7 4-1.7 6-2.6 3.7-4.7 5.3c-2.1 1.5-4.5 2.6-7.2 3.2-2.7.6-5.5.5-8.2-.2.4 1.9 1 3.5 1.7 4.9l-2.7 2-9.9-13.5 2.7-2c1.9 1.6 3.9 2.9 6 4s4.4 1.6 6.9 1.7 4.8-.7 7.1-2.4c2-1.5 3.2-3.2 3.5-5.1.4-2 0-3.8-1.2-5.4-.7-.9-1.5-1.6-2.4-2s-1.9-.7-3-.7-2.5.1-4.2.3c-1.7.3-3.5.6-5.6 1.1-3.2.6-6 .9-8.4.9s-4.3-.3-5.9-.8c-1.6-.5-2.9-1.1-3.9-1.9-1-.7-1.9-1.6-2.6-2.6-1.3-1.8-2.1-3.8-2.4-6.3-.3-2.4 0-4.8 1.1-7.3 1-2.4 2.7-4.5 5.1-6.3 1.8-1.4 3.9-2.2 6.2-2.6s4.5-.3 6.8.2c-.3-1.1-.8-2.4-1.6-4.1l2.7-2 8.1 11-2.7 2c-6.3-4.5-11.9-5.1-16.7-1.5-1.7 1.3-2.8 2.8-3.2 4.5s0 3.3 1 4.7c.8 1.1 1.9 1.9 3.2 2.2 1.3.4 2.7.4 4.2.2s3.9-.6 7.1-1.3c3.9-.8 7.1-1.3 9.4-1.5 2.4-.2 4.7 0 7 .7 2.3.8 4.2 2.2 5.8 4.4zm26-51.8l-2.5 2.3c-2.3-2-4.3-3.2-6-3.6-1.7-.4-3.1-.3-4.2.3s-2.2 1.4-3.3 2.4l-4.5 4.2 24.4 26.2c1 1 1.8 1.7 2.6 2.1.7.4 1.7.4 2.7 0 1.1-.4 2.4-1.3 3.9-2.7l2.3 2.4-18 16.7-2.3-2.4c2.2-2 3.3-3.7 3.4-4.9 0-1.2-.7-2.6-2.1-4.2l-24.4-26.2-3.8 3.5c-1.5 1.4-2.6 2.7-3.4 3.8-.8 1.2-1 2.6-.8 4.4s1.3 3.8 3.3 6.1l-2.5 2.3-9.4-10.2 35.4-32.9 9.2 10.4zM174.2 733.1l6.7 20.6h21.7L185 766.5l6.7 20.6-17.6-12.8-17.6 12.8 6.7-20.6-17.6-12.8h21.7c.1 0 6.9-20.6 6.9-20.6zM840 733.1l6.7 20.6h21.7l-17.6 12.8 6.7 20.6-17.6-12.8-17.6 12.8 6.7-20.6-17.6-12.8h21.9l6.7-20.6zM601.2 417.7c-13.7-1.4-27.8.2-41.4-1.9-17.7-2.8-33.5-11.7-49.9-18.4-23.5 16.9-51.4 21.6-81.6 15.8-2.3 7.6-3.7 15.5-4.5 23.5h7.5l2.5-7.8 2.5 7.8h8.5l-6.8 5.1 2.6 8.1-6.6-4.9-6.8 4.9 2.6-8.1-6.1-4.5c-.6 7.1-.7 14.2-.3 21.3h7.9l2.5-7.8 2.5 7.8h8.5l-6.8 5.1 2.6 8.1-6.8-4.9-6.8 4.9 2.6-8.1-6.4-4.7c.5 7.6 1.5 15.1 3 22.4h.1c2.9 12.5 7.4 25.9 13.9 39.3v-39.3H456V547c4.6 6.4 9.8 12.6 15.7 18.7v-84.4h15.7v98.8c4.9 4 10.1 7.9 15.7 11.5V481.4h15.7v111.3c3.9-3.1 9.4-7.6 15.7-13.5v-97.9h15.7V563c5.2-5.9 10.5-12.4 15.7-19.6v-62.1h15.7V518c6-11.6 11-24.4 14.4-38.3h-.2c4.8-20.7 5.4-40.8 5.4-62zm-122 54.2l-6.8-4.9-6.8 4.9 2.6-8.1-6.9-5.1h8.4l2.5-7.8 2.5 7.8h8.5l-6.8 5.1 2.8 8.1zm-2.6-30l2.6 8.1-6.8-4.9-6.8 4.9 2.6-8.1-6.9-5.1h8.4l2.5-7.8 2.5 7.8h8.5l-6.6 5.1zm38.5 21.9l2.6 8.1-6.8-4.9-6.8 4.9 2.7-8.1-6.9-5.1h8.4l2.5-7.8 2.5 7.8h8.5l-6.7 5.1zm0-21.9l2.6 8.1-6.7-5-6.8 4.9 2.7-8.1-6.9-5.1h8.4l2.5-7.8 2.5 7.8h8.5l-6.8 5.2zm0-22l2.6 8.1-6.7-5-6.8 4.9 2.7-8.1-6.9-5.1h8.4l2.5-7.8 2.5 7.8h8.5l-6.8 5.2zm41.2 52l-6.8-4.9-6.8 4.9 2.7-8.1-6.9-5.1h8.4l2.5-7.8 2.5 7.8h8.5l-6.8 5.1 2.7 8.1zm-2.7-30l2.6 8.1-6.8-4.9-6.8 4.9 2.7-8.1-6.9-5.1h8.4l2.5-7.8 2.5 7.8h8.5l-6.7 5.1zm31.8-5.2l2.5-7.8 2.5 7.8h8.5l-6.8 5.1 2.6 8.1-6.7-4.9-6.8 4.9 2.6-8.1-6.9-5.1h8.5zm2.6 30.2l-6.8 4.9 2.6-8.1-6.9-5.1h8.4l2.5-7.8 2.5 7.8h8.5l-6.8 5.1 2.6 8.1-6.6-4.9z"/>
</svg>
