<svg xmlns="http://www.w3.org/2000/svg" viewBox="0 0 1024 1024">
  <g id="g1574" transform="matrix(.84592 0 0 -.8523 315.79083 648.78815)">
    <g id="g1576" transform="translate(18.4029 -12.293)">
      <path id="path1578" d="M501.2 186.3c-6.1 7.7-10.4 16.3-5.3 25.4 7-4.2 7.1-15.8 8.8-23.4-1.2-.6-2.3-1.3-3.5-2"/>
    </g>
  </g>
  <g id="g44" transform="matrix(.84592 0 0 -.8523 315.79083 648.78815)">
    <g id="g46" transform="translate(-74.2054 -14.7183)">
      <path id="path48" d="M-299.1 212c2.8 1.1 6.8 4 8.4 3.1 10.6-6.4 21.5-12.7 30.4-21.1 4.1-3.8 4.3-12.1 5.1-18.6.2-1.5-5.7-5.6-7-5-14 7.3-31.2 10.9-36.9 28.7V212z"/>
    </g>
  </g>
  <g id="g50" transform="matrix(.84592 0 0 -.8523 315.79083 648.78815)">
    <g id="g52" transform="translate(51.3386 -7.2318)">
      <path id="path54" d="M785.9 132.8c-1.9-6.2-6-7.1-11.3-4.4-7.1 3.6-14.1 7.3-21 11.2-10.4 5.8-13.4 15.2-12.2 26.4.7 6.4 3.5 8.8 9.8 5.6 14.5-7.3 29.1-14.5 34.7-31.4v-7.4z"/>
    </g>
  </g>
  <g id="g56" transform="matrix(.84592 0 0 -.8523 315.79083 648.78815)">
    <g id="g58" transform="translate(51.3386 -10.6871)">
      <path id="path60" d="M785.9 169.3c-18.8-2.2-43.8 14.6-45.5 31.1-.4 3.6.4 8.4 2.7 10.7 1.4 1.4 6.8-.1 10-1.4 13.4-5.4 26-11.9 32.8-25.7v-14.7z"/>
    </g>
  </g>
  <g id="g62" transform="matrix(.84592 0 0 -.8523 315.79083 648.78815)">
    <g id="g64" transform="translate(-13.5451 51.8931)">
      <path id="path66" d="M225.1-492.1c-.7 2.3-2.5 5.1-1.8 6.7 5.9 12.9 10.3 27.1 24.3 34.5 2.2 1.1 4.6 2.5 6.9 2.5 4.1.1 8.3-.7 12.4-1.2-.6-4-.1-8.5-1.8-12-5.8-11.6-9.6-24.8-23.2-30.5h-16.8z"/>
    </g>
  </g>
  <g id="g68" transform="matrix(.84592 0 0 -.8523 315.79083 648.78815)">
    <g id="g70" transform="translate(-74.2054 -10.8791)">
      <path id="path72" d="M-299.1 171.4c2 .7 4.3 2.5 5.8 1.9 13.9-5.3 28.8-9.4 36.7-23.9 1.1-2.1 2.2-4.6 2.2-6.9.1-3.8-.7-7.6-1.2-11.4-3.8.4-7.9.1-11.3 1.5-12.2 5.2-25.6 9-32.2 22.2v16.6z"/>
    </g>
  </g>
  <g id="g74" transform="matrix(.84592 0 0 -.8523 315.79083 648.78815)">
    <g id="g76" transform="translate(-13.5451 -73.6509)">
      <path id="path78" d="M225.1 834.9c.8-1.9 2.7-4.2 2.2-5.7-5.3-14.7-8.7-30.9-25-38.5-3.5-1.6-7.8-2.8-11.4-2.2-2.3.4-6.3 5.3-5.7 6.6 6.4 14.9 8.1 33.2 27 39.7h12.9v.1z"/>
    </g>
  </g>
  <g id="g80" transform="matrix(.84592 0 0 -.8523 315.79083 648.78815)">
    <g id="g82" transform="translate(-9.322 -73.6509)">
      <path id="path84" d="M261.6 834.9c.5-.8 1.3-1.5 1.5-2.3 3.9-17.5-20.1-44-37.7-42-6.5.7-8.3 4.2-5.7 9.3 6.8 13.9 12.7 28.7 29 34.9l12.9.1z"/>
    </g>
  </g>
  <g id="g86" transform="matrix(.84592 0 0 -.8523 315.79083 648.78815)">
    <g id="g88" transform="translate(-9.322 51.8931)">
      <path id="path90" d="M261.6-492.1c-.8 2.5-3 5.4-2.3 7.3 4.2 10.5 8.1 21.2 13.9 30.7 5.2 8.5 14.9 9 24.1 8 5.4-.6 4.9-4.5 3.4-8.3-5.9-15.1-11.5-30.4-28-37.7h-11.1z"/>
    </g>
  </g>
  <g id="g98" transform="matrix(.84592 0 0 -.8523 315.79083 648.78815)">
    <g id="g100" transform="translate(-26.5495 26.3187)">
      <path id="path102" d="M112.7-221.8c6.6-2.3 13.4-4.1 19.6-7.1 6-2.8 6.6-7.5.4-11-8.3-4.7-16.7-9.3-25.5-12.9-12.5-5.1-24.2-1.4-35.2 5.1-5.2 3.1-6.1 7.3-.3 10.5 12.7 7 25.3 14.5 41 15.4"/>
    </g>
  </g>
  <g id="g104" transform="matrix(.84592 0 0 -.8523 315.79083 648.78815)">
    <g id="g106" transform="translate(-38.7855 -43.3126)">
      <path id="path108" d="M7 514.2c-1.4 15.5 2.8 30.6 18.8 40.1 3.1 1.9 7.2 2.2 10.9 3.2.9-3.4 3-7 2.4-10.1-2-12.2-3.5-24.8-7.8-36.3C29 505 22 500 16.1 495.9c-6.2-4.3-9.3-2.1-9.8 5.6-.1 1.8-.1 3.7 0 5.5.2 1.7.4 3.6.7 7.2"/>
    </g>
  </g>
  <g id="g110" transform="matrix(.84592 0 0 -.8523 315.79083 648.78815)">
    <g id="g112" transform="translate(-12.9745 33.4311)">
      <path id="path114" d="M230.1-297c-1 0-1.3-.1-1.6 0-4.7 1.4-9.5 2.9-14.2 4.4 2.3 4.1 4 8.7 7 12.3 9.3 11.1 19.1 21.6 34.6 24.1 1.2.2 2.5.9 3.6.6 5.2-1 10.4-2.3 15.6-3.5-2.2-4.4-3.9-9.1-6.6-13-3.7-5.2-7.8-10.2-12.4-14.7-7.3-7.2-16.3-10.7-26-10.2"/>
    </g>
  </g>
  <g id="g116" transform="matrix(.84592 0 0 -.8523 315.79083 648.78815)">
    <g id="g118" transform="translate(31.1696 1.2747)">
      <path id="path120" d="M611.6 42.9c0-.4.2-1.7-.2-2.8-2.5-6-5.2-11.9-7.8-17.8-4.2 4-8.7 7.7-12.5 12-3.4 3.9-6.3 8.2-9.1 12.6-7.7 12.4-6.2 25-.6 37.6 2.1 4.7 6 7.2 9.8 2.3 9.9-12.9 19.9-25.8 20.4-43.9"/>
    </g>
  </g>
  <g id="g122" transform="matrix(.84592 0 0 -.8523 315.79083 648.78815)">
    <g id="g124" transform="translate(27.4136 -30.1196)">
      <path id="path126" d="M579.1 374.8c-8.1 1.5-17.3 2.8-26.2 5.1-13.5 3.4-20.6 13.6-25.3 25.8-1.8 4.6-.3 8.6 5.2 8 17.1-2.1 34.5-4.1 47-18 3-3.3 5.4-7.5 7.1-11.7 2.9-7.1.6-9.8-7.8-9.2"/>
    </g>
  </g>
  <g id="g128" transform="matrix(.84592 0 0 -.8523 315.79083 648.78815)">
    <g id="g130" transform="translate(7.6879 27.8781)">
      <path id="path132" d="M408.6-238.3c1.5 8 2.6 17.2 4.9 26 3.5 13.3 13.4 21 26 25 2.1.7 7.5-1.9 7.9-3.8 4.2-18.1-12.4-48.3-29.5-54.8-7.3-2.7-9.8-1-9.3 7.6"/>
    </g>
  </g>
  <g id="g134" transform="matrix(.84592 0 0 -.8523 315.79083 648.78815)">
    <g id="g136" transform="translate(12.6632 23.6881)">
      <path id="path138" d="M451.6-194c-1.2 15.2 3.1 30.1 19.2 39.5 3 1.7 7.5 3.7 9.9 2.6 2.1-.9 3.4-6.3 3-9.4-1.4-11.4-2.1-23.4-6.2-33.9-2.9-7.2-10.6-13.1-17.2-18.3-5.4-4.2-9.2-1.3-9.3 5.5 0 3.9.3 7.8.6 14"/>
    </g>
  </g>
  <g id="g140" transform="matrix(.84592 0 0 -.8523 315.79083 648.78815)">
    <g id="g142" transform="translate(-20.4609 -54.4993)">
      <path id="path144" d="M165.4 632.4c5.5.4 9.3-1.7 7-7.3-6-14.4-12.1-29-26.1-38-1.5-1-3.1-2.4-4.8-2.6-6.4-.8-12.9-1.2-19.3-1.7 1.4 5.4 2.2 11 4.4 16 3.2 7.2 6.6 14.6 11.3 20.9 6.5 9 16.8 11.6 27.5 12.7"/>
    </g>
  </g>
  <g id="g146" transform="matrix(.84592 0 0 -.8523 315.79083 648.78815)">
    <g id="g148" transform="translate(-43.4906 -37.1999)">
      <path id="path150" d="M-33.7 449.6c.1-16-3.2-26.3-11.5-34.6-6.2-6.3-10-5.5-12.2 2.6-2.1 8-4 16-5.4 24.1-2.4 14 3.6 25.1 13.4 34.4 5.3 5.1 9.5 4 11.3-3.2 2.2-9.1 3.5-18.4 4.4-23.3"/>
    </g>
  </g>
  <g id="g152" transform="matrix(.84592 0 0 -.8523 315.79083 648.78815)">
    <g id="g154" transform="translate(-15.0631 -55.4917)">
      <path id="path156" d="M212 642.9c10.8-1.6 13.4-5 7.7-12.9-7-9.9-14.4-20.1-23.7-27.6-6.1-4.9-15.8-5.7-24.1-7.2-4.3-.8-8.9 2.2-5.7 7.2 6.8 10.8 13.5 22.2 22.5 30.9 5.6 5.6 15.4 6.6 23.3 9.6"/>
    </g>
  </g>
  <g id="g158" transform="matrix(.84592 0 0 -.8523 315.79083 648.78815)">
    <g id="g160" transform="translate(26.8866 10.7379)">
      <path id="path162" d="M574.6-57.1c-3.5-8.1-6.2-16.7-10.7-24.4-3.8-6.6-8.2-6-11.1.9-3.6 8.7-7.1 17.6-9.6 26.7-3.5 13 1.6 24 9.8 33.8 4 4.8 8.5 4.3 10.6-1.6 3.9-11.1 7-22.6 11-35.4"/>
    </g>
  </g>
  <g id="g164" transform="matrix(.84592 0 0 -.8523 315.79083 648.78815)">
    <g id="g166" transform="translate(-2.4264 32.5221)">
      <path id="path168" d="M321.2-287.4c-6.3-.2-8.8 2.4-6.4 7.9 4.3 9.4 8.3 19 13.6 27.8 6.7 11.1 18.4 14.6 30.7 15.6 2 .2 6.3-4.1 6.2-6.1-1-17-22.5-41-39.1-44.4-1.8-.5-3.6-.6-5-.8"/>
    </g>
  </g>
  <g id="g170" transform="matrix(.84592 0 0 -.8523 315.79083 648.78815)">
    <g id="g172" transform="translate(-21.0363 27.9981)">
      <path id="path174" d="M160.4-239.6c5-1.3 10.2-2.2 15-4 7.5-2.9 8-6.7 1.4-11.7-6.6-5-13.4-9.9-20.4-14.2-12.4-7.7-25.2-6.3-37.9-.4-5.2 2.4-6.5 6.4-1.9 9.9 12.9 9.6 25.9 19.8 43.8 20.4"/>
    </g>
  </g>
  <g id="g176" transform="matrix(.84592 0 0 -.8523 315.79083 648.78815)">
    <g id="g178" transform="translate(23.4841 -35.0542)">
      <path id="path180" d="M545.1 426.9c-18-1.1-33 3.9-42.4 20.2-1.6 2.9-3 7.2-1.9 9.9.7 1.8 6 3 9 2.5 12-1.8 24.5-3.1 35.8-7.3 6.5-2.4 11.9-9.3 16.4-15.2 4.9-6.6 2.6-9.9-5.7-10.1-3.8-.1-7.5 0-11.2 0"/>
    </g>
  </g>
  <g id="g182" transform="matrix(.84592 0 0 -.8523 315.79083 648.78815)">
    <g id="g184" transform="translate(13.8738 -46.0125)">
      <path id="path186" d="M462.1 542.7c16.7 0 27.4-3.7 35.8-12.7 4.7-5 3.6-8.9-3-10.6-9.2-2.3-18.5-4.7-27.9-5.8-13.3-1.7-23.7 4.7-32.5 13.9-4.8 5-3.4 9.1 3 10.6 9.6 2.2 19.3 3.7 24.6 4.6"/>
    </g>
  </g>
  <g id="g188" transform="matrix(.84592 0 0 -.8523 315.79083 648.78815)">
    <g id="g190" transform="translate(-18.1574 33.1011)">
      <path id="path192" d="M185.3-293.5c-7.5 2.8-13.8 5.2-20.2 7.6 3.7 5.1 6.8 10.8 11.2 15.2 12.1 11.8 26 19.5 43.8 15.8 3.3-.7 6.2-3.2 9.4-4.8-1.8-3-3.2-6.5-5.6-8.9-5.1-5.2-10.2-10.8-16.4-14.7-6.7-4.2-14.5-6.8-22.2-10.2"/>
    </g>
  </g>
  <g id="g194" transform="matrix(.84592 0 0 -.8523 315.79083 648.78815)">
    <g id="g196" transform="translate(-34.8033 -44.9137)">
      <path id="path198" d="M41.4 531.1c4.2 14.7 5.9 28.2 12 39.4 3.8 7.1 13.7 11.3 21.4 16 4.3 2.7 8.8.3 8.1-4.7-2.4-17.1-4.2-34.9-18.6-47.2-3.8-3.3-8.7-5.8-13.6-7.3-2.3-.7-5.6 2.2-9.3 3.8"/>
    </g>
  </g>
  <g id="g200" transform="matrix(.84592 0 0 -.8523 315.79083 648.78815)">
    <g id="g202" transform="translate(-48.6361 -26.3031)">
      <path id="path204" d="M-78.1 334.4c-3.4-8.5-5.9-15.9-9.4-22.8-.7-1.4-6.5-2.3-7.8-1.1-14.7 13-20.7 40.7-12.5 57.2 1.8 3.6 5.3 6.3 8 9.5 2.8-3 6.6-5.5 8.2-9.1 4.8-10.9 8.9-22.2 13.5-33.7"/>
    </g>
  </g>
  <g id="g206" transform="matrix(.84592 0 0 -.8523 315.79083 648.78815)">
    <g id="g208" transform="translate(-33.2439 27.4661)">
      <path id="path210" d="M54.9-233.9c-8.2 4.2-17 8.2-25.2 13.2-1.4.9-1.8 7.3-.3 8.6 12.7 11.5 46.1 13.4 60.1 3.5 2.8-2 4.6-5.3 6.9-8-2.8-2.1-5.4-5-8.6-6.2-10.2-3.8-20.7-7-32.9-11.1"/>
    </g>
  </g>
  <g id="g212" transform="matrix(.84592 0 0 -.8523 315.79083 648.78815)">
    <g id="g214" transform="translate(-43.6486 16.3671)">
      <path id="path216" d="M-35-116.6c-16.8-1.6-31.9 3.2-41.5 19.4-1.7 2.9-3 7-2.4 10 .3 1.5 5.9 2.8 8.9 2.4 11.2-1.3 23.1-1.6 33.4-5.6 7.6-3 14.1-10.4 19.4-17.2 4.8-6 2.5-9-5.6-9.4-1.8-.1-3.7 0-5.5 0-1.9.1-3.7.2-6.7.4"/>
    </g>
  </g>
  <g id="g218" transform="matrix(.84592 0 0 -.8523 315.79083 648.78815)">
    <g id="g220" transform="translate(-54.1794 -22.9986)">
      <path id="path222" d="M-126 299.5c1.9 6.4 3.2 13 5.9 19 .9 1.9 6.6 3.8 8.2 2.8 15.4-9.7 25.2-41.7 18.5-58.5-3.5-8.7-7.3-9.7-12.5-2-7.9 11.9-20 22-20.1 38.7"/>
    </g>
  </g>
  <g id="g224" transform="matrix(.84592 0 0 -.8523 315.79083 648.78815)">
    <g id="g226" transform="translate(30.8116 -25.423)">
      <path id="path228" d="M608.5 325.1c-3.2-2.7-4.8-5.3-6.8-5.6-18.2-2.8-45.6 15.4-50.9 33.8-.9 3-1.7 8.3-.3 9.3 2.5 1.7 7.3 2.1 10.1.8 11.5-4.9 23.5-9.4 33.5-16.6 6.3-4.5 9.3-13.7 14.4-21.7"/>
    </g>
  </g>
  <g id="g230" transform="matrix(.84592 0 0 -.8523 315.79083 648.78815)">
    <g id="g232" transform="translate(28.6946 -12.6817)">
      <path id="path234" d="M590.2 190.4c0 1.8-.4 3.8.1 5.5.8 2.8 1.6 7.3 3.4 7.8 2.6.8 7.1-.4 9-2.4 9.1-9.7 18.9-19.2 25.9-30.4 3.6-5.7 2.2-14.7 2-22.2 0-1.5-6-4.6-6.7-4-12 9.7-27.1 16.7-32 33-1.2 4-1.5 8.4-2.2 12.5.1.2.3.2.5.2"/>
    </g>
  </g>
  <g id="g236" transform="matrix(.84592 0 0 -.8523 315.79083 648.78815)">
    <g id="g238" transform="translate(-51.3652 -14.9895)">
      <path id="path240" d="M-101.7 214.8c0-.6.1-1.3-.1-1.8-2-5.2-4-10.3-6-15.5-4.1 2.9-8.4 5.5-12.1 8.8-3.7 3.2-6.8 7.1-10.2 10.7-10.7 11.7-11.4 25.2-7.2 39.5 1.3 4.5 4.4 7.8 8.7 3.7 13.2-12.5 25.8-25.6 26.9-45.4"/>
    </g>
  </g>
  <g id="g242" transform="matrix(.84592 0 0 -.8523 315.79083 648.78815)">
    <g id="g244" transform="translate(-49.4538 2.4813)">
      <path id="path246" d="M-85.2 30.2c-24.9-2.4-52.8 21.3-53.1 43-.1 4.4 1.4 8.9 6.8 6.7 16-6.3 32.4-12.7 40.7-29.1 3.2-6.2 3.8-13.5 5.6-20.6"/>
    </g>
  </g>
  <g id="g248" transform="matrix(.84592 0 0 -.8523 315.79083 648.78815)">
    <g id="g250" transform="translate(-9.5592 -55.432)">
      <path id="path252" d="M259.6 642.3c2.1-.1 4.3-.1 6.4-.5 5.8-1.1 8.6-4.1 4.3-9.4-6.3-7.9-12.5-15.9-19.7-22.8-9.6-9.3-22.1-9.9-34.5-7.5-2 .4-5 4.9-4.5 6.7 4 15.1 31.5 33.9 48 33.5"/>
    </g>
  </g>
  <g id="g254" transform="matrix(.84592 0 0 -.8523 315.79083 648.78815)">
    <g id="g256" transform="translate(-25.2327 -52.6371)">
      <path id="path258" d="M124.1 612.8c-.3-21.6-17.3-46.5-33.9-51.4-3.2-1-7-.2-10.5-.2 0 3.3-.6 6.6.2 9.7 1.6 6.5 3.7 12.9 5.8 19.2 4.9 14.8 16 22.8 30.9 25.5 2.5.6 5.6-2.1 7.5-2.8"/>
    </g>
  </g>
  <g id="g260" transform="matrix(.84592 0 0 -.8523 315.79083 648.78815)">
    <g id="g262" transform="translate(-1.5215 -49.9111)">
      <path id="path264" d="M329 583.9c-6.5 1.8-13 3.3-19.3 5.6-4.4 1.7-6.6 5.8-2.3 9.2 14.5 11.4 29.4 22.6 49.7 19.9 3-.4 6-1.3 8.9-2.4 8.3-3.3 9.2-7.3 2-12.1-12-7.9-22.3-19.8-39-20.2"/>
    </g>
  </g>
  <g id="g266" transform="matrix(.84592 0 0 -.8523 315.79083 648.78815)">
    <g id="g268" transform="translate(-8.0311 33.3461)">
      <path id="path270" d="M272.8-296.1c-1.7.6-6.3 1-7.2 3.1-1 2.2.8 6.3 2.4 9 4 6.9 8.2 13.7 13 20.1 8.5 11.5 20.9 14.4 34.4 14.1 5-.1 8.3-3.1 5.7-7.7-8.9-15.8-18.2-31.6-37.4-37.2-3-.9-6.2-.8-10.9-1.4"/>
    </g>
  </g>
  <g id="g272" transform="matrix(.84592 0 0 -.8523 315.79083 648.78815)">
    <g id="g274" transform="translate(-42.2396 17.368)">
      <path id="path276" d="M-22.9-127.2c14.6.3 29.6-2.7 40-16.7 4.9-6.6 3.5-9.8-4.8-10.7-8.5-.9-17.1-1.5-25.7-2-14.5-.8-24.3 7.1-32.2 17.9-4.1 5.5-2.3 9.1 4.5 10 5.6.6 11.1.9 18.2 1.5"/>
    </g>
  </g>
  <g id="g278" transform="matrix(.84592 0 0 -.8523 315.79083 648.78815)">
    <g id="g280" transform="translate(32.9096 -14.3041)">
      <path id="path282" d="M626.6 207.6c-.3-.8-.9-4.8-3.1-6.4-1.6-1.1-5.8.6-8.3 2-6.7 3.8-13.1 7.9-19.4 12.2-12.8 8.7-16.6 21.4-15.4 35.9.2 2.1 4.2 5.7 5.9 5.4 17.4-2.5 39.8-28.9 40.3-49.1"/>
    </g>
  </g>
  <g id="g284" transform="matrix(.84592 0 0 -.8523 315.79083 648.78815)">
    <g id="g286" transform="translate(10.356 -49.3498)">
      <path id="path288" d="M431.7 578c8.3-3.8 17.3-7.2 25.5-11.9 4.9-2.8 4.3-7.4-1.3-9.5-9.4-3.7-18.8-7.7-28.5-10-12.5-3.1-23.6 1.7-33.2 9.6-5.1 4.2-5 8.7 1.5 10.9 11.2 3.7 22.6 6.9 36 10.9"/>
    </g>
  </g>
  <g id="g290" transform="matrix(.84592 0 0 -.8523 315.79083 648.78815)">
    <g id="g292" transform="translate(29.4506 6.0545)">
      <path id="path294" d="M596.7-7.6c-3.2-8.3-5.5-15.5-9-22.1-.9-1.7-6.4-3.1-7.8-2-11.4 8.3-19.9 38.6-15.1 52.2.5 1.4.8 3.1 1.7 4.2 2.7 3.5 5.6 6.8 8.5 10.2 2.9-3.2 6.9-5.9 8.6-9.6 4.8-10.7 8.8-21.8 13.1-32.9"/>
    </g>
  </g>
  <g id="g296" transform="matrix(.84592 0 0 -.8523 315.79083 648.78815)">
    <g id="g298" transform="translate(-50.9484 -3.802)">
      <path id="path300" d="M-98.1 96.6c0-12.6-2.8-14.4-11.3-9.4-6.3 3.7-12.6 7.6-18.7 11.7-12.5 8.4-16.4 20.7-16.2 34.9.1 5.2 2.6 9.2 8 6.3 15.3-8.5 30.8-17.2 36.7-35.3 1.1-3.5 1.3-7.2 1.5-8.2"/>
    </g>
  </g>
  <g id="g302" transform="matrix(.84592 0 0 -.8523 315.79083 648.78815)">
    <g id="g304" transform="translate(3.0079 31.3011)">
      <path id="path306" d="M368.2-274.5c-2.9 3.9-5.6 5.8-5.8 8-1.5 18.7 14.5 43.5 32 49.2 3.8 1.2 8.2.5 12.3.6-.1-3.8.8-8-.6-11.3-4.3-10.3-8.1-21.4-14.8-30.1-5.2-6.7-14.4-10.4-23.1-16.4"/>
    </g>
  </g>
  <g id="g308" transform="matrix(.84592 0 0 -.8523 315.79083 648.78815)">
    <g id="g310" transform="translate(-45.967 12.138)">
      <path id="path312" d="M-55.1-71.9c-7.5 1.5-17.3 2.9-26.7 5.6-12.2 3.6-18.7 13.5-22.8 24.7-.7 2 1.8 7.5 3.7 7.9 18.2 4.3 47.8-11.2 54.9-28.1 3.5-8.2 1.9-10.7-9.1-10.1"/>
    </g>
  </g>
  <g id="g314" transform="matrix(.84592 0 0 -.8523 315.79083 648.78815)">
    <g id="g316" transform="translate(32.1416 -19.7394)">
      <path id="path318" d="M620 265c-1.6-1-4.2-4.1-6.6-3.9-18.6 1.2-40.5 19.2-44.5 36.2-.8 3.2-1.3 6.8-.7 9.9.4 1.8 3.4 4.5 5.2 4.5 17.6-.5 42.9-23.6 45.8-41.5.1-.9.3-1.8.8-5.2"/>
    </g>
  </g>
  <g id="g320" transform="matrix(.84592 0 0 -.8523 315.79083 648.78815)">
    <g id="g322" transform="translate(-7.1144 -50.7151)">
      <path id="path324" d="M280.7 592.4c-8.1 3.2-14.4 5.7-20.7 8.2 4 5 7.4 10.6 12 15 11.2 10.8 24.1 18.3 40.5 16 4.2-.6 8-3.5 12-5.4-2.2-3.4-4.1-7.2-6.8-10.1-3.9-4.3-8-8.8-12.9-11.7-7.6-4.7-16-8-24.1-12"/>
    </g>
  </g>
  <g id="g326" transform="matrix(.84592 0 0 -.8523 315.79083 648.78815)">
    <g id="g328" transform="translate(-39.8068 -42.0278)">
      <path id="path330" d="M-1.8 500.6c.8-16-2.4-30.3-15.7-40.9-7.2-5.8-10.8-4.5-12 4.6-1 7.5-1.7 15.1-2.1 22.7-.8 14.8 6.4 25.6 18 33.9 5.3 3.8 9.3 3 10.4-4 .7-5.3.9-10.8 1.4-16.3"/>
    </g>
  </g>
  <g id="g332" transform="matrix(.84592 0 0 -.8523 315.79083 648.78815)">
    <g id="g334" transform="translate(28.4796 -6.959)">
      <path id="path336" d="M588.3 129.9c.5 2.8 1 7.3 2.1 11.7 1.5 6 5.8 9.3 10.3 3.9 8.6-10.5 17.4-21.3 23.2-33.4 3.1-6.5.7-15.9-.2-23.9-.2-1.5-6.2-4.2-6.8-3.6-12.6 12.5-28.4 23-28.6 45.3"/>
    </g>
  </g>
  <g id="g338" transform="matrix(.84592 0 0 -.8523 315.79083 648.78815)">
    <g id="g340" transform="translate(-46.3065 -31.4795)">
      <path id="path342" d="M-58 389.1c-3.8-8.3-7.1-16.9-11.6-24.9-2.5-4.5-7.3-5.3-9.7.6-4 9.9-8.1 19.8-10.5 30.1-2.8 11.8 2.1 22.2 9.5 31.2 4.7 5.7 8.9 5.3 11.5-1.6 4-11.1 6.9-22.5 10.8-35.4"/>
    </g>
  </g>
  <g id="g344" transform="matrix(.84592 0 0 -.8523 315.79083 648.78815)">
    <g id="g346" transform="translate(-52.6072 2.8041)">
      <path id="path348" d="M-112.4 26.7c19.1-6.3 40.3-10.9 47.6-34.4.9-2.9 1.5-7.4-.1-9.3-1.4-1.6-6.1-1.1-9.1-.4-7.1 1.7-14.2 3.9-21.1 6.3-14.5 5-21.6 16.2-24.9 30.4-1.4 5.7 1.2 8.1 7.6 7.4"/>
    </g>
  </g>
  <g id="g350" transform="matrix(.84592 0 0 -.8523 315.79083 648.78815)">
    <g id="g352" transform="translate(-51.556 -8.9432)">
      <path id="path354" d="M-103.4 150.9c0-.5 0-3-.5-5.3-1.3-5.7-4.7-7.2-9.3-3.5-8.1 6.5-16.5 12.9-23.6 20.4-9 9.5-9.3 21.6-6.8 33.6.4 1.8 5.9 4.5 7.9 3.7 16-5.9 32.4-30.4 32.3-48.9"/>
    </g>
  </g>
  <g id="g356" transform="matrix(.84592 0 0 -.8523 315.79083 648.78815)">
    <g id="g358" transform="translate(-37.1385 20.9811)">
      <path id="path360" d="M21.2-165.4c12.1-.8 22.6-4.3 30.9-13 5.5-5.7 4.9-9.1-2.5-11-9.2-2.4-18.5-4.4-27.8-5.7-13.4-1.9-23.7 4.4-32.5 13.7-4.8 5.1-3.4 9 3.1 10.5 9.6 2.1 19.2 3.7 28.8 5.5"/>
    </g>
  </g>
  <g id="g362" transform="matrix(.84592 0 0 -.8523 315.79083 648.78815)">
    <g id="g364" transform="translate(17.3959 -42.394)">
      <path id="path366" d="M492.5 504.5c15.7.6 30.1-2.2 40.5-15.5 5.8-7.4 4.6-10.9-4.6-11.9-8.5-1-17.2-1.7-25.7-1.9-14-.3-23.7 7.4-31.5 18-4.1 5.6-1.7 9.3 4.7 10.2 5.5.7 11.1.7 16.6 1.1"/>
    </g>
  </g>
  <g id="g368" transform="matrix(.84592 0 0 -.8523 315.79083 648.78815)">
    <g id="g370" transform="translate(5.6017 -51.8897)">
      <path id="path372" d="M390.6 604.9c8.8-3.3 16.1-5.6 22.8-9 1.5-.8 2.6-6.4 1.5-7.8-12.2-15-42.2-20.9-59.3-11.8-3 1.6-6.9 4.7-7 7.3-.1 2.4 3.9 6 6.8 7.3 11.6 5 23.6 9.4 35.2 14"/>
    </g>
  </g>
  <g id="g374" transform="matrix(.84592 0 0 -.8523 315.79083 648.78815)">
    <g id="g376" transform="translate(19.9315 17.7078)">
      <path id="path378" d="M514.4-130.8c.9-15.9-1.6-30.6-15.1-41.2-7.4-5.9-10.8-4.8-12 4.3-1.1 7.9-1.8 15.8-2.2 23.7-.8 14.6 6.8 25 18.1 33.2 5.6 4.1 9.4 2.1 10.3-4.4.7-5.2.6-10.4.9-15.6"/>
    </g>
  </g>
  <g id="g380" transform="matrix(.84592 0 0 -.8523 315.79083 648.78815)">
    <g id="g382" transform="translate(23.5706 14.3674)">
      <path id="path384" d="M545.9-95.5c.3-13.9-2.6-25.5-12.3-34.5-5.6-5.2-9-4.5-11 2.9-2.3 8.2-4.1 16.6-5.6 25-2.3 13.6 3.1 24.5 12.8 33.7 5.9 5.6 9.4 4.6 11.8-3 .7-2.3 1.2-4.7 1.6-7.1 1-6.1 1.9-12.1 2.7-17"/>
    </g>
  </g>
  <g id="g386" transform="matrix(.84592 0 0 -.8523 315.79083 648.78815)">
    <g id="g388" transform="translate(14.0869 -63.4903)">
      <path id="path390" d="M463.9 727.5c-3.6.2-5-.1-6 .4-5.3 2.7-10.4 5.7-15.6 8.6 3.4 3.9 6.1 8.7 10.3 11.5 7.5 5 15.7 9.1 23.8 13 2.3 1.1 5.7 1.4 8.1.5 5-1.8 9.6-4.6 14.3-6.9-2.9-3.9-5.4-8.2-8.9-11.5-4.4-4.2-9.3-8-14.6-11.1-4-2.4-8.8-3.5-11.4-4.5"/>
    </g>
  </g>
  <g id="g392" transform="matrix(.84592 0 0 -.8523 315.79083 648.78815)">
    <g id="g394" transform="translate(-66.1549 15.1165)">
      <path id="path396" d="M-229.5-103.4c-11 .1-23.6.7-30.2 14.6-5 10.6-2.9 14.3 8.6 13.4 8.2-.7 17-.5 24.5-3.4 6.6-2.6 13-8 17.4-13.8 5.4-7.1 2.6-11.3-6.3-11.6-4.1 0-8.1.5-14 .8"/>
    </g>
  </g>
  <g id="g398" transform="matrix(.84592 0 0 -.8523 315.79083 648.78815)">
    <g id="g400" transform="translate(-66.3655 -30.2166)">
      <path id="path402" d="M-231.4 375.8c-.5-2.1-.9-5.1-1.9-8-2.2-6.1-6.2-7.8-11.1-3-6.8 6.7-13.5 13.5-19.4 20.9-6.7 8.4-5.4 18-.5 26.7 1.1 2 6.8 4 7.6 3.2 11.5-11 24.7-21 25.3-39.8"/>
    </g>
  </g>
  <g id="g404" transform="matrix(.84592 0 0 -.8523 315.79083 648.78815)">
    <g id="g406" transform="translate(-31.5343 48.4801)">
      <path id="path408" d="M69.7-456.1c-2.1.3-4.5 0-6.4.9-3.7 1.8-7.1 4.3-10.6 6.5 2.1 3.2 3.8 6.8 6.4 9.5 4.4 4.7 8.9 9.6 14.3 12.9 5.3 3.3 11.7 6 17.8 6.6 4.9.4 10.2-2.8 15.3-4.4-2.2-4.3-3.9-9-6.8-12.8-3.3-4.3-7.3-8.5-11.8-11.6-5.3-3.7-11.5-6.2-17.2-9.2-.4.6-.7 1.1-1 1.6"/>
    </g>
  </g>
  <g id="g410" transform="matrix(.84592 0 0 -.8523 315.79083 648.78815)">
    <g id="g412" transform="translate(-4.6734 51.5911)">
      <path id="path414" d="M301.8-488.9c-8-.2-10.8 2.5-9 7.9 3 9.3 5.9 18.7 10 27.5 4.5 9.8 13.8 12.7 23.8 12.5 2.1-.1 6.3-4.4 5.9-5.6-4.1-13.3-6.3-27.8-18.7-36.8-4.1-3-9.3-4.4-12-5.5"/>
    </g>
  </g>
  <g id="g416" transform="matrix(.84592 0 0 -.8523 315.79083 648.78815)">
    <g id="g418" transform="translate(27.1816 -55.2404)">
      <path id="path420" d="M577.1 640.3c-5.2 1.1-8.8.8-11 2.4-4.8 3.5-8.8 8-13.2 12 4.2 3 8 6.7 12.6 8.9 6.1 2.8 12.6 5.6 19.1 6.1 6.4.5 13.4-1.1 19.6-3.3 3.2-1.1 7-5.3 7.1-8.3.1-2.4-4.5-5.9-7.8-7.3-9.1-4.1-18.6-7.5-26.4-10.5"/>
    </g>
  </g>
  <g id="g422" transform="matrix(.84592 0 0 -.8523 315.79083 648.78815)">
    <g id="g424" transform="translate(-39.2653 -64.6424)">
      <path id="path426" d="M2.9 739.7c-.7 12.2.5 25 15.4 31.6 9.2 4.1 12.6 2.1 12.2-7.9-.3-7.9-.5-15.9-1.8-23.7-1.6-9.2-6.8-16.3-15.5-20.4-6.7-3.2-9.7-1.4-10.3 6-.3 4.3 0 8.6 0 14.4"/>
    </g>
  </g>
  <g id="g428" transform="matrix(.84592 0 0 -.8523 315.79083 648.78815)">
    <g id="g430" transform="translate(-4.8451 -68.5295)">
      <path id="path432" d="M300.3 780.7c-4.7 1.8-10.7 2.4-12.4 5.4-1.4 2.5 1.7 8.3 4 11.8 4 6.1 8.4 12.1 13.5 17.3 6.6 6.7 15.1 9.2 24.6 7.6 4.6-.8 8.3-3.2 5.1-8-6.3-9.7-12.8-19.4-20.5-28-3-3.4-9.2-4-14.3-6.1"/>
    </g>
  </g>
  <g id="g434" transform="matrix(.84592 0 0 -.8523 315.79083 648.78815)">
    <g id="g436" transform="translate(46.0836 -2.4071)">
      <path id="path438" d="M740.5 81.8c.6 3.3.3 7.2 2 9.7 1.5 2.1 6.7 4.5 8 3.5 8.9-6.5 17.4-13.4 25.4-20.9 2.5-2.3 4.3-6.5 4.4-9.8.1-5.7-1.3-11.5-2.1-17.2-4.6 1.8-9.5 3.1-13.8 5.5-4.8 2.7-9.8 5.6-13.4 9.6-4.8 5.4-8.3 11.9-12.4 18 .6.6 1.2 1.1 1.9 1.6"/>
    </g>
  </g>
  <g id="g440" transform="matrix(.84592 0 0 -.8523 315.79083 648.78815)">
    <g id="g442" transform="translate(29.8976 -52.6433)">
      <path id="path444" d="M600.6 612.8c-4.3 1.4-8.4 1.7-11 3.9-4.4 3.8-7.8 8.7-11.7 13.1 4.3 2.5 8.4 5.5 12.9 7.3 5.7 2.3 11.7 4.8 17.6 4.9 6.8.1 14-1.6 20.3-4 3.4-1.3 5.5-6 8.1-9.2-3.2-2.5-6-5.8-9.6-7.3-8.7-3.3-17.9-5.8-26.6-8.7"/>
    </g>
  </g>
  <g id="g446" transform="matrix(.84592 0 0 -.8523 315.79083 648.78815)">
    <g id="g448" transform="translate(49.5466 4.1172)">
      <path id="path450" d="M770.4 12.9c-.9-2.2-1.7-7.7-4.5-9.1-2.4-1.2-7.6 1.8-10.9 4-5.3 3.6-10.3 7.8-15.1 12-8.9 7.9-11.7 18.6-7.1 29 1 2.3 6.8 5.2 7.8 4.5 12.2-9 26.2-16.8 29.1-33.7.2-1.6.3-3.1.7-6.7"/>
    </g>
  </g>
  <g id="g452" transform="matrix(.84592 0 0 -.8523 315.79083 648.78815)">
    <g id="g454" transform="translate(-20.1087 51.3671)">
      <path id="path456" d="M168.4-486.6c-5.5 1.2-9.1 1.3-11.9 2.9-1.7.9-3.7 5-3 6.2 7.3 11.9 13.6 24.9 27.5 31.1 1.4.6 3 1.4 4.4 1.3 5.3-.4 10.6-1.2 15.9-1.8-1.5-4.6-2.2-9.7-4.7-13.8-3.9-6.5-8.1-13.2-13.6-18.3-4.2-4-10.6-5.6-14.6-7.6"/>
    </g>
  </g>
  <g id="g458" transform="matrix(.84592 0 0 -.8523 315.79083 648.78815)">
    <g id="g460" transform="translate(13.4962 44.2621)">
      <path id="path462" d="M458.8-411.5c-.7 12.5-.1 25.8 15.4 32.6 9.3 4.1 12.6 2.1 12.2-8-.3-7.3-.5-14.7-1.5-21.9-1.4-9.6-6.4-17.1-15.2-21.8-7.1-3.8-10.4-2.1-10.9 5.8-.2 3.9 0 7.9 0 13.3"/>
    </g>
  </g>
  <g id="g464" transform="matrix(.84592 0 0 -.8523 315.79083 648.78815)">
    <g id="g466" transform="translate(46.3776 -6.2427)">
      <path id="path468" d="M743 122.4c1.9 5.1 2.4 10.9 5.1 12.3 2.6 1.3 8.1-1.1 11.4-3.2 6.9-4.4 14.9-8.6 19.4-15 4.5-6.2 6-14.8 7.3-22.6.7-4.3-3-8-7.9-5.2-9.5 5.5-19.2 11.1-27.6 18.1-4 3.5-5.2 10.4-7.7 15.6"/>
    </g>
  </g>
  <g id="g470" transform="matrix(.84592 0 0 -.8523 315.79083 648.78815)">
    <g id="g472" transform="translate(19.2595 -65.1913)">
      <path id="path474" d="M508.6 745.5c1.2 0 2.7.4 3.7-.1 5-2.5 9.9-5.2 14.9-7.9-3.1-3.7-5.8-8-9.5-11-5.2-4.2-11-7.8-16.9-11-9.9-5.5-19.2-2.8-27.5 3.6-1.8 1.3-2.8 7.3-1.8 8.1 11.2 8.3 21.8 18.1 37.1 18.3"/>
    </g>
  </g>
  <g id="g476" transform="matrix(.84592 0 0 -.8523 315.79083 648.78815)">
    <g id="g478" transform="translate(-65.0102 -33.9779)">
      <path id="path480" d="M-219.6 415.5c-.2-1.5 0-3.8-1-5.6-1.9-3.6-4.4-6.8-6.7-10.2-3.2 2.2-6.8 3.9-9.3 6.6-4.8 5.1-9.4 10.6-13.5 16.3-6.3 8.7-6.3 21.3.1 29.1 1.5 1.8 7.1 3.2 8 2.2 10-10.9 21.6-21.2 22.4-38.4"/>
    </g>
  </g>
  <g id="g482" transform="matrix(.84592 0 0 -.8523 315.79083 648.78815)">
    <g id="g484" transform="translate(-61.2036 25.2289)">
      <path id="path486" d="M-186.7-210.3c-12.6-.1-22.3 5.6-25.6 15.3-.8 2.2 1.6 7.9 3.1 8.1 11.5 1.3 23.2 1.9 34.8 2.3 2.5.1 5.8-1.2 7.5-3 4.2-4.5 7.7-9.6 11.5-14.4-4.9-2-9.6-4.6-14.7-5.8-6-1.6-12.2-1.9-16.6-2.5"/>
    </g>
  </g>
  <g id="g488" transform="matrix(.84592 0 0 -.8523 315.79083 648.78815)">
    <g id="g490" transform="translate(-39.9483 -64.7345)">
      <path id="path492" d="M-3 740.6c1.5-15.1.1-27.3-11-36-2.8-2.2-7.3-3.8-10.6-3.3-1.7.3-3.1 5.9-3.5 9.3-.8 6.9-1.2 14-1.3 20.9-.2 10.5 4.8 18 14 22.9 8.4 4.5 11.7 2.7 12.4-6.8.1-3 0-6 0-7"/>
    </g>
  </g>
  <g id="g494" transform="matrix(.84592 0 0 -.8523 315.79083 648.78815)">
    <g id="g496" transform="translate(41.9386 21.4199)">
      <path id="path498" d="M704.6-170c-.2-1.7.1-3.8-.7-5.2-2.5-4.6-5.5-8.9-8.3-13.3-3.6 3.2-7.8 6.1-10.8 9.8-3.8 4.7-6.9 10-9.8 15.4-5.1 9.6-3.8 21.4 3.6 28.7 1.7 1.7 7.8 2.4 8.6 1.2 7.9-11.2 17-21.9 17.4-36.6"/>
    </g>
  </g>
  <g id="g500" transform="matrix(.84592 0 0 -.8523 315.79083 648.78815)">
    <g id="g502" transform="translate(-68.3858 -22.572)">
      <path id="path504" d="M-248.8 295c-.9-1.9-1.9-7.3-5-9.2-1.9-1.2-7.6 2.2-10.8 4.5-5.9 4.3-11.7 9.1-16.9 14.2-8 7.8-8.5 17.4-4.5 27.2.8 2.1 6.1 4.8 7.1 4 12.4-8.9 26.1-16.8 29.5-33.5.2-1.5.2-3.1.6-7.2"/>
    </g>
  </g>
  <g id="g506" transform="matrix(.84592 0 0 -.8523 315.79083 648.78815)">
    <g id="g508" transform="translate(47.1596 11.2571)">
      <path id="path510" d="M749.8-62.6c-.4-2.2-.5-5-1.3-7.6-2.5-7.9-6.6-9.1-12.6-3.3-6.2 6-12.1 12.2-17.5 18.9-7 8.6-6.1 18.3-1.4 27.6 1 2 6.7 4.3 7.5 3.6 11.4-10.8 24.7-20.6 25.3-39.2"/>
    </g>
  </g>
  <g id="g512" transform="matrix(.84592 0 0 -.8523 315.79083 648.78815)">
    <g id="g514" transform="translate(2.8677 -67.3044)">
      <path id="path516" d="M367 767.8c-1.9.2-3.6 0-4.9.6-3.8 1.7-7.4 3.6-11.2 5.5 1.8 3.6 3.1 7.7 5.6 10.8 4.7 5.6 9.8 11.1 15.6 15.5 7.6 5.9 16.7 8.2 26 4.5 2.2-.9 5.1-6.1 4.5-6.9-8.3-11.2-15.5-23.8-29.6-29.1-2-.8-4.3-.7-6-.9"/>
    </g>
  </g>
  <g id="g518" transform="matrix(.84592 0 0 -.8523 315.79083 648.78815)">
    <g id="g520" transform="translate(6.0474 48.2731)">
      <path id="path522" d="M394.5-453.9c1.2 8 2.1 16.8 4.1 25.4 2.2 9.6 12.3 18 21.9 18.1 2.2 0 6.7-3.8 6.5-5.1-2.6-12.4-5.2-24.9-9.7-36.7-1.6-4.3-7.8-7.6-12.7-9.9-7-3.1-10.4-.2-10.1 8.2"/>
    </g>
  </g>
  <g id="g524" transform="matrix(.84592 0 0 -.8523 315.79083 648.78815)">
    <g id="g526" transform="translate(-32.3474 -66.5464)">
      <path id="path528" d="M62.6 759.8c1.1 6.9 2 15.4 3.9 23.7 2.4 10.9 10.7 16 20.9 18.3 4.7 1.1 8.7-.7 7.9-5.9-1.7-10.5-3.2-21.3-7.2-31-2.4-5.8-8.9-10.8-14.7-14.2-7.8-4.5-11.2-1.6-10.8 9.1"/>
    </g>
  </g>
  <g id="g530" transform="matrix(.84592 0 0 -.8523 315.79083 648.78815)">
    <g id="g532" transform="translate(45.6706 -22.1149)">
      <path id="path534" d="M736.9 290.1c1.3 1 4.4 4.9 6.4 4.4 12.7-3.1 26.1-5.3 35.6-15.6 1.4-1.6 3.3-3.2 3.7-5.1 1.3-5.1 1.9-10.4 2.8-15.6-4.9.1-9.9-.5-14.6.4-6 1.1-11.9 3.2-17.6 5.4-10.6 4.1-15.5 12.4-16.3 26.1"/>
    </g>
  </g>
  <g id="g536" transform="matrix(.84592 0 0 -.8523 315.79083 648.78815)">
    <g id="g538" transform="translate(26.2026 37.4561)">
      <path id="path540" d="M568.6-339.5c-.3-11.7-3.2-20.7-11.6-27.2-4.9-3.8-9.4-3.8-10.9 3.1-2.1 9.5-4.3 19-5 28.7-.8 10.5 5.6 17.6 14.4 22.6 4.6 2.6 8 1.3 9.1-3.6 1.7-8.3 2.9-16.7 4-23.6"/>
    </g>
  </g>
  <g id="g542" transform="matrix(.84592 0 0 -.8523 315.79083 648.78815)">
    <g id="g544" transform="translate(26.2726 34.4801)">
      <path id="path546" d="M569.2-308.1c.2 9.8 5.5 16.3 12.8 21.5 3.8 2.6 8.5 3.2 9.6-2 2.4-11.5 3.8-23.2 5.3-34.9.3-2.2-.6-5.2-2.1-6.8-4.1-4.5-8.8-8.4-13.3-12.6-2.5 4.5-5.6 8.9-7.2 13.7-2.3 6.8-3.4 14-5.1 21.1"/>
    </g>
  </g>
  <g id="g548" transform="matrix(.84592 0 0 -.8523 315.79083 648.78815)">
    <g id="g550" transform="translate(-46.3637 -59.3507)">
      <path id="path552" d="M-58.5 683.7c-.1-12.4-3.1-21.1-11.2-27.5-5.9-4.7-9.6-3.7-11.3 3.4-2.1 8.6-3.8 17.3-4.9 26.1-1.3 11 4.6 18.6 13.6 24.2 5.1 3.2 8.9 2.2 10-4.2 1.5-8 2.8-16.2 3.8-22"/>
    </g>
  </g>
  <g id="g554" transform="matrix(.84592 0 0 -.8523 315.79083 648.78815)">
    <g id="g556" transform="translate(9.8399 46.2501)">
      <path id="path558" d="M427.2-432.5c.7 6.1 1.1 12.2 2.2 18.2 1.8 9.9 10 18.1 19.8 19.2 2.4.3 7.7-3.2 7.6-4.5-1.3-11.7-3.4-23.4-5.5-35-.3-1.7-1.6-3.7-3-4.5-5.8-3.4-11.9-6.4-17.8-9.6-1.4 5.3-2.9 10.5-4.3 15.8.3.2.7.3 1 .4"/>
    </g>
  </g>
  <g id="g560" transform="matrix(.84592 0 0 -.8523 315.79083 648.78815)">
    <g id="g562" transform="translate(-58.6616 25.4946)">
      <path id="path564" d="M-164.8-213.1c12.3-.3 20.7-3.1 26.9-10.9 4-5 3.6-9.2-3.1-10.8-9.5-2.3-19.1-4.6-28.8-5.7-10.6-1.1-17.8 5.3-23.2 13.7-2.8 4.5-1.3 7.8 3.7 8.9 9 2 18.1 3.6 24.5 4.8"/>
    </g>
  </g>
  <g id="g566" transform="matrix(.84592 0 0 -.8523 315.79083 648.78815)">
    <g id="g568" transform="translate(46.6546 -30.2269)">
      <path id="path570" d="M745.4 375.9c-6.4.7-12.9 1.3-19.2 2.3-10.9 1.8-19.3 10-20.4 20.7-.2 2.4 3.4 7.4 4.7 7.3 11.7-1.6 23.4-3.8 35-6.6 3.2-.8 6.6-3.9 8.3-6.9 2.5-4.3 3.6-9.3 5.2-14.1-4.3-1.3-8.7-2.7-13-4-.3.4-.5.8-.6 1.3"/>
    </g>
  </g>
  <g id="g572" transform="matrix(.84592 0 0 -.8523 315.79083 648.78815)">
    <g id="g574" transform="translate(43.8846 18.0575)">
      <path id="path576" d="M721.4-134.5c-.1-1.9.2-3.6-.4-4.9-2.2-4.5-4.8-8.8-7.2-13.2-3.7 2.8-7.9 5.1-10.9 8.5-4.4 5-8.3 10.6-11.8 16.4-5.7 9.4-4.3 18.9 1.8 27.4 1.5 2 8 3.6 8.7 2.7 8.8-11.2 19.5-21.6 19.8-36.9"/>
    </g>
  </g>
  <g id="g578" transform="matrix(.84592 0 0 -.8523 315.79083 648.78815)">
    <g id="g580" transform="translate(49.4116 -22.43)">
      <path id="path582" d="M769.2 293.5c-10.3 2.9-20.9 5-30.8 8.9-9.2 3.6-12.4 12.4-13 21.6-.1 2 4.2 6.5 5.3 6.1 12.4-3.9 25-7.6 36.6-13.4 4.3-2.1 6.6-9.2 8.6-14.5 1.9-5.1-.7-8.3-6.7-8.7"/>
    </g>
  </g>
  <g id="g584" transform="matrix(.84592 0 0 -.8523 315.79083 648.78815)">
    <g id="g586" transform="translate(-68.1741 4.729)">
      <path id="path588" d="M-247 6.4c-13 3.9-24 6.8-34.6 10.6-3.1 1.1-6.5 4.5-7.5 7.6-1.9 5.7-2.2 12-3.2 18 5.3-.3 10.8.5 15.7-1 8.4-2.5 17.2-5.3 24.2-10.2 4.7-3.3 7.3-10.2 9.5-16 .8-2-2.4-5.6-4.1-9"/>
    </g>
  </g>
  <g id="g590" transform="matrix(.84592 0 0 -.8523 315.79083 648.78815)">
    <g id="g592" transform="translate(-.9157 -68.081)">
      <path id="path594" d="M334.3 776c-3 .5-5.8.8-8.4 1.5-8.1 2.1-9.5 5.2-4.4 11.5 5.9 7.4 11.9 14.9 19 21 6.7 5.8 15.4 8.1 24.2 4.9 2.2-.8 5.1-6.1 4.6-6.8-8.4-10.3-17.2-20.3-26.3-29.9-1.9-1.8-5.9-1.5-8.7-2.2"/>
    </g>
  </g>
  <g id="g596" transform="matrix(.84592 0 0 -.8523 315.79083 648.78815)">
    <g id="g598" transform="translate(-1.7662 50.2811)">
      <path id="path600" d="M326.9-475.1c3.5 10.4 6.1 21.1 10.7 31 3.9 8.6 12.8 11.1 21.7 11.2 2 0 6-3.5 5.7-4.8-2.9-14.6-4.6-29.9-17.9-39.7-3.1-2.3-7.1-3.6-10.8-4.8-5.8-1.7-9 .5-9.4 7.1"/>
    </g>
  </g>
  <g id="g602" transform="matrix(.84592 0 0 -.8523 315.79083 648.78815)">
    <g id="g604" transform="translate(-68.2823 .3162)">
      <path id="path606" d="M-247.9 53c-4.2-2.3-7.3-5.6-9.6-5-10.3 2.6-20.6 5.8-30.5 9.8-3.5 1.5-7.1 5.5-8.4 9.2-1.9 5.5-1.7 11.7-2.4 17.6 5.1-.4 10.8.3 15.4-1.5 8.7-3.4 17.5-7.3 24.9-12.8 4.5-3.3 6.4-10 10.6-17.3"/>
    </g>
  </g>
  <g id="g608" transform="matrix(.84592 0 0 -.8523 315.79083 648.78815)">
    <g id="g610" transform="translate(-32.9258 43.4051)">
      <path id="path612" d="M57.6-402.4c2.4-.2 4.4.2 6-.5 3.5-1.5 8.5-2.9 9.7-5.7.9-2.2-2.4-6.9-4.9-9.6-4.6-4.9-9.9-9.2-15.1-13.4-9.3-7.4-20.7-8.5-30-2.3-2.2 1.5-4.3 7.5-3.4 8.3 11.1 10.2 20.9 23 37.7 23.2"/>
    </g>
  </g>
  <g id="g614" transform="matrix(.84592 0 0 -.8523 315.79083 648.78815)">
    <g id="g616" transform="translate(-67.808 8.1386)">
      <path id="path618" d="M-243.8-29.6c-6.5 1.3-15.4 2.4-24 4.7-9.5 2.5-17.1 12.2-17 21.6 0 2.4 4.2 7 5.5 6.7 11.9-2.6 23.9-5.2 35-9.8 4.6-1.9 8.2-8.2 10.5-13.2 3.5-7.6.8-10.5-10-10"/>
    </g>
  </g>
  <g id="g620" transform="matrix(.84592 0 0 -.8523 315.79083 648.78815)">
    <g id="g622" transform="translate(48.4596 7.7393)">
      <path id="path624" d="M761-25.4c-.3-1.3-.8-4.7-1.8-7.8-1.7-5-5.5-6.1-9.3-2.7-8 7.1-16.4 14.1-23 22.4-6.1 7.5-4.5 16.9-.5 25.3.9 1.8 5.2 3.7 7.1 3 11.4-3.9 27.3-26.4 27.5-40.2"/>
    </g>
  </g>
  <g id="g626" transform="matrix(.84592 0 0 -.8523 315.79083 648.78815)">
    <g id="g628" transform="translate(32.2906 33.1331)">
      <path id="path630" d="M621.3-293.8c-3.3-6.3-6.4-13.7-10.8-20.2-3.4-4.9-8.4-4.2-10.5 1.6-3.5 9.7-7 19.5-8.8 29.6-1.7 9.8 3.8 17.7 12 22.8 1.8 1.1 7.8-.6 8.4-2.2 3.6-9.6 6.1-19.6 9.7-31.6"/>
    </g>
  </g>
  <g id="g632" transform="matrix(.84592 0 0 -.8523 315.79083 648.78815)">
    <g id="g634" transform="translate(-39.955 40.1671)">
      <path id="path636" d="M-3.1-368.2c2-.4 5-.2 7.3-1.5 3.8-2.1 7.1-5.1 10.5-7.7-2.6-3.1-4.8-6.8-8-9.2-5.9-4.4-12.1-8.5-18.5-12-9-4.8-20.5-3.4-27.4 3.5-1.8 1.7-2.8 7.4-1.8 8.1 11.1 8.5 21.9 18 37.9 18.8"/>
    </g>
  </g>
  <g id="g638" transform="matrix(.84592 0 0 -.8523 315.79083 648.78815)">
    <g id="g640" transform="translate(-16.3138 51.8921)">
      <path id="path642" d="M201.2-492.1c-6.1 2.2-11.4 2.6-12.8 5.2-1.3 2.4.9 7.3 2.6 10.6 3.2 5.9 6.7 11.7 10.9 17 6.2 7.8 14.4 12.1 24.8 11.7 7.2-.3 10-3.3 6.5-9.8-4.3-8.1-8.4-16.7-14.4-23.4-4.5-5.3-12.1-8-17.6-11.3"/>
    </g>
  </g>
  <g id="g644" transform="matrix(.84592 0 0 -.8523 315.79083 648.78815)">
    <g id="g646" transform="translate(-52.0491 -53.521)">
      <path id="path648" d="M-107.6 622.1c-3.1-6.1-5.9-13.4-10.3-19.6-3.6-5.1-8.7-4.8-11.1 1.8-3.2 9.2-6.6 18.5-8.5 28-2 10 3.4 17.6 11.1 23.6 4.6 3.6 8.3 2.4 10-2.8 3.1-9.5 5.5-19.2 8.8-31"/>
    </g>
  </g>
  <g id="g650" transform="matrix(.84592 0 0 -.8523 315.79083 648.78815)">
    <g id="g652" transform="translate(-54.6559 -50.6875)">
      <path id="path654" d="M-130.2 592.2c-3.3-6.5-6.1-13.5-10.1-19.6-3.1-4.7-7.7-4-10 1.2-4 9.2-8.1 18.5-10.7 28.2-2.5 9.7 2 17.9 9.6 24.3 3.8 3.2 7.8 3.3 9.7-1.6 4.1-10.3 7.4-20.7 11.5-32.5"/>
    </g>
  </g>
  <g id="g656" transform="matrix(.84592 0 0 -.8523 315.79083 648.78815)">
    <g id="g658" transform="translate(40.2396 -40.828)">
      <path id="path660" d="M689.9 487.9c-14.3-.2-23.6 5.5-27.6 16-1.6 4.2-1.7 8.7 3.8 9 11.3.6 22.9 1.5 33.8-.4 6.1-1.1 12.1-6.9 16.5-11.9 4.7-5.4 2.3-9.7-4.9-10.7-7.4-1-15.1-1.4-21.6-2"/>
    </g>
  </g>
  <g id="g662" transform="matrix(.84592 0 0 -.8523 315.79083 648.78815)">
    <g id="g664" transform="translate(-73.9443 -17.847)">
      <path id="path666" d="M-296.8 245c1.6 3.8 2.3 9.4 5 10.7 2.7 1.2 7.8-1.6 11.3-3.5 5.3-3 10.8-6.1 15.2-10.3 4.1-3.9 8.5-8.7 9.9-13.9 1.5-5.6-.3-12.1-.6-18.2-5 1.6-10.2 2.7-14.9 4.9-5 2.3-9.5 5.5-14.1 8.7-7.4 5.1-11.4 12-11.8 21.6"/>
    </g>
  </g>
  <g id="g668" transform="matrix(.84592 0 0 -.8523 315.79083 648.78815)">
    <g id="g670" transform="translate(33.9456 -53.1054)">
      <path id="path672" d="M635.6 617.7c5.9-3.1 13.7-6.4 20.4-11.1 4.6-3.3 4.3-8.5-1.8-10.5-9.6-3.1-19.4-6-29.3-7.7-10.2-1.7-17.5 4.2-23.3 12-3.1 4.2-2.3 7.8 2.7 9.3 9.3 2.7 18.9 4.9 31.3 8"/>
    </g>
  </g>
  <g id="g674" transform="matrix(.84592 0 0 -.8523 315.79083 648.78815)">
    <g id="g676" transform="translate(-61.5812 -40.9868)">
      <path id="path678" d="M-190 489.6c-.3-1.3-.2-3.7-1.1-5.5-2.4-4.3-5.3-8.4-8-12.6-3.5 3.1-7.5 5.7-10.3 9.3-4.1 5.3-7.6 11.2-10.7 17.1-5.2 9.8-2.9 19.2 3.8 27.3 1.5 1.9 8 2.8 8.8 1.7 7.9-11 16.8-21.9 17.5-37.3"/>
    </g>
  </g>
  <g id="g680" transform="matrix(.84592 0 0 -.8523 315.79083 648.78815)">
    <g id="g682" transform="translate(44.8166 -33.8879)">
      <path id="path684" d="M729.5 414.6c-6.1.6-12.3.9-18.3 2-10.2 2-15.6 9.4-18.2 18.6-.6 2.1 2.2 7.4 3.4 7.4 14 0 29 2.5 40.7-7.2 4.9-4 7-11.3 10.5-17.1-5.9-1.6-11.7-3.3-17.6-4.9-.2.4-.3.8-.5 1.2"/>
    </g>
  </g>
  <g id="g686" transform="matrix(.84592 0 0 -.8523 315.79083 648.78815)">
    <g id="g688" transform="translate(-27.6743 49.6461)">
      <path id="path690" d="M103-468.4c-3.8.3-6.1 0-8 .8-3.2 1.4-7.9 2.9-8.8 5.4-.8 2.3 2 6.6 4.2 9.1 4.7 5.6 9.7 11.1 15.3 15.8 7.7 6.4 16.9 8.5 26.8 6 4.6-1.1 8-4.4 4.6-8.5-7.8-9.3-16.3-18-25.2-26.2-2.2-2.1-6.8-1.9-8.9-2.4"/>
    </g>
  </g>
  <g id="g692" transform="matrix(.84592 0 0 -.8523 315.79083 648.78815)">
    <g id="g694" transform="translate(2.2021 49.2851)">
      <path id="path696" d="M361.2-464.6c2 7.7 3.8 18.3 7.4 28.3 3.4 9.2 12 12.9 21.4 13.4 2.1.1 6.5-4 6.2-5.1-3.4-12.2-6.5-24.6-11.9-36-2.2-4.5-9.5-7.1-15-9.4-5-2.3-8.2.3-8.1 8.8"/>
    </g>
  </g>
  <g id="g698" transform="matrix(.84592 0 0 -.8523 315.79083 648.78815)">
    <g id="g700" transform="translate(-59.5709 -44.4578)">
      <path id="path702" d="M-172.6 526.3c-.2-2.4.3-5.3-.8-7.2-2.6-4.6-5.9-8.8-8.9-13.1-3.5 3.4-7.5 6.4-10.3 10.2-3.5 5-6.3 10.5-8.8 16-4.5 10-2.5 22 5.3 28.5 1.9 1.6 8.3 1.7 8.9.5 6.1-11 11.4-22.5 17-33.8-.9-.3-1.7-.7-2.4-1.1"/>
    </g>
  </g>
  <g id="g704" transform="matrix(.84592 0 0 -.8523 315.79083 648.78815)">
    <g id="g706" transform="translate(35.3006 -47.0651)">
      <path id="path708" d="M647.3 553.9c-10.6-.1-17.8 5.4-22.6 13.8-1.2 2 .5 8.3 1.8 8.6 12.7 3 25.4 8.1 38.9 3.9 1.8-.5 3.9-.9 5-2.1 3.9-4.3 7.4-9 11.1-13.6-4.5-2.1-8.8-4.8-13.5-6.1-6.8-2.1-13.8-3.1-20.7-4.5"/>
    </g>
  </g>
  <g id="g710" transform="matrix(.84592 0 0 -.8523 315.79083 648.78815)">
    <g id="g712" transform="translate(-38.7107 45.4561)">
      <path id="path714" d="M7.6-424.1c-1.4.3-4.8.2-7.4 1.6-3.9 2.1-7.2 5.2-10.8 7.9 2.7 3.1 5.1 6.5 8.1 9.3 3.4 3.1 6.9 6.5 11.1 8.2 6.9 2.9 14.3 6.2 21.6 6.4 5.3.2 10.7-4.3 16.1-6.7-3.1-3.9-5.6-8.5-9.4-11.5-8.3-6.5-15.6-15.2-29.3-15.2"/>
    </g>
  </g>
  <g id="g716" transform="matrix(.84592 0 0 -.8523 315.79083 648.78815)">
    <g id="g718" transform="translate(-54.1636 34.2861)">
      <path id="path720" d="M-125.9-306c-4.3 1.5-8.4 1.9-11.1 4-4.4 3.5-7.9 8.1-11.7 12.3 4.4 2.7 8.6 5.9 13.3 8.1 4.4 2.1 9.2 3.9 14 4.4 6 .6 12.7 1.2 18-1 5.4-2.2 9.4-7.7 14-11.7-4.4-2.8-8.5-6.4-13.3-8.3-7.7-3.3-15.7-5.4-23.2-7.8"/>
    </g>
  </g>
  <g id="g722" transform="matrix(.84592 0 0 -.8523 315.79083 648.78815)">
    <g id="g724" transform="translate(19.6604 40.7421)">
      <path id="path726" d="M512.1-374.3c1.1-13.7-.4-25.4-10.9-33.7-2.8-2.2-7.3-4.1-10.6-3.4-1.9.4-3.5 5.9-3.9 9.2-.7 7.3-.5 14.6-.8 22-.4 10.4 4.9 17.3 13.6 22.1 8.5 4.7 12 2.8 12.5-6.6.3-3.6.1-7.3.1-9.6"/>
    </g>
  </g>
  <g id="g728" transform="matrix(.84592 0 0 -.8523 315.79083 648.78815)">
    <g id="g730" transform="translate(-49.86 33.5401)">
      <path id="path732" d="M-88.7-298.1c7-3.2 13.7-5.4 19.3-9.1 4.9-3.2 4.7-7.9-1.2-10.5-8.4-3.8-16.7-7.8-25.5-10.7-10.4-3.4-19.4.5-26.7 8.1-3.2 3.4-4.3 7.6.8 9.7 10.8 4.4 21.7 8.2 33.3 12.5"/>
    </g>
  </g>
  <g id="g734" transform="matrix(.84592 0 0 -.8523 315.79083 648.78815)">
    <g id="g736" transform="translate(20.2034 39.5541)">
      <path id="path738" d="M516.8-361.7c-.9 11.8 4.4 19.9 14.6 25.3 5.7 3 9.7 2.3 10.2-4.9.7-9.7 2.5-19.6 1-29.1-1-6.6-5.8-13.3-10.6-18.4-6-6.3-11.2-4.2-12.6 4.3-1.2 7.6-1.7 15.2-2.6 22.8"/>
    </g>
  </g>
  <g id="g740" transform="matrix(.84592 0 0 -.8523 315.79083 648.78815)">
    <g id="g742" transform="translate(-63.4293 -37.5585)">
      <path id="path744" d="M-206 453.4c-.2-1.6.2-3.7-.6-5.2-2.2-4.1-5-7.9-7.5-11.8-3.4 2.7-7.4 4.9-10.2 8.1-4.2 4.8-7.9 10.1-11.3 15.5-5.9 9.2-5.5 21.6 1.4 29 1.8 1.9 8 3.1 8.8 2 8.6-11.3 19.4-21.7 19.4-37.6"/>
    </g>
  </g>
  <g id="g746" transform="matrix(.84592 0 0 -.8523 315.79083 648.78815)">
    <g id="g748" transform="translate(-8.6996 -68.8327)">
      <path id="path750" d="M267 784c-4.5 1.8-9.6 2.4-11.7 5.2-1.3 1.8 1.1 7.3 3 10.4 4.1 6.8 7.7 14.7 13.7 19.3 6.4 4.8 15.1 7 23.2 9 4.2 1 8.6-2.6 6-7.4-5.7-10.4-11.9-20.7-19.2-29.9-3.1-3.7-9.8-4.5-15-6.6"/>
    </g>
  </g>
  <g id="g752" transform="matrix(.84592 0 0 -.8523 315.79083 648.78815)">
    <g id="g754" transform="translate(37.3646 27.4691)">
      <path id="path756" d="M665.1-234c-.1-2.1.5-4.7-.5-6.3-3.3-5.5-7.1-10.7-10.7-16-3.3 4-7 7.8-9.7 12.2-3 4.9-5.4 10.3-7.4 15.8-3.9 10.5-1 21.9 7.5 28 1.9 1.4 8.1.9 8.7-.4 5.1-10.6 9.4-21.6 14-32.4-.6-.3-1.3-.6-1.9-.9"/>
    </g>
  </g>
  <g id="g758" transform="matrix(.84592 0 0 -.8523 315.79083 648.78815)">
    <g id="g760" transform="translate(-69.5633 8.4975)">
      <path id="path762" d="M-259-33.4c4.9-.9 14.4-.9 22.1-4.7 7.1-3.5 13.1-10.5 17.7-17.2 3.4-5 0-9.6-6.7-9-9.5.9-19 1.7-28.3 3.6-8.9 1.8-13.9 8.4-16.8 16.7-3 8.7-1.3 11 12 10.6"/>
    </g>
  </g>
  <g id="g764" transform="matrix(.84592 0 0 -.8523 315.79083 648.78815)">
    <g id="g766" transform="translate(-68.9859 -18.8728)">
      <path id="path768" d="M-254 255.9c-1.1-2.7-1.8-8-4.4-9.2-2.5-1.2-7.4 1.2-10.5 3.1-6 3.7-11.8 7.8-17.2 12.2-8.7 7-12 18.2-7.8 28 1 2.3 6.6 5.3 7.7 4.6 11.7-8 25.5-14.3 30.2-29.4.8-2.7 1.2-5.4 2-9.3"/>
    </g>
  </g>
  <g id="g770" transform="matrix(.84592 0 0 -.8523 315.79083 648.78815)">
    <g id="g772" transform="translate(-57.0869 -47.6903)">
      <path id="path774" d="M-151.2 560.5c-3.4-7.1-5.6-13.4-9.1-18.9-3-4.7-7.7-4.2-10.2.8-4.5 9-9.1 18-12.3 27.5-3.2 9.6.8 18.2 8.4 24.5 1.7 1.5 8.1 1 8.7-.4 5.3-10.8 9.7-22.1 14.5-33.5"/>
    </g>
  </g>
  <g id="g776" transform="matrix(.84592 0 0 -.8523 315.79083 648.78815)">
    <g id="g778" transform="translate(12.3531 -68.7076)">
      <path id="path780" d="M448.9 782.6c3.2-.2 5.3.1 6.8-.6 3.5-1.6 8.5-3.1 9.4-5.8.8-2.4-2.6-6.9-5.1-9.5-4.9-5-10.3-9.6-15.9-13.9-8.8-6.8-20.4-7.5-29.3-1.4-2.1 1.4-4.2 6.9-3.4 7.6 11.1 10.7 21.3 23.2 37.5 23.6"/>
    </g>
  </g>
  <g id="g782" transform="matrix(.84592 0 0 -.8523 315.79083 648.78815)">
    <g id="g784" transform="translate(35.0356 30.4011)">
      <path id="path786" d="M645-265c-3.3-6.9-5.6-13.5-9.4-19.1-3.5-5.2-8.5-5.1-11.2 1.3-3.7 8.7-7.4 17.5-10.1 26.5-2.7 9.1 2.2 20.9 10.4 25.5 2 1.1 7.6.2 8.1-1.2 4.5-10.5 8.1-21.4 12.2-33"/>
    </g>
  </g>
  <g id="g788" transform="matrix(.84592 0 0 -.8523 315.79083 648.78815)">
    <g id="g790" transform="translate(-18.268 -73.5061)">
      <path id="path792" d="M184.3 833.4c9.8-1.9 11.4-3.7 8.5-11.8-2.8-8-5.7-16.1-9.7-23.6-4.6-8.5-12.4-13.4-22.2-14.5-5-.6-8.5 1.8-6.9 6.7 3.5 10.9 6.7 22.4 12.6 32.1 3.2 5.2 11.6 7.4 17.7 11.1"/>
    </g>
  </g>
  <g id="g794" transform="matrix(.84592 0 0 -.8523 315.79083 648.78815)">
    <g id="g796" transform="translate(-28.849 -67.3433)">
      <path id="path798" d="M92.9 768.2c2.5 10.1 4.2 20.4 7.6 30.1 3.4 9.7 12.1 13.6 21.9 14.1 2.1.1 6.6-4 6.3-5.2-3.2-11.9-6.2-24.2-11.6-35.2-2.4-4.8-9.9-7.7-15.6-10.3-5.2-2.3-8.1.8-8.6 6.5"/>
    </g>
  </g>
  <g id="g800" transform="matrix(.84592 0 0 -.8523 315.79083 648.78815)">
    <g id="g802" transform="translate(-55.7201 28.3321)">
      <path id="path804" d="M-139.4-243.1c9.4-.9 17.1-3.9 23.1-11 3.7-4.4 3.1-8.3-2.3-10-9.6-3-19.4-6-29.4-7.7-10.1-1.7-17.6 3.9-23.4 11.9-3 4.1-2.5 7.9 2.5 9.4 9.9 2.8 19.7 5 29.5 7.4"/>
    </g>
  </g>
  <g id="g806" transform="matrix(.84592 0 0 -.8523 315.79083 648.78815)">
    <g id="g808" transform="translate(-74.0464 -6.4066)">
      <path id="path810" d="M-297.7 124.1c-.2 3.6.6 8.9 6.7 6.4 11.4-4.8 22.3-10.8 33.2-16.7 1.9-1.1 3.8-3.6 4.3-5.8 1.1-5.4 1.3-11.1 1.9-16.6-4.9.5-9.9.3-14.6 1.5-5.6 1.4-11 3.8-16.3 6.1-10.4 4.6-15.3 12.8-15.2 25.1"/>
    </g>
  </g>
  <g id="g812" transform="matrix(.84592 0 0 -.8523 315.79083 648.78815)">
    <g id="g814" transform="translate(36.5176 22.7419)">
      <path id="path816" d="M657.8-184c.2 1.8-.3 4.1.6 5.4 3.4 5.2 7.3 10.1 11 15.1 3.4-3.8 7.5-7.3 10.2-11.6 6.2-9.9 11.8-20.3 8.5-32.7-.7-2.6-1.6-5.3-2.9-7.7-4.7-8.2-9.2-8.5-13.9-.2-5.6 10-10.4 20.4-15.5 30.6.7.4 1.3.8 2 1.1"/>
    </g>
  </g>
  <g id="g818" transform="matrix(.84592 0 0 -.8523 315.79083 648.78815)">
    <g id="g820" transform="translate(37.7346 -44.0246)">
      <path id="path822" d="M668.3 521.7c-11.4-.5-18.7 5.6-23.9 14.6-2.5 4.4-2.1 8.9 3.9 9.6 10.3 1.2 20.8 1.9 31.2 2.1 3.4.1 7.8-1.2 10.2-3.5 4.4-4.2 7.7-9.5 11.4-14.4-4.9-2-9.6-4.5-14.6-5.7-5.9-1.5-12.1-1.8-18.2-2.7"/>
    </g>
  </g>
  <g id="g824" transform="matrix(.84592 0 0 -.8523 315.79083 648.78815)">
    <g id="g826" transform="translate(45.6246 14.6641)">
      <path id="path828" d="M736.5-98.6c-.2-2.4.1-4.8-.8-6.6-1.6-3.4-3.3-8.3-6.1-9.2-2.3-.8-6.9 2.6-9.4 5.2-5.1 5.3-9.6 11.1-14 16.9-6.9 9.2-6.1 19-.3 28.2 1.3 2.1 7.6 3.8 8.4 2.9 10-11 21.8-21.1 22.2-37.4"/>
    </g>
  </g>
  <g id="g830" transform="matrix(.84592 0 0 -.8523 315.79083 648.78815)">
    <g id="g832" transform="translate(48.0906 -26.4098)">
      <path id="path834" d="M757.8 335.5c-6.5 1.2-15.4 2.2-24 4.6-10.5 3-16.1 11-17.1 21.6-.2 2.2 3.8 7.1 5.1 6.9 11.3-2.2 23-4.2 33.5-8.6 5.2-2.2 9.3-8.7 12-14.2 4-7.8 1.5-10.6-9.5-10.3"/>
    </g>
  </g>
  <g id="g836" transform="matrix(.84592 0 0 -.8523 315.79083 648.78815)">
    <g id="g838" transform="translate(-46.745 36.1061)">
      <path id="path840" d="M-61.8-325.3c2.4-.2 5.3.3 7.3-.7 4.9-2.7 9.4-6.1 14.1-9.2-3.7-3.5-7-7.7-11.2-10.4-5.1-3.3-10.8-5.8-16.5-8.1-10.6-4.2-19.9-1.3-28 6.1-3.5 3.1-4.8 7.2.2 9.7 10.9 5.3 22.1 9.9 33.1 14.8.4-.8.7-1.5 1-2.2"/>
    </g>
  </g>
  <g id="g842" transform="matrix(.84592 0 0 -.8523 315.79083 648.78815)">
    <g id="g844" transform="translate(-49.3197 -56.4816)">
      <path id="path846" d="M-84 653.4c-.3-9.3-3.4-17-10.2-23.1-5-4.5-9.5-4.5-11.6 2.9-2.4 8.8-5.1 17.6-6.5 26.6-1.7 10.5 3.8 18.1 12.1 24 5.1 3.6 8.9 2.2 10.4-3.6 2.2-8.9 3.9-17.9 5.8-26.8"/>
    </g>
  </g>
  <g id="g848" transform="matrix(.84592 0 0 -.8523 315.79083 648.78815)">
    <g id="g850" transform="translate(-43.4374 38.2561)">
      <path id="path852" d="M-33.2-348c2-.1 4.2.4 5.7-.4 4.9-2.7 9.5-5.8 14.2-8.8-3.4-3.5-6.3-7.6-10.2-10.4-5.2-3.7-10.9-6.8-16.7-9.6-10-4.7-19.2-2.2-27.5 4.2-3.6 2.8-5.7 6.9-1 9.7 11 6.7 21.5 15.4 35.5 15.3"/>
    </g>
  </g>
  <g id="g854" transform="matrix(.84592 0 0 -.8523 315.79083 648.78815)">
    <g id="g856" transform="translate(25.4123 -61.0588)">
      <path id="path858" d="M561.8 701.8c7.5-3 13.5-4.5 18.6-7.5 5.5-3.3 5.6-8-.4-11.3-7.8-4.2-15.7-8.5-23.9-11.8-9.6-4-21.6-1.1-27.8 6.7-1.5 1.9-1.2 8.1 0 8.7 11.1 5.6 22.6 10.3 33.5 15.2"/>
    </g>
  </g>
  <g id="g860" transform="matrix(.84592 0 0 -.8523 315.79083 648.78815)">
    <g id="g862" transform="translate(22.6166 -63.1288)">
      <path id="path864" d="M537.6 723.7c1.9-.2 4.4.2 6.1-.8 4.3-2.5 8.2-5.6 12.3-8.5-3.1-3.4-5.8-7.3-9.5-9.9-5.2-3.8-10.9-6.9-16.7-9.7-10.1-4.8-21.9-2.9-28.9 4.8-1.6 1.8-2.1 7.5-1 8.2 11.6 7.2 22.6 16.2 37.7 15.9"/>
    </g>
  </g>
  <g id="g866" transform="matrix(.84592 0 0 -.8523 315.79083 648.78815)">
    <g id="g868" transform="translate(-25.3446 -68.0462)">
      <path id="path870" d="M123.2 775.6c4.7 13.2 8.3 24.5 12.9 35.4 1.2 3 5.1 5.8 8.3 6.8 5.4 1.5 11.2 1.5 16.8 2.1-.2-4.9.5-10-.8-14.6-2.2-7.5-4.3-15.8-9.1-21.7-4.4-5.5-11.9-8.9-18.6-12.1-1.8-.9-5.7 2.3-9.5 4.1"/>
    </g>
  </g>
  <g id="g872" transform="matrix(.84592 0 0 -.8523 315.79083 648.78815)">
    <g id="g874" transform="translate(-64.0304 19.2868)">
      <path id="path876" d="M-211.2-147.5c13.1 2.1 25.4.6 34.1-10.6 1.9-2.4 3.7-6.6 2.8-8.9-.8-2.1-5.2-3.7-8.2-4.1-7.6-1.1-15.3-1.5-23-1.9-11.2-.6-18.6 5.2-23.6 14.5-3.8 7-2.1 10.2 5.9 11 4 .4 8 0 12 0"/>
    </g>
  </g>
  <g id="g878" transform="matrix(.84592 0 0 -.8523 315.79083 648.78815)">
    <g id="g880" transform="translate(51.3196 -15.4741)">
      <path id="path882" d="M785.7 219.9c-.9-7.3-3.5-10.2-10.2-7.7-8.3 3.1-16.8 5.9-24.9 9.6-9.6 4.5-15.3 14.9-13.4 24.9.5 2.4 5.5 6.3 6.6 5.8 11.3-5.2 22.8-10.3 33-17.2 4.5-3 6.1-10.1 8.9-15.4"/>
    </g>
  </g>
  <g id="g884" transform="matrix(.84592 0 0 -.8523 315.79083 648.78815)">
    <g id="g886" transform="translate(6.5476 -66.32)">
      <path id="path888" d="M398.8 757.4c-1.8.1-3.9-.2-5.5.5-3.8 1.7-9.2 3.1-10.4 6.1-1 2.3 2.7 7.3 5.3 10.2 4.5 4.9 9.3 10.2 15 13.4 5.9 3.3 13 5.5 19.8 6 4.1.3 8.6-3.4 12.9-5.3-2.2-3.8-3.9-8-6.7-11.3-3.7-4.5-7.7-8.9-12.4-12.2-5.3-3.7-11.4-6.1-17.2-9.1-.2.5-.5 1.1-.8 1.7"/>
    </g>
  </g>
  <g id="g890" transform="matrix(.84592 0 0 -.8523 315.79083 648.78815)">
    <g id="g892" transform="translate(-32.7503 -68.3726)">
      <path id="path894" d="M59.2 779.1c-.8-5.2-.6-14.6-4.1-22.4-3.1-7-9.5-13.1-15.7-17.8-4.9-3.7-10.4-2.1-10 5.9.5 9.1.9 18.3 2.2 27.3 1.4 9.8 8.3 15.3 17.2 18.5 7.9 2.7 10.6.6 10.4-11.5"/>
    </g>
  </g>
  <g id="g896" transform="matrix(.84592 0 0 -.8523 315.79083 648.78815)">
    <g id="g898" transform="translate(-46.0276 -61.7286)">
      <path id="path900" d="M-55.6 708.9c-.5 11.4 5 19.2 14.8 24.4 5.7 3 9.7 2 10.3-4.9.7-9.7 1.5-19.4 1.2-29.1-.2-4.3-2.1-9.3-5-12.4-3.7-3.9-9.2-6.1-13.9-9.1-1.7 4.6-3.9 9.1-5 13.9-1.3 5.6-1.7 11.4-2.4 17.2"/>
    </g>
  </g>
  <g id="g902" transform="matrix(.84592 0 0 -.8523 315.79083 648.78815)">
    <g id="g904" transform="translate(-23.9411 50.6041)">
      <path id="path906" d="M135.3-478.5c-3.8.5-6.3.5-8.7 1.1-8.3 2-9.9 5.6-4.6 12.1 5.5 6.9 11.1 13.9 17.6 19.8 6.9 6.3 15.8 8.6 24.9 5.8 2.2-.7 5.4-6.4 4.7-7.2-7.5-9.9-15.4-19.6-24-28.5-2.3-2.4-7.3-2.4-9.9-3.1"/>
    </g>
  </g>
  <g id="g908" transform="matrix(.84592 0 0 -.8523 315.79083 648.78815)">
    <g id="g910" transform="translate(-67.3887 -26.582)">
      <path id="path912" d="M-240.2 337.4c-2-4.2-3-9.8-6.3-12.2-1.7-1.2-8 2.4-11.3 5-5.3 4.1-10 9-14.7 13.8-8 8.3-8.3 18-4 27.9 1 2.2 5.2 4.8 7.3 4.4 10.9-2.6 27.7-26.5 29-38.9"/>
    </g>
  </g>
  <g id="g914" transform="matrix(.84592 0 0 -.8523 315.79083 648.78815)">
    <g id="g916" transform="translate(-64.0682 18.5187)">
      <path id="path918" d="M-211.5-139.4c-15.7-1.8-28.3-.1-35.1 14.4-3.9 8.3-2.1 11.6 6.8 11.5 9.4-.2 19.3.4 28.2-2.1 6.4-1.8 12.6-7.3 17-12.7 5.2-6.5 2.6-10.7-5.7-11.1-4.4-.2-8.7 0-11.2 0"/>
    </g>
  </g>
  <g id="g920" transform="matrix(.84592 0 0 -.8523 315.79083 648.78815)">
    <g id="g922" transform="translate(42.9186 -37.5336)">
      <path id="path924" d="M713.1 453.1c-19.3-1.8-28.3 2.3-34 14.9-3.5 7.8-1.7 11 6.7 10.9 9.5-.1 19.4.6 28.2-2 6.7-2 13-7.7 17.6-13.3 4.9-5.9 2.1-10.1-5.7-10.5-4.2-.2-8.5 0-12.8 0"/>
    </g>
  </g>
  <path d="M523.7 655.2c.1 0 0 0 0 0zM806.7 615c-9.2-34.9-19.1-69.7-28.5-104.6-7.7-28.6-13.5-57.9-23-85.9-12.4-36.7-27.3-72.6-41.7-108.6-5.9-14.8-15.3-27.2-30.2-34.5-21.5-10.6-45.4 1.7-49 25.3-2.1 13.4-3.4 27-6.5 40.1-4.5 19.1-15.1 34.8-31.6 45.9-6.9 4.6-13.5.6-14-7.6-.2-3-1.4-5.9-2.2-8.9-8.2-29.3-16.3-58.7-24.4-88-1.5-5.4 1.1-7.7 6.4-8 2.9-.2 5.6-1.1 10.7-2.1-4.2-3.1-6.2-4.9-8.5-6.4-8.2-5.5-16.7-10.6-24.7-16.4-9.1-6.6-17.8-13.7-26.6-20.6-4.9-3.8-9.9-4.7-16.1-3.5-3.6.7-7.7-.8-11.4-2-6.9-2.3-13.4-6.4-20.4-7.2-16-1.7-25 10.9-18.7 24.1 4.4-.7 8.7-1.4 15.4-2.5-7.6 10.1-3.7 16.7 1.8 22.7 3.8 4.3 8 8.3 12.2 12.2 11.4 10.7 13.5 23.9 5.2 37.3-3.7 5.9-8.7 11.1-13 16.6-9.2 11.7-18.6 23.1-27.1 35.3-3.1 4.4-3.5 10.6-5.4 15.9-1.3 3.7-3 7.3-4.5 11-1-.2-1.9-.4-2.9-.6-.8-2.3-1.5-4.6-2.3-6.9-9.9-28.8-19.5-57.7-29.8-86.3-4-11.1-13.4-17.1-24.3-20.4-15.5-4.7-34.6 1.3-44.5 15.2-7.3 10.1-13.2 21.2-18.8 32.4-19.3 38.7-29.8 80.4-42.3 121.5-14.2 46.5-28.2 93.1-42.4 139.6-1.7 5.7-4.4 11.1-5.9 16.9-.8 3.2.1 6.8.2 10.2 3.8-.3 7.6-.4 11.3-1.2 1.8-.5 3.5-2.2 5-3.6 5.2-5 8.4-13 17.8-11.5.9.1 2-1.6 3.1-2.3 9.1-5.4 18.3-10.9 27.4-16.3.2-.1.5-.2.7-.3 4.2-2.8 8.9-4.9 12.3-8.4 5.5-5.7 9.3-12.9 17.8-15.6 2.7-.9 4.3-4.9 6.7-7.3 3.1-3.1 6.1-6.4 9.6-8.8 7-4.7 14.1-9.1 21.4-13.3 2.7-1.5 5.9-2.8 8.9-3.1 15.3-1.5 28.2 7.4 42.6 10.2.9.2 1.9.8 2.7 1.4 4.2 3 8.3 6 13.8 10 .8 3.3 3.2 8.5 3 13.7-.5 14.9-2.2 29.7-3.2 44.6-.2 1.8.5 3.7 1 5.4 1.4 4.6 3.3 9.1 4.1 13.8 2.4 13.2 4.4 26.4 6.3 39.7.4 3 .1 6.3-.5 9.3-.9 4.9-2.9 9.5-9 8.7-5.6-.7-12.2 0-13.1-8.9-1.1-11.3-7.5-20.1-15.4-29-2.3 7.1-4.4 13.4-5.8 17.6-5.8-9.5-12.6-20.4-19.3-31.2-.8.3-1.5.5-2.3.8-.6 4.4-1.2 8.7-1.9 13.6-7.1-8-12-17.3-23.7-19.9 2.7 7.2 5.1 13.4 7.7 20.1-15.1-5.3-9.4-20.6-16.8-31.4-3.9 8.7-7 15.8-10.3 23.2-6.5-8.1-10.8-19.2-25.1-16.7 1.9 5.7 3.6 10.7 4.7 13.9-9.9-4.2-20.4-8.6-30.9-13-.7.6-1.4 1.2-2.2 1.8 3.6 9.1 7.1 18.3 10.7 27.4-3.4 1.6-7.4 3.3-11.6 5.2 5 12.9 15.7 12 26.1 12.2-2 3.3-3.7 6-6.4 10.3 8.8 2.3 16.2 4.4 23.9 6.4-2.4 3.6-5.1 7.6-8.7 13.1h24.4c-2.8 6.8-5.3 13.1-8.7 21.4 8.7-1.5 16.6-1.5 23-4.6 7.6-3.7 14.2-4.4 21.9-1.2-1.1 3.3-2.2 6.7-3.9 12 6-2.4 10.6-4.3 12.9-5.2 6.1 4.1 10.8 8.5 16.4 10.6 3.3 1.2 6.2 1.3 8.5 4.9 1.7 2.6 5.6 3.7 7.7 5 6.6-8.3 2.9-19.2 14.3-26.3.5 6.3 1.8 10.8.9 14.7-3.7 15.4 1 22 16.4 21.7 4.2 10.6 9.2 12.8 20.7 9.3 7.3 9.7 9.8 10.3 20.1 5.3 9.6 8.9 12.8 9.3 22.6 2.9 4.6 6.4 9.6 7.8 14.4.3 11.9 6 13.6 5.9 20.2-.6 3.3.7 6.2 2.1 8.9 1.8 5.9-.6 11.8-1.5 17.5-3.1 8-2.3 16.4-4.4 23.3-8.6 4.2-2.6 5.1-10.7 9.3-13.5 4.4-3 11.3-2 16.7-3.8 3.1-1 5.8-6.2 8.2-5.9 8 1 10.8-3.4 12.9-10.3 9.4 4.8 18.3 9.4 27.8 14.2-3.3 3.7-6.3 7.1-10 11.3 14 .9 26.3 1.6 40.3 2.5-8.2-10.9-15.2-20.1-22.7-30-1.8 4.5-3.2 7.9-4.8 11.9-8.7-4.3-16.8-8.5-25-12.3-5-2.3-7.2-5.7-6-11.6h41.3c-.6 3.9-1.1 7.6-1.8 12.4 13.5-4.7 26.1-9 40.4-14-13.4-6.5-25.2-12.3-37.9-18.5v15.2c-13.7 0-27 .3-40.2-.2-4-.2-8-2.5-12-3.9l.3-2.7c10.4-6.1 20.9-12.2 31.7-18.5 1.8 4.2 3.3 7.7 5.2 12.1 8.7-11.4 16.9-22.1 26.2-34.3-15.1 2-28.1 3.7-42 5.6 2.9 4.6 5.3 8.4 7.9 12.5-11 6.5-21.4 12.4-31.7 18.6-4.7 2.9-7.1 1.3-8.6-3.5-2.3-7.2-5-14.3-7.2-21.5-.6-1.9-1.2-4.8-.2-6 7.3-8.7 2.6-17.1.3-25.8-1.2-4.5-.7-9.6-.2-14.4.5-4.5 2.1-8.9 2.8-13.4.5-3.3-.5-7.1.8-10 3.9-8.7 2-16.9-.5-25.2-1.8-6-3.5-12-5.5-17.9-1.7-4.8-.2-7.6 4.1-10.3 5.6-3.5 11.8-6.9 15.8-11.9 7-8.8 15.8-14.6 25.7-19.2 1.8-.9 4-1.2 6.1-1.4 4.2-.5 8.3-.7 13-1.1 2.4 9.4 11.5 5 18.4 6.1.5 1.7 1 3.2 1.4 4.7 2.2 8.7 3.9 19.1 12.9 22 9.4 3 11 9.5 13.6 16.6 2 5.6 4.2 11.3 7.1 16.5 1.5 2.8 4.5 6.5 7 6.6 7.7.4 10.5 5.5 13.7 10.9 1.7 3 4 5.5 5.9 8.3 3.6 5.2 8.1 6.9 14.2 4.7 1.9-.7 4.8-.8 6.4.2 9 5.7 17.3 12.5 26.6 17.4 4.1 2.2 10.5 1.9 15.1.3 1.9-.7 3.1-8 2.1-11.6zm-140 118.2c2.9 3.8 6 7.9 10.2 13.6-7.2-.7-12.5-1.1-17.3-1.5 2.4-4.1 4.6-7.9 7.1-12.1zm8.5-35.7c6.8 3.2 12.7 6.1 20.7 10-8.1 2.7-14.3 4.9-20.7 7.1v-17.1zm-4.3-34c-5.5 7.2-9.6 12.4-13.8 18-2.9-4.9-5.4-9.4-8.5-14.7 7-1.1 13.7-2.1 22.3-3.3zm-179-354.7c7.1-23.9-14-31.8-24.5-48.8 6.3 1.3 12.4 2.6 18.7 3.8-9.5-11.8-15.8-26.8-33.2-27.7 4.3-12.4 14.2-7.5 23.3-4 5 2 9.4 5.2 15 5.5 8.3.5 8.3-4.3 15.6.2 7.5 4.7 10.4 15.7 18.3 20.7 8 5.1 19.3 10.8 28.1 14.7-14.5 4.3 12.6 84.4 14.3 97.7-4.7-6.4-9.6-12.8-14.4-19.3-1.4 4.6-3.1 9.6-5.2 16.3-2.5-4.6-4.3-8-7-13.1-1.6 7.2-2.9 13-4.1 18.8-.3.1-.8.2-1.1.3-1.3-5.7-2.5-11.4-3.9-17.5-1.6.3-3.2.6-4.9.9-.9-3.2-1.7-6.2-2.8-10.1-3 3.8-5.8 7.1-8.4 10.4-.8-.1-1.7-.3-2.5-.3-.8-14-.1-28-5.1-41.3-3.4 15.3 5 30.3-6.9 42.4-.8-1-1.9-2.2-3.2-3.8-2.1 2.2-4.1 4.3-6.9 7.3-.7-3.4-1.3-6.2-2.1-10.4-5.2 5.9-9.6 10.8-15 16.7-.5-3.8-.8-6.2-1.4-9.3-7.9 4.3-15.5 8.6-23 12.8-.8-.3-1.3-.5-1.9-.8 13.5-18 37.6-40.3 44.2-62.1zm52.5 89.9c-1 .6-1.9 1.2-3 1.8-5.4-4.3-10.9-8.7-16.3-13 .7-.6 1.3-1.4 1.9-2.1 4.1 3.3 8 6.6 13.4 11 .8-4.7 1.4-7.8 1.9-10.9.4 0 .8-.1 1.3-.1.2 4.4.5 8.9.8 13.3zM493.9 381c-5.1 8.1-8.6 16.4-19.1 20.9-.7-4.2-1.2-6.8-1.7-10.1 13.3 7 12.5-8.5 20.8-10.8zm-96.2-40.2h1.1c.2 3.5.3 7.1.5 11.3 2.1-.7 3.8-1.3 7.4-2.5-3 4-4.9 6.6-6.8 9.1-.8-.2-1.5-.3-2.3-.5v-17.4zm.9 115.9c1 2.8 1.9 5.6 3.3 9.4 2.5-2 4.2-3.2 5.9-4.6.3.2.6.3.9.4-2 3.4-4.1 6.9-6.2 10.3-.9-.1-1.9-.3-2.8-.3-.9-4.9-1.8-10-2.7-14.9.6-.1 1.1-.2 1.6-.3zm-1.6-46.2c-4.9 3.3-8.5 5.8-12.1 8.2-.8-.3-1.7-.8-2.5-1.1.8-7.1 1.5-14.2 2.3-21.3 2.2 15.2 2.2 15.2 12.3 14.2zM378.6 439c.3-.1.6-.2.8-.3 1.1 3.8 2.2 7.8 3.5 12.3 3-1.2 5.2-2 7.5-3 .3.3.6.8.9 1.1-3.4 3.1-6.9 6.1-10.2 9.2-.8-.5-1.7-.9-2.5-1.4V439zm-1.6-74.7c3 16.6 3 16.6 14.4 16.6-17.2 4.2-19.5 1.3-14.4-16.6zm10.5-36.4c2.8-1.4 4.5-2.3 6.2-3.2.3.3.7.4 1 .7-8.5 12.1-13.4 3.3-9.8-9.6.9 3.7 1.7 7.4 2.6 12.1zm-13.7-31.6h1.4c.2 3.2.4 6.4.7 11 3.2-1.9 5.2-3.1 7.2-4.2.3.3.7.7.9 1.1-3.1 2.8-6.3 5.5-9.4 8.4-.8-.5-1.5-.9-2.3-1.4.5-5 1-9.9 1.5-14.9zm1 106.3c.3.2.5.3.7.5-3.8 3.6-7.5 7.2-11.3 10.8-.8-.5-1.6-1.1-2.5-1.6l6-17.7c.4.1.8.1 1.3.1-.3 3.2-.7 6.5-1.1 10.6 2.8-1.2 4.8-1.9 6.9-2.7zm-34.1 9.7c.8-7.6 1.4-14.1 2.2-20.6.5 0 1.1.1 1.6.1.4 3.9.8 7.9 1.5 14 5.8-4.3 10.3-7.7 14.9-11-4.6 7.5-8.8 15.3-20.2 17.5zm9.3 23.5c-4.1 6.6-8 13.4-18.9 14.4 1.4-8.9 2.5-16.4 3.7-24.1.6.1 1 .2 1.5.3.3 5.5.6 11.1.9 18.6 5.6-4 9.2-6.6 12.8-9.2zm8.4-2.4c.4.1.8.2 1.4.3-.3 2.8-.5 5.7-.8 10 3.8-1.9 6.5-3.3 9.2-4.7.3.3.5.6.8.9-4.5 4-9.1 7.9-13.5 11.9-.8-.4-1.6-.9-2.4-1.4 1.7-5.6 3.5-11.3 5.3-17zm-1.9-140.5c.5 2.5 1 4.9 1.8 8.2 3-2 5.2-3.5 7.4-4.9.4.6.9 1.1 1.4 1.7-3.3 2.4-6.7 4.8-10 7.2-.9-3.9-1.8-7.8-2.7-11.8.6-.1 1.4-.3 2.1-.4zm-1.3 34.6c.5 0 1-.1 1.5-.1 0 14.7-6.3 33.6 12.8 31.4-4.3 3.1-8.6 6.1-13 9.1-1.1-.6-2.2-1.1-3.3-1.6.7-13 1.4-25.9 2-38.8zm-20.6-3c1.1 8.7 2.1 17.4 3.2 26.9 3.8-1 5.8-1.5 9.8-2.6-3.6 4.8-6.1 8.2-9.6 12.8-7.2-12.9-3.6-25.1-3.4-37.1zm-6.9 71.3c2.6-2 5.2-4 7.9-6.1.3.2.7.3.9.6-3.1 4.9-6.3 9.8-10.3 16.1-8.1-11.6-4.5-22.3-2.8-32.9l1.8 21.6c.7.3 1.6.6 2.5.7zm-.5 34.8c-3.7 4.3-7.4 8.5-11.8 13.6-7.1-11.1-2.9-21.2-1.4-31.4.6 7.3 1.1 14.6 1.8 23.6 4.7-3 7.6-4.9 10.5-6.6.3.2.6.6.9.8zm-12-98.2c3.9 3.9-3.6 14.4 9.5 13.6-1.6 2.8-3.1 5.4-5.1 8.7-6.6-7.3-6-14.6-4.4-22.3zM302.7 366c1.4 4.9 2.5 8.9 3.6 12.8.8.3 1.5.6 2.3.9 1.9-3.1 3.9-6.1 5.8-9.2.6.7 1.2 1.4 1.9 2-2.9 5-5.8 10.1-9.1 16-6.8-7-6.1-14.3-4.5-22.5zm-7.6 41.6c1.4 5.2 2.6 9.6 4.4 16.2 3.4-5.7 5.8-9.6 8.1-13.6.4.1.8.2 1.4.3-1.7 7.2-3.3 14.4-5.2 22.5-10.3-7.6-12.4-14.1-8.7-25.4zM227 609.7c11.3-28.7 23.5-54.9 31.2-85.1 8.5-33.8 19.4-66.5 28.7-100 1.1.2 2.1.3 3.1.5-4 33-17.5 66.6-26.9 98.6-8.3 28.4-13.6 65.1-36.1 86zm22.4-11.9c10.1-25.1 19.7-48.2 26.2-74.5 6.3-25.5 9.9-57.8 23.7-80.3.8 30.4-36.1 144.3-49.9 154.8zm24.5-11.5c-1.4-.5-2.6-1-4-1.5 10.3-22 22.8-48.2 26.5-72.4 3-19.3 3.7-45.6 17.5-61.5.7.4 1.4.7 2 1-14.6 44.6-17.8 92.9-42 134.4zm14.2-11.3c16.1-39.6 27.2-78.7 38.8-119.7 5.8 18.1-9.5 48.5-14.7 66.6-4.1 14.2-7 47.2-24.1 53.1zm25.2-20.8c-.7-.3-1.4-.4-2.1-.7 6.5-15.9 12.5-31 16.9-47.7 4.2-15.9 4-33.2 12-47.1.9.3 1.8.7 2.6 1-9 31.8-8.2 66.6-29.4 94.5zm31.5-30.1c1-2.6 2.1-5.4 3.1-8.1-5.6 6.1-10.5 17.5-19.1 19 15.6-24.1 19.1-52.2 26.9-80.7 5 8.5-.7 19.9-2.1 28.7-1.9 11.3-2.5 21.6-5.7 33 1.4-5.3 3-10.7 4.4-16 11-12.3 8.1-30.4 18.6-43.7 3.2 15.9-10.4 60.7-26.1 67.8zm16.6-4.4c4.6-9.8 9.5-18.6 11.9-29.2 2.5-10.7 2.7-19.3 9.4-28.4 1.8 17.2-11.1 53-21.3 57.6zm13.1 3.4c6.3-17.4 12.4-34.2 18.9-52 4.5 11-8.6 46-18.9 52zm20.2 1.6c-.9-.3-1.8-.5-2.6-.9 4.6-14.9 9.1-29.8 13.7-44.7 1.1.3 2.2.7 3.3 1-1.7 15.8-6.5 30.7-14.4 44.6zm11.9 2.3c3.4-10 6.7-19.9 10.2-30.3 4.6 5.5-.4 22.7-10.2 30.3zm8.9 7.7c2.6-7.7 5.3-15.3 8.1-23.4 4.2 7.3 1.6 16.5-8.1 23.4zm10.3 74.6c-.8-.3-1.8-.7-2.6-1.1.3-4.3.8-8.6 1.1-12.9.3 0 .6-.1.8-.1.5 2.5.9 4.9 1.4 8.6 4.1-2.3 7.7-4.2 11.2-6.1l.8.8c-4.3 3.7-8.5 7.3-12.7 10.8zm13.5 31.8c1.7 10.3 15.6 14.7 28.3 9-6.1 19.3-34.8 6.7-33.5-11.1 1.1 2.6 1.9 4.6 3.2 7.6.9-2.4 1.5-3.8 2-5.5zm-.1-79.5c4.6 2 2.7 10.5 12.4 6.2-2.4 4-3.9 6.6-5.5 9.2-.8 0-1.6-.1-2.4-.1-1.5-5.1-2.9-10.2-4.5-15.3zm27.8 59.7l-9.6 10.5c-.8-.3-1.5-.4-2.3-.7-1.1-5.8-2.2-11.7-3.2-17.6 5.4 11.2 5.4 11.2 15.1 7.8zm-10.1-36.4c3.6 1.5 6.5 2.8 10.1 4.3-1.1 1.5-3 4.2-6 8.4-1.8-5.5-3-9.3-4.1-12.7zM396 652.4c3.4 8.4 6.3 15.9 9.6 23.9-4-.9-6.3-1.4-9.9-2.2-5.2-10.3-5.4-13.2.3-21.7zm-20.2 19.8c-2.6-10.1-5-19.2-7.4-28.2 10.6 7.4 13.2 15.9 7.4 28.2zm-6.6-1.4c-3-2.5-5.7-4.6-8.3-6.7-.3.5-.6 1-.8 1.5-3.5-9.7-6.9-19.5-10.7-30.2 10.7 10 17.1 21.3 19.8 35.4zm-39.3-45.1c2.8 8.6 5.5 16.9 8.3 25.4-11.3-3.4-13.8-11.1-8.3-25.4zm-26.6-2.2c3.9 6.5 7.8 13 11.7 19.4-.8.4-1.5.9-2.3 1.4-7.8-4.1-11.2-10.9-11.4-19.6.7-.4 1.4-.8 2-1.2zm-27.3 6.4c7.4 3.6 14.1 6.9 21 10.1-.2.5-.3 1-.5 1.4-2.6-.4-5.2-.9-7.9-1.3-.3.4-.5.9-.8 1.2 6 4.3 12 8.7 18.3 13.2-14.5 4.1-28.5-7.1-30.1-24.6zm19.4 47c-.1-.8-.2-1.5-.3-2.3 13.6-11.5 26.6-13.2 36.4-6.1-12.3 3.9-23.3 6.9-36.1 8.4zm17.4 14.7c10.8-12.4 19.2-19.2 32.8-17.7-3.6 2.3-6.5 4.2-9.5 6.1.1.3.2.4.3.7 3.5-.9 7-1.9 11.6-3.2-9.3 12.8-22.9 11.3-35.2 14.1zm14.3 18.9c4-4.2 7.6-8 11.3-11.8-.3-.4-.5-.8-.7-1.2-1.2.6-2.5 1.3-3.6 1.9 3.7-11.7 14.8-18.9 27.7-18.2-18.6 24.7-22.1 27.7-34.7 29.3zm27-3.2c-.3-.7-.8-1.4-1.1-2.2 7.9-19.3 14.5-23.8 26.1-19.4-8.2 9-14.5 15.3-25 21.6zm57.4-6.6c-9.1 5.6-13.8 16.4-12.7 26.8-6.6-10.1-4.9-17.2 6.8-31.2-10-2.9-14.5.7-25.8 20.5-2.8-18.2 13.3-29 29.3-29.4 6.8-.2 19.2 4.8 24.9.5 5.8-4.3 6.5-21.8 7.9-28.2 8 6.6 4.7 10 1.9 18.8-3.1 9.5-3.3 18-1.2 27.9-10.7-5.7-19.3-13.1-31.1-5.7zm14.7 42.4c-1 0-1.9-.2-2.9-.3.9-4.6 1.8-25.7 10.5-20.5-4.1 6.3-5.5 13.6-7.6 20.8zm21.3 2.1c.2.2.2.2 0 0-1.1 3.3-2 6.2-2.9 9-4.4-8.5-2.4-20.5 3.6-22.7.4 3.1.8 5.7 1.3 8.8.2 0 .2 0 0 0-.4.1-1.6.3-3.4.7 2 .8 3 1.1 4.9 1.9-2.1.5-3.6.9-5.4 1.3.9.5 1.6.9 1.9 1zm-24.6-34.4c-.1-.8-.2-1.6-.3-2.5 8.2-1.9 29.8 7.2 31.3 17.4-10.8-5.2-20.9-10.1-31-14.9zm35.9-7.5c-1.5 1.6-3.3 3.3-5.2 5.3 1.7.4 2.9.7 4.1 1 .1.3.2.6.2.9h-8.5c5.4-15.3 10.6-29.7 15.6-44.2.6.1 1.3.2 1.9.3-1.4 9.5-6.2 19.2-4.6 28.3.2 0-.6.1-.9.1-1.9 3.4-3 5.6-4.1 7.7.3.1 1.2.4 1.5.6zm17.5 8.2c-1.9.6-3.1.9-5.1 1.5 1.9.7 2.8 1 4.5 1.7-2.2.5-3.7.9-6.6 1.5 2.5.6 3.7.9 3.9.9-3.8 7.8-4.1 12.8-4.1 21.6h.2c.1 0 .1 0 0 0 0 0-.1 0-.2.1-.4.1-1.2.4-2.2.6 1.5.8 2.6 1.3 4.1 2-1.9.3-3.2.7-5.8 1.2 1.3.5 2.1.8 2.4.9.1.1.1.1 0 0-.8 5.7-1.7 11.2-2.8 18.3-8.5-30.1 9-66 17.5-94.6.8.3 1.7.5 2.5.8-2.5 9.5-3.6 32.6-10.7 39.3 1.6.3 2.8.7 5.2 1.2-2.8.4-4.5.6-8.3 1.2 2.8.9 3.6 1.2 5.5 1.8zm3.9-85.1c4.4 5.4 8 8.2 13.9 2.3-2.5 3.6-5.1 7.2-9.1 12.6-2.1-6.4-3.4-10.7-4.8-14.9zm12 96.2c-1.8.6-3 .9-5.3 1.6 2.1.6 3.3 1 4.1 1.2-2.9 3.6-7.1 17.6-1.2 20.9-1.7.3-3.4.8-6.7 1.4 3.2.7 4.8 1 5.7 1.1-6.5 4.4-2.8 10.7-3.8 17.1-10.9-27 4.4-65.3 11.9-92 2.3 16.7-4.7 31.6-7.4 47.7-.3 0 .9.4 2.7 1zm2.3-56.6c-2-4.2-4.1-8.4-6.2-12.6 4.8 4.3 9.1 7.2 14.7.7-1.9 4-3.6 7.9-5.5 11.8-1 0-2 .1-3 .1zm8.8 72.5c1.2.3 2.8.6 5.1 1.1-2 .6-3.2.9-5.4 1.6l3.6 1.2c-1.4 3.5-2.9 6.8-4.3 10.2 1.5.3 2.8.7 4.5 1.1-1.4.6-2.4.9-4 1.6 1.7.6 2.9 1 2.4.9-.6 2.9-1.1 5.5-1.6 8.2-.4.2-.8.4-1.3.6-6.5-25.1.5-57.8 5.5-83.1.9.2 1.8.3 2.7.4-2.4 18.6-4.7 37.2-7.2 56.2zm21.4 29.2c-.2-3.2-.3-5.4-.4-8.1.1 0-1.1-.3-.7-.3-.1-4.5 5.4-9.1-3.6-11.8 1.5-.3 2.8-.4 5-.8-1.3-.9-2-1.5-3-2.2 1.1-.4 2.1-.8 3.9-1.5-2.1-.7-3.6-1.1-5.8-1.7 2.3-.4 3.8-.7 4.1-.8.5-2.3.8-4.2 1.3-6.7 5.4 7.6 5 24.6-.8 33.9zm-6.9-85.9c1.1-.2 2.1-.3 3.2-.5 2.7 16.4 5.4 32.7 8 49.1-1.4.3-2.9.4-4.4.7-2.2-16.5-4.5-32.9-6.8-49.3zm14.9-13.4c-.8 0-1.6.1-2.4.1-2.1-4.5-4.2-8.9-6.3-13.3h-.2c-2.6 5.1-5.3 10.2-7.9 15.3-.8.1-1.6.2-2.5.3-2.7-5.8-5.4-11.5-8-17.3.4-.3.8-.5 1.2-.8 2.3 3.3 4.7 6.6 7.9 11.2 3.6-4.9 6.5-8.7 10.3-13.8-.6 2.7-.8 3.9-1.1 5.1l.1-.1h.1s0 .1.1.1c7.2-.7 6.1 9 15.2.8-2.2 4.1-4.4 8.3-6.5 12.4zm-25.4-33.5c3.7 1.4 7 2.6 10.8 4.2-.8 1.7-2.3 4.4-4.9 9.5-2.6-6.1-4.4-10.1-5.9-13.7zm31.1 6c-1 0-2 .1-3 .1-2.8-3.9-5.7-7.8-8.5-11.8.5-.3 1-.7 1.5-1.1 2.4 1.9 4.7 3.8 8.2 6.5 2.8-5 5.2-9.4 7.5-13.7.3.1.8.3 1.1.3-2.2 6.6-4.5 13.1-6.8 19.7zm32.9-25.9c.5 6.6-3.4 13.1-5.7 19.2-4.1-4.2-8.2-8.3-12.3-12.4 12.1 7 12.1 7 18-6.8zm-14.2-21.6c.3-.3.5-.7.8-1 1.8.9 3.6 1.8 5.7 2.8 1.4-2 2.8-3.8 4.1-5.6.4.2.8.3 1.2.4-1.2 3.8-2.4 7.8-3.5 11.6l-2.4.3c-2-2.9-3.9-5.7-5.9-8.5zm1.3 112.5c-6.3-10.1-6-9.9 3.6-17.7.6.8 1.3 1.7 1.9 2.6-2.7 1.8-5.3 3.5-8.2 5.5 1.6 2.7 3.2 5.5 4.9 8.2-.7.4-1.4.8-2.2 1.4zm9.8-1.8c-.5.5-1.1 1-1.6 1.5-2.2-3-4.4-6-6.9-9.3 3.2-1.2 6.9-2.6 10.6-4 .3.7.6 1.4.8 2.1-1.9 1.1-3.8 2.3-6 3.7 1.3 2.6 2.2 4.3 3.1 6zm11.8 48.4c-3-5.8-6.1-9.1-4.4-15.4 5.5 3.2 4.8 9.2 5.9 15.2-.5 0-1 .1-1.5.2zm-16.3-94.1c25-.7 28.3-2.8 30.9-17.3 6.9 19-20.6 34.7-30.9 17.3zm39 40.2c10.9 9.8 22 10.4 18.9 29-3.6-12-7.9-21-20-23.4-3.3 10.2 1.5 19.9 3.1 30.9-10.5-7.2-5.8-19-11.7-29.4-1.9 11.8-1.8 18.5 1.1 30.1-11.8-9.1-7.7-16.4-5.6-28.6 2.5-14.4-4.6-24.9-6.4-38.4 10.8-8.6 14.3 24.1 20.6 29.8zm-5.4-111.7c.7-4.8 1.3-9.5 2-15.3 1.3 6.5 2.4 12.3 4 20.5-4.3-2.5-6.3-3.7-8.3-4.9.8-.1 1.5-.2 2.3-.3zm-3.5-68.1c.8-.3 1.7-.4 2.5-.7l5.4 20.9c-6.5-1.6-9.5-9.9-7.9-20.2zm5.6-27.3c-8.2 26.6-20.2 52.6-38.5 73.8-10.4 12-35 39.6-52.4 36-9.3-1.9-23-15-30.3-21.1-10.6-8.9-20.1-19.1-28.2-30.3-29.5-40.5-42.2-93.9-27.6-142.3 16.7 0 34.2 1.7 50.7-1.8 6.1-1.3 12-3.3 17.6-5.9 6-2.7 14.7-11.6 21.3-11.7 5.6-.1 12.7 7 17.3 9.5 7.1 3.8 14.5 6.9 22.3 9.1 15.4 4.5 29.6 1.6 44.7 3.6 25.3 3.4 8.1 64.8 3.1 81.1zm6.5-1.7c3.2 14 4.5 28 8.2 41.8-7-2.6-13.4-27.8-8.2-41.8zm17.1 30c-6.6-13.2-7.2-27.4-8-41.5 1-.2 1.9-.4 3-.6 1.9 6.7 3.7 13.5 5.8 20.8-2.5 2 1.4 17.9 1.7 21.1-.9 0-1.7.1-2.5.2zm107.9-95c.1-.6.3-1.2.4-1.8.8-3.9 1.6-7.9 2.6-11.9 3.6 8.9 1.3 15.9-8.6 22.9l-.1.1c-1.9-7.5-3.7-14.5-5.5-21.6h.1v-.1c.3-.1.7-.2 1-.3 2.5 4.3 5 8.6 7.4 13 1-.1 1.8-.2 2.7-.3zm-5.2-56.2c.5.1 1 .1 1.6.2-.7 6.7-1.4 13.5-2.1 20.2-1.3.1-2.5.3-3.8.4-2.7-4.7-5.4-9.3-8-14 .4-.3.8-.5 1.3-.8 2.4 2.1 4.7 4.3 8.8 7.9.8-5.8 1.5-9.8 2.2-13.9zm-22.6 65.7c10.8 0 10.6-.3 13-10.8.2 0 .4.1.6.1.3 0 .6.1 1 .2-.6 6.9-1.1 13.7-1.7 20.6-1 .3-2 .4-3 .7-3.5-3.8-6.9-7.6-9.9-10.8zm11.8-100.2c-.8 7.1-1.8 14.1-2.6 21.1-1 .2-2 .3-3 .3-1.7-2.6-3.4-5.1-5.4-8.1 6.7.3 6.7.3 11-13.3zm-12.1 65.1c1.3-6.2 2.2-11 3.1-15.7.8.1 1.5.2 2.3.3-.8 7.6-1.6 15.1-2.5 22.7l-3.6.6c-3.5-5.3-7-10.6-10.5-15.8.3-.3.7-.5 1.1-.8 2.9 2.6 5.8 5 10.1 8.7zm-8.6-74.8c.4 12.4 3.7 25.1-3.2 39.1-3.6-4.7-6.3-8.2-9.6-12.4 16.2 2.5 11.9-14.4 12.8-26.7zm-25.5-32.7c5.3 4.1 9.5 5.1 9.6-3.7.8.5 1.4.9 2.2 1.4-.9 3.8-1.9 7.4-2.8 11.2-3.1-2.1-6.3-4.3-9.4-6.4.1-.9.3-1.8.4-2.5zm2.5 71.9V331c.7 0 1.4 0 2.2-.1.8 12.2 1.6 24.5 2.5 36.6-1 .7-1.9 1.3-2.9 1.9-4.6-2.8-9.1-5.7-13.7-8.5.3-.6.7-1.3 1.1-1.9 3.1 1.3 6.3 2.6 10.8 4.6zm-17.6 40.8c2.1.5 4.2 1 7.3 1.8-.3-3.7-.7-6.6-.9-9.6.3-.2.6-.3.9-.4 2.1 5.6 4.2 11.3 6.3 16.9l-2 2c-4.1-3.2-8.2-6.5-12.3-9.6.2-.5.4-.7.7-1.1zm-1.3-18.2c-4-1.3-8-2.6-11.8-3.8 9.7-.3 9.7-.3 12.1-15.3 1.7 7.3.7 11.7-.3 19.1zm.1-86.9c1.9.9 3.8 1.8 6.4 3 .3-3.8.7-7.1.9-10.2.4-.1.8-.1 1.3-.2.6 4.9 1.2 9.7 1.8 14.6-.8.5-1.8 1-2.6 1.5-2.9-2.5-5.8-4.9-8.5-7.4.2-.5.5-.9.7-1.3zm-4.3 25.2c.8-4.6 1.5-8.3 2.2-11.9h1.1c0 7.2.3 11.3-3.5 17.5-6-4-6.3-5.3-9.4-11.4 3.7 2.1 6.2 3.6 9.6 5.8zm-11.2 26.4c1.9 1 3.7 2.1 6.7 3.8.3-4.5.6-7.9.8-11.3h.9V360c-.7.3-1.4.6-2 .9l-7.2-9c.3-.4.5-.7.8-1zm-5 59.7c2.7 1 5.4 1.9 9.5 3.2.8-4.4 1.4-7.9 1.9-11.3.5 0 1 0 1.6-.1.4 5.6.9 11.2 1.4 16.8-.8.3-1.7.8-2.5 1.1-4.1-2.9-8.2-5.7-12.4-8.6.2-.3.4-.7.5-1.1zm-3.1 67.2c.8-.2 1.6-.3 2.4-.6 2 3.2 4 6.3 6 9.4-5.9 1.1 1.4 21.5 1.5 26.5-9.5-10.3-8.7-23.1-9.9-35.3zm6.9-28.6v-.1c.2-.4.5-.8.8-1.2 2.8 1.5 5.5 3.1 9.3 5.2 1.3-3.8 2.5-7.1 3.7-10.5.6.2 1.3.3 1.9.4l-1.5 15.9c-.8.3-1.4.8-2.2 1.1l-12-10.8zm9.1 16.2l2.4-.6c4.6 15.6 4.7 30 8 45.4-10.6-13.4-9.7-29.2-10.4-44.8zm14-24.9c.4-.5.7-.9 1.1-1.3 1 .7 1.9 1.4 3 2.1 2.2 1.5 4.6 3.3 7.8 5.5-.7-5-1.1-8.3-1.6-11.5.3-.1.6-.1.9-.2.1 0 .2-.1.3-.1 1.9 5.5 3.8 11.1 5.7 16.7v.1c-.8.6-1.5 1.2-2.3 1.9-2.3-2-4.6-4.1-6.9-6.1-.7-.6-1.3-1.2-2-1.8-2-1.8-4-3.5-6-5.3zm4.1 18.7c.7-.3 1.4-.7 1.9-.9 5.8 9 1 28.8 9 34.9-1.6 7.7 1.7 13.7 2.8 20.9-12.1-14.6-13.1-36.6-13.7-54.9zm4.9-62.8c4.5 3.4 9.1 6.7 13.5 10.1.7-.6 1.4-1 2-1.5v-16.6c.4-.1.8-.2 1.2-.2 1.3 8.1 2.6 16.3 4.1 25.7-11.8-2.1-16.2-10-20.8-17.5zm10.9 41.1c3.6 2.5 7.3 4.9 12.8 8.7.5-7.7.9-13.4 1.3-19.1h.4c.2 0 .3-.1.5-.1 1.3 7.8 2.5 15.8 3.9 24.5h-.1c-10.8-.2-14.4-7.7-18.8-14-.1 0 0 .1 0 0 0 .1 0 0 0 0zm.2 20.2c.8-.3 1.7-.6 2.5-.9 7.1 27.7 8.9 56 17.1 83.5-10.5-7.9-21.8-57.4-19.6-82.6zm47.9 125.7c-13.6-17.7-17.6-41.9-21.7-63.7-2.5-13.6-15.8-52.3-8-64.3 8.1 20.8 8.5 41.8 12.6 63.6 4.1 21.9 10 42.3 17.8 63.1-.2.5-.4.9-.7 1.3zm-1.3-52.7c-5.7-25.9-15.3-55.7-15.3-82.2.7-.2 1.4-.4 2-.7 9.6 26.9 14.4 56.1 19.5 84.1 2.5 13.7 3 28.2 8.5 41.1 5.2 12.4 8.8 22.2 11.8 35.5-15.3-23.2-20.7-50.9-26.5-77.8zm15.6-1.7c-7.1-28.6-17.1-59-19.3-88.4.8-.1 1.5-.3 2.3-.4 10.1 29.5 14.6 60.2 22.3 90.3 4.1 15.9 6.5 32.7 12.9 47.9 4.6 11 11.1 21.8 11.7 34.3-16.8-23.8-23-55.6-29.9-83.7zm48.7 84.4c-.4 2.5-.7 4.4-1.4 8.8-17.2-26.1-23.9-58.9-31.6-89-8.3-32.5-18.3-65.4-23.2-98.5.8-.3 1.6-.6 2.5-.9 1.9 3.8 3.9 7.6 5.8 11.3.8-.3 1.5-.5 2.3-.8-1.1-8.5-2.2-17-3.2-25.6 1.1-.2 2.2-.3 3.2-.4 6.9 32.2 17.8 63.8 23.9 95.8 3 15.4 6.5 30.6 11 45.8.8 2.9 5.2 36.4 11.4 36.1 3.7 9.4 7.2 18.2 11.7 29.5-4.9-4.8-8.3-8.1-12.4-12.1z"/>
  <g id="g1562" transform="matrix(.84592 0 0 -.8523 315.79083 648.78815)">
    <g id="g1564" transform="translate(-12.3219 -43.3844)">
      <path id="path1566" d="M235.7 515c8-6.7 15.7-13 23.8-19.8-12.7-7.9-33 4.4-23.8 19.8"/>
    </g>
  </g>
  <g id="g1568" transform="matrix(.84592 0 0 -.8523 315.79083 648.78815)">
    <g id="g1570" transform="translate(-14.767 -31.5171)">
      <path id="path1572" d="M214.6 389.5c-1.6 1.9-3.1 3.8-4.8 5.9 3 4.2 6.1 8.4 9.2 12.8 3.6-10.1 3.6-10.1-4.4-18.7"/>
    </g>
  </g>
  <g id="g1580" transform="matrix(.84592 0 0 -.8523 315.79083 648.78815)">
    <g id="g1582" transform="translate(19.1529 -8.4148)">
      <path id="path1584" d="M507.7 145.3c-1.6 8-4.1 15.5-2.8 23.6 6.4-6.2 6.9-16.4 9.1-24.8-3.8.8-5.7 1.1-6.3 1.2"/>
    </g>
  </g>
  <g id="g1586" transform="matrix(.84592 0 0 -.8523 315.79083 648.78815)">
    <g id="g1588" transform="translate(20.9918 -3.1873)">
      <path id="path1590" d="M523.6 90.1c5.6-15 5.6-15-1.1-18.2 2.4 5.7-6.6 11.3 1.1 18.2"/>
    </g>
  </g>
  <path d="M119.9 682.8l1.5 3.1c-2.6 1.6-4.3 3.2-5.1 4.8s-1.1 2.9-.9 4.1.7 2.5 1.4 3.9l2.8 5.5 32-16.2c1.3-.6 2.2-1.3 2.8-1.9.6-.6.8-1.5.7-2.6s-.6-2.6-1.5-4.4l3-1.5 11.1 21.9-3 1.5c-1.4-2.7-2.6-4.2-3.8-4.6s-2.7-.1-4.6.9l-32 16.2 2.3 4.6c.9 1.8 1.8 3.3 2.7 4.3s2.2 1.7 4 2 4-.2 6.8-1.5l1.5 3.1-12.4 6.3-21.7-43.3 12.4-6.2zM132.2 613l7.9 22.7-3.1 1.1c-.6-1.9-1.3-3.2-2.1-4-.7-.8-1.5-1.2-2.4-1.2s-1.9.2-3.2.6l-13.9 4.8 7.4 21.4 13.9-4.8c1.9-.7 3.2-1.5 3.7-2.6.6-1.1.4-3.1-.6-5.9l3.1-1.1 7.9 22.9-3.1 1.1c-.6-1.8-1.3-3.2-2.1-4-.7-.8-1.5-1.2-2.4-1.3-.9 0-1.9.2-3.2.6l-29 10c-1.3.4-2.3.9-2.9 1.5-.6.5-1 1.3-1.1 2.4-.1 1.1.2 2.6.8 4.5l-3.1 1.1-8-22.8 3.1-1.1c1 2.8 2 4.5 3.1 5s2.7.4 4.6-.2l11.4-3.9-7.4-21.4-11.4 3.9c-1.3.4-2.3.9-2.9 1.4-.7.5-1 1.3-1.1 2.4-.1 1.1.2 2.6.8 4.6l-3.1 1.1-7.8-22.9 3.1-1.1c.7 1.9 1.4 3.3 2.1 4.1.8.8 1.5 1.2 2.4 1.2.8 0 1.9-.2 3.2-.7l29-10c1.2-.4 2.2-.9 2.9-1.4.7-.5 1-1.3 1.2-2.4.1-1.1-.1-2.6-.8-4.6l3.1-1z"/>
  <path d="M108.1 573.4l15.8-2.8 8.8 42.7-3.2.7c-.6-2.9-1.4-4.8-2.4-5.4-1-.7-2.6-.8-4.6-.4l-30.1 6.2c-1.4.3-2.4.6-3.1 1.1-.7.4-1.2 1.2-1.4 2.3-.2 1.1-.1 2.7.3 4.8l-3.2.7-8.2-39.7 12.3-3.2.7 3.2c-2.6 1.3-4.4 2.5-5.4 3.7s-1.5 2.4-1.5 3.7c0 1.2.2 3.1.7 5.4l1.8 9 16.9-3.5-1-4.9c-.3-1.7-.7-2.9-1.2-3.7s-1.1-1.2-2-1.4-2.2-.1-4 .1l-.7-3.4 15.9-3.3.7 3.3c-1.7.5-3 1-3.8 1.5s-1.2 1.3-1.3 2.1c-.1.9 0 2.1.3 3.8l1 4.9 11.3-2.3c1.9-.4 3.3-.7 4.1-1 .9-.3 1.5-.7 2-1.2s.8-1.3.8-2.3c.1-1-.1-2.3-.4-4.1l-.8-3.8c-.3-1.6-.9-3.1-1.6-4.5s-2.1-2.6-4.1-3.7c-2-1.1-4.9-1.5-8.6-1.3l-.8-3.3zM100.1 499.7c.2 1.4.5 2.4.8 3.1s.9 1.2 1.6 1.4c.7.2 1.9.3 3.4.3l11.5-.4c.1 3.5.7 7.2 1.8 11.3.8 2.9 1.3 5.1 1.6 6.5.3 1.5.5 3.2.6 5.2.2 5.3-.9 9.9-3.2 13.7-2.3 3.9-5.4 6.8-9.2 8.8-3.8 2-7.8 3.1-11.9 3.3-4.7.2-9-.8-13-2.9-4-2.1-7.1-5-9.5-8.7s-3.6-7.9-3.8-12.4c-.2-5.5 1.5-10.6 5.2-15.3-1.1-.5-2.5-.9-4.3-1.2l-.1-3.5 16-1 .1 3.3c-2.4.6-4.6 1.6-6.6 3.1s-3.5 3.3-4.6 5.4c-1.1 2.1-1.6 4.4-1.5 6.9.1 1.8.5 3.6 1.2 5.3s1.9 3.3 3.5 4.8 3.8 2.6 6.6 3.4c2.8.8 6.1 1.2 10.1 1 3.4-.1 6.7-.6 9.8-1.5s5.8-2.4 7.9-4.7c2.2-2.3 3.2-5.5 3-9.5-.1-3.2-.7-5.6-1.8-7.2-1.1-1.6-2.3-2.6-3.8-3s-3.1-.6-4.9-.6c-1.7.1-2.9.2-3.7.5-.8.3-1.3.9-1.6 1.8-.3.9-.5 2.4-.4 4.3l-3.3.1-.8-21.8 3.3.2zM124.4 448.1l-1.2 13c-.6.4-1.4 1-2.5 1.6s-2.3 1.3-3.8 2l-3.6 1.8-5.8 2.8c-2.6 1.3-4.4 2.2-5.3 2.9s-1.6 1.5-2 2.4c-.3.9-.6 2.6-.8 4.9l-.2 1.8 12.7 1.2c1.3.1 2.4.1 3.3-.1.8-.2 1.5-.8 2.1-1.9.5-1 .9-2.6 1.1-4.6l3.3.3-2.3 24.4-3.3-.3c.3-3 0-4.9-.8-5.8s-2.2-1.5-4.3-1.7L80.4 490c-2.1-.2-3.6.1-4.5.8-1 .7-1.6 2.6-1.8 5.6l-3.4-.3.7-11.3c0-.9.1-1.9.2-3s.2-2.2.3-3.1c.1-.7.2-2 .4-3.7.3-2.4.7-4.7 1.1-6.7.4-2.1.8-3.7 1.3-4.9.6-1.8 1.5-3.4 2.7-4.9s2.7-2.7 4.5-3.6 3.9-1.2 6.1-1c1.6.2 3.2.7 4.6 1.5 1.5.8 2.7 2.1 3.8 3.8 1.1 1.7 1.8 3.8 2.3 6.5 1.2-1.7 2.6-3 4.2-4.1s4.6-2.7 8.9-5c2.5-1.3 4.3-2.4 5.6-3.2 1.3-.9 2.2-1.7 2.7-2.5s.9-1.8 1.1-3.1l3.2.3zM86.8 465c-3.9-.4-6.6.6-8 2.8-1.5 2.2-2.4 5.3-2.8 9.1 0 .5-.1.9-.1 1.2 0 .3 0 .6-.1 1l19.6 1.8.2-2.3c.3-3.6 0-6.7-.9-9.3-1-2.4-3.6-3.9-7.9-4.3z"/>
  <path d="M118 403.8l15.6 3.8-9.3 42.6-3.2-.7c.6-2.9.6-4.9 0-5.9-.7-1-2-1.8-4.1-2.2l-30-6.5c-1.4-.3-2.5-.4-3.3-.3s-1.6.6-2.2 1.5c-.7.9-1.2 2.4-1.7 4.5l-3.2-.7 8.6-39.6 12.5 2.1-.7 3.2c-2.9.1-5.1.5-6.5 1.2s-2.4 1.6-2.9 2.7-1 2.9-1.6 5.2l-1.9 8.9 16.9 3.7 1.1-4.9c.4-1.7.5-2.9.4-3.8s-.5-1.6-1.3-2.1-2-1-3.7-1.5l.7-3.4 15.9 3.5-.7 3.2c-1.8-.3-3.1-.3-4-.1-.9.2-1.6.7-2.1 1.4s-.9 2-1.2 3.6l-1.1 4.9 11.2 2.4c1.9.4 3.3.7 4.2.8.9.1 1.7 0 2.3-.3s1.2-.9 1.7-1.7c.5-.9.9-2.2 1.2-3.9l.8-3.8c.4-1.6.5-3.2.4-4.8-.1-1.6-.8-3.2-2.2-5s-3.9-3.3-7.4-4.7l.8-3.3zM149.6 360.7l-7.5 21.8-3.1-1.1c.6-1.8 1-3.2 1-4.2 0-.9-.4-1.6-1.4-1.9-.7-.2-1.4-.3-2.2-.3l-6.2.3-5.2 15 2.6 2.2c1.5 1.2 2.6 2 3.3 2.2 1.4.5 2.4.2 3.1-.7.7-.9 1.3-2.1 1.8-3.5l3.1 1.1-5.5 15.9-3.1-1.1c.4-1.3.6-2.4.4-3.5-.2-1.1-.8-2.2-1.8-3.5-1.1-1.3-2.6-2.8-4.7-4.6l-30.3-25.4 1.1-3.2 40.9-1.6c2.9-.1 4.9-.3 5.9-.5 1.1-.2 2-.6 2.8-1.3.8-.7 1.4-1.8 2-3.3l3 1.2zm-23.3 14.7l-18.3.8 14 11.6 4.3-12.4zM137.3 306l-1.5 3.1c-2.9-1-5.2-1.4-6.9-1.1s-3 .9-3.8 1.8-1.6 2.1-2.2 3.5l-2.7 5.6 32.3 15.5c1.3.6 2.3 1 3.2 1 .8.1 1.7-.3 2.5-1 .8-.8 1.7-2.1 2.6-3.9l3 1.4-10.7 22.1-3-1.4c1.3-2.7 1.7-4.6 1.3-5.8s-1.6-2.2-3.5-3.1l-32.3-15.5-2.2 4.7c-.9 1.8-1.5 3.4-1.8 4.8s0 2.8.9 4.4 2.6 3 5.3 4.5l-1.5 3.1-12.5-6 20.9-43.6 12.6 5.9zM186.6 268.7c1.2.9 2.4 2 3.4 3.5s1.8 3.2 2.4 5.2c.5 2 .7 4 .3 6.2-.3 2.2-1.2 4.4-2.7 6.5s-3.4 4-5.8 5.4c-2.4 1.5-5 2.3-7.8 2.5 1 1.6 2.1 3 3.2 4l-1.9 2.7-13.8-9.4 1.9-2.7c2.3.9 4.7 1.4 7 1.8 2.3.3 4.7.1 7-.6 2.4-.7 4.3-2.3 5.9-4.6 1.4-2 1.9-4 1.7-6-.3-2-1.3-3.5-3-4.7-1-.6-1.9-1-2.9-1.1s-2 0-3 .3-2.3.9-3.8 1.7c-1.5.8-3.1 1.8-4.9 2.9-2.8 1.7-5.3 2.9-7.6 3.6-2.2.8-4.2 1.2-5.8 1.2s-3.1-.1-4.3-.5-2.3-.9-3.3-1.6c-1.8-1.2-3.3-2.9-4.4-5.1-1.1-2.2-1.6-4.6-1.4-7.2.2-2.6 1.1-5.2 2.8-7.7 1.3-1.9 2.9-3.4 4.9-4.5s4.2-1.8 6.5-2.1c-.6-.9-1.5-2.1-2.8-3.4l1.9-2.8 11.3 7.7-1.9 2.8c-7.5-2.2-12.9-.8-16.3 4.1-1.2 1.8-1.7 3.5-1.5 5.3.2 1.7 1.1 3.1 2.5 4.1 1.2.8 2.4 1.2 3.7 1.1s2.7-.5 4-1.2c1.4-.7 3.5-1.9 6.3-3.5 3.4-2 6.3-3.5 8.4-4.5 2.2-1 4.4-1.5 6.8-1.6 2.5 0 4.8.7 7 2.2zM215 231.6l12 10.7-28.2 33.2-2.5-2.1c1.9-2.3 2.9-4 2.8-5.3-.1-1.2-1-2.5-2.6-3.9l-23.4-19.9c-1.1-.9-2-1.5-2.8-1.8s-1.7-.2-2.7.3-2.2 1.6-3.6 3.2l-2.5-2.1 26.3-30.9 10.1 7.7-2.1 2.5c-2.6-1.3-4.7-1.9-6.3-1.9s-2.8.3-3.8 1.1c-1 .7-2.3 2-3.9 3.9l-5.9 7 13.2 11.2 3.2-3.8c1.1-1.3 1.8-2.4 2.1-3.2s.3-1.7-.2-2.5c-.4-.8-1.3-1.8-2.6-3.1l2.2-2.6 12.4 10.5-2.1 2.5c-1.4-1.1-2.6-1.8-3.5-2-.9-.3-1.7-.2-2.5.3-.8.4-1.7 1.3-2.8 2.6L192 247l8.8 7.5c1.5 1.2 2.6 2.1 3.3 2.6s1.5.8 2.2.8c.7.1 1.5-.2 2.3-.7.8-.6 1.8-1.5 2.9-2.8l2.5-3c1.1-1.3 1.9-2.6 2.6-4 .7-1.4.8-3.2.4-5.5-.4-2.2-1.8-4.8-4.3-7.6l2.3-2.7zM263.2 208.3L246.3 224l-2.3-2.4c1.4-1.3 2.4-2.4 2.8-3.2.5-.8.3-1.6-.4-2.3-.5-.5-1.1-1-1.8-1.3l-5.6-2.7-11.6 10.8 1.3 3.1c.7 1.8 1.3 2.9 1.9 3.5 1 1.1 2 1.3 3.1.9 1.1-.5 2.2-1.2 3.3-2.2l2.3 2.4L227 242l-2.3-2.4c1-.9 1.6-1.9 2-2.9.3-1 .3-2.3 0-3.9s-1-3.7-2-6.2L209.9 190l2.5-2.3 36.8 17.7c2.6 1.2 4.4 2 5.5 2.4s2 .4 3 .2 2.1-.9 3.3-2l2.2 2.3zm-27.5 2l-16.6-7.9 6.9 16.9 9.7-9z"/>
  <path d="M287.9 170.1l9.4 13.4-35.1 25.8-2-2.7c2.4-1.8 3.7-3.3 3.9-4.5.2-1.2-.4-2.7-1.6-4.4L244.4 173c-.8-1.1-1.6-1.9-2.3-2.4s-1.6-.6-2.7-.3-2.5 1-4.1 2.2l-2-2.7 19.8-14.6 2 2.7c-1.6 1.2-2.8 2.3-3.4 3.2-.6.9-.8 1.8-.6 2.7.2.8.7 1.8 1.6 3l16.7 22.7c1.3 1.8 2.3 3 3.1 3.6.7.6 1.7.9 2.7.7 1.1-.2 2.5-.9 4.2-2.2 2.2-1.6 4.1-3.2 5.5-4.8s2.3-3.6 2.7-6.1c.3-2.5-.4-5.4-2.3-8.7l2.6-1.9zM350 127.5c2 4 2.9 8.2 2.8 12.6-.2 4.4-1.6 8.6-4.2 12.6-2.7 4-6.5 7.2-11.6 9.7-4.1 2.1-8.1 3.2-11.9 3.5-3.8.2-7.3-.3-10.4-1.5s-5.8-2.9-8.1-5.1c-2.3-2.2-4.1-4.6-5.5-7.3-2-3.9-2.9-8-2.8-12.4s1.4-8.5 4.1-12.5c2.6-4 6.5-7.2 11.6-9.8 4.7-2.3 9-3.6 13-3.7s7.5.5 10.5 1.9 5.5 3.2 7.6 5.3c2.1 2.1 3.7 4.4 4.9 6.7zm-10.5 5.1c-1.2-2.4-2.6-4.7-4.1-6.6-1.5-2-3.2-3.6-5.2-4.8s-4.1-1.9-6.4-2.1c-2.3-.1-4.9.5-7.6 1.8-3.7 1.9-6.1 4.2-7.3 7.1-1.2 2.9-1.4 5.9-.8 9s1.8 6.3 3.4 9.6c.9 1.8 2 3.6 3.2 5.5s2.8 3.6 4.7 5.2c1.9 1.6 4.2 2.6 6.9 3 2.7.4 5.6-.2 8.7-1.7 3.1-1.6 5.3-3.6 6.5-6s1.7-4.9 1.6-7.5c-.2-2.5-.6-4.8-1.3-6.9-.7-2-1.5-3.9-2.3-5.6zM388.5 101.6l-3.2 1.1c-1.5-2.4-2.9-4-4.2-4.8-1.4-.8-2.7-1.2-3.9-1.1-1.3.1-2.9.6-5 1.3L364 101l5.8 16.3 4.3-1.5c2-.7 3.3-1.6 3.8-2.5.5-1 .4-2.7-.4-5.1l3.1-1.1 5.4 15.3-3.2 1.1c-.7-1.7-1.4-2.9-2-3.6s-1.3-1-2.1-1-2 .2-3.5.7l-4.2 1.5 4.8 13.7c.7 1.9 1.5 3.1 2.6 3.7 1 .6 3 .4 5.7-.5l1-.3 1.1 3.1-23.7 8.4-1.1-3.1c2.8-1 4.5-2 5-3.2.5-1.1.4-2.7-.3-4.6l-10.2-29c-.5-1.3-1-2.3-1.5-2.9s-1.4-1-2.5-1.1-2.6.2-4.6.9l-1.1-3.1 37.7-13.3 4.6 11.8zM457 88l-3.4.6c-.9-2.9-1.9-5-3.2-6.2-1.3-1.2-2.5-1.9-3.7-2s-2.6 0-4.1.3l-6.1 1.1L443 117c.3 1.4.6 2.4 1 3.2.4.7 1.2 1.2 2.3 1.4 1.1.2 2.7.2 4.7-.2l.6 3.3-24.1 4.5-.6-3.3c3-.6 4.8-1.3 5.5-2.3s.8-2.6.5-4.6l-6.6-35.2-5.1 1c-2 .4-3.6.8-4.9 1.4s-2.3 1.7-3 3.3-.9 3.9-.5 6.9l-3.4.6-2.5-13.6 47.5-8.9L457 88zM520.3 119.2l-24 1.2-.2-3.3c2-.1 3.4-.4 4.4-.9s1.6-1.1 1.8-2c.2-.8.3-1.9.3-3.3l-.7-14.7-22.7 1.1.7 14.7c.1 2 .6 3.5 1.5 4.3.9.9 2.8 1.2 5.8 1.1l.2 3.3-24.2 1.2-.2-3.3c1.9-.1 3.4-.4 4.4-.9s1.6-1.1 1.9-2c.3-.8.4-1.9.3-3.3L468.2 82c-.1-1.4-.3-2.4-.6-3.2-.3-.8-1-1.4-2-1.8s-2.5-.6-4.6-.5l-.2-3.3L485 72l.2 3.3c-3 .2-4.9.7-5.7 1.6-.8.9-1.2 2.4-1.1 4.5l.6 12 22.7-1.1-.6-12c-.1-1.4-.3-2.4-.6-3.2-.3-.8-1-1.4-2-1.8s-2.5-.6-4.6-.5l-.2-3.3 24-1.2.2 3.3c-2 .1-3.5.4-4.5.9s-1.6 1.2-1.8 1.9c-.2.8-.3 1.9-.3 3.2l1.6 30.7c.1 1.3.2 2.4.5 3.1.3.8 1 1.4 2 1.8s2.6.6 4.6.5l.3 3.5z"/>
  <path d="M565.1 106.9l-1.6 16-43.4-3.3.3-3.3c3 .2 5-.1 5.9-.8.9-.8 1.5-2.2 1.6-4.4l2.4-30.6c.1-1.4.1-2.5-.2-3.3-.2-.8-.8-1.5-1.8-2s-2.5-.9-4.7-1l.3-3.3 40.5 3.1-.4 12.7-3.3-.3c-.5-2.9-1.2-4.9-2.1-6.2-.9-1.3-1.9-2.1-3.1-2.5-1.2-.4-3-.6-5.4-.8l-9.1-.7-1.3 17.2 5 .4c1.7.1 3 .1 3.8-.2.9-.2 1.5-.8 1.9-1.6.4-.8.7-2.1 1-3.9l3.5.3-1.2 16.2-3.3-.3c0-1.8-.1-3.1-.4-4-.3-.9-.9-1.5-1.7-1.8s-2.1-.6-3.8-.7l-5-.4-.9 11.5c-.1 1.9-.2 3.3-.2 4.2 0 .9.2 1.7.6 2.3.4.6 1 1.1 1.9 1.4s2.3.6 4 .7l3.9.3c1.7.1 3.2 0 4.8-.3 1.5-.3 3.1-1.3 4.7-2.9 1.6-1.6 2.8-4.3 3.6-7.9l3.2.2zM619.9 120.2c-.3 1.5-1 3-2 4.5s-2.3 2.9-3.9 4.1c-1.6 1.2-3.5 2.1-5.7 2.6s-4.5.5-7.1-.1c-2.5-.6-4.9-1.7-7.2-3.4-2.2-1.7-4-3.8-5.2-6.4-1.1 1.6-2 3.1-2.5 4.5l-3.2-.7 3.7-16.3 3.2.7c.1 2.5.4 4.9.9 7.2.6 2.3 1.6 4.4 3.2 6.3 1.5 1.9 3.7 3.2 6.4 3.8 2.4.5 4.5.3 6.2-.7s2.8-2.5 3.3-4.5c.3-1.1.3-2.2 0-3.1s-.7-1.8-1.4-2.7c-.7-.9-1.7-1.8-3-2.9s-2.8-2.3-4.5-3.5c-2.6-2-4.6-3.9-6.2-5.7-1.5-1.8-2.6-3.5-3.3-5s-1-2.9-1.1-4.2c-.1-1.3 0-2.5.3-3.7.5-2.1 1.5-4.1 3.2-5.9 1.6-1.8 3.7-3.1 6.2-4 2.5-.8 5.2-.9 8.1-.2 2.2.5 4.2 1.5 6 2.9 1.8 1.5 3.2 3.2 4.3 5.3.6-.9 1.3-2.2 2.1-3.9l3.3.8-3 13.3-3.3-.8c-.7-7.8-4-12.3-9.8-13.6-2.1-.5-3.9-.3-5.5.5-1.5.8-2.5 2.1-2.9 3.9-.3 1.4-.2 2.7.4 3.9.6 1.2 1.4 2.3 2.6 3.3 1.1 1 3 2.5 5.6 4.6 3.1 2.5 5.6 4.5 7.3 6.2s3 3.6 4 5.8c.9 2.1 1.1 4.5.5 7.1zM675.4 116.8l-3.2-1.1c.7-3 .8-5.3.3-7s-1.2-2.9-2.2-3.6-2.2-1.3-3.7-1.8l-5.9-2-11.8 33.7c-.5 1.3-.7 2.4-.7 3.3 0 .8.5 1.6 1.3 2.4.9.8 2.2 1.5 4.2 2.1l-1.1 3.1-23.2-8.1 1.1-3.1c2.8 1 4.8 1.2 5.9.7s2-1.8 2.7-3.8L651 97.8l-4.9-1.7c-1.9-.7-3.6-1.1-5-1.2s-2.8.3-4.2 1.3-2.7 3-3.9 5.8l-3.2-1.1 4.6-13.1 45.6 15.9-4.6 13.1zM702.7 168.7l-20.8-9.9 1.4-3c1.8.8 3.1 1.3 4 1.5.9.1 1.6-.3 2-1.2.3-.7.5-1.4.6-2.2l.4-6.2-14.3-6.8-2.4 2.4c-1.4 1.3-2.2 2.3-2.6 3-.6 1.3-.5 2.4.3 3.2s1.9 1.6 3.3 2.2l-1.4 3-15.2-7.2 1.4-3c1.2.6 2.4.8 3.4.8 1.1-.1 2.3-.5 3.7-1.4s3.1-2.3 5.1-4.2l28.6-27.3 3.1 1.5-2.9 40.8c-.2 2.9-.2 4.9-.2 6s.4 2 .9 2.9c.6.9 1.6 1.6 3.1 2.3l-1.5 2.8zM690.8 144l1.3-18.3-13.1 12.6 11.8 5.7zM758.5 162.6l-2.9-1.8c1.3-2.7 2-5 1.9-6.7-.1-1.8-.6-3.1-1.4-4s-1.9-1.8-3.2-2.6l-5.3-3.3-19 30.4c-.8 1.2-1.2 2.2-1.4 3s.1 1.7.7 2.6c.7.9 1.9 1.9 3.6 3l-1.8 2.8-20.8-13 1.8-2.8c2.5 1.6 4.4 2.3 5.6 2 1.2-.3 2.3-1.3 3.5-3.1l19-30.4-4.4-2.8c-1.7-1.1-3.3-1.8-4.6-2.3-1.3-.4-2.8-.3-4.4.4-1.6.7-3.3 2.3-5 4.8l-2.9-1.8 7.4-11.8 41 25.6-7.4 11.8zM784.2 207.4l-10.4 12.3-33.9-27.3 2.1-2.6c2.3 1.9 4.1 2.8 5.3 2.6 1.2-.1 2.5-1 3.8-2.7l19.3-23.9c.9-1.1 1.4-2 1.7-2.8s.2-1.7-.4-2.7c-.5-1-1.6-2.2-3.3-3.5l2.1-2.6 31.6 25.4-7.5 10.3-2.6-2.1c1.2-2.7 1.8-4.8 1.8-6.3 0-1.6-.4-2.8-1.2-3.8s-2.1-2.2-4-3.7l-7.1-5.7-10.8 13.5 3.9 3.1c1.3 1.1 2.4 1.8 3.3 2 .8.3 1.7.2 2.4-.2.8-.4 1.8-1.3 3-2.7l2.7 2.2-10.2 12.7-2.6-2.1c1.1-1.5 1.7-2.7 1.9-3.6.2-.9.1-1.7-.3-2.5-.5-.7-1.4-1.7-2.7-2.7l-3.9-3.2-7.2 9c-1.2 1.5-2 2.6-2.5 3.4-.5.8-.7 1.5-.8 2.2 0 .7.2 1.5.8 2.3s1.5 1.8 2.9 2.9l3.1 2.5c1.3 1 2.7 1.9 4.1 2.5 1.4.6 3.3.7 5.5.2s4.7-2 7.5-4.5l2.6 2.1zM842 256.7c-3.3 2.9-7.2 4.9-11.5 5.9s-8.7.7-13.2-.8c-4.5-1.6-8.6-4.4-12.4-8.7-3.1-3.5-5.2-7-6.4-10.6s-1.6-7.1-1.2-10.4c.4-3.3 1.4-6.4 2.9-9.1 1.5-2.8 3.4-5.2 5.7-7.2 3.3-2.9 7-4.8 11.3-5.9 4.3-1 8.6-.8 13.1.7s8.6 4.4 12.4 8.7c3.5 3.9 5.8 7.8 6.9 11.7 1.1 3.9 1.4 7.4.8 10.7-.6 3.2-1.7 6.1-3.2 8.7-1.6 2.5-3.3 4.6-5.2 6.3zm-7.7-8.8c2.1-1.8 3.8-3.7 5.4-5.7s2.6-4.1 3.3-6.3.8-4.4.3-6.7-1.7-4.6-3.7-6.8c-2.7-3.1-5.6-4.8-8.7-5.2s-6 .1-8.9 1.6c-2.9 1.4-5.7 3.3-8.4 5.8-1.5 1.3-3 2.8-4.5 4.5-1.5 1.6-2.7 3.6-3.8 5.9-1 2.3-1.4 4.8-1.1 7.5.3 2.7 1.6 5.4 3.9 8 2.3 2.6 4.8 4.2 7.4 4.7 2.7.6 5.2.4 7.6-.4 2.4-.8 4.5-1.8 6.3-3.1s3.5-2.5 4.9-3.8zM876.9 287.2l-1.9-2.8c1.9-2 3.1-3.8 3.6-5.3s.5-2.9 0-4.1-1.3-2.7-2.6-4.5l-4.9-7.2-14.3 9.8 2.6 3.8c1.2 1.8 2.4 2.8 3.4 3s2.7-.3 4.8-1.7l1.9 2.7-13.4 9.2-1.9-2.8c1.5-1.2 2.5-2.1 3-2.8.5-.7.6-1.5.5-2.3s-.7-1.9-1.6-3.2l-2.5-3.7-12 8.2c-1.6 1.1-2.6 2.3-2.9 3.4-.3 1.2.3 3 2 5.4l.6.8-2.7 1.9-14.2-20.7 2.7-1.9c1.7 2.5 3.1 3.8 4.3 4s2.7-.3 4.4-1.5l25.4-17.4c1.2-.8 2-1.5 2.4-2.2.5-.7.6-1.6.4-2.7-.2-1.1-.9-2.5-2.1-4.2l2.7-1.9 22.6 33-10.3 7.7zM883.5 382.6l-10.1-22.4 3-1.4c.9 1.9 1.7 3.3 2.5 4s1.6 1.1 2.5 1 1.9-.4 3.2-.9l28-12.6-43.8-.6-.9-2 28.6-33.4-26.5 11.9c-1.4.6-2.5 1.2-3.2 1.6s-1.2 1-1.6 1.6c-.3.6-.4 1.5-.3 2.4.1 1 .6 2.3 1.3 3.8l-3 1.4-7.4-16.5 3-1.4c.7 1.6 1.4 2.7 2 3.5s1.3 1.2 2 1.4 1.4.1 2.2-.1 1.9-.7 3.3-1.3l25.3-11.4c1.9-.8 3.2-1.6 3.9-2.1.7-.6 1.1-1.4 1.2-2.5 0-1.1-.4-2.7-1.4-4.8l3-1.4 7.3 16.3-24.8 28.9 38.1.7 7.2 16-3 1.4c-1.2-2.7-2.4-4.3-3.6-4.8-1.2-.4-2.7-.2-4.6.6l-28 12.6c-1.2.5-2.1 1.1-2.8 1.7s-.9 1.5-.9 2.6.5 2.7 1.3 4.6l-3 1.6z"/>
  <path d="M889.6 406.1l-7.4-23.7 3.2-1c.6 2 1.3 3.4 2 4.3s1.5 1.4 2.3 1.4c.9.1 2-.1 3.4-.6l29.3-9.2c2-.6 3.3-1.5 3.9-2.6.6-1.1.4-3.1-.5-6l3.2-1 7.4 23.7-3.2 1c-.6-2-1.3-3.4-2-4.3s-1.5-1.4-2.3-1.4c-.8-.1-2 .1-3.4.5l-29.3 9.2c-1.3.4-2.3.9-3 1.4s-1 1.4-1.2 2.5c-.1 1.1.2 2.7.8 4.8l-3.2 1zM911.8 439.4c-1.5.3-3.1.4-4.9.1-1.8-.3-3.6-.9-5.4-1.8-1.8-.9-3.4-2.3-4.8-4-1.4-1.7-2.4-3.9-3-6.4s-.6-5.2-.1-7.9 1.7-5.2 3.5-7.5c-1.9-.4-3.6-.5-5.1-.3l-.7-3.2 16.3-3.7.7 3.2c-2.2 1.1-4.2 2.4-6.1 3.9-1.8 1.5-3.3 3.4-4.3 5.6-1.1 2.2-1.3 4.7-.7 7.5.5 2.4 1.6 4.2 3.3 5.3 1.6 1.1 3.5 1.5 5.4 1 1.1-.3 2.1-.7 2.8-1.3.7-.6 1.4-1.5 1.8-2.4s.9-2.3 1.4-4c.4-1.6.9-3.5 1.3-5.6.7-3.2 1.5-5.9 2.5-8 1-2.2 2-3.9 3.1-5.1s2.2-2.2 3.3-2.8c1.1-.6 2.2-1.1 3.4-1.4 2.1-.5 4.4-.4 6.7.3s4.4 2 6.2 3.9 3.1 4.3 3.7 7.2c.5 2.2.5 4.5-.1 6.7-.5 2.2-1.5 4.3-2.9 6.2 1.1.2 2.6.3 4.4.2l.8 3.3-13.3 3-.7-3.3c6.7-4 9.4-8.9 8.1-14.7-.5-2.1-1.4-3.7-2.8-4.7s-3-1.3-4.7-.9c-1.4.3-2.5 1-3.3 2s-1.5 2.3-1.9 3.7c-.4 1.5-1 3.8-1.7 7-.9 3.9-1.7 7-2.5 9.2-.8 2.3-1.9 4.3-3.5 6.1s-3.6 3-6.2 3.6zM917 485.2c-1.5.2-3.1.1-4.9-.4-1.8-.4-3.5-1.2-5.2-2.3-1.7-1.1-3.2-2.6-4.4-4.5s-2-4.1-2.3-6.7-.1-5.2.7-7.9 2.2-5 4.2-7.1c-1.9-.5-3.6-.8-5.1-.9l-.4-3.3 16.6-2.1.4 3.3c-2.3.9-4.5 2-6.4 3.3-2 1.3-3.6 3-4.9 5.1-1.3 2.1-1.7 4.6-1.4 7.3.3 2.4 1.2 4.3 2.7 5.6s3.3 1.8 5.3 1.6c1.1-.1 2.1-.5 2.9-1.1.8-.6 1.5-1.3 2.1-2.3.6-.9 1.2-2.2 1.7-3.8s1.2-3.4 1.8-5.4c1-3.1 2.1-5.7 3.3-7.7 1.2-2.1 2.4-3.7 3.6-4.8 1.2-1.1 2.4-2 3.5-2.5s2.3-.9 3.5-1c2.2-.3 4.4 0 6.6 1 2.3.9 4.2 2.4 5.8 4.5s2.6 4.6 3 7.6c.3 2.3 0 4.5-.7 6.7-.8 2.2-1.9 4.1-3.5 5.8 1.1.3 2.5.5 4.4.7l.4 3.4-13.5 1.7-.4-3.4c7.1-3.3 10.2-7.9 9.5-13.8-.3-2.1-1-3.8-2.3-5s-2.8-1.6-4.6-1.4c-1.4.2-2.6.7-3.5 1.7-.9.9-1.7 2.1-2.3 3.5s-1.4 3.7-2.4 6.8c-1.2 3.8-2.4 6.8-3.4 8.9-1 2.2-2.3 4.1-4.1 5.7-1.5 1.9-3.7 2.9-6.3 3.2zM905 510.7l-1.1-24.8 3.3-.1c.1 2.1.4 3.6.8 4.7.4 1 1.1 1.7 1.9 2 .8.3 1.9.4 3.4.3l30.7-1.3c2.1-.1 3.6-.6 4.4-1.5.8-.9 1.2-2.9 1-6l3.3-.1 1.1 24.8-3.3.1c-.1-2.1-.4-3.6-.8-4.7-.5-1-1.1-1.7-1.9-2-.8-.3-1.9-.4-3.4-.3l-30.7 1.3c-1.4.1-2.5.3-3.3.6s-1.4 1-1.8 2.1c-.4 1-.5 2.6-.4 4.8l-3.2.1z"/>
  <path d="M916.9 545c-1.5-.1-3.1-.4-4.8-1.1-1.7-.7-3.3-1.7-4.8-3.1-1.5-1.4-2.7-3.1-3.6-5.1-.9-2-1.3-4.4-1.2-7s.8-5.2 2-7.7 3-4.6 5.3-6.3c-1.8-.8-3.4-1.4-4.9-1.7l.1-3.3 16.7.6-.1 3.3c-2.4.5-4.7 1.3-6.9 2.2-2.2 1-4 2.4-5.6 4.3-1.6 1.9-2.4 4.2-2.5 7-.1 2.5.5 4.4 1.8 6 1.3 1.5 3 2.3 5 2.4 1.2 0 2.2-.2 3.1-.6.9-.4 1.7-1.1 2.4-1.9.7-.8 1.5-2 2.3-3.5s1.7-3.2 2.7-5c1.5-2.9 3-5.3 4.5-7.1s2.9-3.2 4.3-4.2c1.4-.9 2.7-1.6 3.9-1.9s2.4-.5 3.7-.4c2.2.1 4.3.7 6.4 2 2.1 1.3 3.8 3 5 5.4 1.3 2.3 1.9 5 1.7 7.9-.1 2.3-.7 4.4-1.8 6.5-1.1 2-2.6 3.8-4.4 5.2 1 .5 2.4.9 4.2 1.3l-.1 3.4-13.6-.5.1-3.4c7.5-2.1 11.4-6.2 11.6-12.1.1-2.2-.4-3.9-1.5-5.3s-2.5-2.1-4.3-2.1c-1.4-.1-2.7.3-3.7 1.1-1.1.8-2 1.8-2.8 3.1s-1.9 3.4-3.4 6.4c-1.8 3.5-3.4 6.3-4.7 8.3s-3 3.6-4.9 5c-2.2 1.4-4.5 2-7.2 1.9zM911.7 585c-1.5-.2-3-.7-4.6-1.6-1.6-.9-3.1-2.1-4.4-3.6-1.4-1.5-2.4-3.3-3.1-5.4-.7-2.1-.9-4.5-.5-7.1.3-2.6 1.3-5.1 2.7-7.4 1.5-2.4 3.4-4.3 5.9-5.8-1.7-1-3.2-1.7-4.7-2.1l.4-3.3L920 551l-.4 3.3c-2.5.3-4.8.8-7.1 1.6-2.2.8-4.2 2-6 3.7s-2.8 4-3.2 6.7c-.3 2.4.1 4.5 1.2 6.1 1.1 1.6 2.7 2.6 4.7 2.9 1.1.2 2.2.1 3.1-.3.9-.3 1.8-.9 2.6-1.7s1.7-1.8 2.7-3.2 2-3 3.1-4.8c1.8-2.7 3.5-5 5.2-6.6 1.7-1.7 3.2-2.9 4.7-3.7s2.8-1.3 4-1.5 2.5-.2 3.7-.1c2.2.3 4.2 1.2 6.2 2.6 1.9 1.5 3.4 3.4 4.5 5.8s1.4 5.1 1 8.1c-.3 2.3-1.1 4.3-2.4 6.3-1.3 1.9-2.9 3.5-4.9 4.8.9.6 2.3 1.1 4.1 1.8l-.5 3.4-13.5-1.8.5-3.4c7.7-1.4 11.9-5 12.7-10.9.3-2.1 0-3.9-1-5.4s-2.3-2.3-4.1-2.5c-1.4-.2-2.7 0-3.8.7s-2.2 1.6-3.1 2.8c-.9 1.2-2.3 3.2-4.1 6-2.2 3.3-4 5.9-5.5 7.8-1.5 1.8-3.3 3.3-5.4 4.5-2.2.9-4.6 1.3-7.3 1zM892 608.6l5.3-24.2 3.2.7c-.4 2-.6 3.6-.4 4.7.2 1.1.6 1.9 1.3 2.4s1.8.9 3.2 1.2l30 6.6c2.1.5 3.6.3 4.7-.3 1-.7 1.9-2.5 2.5-5.5l3.2.7-5.3 24.2-3.2-.7c.4-2 .6-3.6.4-4.7-.2-1.1-.6-1.9-1.3-2.4s-1.8-.9-3.2-1.2l-30-6.6c-1.4-.3-2.5-.4-3.3-.2s-1.6.7-2.2 1.6c-.6.9-1.2 2.4-1.7 4.5l-3.2-.8z"/>
  <path d="M913.6 661.2c-3.8-1.2-6.4-3.3-7.6-6.3s-1.6-6.2-1.2-9.5c.4-3.4 1.2-6.8 2.3-10.4l1-3.1-12.2-3.8c-1.4-.4-2.5-.6-3.3-.6-.8.1-1.6.5-2.3 1.4s-1.4 2.3-2 4.3l-3.2-1 7.4-23.5 3.2 1c-.6 2-.9 3.5-.8 4.6.1 1.1.5 1.9 1.2 2.4s1.7 1 3 1.4l29.4 9.3c1.3.4 2.4.6 3.2.6s1.6-.5 2.3-1.3 1.4-2.2 2-4.2l3.2 1-3.8 13.4c-.2.7-.4 1.5-.7 2.3-.2.8-.4 1.5-.6 2-.1.5-.4 1.2-.7 2.1-.4 1.2-.7 2-.9 2.6-1 2.7-2.1 5.2-3.3 7.6-1.2 2.4-3.2 4.6-5.9 6.6-2.5 1.9-5.8 2.3-9.7 1.1zm3.2-10.7c3.7 1.2 6.5.9 8.5-.9 1.9-1.8 3.5-4.4 4.6-8 .2-.6.5-1.5.8-2.7L912 633l-1 3.2c-1.1 3.4-1.3 6.3-.8 8.7.4 2.5 2.6 4.4 6.6 5.6zM894.3 705.2c-3.7-1.6-6-4-6.8-7.1-.9-3.1-.9-6.3-.1-9.6s2-6.6 3.5-10l1.3-3-11.7-5.2c-1.3-.6-2.4-.9-3.3-.9-.9 0-1.7.3-2.5 1.1s-1.6 2.1-2.5 4.1l-3-1.3 10-22.5 3 1.3c-.8 1.9-1.3 3.4-1.3 4.5s.3 1.9.9 2.5c.6.6 1.5 1.2 2.8 1.7l28.2 12.5c1.3.6 2.3.9 3.2.9.8.1 1.7-.3 2.5-1s1.6-2.1 2.5-4l3.1 1.4-5.3 12.9c-.3.7-.6 1.4-.9 2.2-.3.8-.6 1.4-.8 1.9s-.5 1.2-.9 2.1c-.5 1.1-.9 2-1.1 2.5-1.3 2.6-2.6 5-4.1 7.2s-3.7 4.2-6.6 5.8c-3 1.7-6.4 1.7-10.1 0zm4.4-10.2c3.6 1.6 6.4 1.6 8.5.1s3.9-4 5.4-7.4c.3-.6.6-1.5 1.1-2.6l-18-8-1.3 3c-1.4 3.2-2 6.1-1.8 8.6.3 2.5 2.3 4.6 6.1 6.3zM849 712.5l12-21.7 2.9 1.6c-1 1.8-1.6 3.3-1.8 4.4-.2 1.1 0 2 .6 2.7.5.7 1.4 1.4 2.7 2.1l26.9 14.9c1.8 1 3.4 1.4 4.5 1 1.2-.3 2.5-1.9 4-4.6l2.9 1.6-12 21.7-2.9-1.6c1-1.8 1.6-3.3 1.7-4.4.2-1.1 0-2-.6-2.7s-1.4-1.3-2.7-2.1l-26.9-14.9c-1.2-.7-2.3-1.1-3.1-1.2s-1.7.2-2.6.9c-.9.7-1.8 2-2.9 3.9l-2.7-1.6zM208.3 832.6L190.8 815l2.3-2.3c1.5 1.5 2.7 2.4 3.7 2.9s1.9.5 2.7.2 1.7-1 2.7-2l21.8-21.7c1.5-1.5 2.2-2.9 2.2-4.1 0-1.2-1.1-2.9-3.3-5.1l2.4-2.3 17.5 17.6-2.4 2.3c-1.5-1.5-2.7-2.4-3.7-2.9s-1.9-.5-2.7-.2-1.7 1-2.7 2L209.6 821c-1 1-1.7 1.9-2 2.6s-.3 1.7.1 2.7c.4 1 1.4 2.3 2.9 3.8l-2.3 2.5z"/>
  <path d="M281.1 834.7c-1.8-1.5-3.2-2.4-4.3-2.6-1.1-.3-2-.1-2.8.4-.8.6-1.8 1.6-3.1 3.2l-24.7 29.9-2.6-2.1-.5-49.7-17.1 20.8c-1.3 1.6-2.1 2.8-2.5 3.7s-.4 1.8.1 2.9c.5 1 1.6 2.3 3.4 3.8l-2.1 2.6-14-11.6 2.1-2.6c1.7 1.4 3 2.2 4.1 2.4s2 .1 2.7-.5c.8-.6 1.8-1.6 3.1-3.2l15.9-19.2c1.3-1.6 2.2-2.8 2.8-3.6s.9-1.7 1.1-2.5c.2-.8 0-1.7-.4-2.7-.4-.9-1.2-2-2.4-3.2l2.1-2.6 11 9.1.5 43.1 14.2-17.2c1.2-1.4 2-2.6 2.4-3.5s.4-1.9 0-2.9-1.5-2.3-3.2-3.6l2.1-2.6 14.1 11.6-2 2.4zM326.9 892.6c-1.3-.6-2.3-.9-3.1-1-.8-.1-1.4.1-2 .6s-1.3 1.4-2 2.8l-5.7 9.9c-3-1.7-6.5-3.2-10.5-4.4-2.9-.9-5-1.6-6.4-2.1s-3-1.3-4.7-2.3c-4.6-2.6-7.9-6-9.9-10s-2.9-8.2-2.6-12.5 1.5-8.3 3.5-11.8c2.3-4.1 5.4-7.3 9.3-9.5 3.9-2.3 8-3.4 12.4-3.4s8.6 1.1 12.5 3.3c4.8 2.7 8.2 6.9 10.3 12.5 1-.6 2.1-1.6 3.3-3l3 1.7-7.6 14.1-2.9-1.7c.8-2.4 1.1-4.8.8-7.2-.2-2.4-.9-4.7-2.1-6.8s-2.9-3.7-5.1-4.9c-1.6-.9-3.3-1.5-5.1-1.8-1.8-.3-3.8-.2-5.9.4-2.1.6-4.2 1.9-6.4 3.8s-4.2 4.6-6.2 8c-1.7 3-3 6-4 9.1-.9 3.1-1 6.2-.2 9.2.8 3.1 2.9 5.6 6.4 7.6 2.8 1.6 5.1 2.3 7 2.3 1.9-.1 3.4-.6 4.6-1.6 1.1-1 2.2-2.3 3-3.8s1.3-2.6 1.5-3.4c.2-.8-.1-1.6-.7-2.3-.6-.8-1.8-1.6-3.4-2.6l1.6-2.9 18.9 10.8-1.6 2.9zM385.2 910.3c-1.6 4.1-4.1 7.6-7.5 10.5-3.4 2.8-7.4 4.6-12.2 5.3-4.7.7-9.7 0-15-2.1-4.3-1.7-7.8-3.9-10.5-6.5-2.7-2.7-4.7-5.6-5.8-8.7-1.2-3.1-1.7-6.3-1.6-9.5s.7-6.1 1.8-8.9c1.6-4 4-7.5 7.4-10.4 3.3-2.9 7.3-4.6 12-5.3s9.7 0 15 2.1c4.9 1.9 8.7 4.3 11.5 7.2s4.6 6 5.6 9.1c1 3.2 1.3 6.2 1.1 9.2-.3 3-.9 5.6-1.8 8zm-10.9-4.4c1-2.6 1.7-5.1 2.2-7.5.5-2.5.5-4.8.1-7.1s-1.3-4.3-2.8-6.2c-1.5-1.8-3.6-3.3-6.4-4.4-3.8-1.5-7.2-1.7-10.1-.7-2.9 1.1-5.3 2.9-7.2 5.5-1.9 2.6-3.5 5.6-4.9 9-.7 1.9-1.4 3.9-1.9 6-.6 2.1-.8 4.5-.7 7 .1 2.5.9 4.9 2.4 7.2s3.9 4.1 7.1 5.3c3.2 1.3 6.2 1.6 8.8.8s4.8-2 6.6-3.8c1.8-1.8 3.2-3.7 4.2-5.6s1.9-3.7 2.6-5.5zM441.8 924.4c-.8 3.4-2.1 6.4-3.9 8.9s-3.9 4.5-6.1 5.9c-2.3 1.4-4.6 2.4-6.9 2.8-4.9.9-10.6.7-17-.8l-21.7-5 .7-3.2c2 .5 3.6.6 4.7.5s1.9-.6 2.4-1.3.9-1.8 1.2-3.2l7-30.1c.5-2.1.4-3.6-.3-4.6-.6-1-2.5-1.9-5.5-2.6l.8-3.3 10.3 2.2c.4.1 1.8.4 4.3.9s4 .8 4.4.9c3.9.9 7.2 1.9 9.8 2.9 2.6 1.1 5 2.3 7 3.8 1.9 1.3 3.5 2.9 4.9 4.9 1.4 1.9 2.5 4 3.2 6.2.8 2.2 1.2 4.5 1.3 7 .2 2.2 0 4.7-.6 7.2zm-11.3-2.9c1.1-4.9 1.2-9.3 0-13.1-1.1-3.8-3.1-6.7-6.1-8.7-1.3-.9-2.7-1.6-4.2-2.1s-3.8-1.1-6.7-1.8l-7.8 33.5c-.4 1.9-.7 3.3-.7 4.3s.4 1.7 1.2 2.4c.8.7 2.2 1.2 4.1 1.7 5.7 1.3 10.2.3 13.5-3.2 3.2-3.5 5.5-7.8 6.7-13zM532.9 908.9c-1.8.1-3 .3-3.9.7s-1.5 1.1-2 2.2-1.2 2.9-2.1 5.7l-11.5 37.2-5-.2-11.1-35.5-12.9 34.7-4.9-.2-10-39c-.6-2.3-1.2-4.1-1.7-5.2-.5-1.1-1.2-1.9-1.9-2.3-.7-.4-1.8-.6-3.2-.6l.1-3.3 21.2.7-.1 3.3c-1.7-.1-2.9 0-3.7.3-.8.2-1.2.9-1.2 2.1 0 .8.2 2.1.7 4l6.3 24.7 12.7-33.8 4.7.2 10.9 34.6 6.9-22.7c.5-1.5.7-2.8.8-3.8.1-1.8-.4-2.9-1.5-3.4s-2.5-.8-4.2-.9l.1-3.3 16.8.6-.3 3.2zM580.8 932.4l1.4 16-43.3 4.8-.4-3.3c3-.3 4.9-1 5.6-1.9.8-1 1-2.5.8-4.6l-3.4-30.5c-.2-1.4-.4-2.5-.8-3.2-.4-.7-1.1-1.3-2.1-1.6-1.1-.3-2.7-.4-4.8-.1l-.4-3.3 40.3-4.5 2 12.5-3.3.4c-1.1-2.7-2.1-4.6-3.2-5.7-1.1-1.1-2.3-1.7-3.5-1.9-1.2-.1-3.1-.1-5.5.2l-9.1 1 1.9 17.2 4.9-.5c1.7-.2 2.9-.5 3.7-.9s1.3-1 1.6-1.9c.2-.9.3-2.2.2-4l3.4-.4 1.8 16.2-3.3.4c-.3-1.8-.7-3.1-1.2-3.9-.5-.8-1.1-1.3-2-1.5s-2.1-.2-3.8 0l-5 .6 1.3 11.4c.2 1.9.4 3.3.6 4.2.2.9.5 1.6 1 2.1s1.2.9 2.2 1c1 .2 2.3.1 4.1-.1l3.9-.4c1.6-.2 3.2-.6 4.6-1.2 1.4-.6 2.8-1.8 4-3.7s1.9-4.7 2.1-8.5l3.7-.4zM641.6 898.1l-3.3.9c-1.1-2.8-2.3-4.8-3.7-6-1.4-1.1-2.7-1.7-3.9-1.7s-2.6.2-4.1.6l-6 1.6 9.4 34.6c.4 1.4.8 2.4 1.3 3.1.5.7 1.3 1.1 2.4 1.2 1.1.1 2.7-.1 4.7-.6l.9 3.2-23.7 6.4-.9-3.2c2.9-.8 4.7-1.7 5.3-2.8s.6-2.6.1-4.7l-9.4-34.6-5 1.4c-2 .5-3.6 1.1-4.8 1.8s-2.1 1.8-2.7 3.5-.6 4 .1 6.9l-3.3.9-3.6-13.4 46.6-12.6 3.6 13.5zM706.7 909.2l-12.1 5c-.6-.3-1.5-.8-2.5-1.4-1-.7-2.2-1.5-3.5-2.4s-2.4-1.7-3.2-2.3l-5.2-3.8c-2.3-1.7-4-2.8-5-3.3s-2.1-.7-3.1-.6c-1 .1-2.6.7-4.7 1.6l-1.7.7 4.9 11.8c.5 1.2 1.1 2.2 1.6 2.8.6.6 1.4 1 2.6.9s2.7-.4 4.6-1.2l1.3 3.1-22.6 9.4-1.3-3.1c2.8-1.1 4.4-2.3 4.8-3.4.5-1.1.3-2.7-.5-4.6l-11.9-28.5c-.8-1.9-1.8-3.1-2.9-3.6s-3.1-.2-5.8 1l-1.3-3.1 10.3-4.7c.8-.4 1.7-.8 2.7-1.2 1-.5 2-.9 2.9-1.2.7-.3 1.8-.7 3.5-1.4 2.3-.9 4.4-1.6 6.5-2.2 2-.6 3.7-1 4.9-1.2 1.8-.3 3.7-.2 5.6.1 1.9.4 3.7 1.1 5.3 2.3s2.9 2.9 3.7 5c.6 1.5.9 3.1.8 4.8-.1 1.7-.6 3.4-1.6 5.1s-2.5 3.4-4.6 5c2 .3 3.9.9 5.6 1.8s4.6 2.8 8.6 5.6c2.3 1.6 4.1 2.7 5.5 3.4s2.5 1.1 3.4 1.2c.9.1 2-.1 3.2-.5l1.2 3.1zm-32.5-25.3c-1.5-3.6-3.6-5.5-6.3-5.8s-5.8.3-9.3 1.8c-.5.2-.9.4-1.1.5-.3.1-.6.3-.9.4l7.6 18.1 2.1-.9c3.4-1.4 5.9-3.1 7.8-5.1 1.7-2 1.7-5 .1-9zM731 842.8c-1.9 1.1-3.1 2.1-3.7 3-.6.9-.7 1.8-.4 2.7s.9 2.2 1.9 3.9l9 15.7c1.6 2.9 2.8 5.1 3.4 6.7.6 1.6.9 3.3.9 5.3 0 3.8-1 7-3.3 9.7-2.2 2.7-4.7 4.8-7.3 6.3-1.9 1.1-4.1 2-6.4 2.7-2.3.7-4.7.9-7.2.8-2.4-.2-4.7-.9-6.7-2.3-1.1-.8-2.1-1.6-3-2.5s-1.6-1.8-2.2-2.7c-.6-.9-1.3-2.1-2.2-3.6l-10.2-17.6c-1-1.8-2.2-2.9-3.3-3.3-1.2-.3-3 .2-5.7 1.8l-1.6-2.9 21.4-12.2 1.6 2.9c-1.8 1-3.1 2-3.8 2.9s-1 1.7-.9 2.6c.1.8.5 1.9 1.2 3.1l10.1 17.7c1 1.8 2 3.4 3 4.6 1 1.3 1.9 2.3 2.9 3.1 1.7 1.3 3.7 1.9 5.9 2 2.3 0 4.4-.5 6.5-1.7 2.2-1.3 3.9-3 5.2-5.1 1.3-2.2 1.8-4.3 1.5-6.4-.2-1.7-.6-3.3-1.2-4.8s-1.5-3.3-2.7-5.3l-8.7-15.3c-.8-1.4-1.4-2.4-1.9-3s-1-1.1-1.7-1.4c-.7-.3-1.5-.3-2.5 0s-2.3.8-3.8 1.7l-1.6-2.9 15.6-8.9 1.9 2.7zM779.8 845.5c.9 1.2 1.6 2.7 2.1 4.5.5 1.7.7 3.6.5 5.7s-.7 4-1.7 6-2.6 3.7-4.7 5.3c-2.1 1.5-4.5 2.6-7.2 3.2-2.7.6-5.5.5-8.2-.2.4 1.9 1 3.5 1.7 4.9l-2.7 2-9.9-13.5 2.7-2c1.9 1.6 3.9 2.9 6 4s4.4 1.6 6.9 1.7 4.8-.7 7.1-2.4c2-1.5 3.2-3.2 3.5-5.1.4-2 0-3.8-1.2-5.4-.7-.9-1.5-1.6-2.4-2s-1.9-.7-3-.7-2.5.1-4.2.3c-1.7.3-3.5.6-5.6 1.1-3.2.6-6 .9-8.4.9s-4.3-.3-5.9-.8c-1.6-.5-2.9-1.1-3.9-1.9-1-.7-1.9-1.6-2.6-2.6-1.3-1.8-2.1-3.8-2.4-6.3-.3-2.4 0-4.8 1.1-7.3 1-2.4 2.7-4.5 5.1-6.3 1.8-1.4 3.9-2.2 6.2-2.6s4.5-.3 6.8.2c-.3-1.1-.8-2.4-1.6-4.1l2.7-2 8.1 11-2.7 2c-6.3-4.5-11.9-5.1-16.7-1.5-1.7 1.3-2.8 2.8-3.2 4.5s0 3.3 1 4.7c.8 1.1 1.9 1.9 3.2 2.2 1.3.4 2.7.4 4.2.2s3.9-.6 7.1-1.3c3.9-.8 7.1-1.3 9.4-1.5 2.4-.2 4.7 0 7 .7 2.3.8 4.2 2.2 5.8 4.4zM805.8 793.7l-2.5 2.3c-2.3-2-4.3-3.2-6-3.6-1.7-.4-3.1-.3-4.2.3s-2.2 1.4-3.3 2.4l-4.5 4.2 24.4 26.2c1 1 1.8 1.7 2.6 2.1.7.4 1.7.4 2.7 0 1.1-.4 2.4-1.3 3.9-2.7l2.3 2.4-18 16.7-2.3-2.4c2.2-2 3.3-3.7 3.4-4.9 0-1.2-.7-2.6-2.1-4.2l-24.4-26.2-3.8 3.5c-1.5 1.4-2.6 2.7-3.4 3.8-.8 1.2-1 2.6-.8 4.4s1.3 3.8 3.3 6.1l-2.5 2.3-9.4-10.2 35.4-32.9 9.2 10.4z"/>
  <g id="g1780" transform="matrix(.84592 0 0 -.8523 315.79083 648.78815)">
    <g id="g1782" transform="translate(-52.8392 16.2226)">
      <path id="path1784" d="M-114.5-115.1l7.9-24.2h25.7l-20.8-15 7.9-24.2-20.8 15-20.8-15 7.9 24.2-20.8 15h25.7l8.1 24.2z"/>
    </g>
  </g>
  <g id="g1786" transform="matrix(.84592 0 0 -.8523 315.79083 648.78815)">
    <g id="g1788" transform="translate(28.7816 16.2226)">
      <path id="path1790" d="M590.9-115.1l7.9-24.2h25.7l-20.8-15 7.9-24.2-20.8 15-20.8-15 7.9 24.2-20.8 15H583l7.9 24.2z"/>
    </g>
  </g>
  <path d="M601.2 417.7c-13.7-1.4-27.8.2-41.4-1.9-17.7-2.8-33.5-11.7-49.9-18.4-23.5 16.9-51.4 21.6-81.6 15.8-2.3 7.6-3.7 15.5-4.5 23.5h7.5l2.5-7.8 2.5 7.8h8.5l-6.8 5.1 2.6 8.1-6.6-4.9-6.8 4.9 2.6-8.1-6.1-4.5c-.6 7.1-.7 14.2-.3 21.3h7.9l2.5-7.8 2.5 7.8h8.5l-6.8 5.1 2.6 8.1-6.8-4.9-6.8 4.9 2.6-8.1-6.4-4.7c.5 7.6 1.5 15.1 3 22.4h.1c2.9 12.5 7.4 25.9 13.9 39.3v-39.3H456V547c4.6 6.4 9.8 12.6 15.7 18.7v-84.4h15.7v98.8c4.9 4 10.1 7.9 15.7 11.5V481.4h15.7v111.3c3.9-3.1 9.4-7.6 15.7-13.5v-97.9h15.7V563c5.2-5.9 10.5-12.4 15.7-19.6v-62.1h15.7V518c6-11.6 11-24.4 14.4-38.3h-.2c4.8-20.7 5.4-40.8 5.4-62zm-122 54.2l-6.8-4.9-6.8 4.9 2.6-8.1-6.9-5.1h8.4l2.5-7.8 2.5 7.8h8.5l-6.8 5.1 2.8 8.1zm-2.6-30l2.6 8.1-6.8-4.9-6.8 4.9 2.6-8.1-6.9-5.1h8.4l2.5-7.8 2.5 7.8h8.5l-6.6 5.1zm38.5 21.9l2.6 8.1-6.8-4.9-6.8 4.9 2.7-8.1-6.9-5.1h8.4l2.5-7.8 2.5 7.8h8.5l-6.7 5.1zm0-21.9l2.6 8.1-6.7-5-6.8 4.9 2.7-8.1-6.9-5.1h8.4l2.5-7.8 2.5 7.8h8.5l-6.8 5.2zm0-22l2.6 8.1-6.7-5-6.8 4.9 2.7-8.1-6.9-5.1h8.4l2.5-7.8 2.5 7.8h8.5l-6.8 5.2zm41.2 52l-6.8-4.9-6.8 4.9 2.7-8.1-6.9-5.1h8.4l2.5-7.8 2.5 7.8h8.5l-6.8 5.1 2.7 8.1zm-2.7-30l2.6 8.1-6.8-4.9-6.8 4.9 2.7-8.1-6.9-5.1h8.4l2.5-7.8 2.5 7.8h8.5l-6.7 5.1zm31.8-5.2l2.5-7.8 2.5 7.8h8.5l-6.8 5.1 2.6 8.1-6.7-4.9-6.8 4.9 2.6-8.1-6.9-5.1h8.5zm2.6 30.2l-6.8 4.9 2.6-8.1-6.9-5.1h8.4l2.5-7.8 2.5 7.8h8.5l-6.8 5.1 2.6 8.1-6.6-4.9z"/>
</svg>
