<svg xmlns="http://www.w3.org/2000/svg" viewBox="0 0 512 512"><title>insert-card</title><path d="M255.81,167.11a5.08,5.08,0,0,1-4-1.94L199.13,98.3a5.09,5.09,0,0,1,4-8.23h21.59V38.85a5.09,5.09,0,0,1,5.09-5.09h52a5.09,5.09,0,0,1,5.09,5.09V90.06H308.5a5.09,5.09,0,0,1,4,8.23L259.8,165.18A5.08,5.08,0,0,1,255.81,167.11Z" fill="#9959a4"/><path d="M255.81,512c-38.84,0-75.42-4.7-103-13.25C123,489.51,107.18,477,107.18,462.46V404.75H404.43v57.71c0,14.5-15.78,27-45.62,36.29C331.23,507.3,294.65,512,255.81,512ZM117.36,462.7c0.47,18.56,57.2,39.13,138.45,39.13s138.05-20.6,138.45-39.17V414.92H117.36V462.7Z"/><path d="M255.81,454.09c-38.84,0-75.42-4.7-103-13.25-29.85-9.24-45.63-21.79-45.63-36.29s15.78-27,45.63-36.29C180.39,359.72,217,355,255.81,355s75.42,4.7,103,13.25c29.85,9.24,45.62,21.79,45.62,36.29s-15.78,27-45.62,36.29C331.23,449.38,294.65,454.09,255.81,454.09Z"/><path d="M255.81,365.19c-81.59,0-138.45,20.75-138.45,39.36s56.86,39.37,138.45,39.37,138.46-20.75,138.46-39.37S337.4,365.19,255.81,365.19Z" fill="#fff"/><path d="M250.2,243.41a5.09,5.09,0,0,1-3.68-8.6c2.54-2.66,62.21-65.2,70.38-73.38,9.82-9.83,27.41-15.7,38.75-15.7H506.91a5.09,5.09,0,0,1,0,10.17H355.65c-9.1,0-24,5.11-31.56,12.72-8.09,8.09-69.6,72.56-70.22,73.21A5.08,5.08,0,0,1,250.2,243.41Z"/><path d="M350.58,410.49H161V234.55a17.84,17.84,0,0,1,17.82-17.82h153.9a17.84,17.84,0,0,1,17.82,17.82V410.49Z"/><path d="M171.21,400.32H340.41V234.55a7.65,7.65,0,0,0-7.65-7.64H178.86a7.65,7.65,0,0,0-7.64,7.64V400.32Z" fill="#fff"/><path d="M357.48,203.15s-60.68,63.82-77,80.42c-21.31,21.69,11.59,56.84,32.16,38.14,25.63-23.3,45.62-43.38,45.62-43.38,43,22.44,85.88-.66,96.21-44.61" fill="#fff"/><path d="M299.58,332.15c-8.14,0-16-4.16-21.55-9.94-10.49-10.9-14.26-28.9-1.17-42.21,16.09-16.38,76.32-79.72,76.93-80.35a5.09,5.09,0,0,1,7.37,7c-0.61.64-60.9,64-77,80.48-8.93,9.08-5.61,20.9,1.25,28,6.25,6.5,16.05,9.88,23.86,2.78,25.23-22.94,45.24-43,45.44-43.21l2.64-2.65,3.32,1.73c18.49,9.65,37.88,10.74,54.6,3.09,17-7.79,29.51-24,34.31-44.35a5.09,5.09,0,0,1,9.9,2.33c-5.52,23.48-20.09,42.16-40,51.27-18.61,8.53-39.85,7.91-60.18-1.65-6.25,6.18-23.08,22.67-43.21,41A24.1,24.1,0,0,1,299.58,332.15Z"/><path d="M256,407.11H245.88V376.73a1.88,1.88,0,0,0-1.86-1.86H212.86a1.88,1.88,0,0,0-1.86,1.86v30.38H200.83V376.73a12,12,0,0,1,12-12H244a12,12,0,0,1,12,12v30.38Z"/><path d="M358.35,410.67H153.27a5.09,5.09,0,1,1,0-10.17H358.35A5.09,5.09,0,0,1,358.35,410.67Z"/><rect width="512" height="512" fill="none"/></svg>