<svg xmlns="http://www.w3.org/2000/svg" viewBox="0 0 512 512"><title>take-card-to-printer</title><rect width="512" height="512" fill="none"/><polygon points="295.9 375.93 295.9 437.69 362.74 437.69 362.74 469.36 442.15 406.81 362.74 344.26 362.74 375.93 295.9 375.93" fill="#9959a4"/><path d="M362.74,475.4a6,6,0,0,1-6-6V443.73H295.9a6,6,0,0,1-6-6V375.93a6,6,0,0,1,6-6h60.8V344.26a6,6,0,0,1,9.78-4.74l79.4,62.55a6,6,0,0,1,0,9.49l-79.4,62.55A6,6,0,0,1,362.74,475.4Zm-60.8-43.75h60.8a6,6,0,0,1,6,6v19.23l63.61-50.11L368.78,356.7v19.23a6,6,0,0,1-6,6h-60.8v49.68Z" fill="#9959a4"/><rect x="273.4" y="86.2" width="238.96" height="171.87" rx="12.2" ry="12.2" transform="translate(117.38 500.89) rotate(-73.7)" fill="#fff"/><path d="M433.53,314a18.23,18.23,0,0,1-5.12-.74L286.87,271.9a18.26,18.26,0,0,1-12.38-22.62L334.72,43.34A18.25,18.25,0,0,1,357.34,31l141.54,41.4A18.26,18.26,0,0,1,511.27,95L451,300.92A18.27,18.27,0,0,1,433.53,314ZM352.23,42.3a6.17,6.17,0,0,0-5.92,4.43L286.08,252.67a6.16,6.16,0,0,0,4.18,7.64l141.54,41.4a6.15,6.15,0,0,0,7.64-4.18L499.67,91.59a6.17,6.17,0,0,0-4.18-7.64L354,42.55A6.13,6.13,0,0,0,352.23,42.3Z"/><path d="M439.43,168.21a14.3,14.3,0,0,1-4-.58l-25.6-7.49a14.31,14.31,0,0,1-9.7-17.72l12.24-41.83a14.29,14.29,0,0,1,17.72-9.7l25.61,7.49a14.31,14.31,0,0,1,9.7,17.72l-12.24,41.83A14.34,14.34,0,0,1,439.43,168.21ZM426.07,102.4a2.24,2.24,0,0,0-1.07.28,2.19,2.19,0,0,0-1.06,1.3L411.7,145.81a2.23,2.23,0,0,0,1.5,2.74L438.8,156a2.16,2.16,0,0,0,1.68-.19,2.2,2.2,0,0,0,1.06-1.31l12.24-41.83a2.24,2.24,0,0,0-1.5-2.74l-25.61-7.49h0A2.21,2.21,0,0,0,426.07,102.4Z"/><path d="M204.88,200.77a49.26,49.26,0,1,1,49.26-49.26A49.32,49.32,0,0,1,204.88,200.77Zm0-86.45a37.19,37.19,0,1,0,37.19,37.19A37.23,37.23,0,0,0,204.88,114.32Z"/><path d="M324.84,217a25.93,25.93,0,0,0-36.45,4L277,235.23a25.83,25.83,0,0,1-29.12,8.16l-121-44a78,78,0,0,0-86.3,23.34L20.73,246.61a25.94,25.94,0,0,0,38.07,35.24c0.59-.66,1.16-1.33,1.69-2l19.94-23.86a26.05,26.05,0,0,1,28.79-7.76l29,10.53L105.66,349.9a25.92,25.92,0,0,1-24.6,17.74H32a25.94,25.94,0,1,0,0,51.87H81.06a77.69,77.69,0,0,0,70-43.74l19.43,7.78A26,26,0,0,1,186,413.91l-15,59.82a25.93,25.93,0,1,0,50.32,12.59l14.94-59.89a78.09,78.09,0,0,0-46.6-91.1L168.88,327l18.05-50.63,43.23,15.72a77.8,77.8,0,0,0,87.35-24.5l11.34-14.06a26,26,0,0,0-4-36.47Z" fill="#fff"/><path d="M196.27,512a32,32,0,0,1-31-39.73l15-59.82a20.1,20.1,0,0,0-12-23.3l-14.38-5.76a84.29,84.29,0,0,1-72.69,42.16H32a32,32,0,0,1,0-63.94H81.06A19.87,19.87,0,0,0,99.94,348l30.55-85.66-23.32-8.48a20.09,20.09,0,0,0-22.1,6L65.13,283.68c-0.46.62-1.13,1.42-1.83,2.19a32,32,0,0,1-47.12-43.24L36,218.88a84.33,84.33,0,0,1,93-25.16l121,44a19.78,19.78,0,0,0,22.33-6.25l11.36-14.18a32,32,0,0,1,44.65-5.19l0.33,0.25a32,32,0,0,1,4.9,45L322.2,271.37a83.8,83.8,0,0,1-94.11,26.38l-37.52-13.64-14.06,39.42L192,329.72a84.54,84.54,0,0,1,50.22,98.16l-14.94,59.91A32,32,0,0,1,196.27,512ZM151.05,369.73a6,6,0,0,1,2.24.43l19.43,7.78a32.24,32.24,0,0,1,19.18,37.41l-15,59.85a19.9,19.9,0,1,0,38.6,9.66L230.49,425a72.39,72.39,0,0,0-43-84l-20.85-8.33a6,6,0,0,1-3.45-7.63l18.05-50.63a6,6,0,0,1,7.75-3.65l43.23,15.72a71.71,71.71,0,0,0,80.57-22.6l11.36-14.08a19.94,19.94,0,0,0-2.84-27.79l-0.25-.19a19.92,19.92,0,0,0-28,3.09L281.76,239a31.81,31.81,0,0,1-35.91,10.05l-121-44a72.22,72.22,0,0,0-79.6,21.54L25.37,250.47l-0.21.24a19.9,19.9,0,1,0,29.21,27c0.41-.46.88-1,1.32-1.59L75.8,252.08a32.2,32.2,0,0,1,35.47-9.57l29,10.54a6,6,0,0,1,3.62,7.7l-32.52,91.19a31.88,31.88,0,0,1-30.29,21.75H32a19.9,19.9,0,0,0,0,39.8H81.14a72.08,72.08,0,0,0,64.48-40.35A6,6,0,0,1,151.05,369.73Z"/></svg>