<svg xmlns="http://www.w3.org/2000/svg" viewBox="0 0 259.2 122.73">
  <title>instructions-fill-oval-v2</title>
  <ellipse cx="36.35" cy="27.98" rx="23.12" ry="15.24"/>
  <path d="M63.9,30.8c0,1.42,5.45,5.59,10.76,9.14l2.73-11.56C70.41,28.77,63.9,29.54,63.9,30.8Z" style="stroke: #000;stroke-miterlimit: 10;stroke-width: 2px"/>
  <path d="M36.35,112.37c-9.5,0-17.47,3.59-21.07,8.87h6.11c3.44-2.66,8.92-4.42,15-4.42s11.51,1.76,14.95,4.42h6.11C53.81,116,45.84,112.37,36.35,112.37Z"/>
  <path d="M36.35,93.08c-13,0-23.12-6.7-23.12-15.24S23.38,62.59,36.35,62.59s23.11,6.7,23.11,15.25S49.31,93.08,36.35,93.08Zm0-26C26.22,67,17.67,72,17.67,77.84s8.55,10.79,18.68,10.79S55,83.69,55,77.84,46.47,67,36.35,67Z"/>
  <path d="M218.44,104.45c2.23,2.45,16.83,9.57,33.61,17.27h6.1V88.38L127,49.23c-4,18.89-5.4,40.41,42.86,42.32C202,92.82,212.26,106.63,218.44,104.45Z" style="fill: #b3b3b3;stroke: #000;stroke-miterlimit: 10;stroke-width: 2px"/>
  <path d="M258.16,9.88c-16.39-.86-34.1,1.5-42.17,2.86-10.71,1.82-67.46,1.71-78.64,1.27-8.35-.32-15.52,35.86,25.34,44.4s50.76-.26,56.21-4.07l39.26,16.3Z" style="fill: #b3b3b3;stroke: #000;stroke-miterlimit: 10;stroke-width: 2px"/>
  <path d="M214.74,39.2s-8.8,14.56-16.89,13.89" style="fill: none;stroke: #000;stroke-miterlimit: 10;stroke-width: 2px"/>
  <rect x="0.97" y="0.97" width="257.18" height="120.77" style="fill: none;stroke: #000;stroke-miterlimit: 10;stroke-width: 1.9348652921848282px"/>
  <path d="M258.2,59.45C213.27,48.68,153,34.33,145.11,33,132.4,30.8,98.43,28.26,90.8,28.07c-3.23-.07-8.62,0-13.75.31L74.32,39.94c2.86,1.91,5.68,3.65,7.58,4.66,5.45,2.91,43.6,20.16,56.13,24.7,7.88,2.86,72.95,20.24,120.17,32.75Z" style="fill: #737373;stroke: #000;stroke-miterlimit: 10;stroke-width: 2px"/>
  <g>
    <path d="M258.15,121.73V117c-7.92-3.68-15.6-7.07-22-9.62-7.39-13.94-20-25.29-32.39-32.68-15.54-9.28-36.45-11.47-47.34-8.63s-20.88,15.69-19.74,29c.47,5.47,5,14.81,15.16,26.62Z" style="fill: #b3b3b3;stroke: #000;stroke-miterlimit: 10;stroke-width: 2px"/>
    <path d="M163.92,121.73h14.81c1.88-9,8.06-22.63,22.63-27.09-24-24.92-42.8-27.83-53.62-13.15C138.59,93.89,150.59,111.57,163.92,121.73Z" style="fill: #d9d9d9;stroke: #000;stroke-linecap: round;stroke-linejoin: round;stroke-width: 2px"/>
  </g>
</svg>
