<?xml version="1.0" encoding="UTF-8" standalone="no"?>
<!-- Generator: Adobe Illustrator 12.0.1, SVG Export Plug-In  -->

<svg
   xmlns:dc="http://purl.org/dc/elements/1.1/"
   xmlns:cc="http://creativecommons.org/ns#"
   xmlns:rdf="http://www.w3.org/1999/02/22-rdf-syntax-ns#"
   xmlns:svg="http://www.w3.org/2000/svg"
   xmlns="http://www.w3.org/2000/svg"
   xmlns:sodipodi="http://sodipodi.sourceforge.net/DTD/sodipodi-0.dtd"
   xmlns:inkscape="http://www.inkscape.org/namespaces/inkscape"
   version="1.1"
   width="272.65399"
   height="274.27802"
   viewBox="0 0 272.65399 274.27802"
   enable-background="new 0 0 288 288"
   xml:space="preserve"
   id="svg2"
   inkscape:version="0.48.1 "
   sodipodi:docname="AJAX.svg"><metadata
   id="metadata93"><rdf:RDF><cc:Work
       rdf:about=""><dc:format>image/svg+xml</dc:format><dc:type
         rdf:resource="http://purl.org/dc/dcmitype/StillImage" /></cc:Work></rdf:RDF></metadata><sodipodi:namedview
   pagecolor="#ffffff"
   bordercolor="#666666"
   borderopacity="1"
   objecttolerance="10"
   gridtolerance="10"
   guidetolerance="10"
   inkscape:pageopacity="0"
   inkscape:pageshadow="2"
   inkscape:window-width="1280"
   inkscape:window-height="1004"
   id="namedview91"
   showgrid="false"
   fit-margin-top="0"
   fit-margin-left="0"
   fit-margin-right="0"
   fit-margin-bottom="0"
   inkscape:zoom="2.5961966"
   inkscape:cx="136.327"
   inkscape:cy="137.139"
   inkscape:window-x="-8"
   inkscape:window-y="-8"
   inkscape:window-maximized="1"
   inkscape:current-layer="svg2" />
<defs
   id="defs4">
</defs>
<path
   transform="translate(-7.673,-6.861)"
   style="fill:#ffffff"
   d="M 279,144 C 279,218.55844 218.55844,279 144,279 69.441559,279 9,218.55844 9,144 9,69.441559 69.441559,9 144,9 218.55844,9 279,69.441559 279,144 z"
   id="circle6" />
<path
   d="m 0,137.057 c 0,75.664 61.118,137.221 136.243,137.221 75.218,0 136.411,-61.557 136.411,-137.221 C 272.654,61.484 211.461,0 136.243,0 61.118,0 0,61.484 0,137.057 z m 2.652,0 c 0,-74.11 59.929,-134.404 133.591,-134.404 73.755,0 133.759,60.294 133.759,134.404 0,74.201 -60.004,134.568 -133.759,134.568 -73.662,0 -133.591,-60.367 -133.591,-134.568 z"
   id="path8"
   inkscape:connector-curvature="0"
   style="fill:#0a6cb6" />
<path
   d="m 38.333,137.057 c 0,54.348 43.922,98.563 97.91,98.563 53.99,0 97.915,-44.216 97.915,-98.563 0,-54.258 -43.925,-98.399 -97.915,-98.399 -53.988,0 -97.91,44.141 -97.91,98.399 z m 2.387,0 c 0,-52.941 42.852,-96.013 95.523,-96.013 52.675,0 95.528,43.071 95.528,96.013 0,53.032 -42.854,96.177 -95.528,96.177 -52.672,0 -95.523,-43.145 -95.523,-96.177 z"
   id="path10"
   inkscape:connector-curvature="0"
   style="fill:#0a6cb6" />
<path
   d="m 225.975,137.057 c 0,-49.741 -40.151,-90.054 -89.732,-90.054 -49.414,0 -89.564,40.313 -89.564,90.054 0,49.742 40.15,90.216 89.564,90.216 49.581,0 89.732,-40.474 89.732,-90.216"
   id="path12"
   inkscape:connector-curvature="0"
   style="fill:#0a6cb6" />
<path
   d="m 64.396,43.914 c -3.251,3.089 -3.251,3.089 -3.251,3.089 -1.625,-1.788 -3.251,-2.114 -4.714,-0.813 -1.625,1.463 -1.138,3.74 1.463,6.665 1.463,1.625 2.764,2.602 3.739,2.765 0.976,0.324 1.95,0 2.763,-0.651 1.302,-1.3 1.302,-2.764 0,-4.715 3.251,-2.601 3.251,-2.601 3.251,-2.601 1.301,1.789 1.789,3.577 1.626,5.364 -0.325,1.626 -1.138,3.252 -2.601,4.552 -1.788,1.464 -3.738,2.275 -6.015,1.951 -2.275,-0.162 -4.227,-1.463 -6.177,-3.576 -1.951,-2.113 -2.926,-4.227 -2.926,-6.502 0,-2.275 0.812,-4.227 2.601,-5.853 3.252,-2.926 6.665,-2.763 10.241,0.325"
   id="path14"
   inkscape:connector-curvature="0"
   style="fill:#0a6cb6" />
<path
   d="m 83.254,42.126 c 0.161,-2.275 -0.488,-4.551 -1.789,-6.665 -1.3,-2.112 -3.089,-3.575 -5.039,-4.551 -2.113,-0.976 -4.227,-0.65 -6.34,0.65 -2.112,1.3 -3.25,3.251 -3.413,5.363 -0.325,2.277 0.325,4.39 1.787,6.665 1.302,2.276 3.089,3.739 5.203,4.552 2.112,0.975 4.227,0.651 6.176,-0.649 2.114,-1.301 3.252,-3.251 3.415,-5.365 m -5.528,-4.225 c 2.112,3.25 2.275,5.527 0.487,6.665 -1.95,1.138 -3.901,0 -6.015,-3.252 -2.113,-3.413 -2.276,-5.689 -0.325,-6.827 1.79,-1.138 3.739,0 5.853,3.414 z"
   id="path16"
   inkscape:connector-curvature="0"
   style="fill:#0a6cb6" />
<path
   d="m 94.631,19.695 c 6.99,16.58 6.99,16.58 6.99,16.58 -3.251,1.464 -3.251,1.464 -3.251,1.464 -11.216,-8.453 -11.216,-8.453 -11.216,-8.453 0,0.162 0.163,0.487 0.163,0.487 0.161,0.324 0.161,0.487 0.324,0.813 4.227,9.916 4.227,9.916 4.227,9.916 -3.089,1.301 -3.089,1.301 -3.089,1.301 C 81.79,25.059 81.79,25.059 81.79,25.059 c 4.227,-1.789 4.227,-1.789 4.227,-1.789 9.752,7.479 9.752,7.479 9.752,7.479 -0.162,-0.488 -0.323,-0.813 -0.486,-1.138 -3.74,-8.778 -3.74,-8.778 -3.74,-8.778"
   id="path18"
   inkscape:connector-curvature="0"
   style="fill:#0a6cb6" />
<path
   d="m 114.625,14.33 c 4.063,17.718 4.063,17.718 4.063,17.718 -3.575,0.813 -3.575,0.813 -3.575,0.813 -9.591,-10.403 -9.591,-10.403 -9.591,-10.403 0,0.326 0.163,0.651 0.163,0.651 0.162,0.324 0.162,0.649 0.162,0.649 2.601,10.729 2.601,10.729 2.601,10.729 -3.251,0.65 -3.251,0.65 -3.251,0.65 -4.064,-17.556 -4.064,-17.556 -4.064,-17.556 4.39,-1.138 4.39,-1.138 4.39,-1.138 8.453,9.103 8.453,9.103 8.453,9.103 -0.325,-0.65 -0.488,-0.975 -0.488,-1.3 -2.112,-9.104 -2.112,-9.104 -2.112,-9.104"
   id="path20"
   inkscape:connector-curvature="0"
   style="fill:#0a6cb6" />
<path
   transform="translate(-7.673,-6.861)"
   style="fill:#0a6cb6"
   d="m 141.805,22.654 -8.453,0.813 0.163,3.577 6.664,-0.488 0.325,3.414 -6.664,0.486 0.163,4.065 8.614,-0.65 0.325,3.575 -12.84,0.813 -1.301,-18.043 12.841,-0.976 0.163,3.414"
   id="polyline22" />
<path
   d="m 153.313,20.344 c -4.39,-0.161 -4.39,-0.161 -4.39,-0.161 0.162,-2.439 -0.812,-3.903 -2.601,-4.064 -2.275,-0.162 -3.413,1.787 -3.899,5.688 0,2.276 0,3.902 0.648,4.715 0.489,0.813 1.299,1.463 2.277,1.463 1.786,0.163 2.927,-0.975 3.574,-3.252 4.064,0.651 4.064,0.651 4.064,0.651 -0.489,2.112 -1.3,3.738 -2.765,4.713 -1.461,0.977 -3.088,1.464 -5.038,1.301 -2.439,-0.161 -4.228,-1.138 -5.688,-2.926 -1.301,-1.788 -1.788,-4.064 -1.627,-6.989 0.162,-2.764 1.138,-4.877 2.601,-6.664 1.625,-1.626 3.741,-2.277 6.178,-2.114 4.227,0.325 6.502,2.925 6.666,7.639"
   id="path24"
   inkscape:connector-curvature="0"
   style="fill:#0a6cb6" />
<path
   transform="translate(-7.673,-6.861)"
   style="fill:#0a6cb6"
   d="m 177.893,24.117 -0.816,3.413 -4.224,-0.974 -3.252,14.142 -4.225,-0.976 3.251,-14.142 -4.392,-0.976 0.815,-3.413 12.843,2.926"
   id="polyline26" />
<path
   transform="translate(-7.673,-6.861)"
   style="fill:#0a6cb6"
   d="m 185.694,26.718 -5.69,17.23 -4.065,-1.463 5.853,-17.067 3.902,1.3"
   id="polyline28" />
<path
   d="M 194.115,34.487 C 190.052,32.7 190.052,32.7 190.052,32.7 c 0.974,-2.439 0.648,-3.902 -0.979,-4.715 -2.111,-0.975 -3.9,0.325 -5.524,3.901 -1.138,2.112 -1.463,3.575 -1.302,4.552 0.164,0.975 0.814,1.787 1.624,2.112 1.627,0.813 3.091,0.325 4.393,-1.626 3.735,1.951 3.735,1.951 3.735,1.951 -1.138,1.952 -2.598,3.089 -4.387,3.576 -1.624,0.325 -3.413,0.163 -5.201,-0.813 -2.114,-0.975 -3.413,-2.601 -4.064,-4.715 -0.65,-2.112 -0.325,-4.55 0.974,-7.151 1.138,-2.438 2.766,-4.227 4.879,-5.201 1.95,-0.813 4.064,-0.813 6.339,0.324 3.899,1.789 5.037,5.04 3.576,9.592"
   id="path30"
   inkscape:connector-curvature="0"
   style="fill:#0a6cb6" />
<path
   d="m 213.456,39.364 c -6.501,9.266 -6.501,9.266 -6.501,9.266 -1.138,1.624 -2.114,2.438 -2.926,3.088 -0.813,0.487 -1.786,0.487 -3.088,0.487 -1.302,-0.325 -2.601,-0.812 -3.899,-1.951 -1.466,-0.975 -2.439,-1.949 -3.091,-2.925 -0.486,-0.976 -0.65,-2.113 -0.486,-3.089 0,-1.138 0.65,-2.438 1.624,-3.9 6.504,-9.266 6.504,-9.266 6.504,-9.266 3.735,2.601 3.735,2.601 3.735,2.601 -6.501,9.266 -6.501,9.266 -6.501,9.266 -0.486,0.813 -0.812,1.463 -0.976,1.949 -0.162,0.488 0,0.977 0.164,1.464 0.164,0.488 0.65,0.976 1.302,1.3 0.647,0.488 1.138,0.813 1.788,0.813 0.487,0.163 0.974,0 1.461,-0.162 0.325,-0.326 0.814,-0.813 1.463,-1.789 6.342,-9.103 6.342,-9.103 6.342,-9.103"
   id="path32"
   inkscape:connector-curvature="0"
   style="fill:#0a6cb6" />
<path
   transform="translate(-7.673,-6.861)"
   style="fill:#0a6cb6"
   d="m 233.971,58.254 -2.437,2.763 -3.252,-3.089 -9.916,10.403 -3.087,-2.926 9.913,-10.566 -3.249,-3.089 2.601,-2.601 9.427,9.105"
   id="polyline34" />
<path
   d="m 27.66,76.913 c -2.601,5.526 -2.601,5.526 -2.601,5.526 -1.302,2.438 -1.302,4.714 -0.488,6.827 0.976,2.113 2.601,3.738 4.876,4.876 1.789,0.813 3.577,1.301 5.202,0.976 1.626,-0.163 2.763,-0.649 3.902,-1.301 0.975,-0.649 2.112,-2.112 2.925,-4.063 2.439,-5.039 2.439,-5.039 2.439,-5.039 m -5.526,3.902 c -0.325,0.813 -0.977,1.463 -1.463,1.788 -0.65,0.487 -1.463,0.649 -2.601,0.649 -0.977,0 -1.951,-0.323 -2.927,-0.812 -1.463,-0.651 -2.438,-1.626 -3.251,-2.764 -0.649,-1.138 -0.649,-2.438 0,-3.738 C 28.96,82.114 28.96,82.114 28.96,82.114 39.2,86.99 39.2,86.99 39.2,86.99 l -0.811,1.627 z"
   id="path36"
   inkscape:connector-curvature="0"
   style="fill:#0a6cb6" />
<path
   transform="translate(-7.673,-6.861)"
   style="fill:#0a6cb6"
   d="m 37.283,118.886 2.601,-8.128 -3.738,-1.138 -1.789,6.502 -3.251,-0.975 1.951,-6.503 -3.739,-1.138 -2.6,8.291 -3.414,-0.976 3.739,-12.516 17.23,5.201 -3.738,12.517 -3.252,-1.137"
   id="polyline38" />
<path
   d="m 20.345,121.289 c -0.162,1.301 -0.325,2.275 -0.162,2.927 0,0.649 0.325,1.3 0.65,1.951 0.324,0.649 0.976,1.299 1.787,1.787 0.813,0.325 1.463,0.813 2.439,0.813 1.301,0.161 2.275,0 3.25,-0.488 0.976,-0.488 1.626,-1.138 2.114,-1.951 0.487,-0.813 0.813,-1.95 0.975,-3.576 0.976,-6.989 0.976,-6.989 0.976,-6.989 -17.719,-2.601 -17.719,-2.601 -17.719,-2.601 -0.649,4.227 -0.649,4.227 -0.649,4.227 6.665,0.975 6.665,0.975 6.665,0.975 m 7.965,0.974 c -0.326,2.765 -0.326,2.765 -0.326,2.765 -0.162,0.976 -0.487,1.625 -0.975,1.95 -0.488,0.488 -1.138,0.65 -1.788,0.488 -0.649,0 -1.138,-0.325 -1.626,-0.813 -0.487,-0.487 -0.487,-1.301 -0.324,-2.275 0.324,-2.764 0.324,-2.764 0.324,-2.764 l 4.715,0.649 z"
   id="path40"
   inkscape:connector-curvature="0"
   style="fill:#0a6cb6" />
<path
   d="M 30.424,135.107 12.38,129.418 v 3.575 l 3.738,1.138 v 6.015 l -3.575,1.138 v 4.553 l 17.881,-5.853 v -4.877 m -4.552,1.95 -6.339,1.95 v -3.9 l 6.339,1.95 z"
   id="path42"
   inkscape:connector-curvature="0"
   style="fill:#0a6cb6" />
<path
   d="m 21.157,156.728 c -6.502,4.063 -6.502,4.063 -6.502,4.063 0.813,4.551 0.813,4.551 0.813,4.551 7.314,-4.551 7.314,-4.551 7.314,-4.551 1.3,1.789 2.926,2.599 5.039,2.275 1.139,-0.164 2.113,-0.65 2.926,-1.302 0.65,-0.812 1.301,-1.624 1.463,-2.601 0.163,-0.813 0.163,-2.114 -0.162,-3.574 -1.301,-7.805 -1.301,-7.805 -1.301,-7.805 -17.719,2.926 -17.719,2.926 -17.719,2.926 0.651,4.229 0.651,4.229 0.651,4.229 7.152,-1.138 7.152,-1.138 7.152,-1.138 m 7.805,1.139 c 0.325,0.974 0.325,1.624 0.325,2.11 0,0.326 -0.325,0.651 -0.651,0.977 -0.325,0.325 -0.812,0.651 -1.3,0.651 -0.488,0.161 -0.975,0 -1.463,-0.162 -0.326,-0.164 -0.649,-0.489 -0.813,-0.814 -0.163,-0.487 -0.325,-0.974 -0.488,-1.788 -0.488,-2.602 -0.488,-2.602 -0.488,-2.602 C 28.31,152.5 28.31,152.5 28.31,152.5 l 0.326,2.44 z"
   id="path44"
   inkscape:connector-curvature="0"
   style="fill:#0a6cb6" />
<path
   transform="translate(-7.673,-6.861)"
   style="fill:#0a6cb6"
   d="m 45.411,183.257 -3.413,0.973 -1.463,-4.224 -13.655,4.55 -1.3,-4.225 13.654,-4.39 -1.3,-4.388 3.413,-0.974 4.064,12.678"
   id="polyline46" />
<path
   transform="translate(-7.673,-6.861)"
   style="fill:#0a6cb6"
   d="m 33.708,200.65 10.891,-10.892 -13.005,6.989 -1.625,-3.251 15.93,-8.45 3.089,5.851 -8.128,7.964 11.053,-2.275 3.089,5.852 -15.931,8.615 -1.951,-3.9 13.006,-6.829 -15.118,2.927 -1.3,-2.601"
   id="polyline48" />
<path
   transform="translate(-7.673,-6.861)"
   style="fill:#0a6cb6"
   d="m 62.641,217.718 -5.365,-6.829 -2.762,2.439 4.063,5.201 -2.6,2.115 -4.227,-5.364 -3.088,2.438 5.364,6.828 -2.763,2.275 -8.127,-10.241 14.14,-11.216 8.128,10.078 -2.763,2.276"
   id="polyline50" />
<path
   d="m 69.598,219.96 c -12.191,13.329 -12.191,13.329 -12.191,13.329 -2.601,-2.439 -2.601,-2.439 -2.601,-2.439 3.088,-13.815 3.088,-13.815 3.088,-13.815 -0.324,0.322 -0.487,0.322 -0.487,0.486 -0.162,0.164 -0.325,0.487 -0.488,0.651 -7.315,7.963 -7.315,7.963 -7.315,7.963 -2.438,-2.275 -2.438,-2.275 -2.438,-2.275 12.191,-13.329 12.191,-13.329 12.191,-13.329 3.414,3.091 3.414,3.091 3.414,3.091 -2.764,12.027 -2.764,12.027 -2.764,12.027 0.324,-0.325 0.65,-0.651 0.813,-0.813 6.339,-6.99 6.339,-6.99 6.339,-6.99"
   id="path52"
   inkscape:connector-curvature="0"
   style="fill:#0a6cb6" />
<path
   transform="translate(-7.673,-6.861)"
   style="fill:#0a6cb6"
   d="m 89.626,235.6 -1.951,2.926 -3.576,-2.603 -8.29,12.029 -3.578,-2.438 8.291,-12.031 -3.739,-2.436 1.952,-3.088 10.891,7.641"
   id="polyline54" />
<path
   d="m 103.896,254.908 c 1.789,-1.299 3.089,-3.088 3.901,-5.688 0.65,-2.277 0.813,-4.553 0.162,-6.828 -0.649,-2.111 -2.112,-3.577 -4.55,-4.387 -2.277,-0.815 -4.39,-0.489 -6.341,0.648 -1.787,1.299 -3.088,3.251 -3.901,5.69 -0.812,2.599 -0.812,4.876 -0.162,6.99 0.65,2.111 2.276,3.574 4.552,4.387 2.438,0.815 4.389,0.65 6.339,-0.812 m -0.324,-6.991 c -1.3,3.738 -2.926,5.204 -4.877,4.554 -2.112,-0.651 -2.601,-2.927 -1.301,-6.667 1.138,-3.736 2.927,-5.202 5.039,-4.551 1.952,0.651 2.277,2.926 1.139,6.664 z"
   id="path56"
   inkscape:connector-curvature="0"
   style="fill:#0a6cb6" />
<path
   transform="translate(-7.673,-6.861)"
   style="fill:#0a6cb6"
   d="m 133.026,253.641 -8.289,-1.299 -0.651,3.899 6.665,1.138 -0.649,3.413 -6.503,-1.138 -1.138,6.991 -4.389,-0.813 2.925,-17.718 12.68,1.952 -0.651,3.575"
   id="polyline58" />
<path
   transform="translate(-7.673,-6.861)"
   style="fill:#0a6cb6"
   d="m 161.96,249.09 0.328,3.575 -4.392,0.489 1.465,14.467 -4.227,0.489 -1.463,-14.469 -4.551,0.489 -0.325,-3.576 13.165,-1.464"
   id="polyline60" />
<path
   d="m 165.83,250.682 c 4.551,6.176 4.551,6.176 4.551,6.176 4.39,-1.138 4.39,-1.138 4.39,-1.138 -5.202,-6.826 -5.202,-6.826 -5.202,-6.826 1.789,-1.463 2.439,-3.252 1.789,-5.365 -0.164,-1.138 -0.651,-1.95 -1.463,-2.763 -0.813,-0.65 -1.789,-1.138 -2.602,-1.302 -0.976,0 -2.113,0.164 -3.576,0.487 -7.642,1.952 -7.642,1.952 -7.642,1.952 4.551,17.557 4.551,17.557 4.551,17.557 4.064,-1.137 4.064,-1.137 4.064,-1.137 -1.786,-6.829 -1.786,-6.829 -1.786,-6.829 m 0.486,-8.127 c 0.977,-0.161 1.627,-0.325 1.95,-0.325 0.328,0 0.65,0.164 1.138,0.487 0.328,0.325 0.65,0.65 0.814,1.138 0.162,0.489 0.162,0.976 -0.164,1.465 -0.161,0.487 -0.486,0.811 -0.812,1.138 -0.326,0.162 -0.813,0.323 -1.786,0.487 -2.439,0.65 -2.439,0.65 -2.439,0.65 -1.138,-4.392 -1.138,-4.392 -1.138,-4.392 l 2.437,-0.648 z"
   id="path62"
   inkscape:connector-curvature="0"
   style="fill:#0a6cb6" />
<path
   d="m 176.882,235.401 2.116,19.02 3.413,-1.627 -0.487,-3.735 5.202,-2.439 2.598,2.926 4.063,-1.788 -12.353,-14.306 -4.552,1.949 m 3.74,3.577 4.387,4.876 -3.574,1.627 -0.813,-6.503 z"
   id="path64"
   inkscape:connector-curvature="0"
   style="fill:#0a6cb6" />
<path
   d="m 199.804,222.558 c 9.916,15.118 9.916,15.118 9.916,15.118 -3.09,1.952 -3.09,1.952 -3.09,1.952 -12.515,-6.339 -12.515,-6.339 -12.515,-6.339 0.162,0.323 0.323,0.323 0.323,0.486 0.164,0.326 0.325,0.487 0.486,0.651 5.853,9.102 5.853,9.102 5.853,9.102 -2.762,1.788 -2.762,1.788 -2.762,1.788 -9.752,-15.117 -9.752,-15.117 -9.752,-15.117 3.735,-2.602 3.735,-2.602 3.735,-2.602 10.893,5.691 10.893,5.691 10.893,5.691 -0.325,-0.486 -0.487,-0.814 -0.648,-1.138 -5.201,-7.805 -5.201,-7.805 -5.201,-7.805"
   id="path66"
   inkscape:connector-curvature="0"
   style="fill:#0a6cb6" />
<path
   d="m 214.434,214.759 c -1.788,3.413 -1.788,3.413 -1.788,3.413 -1.302,-0.815 -2.604,-0.651 -3.741,0.322 -1.138,1.138 -1.461,2.116 -0.813,2.926 0.325,0.328 0.651,0.49 1.141,0.49 0.486,0 1.138,-0.162 2.111,-0.813 1.624,-0.814 2.926,-1.466 3.738,-1.788 0.977,-0.326 1.949,-0.326 2.926,0 0.977,0.161 1.789,0.65 2.437,1.463 1.138,1.138 1.628,2.601 1.466,4.389 -0.164,1.625 -1.138,3.413 -2.926,5.038 -1.466,1.302 -2.926,1.952 -4.39,2.275 -1.463,0.164 -2.926,-0.162 -4.389,-1.138 2.275,-3.249 2.275,-3.249 2.275,-3.249 1.463,0.974 2.926,0.812 4.389,-0.49 0.813,-0.812 1.138,-1.299 1.299,-1.949 0.164,-0.651 0,-1.138 -0.322,-1.463 -0.328,-0.326 -0.815,-0.651 -1.302,-0.49 -0.486,0 -1.302,0.49 -2.439,0.979 -1.95,1.299 -3.735,1.786 -4.873,1.786 -1.466,0.161 -2.604,-0.487 -3.577,-1.625 -1.138,-1.141 -1.627,-2.601 -1.466,-4.226 0.164,-1.627 0.979,-3.09 2.439,-4.392 2.604,-2.434 5.202,-2.924 7.805,-1.458"
   id="path68"
   inkscape:connector-curvature="0"
   style="fill:#0a6cb6" />
<path
   d="m 227.435,211.018 c 0.815,-0.974 1.466,-1.789 1.627,-2.437 0.325,-0.489 0.489,-1.138 0.489,-1.95 0,-0.814 -0.164,-1.627 -0.65,-2.439 -0.328,-0.813 -0.977,-1.624 -1.627,-2.114 -0.977,-0.812 -1.95,-1.137 -3.088,-1.299 -1.138,0 -2.113,0.162 -2.926,0.651 -0.651,0.486 -1.625,1.299 -2.601,2.437 -4.554,5.526 -4.554,5.526 -4.554,5.526 13.98,11.541 13.98,11.541 13.98,11.541 2.765,-3.413 2.765,-3.413 2.765,-3.413 -5.204,-4.228 -5.204,-4.228 -5.204,-4.228 m -6.339,-5.038 c 1.628,-2.113 1.628,-2.113 1.628,-2.113 0.647,-0.648 1.299,-1.138 1.949,-1.299 0.651,0 1.302,0.161 1.789,0.65 0.486,0.323 0.814,0.974 0.974,1.625 0,0.486 -0.323,1.301 -0.974,2.11 -1.625,2.117 -1.625,2.117 -1.625,2.117 l -3.741,-3.09 z"
   id="path70"
   inkscape:connector-curvature="0"
   style="fill:#0a6cb6" />
<path
   d="m 244.181,193.625 c -0.977,-2.111 -2.438,-3.739 -4.715,-5.038 -2.114,-1.302 -4.39,-1.788 -6.665,-1.624 -2.275,0.161 -4.063,1.299 -5.365,3.413 -1.138,2.275 -1.46,4.225 -0.486,6.339 0.814,2.111 2.438,3.738 4.714,5.201 2.111,1.302 4.39,1.789 6.665,1.625 2.275,-0.162 4.063,-1.464 5.201,-3.577 1.298,-2.111 1.462,-4.225 0.651,-6.339 m -6.991,-1.299 c 3.413,2.114 4.553,3.902 3.413,5.85 -0.977,1.953 -3.252,1.789 -6.665,-0.161 -3.413,-1.95 -4.551,-3.902 -3.413,-5.85 0.974,-1.789 3.249,-1.789 6.665,0.161 z"
   id="path72"
   inkscape:connector-curvature="0"
   style="fill:#0a6cb6" />
<path
   d="m 245.479,178.507 c 7.641,-0.161 7.641,-0.161 7.641,-0.161 1.625,-4.226 1.625,-4.226 1.625,-4.226 -8.615,0.323 -8.615,0.323 -8.615,0.323 0,-2.437 -1.138,-3.9 -3.249,-4.715 -0.979,-0.323 -1.952,-0.486 -3.09,-0.161 -0.974,0.161 -1.952,0.65 -2.439,1.302 -0.65,0.812 -1.299,1.785 -1.788,3.251 -2.763,7.313 -2.763,7.313 -2.763,7.313 16.742,6.503 16.742,6.503 16.742,6.503 1.627,-3.9 1.627,-3.9 1.627,-3.9 -6.828,-2.603 -6.828,-2.603 -6.828,-2.603 m -6.175,-5.037 c 0.322,-0.976 0.65,-1.624 0.812,-1.788 0.162,-0.487 0.648,-0.651 0.977,-0.815 0.487,0 0.974,0 1.461,0.164 0.486,0.164 0.814,0.487 1.138,0.815 0.327,0.486 0.489,0.974 0.327,1.299 0,0.325 -0.164,0.977 -0.327,1.786 -0.974,2.439 -0.974,2.439 -0.974,2.439 -4.229,-1.625 -4.229,-1.625 -4.229,-1.625 l 0.815,-2.275 z"
   id="path74"
   inkscape:connector-curvature="0"
   style="fill:#0a6cb6" />
<path
   transform="translate(-7.673,-6.861)"
   style="fill:#0a6cb6"
   d="m 248.766,160.173 3.413,0.812 -0.977,4.39 14.306,3.087 -0.977,4.228 -14.141,-3.09 -0.974,4.392 -3.415,-0.815 2.765,-13.004"
   id="polyline76" />
<path
   d="m 241.58,148.762 17.393,7.151 0.325,-3.739 -3.577,-1.463 0.489,-5.688 3.736,-0.814 0.489,-4.551 -18.533,4.064 -0.322,5.04 m 4.714,-1.789 6.501,-1.299 -0.325,3.899 -6.176,-2.6 z"
   id="path78"
   inkscape:connector-curvature="0"
   style="fill:#0a6cb6" />
<path
   transform="translate(-7.673,-6.861)"
   style="fill:#0a6cb6"
   d="m 249.416,132.54 3.575,-0.163 0.161,4.551 14.467,-0.65 0.164,4.227 -14.467,0.649 0.164,4.552 -3.577,0.162 -0.487,-13.328"
   id="polyline80" />
<path
   transform="translate(-7.673,-6.861)"
   style="fill:#0a6cb6"
   d="m 248.276,126.199 17.882,-2.6 0.652,4.226 -17.883,2.601 -0.651,-4.227"
   id="polyline82" />
<path
   d="m 251.982,99.182 c -2.111,-0.813 -4.389,-0.813 -6.99,0 -2.275,0.488 -4.228,1.789 -5.688,3.414 -1.466,1.789 -1.953,3.901 -1.302,6.34 0.65,2.438 2.113,4.063 4.063,4.877 2.114,0.813 4.39,0.975 6.99,0.163 2.439,-0.651 4.389,-1.951 5.853,-3.577 1.463,-1.789 1.788,-3.901 1.137,-6.339 -0.65,-2.275 -1.951,-4.065 -4.063,-4.878 m -5.852,4.227 c 3.9,-0.975 6.017,-0.486 6.665,1.463 0.489,2.275 -1.138,3.738 -4.876,4.878 -3.738,0.975 -6.017,0.486 -6.503,-1.626 -0.651,-2.115 0.975,-3.578 4.714,-4.715 z"
   id="path84"
   inkscape:connector-curvature="0"
   style="fill:#0a6cb6" />
<path
   d="m 229.388,86.016 c 16.42,-7.477 16.42,-7.477 16.42,-7.477 1.46,3.25 1.46,3.25 1.46,3.25 -7.963,11.542 -7.963,11.542 -7.963,11.542 0.322,-0.163 0.322,-0.163 0.486,-0.163 0.325,-0.163 0.487,-0.325 0.651,-0.488 9.752,-4.551 9.752,-4.551 9.752,-4.551 1.463,3.088 1.463,3.088 1.463,3.088 -16.417,7.641 -16.417,7.641 -16.417,7.641 -1.788,-4.227 -1.788,-4.227 -1.788,-4.227 6.99,-10.078 6.99,-10.078 6.99,-10.078 -0.487,0.162 -0.815,0.487 -0.977,0.65 -8.614,3.901 -8.614,3.901 -8.614,3.901"
   id="path86"
   inkscape:connector-curvature="0"
   style="fill:#0a6cb6" />
<path
   clip-rule="evenodd"
   d="m 70.248,184.846 -5.201,-8.45 17.719,-10.566 -4.715,-8.128 5.04,-72.498 48.115,1.463 -0.163,3.738 3.414,-0.488 0.163,-0.487 0.162,-0.162 v -0.325 l 0.162,-0.325 -0.162,-0.163 h -0.162 v -0.162 h 0.162 l -0.162,-0.162 h 0.162 v 0.162 l 0.162,-0.162 0.162,0.162 0.326,-0.487 0.162,-0.325 -0.162,-0.325 -0.163,-0.163 V 86.83 l 4.39,-0.161 4.712,0.487 1.466,0.162 v 0.488 h 1.788 l 0.651,-0.488 3.085,-0.325 52.02,0.651 0.648,21.456 0.65,12.029 -0.161,12.028 -0.489,12.841 v 0.164 l -0.162,-0.164 -0.163,-0.161 -0.162,0.161 -0.161,-0.161 h -0.164 l -0.325,-0.161 -0.325,0.161 h -0.162 l -0.161,0.325 -0.65,0.326 h -0.164 l -0.164,-0.162 -0.323,0.162 v 0.486 l 0.164,0.161 v 0.651 l -0.164,0.164 0.164,0.161 0.159,0.325 h 0.164 l 0.164,0.164 0.161,0.323 -0.161,0.325 0.161,0.325 v 0.977 h -0.161 l -0.328,0.325 v 0.813 l 0.164,0.325 0.164,0.323 v -0.162 l 0.161,0.162 v 0.328 l 0.161,0.161 -0.161,0.161 -0.489,0.977 h -0.323 l -0.164,0.161 -0.322,0.164 -0.164,0.325 -0.326,0.162 v 0.164 h -0.161 v -0.326 l -0.164,-0.161 h -0.322 0.161 l -0.161,-0.164 v 0.164 h -0.164 l 0.164,-0.489 h 0.322 -0.486 l -0.326,-0.161 0.162,-0.164 0.328,-0.164 h -0.49 l -0.161,0.328 h -0.164 l -0.161,-0.328 0.161,-0.162 -0.322,-0.976 0.322,-0.648 v -0.161 l -0.486,0.81 -0.164,0.164 h -0.323 0.323 l 0.164,-0.164 0.164,0.164 -0.164,0.486 -0.487,0.325 -0.164,0.49 -0.164,0.161 h -0.322 l -0.325,0.161 v 0.489 l -0.162,-0.325 v -0.164 l -0.328,-0.161 0.328,-0.489 -0.328,-0.162 0.164,-0.161 v -0.164 h -0.325 v -0.322 l -0.325,0.161 -0.161,0.325 h 0.325 v 0.974 l -0.325,0.328 -0.326,-0.164 v -0.325 h -0.325 l -0.161,-0.161 -0.164,0.161 v -0.977 l -0.161,-0.974 -0.162,0.161 v 1.3 l -0.814,0.489 -0.164,0.161 -0.159,-0.161 0.159,-0.489 -0.159,-0.162 -0.164,0.326 -0.325,-0.164 -0.168,0.978 v 0.323 l -0.489,0.486 v -0.81 l -0.487,0.161 0.325,-1.302 h 0.651 v -0.161 l 0.322,0.161 v -0.647 l -0.161,-0.164 v 0.164 l -0.325,0.322 v -0.161 l 0.164,-0.161 h -0.489 l -0.326,0.161 v 0.486 l -0.322,-0.325 v 1.138 l -0.328,0.164 v 0.651 l -0.161,0.812 h -0.325 l -0.162,-0.812 v 0.322 l -0.489,0.328 -0.161,-0.65 -0.161,0.65 v 0.974 l -0.328,0.164 v -0.487 l -0.648,-0.325 0.325,-0.323 v -0.164 l -0.325,-0.813 h -0.161 v -0.489 h -0.164 v 0.815 l 0.164,0.486 -0.49,0.325 -0.161,0.487 -0.65,-0.325 -0.326,-0.487 0.651,-0.974 0.161,-0.328 -0.161,-0.65 -0.325,-0.648 0.164,0.648 v 0.979 l -0.815,0.974 -0.322,-0.164 -0.164,-0.486 -0.326,-0.487 v -0.977 1.141 l 0.162,0.161 v 0.813 h -0.323 v 0.487 l -0.328,-0.162 -0.158,-0.325 h -0.651 l -0.164,-1.302 v -0.161 l -0.325,-0.651 0.161,-0.647 -0.322,-0.651 0.161,-0.977 -0.325,-1.137 v -0.651 l -0.161,-1.138 -0.49,0.813 v 1.138 l 0.164,0.976 0.326,0.326 -0.162,0.812 -0.328,0.49 v 0.322 h 0.328 v 0.164 l -0.65,0.813 0.974,1.138 -0.161,0.813 -0.326,0.164 v 0.322 l -0.486,0.489 -0.325,0.161 -0.49,0.487 -0.322,-0.161 h -0.651 l -0.486,0.161 -0.815,-0.487 -0.322,-0.486 0.161,-1.463 -0.161,-0.161 v 0.65 l -0.328,0.323 -0.161,-0.323 -0.162,0.323 h 0.162 v 0.164 h -0.326 v 0.322 h -0.322 l 0.322,0.328 -0.322,0.161 -0.489,-0.489 h -0.161 l 0.161,-0.322 -0.161,-0.326 -0.328,-0.325 0.164,-1.302 0.164,-0.65 -0.164,-0.162 -0.164,-0.486 v -0.813 l -0.159,0.487 -0.164,0.325 h -0.325 l 0.161,-0.161 -0.322,-0.651 h 0.161 l -0.161,-0.65 -0.328,-0.487 0.164,1.138 v 0.651 l 0.164,0.647 0.161,-0.161 0.161,0.813 0.164,0.489 -0.325,0.487 0.325,0.161 h -0.486 l -0.651,0.325 0.161,0.164 -0.325,0.323 -0.161,0.325 v 1.299 l 0.161,0.65 -0.161,0.328 v 0.162 l -0.161,0.161 -0.49,-0.161 v -0.326 l -0.325,-0.325 h -0.161 v -0.161 h 0.325 l -0.325,-1.302 v 0.164 -0.65 0.161 l -0.161,0.325 v 0.164 h 0.161 l -0.325,0.486 -0.326,0.323 h -0.325 v 0.328 -0.328 h -0.164 l -0.322,-0.161 -0.326,0.161 -0.161,0.164 -0.164,-0.164 h -0.164 v 0.814 h -0.322 v 0.164 l -0.164,0.162 -0.161,0.161 -0.162,0.325 -0.328,-0.325 h -0.322 c -1.133,0.254 -0.735,0.783 -1.953,0.65 h -0.65 l -0.323,0.164 -1.138,-0.164 -0.164,-0.164 -1.46,0.164 -0.164,-0.164 h -0.164 l -0.161,0.164 -0.325,-0.164 h -0.164 l -0.162,0.164 v -0.164 h -0.161 l -0.325,0.49 v 0.325 h 0.813 l 0.164,-0.164 0.161,-0.161 h 0.161 l 0.328,0.161 0.159,-0.161 h 0.164 v 0.325 h 0.163 v 0.322 h -0.163 l -0.164,-0.161 h -0.159 l -0.164,0.161 h -0.325 l -0.489,0.328 -0.162,0.162 h -1.463 v 0.325 h -0.161 l -0.161,-0.325 -0.328,-0.813 h 0.164 l 0.164,0.161 v -0.648 l -0.164,0.162 -0.164,-0.162 h -0.162 l 0.162,-0.164 v -0.164 l 0.164,-0.161 v -0.326 l 0.164,-0.161 v -0.326 h 0.161 v -0.814 l -0.161,0.164 v 0.164 l 0.161,0.322 -0.161,0.164 -0.164,0.326 -0.164,0.161 v 0.325 h -0.162 l 0.162,0.325 -0.162,0.164 -0.161,-0.164 -0.164,0.164 -0.164,-0.164 -0.158,0.326 -0.328,-0.326 h -0.487 l -0.343,0.488 h -0.325 l -0.323,-0.323 h -0.65 l -0.164,-0.164 h -0.813 l -0.325,0.164 -0.487,0.487 -0.164,0.161 v 0.161 h -0.161 l -0.161,-0.161 0.161,-0.161 v -0.325 h 0.325 l -0.325,-0.326 0.161,0.326 h -0.161 v 0.161 l -0.161,0.325 -0.328,-0.161 -0.161,-0.325 v 0.325 l 0.161,0.161 h 0.328 l -0.328,0.161 -0.161,-0.161 -0.326,-0.161 -0.161,0.161 -1.299,0.651 -0.328,0.486 v 0.325 l -0.487,-0.164 -0.163,-0.161 -0.159,0.161 -0.164,-1.138 v -0.161 h -0.164 v -0.325 0.486 l -0.813,0.164 -0.486,0.326 -0.161,0.161 h -0.164 v -0.487 l -0.164,0.326 v 0.161 l 0.164,0.164 h 0.65 l 0.161,-0.325 h 0.489 v -0.162 h 0.323 l -0.161,0.162 h -0.162 l -0.163,0.161 h -0.164 l -0.162,0.486 v 0.651 h -0.486 l -0.161,0.164 -1.302,-1.138 -0.651,-0.651 -0.65,-0.486 h -0.323 V 160.3 H 147.3 v 0.161 h -0.81 l -0.164,-0.161 h -0.325 v 0.161 H 145.84 V 160.3 l -0.487,-0.161 h -0.328 l -0.322,0.161 h -0.328 v 0.161 h -0.159 l -0.328,0.328 h -0.322 l -0.651,0.162 h -1.302 v -0.162 h -0.486 L 140.64,160.3 v -0.161 l -0.164,-0.164 v 0.164 h 0.164 v 0.322 l 0.487,0.49 h -0.164 v 0.976 l -0.323,-0.164 -0.164,-0.164 v 0.164 l -0.164,0.487 -0.322,0.489 v -0.161 h -0.164 v 0.322 h -0.161 l -0.162,-0.161 -0.489,0.161 h -0.486 l 0.325,-0.161 0.161,0.161 v -0.161 h -0.161 v -0.161 h 0.161 v -0.164 l -0.647,0.325 -0.164,-0.161 v -0.164 l 0.325,-0.164 h 0.161 l 0.487,-0.487 -0.162,-0.164 v -0.161 l -0.161,-0.161 -0.325,0.322 -0.489,0.164 h -0.162 l 0.326,-0.325 -0.164,-0.161 h 0.164 l -0.164,-0.164 -0.487,0.486 v -0.161 l 0.164,-0.161 h -0.325 v 0.486 -0.325 h -0.161 l -0.164,0.325 -0.326,0.164 0.162,-0.164 h -0.162 l -0.161,-0.164 0.323,-0.161 v -0.161 l -0.162,0.161 v -0.161 h -0.161 v -0.325 l -0.164,-0.326 v 0.651 l -0.813,0.161 h 0.161 v -0.161 h 0.164 l -0.164,-0.164 -0.161,0.164 v -0.487 h -0.162 v -0.328 h -0.163 l -0.163,-0.322 v 0.161 l 0.163,0.161 v 0.328 h -0.325 l -0.162,-0.164 h -0.162 l -0.163,0.326 h -0.162 l -0.163,-0.162 -0.163,0.323 -0.325,-0.161 h -0.649 v 0.161 l -0.163,0.325 h -0.162 v -0.161 h -0.163 l -0.486,0.322 h -0.163 l -0.163,0.164 -0.162,0.326 -0.325,0.325 v -0.164 h -0.326 l -0.161,0.164 v -0.164 l 0.161,-0.161 -0.486,-0.326 0.162,-0.325 0.324,-0.161 0.163,0.322 h 0.163 l 0.325,-0.322 v -0.164 l -0.325,-0.161 h -0.163 l -0.163,-0.326 v -0.325 l 0.163,-0.161 0.325,-0.164 h 0.488 v -0.813 0.325 l -0.163,0.164 0.163,0.162 h -0.65 l -0.163,0.325 h -0.163 l -0.161,0.486 0.324,0.326 h 0.163 v 0.161 h -0.487 l -0.163,0.164 h -0.325 v -0.325 0.161 h -0.162 v -0.161 0.161 l -0.163,0.65 h -0.325 l 0.162,0.326 -0.162,0.325 h -0.163 l -0.161,-0.164 h 0.161 l 0.163,-0.323 -0.163,0.162 -0.324,0.161 v -0.161 l 0.163,-0.326 h -0.163 v -0.325 l -0.325,0.161 v 0.164 h -0.325 v 0.326 h -0.325 l 0.325,-0.977 -0.325,-0.161 0.162,0.161 v 0.325 l -0.162,0.325 -0.487,1.138 h -0.813 l -0.486,0.164 h -0.163 l -0.488,-0.164 h -0.163 l -0.162,0.325 -0.161,-0.161 v -0.164 l -0.326,-0.161 -0.325,-0.325 0.163,-0.325 0.162,-0.326 h 0.326 v -0.65 l -0.814,-0.813 0.326,-0.325 v -0.161 l -0.326,-0.651 0.163,-1.299 0.325,-0.328 v 0.164 l 0.649,-0.325 0.163,-0.648 v -0.164 l -0.163,0.813 -0.649,0.161 -0.325,-0.161 -0.163,-0.813 v 1.138 l -0.486,0.164 -0.163,0.161 -0.813,0.977 v 0.322 l -0.162,0.164 -0.324,-0.164 -0.325,0.164 -0.163,-0.325 0.325,0.977 0.487,0.486 v 0.164 l 0.65,-0.489 v 0.161 l -0.65,0.328 -0.487,0.648 -1.3,0.489 -0.163,0.323 -0.325,-0.161 v 0.325 l -0.325,0.325 -0.324,0.648 -0.326,0.489 -0.325,0.161 -0.488,-0.322 -0.486,1.138 -0.325,0.161 -0.488,-0.161 -0.324,1.299 -0.325,0.489 h -0.651 v -0.164 h -0.813 l -0.487,0.487 -0.487,-0.813 0.975,-1.299 -0.162,-0.164 -0.813,1.302 -0.488,-0.328 -0.162,-0.648 -0.163,0.813 0.65,0.164 v 0.161 l -0.65,0.161 -0.649,1.138 -0.325,-0.161 -0.976,0.65 -1.138,1.625 -0.813,0.65 0.163,0.977 0.65,0.322 -0.487,0.328 v -0.164 h -0.814 l -0.975,0.487 -1.95,-1.299 -0.325,-0.162 0.325,-0.328 h -0.325 v -0.322 l 0.325,-0.489 h -0.162 l -0.163,0.325 v 0.486 l -0.65,-0.322 -0.487,-0.328 0.487,-1.299 -0.487,0.976 v 0.162 h -0.325 v -0.977 l -0.163,-0.161 h -0.325 l 0.163,0.161 h 0.162 v 0.651 l 0.488,0.976 -0.325,0.161 v 0.328 l -0.325,0.323 -0.163,-0.161 -0.649,0.161 -0.65,0.325 -0.65,0.651 v -0.49 l 0.65,-0.486 0.325,-0.651 0.162,-0.161 -0.162,0.161 -0.649,0.815 -0.326,-0.164 -0.162,0.325 v 0.161 l -0.325,0.328 -0.326,0.648 h -0.486 l -0.325,0.651 -0.163,0.976 -0.649,0.162 -0.813,0.65 -0.487,-0.161 h -0.325 l -0.325,-0.164 v -0.487 h -0.488 l 0.65,-1.302 -0.65,0.974 -0.486,0.328 -0.488,0.162 v 0.489 l -0.813,0.486 -0.163,-0.325 -0.65,0.161 -0.649,0.487 -0.488,-0.161 h -0.488 v -0.326 h 0.325 l 0.488,-0.486 -0.488,-0.164 -0.486,0.489 v 0.813 l -0.651,0.65 -0.162,-0.325 h -0.326 l 0.326,-0.161 v -0.489 l -0.326,0.325 -0.323,0.164 -0.326,-0.164 0.326,-1.302 H 90.92 l 0.326,-0.974 h 0.323 v -1.463 l -0.323,-0.162 h -0.163 l 0.163,0.323 v 1.138 l -0.163,0.325 -0.163,0.651 v 0.489 l -0.162,0.486 -0.163,-0.325 -0.486,1.138 0.812,0.648 v -0.323 l 0.326,0.161 -0.326,0.49 -0.975,-0.651 -0.325,0.974 -0.325,0.325 v 0.326 l -0.326,0.325 -0.162,-0.161 -0.162,-0.328 v -0.487 h -0.162 v -0.486 l -0.325,-0.164 v 0.164 h -0.192 l -0.325,-0.487 v -0.164 l 0.325,-0.161 v -0.489 l 0.163,-0.161 -0.163,-0.487 -0.163,0.648 0.163,0.489 -0.488,0.161 0.325,0.815 0.163,0.974 h -0.163 l -0.325,0.325 h 0.488 v -0.325 l 0.163,0.814 -0.163,0.487 -0.163,0.161 -0.162,-0.648 -0.163,0.161 v -0.325 l -0.161,0.164 -0.163,-0.489 v 0.489 l -0.162,0.487 v 0.161 l -0.326,0.489 -0.162,-0.489 h -0.163 l -0.162,0.65 -0.324,0.162 h 0.324 v 0.486 h -0.324 l -0.488,-0.161 v -0.487 l 0.162,-0.65 -0.162,-0.161 v 0.161 l -0.163,0.489 v 0.648 l -0.975,0.65 v -0.325 l 0.813,-0.974 -0.649,0.487 -0.326,0.161 -0.162,-0.325 -0.649,0.65 h 0.649 l -0.163,0.487 h -0.166 l -0.162,-0.162 h -0.161 v 0.162 h -0.163 v 0.325 l 0.324,-0.325 0.325,0.164 -0.649,1.137 -0.488,-0.976 0.163,-0.813 0.325,-0.325 0.163,-0.813 -0.651,1.302 v 0.648 H 82.44 l -0.162,0.161 0.162,0.164 -0.162,0.164 -0.324,-0.814 h -0.325 l 0.325,-0.323 0.161,0.323 0.163,-0.323 -1.301,-0.65 0.326,0.974 0.325,0.164 -0.163,0.161 v 0.161 l -0.162,0.328 v -0.65 l -0.326,0.974 -0.65,-0.154 h -0.488 v -0.325 1.138 h 0.488 l -0.488,1.138 h -0.325 l -0.163,0.164 -0.161,-1.302 -0.163,-0.324 0.486,-0.65 -0.324,-0.489 v 0.489 l -0.488,0.65 v 0.162 l -0.325,-0.162 -0.162,-0.814 h -0.163 l 0.325,1.138 -0.325,0.65 -0.161,-0.164 0.161,-0.322 -0.161,-0.164 -0.651,1.302 h -0.325 l -0.325,0.65 -0.324,0.81 h -0.978 v -0.322 l 0.163,-0.325 0.65,0.325 0.487,-1.138 -0.487,-0.977 -0.975,1.463 h -0.488 v -0.65 h 0.325 v -0.487 l -0.325,0.164 v -0.814 l 0.488,-1.138 h -0.163 l -0.65,1.138 -0.163,0.164 v 0.65 l 0.163,0.323 -0.649,0.325 v 0.161 H 73.5 l -0.325,0.328 v -0.328 l 0.162,-0.486 h -0.162 l -0.163,0.486 -0.162,0.164 v -0.65 l -0.163,0.65 -0.163,-0.65 H 72.2 l 0.324,0.164 v 0.322 l -0.161,-0.161 -0.163,-0.161 -0.162,0.322 0.486,0.328 v 0.162 l -0.324,0.647 -0.325,-0.322 -0.162,0.322 -0.326,-0.161 v -0.325 l -0.162,-0.161 0.162,-0.326 -0.323,0.326 -0.163,0.812 -0.163,0.164 h -0.162 l -0.651,0.974 v -0.161 l 0.163,-0.161 -0.163,-0.328 v -0.487 l 0.325,-0.974 v -0.33"
   id="path88"
   inkscape:connector-curvature="0"
   style="fill:#ffffff;fill-rule:evenodd" />
<path
   style="fill:none"
   d="m -7.6729999,-6.8610001 287.9999999,0 0,288.0000001 -287.9999999,0 z"
   id="_x3C_Slice_x3E__4_" />
</svg>