<?xml version="1.0" encoding="UTF-8" standalone="no"?>
<!-- Created with Inkscape (http://www.inkscape.org/) -->

<svg
   width="84.809998mm"
   height="49.5mm"
   viewBox="0 0 84.809998 49.5"
   version="1.1"
   id="svg1"
   xml:space="preserve"
   inkscape:version="1.4 (86a8ad7, 2024-10-11)"
   sodipodi:docname="VX~02-00067-ETCH-D.svg"
   inkscape:export-filename="..\..\..\..\..\Project\1099- VotingWorks - VxScan v4.0\Working\20241122.1_Votingworks_Folder_Structure\Working\VX~02-00067-ETCH-C1.png"
   inkscape:export-xdpi="96"
   inkscape:export-ydpi="96"
   xmlns:inkscape="http://www.inkscape.org/namespaces/inkscape"
   xmlns:sodipodi="http://sodipodi.sourceforge.net/DTD/sodipodi-0.dtd"
   xmlns="http://www.w3.org/2000/svg"
   xmlns:svg="http://www.w3.org/2000/svg"><sodipodi:namedview
     id="namedview1"
     pagecolor="#ffffff"
     bordercolor="#000000"
     borderopacity="0.25"
     inkscape:showpageshadow="2"
     inkscape:pageopacity="0.0"
     inkscape:pagecheckerboard="0"
     inkscape:deskcolor="#d1d1d1"
     inkscape:document-units="mm"
     inkscape:zoom="4.2083894"
     inkscape:cx="128.31512"
     inkscape:cy="79.008848"
     inkscape:window-width="3440"
     inkscape:window-height="1369"
     inkscape:window-x="-8"
     inkscape:window-y="122"
     inkscape:window-maximized="1"
     inkscape:current-layer="svg1" /><defs
     id="defs1"><rect
       x="40.3955"
       y="99.325409"
       width="271.28119"
       height="101.56242"
       id="rect8" /><rect
       x="57.979424"
       y="60.830872"
       width="276.50354"
       height="104.6972"
       id="rect3" /><rect
       x="40.3955"
       y="99.325409"
       width="271.28119"
       height="101.56242"
       id="rect8-8" /></defs><g
     inkscape:groupmode="layer"
     id="layer2"
     inkscape:label="BG Fill"
     style="fill:#000000;fill-opacity:1"
     sodipodi:insensitive="true"
     transform="scale(0.98494875,0.97440946)"><rect
       style="fill:#000000;fill-opacity:1;stroke:#ffffff;stroke-width:0"
       id="rect1"
       width="86.106003"
       height="50.799999"
       x="0"
       y="0"
       rx="3.0480001"
       ry="3.0480001" /></g><g
     inkscape:groupmode="layer"
     id="layer3"
     inkscape:label="Hole"
     style="fill:#ffffff;fill-opacity:1"
     sodipodi:insensitive="true"><ellipse
       style="fill:#ffffff;fill-opacity:1;stroke:#ffffff;stroke-width:0"
       id="path1"
       cx="7.4029999"
       cy="24.750238"
       rx="1.951"
       ry="1.9512382" /><circle
       style="fill:#ffffff;fill-opacity:1;stroke:#ffffff;stroke-width:0"
       id="path1-3"
       cx="77.403"
       cy="24.75"
       r="1.951" /></g><g
     style="fill:none"
     id="g1"
     transform="matrix(0.108861,0,0,0.108861,7.9391296,5.6365757)"
     inkscape:label="Votingworks "><path
       d="m 105.859,85.211 12.629,-42.2752 h 12.298 L 112.118,96.367 h -8.1 z m -11.635,-42.2752 12.592,42.2752 1.915,11.156 h -8.174 L 82,42.9358 Z"
       fill="#000000"
       id="path1-4"
       style="fill:#ffffff;fill-opacity:1" /><path
       d="m 125.889,76.9174 v -0.7706 c 0,-2.9113 0.417,-5.5902 1.252,-8.0367 0.834,-2.471 2.049,-4.6116 3.645,-6.422 1.595,-1.8104 3.559,-3.2172 5.891,-4.2202 2.332,-1.0275 5.007,-1.5413 8.027,-1.5413 3.019,0 5.707,0.5138 8.063,1.5413 2.356,1.003 4.332,2.4098 5.928,4.2202 1.62,1.8104 2.847,3.951 3.682,6.422 0.834,2.4465 1.252,5.1254 1.252,8.0367 v 0.7706 c 0,2.8869 -0.418,5.5658 -1.252,8.0367 -0.835,2.4465 -2.062,4.5872 -3.682,6.422 -1.596,1.8104 -3.559,3.2172 -5.891,4.2202 -2.332,1.0031 -5.008,1.5046 -8.027,1.5046 -3.019,0 -5.707,-0.5015 -8.063,-1.5046 -2.332,-1.003 -4.308,-2.4098 -5.928,-4.2202 -1.596,-1.8348 -2.811,-3.9755 -3.645,-6.422 -0.835,-2.4709 -1.252,-5.1498 -1.252,-8.0367 z m 10.604,-0.7706 v 0.7706 c 0,1.6636 0.147,3.2172 0.442,4.6606 0.294,1.4434 0.761,2.7156 1.399,3.8165 0.663,1.0764 1.522,1.9205 2.577,2.5321 1.056,0.6116 2.344,0.9174 3.866,0.9174 1.473,0 2.737,-0.3058 3.793,-0.9174 1.055,-0.6116 1.902,-1.4557 2.54,-2.5321 0.638,-1.1009 1.105,-2.3731 1.399,-3.8165 0.319,-1.4434 0.479,-2.997 0.479,-4.6606 v -0.7706 c 0,-1.6147 -0.16,-3.1315 -0.479,-4.5505 -0.294,-1.4434 -0.773,-2.7156 -1.436,-3.8165 -0.638,-1.1254 -1.485,-2.0061 -2.54,-2.6422 -1.056,-0.6361 -2.332,-0.9541 -3.829,-0.9541 -1.498,0 -2.774,0.318 -3.83,0.9541 -1.031,0.6361 -1.877,1.5168 -2.54,2.6422 -0.638,1.1009 -1.105,2.3731 -1.399,3.8165 -0.295,1.419 -0.442,2.9358 -0.442,4.5505 z"
       fill="#000000"
       id="path2"
       style="fill:#ffffff;fill-opacity:1" /><path
       d="m 187.775,56.6606 v 7.4862 h -23.196 v -7.4862 z m -17.453,-9.7982 h 10.604 v 37.5413 c 0,1.1498 0.148,2.0306 0.442,2.6422 0.319,0.6116 0.786,1.0397 1.399,1.2844 0.614,0.2202 1.387,0.3303 2.32,0.3303 0.663,0 1.252,-0.0245 1.767,-0.0734 0.54,-0.0734 0.994,-0.1468 1.363,-0.2202 l 0.036,7.7798 c -0.908,0.2936 -1.89,0.526 -2.945,0.6972 -1.056,0.1713 -2.221,0.2569 -3.498,0.2569 -2.332,0 -4.369,-0.3792 -6.112,-1.1376 -1.718,-0.7829 -3.044,-2.0306 -3.976,-3.7431 -0.933,-1.7126 -1.4,-3.9633 -1.4,-6.7523 z"
       fill="#000000"
       id="path3"
       style="fill:#ffffff;fill-opacity:1" /><path
       d="M 203.121,56.6606 V 96.367 H 192.48 V 56.6606 Z M 191.818,46.3119 c 0,-1.5413 0.54,-2.8134 1.62,-3.8165 1.08,-1.003 2.528,-1.5046 4.344,-1.5046 1.792,0 3.228,0.5016 4.308,1.5046 1.105,1.0031 1.657,2.2752 1.657,3.8165 0,1.5413 -0.552,2.8135 -1.657,3.8165 -1.08,1.0031 -2.516,1.5046 -4.308,1.5046 -1.816,0 -3.264,-0.5015 -4.344,-1.5046 -1.08,-1.003 -1.62,-2.2752 -1.62,-3.8165 z"
       fill="#000000"
       id="path4"
       style="fill:#ffffff;fill-opacity:1" /><path
       d="M 220.382,65.1376 V 96.367 H 209.778 V 56.6606 h 9.941 z m -1.546,9.9817 h -2.872 c 0,-2.9358 0.38,-5.578 1.141,-7.9266 0.761,-2.3731 1.829,-4.3915 3.203,-6.0551 1.375,-1.6881 3.007,-2.9725 4.897,-3.8532 1.915,-0.9052 4.05,-1.3578 6.407,-1.3578 1.865,0 3.571,0.2691 5.118,0.8073 1.546,0.5383 2.872,1.3945 3.976,2.5689 1.129,1.1743 1.988,2.7278 2.578,4.6605 0.613,1.9327 0.92,4.2936 0.92,7.0826 V 96.367 H 233.526 V 71.0092 c 0,-1.7615 -0.245,-3.1315 -0.736,-4.1101 -0.491,-0.9786 -1.215,-1.6636 -2.172,-2.0551 -0.933,-0.4159 -2.087,-0.6238 -3.461,-0.6238 -1.424,0 -2.664,0.2813 -3.719,0.844 -1.031,0.5627 -1.89,1.3456 -2.577,2.3486 -0.663,0.9786 -1.166,2.1285 -1.51,3.4496 -0.344,1.3211 -0.515,2.74 -0.515,4.2569 z"
       fill="#000000"
       id="path5"
       style="fill:#ffffff;fill-opacity:1" /><path
       d="m 275.604,56.6606 h 9.609 v 38.3853 c 0,3.6208 -0.81,6.6911 -2.43,9.2111 -1.595,2.544 -3.829,4.465 -6.701,5.761 -2.872,1.321 -6.21,1.982 -10.015,1.982 -1.669,0 -3.436,-0.22 -5.302,-0.661 -1.841,-0.44 -3.608,-1.125 -5.302,-2.055 -1.669,-0.929 -3.068,-2.104 -4.197,-3.523 l 4.676,-6.2381 c 1.227,1.4191 2.651,2.5201 4.271,3.3031 1.62,0.807 3.412,1.211 5.376,1.211 1.914,0 3.534,-0.355 4.86,-1.065 1.325,-0.685 2.344,-1.7 3.056,-3.0454 0.712,-1.3211 1.068,-2.9235 1.068,-4.8073 V 65.8349 Z m -26.805,20.3302 v -0.7706 c 0,-3.0337 0.368,-5.7859 1.105,-8.2569 0.761,-2.4954 1.828,-4.6361 3.203,-6.422 1.399,-1.7859 3.093,-3.1682 5.081,-4.1468 1.988,-0.9786 4.234,-1.4679 6.738,-1.4679 2.651,0 4.872,0.4893 6.664,1.4679 1.792,0.9786 3.265,2.3731 4.419,4.1835 1.153,1.7859 2.049,3.9021 2.687,6.3486 0.663,2.422 1.179,5.0765 1.547,7.9633 v 1.6881 c -0.368,2.7645 -0.921,5.3333 -1.657,7.7064 -0.736,2.3731 -1.706,4.4526 -2.909,6.2385 -1.203,1.7615 -2.7,3.1315 -4.492,4.1101 -1.767,0.9786 -3.878,1.4679 -6.333,1.4679 -2.454,0 -4.676,-0.5015 -6.664,-1.5046 -1.964,-1.003 -3.645,-2.4098 -5.044,-4.2202 -1.399,-1.8104 -2.479,-3.9388 -3.24,-6.3853 -0.737,-2.4465 -1.105,-5.1131 -1.105,-8 z m 10.604,-0.7706 v 0.7706 c 0,1.6392 0.16,3.1682 0.479,4.5872 0.319,1.4189 0.81,2.6789 1.472,3.7798 0.688,1.0765 1.535,1.9205 2.541,2.5321 1.031,0.5872 2.246,0.8807 3.645,0.8807 1.939,0 3.523,-0.4036 4.75,-1.211 1.227,-0.8318 2.148,-1.9694 2.761,-3.4128 0.614,-1.4434 0.97,-3.107 1.068,-4.9908 v -4.8074 c -0.049,-1.5413 -0.258,-2.9235 -0.626,-4.1468 -0.368,-1.2477 -0.884,-2.3119 -1.546,-3.1926 -0.663,-0.8808 -1.522,-1.5658 -2.578,-2.0551 -1.055,-0.4893 -2.307,-0.7339 -3.755,-0.7339 -1.399,0 -2.614,0.318 -3.645,0.9541 -1.007,0.6116 -1.854,1.4557 -2.541,2.5321 -0.663,1.0765 -1.166,2.3486 -1.509,3.8165 -0.344,1.4435 -0.516,3.0092 -0.516,4.6973 z"
       fill="#000000"
       id="path6"
       style="fill:#ffffff;fill-opacity:1" /><path
       d="m 307.776,80.2202 10.641,-37.2844 h 5.155 l -2.983,14.4954 -11.45,38.9358 h -5.118 z m -11.009,-37.2844 8.469,36.5504 2.54,16.8808 h -5.081 L 289.698,42.9358 Z m 40.575,36.5137 8.284,-36.5137 h 7.107 L 339.772,96.367 h -5.081 z m -12.997,-36.5137 10.346,37.2844 3.756,16.1468 h -5.118 L 322.283,57.4312 319.264,42.9358 Z"
       fill="#000000"
       id="path7"
       style="fill:#ffffff;fill-opacity:1" /><path
       d="m 352.068,76.9541 v -0.844 c 0,-2.8624 0.417,-5.5168 1.251,-7.9633 0.835,-2.471 2.038,-4.6116 3.609,-6.422 1.571,-1.8349 3.473,-3.2539 5.707,-4.2569 2.233,-1.0275 4.737,-1.5413 7.511,-1.5413 2.798,0 5.314,0.5138 7.548,1.5413 2.258,1.003 4.173,2.422 5.744,4.2569 1.595,1.8104 2.81,3.951 3.645,6.422 0.834,2.4465 1.252,5.1009 1.252,7.9633 v 0.844 c 0,2.8624 -0.418,5.5168 -1.252,7.9633 -0.835,2.4465 -2.05,4.5872 -3.645,6.422 -1.571,1.8104 -3.474,3.2294 -5.707,4.2569 -2.209,1.0031 -4.713,1.5046 -7.511,1.5046 -2.799,0 -5.315,-0.5015 -7.548,-1.5046 -2.234,-1.0275 -4.149,-2.4465 -5.744,-4.2569 -1.571,-1.8348 -2.774,-3.9755 -3.609,-6.422 -0.834,-2.4465 -1.251,-5.1009 -1.251,-7.9633 z m 6.811,-0.844 v 0.844 c 0,1.9817 0.233,3.8532 0.7,5.6147 0.466,1.737 1.166,3.2783 2.098,4.6239 0.958,1.3455 2.148,2.4097 3.572,3.1926 1.424,0.7584 3.08,1.1376 4.971,1.1376 1.865,0 3.497,-0.3792 4.897,-1.1376 1.423,-0.7829 2.601,-1.8471 3.534,-3.1926 0.933,-1.3456 1.632,-2.8869 2.099,-4.6239 0.491,-1.7615 0.736,-3.633 0.736,-5.6147 v -0.844 c 0,-1.9572 -0.245,-3.8043 -0.736,-5.5413 -0.467,-1.7615 -1.178,-3.315 -2.136,-4.6605 -0.932,-1.3701 -2.111,-2.4465 -3.534,-3.2294 -1.399,-0.7829 -3.044,-1.1743 -4.934,-1.1743 -1.866,0 -3.51,0.3914 -4.934,1.1743 -1.399,0.7829 -2.577,1.8593 -3.535,3.2294 -0.932,1.3455 -1.632,2.899 -2.098,4.6605 -0.467,1.737 -0.7,3.5841 -0.7,5.5413 z"
       fill="#000000"
       id="path8"
       style="fill:#ffffff;fill-opacity:1" /><path
       d="M 401.803,62.8991 V 96.367 h -6.811 V 56.6606 h 6.627 z m 12.445,-6.4587 -0.037,6.3119 c -0.564,-0.1223 -1.104,-0.1957 -1.62,-0.2202 -0.491,-0.0489 -1.055,-0.0734 -1.693,-0.0734 -1.571,0 -2.958,0.2447 -4.161,0.734 -1.203,0.4893 -2.222,1.1743 -3.056,2.055 -0.835,0.8807 -1.497,1.9327 -1.988,3.156 -0.467,1.1987 -0.774,2.5198 -0.921,3.9633 l -1.914,1.1009 c 0,-2.3976 0.233,-4.6483 0.699,-6.7523 0.491,-2.104 1.24,-3.9633 2.246,-5.578 1.007,-1.6391 2.283,-2.9113 3.829,-3.8165 1.571,-0.9297 3.437,-1.3945 5.597,-1.3945 0.491,0 1.055,0.0612 1.694,0.1835 0.638,0.0979 1.08,0.2079 1.325,0.3303 z"
       fill="#000000"
       id="path9"
       style="fill:#ffffff;fill-opacity:1" /><path
       d="m 425.507,40 v 56.367 h -6.848 V 40 Z m 24.338,16.6606 -17.379,18.5321 -9.72,10.055 -0.552,-7.2294 6.958,-8.2935 12.372,-13.0642 z m -6.223,39.7064 -14.212,-18.9358 3.535,-6.0551 18.704,24.9909 z"
       fill="#000000"
       id="path10"
       style="fill:#ffffff;fill-opacity:1" /><path
       d="m 478.188,85.8349 c 0,-0.9786 -0.22,-1.8838 -0.662,-2.7156 -0.418,-0.8563 -1.289,-1.6269 -2.614,-2.312 -1.301,-0.7094 -3.265,-1.3211 -5.892,-1.8348 -2.209,-0.4649 -4.209,-1.0153 -6.001,-1.6514 -1.767,-0.6361 -3.277,-1.4067 -4.529,-2.3119 -1.227,-0.9052 -2.172,-1.9694 -2.835,-3.1927 -0.663,-1.2232 -0.994,-2.6544 -0.994,-4.2936 0,-1.5657 0.344,-3.0458 1.031,-4.4403 0.712,-1.3945 1.706,-2.63 2.982,-3.7065 1.301,-1.0764 2.86,-1.9204 4.676,-2.5321 1.817,-0.6116 3.842,-0.9174 6.075,-0.9174 3.191,0 5.916,0.5627 8.174,1.6881 2.259,1.1254 3.989,2.6299 5.192,4.5137 1.203,1.8594 1.804,3.9266 1.804,6.2019 h -6.812 c 0,-1.1009 -0.331,-2.1652 -0.994,-3.1927 -0.638,-1.052 -1.583,-1.9205 -2.835,-2.6055 -1.227,-0.685 -2.737,-1.0275 -4.529,-1.0275 -1.89,0 -3.424,0.2936 -4.602,0.8807 -1.154,0.5627 -2,1.2844 -2.541,2.1652 -0.515,0.8807 -0.773,1.8104 -0.773,2.7889 0,0.734 0.123,1.3945 0.368,1.9817 0.27,0.5627 0.737,1.0887 1.4,1.578 0.662,0.4648 1.595,0.9052 2.798,1.3211 1.203,0.4159 2.737,0.8318 4.602,1.2477 3.265,0.7339 5.953,1.6147 8.064,2.6422 2.111,1.0275 3.682,2.2875 4.713,3.7798 1.031,1.4924 1.546,3.3028 1.546,5.4312 0,1.737 -0.368,3.3272 -1.105,4.7706 -0.711,1.4435 -1.755,2.6912 -3.129,3.7432 -1.35,1.0275 -2.97,1.8348 -4.86,2.422 -1.866,0.5627 -3.965,0.844 -6.296,0.844 -3.511,0 -6.481,-0.6238 -8.911,-1.8715 -2.43,-1.2477 -4.271,-2.8624 -5.523,-4.8441 -1.251,-1.9816 -1.877,-4.0734 -1.877,-6.2752 h 6.848 c 0.098,1.8593 0.638,3.3394 1.62,4.4404 0.982,1.0764 2.185,1.8471 3.608,2.3119 1.424,0.4404 2.835,0.6605 4.235,0.6605 1.865,0 3.424,-0.2446 4.676,-0.7339 1.276,-0.4893 2.246,-1.1621 2.908,-2.0184 0.663,-0.8562 0.994,-1.8348 0.994,-2.9357 z"
       fill="#000000"
       id="path11"
       style="fill:#ffffff;fill-opacity:1" /><path
       d="m 46.5136,98.6185 c -0.641,0 -1.2919,-0.1282 -1.923,-0.3945 -2.5344,-1.0651 -3.7177,-3.9842 -2.6527,-6.5187 L 76.2949,9.99005 H 65.8615 L 29.8774,95.5712 c -0.779,1.8441 -2.5836,3.0473 -4.5855,3.0473 -2.0019,0 -3.8065,-1.2032 -4.5855,-3.0473 L 0.391959,47.2284 C -0.258891,45.6899 -0.091248,43.9345 0.83572,42.544 1.75283,41.1535 3.31092,40.3251 4.97749,40.3251 H 24.8481 c 2.7415,0 4.9702,2.2288 4.9702,4.9802 0,2.7515 -2.2287,4.9803 -4.9702,4.9803 H 12.4623 L 25.3018,80.8178 57.9724,3.08676 C 58.7515,1.24259 60.5561,0.0394474 62.558,0.0394474 h 21.2216 c 1.6666,0 3.2247,0.8382566 4.1418,2.2189126 0.9171,1.39052 1.0848,3.14593 0.4438,4.68438 L 51.0991,95.5712 c -0.7988,1.9033 -2.6429,3.0473 -4.5855,3.0473 z M 43.6044,17.919 C 43.6044,8.0374 36.593,0 27.984,0 19.3751,0 12.3538,8.0374 12.3538,17.919 c 0,9.8815 7.0114,17.919 15.6204,17.919 8.609,0 15.6302,-8.0375 15.6302,-17.919 z m -9.9402,0 c 0,4.3195 -2.6034,7.9683 -5.6802,7.9683 -3.0767,0 -5.6801,-3.6488 -5.6801,-7.9683 0,-4.3195 2.6034,-7.9684 5.6801,-7.9684 3.0768,0 5.6802,3.6489 5.6802,7.9684 z"
       fill="#6638b6"
       id="path12"
       style="fill:#ffffff;fill-opacity:1" /></g><text
     xml:space="preserve"
     transform="matrix(0.24747354,0,0,0.24747354,-2.5351867,4.392628)"
     id="text2"
     style="font-weight:bold;font-size:14.6667px;font-family:Arial;-inkscape-font-specification:'Arial Bold';white-space:pre;shape-inside:url(#rect3);display:inline;fill:#ffffff;fill-opacity:1;stroke:#ffffff;stroke-width:0"><tspan
       x="57.978516"
       y="74.041173"
       id="tspan2">VxScan <tspan
   style="font-weight:normal;-inkscape-font-specification:Arial"
   id="tspan1">v4.0.2
</tspan></tspan><tspan
       x="57.978516"
       y="92.374547"
       id="tspan8">Serial No:<tspan
   style="font-weight:normal;-inkscape-font-specification:Arial"
   id="tspan7"> SC-##-###
</tspan></tspan><tspan
       x="57.978516"
       y="110.70792"
       id="tspan10">Rating:<tspan
   style="font-weight:normal;-inkscape-font-specification:Arial"
   id="tspan9"> AC 110-120V  , 60Hz, 6.5A MAX</tspan></tspan></text><g
     id="g3"
     transform="matrix(0.29504777,0,0,0.29504777,46.223977,29.493329)"
     inkscape:label="IEC AC Symbol"
     style="fill:#ffffff;fill-opacity:1"><path
       d="M 9.156,4.651 C 8.964,4.556 8.734,4.638 8.638,4.831 8.632,4.841 8.07,5.981 7.204,6.061 6.473,6.134 5.774,5.396 5.31,4.767 4.464,3.622 3.588,3.087 2.719,3.164 1.414,3.289 0.691,4.768 0.659,4.832 0.567,5.026 0.65,5.256 0.839,5.349 1.034,5.442 1.267,5.364 1.361,5.17 1.365,5.157 1.93,4.019 2.796,3.939 3.52,3.869 4.226,4.605 4.687,5.231 5.478,6.301 6.292,6.842 7.103,6.842 7.165,6.842 7.221,6.84 7.281,6.833 8.584,6.712 9.308,5.23 9.337,5.168 9.433,4.974 9.35,4.743 9.156,4.651 Z"
       id="path1-1"
       style="fill:#ffffff;fill-opacity:1" /></g><text
     xml:space="preserve"
     transform="matrix(0.26276074,0,0,0.26276074,-1.0348983,8.6506958)"
     id="text8"
     style="font-style:normal;font-variant:normal;font-weight:normal;font-stretch:normal;font-size:13.3333px;font-family:Arial;-inkscape-font-specification:Arial;text-align:start;white-space:pre;shape-inside:url(#rect8);display:inline;fill:#ffffff;fill-opacity:1;stroke:#ffffff;stroke-width:0"
     inkscape:label="Warning"
     x="122.84414"
     y="0"><tspan
       x="40.394531"
       y="111.3362"
       id="tspan11">Review all user manuals and receive training </tspan><tspan
       x="40.394531"
       y="128.00283"
       id="tspan12">on this device before operation.</tspan></text><path
     style="fill:#ffffff;fill-opacity:1;stroke:#ffffff;stroke-width:0.117941"
     d="M 67.413764,6.3017609 V 5.2875888 h 1.053183 1.05318 v 1.0141721 1.0141725 h -1.05318 -1.053183 z"
     id="path13" /><path
     style="fill:#ffffff;fill-opacity:1;stroke:#ffffff;stroke-width:0.0416983"
     d="M 65.947915,6.307375 V 3.7974267 h 2.509953 2.509943 V 6.307375 8.8173246 h -2.509943 -2.509953 z m 4.330351,0 V 4.4869733 h -1.820398 -1.8204 V 6.307375 8.127777 h 1.8204 1.820398 z"
     id="path14" /><path
     style="fill:#ffffff;fill-opacity:1;stroke:#ffffff;stroke-width:0.0416983"
     d="M 74.608617,10.610143 V 10.251582 H 73.877701 73.146779 V 9.9068084 9.5620375 h 0.372353 0.37236 V 9.2034703 8.8449057 h 0.358559 0.358566 V 8.4725511 8.1001967 H 74.22247 73.836323 V 8.4587599 8.8173246 H 73.49155 73.146779 V 8.4587599 8.1001967 H 72.788221 72.429653 V 7.7554223 7.4106498 h 0.358568 0.358558 V 7.0245037 6.6383577 H 72.429653 71.712527 V 6.307375 5.9763937 h 1.061897 1.061899 v 0.3585636 0.3585638 h 0.358569 0.358566 v 0.3585636 0.3585651 h 0.358557 0.358568 v 1.7790306 1.7790276 h -0.330987 -0.330979 z"
     id="path15" /><path
     style="fill:#ffffff;fill-opacity:1;stroke:#ffffff;stroke-width:0.0416983"
     d="m 71.712527,4.5007637 v -0.703337 h 0.703331 0.70334 v 0.3447734 0.3447732 h -0.358569 -0.358557 v 0.3585633 0.3585651 h -0.344773 -0.344772 z"
     id="path16" /><path
     style="fill:#ffffff;fill-opacity:1;stroke:#ffffff;stroke-width:0.0416983"
     d="M 73.146779,4.8593278 V 4.514555 h 0.344771 0.344773 V 4.8593278 5.2041017 H 73.49155 73.146779 Z"
     id="path17" /><path
     style="fill:#ffffff;fill-opacity:1;stroke:#ffffff;stroke-width:0.0416983"
     d="M 73.891492,5.5764566 V 5.2316842 h 0.358559 0.358566 V 4.514555 3.7974267 h 0.330979 0.330987 v 1.0619011 1.0619011 h -0.689545 -0.689546 z"
     id="path18" /><path
     style="fill:#ffffff;fill-opacity:1;stroke:#ffffff;stroke-width:0.0416983"
     d="M 71.712527,8.8311158 V 8.127777 h 0.344772 0.344773 v 0.7033388 0.7033381 h -0.344773 -0.344772 z"
     id="path19" /><path
     style="fill:#ffffff;fill-opacity:1;stroke:#ffffff;stroke-width:0.0416983"
     d="m 71.712527,18.553716 v -0.330982 h 0.358557 0.358569 v -0.386143 -0.386148 h -0.358569 -0.358557 v -0.689548 -0.689546 h 0.344772 0.344773 v 0.358565 0.358565 h 1.103273 1.103272 V 16.402331 16.016185 H 73.519132 72.429653 V 15.657623 15.29906 H 72.071084 71.712527 V 14.223367 13.147673 H 70.995391 70.278266 V 12.8029 12.458126 h 0.358567 0.358558 v -0.386145 -0.386145 h -0.358558 -0.358567 v -0.344775 -0.344772 h 0.358567 0.358558 v -0.372355 -0.372352 h -0.372352 -0.372353 v 0.358561 0.358565 H 69.892119 69.53356 v 0.358565 0.358563 h -1.089489 -1.089477 v 0.358563 0.358565 H 67.00982 66.665049 v -1.061903 -1.061898 h 0.358557 0.358569 V 9.9205996 9.5620375 h 0.703339 0.703329 V 9.9068084 10.251582 H 68.430284 68.07172 v 0.372352 0.372355 h 0.386148 0.386145 v -0.358562 -0.358564 h 0.358559 0.358568 V 9.9205996 9.5620375 h 1.061899 1.061907 v 0.3585621 0.3585634 h 0.717126 0.717126 v 0.703335 0.703338 h -0.344774 -0.344771 v -0.358563 -0.358565 h -0.372354 -0.372353 v 0.386147 0.386143 h 0.358557 0.358569 v 0.717128 0.717131 h 0.358557 0.358569 v 0.344771 0.344775 h -0.358569 -0.358557 v 0.372354 0.372355 h 0.744707 0.744713 v -0.73092 -0.730919 h -0.37236 -0.372353 V 12.445137 11.7426 l 0.365457,-0.0076 0.365465,-0.0076 0.0081,-0.36546 0.0081,-0.36546 h 0.329387 0.329379 l 0.0081,0.36546 0.0081,0.36546 0.351675,0.0076 0.351667,0.0076 v 1.061077 1.061078 h -0.358592 -0.35857 v 0.372355 0.372355 h 0.717126 0.717128 v 0.344773 0.344773 h -0.358559 -0.358569 v 1.075691 1.075695 h -0.358556 -0.35857 v 0.386145 0.386146 h 0.38615 0.386139 v -0.358566 -0.358564 h 0.717136 0.717125 V 17.146995 16.78843 h 0.344771 0.344772 v 0.358565 0.358563 h 0.358567 0.35856 v 0.358564 0.358566 h 0.717136 0.717125 v 0.330982 0.330982 h -1.061899 -1.061906 v -0.358563 -0.358565 h -0.372355 -0.372353 v 0.358565 0.358563 h -1.419641 -1.419646 l -0.0081,-0.351668 -0.0081,-0.351669 -0.379247,-0.0076 -0.379254,-0.0076 v 0.359343 0.359341 h -0.703293 -0.703338 z"
     id="path20" /><path
     style="fill:#ffffff;fill-opacity:1;stroke:#ffffff;stroke-width:0.416548"
     d="M 66.13534,11.349056 V 9.7321713 h 7.336239 7.336448 v 1.6168847 1.616898 H 73.471579 66.13534 Z"
     id="path21" /><path
     style="fill:#ffffff;fill-opacity:1;stroke:#ffffff;stroke-width:0.0416983"
     d="m 65.947915,12.8029 v -0.344774 h 0.344772 0.344781 v 0.344774 0.344773 h -0.344781 -0.344772 z"
     id="path22" /><path
     style="fill:#ffffff;fill-opacity:1;stroke:#ffffff;stroke-width:0.0416983"
     d="m 67.382175,12.8029 v -0.344774 h 1.075693 1.075692 v 0.344774 0.344773 h -1.075692 -1.075693 z"
     id="path23" /><path
     style="fill:#ffffff;fill-opacity:1;stroke:#ffffff;stroke-width:0.0416983"
     d="m 69.56114,12.071981 v -0.330983 h 0.344774 0.344772 v 0.330983 0.330983 H 69.905914 69.56114 Z"
     id="path24" /><path
     style="fill:#ffffff;fill-opacity:1;stroke:#ffffff;stroke-width:0.0416983"
     d="m 65.947915,16.388542 v -2.496158 h 2.509953 2.509943 v 2.496158 2.496155 h -2.509943 -2.509953 z m 4.330351,0.01385 v -1.820393 h -1.820398 -1.8204 v 1.820401 1.820401 h 1.8204 1.820398 z"
     id="path25" /><path
     style="fill:#ffffff;fill-opacity:1;stroke:#ffffff;stroke-width:0.0416983"
     d="m 67.382175,16.388542 v -1.061901 h 1.075693 1.075692 v 1.061901 1.061901 h -1.075692 -1.075693 z"
     id="path26" /><path
     style="fill:#ffffff;fill-opacity:1;stroke:#ffffff;stroke-width:0.0416983"
     d="m 76.04287,16.402331 v -0.330982 h 0.344773 0.34478 v 0.330982 0.330982 h -0.34478 -0.344773 z"
     id="path27" /><path
     style="fill:#ffffff;fill-opacity:1;stroke:#ffffff;stroke-width:0.0416983"
     d="M 79.656098,16.374751 V 16.016185 H 78.938972 78.221836 V 15.29906 14.581931 h -0.386139 -0.386149 v 0.358563 0.358566 h -0.344772 -0.344771 v -0.703339 -0.703337 h 0.358559 0.358565 v -0.358565 -0.358562 h 0.344773 0.344773 v 0.358562 0.358565 h 1.075694 1.075691 v 1.420466 1.420463 h -0.330986 -0.330976 z"
     id="path28" /><path
     style="fill:#ffffff;fill-opacity:1;stroke:#ffffff;stroke-width:0.0833974"
     d="m 78.249417,17.105671 v -0.330985 h 0.661966 0.661972 v 0.330985 0.330982 h -0.661972 -0.661966 z"
     id="path30" /><path
     style="fill:#ffffff;fill-opacity:1;stroke:#ffffff;stroke-width:0.0833974"
     d="m 80.400804,17.822797 v -0.330982 h 0.303405 0.303398 v 0.330982 0.330984 h -0.303398 -0.303405 z"
     id="path31" /><path
     style="fill:#ffffff;fill-opacity:1;stroke:#ffffff;stroke-width:0.0833974"
     d="m 76.04287,6.2935839 v -2.482366 h 2.482372 2.482365 v 2.482366 2.4823684 H 78.525242 76.04287 Z m 4.344889,0.013799 0.01446,-1.8341938 H 78.553529 76.7048 v 1.8112125 c 0,0.9961656 0.01694,1.8280924 0.03749,1.8487253 0.02058,0.020637 0.846023,0.030981 1.834194,0.022977 l 1.796676,-0.014499 z"
     id="path36" /><path
     style="fill:#ffffff;fill-opacity:1;stroke:#ffffff;stroke-width:0.0833974"
     d="M 77.477129,6.2935839 V 5.2454737 h 1.048113 1.048113 v 1.0481102 1.0481117 h -1.048113 -1.048113 z"
     id="path37" /><text
     xml:space="preserve"
     transform="matrix(0.22615657,0,0,0.22615657,58.581612,-12.872915)"
     id="text8-5"
     style="font-style:normal;font-variant:normal;font-weight:normal;font-stretch:normal;font-size:13.3333px;font-family:Arial;-inkscape-font-specification:Arial;text-align:start;white-space:pre;shape-inside:url(#rect8-8);display:inline;fill:#ffffff;fill-opacity:1;stroke:#ffffff;stroke-width:0"
     inkscape:label="Warning"
     x="122.84414"
     y="0"><tspan
       x="40.394531"
       y="111.3362"
       id="tspan14"><tspan
         style="fill:#000000"
         id="tspan13">Example</tspan></tspan></text></svg>
