<?xml version="1.0" standalone="no"?>
   <!DOCTYPE svg PUBLIC "-//W3C//DTD SVG 1.1//EN"
    "http://www.w3.org/Graphics/SVG/1.1/DTD/svg11.dtd">
   <svg width="192px" height="192px" version="1.1"
    xmlns="http://www.w3.org/2000/svg" xmlns:xlink="http://www.w3.org/1999/xlink">
<line x1="25.297709549013597" y1="60.6522207310939" x2="23.637150445528448" y2="40.68636691201804" stroke-width="3.737097074318144" stroke="black" />
<line x1="69.13503703580606" y1="150.62538407004604" x2="69.073013112215" y2="111.87348266818638" stroke-width="5.028002989648172" stroke="black" />
<line x1="164.69524755355033" y1="164.45809015300816" x2="169.95127917670524" y2="144.2001990821733" stroke-width="5.735765594376006" stroke="black" />
<line x1="169.96888606542558" y1="143.22085603208868" x2="172.7852280152183" y2="125.77191512550013" stroke-width="4.338582259003207" stroke="black" />
<line x1="118.17566077448187" y1="66.85719905216999" x2="125.78341422018784" y2="88.50855634545938" stroke-width="3.1873980300665004" stroke="black" />
<line x1="94.26420367936758" y1="112.91089478109686" x2="129.52925959500462" y2="116.68274353798655" stroke-width="4.3934234537337185" stroke="black" />
<line x1="80.18643998152044" y1="81.91397737535749" x2="81.08789710888567" y2="63.14723518039021" stroke-width="2.796992686498041" stroke="black" />
<line x1="31.253509854160185" y1="78.07105255225075" x2="30.401448447308475" y2="68.14418830011695" stroke-width="3.7362618824920646" stroke="black" />
<line x1="33.26181477253142" y1="109.29310043921458" x2="38.76670992264234" y2="118.48913239041326" stroke-width="7.077150000958908" stroke="black" />
<line x1="12.189569562615965" y1="47.94404791060663" x2="20.30804877408327" y2="62.057322110532475" stroke-width="3.873847492846243" stroke="black" />
<line x1="130.52091832857366" y1="174.1848232235717" x2="146.71050611437505" y2="165.32443875341718" stroke-width="1.800344721515846" stroke="black" />
<line x1="133.60184764854594" y1="119.23927398000835" x2="144.74153709528755" y2="158.37646166544496" stroke-width="4.282030790531396" stroke="black" />
<line x1="0.5978982987225434" y1="105.84641350249066" x2="31.98958720021406" y2="109.6888538488689" stroke-width="4.836865506127038" stroke="black" />
<line x1="83.01097167311416" y1="171.91445224802152" x2="76.54909060731258" y2="153.23776021094056" stroke-width="4.189856706521849" stroke="black" />
<line x1="134.5757519569411" y1="88.15246287377104" x2="137.64313449856402" y2="65.73008082259665" stroke-width="3.4934629815919593" stroke="black" />
<line x1="126.61325927988476" y1="171.53967018180026" x2="104.28851237205153" y2="168.84027727604723" stroke-width="4.063541298097062" stroke="black" />
<line x1="148.9833970642365" y1="167.3966046902142" x2="128.77589626511997" y2="178.2606458654709" stroke-width="4.735279743918227" stroke="black" />
<line x1="70.5178043109796" y1="110.60882964490575" x2="93.1726027613886" y2="112.57708899054279" stroke-width="4.981235625081353" stroke="black" />
<line x1="48.20773099110559" y1="155.94136888861885" x2="40.88182240169561" y2="157.85710618186792" stroke-width="3.32673310209884" stroke="black" />
<line x1="104.03909511410585" y1="168.73046009934134" x2="88.08565812884477" y2="165.84231530331158" stroke-width="4.241415255214731" stroke="black" />
<line x1="177.72674956593553" y1="69.48339305052224" x2="185.52931253501842" y2="98.15104355284748" stroke-width="3.3970723004474976" stroke="black" />
<line x1="61.503653415216654" y1="53.2609230812091" x2="72.51628206595831" y2="83.34780753498907" stroke-width="3.352997894504066" stroke="black" />
<line x1="15.928630849754665" y1="22.26801737597807" x2="22.419896749276074" y2="37.89870998354717" stroke-width="4.138224328295774" stroke="black" />
<line x1="29.08991587825322" y1="158.6917432328034" x2="5.527808615254668" y2="154.994367327233" stroke-width="3.3171070444499584" stroke="black" />
<line x1="175.98294223221714" y1="181.58697838506146" x2="172.6775778464694" y2="177.47919811732692" stroke-width="3.5150022886389447" stroke="black" />
<line x1="144.26065094077384" y1="160.3773745886456" x2="137.80277472776206" y2="167.6938940612884" stroke-width="3.6208822881809" stroke="black" />
<line x1="150.675229992435" y1="70.93837066776368" x2="160.71339568592856" y2="71.47670207538847" stroke-width="3.811558471003144" stroke="black" />
<line x1="137.86966381250699" y1="167.5320623911461" x2="130.0343661612711" y2="170.90616954890683" stroke-width="4.433010983155762" stroke="black" />
<line x1="111.97064734614011" y1="91.49988913085423" x2="86.72574831373936" y2="94.25979036961668" stroke-width="7.163910379059481" stroke="black" />
<line x1="41.89881288951501" y1="61.640640830616356" x2="50.8108239939045" y2="62.54617713347771" stroke-width="3.6044305252034423" stroke="black" />
<line x1="176.6281517618942" y1="124.43258129028219" x2="190.8164113206877" y2="127.1110739391942" stroke-width="4.681333885335513" stroke="black" />
<line x1="171.78612901872975" y1="52.763893106590466" x2="178.22174781792975" y2="53.40732228106099" stroke-width="2.985015073658979" stroke="black" />
<line x1="43.13809736904071" y1="165.53434716394997" x2="2.894553087800533" y2="159.7200276795996" stroke-width="3.904245036150887" stroke="black" />
<line x1="57.92524442320161" y1="156.5353657418722" x2="43.885543917928906" y2="164.79280269174595" stroke-width="3.4861733729968374" stroke="black" />
<line x1="160.61952494993918" y1="63.226866601314505" x2="150.58133886633195" y2="62.68734166754321" stroke-width="4.925706453815051" stroke="black" />
<line x1="14.840706536173887" y1="60.40421287097947" x2="23.449895004399526" y2="78.56358365763822" stroke-width="3.388483854718261" stroke="black" />
<line x1="16.121021625869762" y1="123.32535075248249" x2="13.163895176072531" y2="112.19682058681586" stroke-width="3.379200626838774" stroke="black" />
<line x1="66.88330917323871" y1="116.00464719102328" x2="40.62376892765695" y2="115.75394992570797" stroke-width="2.7504808443683237" stroke="black" />
<line x1="93.19590097794256" y1="65.93344088475203" x2="103.2331136407322" y2="66.68925980475878" stroke-width="3.927135823065131" stroke="black" />
<line x1="123.10218681607843" y1="50.88706606618069" x2="130.76177124556116" y2="51.55384261951014" stroke-width="3.410659269018974" stroke="black" />
<line x1="159.96473235552358" y1="177.88946354582984" x2="163.5526462314707" y2="167.8316427647436" stroke-width="3.1120071179911544" stroke="black" />
<line x1="49.296304521543824" y1="55.06054560978852" x2="39.14311508200683" y2="53.89503584735714" stroke-width="4.397161050808804" stroke="black" />
<line x1="162.64120712744116" y1="70.75904096319873" x2="162.14603168555408" y2="64.35404631587541" stroke-width="3.7351242403389993" stroke="black" />
<line x1="38.120597978806636" y1="119.37712066276949" x2="54.12458735160418" y2="152.59782006436575" stroke-width="5.671784328141829" stroke="black" />
<line x1="179.3740392808749" y1="46.48589647377227" x2="171.8740486209794" y2="46.477526844339934" stroke-width="2.5069731388520045" stroke="black" />
<line x1="1.740984645770447" y1="122.91681438395587" x2="14.512044336489426" y2="124.55963878213674" stroke-width="4.357279692918959" stroke="black" />
<line x1="2.503859414381218" y1="160.32704331331303" x2="14.23987608155036" y2="185.09676622353314" stroke-width="3.566401437549794" stroke="black" />
<line x1="101.90323727805766" y1="59.11932105624683" x2="92.98590176414163" y2="58.13448719099487" stroke-width="5.381432000841905" stroke="black" />
<line x1="90.48946106252231" y1="169.06068755760276" x2="124.43257770010541" y2="173.97751468259523" stroke-width="1.901982149386832" stroke="black" />
<line x1="40.506321955330336" y1="119.07797340802308" x2="64.35348451250412" y2="122.04776731767272" stroke-width="4.184679382915232" stroke="black" />
<line x1="166.90828934718647" y1="100.42934354449535" x2="139.35519387683982" y2="95.74140948778899" stroke-width="8.206707974856009" stroke="black" />
<line x1="23.949081653201283" y1="86.63226959832376" x2="0.09546440815539015" y2="83.73551674332938" stroke-width="11.132599433803716" stroke="black" />
<line x1="13.064550683171946" y1="113.66412861897176" x2="0.44291726186389213" y2="112.24893919900113" stroke-width="3.7266478001578465" stroke="black" />
<line x1="139.2425731662232" y1="131.51768355189202" x2="169.68522939235405" y2="136.03375710028166" stroke-width="4.44311120043782" stroke="black" />
<line x1="67.88619127064501" y1="98.79692282063269" x2="78.19301741735775" y2="100.07759862579789" stroke-width="3.875515792791747" stroke="black" />
<line x1="130.55949695799887" y1="45.21388564380141" x2="123.00793471416881" y2="44.624233999996775" stroke-width="3.7386201041102707" stroke="black" />
<line x1="114.38722225152347" y1="54.243307963159154" x2="99.40030152691862" y2="52.852381685060074" stroke-width="2.1427563524515287" stroke="black" />
<line x1="149.41383384087192" y1="106.49068888656" x2="183.19780612079364" y2="109.90448921046111" stroke-width="4.710294524641003" stroke="black" />
<line x1="128.18337351633033" y1="177.7597988544601" x2="82.7458460714954" y2="170.49709367758823" stroke-width="4.547694425510572" stroke="black" />
<line x1="138.24322582615662" y1="57.92054332343171" x2="175.6989581152775" y2="60.96514063975109" stroke-width="2.6637058468168533" stroke="black" />
<line x1="151.3858376871569" y1="190.68729189668053" x2="152.825717486533" y2="173.10049690857605" stroke-width="3.511659814253366" stroke="black" />
<line x1="0.4844569095681339" y1="92.15610548049422" x2="16.826244789823207" y2="93.65614933843383" stroke-width="3.6321292091378043" stroke="black" />
<line x1="190.88175779764674" y1="188.41702407575107" x2="177.96922795583214" y2="184.9561931296791" stroke-width="3.945761543720068" stroke="black" />
<line x1="105.63060961489437" y1="103.01320867400979" x2="129.4460913875786" y2="104.20825381803375" stroke-width="4.622322673125482" stroke="black" />
<line x1="174.35780743851598" y1="58.37086201882089" x2="145.660723159538" y2="56.36414138647439" stroke-width="2.5811066482850524" stroke="black" />
<line x1="76.29907526679055" y1="164.1473812006685" x2="85.4072788919372" y2="191.12061366931826" stroke-width="3.568334747322952" stroke="black" />
<line x1="63.45342954168546" y1="190.71634622272188" x2="65.05627566527816" y2="163.01974753623034" stroke-width="3.547275161288242" stroke="black" />
<line x1="159.64796470435513" y1="189.3776874020047" x2="159.77101823017628" y2="176.87889889303892" stroke-width="2.5491026437147677" stroke="black" />
<line x1="71.6481653105572" y1="176.93201846931092" x2="69.13531957626759" y2="166.9352474468018" stroke-width="3.034030223959907" stroke="black" />
<line x1="137.07442637291737" y1="99.3417461133388" x2="139.17001699457495" y2="111.90918044228633" stroke-width="2.8771442651603816" stroke="black" />
<line x1="91.95658216481466" y1="110.7282599392466" x2="103.9089442643892" y2="101.28510529624921" stroke-width="4.904104278893773" stroke="black" />
<line x1="40.567023449496794" y1="96.4051597749075" x2="53.09075295958658" y2="97.33584430874697" stroke-width="3.2342186554081684" stroke="black" />
<line x1="10.504966260395857" y1="183.1800559293283" x2="2.5697859965270355" y2="165.8796602566753" stroke-width="2.03298522816352" stroke="black" />
<line x1="54.145048950328" y1="51.272355171906874" x2="60.48333384403965" y2="53.52381669979723" stroke-width="2.2115779195053897" stroke="black" />
<line x1="189.37818077599948" y1="41.79825057866136" x2="175.60004121727658" y2="41.227234213170775" stroke-width="1.766529176411686" stroke="black" />
<line x1="6.932842039024343" y1="157.72987014475837" x2="35.61711172338319" y2="161.92888630225144" stroke-width="1.5989274256210686" stroke="black" />
<line x1="12.792437855348515" y1="98.26001974989303" x2="2.9246420803785593" y2="101.20326051634788" stroke-width="7.061103694761852" stroke="black" />
<line x1="179.2443112039949" y1="120.21721800835282" x2="153.98618583038433" y2="128.31211690540607" stroke-width="4.715571651566336" stroke="black" />
<line x1="65.51104588187937" y1="124.23216805101306" x2="54.98035356476299" y2="132.6337600247125" stroke-width="3.326484351423745" stroke="black" />
<line x1="164.41352145572017" y1="149.44930729923075" x2="156.96993076261415" y2="153.30811998993536" stroke-width="3.8636748680982556" stroke="black" />
<line x1="2.729594349040141" y1="186.5114740955851" x2="36.74560706311623" y2="190.4831931374649" stroke-width="6.434634498886541" stroke="black" />
<line x1="185.52116280765804" y1="99.01645003224414" x2="176.44626269434164" y2="101.64456949477884" stroke-width="6.003319053506604" stroke="black" />
<line x1="58.51645319859668" y1="41.93134921671737" x2="59.117972460532066" y2="24.40908761237953" stroke-width="3.7477923186711593" stroke="black" />
<line x1="155.6961070335286" y1="127.5256750265004" x2="138.07796560544082" y2="126.8482528366794" stroke-width="3.7472310271474356" stroke="black" />
<line x1="49.26635578053926" y1="31.886447185680655" x2="47.9500424067198" y2="19.39343422564458" stroke-width="2.0289982910227002" stroke="black" />
<line x1="138.13675386316334" y1="40.4394478707727" x2="114.32394256541383" y2="38.93101718504722" stroke-width="1.8006626643815105" stroke="black" />
<line x1="52.79131398261581" y1="103.6466907302" x2="65.01599195251733" y2="98.04576777792055" stroke-width="4.876109491739588" stroke="black" />
<line x1="160.64280870371678" y1="42.786318164877464" x2="190.69118368762594" y2="44.36633383671187" stroke-width="2.495384625109265" stroke="black" />
<line x1="163.34597790314194" y1="175.65998478788373" x2="163.85680367213595" y2="190.6851153013681" stroke-width="4.0876192231719015" stroke="black" />
<line x1="5.845003183832169" y1="104.81955020782448" x2="22.883645747933098" y2="96.38730668099096" stroke-width="3.33804245965784" stroke="black" />
<line x1="30.61344962859046" y1="39.50208697208468" x2="48.30810931903054" y2="41.110276136067355" stroke-width="3.055763620664183" stroke="black" />
<line x1="66.89734924822211" y1="40.26016508240723" x2="94.44711213251249" y2="41.947822868081786" stroke-width="2.5469692037294864" stroke="black" />
<line x1="155.04426551139943" y1="169.43080885977596" x2="156.7220728811239" y2="186.8896963686518" stroke-width="3.4451328839204542" stroke="black" />
<line x1="140.20183385764307" y1="111.24727334219779" x2="148.25527404801406" y2="105.81824913922166" stroke-width="5.5665515282258005" stroke="black" />
<line x1="41.66236415418865" y1="111.49403263216506" x2="53.853043149523124" y2="104.68984004759004" stroke-width="3.1475463319971606" stroke="black" />
<line x1="124.04362378242412" y1="98.92164769666836" x2="115.69776220068971" y2="95.45007543840043" stroke-width="3.7507481949294896" stroke="black" />
<line x1="156.24609368947864" y1="153.4083779469419" x2="151.35148306421158" y2="164.13614206766843" stroke-width="3.312179342795703" stroke="black" />
<line x1="66.92615742077113" y1="88.45455248278296" x2="42.998835111859464" y2="89.22949355541331" stroke-width="10.43985127155107" stroke="black" />
<line x1="164.41014519799626" y1="19.926469141089154" x2="181.92869002826032" y2="20.807880060609335" stroke-width="2.2455944408380857" stroke="black" />
<line x1="126.9198444913704" y1="113.80756770151645" x2="110.5743592040242" y2="112.51577487288753" stroke-width="1.507417811422389" stroke="black" />
<line x1="111.95301182659009" y1="40.823323573620954" x2="141.97327300765602" y2="43.05018285343721" stroke-width="2.722564891426032" stroke="black" />
<line x1="129.08266580586735" y1="98.98773448688512" x2="122.33655854497808" y2="96.70184252403482" stroke-width="4.755105880959725" stroke="black" />
<line x1="135.92868583099644" y1="72.33765313150698" x2="122.38294249163047" y2="74.73956992761877" stroke-width="9.4885791743131" stroke="black" />
<line x1="175.78674273797026" y1="102.17366102725855" x2="167.07601010389106" y2="100.6926981041241" stroke-width="9.254756197017885" stroke="black" />
<line x1="186.30180445306823" y1="116.90026256777394" x2="186.86439739399148" y2="101.82794644025181" stroke-width="2.9645136097747713" stroke="black" />
<line x1="96.96312233757013" y1="30.6211078608039" x2="119.43995483458048" y2="32.200758102553294" stroke-width="2.3861489151056485" stroke="black" />
<line x1="116.90194226987452" y1="23.760171218156827" x2="136.91828165945893" y2="24.637302597916804" stroke-width="2.3334327931007337" stroke="black" />
<line x1="96.84789946666898" y1="54.62114463127198" x2="114.41025832460099" y2="56.55476101421437" stroke-width="1.7896855658519506" stroke="black" />
<line x1="136.96484774805498" y1="31.63922707774707" x2="160.70362818941683" y2="33.07476001301824" stroke-width="2.4549565510104383" stroke="black" />
<line x1="74.39376486045717" y1="178.8603234174225" x2="79.1956398464163" y2="190.69775774556348" stroke-width="3.4749742197551567" stroke="black" />
<line x1="82.52293608357523" y1="190.82263027863678" x2="78.70292606508279" y2="179.185293083246" stroke-width="2.375302418993778" stroke="black" />
<line x1="123.90955272402148" y1="87.23065684240723" x2="114.97682828174142" y2="91.87955723754953" stroke-width="3.1399773284872943" stroke="black" />
<line x1="151.90881464156834" y1="17.486406071949084" x2="135.6382457859159" y2="16.62485160079049" stroke-width="1.5126394103492329" stroke="black" />
<line x1="25.640697523860794" y1="29.09761031038639" x2="44.40135523631849" y2="30.159278725300307" stroke-width="3.037762891571966" stroke="black" />
<line x1="84.40764225619243" y1="22.444972562707576" x2="103.17440287784375" y2="23.34580299177552" stroke-width="2.37725936260523" stroke="black" />
<line x1="0.3401211256528325" y1="167.00899234706006" x2="8.43877975022976" y2="184.22741416974299" stroke-width="1.926859136538173" stroke="black" />
<line x1="153.1389294179073" y1="25.345442231294747" x2="173.15152757648193" y2="26.34260229754118" stroke-width="1.4972756009220234" stroke="black" />
<line x1="119.35497719367685" y1="29.81913787272412" x2="98.09183988616844" y2="28.86054436769471" stroke-width="2.1596883270550795" stroke="black" />
<line x1="49.40945429800223" y1="38.640808844182644" x2="30.64212453166939" y2="37.76009110827429" stroke-width="2.0870810258662367" stroke="black" />
<line x1="60.632558304945384" y1="29.21270689285395" x2="83.2000405140473" y2="30.26371833373128" stroke-width="2.380989428775179" stroke="black" />
<line x1="5.1346911062023155" y1="182.12286299879096" x2="0.09069322584364103" y2="172.14510499093936" stroke-width="2.231116208052849" stroke="black" />
<line x1="159.35851626831257" y1="10.855693590667762" x2="170.64023338686644" y2="11.661805270742494" stroke-width="1.8704443712653411" stroke="black" />
<line x1="182.2055576051523" y1="92.42447870955407" x2="172.10212379071535" y2="98.5025429319613" stroke-width="3.4394507104768866" stroke="black" />
<line x1="50.63670586726131" y1="49.24658995154218" x2="41.8458095157963" y2="48.445211344228326" stroke-width="1.925715479886625" stroke="black" />
<line x1="95.63615765020423" y1="52.730034294484454" x2="84.35984455606716" y2="52.411482188970645" stroke-width="1.5671835535119265" stroke="black" />
<line x1="36.821609300258636" y1="189.98346629492644" x2="54.37893981642281" y2="190.48785971029662" stroke-width="2.498968989381211" stroke="black" />
<line x1="59.27531191037" y1="149.2218212662933" x2="67.40119007440039" y2="143.9335331917267" stroke-width="2.411316350403768" stroke="black" />
<line x1="135.6550352846551" y1="22.102582293232327" x2="119.38235756838887" y2="21.62454430144708" stroke-width="1.6536915220191486" stroke="black" />
<line x1="121.31628618191408" y1="69.13360920678703" x2="116.24012788014267" y2="54.59669152025695" stroke-width="1.9481535611969891" stroke="black" />
<line x1="104.39247118576897" y1="17.835272428927446" x2="120.65869921024934" y2="18.81616040767289" stroke-width="1.473456370172428" stroke="black" />
<line x1="154.34240881841572" y1="30.345031664409394" x2="139.3593221701629" y2="29.841629027606437" stroke-width="1.7529817628090771" stroke="black" />
<line x1="85.63339495339031" y1="39.168855595364974" x2="68.11154889564082" y2="38.455302000604874" stroke-width="1.808451280253365" stroke="black" />
<line x1="154.05110601488488" y1="148.76434294059857" x2="147.35849137131035" y2="158.45878121955727" stroke-width="2.20357070582678" stroke="black" />
<line x1="118.13473930683644" y1="13.032524260960722" x2="131.9943058824851" y2="14.492178143184725" stroke-width="2.093481470881526" stroke="black" />
<line x1="131.8112126437341" y1="9.540000276089419" x2="144.39833219281005" y2="10.10742000921975" stroke-width="2.441171599522123" stroke="black" />
<line x1="56.024684075064656" y1="24.348420473029925" x2="56.94055517500292" y2="38.1206404929525" stroke-width="1.8278494259786522" stroke="black" />
<line x1="27.093266338840127" y1="41.8644648940158" x2="27.938884512987112" y2="59.38398327424833" stroke-width="1.8511849350433565" stroke="black" />
<line x1="53.760386931322564" y1="31.888142635069947" x2="53.59951198052356" y2="24.36485322943139" stroke-width="1.4100545971203071" stroke="black" />
<line x1="85.6985593542885" y1="56.84204548324715" x2="84.99782705315167" y2="81.8574315986878" stroke-width="3.8885349418464132" stroke="black" />
<line x1="62.23464241940061" y1="31.87272372294155" x2="62.33753914887453" y2="48.12998405909078" stroke-width="1.3449122404039027" stroke="black" />
<line x1="34.98317752402716" y1="51.86982226327427" x2="34.78150961847703" y2="76.8681953596365" stroke-width="3.9414687246096163" stroke="black" />
<line x1="138.96528660434748" y1="160.70525080805234" x2="134.06470733458252" y2="135.68577721011005" stroke-width="2.9339257296648023" stroke="black" />
<line x1="77.48052379737769" y1="113.06379488766198" x2="78.35088257145276" y2="139.45001257212692" stroke-width="5.615421364777548" stroke="black" />
<line x1="79.63749478149398" y1="156.67427047687207" x2="83.39676369772658" y2="138.18024122447744" stroke-width="1.7629866693099943" stroke="black" />
<line x1="66.74607851290598" y1="50.64617933967137" x2="64.08096966205567" y2="34.423303572518286" stroke-width="3.074837467846" stroke="black" />
<line x1="119.99632623656919" y1="84.52489111094198" x2="115.49738696875146" y2="65.65542604946663" stroke-width="3.647752654400425" stroke="black" />
<line x1="94.53952010286517" y1="84.86363360028889" x2="110.83878085907887" y2="88.3856645925367" stroke-width="2.60934938239199" stroke="black" />
<line x1="70.01663582300736" y1="43.102930668573265" x2="69.33570230713457" y2="61.87357441670475" stroke-width="1.6117049959251268" stroke="black" />
<line x1="86.20937208311676" y1="24.34700623160935" x2="86.74992028557473" y2="35.630991820378064" stroke-width="1.6074367925335038" stroke="black" />
<line x1="66.89463204872222" y1="79.3707193563297" x2="64.43950741222193" y2="68.11093456802588" stroke-width="1.7539003751103832" stroke="black" />
<line x1="98.76025078603544" y1="34.39215419098917" x2="98.42294913393724" y2="46.88304576154957" stroke-width="1.519484184199793" stroke="black" />
<line x1="142.57349979433891" y1="60.57629398859032" x2="140.2634858695892" y2="86.73267833843586" stroke-width="4.100883475366606" stroke="black" />
<line x1="179.06297824281882" y1="90.66933629030139" x2="176.75017780574274" y2="74.3927364331598" stroke-width="1.9409711757408166" stroke="black" />
<line x1="175.67886825173497" y1="150.63836185707154" x2="172.0289169775831" y2="165.35311991827476" stroke-width="2.4359450806290552" stroke="black" />
<line x1="47.42603888417741" y1="148.38654588716662" x2="41.73490200552028" y2="133.17742359471362" stroke-width="1.465293677651767" stroke="black" />
<line x1="177.55687261543363" y1="136.8378710458392" x2="176.66208750143676" y2="150.5293939571019" stroke-width="2.8207487499050004" stroke="black" />
</svg>
