<?xml version="1.0" standalone="no"?>
   <!DOCTYPE svg PUBLIC "-//W3C//DTD SVG 1.1//EN"
    "http://www.w3.org/Graphics/SVG/1.1/DTD/svg11.dtd">
   <svg width="192px" height="192px" version="1.1"
    xmlns="http://www.w3.org/2000/svg" xmlns:xlink="http://www.w3.org/1999/xlink">
<line x1="150.26187744026203" y1="86.87620091686037" x2="150.17918481525618" y2="61.87234040456149" stroke-width="2.549593971427495" stroke="black" />
<line x1="65.62944454858739" y1="31.490165993185613" x2="89.37627706684269" y2="31.764424372266056" stroke-width="2.7452387260144926" stroke="black" />
<line x1="78.21970981944236" y1="66.60478222713529" x2="68.07286116920207" y2="67.58561876096698" stroke-width="3.732601908522535" stroke="black" />
<line x1="58.023319063117036" y1="85.7461958930452" x2="58.801614044306824" y2="94.42641155805605" stroke-width="3.5565404264602396" stroke="black" />
<line x1="64.41857430536494" y1="69.3547545933851" x2="30.622584251424094" y2="68.19542208719982" stroke-width="3.4049587095515967" stroke="black" />
<line x1="156.50992065636603" y1="44.220985397290384" x2="158.52059504082163" y2="55.77370354691613" stroke-width="3.4801304614998405" stroke="black" />
<line x1="149.83079707380534" y1="109.37894489779754" x2="149.98234086350982" y2="91.86943782165835" stroke-width="1.3905907452246298" stroke="black" />
<line x1="94.36266861897603" y1="103.9865951773269" x2="83.04470499882949" y2="104.34592676557767" stroke-width="3.7481114551263497" stroke="black" />
<line x1="19.95785098010578" y1="119.37021177416612" x2="20.204374110074426" y2="149.37845551748435" stroke-width="2.5717960440421055" stroke="black" />
<line x1="78.48587391631793" y1="105.64617810489534" x2="78.97944799751684" y2="68.1033659834787" stroke-width="6.627402553232251" stroke="black" />
<line x1="46.83463097454462" y1="84.59945444405982" x2="56.86133857801732" y2="84.87397524469141" stroke-width="3.953860536950109" stroke="black" />
<line x1="16.792913203870384" y1="22.51843464615168" x2="0.6462404688907153" y2="20.458507284615983" stroke-width="4.1688617247251445" stroke="black" />
<line x1="149.36117109390267" y1="60.14724088696204" x2="124.36918549056185" y2="59.699696826644235" stroke-width="5.111102449463843" stroke="black" />
<line x1="45.753599778201206" y1="93.13019087444222" x2="45.78185702754142" y2="85.6255906174861" stroke-width="3.764093281013914" stroke="black" />
<line x1="114.23680675667266" y1="56.86016079683228" x2="110.743988341906" y2="89.38777697908826" stroke-width="3.0195419636698304" stroke="black" />
<line x1="58.242759219001854" y1="93.90355110639011" x2="45.71587028424887" y2="93.04662374540055" stroke-width="4.903032666091854" stroke="black" />
<line x1="49.362145882549804" y1="40.175705937235634" x2="125.61256191500007" y2="41.39979053275054" stroke-width="2.5999992486277357" stroke="black" />
<line x1="18.162078282088068" y1="146.12111108353787" x2="4.365212560837781" y2="146.41408447106554" stroke-width="5.264247998616496" stroke="black" />
<line x1="135.6416012338789" y1="1.4782562383141074" x2="126.90689480248547" y2="1.1127636500626994" stroke-width="1.5624606258037033" stroke="black" />
<line x1="8.122905700280652" y1="151.75979510725114" x2="16.892731152050136" y2="151.6003692135749" stroke-width="2.5904665607546806" stroke="black" />
<line x1="20.449629891811448" y1="66.8729873537571" x2="20.004806991772217" y2="105.63222802015024" stroke-width="3.9936139878574544" stroke="black" />
<line x1="177.22418650343533" y1="0.5894839884633951" x2="175.88978388204018" y2="34.43472277506406" stroke-width="3.894823750424932" stroke="black" />
<line x1="126.5862082610141" y1="33.07447555112269" x2="137.17615736514594" y2="35.62416471710181" stroke-width="5.401389540881823" stroke="black" />
<line x1="3.250373775690689" y1="13.484366926108326" x2="13.056064310903812" y2="14.864706913127113" stroke-width="4.428453349824168" stroke="black" />
<line x1="136.39488324963415" y1="110.75074199274208" x2="137.02465209594712" y2="100.6343161586274" stroke-width="1.8701698778117448" stroke="black" />
<line x1="92.42048445905115" y1="133.11127357277314" x2="92.20090395091106" y2="144.38134974901914" stroke-width="1.444560824863242" stroke="black" />
<line x1="156.03974504258417" y1="90.62542569612974" x2="156.03018859339602" y2="71.87479349153872" stroke-width="1.258281813293376" stroke="black" />
<line x1="46.46433568741411" y1="54.487664295021304" x2="47.150921753177265" y2="41.75506991444221" stroke-width="6.308239660685922" stroke="black" />
<line x1="115.86859320917877" y1="103.023297862851" x2="115.10570850602068" y2="110.57252315343788" stroke-width="2.864366745924083" stroke="black" />
<line x1="86.36173914421543" y1="146.876732743307" x2="86.39113784211364" y2="134.37680188636452" stroke-width="2.502932963605405" stroke="black" />
<line x1="97.23702045239864" y1="105.56417692449699" x2="96.71986193536436" y2="113.11437365816114" stroke-width="2.8358354908025865" stroke="black" />
<line x1="82.65642626027724" y1="135.58439846627414" x2="82.53697189943654" y2="140.64063917438006" stroke-width="2.6173953229342204" stroke="black" />
<line x1="16.93360841587589" y1="152.38074455197716" x2="47.04220285253232" y2="154.75172756442262" stroke-width="6.819496003110352" stroke="black" />
<line x1="161.85982101314906" y1="129.2449839099329" x2="146.7735769255861" y2="131.0062574608976" stroke-width="4.531421990921297" stroke="black" />
<line x1="28.27224204274198" y1="19.392729409015168" x2="46.90556567566207" y2="21.619195458643876" stroke-width="4.223156329755674" stroke="black" />
<line x1="158.43164649122235" y1="55.49472248202214" x2="180.13800327097982" y2="60.31707020343146" stroke-width="5.966024275830906" stroke="black" />
<line x1="67.70312070410965" y1="90.61126945081192" x2="65.70781001798028" y2="151.91837784216602" stroke-width="3.05677567477613" stroke="black" />
<line x1="19.86529883115404" y1="106.8508496383559" x2="20.424143096442364" y2="118.19646400661874" stroke-width="3.499475304230673" stroke="black" />
<line x1="49.428074352748745" y1="66.9742531439914" x2="59.283625607865936" y2="61.70412282053552" stroke-width="3.383475424916589" stroke="black" />
<line x1="91.87241600402284" y1="32.22745829354947" x2="114.3712067226204" y2="32.39240485821119" stroke-width="2.5915722598172852" stroke="black" />
<line x1="15.60878035087912" y1="14.01190001860996" x2="24.37046322084603" y2="13.923801684037539" stroke-width="3.7875146264256507" stroke="black" />
<line x1="44.39605793488767" y1="38.63411773290151" x2="30.61792730977599" y2="39.20400355464247" stroke-width="6.451292082157829" stroke="black" />
<line x1="0.5915835701625938" y1="96.28545534528453" x2="18.176789835104064" y2="95.28869486814587" stroke-width="2.0241188651572606" stroke="black" />
<line x1="164.34559477782446" y1="47.36195320099268" x2="176.8753877404823" y2="48.11857898172313" stroke-width="2.947526852664398" stroke="black" />
<line x1="124.36656219402761" y1="38.81451241957459" x2="94.3733597050609" y2="39.26604218032356" stroke-width="1.7014393012498819" stroke="black" />
<line x1="139.78044168065273" y1="96.89197598246179" x2="139.20573199502803" y2="110.61791269047839" stroke-width="2.8638562554539826" stroke="black" />
<line x1="149.97915285274095" y1="121.89217342769398" x2="149.77898147575522" y2="114.36425791235118" stroke-width="2.5987959579008377" stroke="black" />
<line x1="162.55419132665799" y1="93.37246105774018" x2="160.3974001381892" y2="99.29207476180186" stroke-width="3.523420922818286" stroke="black" />
<line x1="128.28058573021835" y1="99.38733086762987" x2="127.49298795224374" y2="109.324910207765" stroke-width="2.788460502539321" stroke="black" />
<line x1="103.27328095823938" y1="143.10763040438562" x2="103.88405788493417" y2="104.36725985420462" stroke-width="3.9662882600941485" stroke="black" />
<line x1="176.87921827062345" y1="53.52938673297083" x2="164.37952931654186" y2="53.467033086483156" stroke-width="2.5560878752810927" stroke="black" />
<line x1="180.5969843102009" y1="45.918221197900934" x2="169.21205324761738" y2="44.83045298974705" stroke-width="2.7818856781485772" stroke="black" />
<line x1="160.57025336801408" y1="165.21341289294756" x2="174.44179320698868" y2="165.57704792374375" stroke-width="6.542665091681492" stroke="black" />
<line x1="25.574693012786316" y1="9.546584285402119" x2="38.097671574741334" y2="13.21821027910607" stroke-width="3.454069215164891" stroke="black" />
<line x1="119.14541973037399" y1="115.60834933647438" x2="120.22762538082009" y2="100.68683797219403" stroke-width="2.493450701695039" stroke="black" />
<line x1="114.4282816650789" y1="81.86880770741254" x2="115.73496935679474" y2="93.11221957296344" stroke-width="2.627587173540274" stroke="black" />
<line x1="173.57785340426366" y1="168.01490336346177" x2="184.91561209437734" y2="164.5522515916519" stroke-width="6.707667846017774" stroke="black" />
<line x1="122.4658237131775" y1="103.09789772942509" x2="122.98342495590279" y2="114.38149433166984" stroke-width="2.6119333972284995" stroke="black" />
<line x1="100.6257635748378" y1="3.205649680083729" x2="113.12464318540472" y2="3.0873128192114128" stroke-width="2.4762195256333155" stroke="black" />
<line x1="116.86474992519928" y1="7.260674605436559" x2="100.61703495471878" y2="7.453357008193294" stroke-width="2.6628746427476346" stroke="black" />
<line x1="101.85427711626282" y1="10.144041963027306" x2="115.63255661387196" y2="9.550381680470398" stroke-width="1.7331171328049404" stroke="black" />
<line x1="127.0427639620501" y1="154.71498662545972" x2="113.07611166628742" y2="152.14018828593316" stroke-width="3.8183070647262745" stroke="black" />
<line x1="77.65371667115059" y1="157.55573907964722" x2="98.21666906424103" y2="152.22886345319316" stroke-width="4.21329243606433" stroke="black" />
<line x1="39.372934815262695" y1="13.032302477461064" x2="48.12290695208031" y2="13.04791663992997" stroke-width="2.513379608681819" stroke="black" />
<line x1="68.72907934472642" y1="64.4021751530343" x2="68.20190031714878" y2="51.87176465233021" stroke-width="1.7217864873912474" stroke="black" />
<line x1="81.94330415650933" y1="190.88514714007664" x2="94.5582583957237" y2="187.5729684689619" stroke-width="3.309622741149593" stroke="black" />
<line x1="70.60684662591183" y1="1.6495174377551816" x2="89.37310343758469" y2="1.982035819173091" stroke-width="3.9044279482503286" stroke="black" />
<line x1="130.5497776681932" y1="177.46250302374713" x2="140.7027431353499" y2="176.30969815886618" stroke-width="6.492144278948705" stroke="black" />
<line x1="123.01910828020968" y1="69.73548747503659" x2="146.87741463152736" y2="66.89528340828738" stroke-width="3.516809016850256" stroke="black" />
<line x1="61.36069798741955" y1="4.3588046632791135" x2="69.52610814907946" y2="7.762493273537288" stroke-width="3.750374132149603" stroke="black" />
<line x1="143.12696393528753" y1="153.976730377401" x2="126.87119525497296" y2="153.8965704155915" stroke-width="3.811593285374087" stroke="black" />
<line x1="101.88001540077278" y1="17.509300241834154" x2="114.37923394501986" y2="17.410469142282857" stroke-width="1.348795115583068" stroke="black" />
<line x1="0.30288163751862496" y1="139.54322008398682" x2="8.559630464778843" y2="137.0846327389203" stroke-width="4.96898578049755" stroke="black" />
<line x1="98.12688007838318" y1="153.2610485898096" x2="109.37473208264002" y2="153.10561262799652" stroke-width="2.620667502416758" stroke="black" />
<line x1="144.4144334593349" y1="133.11888952843958" x2="142.46427446180522" y2="120.53368808111544" stroke-width="4.088595767071803" stroke="black" />
<line x1="94.83353367910446" y1="186.41307841271544" x2="130.40777133839498" y2="178.40946776972874" stroke-width="5.6405688723340175" stroke="black" />
<line x1="139.53145942940515" y1="177.08048113550612" x2="155.77768910946776" y2="172.06826030849473" stroke-width="7.725834864620292" stroke="black" />
<line x1="186.94339844113458" y1="64.70164442185428" x2="151.93872948655695" y2="63.60000011983546" stroke-width="5.390722966103839" stroke="black" />
<line x1="19.4396836061385" y1="61.408578048623944" x2="0.4066361615064673" y2="62.9797376117153" stroke-width="8.617502261233822" stroke="black" />
<line x1="131.80740817433144" y1="135.6346655926258" x2="131.71558105711836" y2="123.11699971340275" stroke-width="2.5641192748600066" stroke="black" />
<line x1="18.129975429626434" y1="118.7256388928575" x2="0.6118487677378337" y2="118.59141433669835" stroke-width="2.4999266196936767" stroke="black" />
<line x1="128.18914040997328" y1="124.3151030549922" x2="127.67897091342768" y2="134.41560801295063" stroke-width="2.8120983493710976" stroke="black" />
<line x1="177.3328978135062" y1="172.47817049694893" x2="164.17598053736805" y2="182.4662645494591" stroke-width="8.720694868719937" stroke="black" />
<line x1="125.03499774090294" y1="136.8890182415355" x2="124.70778175433409" y2="123.1170932251717" stroke-width="2.736824016751341" stroke="black" />
<line x1="185.36179938089035" y1="170.21543147868343" x2="178.09595763312979" y2="174.88467226949413" stroke-width="5.085215001322472" stroke="black" />
<line x1="11.893087469253594" y1="103.53890518554238" x2="0.6100097693446976" y2="104.03197057373167" stroke-width="1.685386991030039" stroke="black" />
<line x1="184.63294143954403" y1="153.1963924076947" x2="164.33562317794198" y2="155.232456399956" stroke-width="6.094026238072289" stroke="black" />
<line x1="160.62994808750835" y1="72.52077296086473" x2="190.62818687894796" y2="72.29091832210952" stroke-width="2.5573919617541505" stroke="black" />
<line x1="41.88986850790948" y1="62.84111043068188" x2="26.800324423829167" y2="62.05080663014567" stroke-width="3.4179761825420427" stroke="black" />
<line x1="75.38054209284145" y1="182.0553924902805" x2="129.17734559861762" y2="169.76017777148195" stroke-width="4.35247482873165" stroke="black" />
<line x1="47.62046976692159" y1="154.59460577299538" x2="70.8572141011295" y2="157.54795698854312" stroke-width="9.01619702385888" stroke="black" />
<line x1="98.17219308004898" y1="190.80938785768927" x2="136.94192529575682" y2="180.8864835034504" stroke-width="2.2847601638806743" stroke="black" />
<line x1="190.61304775569644" y1="81.80608734452451" x2="164.0772830297395" y2="86.40846321580042" stroke-width="4.021948839427869" stroke="black" />
<line x1="78.130448181153" y1="149.414942141893" x2="85.49345604337533" y2="148.41061441275292" stroke-width="2.47706275358241" stroke="black" />
<line x1="94.37221035649831" y1="94.36161633878672" x2="109.49674989651193" y2="91.20911025161172" stroke-width="1.6822091929656207" stroke="black" />
<line x1="188.06626924254905" y1="33.12475220517692" x2="188.1453771994034" y2="14.375085974789705" stroke-width="1.2605366957588555" stroke="black" />
<line x1="175.399667549208" y1="77.83526810585934" x2="164.13926636123216" y2="76.68729253228024" stroke-width="4.840993737927552" stroke="black" />
<line x1="165.00978459253477" y1="180.8844059286161" x2="149.34799753584178" y2="182.91693024110262" stroke-width="10.560323874443641" stroke="black" />
<line x1="169.36801703417208" y1="140.2377397327982" x2="190.63364231295296" y2="139.85428409015347" stroke-width="1.5653005176680774" stroke="black" />
<line x1="69.38392778749068" y1="50.408109624936216" x2="93.14512097953761" y2="51.38618383999209" stroke-width="1.6088110047474682" stroke="black" />
<line x1="145.75837009070693" y1="116.3525609512837" x2="113.2065150988224" y2="122.31968143141263" stroke-width="4.139306131909614" stroke="black" />
<line x1="95.09625156877493" y1="53.08465165705543" x2="92.70368619634948" y2="84.43823633862377" stroke-width="2.968302387057944" stroke="black" />
<line x1="148.7508462104328" y1="183.02198747373475" x2="122.90203229440397" y2="189.7710349388527" stroke-width="6.994626593031805" stroke="black" />
<line x1="132.1606500467947" y1="71.87206374840305" x2="122.7586595505614" y2="74.02566578250241" stroke-width="4.771710610878457" stroke="black" />
<line x1="144.4190907468034" y1="71.08420402774836" x2="134.3915154130473" y2="72.04700761477397" stroke-width="3.971773106693145" stroke="black" />
<line x1="111.97218317742764" y1="125.53308035775875" x2="110.96600076627583" y2="138.1521896348373" stroke-width="2.1940310423459124" stroke="black" />
<line x1="190.78029124883744" y1="13.131066804835214" x2="189.99823169421526" y2="33.1493479596193" stroke-width="1.5906252107397816" stroke="black" />
<line x1="132.9689049770564" y1="170.01009181400107" x2="144.43215098676708" y2="167.10013600330294" stroke-width="2.152911510187456" stroke="black" />
<line x1="132.0249952653299" y1="96.49874180360261" x2="123.10859192888873" y2="98.0294208654529" stroke-width="3.6959347474767235" stroke="black" />
<line x1="163.21245395386526" y1="154.63001827036473" x2="142.03396453939723" y2="155.86066288954262" stroke-width="6.529526768149436" stroke="black" />
<line x1="190.66117084626848" y1="143.52682587709623" x2="178.13065244873934" y2="142.9924551124353" stroke-width="1.408640462545412" stroke="black" />
<line x1="10.652997307957465" y1="186.4238625139985" x2="0.6140866088277697" y2="185.8008540451343" stroke-width="1.712151379756211" stroke="black" />
<line x1="66.76998568379798" y1="70.62709994188872" x2="67.14527395581915" y2="89.39459130749081" stroke-width="1.2997319651091035" stroke="black" />
<line x1="124.21118645097829" y1="167.18447583921383" x2="96.88694989074517" y2="171.94360947114404" stroke-width="6.157303477985619" stroke="black" />
<line x1="96.8391948433115" y1="50.892466156582245" x2="111.91028465686972" y2="50.343250741911376" stroke-width="1.9520794707053948" stroke="black" />
<line x1="96.90888417926217" y1="173.24727286251184" x2="89.30038180777107" y2="175.35573628584308" stroke-width="2.7430218468798855" stroke="black" />
<line x1="57.02609509971645" y1="182.57658333837037" x2="36.88351749634067" y2="186.91454948590962" stroke-width="2.011492253321986" stroke="black" />
<line x1="124.47065848479043" y1="189.11629703431814" x2="115.59781728137466" y2="188.55371940001137" stroke-width="3.5842914473499063" stroke="black" />
<line x1="84.52773770566199" y1="176.20115942719195" x2="58.14368230593432" y2="183.1954736701333" stroke-width="2.4894906375741037" stroke="black" />
<line x1="159.27444073810244" y1="102.76522447682787" x2="185.89075823754214" y2="95.32581554045663" stroke-width="2.549801116331041" stroke="black" />
<line x1="0.6151959951436059" y1="130.02143796368784" x2="16.88041252074103" y2="130.2681194254286" stroke-width="1.496278612684278" stroke="black" />
<line x1="164.34780549009065" y1="98.052919351349" x2="181.73142499660253" y2="91.49444600548226" stroke-width="1.3237203389989738" stroke="black" />
<line x1="180.6169074264887" y1="116.10919120419697" x2="190.63500091923032" y2="116.27662951643866" stroke-width="1.3960489414792148" stroke="black" />
<line x1="93.06501033287293" y1="170.34347247872353" x2="73.16931620019119" y2="174.58297298251034" stroke-width="2.2645896526284406" stroke="black" />
</svg>
