<?xml version="1.0" standalone="no"?>
   <!DOCTYPE svg PUBLIC "-//W3C//DTD SVG 1.1//EN"
    "http://www.w3.org/Graphics/SVG/1.1/DTD/svg11.dtd">
   <svg width="192px" height="192px" version="1.1"
    xmlns="http://www.w3.org/2000/svg" xmlns:xlink="http://www.w3.org/1999/xlink">
<line x1="190.62500002006018" y1="9.49038743139187" x2="0.6249999758597191" y2="9.490384072150729" stroke-width="2.500003359241139" stroke="black" />
<line x1="135.82650162841915" y1="125.62499657879124" x2="135.82688364652037" y2="148.12501779551295" stroke-width="1.250382017560774" stroke="black" />
<line x1="0.6249955974524468" y1="181.53244301838347" x2="190.62500772197197" y2="181.53336482181473" stroke-width="2.500921803342971" stroke="black" />
<line x1="133.21304421721962" y1="148.12505694672737" x2="133.2140018121755" y2="125.62500378788822" stroke-width="2.5009043908344264" stroke="black" />
<line x1="175.14838902517855" y1="151.84852077994984" x2="174.7644925790659" y2="176.8809732388241" stroke-width="2.6722152180621572" stroke="black" />
<line x1="115.68202268841894" y1="110.72492711728829" x2="93.3281505233937" y2="123.48100296550719" stroke-width="2.3307038816616745" stroke="black" />
<line x1="139.4721955007716" y1="69.54503442482975" x2="117.12794796308006" y2="82.31750876915837" stroke-width="3.255639795483779" stroke="black" />
<line x1="163.28833928205972" y1="158.80945591369164" x2="138.2138162431004" y2="151.5674836425129" stroke-width="3.0694321045109074" stroke="black" />
<line x1="178.73343890118994" y1="18.087616044641422" x2="178.14847784614247" y2="28.12636806105254" stroke-width="1.6841704064443812" stroke="black" />
<line x1="92.53065493478059" y1="38.02323473457637" x2="115.82355580792257" y2="24.722726621602988" stroke-width="2.9513376741121222" stroke="black" />
<line x1="116.51323386316541" y1="25.003996786083537" x2="133.0458161623478" y2="34.51267562610691" stroke-width="3.116046418637398" stroke="black" />
<line x1="118.34381824336931" y1="108.99561730390315" x2="139.69922284781578" y2="121.31286890779052" stroke-width="3.2484049181078554" stroke="black" />
<line x1="173.12470350876467" y1="25.62490601106166" x2="175.87348860421793" y2="16.95377190728334" stroke-width="2.3246860160965603" stroke="black" />
<line x1="116.39883285208252" y1="79.80535627261513" x2="137.716130873177" y2="67.421198789464" stroke-width="3.2115482754843305" stroke="black" />
<line x1="138.96911074923133" y1="123.83675530668182" x2="116.61153305883924" y2="111.08700778451578" stroke-width="3.113791623098606" stroke="black" />
<line x1="142.04694731450473" y1="150.02559069731944" x2="163.0065045167786" y2="156.03807591905763" stroke-width="2.934564037648759" stroke="black" />
<line x1="162.9230057641801" y1="82.22757739558297" x2="139.1111323209111" y2="68.58557640552988" stroke-width="3.0956840636701446" stroke="black" />
<line x1="186.91611324004518" y1="131.20529296326742" x2="176.03272497945673" y2="150.850874165256" stroke-width="3.044151442752403" stroke="black" />
<line x1="93.36385403191579" y1="41.87022952422762" x2="93.25177880838945" y2="65.62559812851255" stroke-width="1.3620347367068923" stroke="black" />
<line x1="94.29284115809679" y1="150.7677611823901" x2="115.65985075305242" y2="163.06444249215673" stroke-width="2.330388869717293" stroke="black" />
<line x1="164.79168054714427" y1="107.7361810470575" x2="186.4874661079521" y2="130.98662120638573" stroke-width="3.230602290400344" stroke="black" />
<line x1="67.41111896715549" y1="24.68770709365944" x2="90.69364018651854" y2="38.00499685917648" stroke-width="3.1073885044294207" stroke="black" />
<line x1="93.2736274191451" y1="124.37499215488408" x2="93.27494701346086" y2="149.3749920852309" stroke-width="1.2511216534286307" stroke="black" />
<line x1="141.05014688167913" y1="48.12325013340116" x2="141.0130164311377" y2="65.62582314896746" stroke-width="1.2844703165770912" stroke="black" />
<line x1="140.96995680849352" y1="124.37389575172605" x2="141.04599544758074" y2="148.12765374337758" stroke-width="1.3220184353562108" stroke="black" />
<line x1="11.913176161355542" y1="29.71512654258385" x2="5.569449793793933" y2="29.4489586272221" stroke-width="2.4978023446513165" stroke="black" />
<line x1="162.91148619010997" y1="108.1249877184067" x2="162.9129242227666" y2="83.12498780112422" stroke-width="1.2513661289581262" stroke="black" />
<line x1="114.9339329144831" y1="28.17532488333532" x2="94.11254526838178" y2="40.169385172768315" stroke-width="2.9899651225088353" stroke="black" />
<line x1="94.00571311796334" y1="67.51757112167401" x2="115.37995346071504" y2="79.80138890594289" stroke-width="2.4665513126715064" stroke="black" />
<line x1="134.72246112210533" y1="45.73457211062783" x2="135.41687013222693" y2="35.61072407892686" stroke-width="2.9218310888076324" stroke="black" />
<line x1="172.18762357675206" y1="152.0542645529612" x2="183.06256740016315" y2="133.08919991026835" stroke-width="2.9497747178954636" stroke="black" />
<line x1="145.82500202167202" y1="38.13802370588732" x2="145.33340211556654" y2="45.68740910552091" stroke-width="2.9820682348499896" stroke="black" />
<line x1="140.86841996325538" y1="121.05198194223819" x2="162.68985184166993" y2="108.61170843048232" stroke-width="2.9634559761632393" stroke="black" />
<line x1="115.09608967912165" y1="165.62241355596265" x2="89.8332059198431" y2="151.07906221252225" stroke-width="3.0859707591614303" stroke="black" />
<line x1="115.2400474291411" y1="82.54952928525161" x2="90.05801594239686" y2="68.17819215841972" stroke-width="3.1089814062390446" stroke="black" />
<line x1="141.75640711500293" y1="67.08068541714502" x2="166.4689276338091" y2="81.32928478093864" stroke-width="3.1218475714251985" stroke="black" />
<line x1="163.38840543425428" y1="111.07917088383495" x2="142.06217932825191" y2="123.44773973841303" stroke-width="3.070965992352781" stroke="black" />
<line x1="89.54898308333945" y1="40.31857886420948" x2="66.63047423367856" y2="27.305661772444115" stroke-width="3.1413125559683306" stroke="black" />
<line x1="89.80022859619903" y1="122.62035429011284" x2="114.04156421316476" y2="108.79054308337611" stroke-width="2.958022603384093" stroke="black" />
<line x1="138.57500190249885" y1="152.98352765206" x2="116.26335784582935" y2="165.81114353956417" stroke-width="3.115156263293535" stroke="black" />
<line x1="90.39105186770175" y1="66.87626149483678" x2="90.42364483589151" y2="40.62475000439646" stroke-width="1.2810381474839243" stroke="black" />
<line x1="117.62128817599839" y1="115.98225328229398" x2="97.63607077871062" y2="127.25845302472938" stroke-width="2.9863084129535524" stroke="black" />
<line x1="97.59977861699926" y1="146.52348837472906" x2="117.40754534992014" y2="158.1023389533555" stroke-width="3.0708315148377587" stroke="black" />
<line x1="146.98147161398992" y1="34.56173367463009" x2="163.54755907208448" y2="25.11609901523684" stroke-width="2.952837915930622" stroke="black" />
<line x1="116.6081269241376" y1="162.66038422977664" x2="137.98514909779874" y2="150.38152495317226" stroke-width="3.13549010430527" stroke="black" />
<line x1="133.79022554690604" y1="37.90148115107394" x2="117.35238118872483" y2="28.537031122408496" stroke-width="2.9555921440947683" stroke="black" />
<line x1="115.9455709241319" y1="160.06717561641472" x2="96.05081413686946" y2="148.63404225698469" stroke-width="2.466642952920821" stroke="black" />
<line x1="97.3486886276311" y1="63.21799996300655" x2="117.75559404728882" y2="75.0140633945135" stroke-width="2.958892991760117" stroke="black" />
<line x1="164.18572588775794" y1="27.793507555561895" x2="146.6823128935649" y2="37.787530077847116" stroke-width="2.9483662727157776" stroke="black" />
<line x1="115.67542515884693" y1="76.78836721540358" x2="95.84547239449392" y2="65.24621810028164" stroke-width="2.5152366290442743" stroke="black" />
<line x1="172.72858615308382" y1="164.6031839658714" x2="167.70103493123005" y2="155.86904301599313" stroke-width="3.4138726566419546" stroke="black" />
<line x1="96.09060169605289" y1="125.19795560313736" x2="116.06259219823691" y2="113.89844853869982" stroke-width="2.5052121704905304" stroke="black" />
<line x1="29.76606071762716" y1="28.12533634970612" x2="29.775736788948304" y2="16.87534467205505" stroke-width="2.508600030761195" stroke="black" />
<line x1="90.4570902856606" y1="150.62515399644462" x2="90.4541035341433" y2="123.1248828006424" stroke-width="2.502986707300984" stroke="black" />
<line x1="117.30192695314035" y1="83.12469162708206" x2="117.29302859324407" y2="106.87515661878076" stroke-width="1.258898097326246" stroke="black" />
<line x1="178.76111649465759" y1="133.7891048386422" x2="162.58232834885834" y2="116.22351515317116" stroke-width="2.976064943300797" stroke="black" />
<line x1="164.87153848677983" y1="115.07564893344761" x2="179.93105627302293" y2="131.2703029433463" stroke-width="2.2970115587244724" stroke="black" />
<line x1="165.40688586424807" y1="81.86996043866533" x2="165.53511331567861" y2="108.12543899182505" stroke-width="2.622064629706733" stroke="black" />
<line x1="182.9297369201722" y1="130.80757847642707" x2="164.82959671197057" y2="111.44993462085336" stroke-width="2.537836547754473" stroke="black" />
<line x1="138.69788399280986" y1="66.87556035134601" x2="138.68236647427096" y2="48.124538748086344" stroke-width="2.513446922692374" stroke="black" />
<line x1="164.569513912237" y1="176.8748103603213" x2="164.55854464303698" y2="165.6236023778847" stroke-width="2.509748221884683" stroke="black" />
<line x1="114.97856867537516" y1="109.37537945119755" x2="114.9631596620065" y2="83.12465475390873" stroke-width="2.5139406703028344" stroke="black" />
<line x1="138.7839307069698" y1="149.3751285545037" x2="138.77849327784128" y2="124.37485786860354" stroke-width="1.2554373405621666" stroke="black" />
</svg>
