<svg xmlns="http://www.w3.org/2000/svg" viewBox="0 0 331.69 107.25">
  <title>instructions-write-in</title>
  <rect x="1.5" y="1.5" width="328.69" height="104.25" style="fill: none;stroke: #000;stroke-miterlimit: 10;stroke-width: 3px"/>
  <ellipse cx="51.3" cy="64.3" rx="41.6" ry="27.43"/>
  <path d="M330.15,43.41c-13.55,0-24.6-.08-29.17-.26-8.35-.33-15.52,35.86,25.35,44.39l3.86.82Z" style="fill: #b3b3b3;stroke: #000;stroke-miterlimit: 10;stroke-width: 2px"/>
  <path d="M330.19,90.68,290.36,78.82c-2,9.33-3.4,19,1.56,26.93h38.27Z" style="fill: #b3b3b3;stroke: #000;stroke-miterlimit: 10;stroke-width: 2px"/>
  <path d="M330.19,66.88c-11.95-2.77-18.84-4.31-21.48-4.77C296,59.93,262,57.39,254.4,57.21c-3.23-.08-8.62,0-13.75.3l-2.73,11.57c2.86,1.91,5.68,3.64,7.58,4.66,5.45,2.9,43.59,20.16,56.12,24.7,2.79,1,11.71,3.54,25.44,7.31h3.13Z" style="stroke: #000;stroke-miterlimit: 10;stroke-width: 2px"/>
  <path d="M227.16,59.93c0,1.42,5.45,5.6,10.76,9.15l2.73-11.57C233.67,57.91,227.16,58.68,227.16,59.93Z" style="fill: #fff;stroke: #000;stroke-miterlimit: 10;stroke-width: 2px"/>
  <path d="M305.83,105.73a26.18,26.18,0,0,1,14.25-10.35,41.31,41.31,0,0,1,10.14-1.16l0,11.53Z" style="fill: #b3b3b3;stroke: #000;stroke-miterlimit: 10;stroke-width: 2px"/>
  <path d="M330.19,102a18.25,18.25,0,0,0-14,3.77l14,0Z" style="fill: #d9d9d9;stroke: #000;stroke-linecap: round;stroke-linejoin: round;stroke-width: 2px"/>
  <line x1="103.04" y1="83.91" x2="304.74" y2="83.91" style="stroke: #000;stroke-miterlimit: 10;stroke-width: 3px"/>
  <text transform="translate(104.69 74.46)" style="font-size: 40.79705810546875px;font-family: ComicSansMS, Comic Sans MS">Ben Fr</text>
  <path d="M80.9,1.5c-5.73,6.12-17,10.4-29.6,10.4S27.43,7.62,21.7,1.5H11.94C17.48,12.31,32.8,19.9,51.3,19.9S85.11,12.31,90.66,1.5Z"/>
</svg>
