<svg xmlns="http://www.w3.org/2000/svg" viewBox="0 0 512 512"><title>remove-card</title><rect width="512" height="512" style="fill:none"/><polygon points="418.35 327.32 470.73 327.32 470.73 270.62 497.6 270.62 444.54 203.27 391.48 270.62 418.35 270.62 418.35 327.32" style="fill:#9959a4"/><path d="M470.73,332.44H418.35a5.13,5.13,0,0,1-5.13-5.12V275.75H391.48a5.12,5.12,0,0,1-4-8.3l53.06-67.35a5.12,5.12,0,0,1,4-1.95h0a5.12,5.12,0,0,1,4,1.95l53.06,67.35a5.13,5.13,0,0,1-4,8.3H475.85v51.57A5.12,5.12,0,0,1,470.73,332.44ZM423.47,322.2h42.14V270.62a5.12,5.12,0,0,1,5.12-5.12H487l-42.5-53.95L402,265.5h16.31a5.12,5.12,0,0,1,5.12,5.12Z" style="fill:#9959a4"/><path d="M254,512c-39.11,0-75.95-4.74-103.73-13.34-30.06-9.31-45.94-22-45.94-36.55V404H403.67v58.11c0,14.6-15.89,27.24-45.95,36.55C330,507.26,293.11,512,254,512ZM114.57,462.32c.21,9.19,14.66,19.1,38.73,26.55,26.83,8.31,62.59,12.89,100.7,12.89s73.88-4.58,100.7-12.89c24.08-7.45,38.53-17.37,38.73-26.56V414.24H114.57Z"/><ellipse cx="254" cy="403.79" rx="144.55" ry="44.76" style="fill:#fff"/><path d="M254,453.68c-39.11,0-75.95-4.74-103.73-13.34-30.06-9.31-45.94-21.94-45.94-36.54s15.88-27.24,45.94-36.55c27.78-8.6,64.62-13.34,103.73-13.34s75.95,4.74,103.73,13.34c30.06,9.31,45.95,21.94,45.95,36.55S387.79,431,357.73,440.34C330,448.94,293.11,453.68,254,453.68Zm0-89.53c-38.11,0-73.87,4.58-100.7,12.88-24.25,7.52-38.73,17.52-38.73,26.77S129.05,423,153.3,430.55c26.83,8.31,62.59,12.89,100.7,12.89s73.88-4.58,100.7-12.89C379,423,393.43,413,393.43,403.8S379,384.55,354.7,377C327.88,368.73,292.11,364.15,254,364.15Z"/><path d="M248.35,98.36a5.11,5.11,0,0,1-3.7-8.65C247.2,87,307.3,24,315.53,15.81,324.39,7,341.53,0,354.55,0H506.88a5.12,5.12,0,1,1,0,10.24H354.55c-9.16,0-24.12,5.15-31.78,12.81-8.15,8.15-70.09,73.07-70.71,73.73A5.14,5.14,0,0,1,248.35,98.36Z"/><rect x="163.69" y="76.63" width="180.63" height="251.14" rx="12.82" ry="12.82" style="fill:#fff"/><path d="M331.5,332.89h-155A18,18,0,0,1,158.57,315V89.45a18,18,0,0,1,17.94-17.94h155a18,18,0,0,1,17.94,17.94V315A18,18,0,0,1,331.5,332.89Zm-155-251.14a7.7,7.7,0,0,0-7.7,7.7V315a7.7,7.7,0,0,0,7.69,7.7h155a7.7,7.7,0,0,0,7.69-7.7V89.45a7.7,7.7,0,0,0-7.69-7.7Z"/><path d="M356.39,57.83s-61.11,64.27-77.53,81c-21.47,21.84,11.67,57.24,32.38,38.41,25.81-23.46,45.95-43.68,45.95-43.68,43.3,22.59,86.48-.66,96.88-44.93" style="fill:#fff"/><path d="M298.05,187.68a24.82,24.82,0,0,1-3.81-.29,31.71,31.71,0,0,1-17.86-9.66c-10.55-11-14.35-29.11-1.18-42.51,16.21-16.49,76.87-80.28,77.48-80.92a5.12,5.12,0,1,1,7.42,7.06c-.61.64-61.32,64.49-77.59,81-9,9.15-5.65,21,1.26,28.23,6.29,6.54,16.16,10,24,2.8,25.42-23.11,45.56-43.3,45.76-43.51l2.65-2.67,3.34,1.75c18.62,9.71,38.15,10.81,55,3.1,17.13-7.84,29.72-24.12,34.55-44.66a5.12,5.12,0,1,1,10,2.35c-5.56,23.64-20.23,42.45-40.26,51.63-18.74,8.58-40.13,8-60.6-1.66C351.91,146,335,162.59,314.69,181A24.37,24.37,0,0,1,298.05,187.68Z"/><path d="M242.13,293.89H210.75a12.13,12.13,0,0,1-12.12-12.11V232.63a12.13,12.13,0,0,1,12.12-12.11h31.38a12.12,12.12,0,0,1,12.11,12.11v49.15A12.12,12.12,0,0,1,242.13,293.89Zm-31.38-63.13a1.89,1.89,0,0,0-1.87,1.87v49.15a1.89,1.89,0,0,0,1.87,1.87h31.38a1.9,1.9,0,0,0,1.87-1.87V232.63a1.9,1.9,0,0,0-1.87-1.87Z"/><path d="M357.26,410H150.74a5.12,5.12,0,1,1,0-10.24H357.26a5.12,5.12,0,0,1,0,10.24Z"/></svg>