<svg xmlns="http://www.w3.org/2000/svg" viewBox="0 0 331.69 178.63">
  <title>instructions-fill-oval</title>
  <path d="M241.28,67.47c-5.45,3.82-15.34,12.61-56.21,4.07s-33.69-44.72-25.34-44.39c11.18.44,67.93.55,78.64-1.27s38.43-5.37,57.5-.83,25.74,11.26,34.05,17.25v62" style="fill: #b3b3b3;stroke: #000;stroke-miterlimit: 10;stroke-width: 2px"/>
  <path d="M330.06,115l-17.85-3.54L149.11,62.82c-4,18.89-5.4,40.41,42.87,42.32,32.14,1.27,42.41,15.08,48.58,12.9,5.63,6.17,89.63,42,89.63,42Z" style="fill: #b3b3b3;stroke: #000;stroke-miterlimit: 10;stroke-width: 2px"/>
  <ellipse cx="64.3" cy="45.3" rx="41.6" ry="27.43"/>
  <path d="M330.19,84.53s-150-36.24-162.73-38.42-46.68-4.72-54.31-4.9c-3.23-.08-8.62,0-13.76.3L96.66,53.08c2.86,1.91,5.68,3.64,7.59,4.66,5.45,2.9,43.59,20.16,56.12,24.7s169.69,45.81,169.69,45.81Z" style="stroke: #000;stroke-miterlimit: 10;stroke-width: 2px"/>
  <path d="M85.91,43.93c0,1.42,5.44,5.6,10.75,9.15l2.73-11.57C92.42,41.91,85.91,42.68,85.91,43.93Z" style="fill: #fff;stroke: #000;stroke-miterlimit: 10;stroke-width: 2px"/>
  <path d="M258.45,120.65c24.78,9.87,69.06,32.56,71.56,34.79l.18,21.69-107-.31c-45.67-30.88-63.15-57.43-64.08-68.4-1.14-13.35,8.84-26.2,19.74-29s31.8-.64,47.34,8.63,31.45,24.78,36.94,43.84" style="fill: #b3b3b3;stroke: #000;stroke-miterlimit: 10;stroke-width: 2px"/>
  <path d="M200.64,142.57c-15.92-3.92-43-30.79-30.51-47.77C181,80.12,199.8,83,223.76,107.94,203.56,114.14,199.47,138,200.64,142.57Z" style="fill: #d9d9d9;stroke: #000;stroke-linecap: round;stroke-linejoin: round;stroke-width: 2px"/>
  <path d="M236.75,52.33s-8.8,14.56-16.9,13.9" style="fill: none;stroke: #000;stroke-miterlimit: 10;stroke-width: 2px"/>
  <path d="M291.14,55.56s-4.72,16.35-12.71,17.8" style="fill: none;stroke: #000;stroke-miterlimit: 10;stroke-width: 2px"/>
  <rect x="1.5" y="1.5" width="328.69" height="175.63" style="fill: none;stroke: #000;stroke-miterlimit: 10;stroke-width: 3px"/>
  <path d="M64.3,161.17c-17.08,0-31.44,6.46-37.91,16h11c6.19-4.79,16-8,26.91-8s20.72,3.17,26.9,8h11C95.73,167.63,81.37,161.17,64.3,161.17Z"/>
  <path d="M64.3,144.45c-23.33,0-41.6-12-41.6-27.43S41,89.59,64.3,89.59s41.59,12,41.59,27.43S87.62,144.45,64.3,144.45Zm0-46.86c-18.21,0-33.6,8.9-33.6,19.43s15.39,19.43,33.6,19.43,33.59-8.9,33.59-19.43S82.51,97.59,64.3,97.59Z"/>
</svg>
