<svg xmlns="http://www.w3.org/2000/svg" viewBox="0 0 2083 2721">
  <defs/>
  <path d="M428.37 0c3.24 5.27 6.81 10.05 9.32 15.33A262.91 262.91 0 00491 90.56c15.75 15.56 26.6 34.66 35 55.16 7.1 17.42 5.29 14.27 21.67 11.5 19.58-3.3 20.34-3.44 21.84-22.8 2.92-37.69 1.66-75-13-110.77-4-9.68.07-15.75 10.72-16 3.91-.07 7.9.89 11.75 1.82 24.27 5.82 45.54 18.23 66.85 30.56a240.64 240.64 0 0143.25 31.77 160.63 160.63 0 0115.39 16.94c3.47 4.3 7.32 6.4 12.85 5.71q14.34-1.78 28.72-3.22c32.68-3.23 65.32-7.23 98.07-9.48q55.15-3.84 110.48-5.16c33.9-.84 67.85-.31 101.78-.13 21 .12 41.9 1 62.86 1q47.38.14 94.55 4.65c36 3.49 72.12 6.58 108.14 10.33 25.4 2.65 50.74 6 76.07 9.31 7.22.95 12.41.1 18.39-5.61 33.65-32.12 73.15-54.94 117-70.07a222.62 222.62 0 0129.79-7.8c8.42-1.65 13.06 2.61 13.72 11.24a34.55 34.55 0 01-.32 7c-3.58 28-7.42 55.89-10.7 83.89-.88 7.53-.13 15.25-.13 24.18 5.11 1 10.22 2.8 15.21 2.52 2.93-.17 6.26-3.21 8.39-5.8 9.29-11.27 17.65-23.34 27.38-34.19 16.87-18.8 34.18-37.72 56.6-49.74 18.33-9.82 38.05-17.41 57.79-24.09a45.14 45.14 0 0130.59.41c-.61 5.18-.66 10.43-1.91 15.38-9 35.73-19 71.23-27.21 107.14-3.67 16-4.15 32.86-5.51 49.36a14.54 14.54 0 003.38 9.81c27 30.33 46.5 65.45 64.45 101.53 7.87 15.84 13.19 32.55 17.9 49.59 6.54 23.67 14.17 47 21.32 70.53.46 1.52.83 3.07 1.35 5l-13.8 5.33c.86 2.45 1.31 4.66 2.35 6.55 10.83 19.64 17.2 40.93 23.34 62.34 5.76 20.11 10.71 40.56 18.12 60.06a1527.33 1527.33 0 0061.61 140.3c6.67 13.33 15 25.81 22.35 38.83 4.4 7.82 11.21 12.36 19.48 14.31 16.56 3.92 27.69 13.48 33.87 29.34 3 7.72 6.87 15.12 10.54 22.57 2.75 5.59 4.21 11.1 1.36 17.13-2.55 5.38-1.37 10.43 2.2 14.93 7 8.82 13.89 17.75 21.25 26.27 6.94 8.06 14.48 15.59 21.63 23.46 9.81 10.8 15.49 23.67 20 37.48 4.21 13 4.41 25.52-.16 38.06-8.62 23.68-17.44 47.28-26.64 70.73-2.89 7.37-7 14.31-11 21.16-7.74 13.12-16 25.95-23.73 39.07-10.89 18.41-27.42 30.62-45.32 41.11-32.41 19-67.74 28.7-105.05 31.6-11.58-4-17.65 3.34-23.86 11.14-7.23 9.09-15.78 17.21-22.25 26.78-7.31 10.81-8 8.86-.06 20.9 8.94 13.6 18.28 27 27.22 40.56a869 869 0 0168.18 126.16 910 910 0 0161.17 196.44c6.2 32.22 10.36 64.77 13.5 97.52a893.48 893.48 0 013.32 114.59c-1 30.47-4.25 60.92-7.56 91.27-5.66 52-17.45 102.71-32.57 152.67a957.64 957.64 0 01-92.61 207.93 828.16 828.16 0 01-60.56 87.59 952.27 952.27 0 01-86.84 96c-25 24-50.89 46.74-78.6 67.41-21.32 15.89-42.94 31.43-65 46.2-31 20.69-63.72 38.35-96.82 55.46-48.34 25-98.85 44.46-150.71 60.21a872.49 872.49 0 01-133.17 29.34 1012.26 1012.26 0 01-126 10.11c-34.23.48-68.28-1.08-102.37-3.94a911.2 911.2 0 01-107.43-15.61 940.58 940.58 0 01-117.28-31.93c-37.1-12.79-73.54-27.26-108.67-44.69-51.56-25.59-101.63-53.92-147.9-88.36-26.9-20-53.54-40.51-79-62.32-30-25.75-57.68-54.1-84-83.71a908.5 908.5 0 01-67.62-86.2 873.29 873.29 0 01-56.83-93.69 991.6 991.6 0 01-47.13-103.29 969.29 969.29 0 01-35.22-111.91 917.78 917.78 0 01-22.49-129.35 855.42 855.42 0 01-4.5-94.55 1018.07 1018.07 0 019.69-132c9.17-66.43 26.07-130.82 49.3-193.55a838.32 838.32 0 0177.27-157.08c3.88-6.12 4.23-10.83.58-17.07-5.52-9.44-11.23-19.06-14.77-29.32-6-17.52-10.48-35.6-15.56-53.45-.54-1.92-.76-3.92-1.23-5.85-2.66-11.11-5.66-13.45-17.06-14.2-14.56-.95-29.05-1.77-43.38-5.52-19.29-5.06-34.44-15.18-45.67-31.59-6-8.77-11.79-17.83-18.9-25.65-9.59-10.53-20.31-20.06-30.65-29.89-13.29-12.65-22.21-28.23-29-44.93-5.58-13.81-5.92-28.38-2.79-43.09 4.92-23.11 13.63-44.36 29.13-62.49a33.34 33.34 0 014.87-5c12.47-9.47 20.58-22.35 28.31-35.6a17.72 17.72 0 001.48-14.46c-2.32-8-.6-15.37 3.46-22 7.28-11.88 15.14-23.41 23-34.93 3.86-5.65 9-9.78 16.2-10.5 6.58-.66 10.28-4.87 13.88-10 24.36-34.72 42.36-73 60.76-110.89 14.2-29.26 27.27-59.1 40.08-89 5.61-13.09 9.43-27 13.86-40.54 3.29-10.1 3.27-20.42-.9-30.13-19.94-46.36-14.23-92.35 2.08-138 7.32-20.48 20.3-38.05 32-56.23 4.47-7 9.44-13.75 13-21.18 8.69-18.1 21.21-32.78 36.95-45.05 9.7-7.57 18.89-15.79 28.26-23.77 4-3.39 5.38-7.57 5.74-13 1.68-25.48 3.08-51 6.44-76.33 4.14-31.2 14.58-60.62 30-88.17q12.14-21.67 24-43.49a54.23 54.23 0 003.65-9.2c1.3-4.24 4.06-6.67 10.08-8.24zm1522.7 1775.39c-.78-12.8-1.8-35.69-3.69-58.51-1.86-22.46-3.68-45-7.2-67.24-4.08-25.85-9.43-51.53-15.22-77.06a787.68 787.68 0 00-46-139.69c-13-30.05-28.33-59.19-43.92-88-19.33-35.73-42.27-69.28-66.82-101.59-33.18-43.66-69.58-84.55-110.66-121-21.32-18.94-42.53-38.11-65-55.6a901.44 901.44 0 00-99.25-66.56 886.11 886.11 0 00-99.39-50.44 987.77 987.77 0 00-107.65-38.51c-48-14.17-96.86-23.28-146.4-29.1-21.74-2.55-43.66-4.1-65.54-4.86-25.84-.91-51.76-1.25-77.6-.43A803 803 0 00887.82 888c-30.09 5.1-59.91 11.32-89.29 19.69-29.06 8.28-58 16.65-85.93 28.5-21.37 9.09-43.46 16.66-64.28 26.85a987.83 987.83 0 00-135.49 79.82 953.31 953.31 0 00-236.42 241.34c-31.94 47.26-58.27 97.37-80.22 149.89-23.27 55.69-40 113.33-51.32 172.56-7.3 38.16-12.44 76.66-14 115.48-.89 22.82-3.09 45.63-1 68.59 2.14 24.12 1.77 48.5 4.5 72.54 3.29 29 7.9 57.81 13.38 86.44 6.55 34.24 16.23 67.77 27.18 100.86A859.12 859.12 0 00216.3 2153a904.94 904.94 0 0098.7 161 888.58 888.58 0 0099 108.88c42.44 39.42 88.35 74.25 137.21 105.41 43.52 27.75 89.1 51.45 136.27 72.08a860.38 860.38 0 00126.87 44.07c36 9.44 72.36 17.25 109.29 21.94 24.31 3.09 48.7 5.94 73.15 7.31 24.83 1.38 49.77 1.22 74.66 1 17.59-.17 35.22-1.07 52.75-2.56 38.3-3.25 76.41-8.22 113.82-17.28 29.31-7.11 58.8-13.86 87.54-22.88a848.84 848.84 0 00111.7-44.5c38.16-18.23 75.15-38.46 110.47-61.59a925.9 925.9 0 00110-84.11 866.65 866.65 0 00113.52-122.95 878.34 878.34 0 00115.32-204 908.07 908.07 0 0047.67-161.14c11.11-55.51 15.94-111.68 16.83-178.29zM661.68 462.23c0-23.75-2-30.46-16-44.41-8.18-8.16-17.08-16.05-26.88-22.07C591 378.67 561.7 364.72 530 356c-7.62-2.08-13.26-1-19.35 3.54-11.15 8.33-22.09 17.25-34.23 23.88-31.74 17.33-64.09 33.56-96.19 50.24-8 4.14-16.09 8-23.83 12.5-38.55 22.52-62.52 56.93-77.92 97.76-12.65 33.53-23.62 67.68-36.38 101.16-8.85 23.23-18.76 46.13-29.52 68.55-11.07 23-23.76 45.31-35.69 67.94-3.88 7.35-7.8 14.69-11.32 22.2-2.59 5.52-1.07 8.06 4.79 9.1 1.62.29 3.34 0 5 .23 14.79 2.13 29.77 3.42 44.3 6.7a242.79 242.79 0 0164 24.33c29.92 16.45 57.42 35.69 79.61 62 6.57 7.79 11.49 7.86 17.6-.15 6.84-9 13.06-18.41 19.63-27.59 41.94-58.59 83.78-117.24 123.35-177.47 16.62-25.31 33.64-50.34 50.24-75.66 13.46-20.54 27-41 39.69-62.07 12.3-20.47 23.59-41.57 35.14-62.49 6.97-12.7 16.24-24.79 12.76-38.47zM1909 768.32c-.9-2.62-1-3.33-1.35-3.86-16.73-25.33-28.92-52.94-40.54-80.83-9.18-22-18.42-44-27.47-66.11-6.42-15.65-13-31.24-18.72-47.16-5.81-16.27-10.42-33-15.84-49.35-3.32-10.05-6.52-20.23-11-29.79a324.23 324.23 0 00-19.23-35.88c-10.47-16.64-22.6-32-40.43-41.65-12.85-6.93-25.5-14.32-38.77-20.33-32.92-14.91-65.47-30.73-99.79-42.43-8.35-2.84-16.34-3.36-24.27-.08-12.56 5.2-25.26 10.28-37.25 16.62-28.18 14.9-56.09 30.31-83.86 45.95-11.67 6.57-21.09 16-28.91 26.92-3.26 4.57-3.37 9.17-.65 13.94 7.24 12.7 14.26 25.53 21.83 38 10.51 17.33 21.49 34.37 32.18 51.59 2.85 4.6 6.39 8.24 11.19 10.27 4.54-2.57 4.16-5.4 1-8.15-3.56-3.12-4-6.4-1.93-10.65 2.45-5.07 5.9-8.05 11.71-7.19 9.3 1.39 15.15-3.16 19.43-10.78 1.3-2.32 2.92-4.45 4.31-6.71 9.73-15.82 28.15-22.25 48.91-14.07 13.55 5.34 27.42 9.89 41.2 14.62 6.91 2.37 14 4.27 20.92 6.56 11 3.63 21.68 14.87 22.14 26.64.55 13.83 3.2 27.56 4.86 41.35.83 6.9 2.07 13.83 2.08 20.75 0 13.46-12.66 22.11-24.69 16.53-8.34-3.87-15.91-9.4-23.83-14.17s-11.25-3.59-13.24 5.54c-1.76 8-2.49 16.31-3.33 24.52-.43 4.3-1.25 8.14-6.14 8.93-5 .82-5.54-3.35-6.89-6.79-4.23-10.75-10.51-20.39-20.88-25.75-11-5.7-22.18-10.7-28-22.62a2.94 2.94 0 00-.69-.72c-2.61-2.34-6.19-1.65-7 1.65a21.76 21.76 0 00-.27 6.94 90.55 90.55 0 0015.45 43.52q37.13 55.5 74.94 110.56c23.33 34 47.06 67.64 70.68 101.4 2 2.88 4.59 5.37 7.67 8.93 4.18-4.23 7.75-7.57 11-11.21 6.41-7.18 12.06-15.16 19.05-21.7 25.83-24.16 55.33-42.54 89.81-51.27 28.57-7.24 57.42-14.21 87.45-10.26 2.16.3 4.52-1.33 7.16-2.22zm-954 68.12a35.92 35.92 0 002.86-5c6.82-17.92 8.13-36.92 9.36-55.68 1.69-25.85 2-51.81 2.09-77.73a273 273 0 00-2.81-36.65c-2.35-17.72-5.6-35.32-8.31-53a41.21 41.21 0 01-.42-10.91c.22-1.84 2.16-4.72 3.56-4.87 1.65-.17 4 1.77 5.22 3.41s1.74 4.24 2.44 6.45a312.42 312.42 0 0113.4 68.25c2.42 29.72 5.12 59.42 6.93 89.18 1.36 22.21 1.47 44.49 2.19 66.74.06 2 0 4.17.83 5.89s2.41 3.48 3.92 3.72a5.85 5.85 0 004.89-2.26 21.16 21.16 0 002.75-8.43c1.35-14.52 3.16-29.05 3.37-43.6.3-19.92-.77-39.85-1.11-59.77-.27-15.64-1.38-31.11-5.85-46.25-1-3.45-.15-7.45-.15-12 5.53 3.84 6.29 4.52 7.23 7.67 6.24 21.06 10.73 42.45 12.07 64.43 1.61 26.44 2.32 53 8.17 79 .84 3.73 1 7.86 6.87 10.11 1.1-4.21 2.56-7.84 2.94-11.58 1.51-15.18 2.92-30.37 3.92-45.58.8-12.27-.45-24.83 1.69-36.81 4.14-23.18 10.11-46 15.14-69.06 2.61-12 5.6-23.94 7.08-36.08 3.44-28.11-6.3-53.72-17.14-78.78-9.44-21.86-25.17-39.76-39.11-58.72-10.81-14.69-22.23-28.93-33.25-43.48-4.2-5.55-7.52-11.83-12.11-17-13.66-15.42-27.25-30.95-41.78-45.54-25.79-25.9-51.73-51.72-78.61-76.48-20.76-19.11-43.06-36.54-68.31-49.67-8.22-4.28-16.42-8.64-24.83-12.52-5.86-2.7-8.72-.91-9.74 5.25-.22 1.31-.15 2.66-.24 4-1.56 24.23-5 48.12-12.76 71.25-5.4 16.06-3.74 30.69 9.35 42.88 2.89 2.7 4.8 6.44 7.67 9.16 8.93 8.46 10.49 19.38 8.86 30.39-1.94 13.1.65 25 6 36.62 4.94 10.83 8.23 22.24 6.07 33.88-2.61 14.08-1 27.94.78 41.57 2.66 20 7.26 39.77 11.32 59.57 4.65 22.74 9.77 45.38 10.88 68.7.37 7.87 1.7 15.73 6.79 23.38 2-1.82 4.29-3 5-4.76 2.32-5.8 4.94-11.7 5.84-17.79 1.88-12.78 3-25.69 3.94-38.58 1.46-19.84 2.71-39.7 3.63-59.58.29-6.24-.77-12.55-1.19-18.83-.94-14.16-.78-28.5-3-42.45-6.13-38.34-13.74-76.4-27.47-112.94-1.21-3.21-1.51-6.76-2.73-12.48 4.93 1.81 8.31 2.19 10.41 4 2.65 2.32 4.56 5.66 6.25 8.85 12.12 22.82 18 47.8 24.28 72.54 9.32 36.5 10.67 74.07 13.41 111.39 1.46 19.87 1.51 39.83 2.13 59.76.34 10.94.05 21.91.88 32.81 1.62 21.48 3.69 42.94 5.85 64.37 1.16 11.5 1.48 23.22 7.11 33.85 1.61 3 3 5.84 8.35 5.64 1.29-8.8 3-17.44 3.73-26.16 1.61-19.49 3.52-39 3.87-58.56.49-27.52 3.28-54.91 1.26-82.61C864 553.76 859.75 519 850 485a65.8 65.8 0 01-2.21-12.71c-.14-1.65.88-4.38 2.13-4.93a8 8 0 016.37.19c1.74 1 3.13 3.39 3.73 5.45 4 13.65 8.17 27.29 11.59 41.1 9.87 39.87 12.78 80.57 13.88 121.45.35 13 .07 26 .9 38.9 1.35 21.15 3.73 42.24 5 63.4 1.87 30.83 4.64 61.51 12.27 91.54a36.37 36.37 0 004.3 10c2.25 3.64 5.52 3.31 7.71-.49a11.75 11.75 0 001.64-4.64c1-11.2 2.16-22.41 2.77-33.64.86-15.91.84-31.88 2-47.77 2.38-32.13 4.6-64.24 2.06-96.47-.55-7-.16-14-.92-20.91a418.09 418.09 0 00-14.62-74.12c-2-6.66-3-13.62-4.47-20.43-.9-4.11.27-7.38 4.26-8.93 4.44-1.71 6.8 1.23 8.59 4.7a28.11 28.11 0 011.82 4.64c3.76 12.39 7.61 24.75 11.19 37.19 8.89 30.81 11.37 62.61 13.07 94.35 1.9 35.49 1.82 71.08 3.15 106.6.61 16.21 2.49 32.38 3.86 48.57.32 3.25.72 6.59 4.93 8.4zm691 160.41c.63-3.66 1.15-5.75 1.33-7.87.85-10.22 1-20.55 2.58-30.66a148 148 0 016.53-25c2.82-8.27.44-15-4.39-21.39-11.68-15.3-23.74-30.31-35.22-45.76-23-31-46.27-61.75-68.43-93.31-30.12-42.9-59.88-86.09-88.74-129.85-29.61-44.9-57.92-90.66-86.91-136-2.23-3.49-5.31-6.44-8.65-10.42-3.63 4-7 6.8-9.25 10.34-10.19 16.35-20.76 32.52-29.87 49.47-20.31 37.79-31.75 77.89-27.63 121.31 1.22 12.84 2.58 25.78 5.39 38.33 6.23 27.88 18.45 53.25 34.75 76.65 32.38 46.5 72.62 83.38 126 104.91 22.13 8.93 44.19 18.53 65 30.13 36.55 20.36 72.12 42.5 108.12 63.88 2.65 1.62 5.44 3.07 9.39 5.24zM748.46 623.79c-1.55-16.5-2.06-33.18-4.93-49.44-2.82-15.93-7.6-31.57-12.37-47.07-2.82-9.18-11.32-11.33-17.67-4.73A106.68 106.68 0 00699 541.31c-10.3 17-19.43 34.76-30 51.6-20.86 33.21-42.2 66.12-63.67 98.94q-35.19 53.79-71 107.17c-19 28.07-38.53 55.73-58 83.44-10.9 15.49-22 30.85-33.41 46-8.59 11.37-18.07 22.07-26.64 33.46-2.39 3.17-3.53 7.63-4.22 11.68-1.16 6.82-1.34 13.81-2.26 20.69-.39 2.93-2 5.71-2.29 8.63-.21 2.07.22 5 1.56 6.19s4.16 1 6.2.58c1.87-.35 3.54-1.76 5.33-2.64 17.56-8.72 34.77-18.26 52.77-26 43.33-18.55 86.75-36.77 127.83-60.19 15.9-9 29.12-20.68 41.43-33.91 24.57-26.4 41-58 56.59-89.87 17.7-36.09 31.7-73.74 40.25-113.23 4.21-19.79 8.79-39.52 8.99-60.06zM1743 1100.6c15.38 15.54 33.35 25.4 51.46 34.81 15.85 8.24 33.53 10.29 50.95 13a108.31 108.31 0 0057.73-6.47c15.71-6.3 31.48-12.68 46.54-20.37 16.32-8.35 31.21-19.21 41.64-34.7a260.53 260.53 0 0018.4-31.86c9.84-20.29 19.08-40.89 28-61.6a104 104 0 006.69-22.91c2.14-12.12-2.81-22.87-8.93-32.86a141.07 141.07 0 00-24.5-29.91c-14.48-13.42-25.41-29.44-33.72-47.39-3.6-7.8-8.58-15.17-17.18-18.35-11.79-4.34-23.67-8.51-35.73-12-7.26-2.1-15-4.15-22.43-3.76a227.63 227.63 0 00-61.46 11.77c-26.87 9.12-50.79 23.16-70.62 43.52-12.15 12.48-22.81 26.06-20.33 45.36.38 3-.18 6 .09 9 1.21 13.11-4.77 23-13.9 31.48-1.46 1.36-3.06 2.58-4.47 4-5.31 5.34-5.79 8.88-1.42 14.82 4.14 5.6 8.76 10.85 13 16.36 7.38 9.55 13.52 19.77 16 31.78 1.68 8.12 2.64 16.42 4.87 24.38 6.11 21.88 18.17 39.09 40.59 46.65 13.16 4.44 26.63 7.51 40.88 6.66a31.63 31.63 0 0016.48-5.68c6.54-4.32 14-7.25 20.72-11.31 4.44-2.68 9.19-5.6 12.29-9.59 10.61-13.67 19.42-28.38 24.76-45.11 2.81-8.8 7.06-17.15 11-25.57 1.45-3.12 2.83-7 8.41-6.41 2.45 11.1-9.37 20.71-3.48 33.52 3.31-3.35 6.57-5.68 8.52-8.82 4.72-7.61 8.83-15.59 13.15-23.44 1.12-2 1.73-4.48 3.24-6.13s3.65-2.18 5.52-3.23c.63 2 1.88 4 1.74 5.87-.23 3.27-1.66 6.45-2 9.73-.59 5.67-3.75 11.21-1.35 18 9.67-5.42 8.35-15.95 12.53-23.39a188.15 188.15 0 0114.55-22.83c1.36.84 2.42 1.25 2.38 1.51-1.72 12.19-3.53 24.37-5.41 37.13 6 .07 7.83-4.27 9.21-8 2.9-7.73 5.22-15.7 7.46-23.66 1.3-4.65 3.35-8.44 7.91-10.87 5.85 3 4 8 3.46 12.32-.8 6.25-2.77 12.37-3.27 18.62-2.81 35.17-22.53 60.67-48.7 81.21-24.26 19.05-52.78 30.31-82.76 37.86-31.77 8-61.16 2.87-89-13.92-9.66-5.83-19.66-11.12-29.59-16.51a26.93 26.93 0 00-19.92-2.71zm-488.6-531.79c6.77-.94 5.41-5 5.48-7.93.52-23.27.08-46.59 1.62-69.79 1.43-21.43 4.43-42.81 7.7-64.07 2.69-17.44 9.84-33.65 15.62-50.27 9.47-27.2 21.93-52.75 39.27-75.56 10-13.16 22.27-24.58 33.4-36.89a63.61 63.61 0 006.32-8.75c2.52-4 1-6.87-3.55-9.23-2.79 1.61-6.14 3-8.88 5.21-18.41 14.68-37 29.18-54.94 44.39-30.25 25.59-57.8 54-84.34 83.36-22.92 25.32-44.33 52-66.53 78-20.82 24.36-38.88 50.5-52.71 79.52-8.14 17.08-13 34.38-11.23 53.83a143.22 143.22 0 01-1.93 40.66c-5 25.32-11.8 50.32-18.46 75.29-5.55 20.83-6.32 42-5.41 63.22.85 19.85 2.68 39.67 4.13 59.49a21.57 21.57 0 00.93 4.84c1.52 4.93 6.19 8.51 10.93 8.52 3.87 0 8.41-3.92 9.44-8.92a39.93 39.93 0 00.52-9.9c-.37-7.94-1.65-15.89-1.41-23.8.71-22.87 2.85-45.73 2.79-68.58-.06-23.79 5-46.72 8.85-69.88.78-4.62 3-9 4.74-14.19 4.54 5.14 5.35 7.84 4.4 13.34-4.2 24.27-5.49 48.83-5.57 73.34-.08 25.9 1.48 51.8 2.55 77.69a39 39 0 002.45 11.62c1.45 4 4.7 4.47 7.91 1.67a11.68 11.68 0 003-3.88c6-13.77 11.4-27.71 10.26-43.14-1.3-17.53-3-35-4.19-52.57-1.84-26.09-6-52.15-2.12-78.37 2-13.43 4.29-26.81 6.78-40.15.54-2.86.83-6.79 6.5-7.35.78 3.18 2.21 6.26 2.14 9.29a193 193 0 01-1.74 24.76c-2.78 18-.68 36 1.61 53.57 4.41 33.84 10.89 67.4 16.61 101.06.4 2.3 1.69 4.46 2.56 6.67 6.08-1.77 7.43-6 8.81-10.07 4.79-14.05 5.59-28.61 4.43-43.21-2.14-27.06-5.56-54-7-81.13-1.72-32.84-2.55-65.82 3.91-98.36 2.31-11.64 4-23.65 10.64-33.94 1.24-1.93 3.72-3.05 5.62-4.55.9 2.61 1.93 5.18 2.61 7.84.22.82-.45 1.9-.79 2.84-8 22.54-8.4 46.17-7.53 69.47s4.57 46.8 7.5 70.13c2 15.78 4.76 31.45 7.19 47.16.67 4.32 1.16 8.81 7.75 9.38 3.87-4.58 4.76-10.18 4.93-16.31.51-18.25 1.48-36.5 2-54.76.66-20.58 1.34-41.16 1.54-61.75.2-20.88-3.33-41.71-.36-62.64 2.67-18.8 5.73-37.43 14.74-54.47.92-1.75 2.57-3.13 3.88-4.68l2.16.72c-.43 4.76-.26 9.66-1.4 14.25a251.65 251.65 0 00-6.76 77c1.16 18.19 2.39 36.37 3.46 54.57 1 16.23 1.5 32.48 2.71 48.69.53 7 .59 14.59 8.23 20.43a66.12 66.12 0 004-6.73c9-20.53 9.84-42.26 6.28-63.7-5.13-30.91-4.92-62.1-7.1-93.15-1.75-25 3.75-49.53 8.79-74 3.89-18.85 7.48-37.73 17-54.83 1.75-3.16 2.2-7.12 7.17-6.32 1.68 7.78 1.61 7.76-.55 14.65a333.11 333.11 0 00-14.37 72.07c-1.38 16.48-4 33 .54 49.43.86 3.13.71 6.54 1.06 9.82 1.23 9.84 2.29 19.63 3.41 30.03zM137.69 1019.1c5.92 1.85 7 6.34 7.8 10.44 4.44 22.19 18.87 37 36.79 48.6 18.49 11.93 38.93 19.95 60.23 25.52 18.75 4.91 32.47-.38 43.79-16.61 2.09-3 4.16-6 6.11-9.06 7.65-12.11 15.67-23.78 27.14-32.85a64.28 64.28 0 0013.11-14.69c5.43-8.17 4.8-10.45-2-17.19-2.37-2.33-5.08-4.32-7.35-6.74-8.77-9.37-13.46-20.2-11.78-33.34 1.52-11.8 1.23-23.22-7.7-32.65-20-21.07-40.48-41.33-67.78-53-12.82-5.5-25.68-10.76-39.85-11.56-23.47-1.33-46.51 1.21-68.52 9.55-21.11 8-40.46 18.17-49.92 41.1A101.21 101.21 0 0154 960.76c-8 7.73-12.17 18-13.22 29.32-2.45 26.38 8.11 47.66 25.36 66.53 6.48 7.08 12.45 14.61 18.7 21.89 9.72 11.34 19.07 23 29.43 33.77 4.43 4.58 10.66 8 16.7 10.32 15 5.73 30.9 7.43 46.74 9.16 18.15 2 36.32 3.7 54.43 6 11.24 1.4 22.5 3.39 33.73 1.09 24.68-5.06 45.61-17.68 64.8-33.49 2-1.65 4.43-3.81 4.94-6.12 2.43-11 4.47-22 6.11-33.13.29-2-1.49-5.35-3.23-6.19-3.3-1.6-5.44 1.05-6.71 4.08q-1.17 2.74-2.35 5.49c-4.13 9.53-9.43 18.3-17.21 25.31-9.62 8.67-19 17.69-29.21 25.57a30.82 30.82 0 01-16.36 6.2c-14.83.68-29.73.14-44.59-.38-14.26-.49-28.51-2.25-42.76-2.23-29.33 0-52.41-11.16-70.54-34.47-11.56-14.87-22.69-30.25-37.69-42.32-10.87-8.74-6.51-25.83 7-29.91 9.69-2.94 19-.2 28.35 2.12 8.56 2.14 14.72 6.92 18.25 15.35 1.94 4.63 5.14 8.72 7.77 13 1.56-10.05-5.07-20.35 5.25-28.62zm890.45-722.19c.53-.72 1.07-1.43 1.61-2.14-.75-2.84-1.46-5.69-2.25-8.51a104.5 104.5 0 01-1.67-48.33c2-10.38 9.43-17.16 19.1-17.47 12.64-.41 25.32-.49 38 0 12.08.48 20.22 6.79 22.74 18.5 1.49 6.91 1.24 14.46.36 21.55s-3.56 14.12-5.4 21.17c-.83 3.18-2.09 6.48 2.62 9.88 9.77-3.78 20.66-6.95 30.57-12 35.5-18.21 69.67-38.67 101.41-63 12.13-9.29 24.23-18.62 37-28.47-2.73-.45-4.64-.92-6.58-1.06-12.91-1-25.82-2-38.75-2.74-26.16-1.42-52.32-2.93-78.51-3.82-17-.58-34 0-51-.18-21.2-.24-42.4-1.2-63.59-1s-42.46 1.88-63.7 2.1c-30.52.32-61 1-91.4 4.17-12.24 1.28-24.45 2.92-38.89 4.67 3.35 2.05 4.37 3 5.57 3.37 24.85 8.42 46.16 23.21 67.2 38.19 30.11 21.43 61.18 41.15 94.65 56.9 6.77 3.17 13.95 5.5 20.91 8.22zM882.75 868.07c-4.34-17.44-9.78-33.26-11.75-49.5-1.19-9.74-5.77-14.17-13-17.75-29-14.33-45.82-37.42-50.29-69.4-.61-4.3-2.12-7.61-5.82-9.81-7.41-4.4-14.74-9-22.31-13-5-2.7-7.8-1.57-10.29 3.76-1.53 3.28-2.39 6.86-3.6 10.29-12.7 36.07-29.58 70.24-47.51 103.91-13.91 26.09-30.14 50.76-47 75-1.73 2.49-3.47 6.08-3 8.79 1.4 8.35 14.84 15 22.77 12 10.84-4.15 21.65-8.37 32.52-12.43 45.84-17.1 93-29.37 141.11-38.06 6.03-1.13 12.1-2.54 18.17-3.8zM649.5 305c-8.46-3.21-8.12-7.93-6.67-13.13a247 247 0 008.61-56.87c1.57-39.3-.49-78.38-15-115.66-3.95-10.13-8.34-20.1-13-29.92-2-4.29-4.88-8.49-11-9.19 0 5.5.26 10.4 0 15.26-1.44 21.51-2.59 43.05-4.59 64.51-1.9 20.44-4.72 40.79-7.27 61.17-2.71 21.69-5.56 43.37-8.37 65.05-1.64 12.63 4.35 22.38 13.59 29.3 22.05 16.51 44.84 32.06 67.35 48a13.29 13.29 0 003 .9c2.48-2.77 6.06-5.49 7.95-9.1 6.28-12 13.08-24 17.65-36.66 11-30.71 14-62.49 10.78-95.07-4.29-43.59-20.59-82.09-47-116.65-3.73-4.89-8-9.36-12-14 1 9.4 3.18 18 5.13 26.72 6.37 28.44 13.52 56.73 13.71 86.19.18 27.77-2.49 55.08-12.5 81.18-2.45 6.25-6.79 11.83-10.37 17.97zm550.21 467.09a65.93 65.93 0 00-1.15 8.08c-.27 12.1-4.56 22.85-11.63 32.33s-15.15 18.36-22.45 27.77c-3.39 4.37-6.75 9.07-8.71 14.16-2.14 5.54.24 8.49 6.23 9.88 2.59.6 5.24.9 7.86 1.38 25.12 4.62 50.31 8.86 75.34 14 40.12 8.16 79.13 20.41 117.22 35.26 8.68 3.38 14.21 1.84 20.62-3.44 13.31-11 13.47-15.39.13-26.1-10.61-8.53-21.68-16.56-31.73-25.7-20.55-18.7-37.16-40.67-50.43-65-11.74-21.56-22.86-43.46-34.36-65.16-2.13-4-4.75-7.77-7.13-11.62-6.79 2.77-8.22 8.54-10.6 13.51-7.5 15.65-17 29.41-34.12 35.77-4.64 1.65-9.41 3.03-15.09 4.88zM1496 89c-4.48-3.72-8.47-1.79-11.4.6-8.7 7.11-18.18 13.77-25.1 22.41-12 15-22.19 31.31-33.22 47s-17.5 33.76-22.56 51.8c-11.7 41.75-7.9 83.49 6 124.13 3.47 10.14 7.18 14.31 19.9 9.35a48.66 48.66 0 008-3.89c19.48-12.1 39.15-23.72 61-31.34 7.54-2.63 11.19-8.69 11.28-17.07.2-17.84.59-35.69 1.36-53.51.56-12.93 1.19-25.91 3-38.7 4.6-33.5 9.85-66.91 14.73-100.37.25-1.69-.56-3.54-1-5.82-6.2 1.89-9.8 5.7-13 9.92a260 260 0 00-33.75 59.69c-9.67 24-18.28 48.38-21.16 74.39-2 17.78-5.13 35.45-1.08 53.4 1.46 6.43-.37 10.49-3.86 10.91-5.88.73-7.63-4.26-8.46-8.08-3.12-14.25-5.74-28.68-4.6-43.39.69-8.9 2.37-17.73 3-26.64 2.26-31.59 11.49-61.22 25.56-89.33 7.64-15.38 16.68-30.1 25.36-45.46zm-761.94 63c7 0 12.71.38 18.32-.07 41-3.25 81.69-9.74 122.92-10.62 29.53-.62 59-2.54 88.55-3.78 12.61-.53 25.24-1.11 37.86-1.15 37.92-.12 75.86-.63 113.76.24 33.19.77 66.34 3.09 99.5 4.93 15.9.89 31.84 1.78 47.67 3.51 30.31 3.3 60.56 7.26 90.85 10.81 9.76 1.14 19.56 1.87 29.08 2.76 2.88-5.27 5.07-9.28 7.91-14.5-6.29-.82-11.48-1.48-16.67-2.17-29.55-3.88-59-8.32-88.67-11.51-33-3.54-66-6.23-99.05-8.76-24.16-1.84-48.39-3.81-72.6-4-55.93-.35-111.86.09-167.78.79-25.23.32-50.44 2-75.67 3.11-8 .35-15.95.46-23.86 1.3-28.36 3-56.69 6.25-85 9.49-11 1.25-22 2.71-34.49 4.27zm932.25 743.5c10.69-12.84 10.7-12.93 2.9-25.31-1.24-2-2.52-3.92-3.88-5.81-16.92-23.45-34.23-46.64-50.69-70.4-26.65-38.46-52.81-77.25-79-116-18.22-26.92-36.44-53.84-54.21-81.06-16-24.44-31.47-49.21-46.9-74-8.08-13-15.56-26.29-23.36-39.43-2.18-3.67-5-6.39-9.77-4.74-4.45 1.54-8 7.44-6.27 11.75 3 7.67 6.06 15.51 10.36 22.49 13.61 22 27.84 43.69 41.75 65.54 15.7 24.66 30.69 49.81 47.13 74 23.17 34 46.1 68.24 70.74 101.31 30.58 41 59.23 83.53 88.78 125.34 3.76 5.36 7.94 10.47 12.42 16.33zM682.44 508.12c-6.05-.7-8.38 3.72-10.58 7-14.18 21.27-28.73 42.35-41.77 64.32-21.71 36.58-44.24 72.6-68.2 107.73-12.89 18.95-26.89 37.22-38.63 56.88-19.06 32-41.3 61.8-63 92-21.11 29.35-43 58.15-64.41 87.26a36 36 0 00-4.81 8.65c-1.38 3.68 1.24 11.1 4.11 11.14s5.66-2.26 8.45-3.62a4.81 4.81 0 001.34-1.45c13.18-16.58 27.19-32.58 39.38-49.86q54.49-77.32 107.73-155.53 45.59-67.23 89.42-135.65c14.86-23.11 27.94-47.37 42-71 3.86-6.59 3.53-12.35-1.03-17.87zm71.37-304.43c.76 6 4.63 5.79 7.57 6.8 40.54 13.87 78.24 33.1 111.75 60 22.6 18.12 46.24 34.75 71.51 48.79a587.27 587.27 0 0089.7 40.68c13.55 4.78 15 6.86 15.05 20.82 0 34.62.49 69.25-.26 103.85-.26 11.74 4.42 20.46 11.09 28.89 3.7 4.66 8.51 4.69 11.26-.5a31.93 31.93 0 003.74-14.05c.34-28 .17-55.92.17-83.88v-44.94c-.06-11.55-1.23-12.3-12.43-12.86-7.88-.4-15.68-2.12-23.55-2.87-6.72-.65-10.56-4.59-11.32-10.65-.73-5.82-4.07-7.57-8.84-9.17-9.11-3.06-18.49-5.78-27-10.16a1180.66 1180.66 0 01-137.76-83.79c-23.67-16.64-50-27.38-78-33.93-7.2-1.72-14.75-2.02-22.68-3.03zm-254.35-26.43a86.65 86.65 0 00-19.68-39.13c-7.79-9-16.06-17.67-23.64-26.88-5.66-6.88-10.28-14.62-15.86-21.57-6.19-7.7-10.9-7.49-16.39.72-12.27 18.34-20.41 38.57-25.32 60-5.22 22.77-4.69 46.06-4.7 69.25 0 2.11.39 4.22.6 6.4zM568 191.44c-3.75-1.1-7.07-2.69-10.47-2.92a114 114 0 00-16.93.31c-29.56 2.44-56.45 13.75-83 25.83-30.95 14.08-59.15 32.93-86.91 52.35-19.78 13.84-37 30.4-49.76 51.11-12.49 20.31-24.88 40.71-36.63 61.47a158 158 0 00-20.3 67.08 125.48 125.48 0 00.22 23.58c.58 5 2.92 10 8.54 12.79 5-4.79 5.61-10.63 5.84-16.62a193.73 193.73 0 0114.91-66.67A260.83 260.83 0 01340.08 326c25.13-28.34 51-55.75 84.12-75.39 29.31-17.39 59.92-31.25 93.39-38.27 12.67-2.66 25.39-5.1 38.1-7.52 6.51-1.26 10.96-4.45 12.31-13.38zm1076.64 890.13c8-10.81 8.69-21.59 1.83-31.55-10.15-14.77-24-25.51-38.76-35.35-23.22-15.51-47.91-28.43-72.08-42.31-34.33-19.7-70.5-35.57-106.14-52.54-2.23-1.06-5.67-2.07-7.46-1.1-6.16 3.34-13 6.13-17.91 13 87.95 38.28 167.71 88.51 240.47 149.85zm-901-905.35c104.88-12.22 209.27-19.4 314.19-18.94s209.44 6.54 312.82 23.09a46 46 0 002.84-5 47.63 47.63 0 001.5-6c-211.49-28.85-422.33-30.86-633.83-4.36.26 2 .33 3.33.61 4.59.34 1.59.87 3.13 1.86 6.62zm-335.78 924.43c70.36-64.71 147.28-114.9 230.88-155.48-7.83-9.33-8.59-9.46-17-4.39a107.9 107.9 0 01-9.6 5.28c-17.74 8.3-35.46 16.65-53.32 24.7-29 13.08-58.26 25.81-87.27 39-11.78 5.34-23.28 11.3-34.8 17.19-7.88 4-14.36 10.08-17.85 18-5.71 13-10.64 26.46-11 41-.13 4.2-.04 8.39-.04 14.7zm957.45-893.94l-1.29-2.45a54.34 54.34 0 00-6.65.76q-10.62 2.53-21.18 5.38c-17.35 4.68-34.59 9.78-49.72 19.89-18.75 12.52-37.51 25-55.83 38.18a394.93 394.93 0 01-59.78 35.53c-21.15 10.11-43.14 18.46-65.14 27.74.17 11.63-4.81 20.31-15.77 24.28-1.77 22-1 120.22 1.06 128.15 4.35-4.74 6.51-9.68 6.46-16.1-.22-32.95.06-65.9-.22-98.84-.06-6.82 2-11.75 8-14.65 6.83-3.31 14-6 20.78-9.32 21.1-10.43 42.3-20.66 63-31.75 16-8.56 32-17.53 47-27.7 21.42-14.5 41.83-30.49 63-45.37 7-4.9 14.79-8.77 22.56-12.36 12-5.55 24.38-10.32 36.45-15.73 2.77-1.22 4.89-3.73 7.27-5.64zm346.44-123.77c-5.7 1.49-9.18 1.94-12.24 3.32-4.2 1.9-8 4.65-12.12 6.8-25.34 13.27-44.62 32.89-59.41 57.07-8.16 13.33-5 21.47 10 26A121.41 121.41 0 011670.8 192c4.51 3 9 6.54 15.93 5.94.67-2.82 2-5.66 1.88-8.4-.92-15.34 1.32-30.31 5.38-44.94 4.68-16.9 10.28-33.54 15.39-50.33.84-2.76 1.2-5.67 2.37-11.33zM349.5 924.42c-4.53-5.64-8.54-11.3-13.21-16.34-19.46-20.94-43.14-36.19-68.21-49.33a218.62 218.62 0 00-32.79-14.31c-36.09-11.88-72.61-10.39-109.06-1.44-6.12 1.5-11.94 4.2-14.1 11 5.85 6.16 5.88 6.31 12.67 5.13 24.35-4.21 48.79-4.32 73.31-1.92 30.94 3 58.33 15.6 83.21 33.23 15.9 11.27 30.08 25 45.05 37.56 8.45 7.14 14.31 6.54 23.13-3.58zM1029.81 467c.92-4 1.54-5.52 1.55-7 .06-20.3.1-40.59 0-60.89 0-2.94-.94-5.86-1.29-8.81-.66-5.59-3.82-8.73-9.06-10.68-9.34-3.48-18.57-7.29-27.72-11.26-32.35-14.06-64.11-29.24-92.83-50.07-5.68-4.11-11.51-8-17.28-12 50.61 51.23 104.07 99.45 146.63 160.71zM1749 371.77c1.37-9.41.58-17.84-3-25.95-6.34-14.22-12.87-28.24-21.92-41.11-16.22-23-32.71-45.65-55.84-62.51-14.26-10.4-29-20-45.54-26.21-18.62-7-38.4-7.4-58-6.13-6.82.45-14.44 2.26-18.84 10.3 6.39 3.3 12.92 3.78 19.48 4.18 16 1 31.92 3.94 46.38 10.6 33.49 15.42 62.44 37.66 88.5 63.54 11.25 11.17 22.78 22.47 28.71 37.75 3.6 9.26 6.72 18.7 9.88 28.12 1.56 4.65 3.26 8.85 10.19 7.42zm-198.16-177.22c5.44-.44 9.21-1 13-1 4.3 0 8.61.45 12.91.8 19.23 1.57 38.25 3.63 56.44 11.09 30.66 12.58 54.57 33.7 76.08 58.12 18.16 20.61 31.87 44.1 43.87 68.62 8.62 17.63 15.32 35.94 18.82 55.39 1 5.68 3.28 11.54 11.07 12.4a36.4 36.4 0 00.48-5.17 78.13 78.13 0 00-.9-9.92c-5-27.61-13.13-53.93-27.56-78.39-19.91-33.74-41.81-65.45-74.33-88.59-16.32-11.61-33.3-21.78-52.06-28.82-23.74-8.91-48.16-6.87-72.85-4.41zM1119 441.2l2.34.76c1-1.13 2.09-2.21 3-3.39 7.89-9.82 15.32-20.07 23.74-29.41 15.34-17 31.08-33.7 47-50.15 11.57-11.94 23.88-23.15 35.59-34.95 4.51-4.55 8.3-9.83 12.41-14.77-3.5.07-6 1.35-8.5 2.69-24.22 13.09-48.39 26.29-72.68 39.25-11.73 6.25-23.66 12.11-35.56 18-5.94 3-8.75 7.17-8.49 14.21.73 19.27.8 38.56 1.15 57.76zm845.1 374.19c-3.19-9.07-9.38-13.51-19.26-14.16-7.2-.48-14.31-2.7-21.4-4.38a182.31 182.31 0 00-47.18-5c-16.8.44-32.62 5.08-48.56 10-38 11.59-71.29 30-96.51 61.46-2.47 3.09-5.56 5.78-7.52 9.15-3.42 5.86-.93 11.37 5.39 13 4.22 1.11 6.74-1.32 9.25-4.27 6.45-7.56 12.43-15.72 19.81-22.26 21.77-19.28 46.11-34 74.39-42.51 21.58-6.52 43.13-10.62 65.6-9.33 11.21.65 22.46.62 33.26 5 7.63 3.11 15.84 4.78 23.8 7.11 3.99 1.22 7.23.6 8.9-3.81zM310.65 406.3c1.83-3.34 2.93-5.33 4-7.31 4.34-7.85 8.22-16 13.09-23.47a300.21 300.21 0 0151.77-60.33c10.6-9.48 21.46-18.92 33.3-26.71a386.94 386.94 0 01131.24-55.07c2.55-.56 5.38-1.28 7.28-2.87 2.07-1.72 3.22-4.56 4.77-6.91-2.54-1.1-5.07-3.09-7.6-3.09-4.25 0-8.49 1.26-12.73 2a303.51 303.51 0 00-136.94 60.71c-38.52 29.51-68.6 65.45-87.43 110.38-1.35 3.29-4.28 6.91-.75 12.67zm76.72-38.86l1.23 1.75c2.92-1.11 6-1.86 8.73-3.37 28.31-15.9 56.52-32 84.83-47.9 16.56-9.3 33.54-17.55 53-18.53 7.94-.39 15.89-.87 23.84-1.05 3.67-.08 6.52-.6 7.28-4.92 1.23-6.93-3.9-17-10.6-18.42-8.39-1.81-17.08-3.1-25.44.48-19.18 8.22-38.42 16.32-57.43 24.91a208.91 208.91 0 00-27.21 14.31c-17.9 11.51-33.82 25.6-48.93 40.54-3.6 3.57-6.22 8.11-9.3 12.2zm1156.75-129.59c-.37.92-.74 1.84-1.12 2.76 2 1.3 3.84 3 6 3.8 5.89 2.23 12 3.85 17.87 6.13 15.39 6 31.09 11.36 45.93 18.52 22.89 11 42.62 26.9 60.68 44.63 12.67 12.45 26.83 23.84 32.93 41.67a7.51 7.51 0 009.6 5c4-1.17 5.35-5.18 4.32-10.79-2.69-14.56-10.67-26.3-20.7-36.5-9.53-9.68-19.79-18.68-30.17-27.45-21.43-18.09-44.87-33.14-71.59-42-17.35-5.83-35.57-6.69-53.75-5.77zM339 392.41c20.84-14.18 38-31.82 54.55-50s34.38-34 55.51-46.33c22.21-12.95 46.23-21.42 70.82-28.37 8.67-2.45 15.38-7 21.29-16-3.94-.33-6.63-.76-9.32-.74-10.58.05-19.62 5.42-29.3 8.63a341.35 341.35 0 00-80.24 39c-4.71 3.08-9.76 5.85-13.85 9.64-15.1 14-29.92 28.26-44.72 42.57-11.74 11.38-21.96 23.86-24.74 41.6zM675.9 423c8-7.1 8.56-10.73 3.09-17.59-14.13-17.74-30.39-33.26-48.07-47.48-20.76-16.7-44.12-28.18-69.21-36.45-11.6-3.82-20 3.27-19 16.34 24.88 8.42 49.58 17.52 72.29 32 23 14.61 41.13 34.27 60.9 53.18zm-326.21 734.44c-2.15-5.47-4-10.74-6.29-15.84-3.09-7-10.13-10.51-16.77-4.78-10.64 9.19-23.46 14.78-36.07 20.66a70 70 0 00-7.06 3.61c-3.78 2.3-5.57 5.76-4.38 10.1 2.69 9.86 5 19.92 8.71 29.38 2.3 5.81 5.57 11.77 11.18 15.64 17.16-19.9 33.99-39.37 50.68-58.77zm966-798.63l-2.7-1.21c-2.25 2.57-5.35 4.78-6.59 7.77-5.86 14.06-12.79 28-16.33 42.63-4.8 19.87-7.25 40.34-9.88 60.66-.87 6.69-2.05 14.27 3.39 20.76 1.53-1.28 2.73-2 3.49-3 8.2-10.82 16.13-21.85 24.56-32.49 5.39-6.81 8.26-13.92 7.75-22.83-1.06-18.52-1.38-37.09-2.16-55.63-.29-5.55-1.05-11.1-1.58-16.66zm89.61 42.07c8.51 10 9.76 10.14 18.73 3.44 6.64-4.95 13.31-9.86 20.08-14.64 23.57-16.68 48-31.76 75.28-41.88 7.06-2.61 13.58-6.78 20.07-10.7 2-1.2 4.56-4.44 4.11-5.89-.76-2.47-3.47-5.63-5.8-6-4.72-.84-9.78-.39-14.61.25-2.86.39-5.51 2.22-8.29 3.3a331.53 331.53 0 00-96.59 58c-4.77 4.01-8.54 9.16-13.03 14.12zM510.26 327c-5 1.28-8.88 1.74-12.32 3.25a808.85 808.85 0 00-91.12 46.7 113.51 113.51 0 00-29.07 25.27c-2.3 2.79-5.88 5.92-1.81 11 3.83-1.61 7.88-3 11.63-5 22.67-11.74 45.6-23 67.79-35.62 15.82-9 30.74-19.58 45.79-29.86 4.56-3.1 8.58-7.29 9.11-15.74zm-280.82 836.42c.72 7.25 1.23 14.11 2.1 20.93 2.62 20.32 12.47 38.24 19.26 57.16 2.71 7.56 8.32 13 15.08 17.79L279 1241c-.78-1.34-1.44-2.46-2.08-3.59-8.2-14.42-15.61-29-17.21-46.05-.76-8.12-3.25-16.17-5.73-24-2.27-7.16-8.53-10-15.71-7.81-2.52.73-4.83 2.08-8.83 3.87zM738.6 462.2c-.32-2.64-.35-6-1.16-9.22-4.44-17.54-20.5-19.86-30.87-13.76-9.58 5.64-13.43 14.47-16.06 24-2.69 9.78-.2 18.64 8.62 24.56s18.06 6.05 27.26.71c9.91-5.7 11.92-15.27 12.21-26.29zM1675 347.47c3.29-5 .79-8.6-1.47-11.36-5.2-6.37-10.9-12.36-16.66-18.23-22.23-22.64-48.84-38.66-78.25-49.81-9.37-3.56-19.92-4.13-30-5.73-2.82-.45-6.08-.15-7.32 4.14 3 4.52 8 6.23 12.86 8.26 11 4.62 22.12 8.87 32.73 14.21a420.2 420.2 0 0138 21.24c11.11 7.12 21.3 15.69 31.89 23.62 5.94 4.46 11.89 8.94 18.22 13.66zM779.1 195c0 .73.07 1.46.11 2.19 9.43 3.07 18.9 6 28.3 9.21a231.09 231.09 0 0154.54 26.28c23.76 15.82 47.36 32 72 46.44 25.14 14.77 51.33 27.76 77.2 41.25 3.88 2 8.54 2.56 13 3.84 2.16-6.11.67-9-4.68-10.62-16.3-4.88-31.09-13.14-46.26-20.66-32-15.86-61.53-35.73-90.65-56-29.89-20.81-61.57-36-97.57-41.88a37.14 37.14 0 00-5.99-.05zm614.46 244.19c-.39-11.25-11-27.3-26.1-28.1-7.17-.38-13.7 1.71-17.2 7.82-5.12 8.93-9.17 18.67-2.77 28.87 4.34 6.9 8 15.3 16.91 17 15.6 2.99 28.37-4.78 29.16-25.57zm216.17 126.84c-21-37.08-55.65-41.94-81.17-16 5.17.44 9.18 1.06 13.19 1 5 0 9.9-.83 14.85-.85 10.77-.06 14.75 3.94 15.09 14.68.12 3.55-.75 7.42 3.79 9.3 3.08 1.27 5 3.64 3.53 7.11s-4.1 4.88-8 4.48a88.57 88.57 0 00-9.21-.07c-.45 4.92 1.65 6 4.67 6.3 11.74 1.17 21-2.94 26.66-13.43 3.54-6.41 6.68-12.88 16.6-12.5zm-275.15-366.72c0-.59 0-1.18.05-1.76-5.74-.43-12-2.57-17.11-1-14.46 4.56-29.29 9.13-42.37 16.54-15.16 8.59-28.94 19.79-42.73 30.6-25.49 20-53.57 35.58-82.65 49.41-12.53 5.95-25.83 10.27-38.8 15.3-3.51 1.37-7.11 2.58-4.3 8.37 3.38-1.11 6.84-2 10.11-3.38 10.08-4.2 20-8.71 30.15-12.88 40.71-16.81 77.49-40.28 112.77-66.33 12.8-9.45 25.93-18.48 41.15-23.73 11.2-3.83 22.49-7.45 33.73-11.14zM385.86 978.9c.38-11.87-13.25-27.49-24.16-27.69s-25.33 14.57-25.77 26.39c-.41 11.07 12.3 24 23.54 24.06 12.37 0 26.03-11.78 26.39-22.76zm1350.71 192.92c3.61-3.87 7.09-6.93 9.73-10.6a151.68 151.68 0 0010.43-16.72c1.91-3.56.92-6.82-2.84-9.31-8.81-5.83-17.4-12-26.12-18-3.42-2.34-7.5-4-11-1.23-6.28 5-13.37 9.63-15.7 18.31 11.93 12.64 23.62 25.01 35.5 37.55zm-403.38-807.77c1 5.86 1.59 11.85 3.2 17.54s5.42 7.56 11.59 6.78c6-.75 9.11-3.58 9.37-9.45.18-4.26.3-8.85-1-12.78-3.5-10.23-2.48-20.28-.35-30.44 1.56-7.47 3.4-14.88 4.84-22.38a37.61 37.61 0 00.83-10.86 9.25 9.25 0 00-3.68-6.18c-1-.64-4.73 1-5.67 2.54a98 98 0 00-7.83 15.76 176.61 176.61 0 00-11.3 49.47zm-271.55-123.73c-2.66 0-5.32-.09-8 0-7.83.3-9.86 2.26-10.22 10.17a68.11 68.11 0 000 11.95c1.23 9.18 2.49 18.43 8.47 26.12 4.07 5.24 14.85 5.5 17.92 0 6.18-11.08 10.38-22.93 11.41-35.66.66-8.19-3.2-12.16-11.68-12.59-2.54-.1-5.24.01-7.9.01zm747.29 925.55c-3-6.5-9.07-6.55-13.45-9.23s-7.75-1.22-11.43 2.14c-9.65 8.8-14.54 20-18.89 32-2.41 6.66-1.85 11.3 2.6 16.1 2 2.17 4 4.32 6.21 6.67 12.36-15.97 25.15-31.05 34.96-47.68zM1330.94 475a28.51 28.51 0 00-11 12.66 167.83 167.83 0 01-11.56 20.56c-4.55 6.88-9.94 13.21-14.94 19.8-8.18 10.78-7.08 22.89-4.83 35.1.11.63 1.49 1 2.13 1.44.91-.25 1.74-.23 2.13-.63a11.41 11.41 0 002.28-3.17c10.12-23.84 22.64-46.14 39.87-65.74 7.33-8.37 6.21-12.02-4.08-20.02zm356.48 448.23c1.61 9.8 3.91 17.34 11.87 22.21 7.7 4.72 13.79 4.4 18.59-3.08a82.55 82.55 0 007.44-16.09c2.59-7 1.11-12-4.85-16.36a57.42 57.42 0 00-11.25-6.11c-5.44-2.33-12.87-.7-15.74 4.28s-4.42 10.92-6.06 15.18zm-624.06-585c3.65 0 7.32.14 11 0 6.5-.31 9.08-2.66 9.64-8.91a48.11 48.11 0 000-9c-.67-7-2.46-8.65-9.44-8.87-5.28-.17-10.59.17-15.87 0-15.15-.62-17.25 1.46-16.57 16.92v2c.62 5.22 2.93 7.57 8.31 7.86 4.29.2 8.57.01 12.93.02zm479.56-46.94l-1.36 2.79c4 3.3 7.81 6.94 12.1 9.83 9.31 6.27 19 11.93 28.28 18.28 7.5 5.16 15.39 8.92 24.44 10.18 5.25.73 10.47 1.7 15.74 2.29 1.66.19 3.43-.51 5.15-.8.14-.66.28-1.33.43-2-28.15-13.73-53.57-33.18-84.78-40.55zM368.57 1059.6H368c0 6-.4 12 .22 17.9.22 2.12 2.77 5.46 4.48 5.6 2.38.2 5.2-1.77 7.39-3.41 1.1-.83 1.34-2.94 1.74-4.53 2.1-8.34 4.6-16.62 6-25.08a65.92 65.92 0 00.35-17.86c-.68-6.14-5.71-7.89-11-4.56-5.88 3.69-8.38 9.26-8.56 16-.17 5.28-.05 10.61-.05 15.94zm1314.1-89.83c-7.46 28.66-3.17 81 8.12 92.25-1.13-9.68-2.22-18.44-3.15-27.22-1.89-17.72.74-34.95 5.36-52 2.61-9.7 1-11.59-10.33-13.03zM718.28 412c1.42-2.92 3.19-4.87 3.17-6.8-.06-6.87-.57-13.76-4.36-19.88-1.77-2.85-3.34-5.92-7.56-4.84a8 8 0 00-5.45 9.39c2.01 8.35 5.21 16.18 14.2 22.13zm-342.56 718.17c3.56-3.9 7.42-7.58 10.53-11.82 1.31-1.78 1-4.73 1.44-7.15-2.13-.2-4.49-1.09-6.36-.49-5.34 1.71-10.48 4-13.27 9.62 1.74 2.92 3.4 5.72 5.09 8.5.14.23.54.3 2.57 1.34zm1317.48-28.68c-7.24-9.78-8.22-9.93-14.73-2.8-1.89 2.07-3.43 4.45-5.4 7.06l8.39 7.39zm29.45-84.16c-5.43 9.38-1.49 15.24 12.45 17.88-1.88-8.21-6.94-12.98-12.45-17.88z"/>
  <path d="M1051.41 2495.59c-40.64.66-81-3.09-121.08-9.18A695.24 695.24 0 01801 2454.1a770.46 770.46 0 01-89.58-38.4c-38.36-19.42-75.07-41.35-109.36-67.18a770.94 770.94 0 01-99-89.24A719.3 719.3 0 01417.44 2147a704.29 704.29 0 01-67.62-141.59c-10.55-30.46-19.66-61.23-26-92.79a698.84 698.84 0 01-12.1-86.66 740.23 740.23 0 01-.73-100.67c1.72-28.06 5.66-56.06 10-83.87a550.36 550.36 0 0124.48-97.34c10.05-28.77 21.63-57.13 34.49-84.76 26.09-56 60.05-107.1 100.43-154 27.85-32.33 58.48-61.69 91.2-88.93 23.51-19.57 48.59-37 74.52-53.28a763.2 763.2 0 0181.35-44.28c37.63-17.61 76.24-32.72 116.53-42.9 27.65-7 55.6-13 83.71-17.84 20.5-3.5 41.43-5.11 62.24-6 25.92-1.17 51.92-1.47 77.85-.86 19.22.46 38.41 2.68 57.56 4.65a636.5 636.5 0 01108.45 21 744.69 744.69 0 01140.47 55.91c48.29 25 93.5 54.65 135 89.66 48 40.42 90.85 85.67 127.42 136.82 37.33 52.21 66.59 108.58 89 168.67a711.49 711.49 0 0128.79 99.3c6.68 31.09 11.61 62.61 13.15 94.51.9 18.55 2.93 37.1 2.81 55.63-.13 22.2-1.64 44.42-3.21 66.58-3.21 45.52-12.14 90-24.78 133.82a722.44 722.44 0 01-107.29 220.08 717.78 717.78 0 01-149.3 152.34c-47.09 35.62-98.14 64.17-152.37 87.48-58.39 25.09-119.08 41.4-181.78 50.48-29.27 4.24-58.73 7-88.38 6.8-3.99-.07-7.96.4-11.92.63zm100.51-743.44c33-19.9 65.45-39.51 97.94-59 33-19.86 66.14-39.58 99.15-59.48q69.62-42 139.12-84.1 67.45-40.66 135-81.16c9.44-5.69 12.17-15.14 8.19-26.83-3.34-9.8-13.25-17.19-22.52-15.92-4.13.57-8.21 2.55-12 4.55-27 14.35-53.85 28.91-80.79 43.34-27.23 14.58-54.55 29-81.74 43.67-24.24 13.06-48.33 26.42-72.56 39.51-22.81 12.32-45.74 24.39-68.56 36.69q-42.45 22.86-84.79 45.91c-14.58 7.9-29.12 15.88-43.7 23.77-14 7.57-28.16 14.93-42.07 22.69-6 3.32-10.69 2.82-16.49-1.06a242 242 0 00-27.77-15.39c-4.52-2.22-6.32-4.83-6.42-9.87-.41-21.91-1.35-43.82-1.86-65.73-.78-33.25-1.37-66.51-2-99.76l-2-102.72-2-97.72q-1.07-56.38-2-112.75c-.33-20.64-.19-41.29-.79-61.92-.46-15.84-11.56-24.18-25.23-23.73-11.83.39-23.17 8.86-22.82 23.9.35 14.59-.71 29.21-1.16 43.81-.66 21.59-1.4 43.19-2 64.78-.75 29.25-1.29 58.5-2.06 87.75-.52 19.6-1.37 39.18-1.93 58.77-.76 26.25-1.36 52.49-2 78.74-.65 24.58-1.37 49.16-2 73.74q-1.1 45.86-2 91.73c-.35 16.24-.63 32.48-.92 47.27l-41.52 25.18c-1.6-.82-4.28-2.1-6.88-3.55q-78.35-43.77-156.68-87.55-78.3-43.59-156.74-86.91-82.73-45.93-165.39-91.93c-11.36-6.3-16.25-5.63-26 2.8-11.26 9.74-9.94 27.83 2.65 35.57q53.47 32.9 107 65.72 78.57 48.22 157.15 96.42 72.68 44.54 145.4 89c19.84 12.15 39.58 24.46 59.49 36.51 3.73 2.26 6.7 4.51 5.7 9.32-3 14.49-2.43 29 0 43.78-3.88 2.57-7.6 5.29-11.55 7.62Q796.4 1876 680.99 1944.3q-98.68 58.42-197.37 116.84c-11.43 6.77-22.91 13.49-34.12 20.62-8.27 5.25-12.45 13-10.51 23a22 22 0 0031.54 15.45c15.42-7.74 30.48-16.2 45.72-24.31q62-33 124.1-66 56.26-30 112.44-60.25 61.54-32.92 123.12-65.78 37.8-20.2 75.51-40.57c3.8-2.07 6.89-1.89 9.94.92 10.43 9.58 22.55 16.31 35.7 21.38 4.43 1.71 6.37 4.76 6.44 9.94.37 25.57 1.33 51.13 1.83 76.7.78 39.23 1.36 78.47 2 117.71l2 113.71 2 121.74c.64 37.21 1.38 74.42 1.94 111.63.08 5.35 1.43 9.91 5.67 13.23 8 6.19 16.87 7.64 26.31 4.3 8.36-3 12.79-9.13 13.28-18.07.15-2.64.68-5.27.74-7.91q1.07-42.37 2-84.77l2-85.73 2-84.75 2-86.76c.66-28.25 1.43-56.5 2-84.75.38-20.3.36-40.6.74-60.9.29-16.27.88-32.54 1.43-48.81 0-1.23.75-2.45.47-1.59l45.61-25.45c19.82 11.06 40.29 22.71 61 34 29.44 16 59.13 31.59 88.53 47.69 26.47 14.49 52.57 29.64 79 44.12 44.29 24.22 88.78 48 133.1 72.21 40.23 21.93 80.32 44.11 120.5 66.12 8.76 4.79 16.75 4.06 23.14-1.73 8.15-7.4 10.92-16.93 7.55-25.92-2.2-5.87-6.3-9.95-11.61-13.18q-59.18-36-118.24-72.14-57.38-35.24-114.86-70.24c-29.74-18.19-59.37-36.59-89.13-54.75q-69.78-42.59-139.72-84.89c-3.69-2.23-4.87-4.49-4.6-8.73.7-10.9 1-21.84 1-32.76.09-4.23-.8-8.47-1.26-12.72zM1796.24 1880.63l115.76 27.59c-3.43 16.79-6.65 32.54-10.12 49.56l-72.23 2.62c-.13.77-.25 1.53-.38 2.3l62.21 33.9c-1.88 17.38-6.83 33.82-10.4 51.81l-117.82-29.66c2.79-11.6 5.4-22.43 8.24-34.25 18.34 1.1 34.75 9.07 52.59 11-15.13-10.8-32.45-17.93-48.83-28.15 2.78-11.32 5.52-22.45 8.34-34l59-2.28c.06-.49.12-1 .19-1.48-9.92-2.36-19.83-4.76-29.76-7.07-6.47-1.5-13-2.85-19.47-4.33-3.58-.81-6.37-2.5-5.3-6.8 2.47-9.85 5.11-19.71 7.98-30.76zM185.73 1976.91l-9.73-33.65c17.35-7.24 106.81-29.88 115.79-29.27 3.27 10.8 6.67 21.83 10 32.89 4.11 13.77 4.18 13.91-7.55 23-13.41 10.36-27 20.45-40.52 30.69a19.38 19.38 0 00-5.63 6.15c6.15-1.55 12.34-3 18.45-4.69 12.45-3.45 24.85-7.08 37.3-10.54 8.9-2.47 10.21-1.54 12.86 8 1.52 5.4 3.47 10.69 4.92 16.11.65 2.43.57 5.06.92 8.61L209 2054.39c-1.48-3.82-3.13-7.32-4.21-11-3-10.18-5.68-20.45-8.62-30.65-2.32-8-2.22-8.32 4.37-13.26q25.44-19.08 50.78-38.27c-.25-.66-.5-1.32-.76-2zM448 2404.13l-26.81-23.85c25.63-29.76 50.64-58.78 76.17-88.41 9.14 7.53 17.46 14.47 25.88 21.3 14 11.37 14 11.33 8.53 28.18-5.85 17.94-11.67 35.89-16.22 54.79 6.5-7.43 13-14.84 19.49-22.29 7-8 14.1-15.92 20.72-24.22 2.25-2.82 4.82-4.54 7.42-2.62 8.45 6.24 16.47 13.07 25.44 20.3-5.71 6.61-10.82 12.58-16 18.49q-27.54 31.48-55.15 62.93c-5.74 6.52-6.12 6.57-12.8 1.23-10.89-8.7-21.65-17.56-33.1-26.86l22-68-1.18-1zM293.94 1447l-62.56-25.81c4.5-11 8.69-21.18 13.22-32.24 9.88 3.92 19 7.49 28.12 11.16 24.61 10 49.18 20 73.8 29.9 8.54 3.45 9.12 4.42 5.59 13-4.28 10.44-9.09 20.68-13 31.25-1.85 5-4.53 6.49-9.57 6.44-20-.22-39.92-.1-59.88-.07a16 16 0 00-8.37 2L324.4 1509l-13.72 32.44-109-45.27c4.67-16.45 12.12-31.08 18.5-46.85h73.54c.05-.76.13-1.54.22-2.32zM1628.21 1139.33c2 1.81 4.31 3.57 6.28 5.63 12.17 12.76 24.51 25.37 36.27 38.49a116.59 116.59 0 0113.85 19.41c6.85 11.82 4.09 23.75-4.19 33.08-10.06 11.35-21.67 21.43-33.31 31.23-5.4 4.56-12.49 7.09-18.73 10.67-10 5.76-19.28 2.52-28.33-2.3-13.42-7.14-23.51-18.27-33.83-29-7.35-7.67-14.44-15.6-21.52-23.53-5.1-5.72-4.84-7.34.66-12.15q39.78-34.71 79.51-69.47a27.41 27.41 0 013.34-2.06zm-38.45 84.18c6.26 6.41 11.7 12.17 17.36 17.71 2.88 2.83 6.38 3.75 9.8.82q15.12-12.94 30.08-26c2.94-2.58 3.32-5.91 1.12-9-5-6.93-10-14-17.84-18.84zM521.43 1221.55L446.57 1132c4.73-4.06 8.56-7.56 12.61-10.77q17.55-13.92 35.27-27.62c6.89-5.29 14.35-9.24 23.11-11 7.51-1.48 14.36 0 19.56 4.7a74.16 74.16 0 0114.88 18.36c2.32 4.14 1.46 10 2.14 16.16.9 0 3-.1 5.17 0 13.06.7 19.61 10.14 25.69 19.75 7.91 12.51 6.47 24.61-5.56 34.53-18.44 15.19-37.57 29.51-58.01 45.44zm10.57-45.81c5.75-4.58 10.47-8.18 15-12 3.71-3.13 2.2-6.67-.18-9.58s-5.71-5-9.46-2.32c-5.29 3.81-10.29 8-15.81 12.36zm-36.38-43.68c3 3.79 5.77 7.25 8.72 11 4.45-3.53 7.8-6.17 11.12-8.84 8-6.4 7.92-7.42-1.25-15.12zM1527.85 2350.63l28-25.58c3.24 3.12 5.86 5.51 8.34 8 3.25 3.3 6.23 6.9 9.65 10s7 3.67 10.75.44l12.07-10.48c-7.66-8.14-14.83-15.74-23-24.39l27.52-26.25c11.27 7.18 18.24 18.41 27.56 27.14 9.71 9.1 19 18.7 28.28 28.23 9 9.26 17.93 18.71 27.88 29.11-1.56 2.36-3 5.68-5.38 7.92-12.66 11.77-25.36 23.5-38.47 34.76-7.31 6.28-15.4 11.83-25.47 12.74-3.9.35-8.43.87-11.74-.68-14.88-6.94-26.88-17-31-33.85-.74-3-.11-6.35-.11-10.2-21.97 4.46-30.09-14.48-44.88-26.91zm107.35 22c-5.68-6.07-10.58-11.33-16.08-17.2-4.77 4.75-9 8.42-12.48 12.74-1.26 1.58-1.43 5.15-.52 7.06 1.37 2.89 3.92 5.35 6.33 7.59 3 2.76 6.32 3.47 9.81.47 3.99-3.41 8.12-6.69 12.94-10.64zM1720.8 1418.49c-14.22.63-23.1-8.51-30.18-17.76-8.76-11.47-16-24.4-22.1-37.52s-4.26-26 7.38-36.12c3.75-3.26 7.29-7 11.54-9.37 15.8-8.9 30-20.88 48.37-25 10.61-2.35 19.88-.81 27.79 6.44a127.39 127.39 0 0131.71 45.38c6.75 16.24 4.06 28.78-11.63 41.32-14 11.18-28.64 21.75-45.74 27.95-5.55 2.06-11.42 3.19-17.14 4.68zm-.91-39.15c31.28-16.48 36.34-19.94 41.22-28.61-3.27-5.2-6.58-10.9-10.34-16.29-2.72-3.92-6.49-5.58-11.17-2.89-10.63 6.11-21.37 12-31.85 18.38-3.16 1.92-5.81 5.54-3.75 9.31 4 7.36 6.81 15.93 15.89 20.1zM1457.22 1141.44c-1.23-9 2.91-16.74 7.65-23.91 7.31-11.06 15-21.93 23.22-32.31 17.05-21.47 34.46-21.4 51.53-11.35a242.08 242.08 0 0136.09 26.09c13.1 11.42 15.16 24.72 7.33 40.42a157.53 157.53 0 01-38.67 50c-10.56 9-22.9 8.85-34.73 4-16.39-6.71-30.43-17.36-43.32-29.49-6.71-6.35-10.04-13.89-9.1-23.45zm67.68-36.14c-1 .6-3.51 1.3-4.77 2.93-7.84 10.18-15.65 20.4-23 31-2.7 3.92-1.84 8.19 2.61 11.22 3.84 2.61 7.29 5.8 11.19 8.29 5.5 3.51 9 3.29 13.07-1.82 7.64-9.58 14.81-19.54 21.89-29.54a8.89 8.89 0 001.13-6.45c-1.1-5.02-15.59-15.41-22.12-15.63zM1479.62 1054.14c1.28 12.07-4 21.75-9.39 31.31-6.32 11.23-12.08 22.93-19.64 33.29-10.28 14.09-20.72 16.66-37.63 11.55a143.44 143.44 0 01-48.78-26.21c-10.69-8.62-12.67-20.32-9.33-32.33 5.26-19 14.7-36.2 26-52.37 12.23-17.48 27.32-19.47 46.68-12.28 13.25 4.92 25.45 12.86 37.73 20.1 10.16 5.99 15.95 14.94 14.36 26.94zm-65.84 42.33c6.16.55 8.25-4 10.3-7.48q7.76-13.23 14.56-27c4.1-8.28 3.62-9.4-3.81-14.58a71.39 71.39 0 00-9.23-5.7c-8.22-4-10.55-3.81-15.5 4.2-6 9.77-11.16 20.13-16.37 30.38-1.78 3.5-1.36 7.5 2.19 9.79 5.77 3.74 11.89 6.92 17.86 10.39zM302 1582.91c-1.46 13.11-4.82 30.12-12.4 46.16-6.11 12.93-16.65 19.25-30.37 18.09-13.45-1.14-26.81-4-40-6.92a125.91 125.91 0 01-24.42-8.2c-14.18-6.42-21.23-17.71-19.39-32.55 2.15-17.36 5.47-34.58 13-50.68 5.39-11.51 14.57-16.67 26.83-17.31 15.14-.78 29.56 3.16 44 6.86a171.77 171.77 0 0118.92 6c18.83 7.28 23.46 14.12 23.83 38.55zm-48.9 27.41c7.37-.77 8.67-1.65 11-8.53 1-2.81 1.78-5.68 2.57-8.54 2.54-9.21 1.08-12.76-8.17-15.87a230.25 230.25 0 00-25.94-6.74c-15.24-3.19-16.78-2.07-20.87 12.85a27 27 0 00-1 4.84c-.68 7.57-.1 9.84 7.11 12.26 11.58 3.88 23.53 6.55 35.3 9.73zM737.33 964.7c13.56-1 22.29 6 28.71 16.65 9.65 16 16.21 33.38 21.56 51.19a54.33 54.33 0 011.91 12.72c.57 10.4-3.5 18.53-12 24.78-12.57 9.22-27.42 13.09-41.55 18.76-7.41 3-14.68 3.18-22.4 2.39-9.3-1-16.32-5.42-21.61-12.71-11.09-15.27-16.94-33-22.74-50.65-2-6.16-2.51-13-2.7-19.56a23.85 23.85 0 019.46-20c18.1-13.98 39.08-20.68 61.36-23.57zm13.29 79.66c-.73-3.3-.92-5.33-1.62-7.17-2.94-7.71-6.13-15.32-9-23-6.73-17.74-10.63-16.11-26.06-9.06-.6.28-1.3.33-1.88.64-6 3.23-7.57 6.49-5.19 13 3.61 9.9 7.39 19.76 11.58 29.43 3.74 8.64 6.65 9.75 15.56 6.83a58.82 58.82 0 0011.89-4.91c2.17-1.35 3.48-4.2 4.72-5.76zM1334 1089.62l-35.49-12.91c4.68-13.64 9.22-26.91 14.13-41.23l-31.64-10.74-14.1 40c-12.37-1.06-22.79-7.84-35.45-11.26 4.9-19.58 12.61-37.46 18.68-55.84 6-18.17 12.93-36 19.7-54.7 12.73 1.59 23.56 7.21 36.07 11.44l-13.32 39.75 30.56 11.51 13.57-38.82c12.32 2.13 22.9 7.66 35.27 11.21-.76 3.81-1 7.36-2.18 10.61-10.17 28.72-20.51 57.37-30.77 86.06-1.6 4.54-3.1 9.14-5.03 14.92zM661.24 1124.44c-3.64-6.53-6.61-12.44-10.1-18-5.33-8.52-7-8.85-16.14-4.25-3.19 1.61-6.3 3.36-9.75 5.22 2.15 10.92 10.59 18 14.23 28.58-10.2 6.09-20.32 12.66-32.62 17.48l-58.1-99.58c2.53-2.13 4.07-3.88 6-4.95q23.46-13.2 47-26.17c9-4.93 18.73-6.42 28.91-5.72 6.37.43 11.86 3.12 15.38 8.06a196 196 0 0112.67 21.33c4 7.49 3 15.31-.68 23.94 15.25-.5 21.3 10 27.4 20.4 2.83 4.82 5.37 9.79 8.5 15.53zM609.05 1081c3.76-2.21 6.9-3.88 9.85-5.83 9.19-6.08 9.72-10.54 2.73-19-3.12-3.77-6.32-5.32-11-2.51-4.13 2.49-8.57 4.48-13.74 7.13 4.2 6.92 8.01 13.26 12.16 20.21zM259.32 2167.07c-4.13-8.78-8-16.38-11.34-24.21-6.33-14.89-14.59-29.06-17.25-45.35-1.58-9.69-.92-20 7.48-25.31 14.72-9.26 30.25-19.12 49.4-9.26 1.19-3.2 2-6.05 3.29-8.67a20.15 20.15 0 013.91-5.6c4.65-4.49 26.1-13.26 34.62-14.06 4.07 8.48 8.47 17.29 12.53 26.25 1.65 3.66 0 6.31-3.77 7.8-4.93 1.93-9.84 4-14.65 6.16-7.53 3.45-8.43 5.73-5.39 13.07 1.64 3.94 3.44 7.81 5.62 12.73 7.24-3.1 14.13-6 21-9 9-3.89 9.51-3.69 13.89 5.66 2.66 5.67 5.47 11.27 8 17 1 2.28 1.45 4.82 2.36 8zm35.52-54.15c-2.1-4.48-3.61-8.08-5.43-11.51-5.17-9.8-7-10.34-16.92-5.58-6.51 3.1-8.12 6.94-5.29 13.52 1.79 4.14 4 8.1 6.27 12.56zM1217.62 1000.74c14.81 15.8 6.17 32 3.16 49.36l-35.53-6.32c.55-4.47 1.06-8.31 1.49-12.16s.89-7.9 1.21-11.87c.37-4.66-1.66-7.66-6.37-8.6s-9.69-1.91-14.92-2.95c-2.16 10.19-4.19 19.8-6.49 30.68l-35.65-6.54c6.85-38.79 13.52-76.49 20.35-115.16 3.34 0 6.35-.52 9.13.08 19.09 4.15 38.14 8.51 57.18 12.88a31.26 31.26 0 016.58 2.28c16.42 7.88 21.5 18.65 17.81 37.34-.32 1.62-.21 3.32-.47 5-2.23 14.07-3.99 16.67-17.48 25.98zM1175.89 954c-1.13 8.28-2.17 15.93-3.27 24 5.5 1 10 2 14.57 2.48 6.38.59 9-1.87 10.51-9.18 1.64-7.73.22-11.82-5.61-13.7-4.96-1.6-10.2-2.33-16.2-3.6zM886.85 920.35l36.68-3.57c1.92 14.31 3.74 27.84 5.6 41.67l32.79-3.69-4.37-41.25 36.22-4.27c4.75 39.17 9.42 77.71 14.18 117l-36.87 4c-1.86-15-3.55-28.66-5.34-43.08l-32.9 3.29c1.58 14.22 3.11 27.92 4.8 43.08l-36.59 4.69c-4.82-39.99-9.46-78.56-14.2-117.87zM1667.54 2320.37c-5.85-4.58-10.59-8.15-15.15-11.92-7-5.75-7-7.73-1.16-14.5 8.22-9.56 16.33-19.21 24.46-28.86 1-1.22 1.82-2.63 3.23-4.7l-10.9-8.21c-8.64 10.46-16.93 20.34-25 30.37-13.84 17.11-12.42 13-24.78 2.51-11.25-9.57-11.29-9.61-1.53-21.44q22.45-27.2 45-54.31c5.23-6.29 6.09-6.43 12.84-1q40.53 32.29 80.94 64.76c5 4 5.65 7.29 1.87 11.8-18.07 21.62-36.35 43.08-55.44 65.64-7.64-6-14.79-11.19-21.37-17-3.58-3.17-1-6.78 1.35-9.66 8.85-10.72 17.8-21.37 26.69-32.05.83-1 1.54-2.09 3-4.05l-9.46-8.2zM1794.43 2143l12.64-28.88c4.22-.85 9.26-.39 10.81-2.5 3.24-4.38 5.28-10 6.6-15.35 1.12-4.57-3.25-5.78-7.24-7.31-7.47 7.27-10.76 17.16-16 25.79-4.59 7.55-8.59 15.24-17.64 19.4-7.32 3.37-14.08 3.42-21.18 1.45-4.76-1.32-9.17-3.85-13.82-5.62-16.09-6.12-22.25-21.69-18.24-35.56 4.74-16.39 11.85-32.33 19.84-47.46 6.35-12 20.59-15.79 33.82-11.79 4.35 1.32 8.66 2.76 13.61 4.35-2.05 12.13-8 21.74-12.53 32.38l-9-.92c-6.79 4.68-8.16 12.51-10.81 19.56-1.49 3.94 1.09 6.39 4.23 7.92 2.94 1.43 5.82 1.09 7.7-2.14q6.48-11.16 13-22.34c.49-.85.78-1.83 1.24-2.71 9.32-17.84 21.2-22.82 40.3-16.27a77.83 77.83 0 0116.9 8.19c10.3 6.68 15 18.37 11 30.45a284.8 284.8 0 01-16.06 39.57c-8.04 16.02-27.6 24.48-49.17 9.79zM1490.22 2470.8l28.15-18c11 6.51 14.28 5.43 25.11-7.82-4.21-7.64-4.73-7.9-11.81-4.32-8 4-15.64 8.71-23.83 12.16-6 2.53-12.62 4.64-19 4.93-7.29.32-14.79-2-19.6-8.12-5.27-6.73-10.67-13.67-14.24-21.35-5.17-11.1-.72-25.69 10.2-33.8a371.26 371.26 0 0136.45-24.06c17.09-9.81 31.86-5.81 42.8 8.94 1.74 2.34 3.36 4.76 5.78 8.21-9 6-17.47 11.72-26 17.27-5.44 3.56-8.2-2.52-12.61-4-7.59 3.84-14.63 8.42-20.51 15.74l7.12 9c10.12-5.5 19.81-10.53 29.28-15.93 18.25-10.41 36.5-6.18 46.92 12 4 6.92 8.71 13.06 8.79 21.73s-3 15.84-9.72 20.78c-10.63 7.86-21.64 15.27-32.89 22.2a36.38 36.38 0 01-21.9 5.63c-13.42-.99-21.41-9.23-28.49-21.19zM274.7 2192.19l26.5-16.3 31.31 47 10.92-7.08c-10-15.09-19.66-29.6-30-45.14 7.71-4.66 14.56-9 21.67-13 3.46-1.92 5.46 1.05 7.12 3.55q9.93 14.88 19.73 29.84c1.81 2.74 3.58 5.51 6 9.26l12.23-6.94-31.1-45.86c7.81-6.84 16.8-10.94 25.65-16.9 17.64 26 36.09 50.84 53.16 77.92l-101.31 62.36zM1799.39 1759.53l118 37.06v48.27c0 4.79-3.32 5.81-7.12 6.74-14.48 3.54-28.91 7.25-43.35 10.92-20.85 5.3-41.69 10.65-62.55 15.9-1.79.45-3.74.29-6.46.48v-38.33l19.11-5.37v-30.92l-17.64-4.82zm77 63.76l-.18-2.11-28.6-7.53v15.88zM1872.62 1750.81l-27.25 1.55c-1.72-17.75-3.33-34.47-5-52.09l-14.47.79c1.66 19 3.24 36.9 4.86 55.3l-31 2.9c-2.85-30.45-5.67-60.67-8.63-92.33 10.8-.84 20.58-1.64 30.35-2.36q39.72-2.89 79.44-5.76c8.71-.64 9.23.11 10 9 1.82 21.77 4 43.5 5.94 65.26.43 4.9.49 9.84.75 15.33-5.57.72-10.39 1.59-15.24 1.92-4.61.31-9.25.06-15.28.06-1.67-17.82-3.28-35.08-4.91-52.57h-12.48c-2.55 17.81 5.17 34.78 2.92 53zM419.45 1329.64c-6 10-11.33 18.84-16.58 27.66-2.42 4-5.34 4.8-10 3.28-15.42-5-12.26-4.08-19.06 7.37-.67 1.14-1.29 2.32-1.92 3.49-6.64 12.26-6.63 12.25 3.68 22.65a37.72 37.72 0 012.77 3.72L358 1431c-5-4.88-9.35-8.8-13.36-13-14.17-15-28.22-30-42.34-45-7.75-8.24-15.62-16.36-23.31-24.65-6.21-6.71-6.26-7.8-1.73-15.54 5.54-9.46 11.41-18.75 16.58-28.41 2.59-4.85 5.83-5.57 10.61-4.38 18.36 4.61 36.79 9 55.15 13.6 18 4.53 36 9.25 54 13.92 1.47.35 2.91 1.01 5.85 2.1zm-99.39 9.26l-.93 1.64 24.39 21.84c2.69-5.13 5-9.44 7.59-14.47zM1114.78 912.24v29.27h-55.92c-.27 4.63-.51 8.68-.8 13.72l53.88 3.18v27.65l-53.14-2.13v14.41l55.07 1.64c3.45 10.12.35 19.47-.31 29.51l-91.58-2c-3.39-10.66-1.72-90.07 2.41-117.56zM285.34 1870.13c1.48 12.25 2.94 24.34 4.39 36.42-6.75 1.29-98.58-14.37-121.51-20.79-2.13-15.94-4.33-32.49-6.48-48.62 16.83-8.9 106.49-44.49 114-45.17q2.08 16.1 4.17 32.26c.5 3.94-1.38 6.1-5.12 7.3-4.07 1.3-8 3.08-12.55 4.89 1.27 10.13 2.48 19.87 3.73 29.92zm-50-25L202 1857.61l.3 1.53 34.44 3.39c-.48-6.09-.86-10.87-1.37-17.38zM1730.28 1473.63l-15.17-32.24c6.87-5.75 100.78-46.14 110.53-47.53 11.07 24.37 22.25 49 33.34 73.44-4.76 4.9-16.18 10.42-29.29 14.19-6.26-13.16-12.6-26.51-19.35-40.69l-11.64 4.61c3.57 14.46 12.14 26.61 15.11 41.06l-28 11.63-18-39.69zM1780.53 2184.12c5.32-8.37 10.24-16.13 15.89-25l28 16.16c-15.36 28.82-33.11 55.44-49.33 84.16-9.76-4.35-18.33-10.33-28.3-16.59 4.69-8.42 9.25-16.61 14.28-25.66l-74.82-43.22c1.77-4.1 3-7.77 4.87-11.11 2.88-5.21 6-10.3 9.33-15.25 3.51-5.26 4.72-5.56 10.56-2.31 15.94 8.86 31.77 17.92 47.67 26.85 6.88 3.85 13.87 7.6 21.85 11.97zM338.21 2286.44l24-19 20.7 21.62 67.81-54.06c7.61 8.7 14.61 16.52 21.39 24.53 3.17 3.75 1.13 6.57-2.16 9.17-10.94 8.67-21.78 17.47-32.66 26.21-9.76 7.85-19.54 15.68-29.88 24 5 6.23 9.65 11.81 14.13 17.5 4.06 5.15 4 6.2-1.23 10.4-5.86 4.74-11.9 9.25-18.29 14.18zM1875 1643.73c-2.09-9.54-3.91-17.89-6-27.57l-86 16.69c-2.68-12.33-5.17-23.75-7.87-36.16l85.45-17.71c-1.82-8.13-3.37-15.57-5.19-22.94-1-4.18-.59-7.31 4.25-8.24 8.07-1.56 16.16-3 25.24-4.73l21.16 94.14zM770.05 949.5l92.72-25.28c2.9 9 5.81 16.95 8 25.12 1 3.93-2 5.68-5.68 6.54-7.36 1.73-14.66 3.73-22.7 5.81 8.26 28.2 16.31 55.69 24.63 84.07l-35.5 9.77-24.58-83.84-28.2 7.9c-2.94-10.1-5.56-19.22-8.69-30.09zM328.71 1256.83l23.74-29.14 69.57 52.4 32-37.9a195.38 195.38 0 0125.29 19l-55.49 67.51zM160.1 1705.07l30.31 2V1735l87.11 2.5a325.57 325.57 0 010 35.35h-88.21c-.51 9.17-1 17.67-1.49 26.87h-28c.42-31.59.07-62.72.28-94.65zM561 2488.41c-9.35-6.78-18.36-13.33-28-20.37 2.41-3.66 4.24-6.71 6.33-9.57q27.78-38.19 55.65-76.31c5.28-7.21 6.36-7.36 13.56-2.5s14.22 9.64 21.28 14.44c-2.33 7.29-60.69 87.7-68.82 94.31zM162.65 1685.93c.51-6.23.81-11.74 1.45-17.21s1.65-11.07 2.7-18c39 3.85 77.52 11.09 117.09 15.2-1.09 12-2.12 23.35-3.24 35.62zM1034.9 2663.91c-18.52.47-32.81-12.74-32.66-31.14.13-15.68 11.67-31 32.22-30.77 18.12.21 31.66 13.84 31.59 31.5-.05 17.44-13.45 30.5-31.15 30.41zm-5.87-14c-3.51 1.67-7.1 2.56-7.3-1.9-.5-10.82-.16-21.68-.16-33.09 7.1 0 12.76-.45 18.32.1 8.71.87 12.6 9.62 7.8 16.92-1.41 2.13-3.2 4-4.94 6.14l7.64 11.52c10.78-10.62 7.54-25.67-1.43-34.38-8.33-8.09-21.81-6.87-28.18-1.63a25.58 25.58 0 00-5.63 33.29c6.26 9.75 18.05 12.51 29.29 6.84-6-4.44-6.22-13.5-14.71-17.22-.26 5-.47 8.93-.73 13.38zm12.74-21.55c-3.78-7.39-3.78-7.39-11.69-6.4v8.25zM416.44 640.4c-1.67-3.29-4-6-4.37-9a183.39 183.39 0 01-2-25.61c.05-6.5 1.55-13 2.77-19.49 2.21-11.68 4.86-23.29 7-35 2.71-14.64 8.9-27.66 17.73-39.51 1.78-2.39 4.13-4.39 5.74-6.87 5.63-8.69 13.69-10 23.38-9.53A255.28 255.28 0 01532 507.8a147.73 147.73 0 0116.67 6.35c7.86 3.62 10.18 8.5 8.73 16.85a19.94 19.94 0 01-1.43 5.77C548.49 551 547 567.2 541.32 582a65.16 65.16 0 01-8.23 14.73c-5.07 7-11.85 8-19.31 3.79-2-1.12-4-2.28-6.07-3.26-9.27-4.4-16.5-1.51-20.51 7.09a48.11 48.11 0 01-2.31 4.38c-6.6 11.22-13.28 12.85-24.67 6.07-9-5.38-13-4.64-19.51 3.64-13.13 16.72-13.13 16.72-24.27 21.96zm67.44-77.92c-1.35-3.8-2.85-7.79-4.18-11.84-2.34-7.12-1.37-8.57 5.56-10.8 8.47-2.72 16.33-1.41 24 2.55a62.43 62.43 0 006.36 2.46l1.2-2.27a45.06 45.06 0 00-5.66-4.29c-13.94-7.57-29.29-8-44.48-7.58-13.68.36-17.68 4.64-20.11 18.29a27.47 27.47 0 00-.57 8c.28 2.41 1.56 4.7 2.67 7.79 8-5.1 14.54-3.06 21.33.74s7 3.34 13.88-3.05zM594.11 479.13c3.8-7.8 3.61-15.24 2.77-23.29-2.07-19.89-14.55-29.4-32-34.85-13-4.07-26.35-2.37-39.58-2.89-3.95-.16-8.06-.21-11.77-1.36-2.72-.84-4.9-3.41-9-6.48 4.94-2.08 7.79-4.18 10.76-4.38 15.2-1 30.5-2.74 45.64-1.88 27.19 1.54 56.23 31.32 50 63.76-.67 3.52-1.15 7.51-.19 10.85 2.24 7.71-.54 14.57-3.11 21.19-3.35 8.6-8.84 9.26-16.42 3.69-9.42-6.92-16.41-15.36-19.1-27-2.86-12.34-12-17.58-23.27-20.21a39.62 39.62 0 00-4-.42c-4.25-.57-7.9-2-8.25-7-.24-3.48 4.38-7.14 9.68-6.48a94.63 94.63 0 0119.24 4.62c8 2.78 14.46 7.43 17.29 16.33 1.56 4.93 4.78 9.36 7.5 13.88.53.89 2.15 1.13 3.81 1.92zM496.73 692.22c-2.43 5.84-3.92 11.77-7.08 16.61-13.06 20-27 39.5-39.9 59.64-20.26 31.61-40.83 63-63.11 93.23-1.38 1.87-2.42 4.27-4.24 5.46-2 1.32-5.86 2.87-7 2-1.93-1.54-3.1-4.93-3.19-7.59-.07-2.43 1.3-5.19 2.75-7.32 10.29-15.11 20.86-30 31.15-45.12q13.44-19.73 26.47-39.73 25.57-39.24 50.93-78.61c.54-.83 1-1.92 1.83-2.31 2.23-1.1 4.95-3.06 6.82-2.49s2.84 3.73 4.57 6.23zM241.86 771c1.66-3.77 2.95-7.14 4.58-10.33q17.61-34.54 35.36-69c4.7-9.13 9.62-18.15 14.5-27.18a14.86 14.86 0 012.9-4c4-3.61 9.57-1.87 10.45 3.5a17.37 17.37 0 01-.79 8.76 267 267 0 01-10.94 25.49c-12.09 23.61-24.51 47.06-37 70.46a23 23 0 01-7 8.19 10 10 0 01-8.21.68c-1.83-.75-2.55-4.15-3.85-6.57zM521.89 465.64c8.23-6.94 10.79-7.27 16.41-1.06 6.86 7.59 12.61 16 15.77 27.52-3 .34-5.8 1.36-8.14.74a14.56 14.56 0 01-7.44-4.49c-5.84-7.35-11.16-15.18-16.6-22.71zM1811.24 738.71c-1.41 1.87-2.67 4.89-4.92 6.1a8.1 8.1 0 01-7.2-.54c-3.39-2.51-6.81-5.65-8.77-9.31q-21.13-39.36-41.54-79.11a36.64 36.64 0 01-3.71-13.22c-.53-6.09 4.84-9 9.9-5.37a22.91 22.91 0 016.38 7.46q23.07 41.24 45.78 82.68c1.72 3.14 2.49 6.81 4.08 11.31zM1506.55 465.21c-3.54-7.17.34-11.95 3.65-16.12 4.51-5.69 10-10.64 15.23-15.7a12 12 0 015.22-2.71c4.45-1.13 7.26 1.92 5.29 6.1a51.93 51.93 0 01-7.84 12.5 124.71 124.71 0 01-14.62 13.4c-1.79 1.46-4.57 1.72-6.93 2.53zM1551.65 450.27c-1.4 2.63-1.89 4.33-3 5.45-5.77 6-11.51 12-17.67 17.56-2.8 2.53-6.79 5.8-10.44 2.16-3.24-3.25-1.62-7.55 1.13-10.8 4.5-5.3 9-10.64 14-15.46 2-1.91 5.35-3.51 7.94-3.31s5.2 2.74 8.04 4.4zM1494.63 449.09c1.19-4.31 1.29-8.65 3.4-11.47 3.93-5.26 8.9-9.78 13.75-14.27 1.16-1.06 4-1.55 5.31-.86s2.79 3.72 2.27 4.78c-2.7 5.54-5.5 11.18-9.28 16-3.14 4.01-7.18 8.06-15.45 5.82zM1499.54 416.25c2 10.26-.1 13.45-10.52 16.65-2.62-7.9-.68-11.1 10.52-16.65zM1824.05 999.16c-8 7.42-9.62 16-8.92 25 1.21 15.71 10.18 27.73 19.77 39.29 3.81 4.59 8.31 8.63 12 13.32 1.36 1.74 2.39 5.33 1.49 6.81s-4.76 3-6.66 2.36c-7.16-2.29-14.49-4-20.53-9.42-12.42-11.08-20.59-24.82-28.19-39.38-10.31-19.76-7.2-38.57 2.37-56.91a42.32 42.32 0 0114.45-15.93c11.48-7.05 15.61-17.09 17.18-29.57 1.44-11.44 3.69-22.8 6.1-34.09.83-3.89 1.6-9.1 7.72-8.54 4 .37 6 4.58 6.79 10.67a86.9 86.9 0 003.61 16.17c1.19 3.68 3.22 6.53 8.14 7.53 3.21.65 6.57 4.67 8.24 8 4.71 9.41 10.56 17.14 19.64 23.14 5.16 3.41 8.55 10 11.75 15.71 2.93 5.24 6.33 9 12.23 10.75a26.9 26.9 0 018.48 4.93c7.74 6.12 8.89 19.79-3.7 24.74a68.48 68.48 0 01-12.41 3.56c-10.95 2-16.51 8.7-18.49 19.35-1.74 9.34-6.44 17.44-12.58 24.54-6.48 7.5-12.41 8.46-20.16 5.1-4-1.72-5.76-4-5.53-8.26.41-7.44-2.54-12.24-9.76-15.47-10.07-4.51-14.06-16-11.41-29.08 1.46-7.21 1.46-7.21-1.62-14.32zM233.87 996.17c3.5 4.44 6.79 8 9.41 12.07 4 6.22 3.2 8.09-1 14.23-5.42 7.89-12.25 13.8-21 17.22-3.1 1.21-7.39 1.91-10.28.73-12.28-5-22.43-12.74-28.44-25.12-7.31-15-5.15-25.3 7.87-36 6.13-5 12.11-10.29 18.37-15.18 8.06-6.29 12.92-14.33 13.15-24.55.29-12.88 7.94-17.34 21.32-12.34 11.43 4.28 19.26 13.21 26 22.47a140.69 140.69 0 0116.5 30.3 43.83 43.83 0 01-1.91 36.77c-7.77 15.33-18.19 28.56-33.62 37a37.14 37.14 0 01-10.17 3.79c-4.51.94-7.93-1.59-9-5.86-1-3.86 1.66-5.53 4.5-6.67 11.75-4.73 17.51-14.88 22.62-25.36 3.83-7.87 2.48-11.88-4.77-17-5.52-3.81-10.99-8.3-19.55-6.5zM292.85 977.33c-1.68-2.82-3.4-4.87-4.24-7.24-4.24-11.83-12.58-20.84-20.39-30.23-1.48-1.78-3.12-3.43-4.55-5.25-1.79-2.29-4.58-4.67-1.8-7.76s6.36-4.13 9.74-1.35c5.06 4.14 10.39 8.22 14.42 13.28 4.7 5.91 8.38 12.7 12.05 19.36 4.42 8.02 3.07 13.23-5.23 19.19z"/>
</svg>
