<?xml version="1.0" encoding="utf-8"?>
<!-- Generator: Adobe Illustrator 23.1.1, SVG Export Plug-In . SVG Version: 6.00 Build 0)  -->
<svg version="1.1" id="Layer_1" xmlns="http://www.w3.org/2000/svg" xmlns:xlink="http://www.w3.org/1999/xlink" x="0px" y="0px"
	 viewBox="0 0 432 72" style="enable-background:new 0 0 432 72;" xml:space="preserve">
<style type="text/css">
	.st0{fill-rule:evenodd;clip-rule:evenodd;}
</style>
<polygon points="138.76,14.01 127.68,41.22 116.61,14.01 107.27,14.01 123.01,52.63 132.29,52.63 148.03,14.01 138.76,14.01 "/>
<path d="M158.25,53.3c8.6,0,15.8-6.97,15.8-15.23c0-8.26-7.2-15.18-15.8-15.18c-8.66,0-15.91,6.91-15.91,15.18
	C142.34,46.33,149.59,53.3,158.25,53.3L158.25,53.3z M158.25,46.39c-4.38,0-8.04-3.82-8.04-8.32c0-4.5,3.65-8.26,8.04-8.26
	c4.33,0,7.98,3.77,7.98,8.26C166.23,42.57,162.58,46.39,158.25,46.39L158.25,46.39z"/>
<path d="M191.45,45.43c-0.56,0.56-1.69,0.96-2.81,0.96c-1.52,0-2.75-1.35-2.75-3.26V30.2h6.3v-6.63h-6.3v-7.98h-7.87v7.98h-3.99
	v6.63h3.99v14.22c0,5.23,3.6,8.88,8.71,8.88c2.36,0,5-1.01,6.69-2.53L191.45,45.43L191.45,45.43z"/>
<path d="M199.19,19.57c2.42,0,4.39-2.02,4.39-4.5c0-2.31-1.97-4.39-4.39-4.39c-2.53,0-4.5,2.08-4.5,4.39
	C194.69,17.55,196.66,19.57,199.19,19.57L199.19,19.57z M195.03,52.63h8.21V23.56h-8.21V52.63L195.03,52.63z"/>
<path d="M223.74,22.89c-3.77,0-7.03,1.69-8.77,4.33v-3.65h-8.21v29.06h8.21V35.26l0.06,0.17c0-3.15,2.64-5.62,6.07-5.62
	c3.26,0,5.51,2.47,5.51,6.07v16.75h7.93V34.13C234.53,27.56,230.03,22.89,223.74,22.89L223.74,22.89z"/>
<path d="M259.02,23.56v3.94c-1.97-2.75-5.68-4.61-9.61-4.61c-7.31,0-12.87,5.68-12.87,13.77c0,8.09,5.57,13.83,12.87,13.83
	c3.82,0,7.31-1.69,9.61-4.5v3.2c0,3.77-3.37,6.18-8.66,6.18c-3.37,0-6.75-1.07-8.66-2.75l-2.87,5.79c2.87,2.25,7.7,3.88,12.82,3.88
	c9.16,0,15.63-5.28,15.63-12.76V23.56H259.02L259.02,23.56z M251.99,43.58c-4.1,0-7.03-2.87-7.03-6.91c0-4.05,2.92-6.86,7.03-6.86
	c4.1,0,7.03,2.81,7.03,6.86C259.02,40.71,256.09,43.58,251.99,43.58L251.99,43.58z"/>
<polygon points="281.72,52.63 286.05,52.63 296.84,19.74 307.58,52.63 311.91,52.63 325.12,14.01 320.17,14.01 309.49,45.26 
	299.26,14.01 294.37,14.01 284.14,45.26 273.46,14.01 268.51,14.01 281.72,52.63 "/>
<path d="M336.29,53.3c8.15,0,15.01-6.97,15.01-15.23c0-8.26-6.86-15.18-15.01-15.18c-8.15,0-15.07,6.91-15.07,15.18
	C321.22,46.33,328.13,53.3,336.29,53.3L336.29,53.3z M336.29,49.54c-5.79,0-10.63-5.23-10.63-11.47c0-6.18,4.83-11.41,10.63-11.41
	c5.73,0,10.57,5.23,10.57,11.41C346.85,44.31,342.02,49.54,336.29,49.54L336.29,49.54z"/>
<path d="M359.29,29.24v-5.68h-4.22v29.06h4.22V36.38c0-5.68,4.67-9.73,11.24-9.73v-3.77C365.19,22.89,361.03,25.36,359.29,29.24
	L359.29,29.24z"/>
<polygon points="398.26,23.56 392.86,23.56 376.95,39.64 376.95,13.33 372.74,13.33 372.74,52.63 376.95,52.63 376.95,44.93 
	382.18,39.76 392.24,52.63 397.53,52.63 385.16,36.89 398.26,23.56 "/>
<path d="M410.02,53.3c6.02,0,10.63-3.43,10.63-8.77c0-5.51-4.84-7.08-9.5-8.54c-5.4-1.74-7.53-2.53-7.53-5.06
	c0-2.81,2.7-4.27,5.96-4.27c2.59,0,5.45,0.9,8.38,2.75l2.02-3.26c-3.09-2.02-6.8-3.26-10.4-3.26c-5.79,0-10.18,3.26-10.18,8.54
	c0,4.16,2.7,6.24,9.73,8.26c3.93,1.12,7.31,2.14,7.31,5.28c0,2.75-2.59,4.55-6.41,4.55c-3.2,0-6.52-1.24-9.84-3.65l-2.19,3.09
	C401.47,51.79,405.97,53.3,410.02,53.3L410.02,53.3z"/>
<path id="SVGID_21_" class="st0" d="M13.22,30.11c2.48-2.48,6.5-2.48,8.98,0l13.47,13.47l13.47-13.47l17.96-17.96
	c2.48-2.48,6.5-2.48,8.98,0c2.48,2.48,2.48,6.5,0,8.98L58.11,39.09L40.15,57.04c-2.48,2.48-6.5,2.48-8.98,0L13.22,39.09
	C10.74,36.61,10.74,32.59,13.22,30.11L13.22,30.11z M29.66,12.19c3.32-3.32,8.7-3.32,12.01,0c3.32,3.32,3.32,8.7,0,12.01
	c-3.32,3.32-8.7,3.32-12.01,0C26.34,20.89,26.34,15.51,29.66,12.19L29.66,12.19z M69.78,57.12c-2.48,2.48-6.5,2.48-8.98,0
	c-2.48-2.48-2.48-6.5,0-8.98l0,0l21.14-21.14c2.48-2.48,6.5-2.48,8.98,0c2.48,2.48,2.48,6.5,0,8.98L69.78,57.12L69.78,57.12z"/>
</svg>
