<svg xmlns="http://www.w3.org/2000/svg" viewBox="0 0 1008 1008">
  <circle cx="504" cy="504" r="504" fill="#fff"/>
  <path d="M740.08 492.84c-5-6.4-8.54-13.49-4.37-21 5.73 3.5 5.82 13.1 7.18 19.31-.87.49-1.84 1.07-2.81 1.65M7.2 473.53c2.33-.87 5.63-3.3 6.89-2.52 8.73 5.34 17.66 10.48 24.94 17.47 3.39 3.1 3.49 10 4.17 15.42.19 1.26-4.66 4.66-5.73 4.18-11.44-6-25.61-9-30.27-23.78zm993.6 59.39c-1.55 5.14-5 5.91-9.31 3.68-5.83-3-11.55-6-17.28-9.22-8.53-4.75-11-12.61-10-21.83.58-5.33 2.91-7.27 8.05-4.66 11.94 6 23.87 12 28.53 26zm0-27.37c-15.43 1.85-36-12-37.36-25.71-.29-3 .3-7 2.24-8.83 1.16-1.17 5.62.1 8.24 1.16 11 4.47 21.35 9.8 26.88 21.25zM487.21 1000.8c-.58-1.94-2-4.17-1.45-5.53 4.85-10.67 8.44-22.41 20-28.53 1.84-.87 3.78-2 5.63-2 3.39-.09 6.79.59 10.18 1-.48 3.3-.09 7-1.45 9.9-4.76 9.61-7.86 20.48-19 25.23zM7.2 504c1.65-.58 3.49-2 4.76-1.55 11.45 4.36 23.67 7.76 30.08 19.79a13.78 13.78 0 0 1 1.84 5.76c.1 3.1-.58 6.3-1 9.41-3.11-.29-6.5-.1-9.32-1.26-10-4.27-21-7.47-26.39-18.34zm480-496.8c.68 1.55 2.24 3.49 1.85 4.75-4.37 12.13-7.18 25.52-20.48 31.83-2.91 1.36-6.4 2.33-9.31 1.84-1.84-.29-5.14-4.36-4.66-5.43 5.24-12.32 6.7-27.46 22.13-32.8l10.47-.19zm33.48 0c.39.68 1.07 1.26 1.26 1.94 3.2 14.46-16.49 36.39-30.95 34.74-5.34-.58-6.79-3.5-4.66-7.67 5.64-11.45 10.39-23.77 23.75-28.82l10.58-.19zm0 993.6c-.68-2-2.43-4.46-1.84-6 3.49-8.63 6.69-17.56 11.45-25.42 4.27-7 12.22-7.47 19.79-6.6 4.46.49 4 3.69 2.82 6.89-4.86 12.52-9.42 25.13-23 31.15zM384.36 798.39c5.44 1.94 11 3.4 16.11 5.92 4.95 2.33 5.43 6.21.29 9.12a185.09 185.09 0 0 1-21 10.68c-10.28 4.17-19.89 1.16-28.91-4.18-4.27-2.52-5.05-6-.3-8.63 10.48-5.92 20.87-12.13 33.77-12.91m-96.84-551c-1.16-12.81 2.33-25.32 15.43-33.18 2.53-1.55 5.92-1.85 8.93-2.62.78 2.81 2.43 5.82 1.94 8.34-1.65 10.09-2.91 20.48-6.4 30-1.85 5-7.67 9.21-12.52 12.61-5.05 3.59-7.67 1.75-8.05-4.66a34.69 34.69 0 0 1 0-4.56c.29-1.45.38-3 .67-5.92m204.39 607.27a5.75 5.75 0 0 1-1.36 0c-3.88-1.16-7.76-2.42-11.64-3.69 1.84-3.39 3.3-7.18 5.72-10.18 7.67-9.22 15.72-17.86 28.44-19.9 1-.19 2-.77 2.91-.48 4.27.87 8.53 1.94 12.8 2.91-1.84 3.69-3.2 7.57-5.43 10.77a86.4 86.4 0 0 1-10.23 12.13 26.88 26.88 0 0 1-21.25 8.44m349.35-254.51a5.25 5.25 0 0 1-.19 2.33c-2 5-4.27 9.8-6.4 14.75-3.5-3.3-7.18-6.41-10.29-9.9a88.41 88.41 0 0 1-7.47-10.34c-6.31-10.29-5-20.67-.49-31.05 1.75-3.89 5-5.92 8.06-1.94 8.15 10.57 16.4 21.25 16.78 36.19m-29.69-248.5c-6.69-1.26-14.16-2.33-21.54-4.17-11.06-2.82-16.88-11.26-20.76-21.35-1.46-3.78-.29-7.08 4.27-6.6 14.07 1.75 28.33 3.4 38.62 14.85a32.93 32.93 0 0 1 5.82 9.7c2.33 5.82.48 8.06-6.41 7.57M655.27 810.72c1.26-6.6 2.14-14.27 4-21.55 2.91-11 11-17.36 21.35-20.66 1.74-.58 6.11 1.55 6.5 3.1 3.49 14.95-10.19 40-24.26 45.32-5.92 2.32-8 1-7.57-6.21m39.4-33.19c-1-12.61 2.52-24.94 15.72-32.7 2.42-1.36 6.11-3.1 8.15-2.13 1.74.77 2.81 5.24 2.42 7.76-1.16 9.41-1.74 19.31-5 28-2.43 5.92-8.74 10.87-14.07 15.14-4.47 3.49-7.57 1.07-7.67-4.56 0-3.11.29-6.41.49-11.55M432.59 158.76c4.56-.29 7.66 1.36 5.72 6-5 11.93-9.9 24-21.44 31.44-1.26.87-2.53 1.94-4 2.13-5.24.68-10.58 1-15.82 1.36 1.17-4.46 1.85-9.12 3.59-13.2 2.62-5.92 5.44-12 9.32-17.27 5.33-7.37 13.78-9.51 22.61-10.48M250.26 295.67c.1 13.2-2.62 21.74-9.41 28.63-5 5.24-8.25 4.56-10-2.14s-3.3-13.19-4.47-19.89c-1.94-11.54 2.92-20.76 11-28.43 4.37-4.17 7.76-3.3 9.31 2.62 1.75 7.47 2.82 15.14 3.59 19.21m225-144.77c8.83 1.36 11 4.18 6.31 10.68-5.73 8.15-11.84 16.59-19.41 22.8-5 4.07-13 4.75-19.79 5.92-3.5.68-7.28-1.85-4.66-5.92 5.63-8.93 11.06-18.34 18.43-25.52 4.57-4.66 12.62-5.43 19.12-8m332 524.17c-2.91 6.69-5 13.77-8.83 20.18-3.1 5.43-6.69 5-9.12-.78a193.46 193.46 0 0 1-7.86-22.12c-2.91-10.77 1.36-19.89 8.05-28 3.3-4 7-3.59 8.74 1.36 3.2 9.22 5.72 18.73 9 29.31M575.22 847.49c-5.14.19-7.18-1.94-5.24-6.5 3.5-7.76 6.79-15.72 11.16-23 5.53-9.21 15.14-12 25.23-12.9 1.65-.2 5.14 3.39 5 5-.77 14.07-18.43 33.87-32.11 36.68a16.17 16.17 0 0 1-4.08.68m-147.1-35.76c4.07 1.06 8.34 1.84 12.32 3.3 6.11 2.42 6.6 5.53 1.16 9.7a200.18 200.18 0 0 1-16.78 11.74c-10.19 6.4-20.67 5.24-31.15.29-4.27-1.94-5.34-5.34-1.55-8.15 10.57-8 21.25-16.4 36-16.88m352.32-499c-14.75.88-27.08-3.2-34.84-16.69-1.36-2.42-2.42-5.91-1.55-8.15.58-1.45 5-2.52 7.37-2 9.9 1.45 20.09 2.52 29.4 6 5.34 1.94 9.8 7.67 13.49 12.62 4 5.43 2.14 8.15-4.66 8.34-3.2 0-6.21-.1-9.21-.1M704.27 226c13.69 0 22.52 3.1 29.4 10.47 3.89 4.18 2.92 7.38-2.42 8.74-7.57 1.94-15.14 3.88-22.9 4.75-11 1.36-19.41-3.88-26.68-11.45-4-4.17-2.82-7.57 2.42-8.73 7.86-1.84 15.82-3.11 20.18-3.78M450.83 852c-6.11-2.33-11.35-4.27-16.59-6.31 3-4.17 5.62-8.92 9.21-12.61 9.9-9.8 21.35-16.11 36-13.1 2.72.58 5.05 2.62 7.76 4-1.45 2.52-2.62 5.34-4.56 7.37-4.17 4.27-8.34 8.93-13.48 12.13-5.63 3.59-12 5.73-18.34 8.54M319.08 234.64c3.49-12.13 4.85-23.29 9.9-32.6 3.1-5.92 11.25-9.32 17.56-13.2 3.49-2.23 7.18-.29 6.69 3.88-1.94 14.17-3.49 28.82-15.23 39a32 32 0 0 1-11.16 6c-2 .58-4.75-1.75-7.76-3.11M209.61 381.93c-2.82 7-4.85 13.2-7.76 18.83-.59 1.16-5.34 1.94-6.41.87-12-10.77-17-33.67-10.28-47.35 1.45-3 4.36-5.24 6.59-7.86 2.33 2.52 5.44 4.56 6.7 7.57 4 9.12 7.37 18.44 11.16 27.94m121.77 425.49c-6.69-3.5-14-6.8-20.66-11-1.17-.77-1.46-6-.3-7.08 10.39-9.51 37.85-11.06 49.3-2.91 2.32 1.65 3.78 4.36 5.62 6.6-2.33 1.74-4.46 4.17-7.08 5.14-8.25 3.2-16.88 5.82-26.88 9.22m-82.3-87.79c-13.78 1.36-26.2-2.62-34.06-16-1.36-2.42-2.42-5.82-1.94-8.24.29-1.27 4.85-2.33 7.28-1.94 9.22 1.06 18.92 1.35 27.46 4.65 6.21 2.53 11.55 8.64 15.91 14.27 4 4.94 2 7.47-4.56 7.76-1.45.1-3 0-4.56 0-1.65-.2-3.1-.29-5.53-.49M165.75 408c1.55-5.34 2.62-10.77 4.85-15.72.78-1.56 5.44-3.11 6.7-2.33 12.61 8.05 20.66 34.44 15.13 48.42-2.91 7.18-6 8-10.28 1.65-6.41-9.8-16.3-18.15-16.4-32m672.62-19.12c-2.62 2.23-4 4.37-5.63 4.66-14.94 2.33-37.45-12.71-41.82-27.95-.77-2.52-1.36-6.89-.29-7.66a9.83 9.83 0 0 1 8.25-.68c9.41 4.07 19.31 7.76 27.46 13.68 5.34 3.69 7.86 11.35 12 17.95m-16.76 100.84a17.85 17.85 0 0 1 .1-4.56c.68-2.33 1.36-6 2.82-6.41a8.51 8.51 0 0 1 7.37 1.94c7.47 8.06 15.52 15.92 21.25 25.13 2.91 4.76 1.84 12.13 1.65 18.34 0 1.26-5 3.79-5.53 3.3-9.9-8.05-22.22-13.78-26.3-27.26-1-3.3-1.26-7-1.84-10.39a1.11 1.11 0 0 1 .48-.09m-633.61-18.25a3.49 3.49 0 0 1-.1 1.46l-4.95 12.81c-3.39-2.43-6.88-4.56-9.89-7.28s-5.63-5.92-8.35-8.83c-8.83-9.7-9.31-20.86-5.92-32.7 1.07-3.69 3.59-6.4 7.18-3.1 10.77 10.38 21.16 21.25 22 37.64m15.14 138.18c-20.48 1.94-43.38-17.66-43.57-35.52-.1-3.68 1.16-7.37 5.63-5.53 13.1 5.24 26.58 10.48 33.38 24.07 2.62 5.14 3.1 11.16 4.56 17m315.77-458.3a48.8 48.8 0 0 1 5.24.39c4.75.87 7.08 3.39 3.49 7.76-5.14 6.5-10.29 13.2-16.2 18.82-7.86 7.67-18.15 8.15-28.34 6.21-1.65-.29-4.07-4.07-3.68-5.53 3.39-12.42 25.9-27.94 39.49-27.65m-124.11 22.12c-.29 17.86-14.16 38.43-27.84 42.5-2.62.87-5.73.2-8.64.2 0-2.72-.48-5.44.19-8.06 1.36-5.34 3-10.67 4.76-15.91 4-12.23 13.1-18.83 25.32-21.06 2.14-.48 4.66 1.75 6.21 2.33m187.66 21.64c-5.33-1.46-10.67-2.72-15.81-4.66-3.59-1.36-5.44-4.75-1.85-7.57 11.94-9.41 24.16-18.72 40.76-16.49a32.45 32.45 0 0 1 7.27 1.94c6.8 2.72 7.57 6 1.65 10-9.8 6.6-18.34 16.4-32 16.79M530.98 854c-1.36-.48-5.15-.87-5.92-2.52-.78-1.84.68-5.24 1.94-7.47a154.11 154.11 0 0 1 10.67-16.59c7-9.51 17.18-11.94 28.24-11.65 4.07.1 6.79 2.52 4.65 6.41-7.27 13.09-14.94 26.1-30.66 30.75-2.52.68-5.14.59-8.92 1.07M260.16 727.56c12-.29 24.26 2.23 32.8 13.78 4 5.43 2.91 8.15-4 8.83s-14.07 1.26-21.06 1.65c-11.93.68-20-5.92-26.39-14.85-3.39-4.56-1.84-7.57 3.69-8.25 4.56-.38 9.12-.67 14.94-1.16m594.8-250.73c-.29.68-.77 4-2.52 5.34-1.36.87-4.75-.49-6.79-1.65-5.53-3.11-10.77-6.5-15.91-10.09-10.48-7.18-13.59-17.66-12.62-29.69.2-1.75 3.49-4.76 4.85-4.47 14.17 2 32.61 23.87 33 40.56M676.43 199.52c6.79 3.1 14.16 5.91 20.95 9.8 4 2.32 3.5 6.11-1.06 7.86-7.77 3.1-15.43 6.4-23.39 8.24-10.28 2.53-19.4-1.36-27.26-7.95-4.18-3.5-4.08-7.18 1.26-9 9.22-2.91 18.53-5.62 29.5-8.92M827.6 638c-2.62 6.89-4.56 12.81-7.37 18.24-.78 1.36-5.24 2.52-6.41 1.65-9.31-6.89-16.3-31.92-12.42-43.18a13.85 13.85 0 0 1 1.36-3.49c2.23-2.91 4.56-5.63 7-8.44 2.42 2.62 5.62 4.85 7.08 8 3.88 8.93 7.18 18 10.77 27.27M191.27 560c0 10.38-2.33 11.93-9.32 7.76-5.14-3.11-10.38-6.31-15.33-9.7-10.28-7-13.48-17.08-13.29-28.82.1-4.27 2.13-7.57 6.6-5.24 12.52 7 25.32 14.26 30.08 29.2a38.23 38.23 0 0 1 1.26 6.8m427 277.89c-2.42-3.2-4.56-4.75-4.75-6.59-1.26-15.43 11.93-36 26.29-40.66 3.11-1 6.7-.39 10.1-.48-.1 3.1.68 6.59-.49 9.31-3.49 8.54-6.69 17.66-12.13 24.94-4.36 5.43-11.84 8.54-19 13.48M230.66 686.13c-6.11-1.26-14.16-2.43-21.92-4.66-10-3-15.34-11.16-18.73-20.47-.58-1.65 1.45-6.21 3-6.5 14.94-3.59 39.2 9.21 45 23.19 3 6.89 1.65 8.92-7.38 8.44m618.32-252.19c-1.36.88-3.5 3.4-5.44 3.21-15.23-1-33.28-15.92-36.48-30a19.4 19.4 0 0 1-.58-8.15c.29-1.45 2.81-3.68 4.27-3.68 14.45.38 35.22 19.5 37.55 34.34.1.68.19 1.46.68 4.27M538.16 188.75c-6.7-2.62-11.84-4.76-17-6.8 3.29-4.17 6.11-8.73 9.89-12.42 9.22-8.92 19.8-15.13 33.28-13.19 3.5.48 6.6 2.91 9.9 4.46-1.84 2.81-3.39 5.92-5.63 8.35-3.2 3.59-6.59 7.27-10.57 9.7-6.31 3.88-13.2 6.6-19.89 9.9m-258.67 68.69c.68 13.2-1.94 25-12.9 33.87-5.92 4.75-8.83 3.68-9.9-3.79-.78-6.21-1.36-12.51-1.75-18.72-.68-12.23 5.24-21.16 14.75-28.05 4.37-3.1 7.67-2.52 8.54 3.3.68 4.37.87 8.93 1.26 13.39m540.37 277.61a96.26 96.26 0 0 1 1.74-9.7c1.27-5 4.76-7.67 8.45-3.21 7.08 8.64 14.26 17.66 19 27.66 2.53 5.34.59 13.19-.19 19.79-.19 1.26-5 3.5-5.63 3-10.13-10.37-23.13-19.1-23.37-37.54M228.08 341c-3.1 6.89-5.82 14-9.5 20.57-2 3.69-6 4.36-8-.49-3.3-8.15-6.7-16.4-8.64-24.93-2.33-9.8 1.75-18.34 7.77-25.81 3.88-4.76 7.27-4.37 9.41 1.35 3.3 9.22 5.72 18.63 8.92 29.31m-49.87 271.3c15.72 5.24 33.09 9 39.1 28.43.78 2.42 1.27 6.11-.09 7.66-1.17 1.36-5 .88-7.47.29a151.43 151.43 0 0 1-17.28-5.24c-11.93-4.17-17.75-13.39-20.47-25.13-1.16-4.56 1-6.6 6.21-6m8.25-93a23.25 23.25 0 0 1-.39 4.37c-1.07 4.75-3.88 5.92-7.67 2.91-6.69-5.34-13.58-10.68-19.4-16.89-7.38-7.85-7.67-17.85-5.63-27.75.29-1.45 4.85-3.68 6.5-3.1 13.2 4.85 26.69 25.13 26.59 40.46m114.11 236.87c9.89.68 18.53 3.59 25.32 10.77 4.56 4.76 4 7.57-2 9.13a207 207 0 0 1-22.8 4.75c-11 1.55-19.4-3.69-26.68-11.35-4-4.17-2.82-7.47 2.52-8.64 8-1.84 15.82-3.2 23.68-4.66m431.51-501.65c12.91-.48 24.74 1.85 33.28 12.81 4.76 6.11 3.79 9-3.78 9.8-7 .87-14.07 1.36-21.06 1.55-11.45.29-19.4-6.11-25.81-14.84-3.39-4.66-1.36-7.67 3.88-8.44 4.37-.49 9-.49 13.49-.88m-93.34-75.1c7.18 2.72 13.19 4.66 18.72 7.47 1.27.68 2.14 5.34 1.27 6.41-10 12.42-34.64 17.27-48.71 9.8-2.43-1.36-5.63-3.89-5.73-6-.1-1.94 3.2-5 5.63-6 9.51-4.27 19.31-7.86 28.82-11.64m113.47 550.81c.77 13.19-1.36 25.32-12.42 34.05-6.12 4.86-8.83 4-9.9-3.59-.87-6.5-1.46-13.09-1.84-19.6-.68-12 5.62-20.66 14.84-27.46 4.56-3.39 7.76-1.74 8.44 3.69.68 4.27.59 8.54.88 12.91m28.87-26.49c.29 11.45-2.14 21.05-10.1 28.52-4.56 4.27-7.37 3.69-9-2.42a211.34 211.34 0 0 1-4.56-20.67c-1.84-11.25 2.52-20.28 10.48-27.85 4.85-4.65 7.76-3.78 9.7 2.53a59.74 59.74 0 0 1 1.36 5.91c.78 5 1.46 10 2.14 14M705.92 87.64c-2.91-.2-4.07.1-5-.29-4.36-2.23-8.53-4.76-12.8-7.09 2.81-3.2 5-7.18 8.44-9.5A152.59 152.59 0 0 1 716.08 60a9.36 9.36 0 0 1 6.7-.38c4.07 1.45 7.86 3.78 11.74 5.72-2.43 3.2-4.47 6.79-7.28 9.51a66.29 66.29 0 0 1-12 9.22c-3.2 1.84-7.18 2.72-9.32 3.59m-635 622.07c-9-.1-19.41-.59-24.74-12-4.08-8.73-2.43-11.83 7.08-11.06 6.7.58 14 .39 20.09 2.82 5.46 2.07 10.73 6.51 14.29 11.39 4.46 5.92 2.13 9.31-5.14 9.6-3.4-.09-6.7-.48-11.55-.77M69.2 350.88a64.46 64.46 0 0 1-1.55 6.6c-1.84 5-5 6.41-9.12 2.53a190.43 190.43 0 0 1-15.91-17.28c-5.53-7-4.47-14.84-.39-22.12.87-1.65 5.63-3.3 6.21-2.62 9.41 9.12 20.28 17.37 20.76 32.89m275.77 623c-1.75-.3-3.69 0-5.24-.78-3-1.46-5.82-3.59-8.74-5.34 1.75-2.62 3.11-5.63 5.24-7.86 3.59-3.88 7.28-8 11.75-10.67a35.21 35.21 0 0 1 14.65-5.43c4-.3 8.34 2.32 12.51 3.68-1.84 3.59-3.2 7.47-5.62 10.58a45.61 45.61 0 0 1-9.71 9.61c-4.36 3.1-9.41 5.14-14.07 7.56-.29-.48-.58-1-.77-1.35m212.5 24.54c-6.6.2-8.83-2-7.38-6.5 2.43-7.66 4.85-15.42 8.25-22.7 3.69-8.15 11.35-10.48 19.5-10.38 1.75.09 5.14 3.68 4.85 4.65-3.39 11-5.14 23-15.33 30.47-3.39 2.43-7.66 3.59-9.89 4.46m252.18-845.58c-4.27-.87-7.18-.68-9-1.94-4-2.91-7.18-6.59-10.87-9.89 3.49-2.53 6.6-5.53 10.38-7.38 5.05-2.33 10.38-4.66 15.72-5s11 .87 16.11 2.71c2.62.88 5.72 4.37 5.82 6.89.1 1.94-3.69 4.85-6.41 6-7.56 3.39-15.33 6.21-21.73 8.63M283.74 78.42c-.58-10.09.39-20.67 12.61-26.1 7.57-3.4 10.39-1.75 10 6.5-.29 6.5-.39 13.2-1.46 19.6a22.32 22.32 0 0 1-12.71 16.88c-5.53 2.62-8 1.17-8.44-4.94-.19-3.59 0-7.09 0-11.94m272.34-30.66c-3.88-1.46-8.83-1.94-10.19-4.46-1.17-2 1.36-6.89 3.3-9.8a93.44 93.44 0 0 1 11.09-14.27c5.43-5.53 12.42-7.57 20.18-6.31 3.79.68 6.79 2.62 4.17 6.6a187.9 187.9 0 0 1-16.78 23.19c-2.43 2.82-7.57 3.3-11.74 5m403.16 523.34c.49-2.72.29-5.92 1.65-8.06 1.26-1.74 5.53-3.68 6.6-2.91a221.79 221.79 0 0 1 20.86 17.28 12.81 12.81 0 0 1 3.59 8.15c.1 4.75-1.07 9.51-1.75 14.26-3.78-1.46-7.76-2.52-11.35-4.56-4-2.23-8-4.66-11-8-4-4.46-6.79-9.8-10.19-14.84a10.07 10.07 0 0 1 1.55-1.36m-128.15-397.5c-3.49-1.16-6.89-1.36-9-3.2-3.59-3.11-6.4-7.18-9.61-10.87 3.5-2 6.89-4.56 10.58-6 4.66-1.94 9.61-4 14.46-4.08a46.84 46.84 0 0 1 16.69 3.3c2.81 1.07 4.56 4.95 6.69 7.57-2.62 2-4.95 4.75-7.86 6-7.18 2.82-14.75 4.86-21.93 7.28m155.53 449.16c-.77 1.84-1.35 6.4-3.68 7.57-1.94 1-6.21-1.46-8.93-3.3a136.09 136.09 0 0 1-12.42-9.9c-7.28-6.5-9.61-15.43-5.82-24 .78-1.94 5.63-4.26 6.4-3.68 10 7.47 21.54 13.87 23.87 27.85.2 1.16.29 2.42.58 5.43m-551.33 374c-4.56-1-7.47-1.07-9.8-2.43-1.36-.77-3-4.17-2.42-5.14 6-9.8 11.16-20.57 22.61-25.71a8.33 8.33 0 0 1 3.59-1.07c4.36.29 8.73 1 13.09 1.45-1.26 3.79-1.84 8.06-3.88 11.45-3.2 5.34-6.69 11-11.15 15.14-3.5 3.4-8.74 4.66-12 6.31m266-56.18c-.59-10.39-.1-21.35 12.61-27 7.67-3.39 10.38-1.74 10 6.6-.29 6-.38 12.13-1.26 18.14a23.26 23.26 0 0 1-12.51 18c-5.83 3.11-8.54 1.75-8.93-4.75-.1-3.3.1-6.6.1-11.06M961.5 540.68c1.56-4.17 1.94-9 4.18-10.19s6.69.87 9.31 2.62c5.63 3.69 12.23 7.08 15.91 12.42 3.69 5.14 4.95 12.23 6 18.73.58 3.59-2.43 6.59-6.5 4.27-7.76-4.56-15.72-9.22-22.61-14.95-3.2-2.91-4.17-8.63-6.31-12.9M746.87 74.15c1 0 2.23-.29 3 .1 4.07 2 8.15 4.27 12.22 6.5-2.52 3.1-4.75 6.6-7.76 9.12A95.65 95.65 0 0 1 740.47 99c-8.15 4.56-15.72 2.33-22.61-3-1.46-1.06-2.33-6-1.46-6.69 9.22-6.89 17.95-15 30.47-15.14m-666.9 247c-.19 1.26 0 3.11-.77 4.66a78 78 0 0 1-5.53 8.44c-2.62-1.84-5.63-3.2-7.67-5.43a112.88 112.88 0 0 1-11.06-13.49c-5.14-7.18-5.14-17.66.1-24.06 1.26-1.46 5.82-2.62 6.6-1.85 8.15 9 17.75 17.57 18.33 31.73m30.18 468.57c-10.38.09-18.34-4.66-21-12.62-.68-1.84 1.35-6.5 2.52-6.69 9.41-1.07 19-1.55 28.53-1.94a8.51 8.51 0 0 1 6.11 2.52c3.49 3.69 6.31 8 9.41 11.93-4 1.65-7.86 3.79-12 4.76-4.76 1.36-9.9 1.55-13.49 2m168.25-712c1.26 12.52.1 22.61-9 29.79-2.33 1.84-6 3.11-8.73 2.72-1.36-.29-2.53-4.85-2.91-7.67a172.51 172.51 0 0 1-1.07-17.27c-.1-8.64 4-14.85 11.55-18.92 6.88-3.69 9.6-2.23 10.18 5.63v5.72m648 681.84c-.2 1.36.1 3.11-.58 4.27-2 3.78-4.56 7.37-6.8 11-2.91-2.62-6.4-5-8.83-8.15a85.73 85.73 0 0 1-8.21-12.66c-4.17-8-3.1-17.66 2.91-23.77 1.36-1.36 6.41-1.94 7.08-1 6.51 9.41 14 18.24 14.27 30.37M53.29 411.43c-.78 1.55-1.55 6-4.07 7.57-1.56 1-6.21-1.84-8.83-3.69a132.64 132.64 0 0 1-13.88-11.74c-6.6-6.4-7-14.36-3.69-22.51.68-1.75 5.05-4 5.83-3.3 10.18 7.38 21.44 13.88 24.25 27.75a44.42 44.42 0 0 0 .39 5.92m914.52 267.71a40.63 40.63 0 0 1-1.07 6.31c-2 6.5-5.43 7.57-10.38 2.72A183.4 183.4 0 0 1 942 672.54c-5.72-7.08-5-15.13-1.16-22.8.77-1.65 5.53-3.59 6.11-3 9.41 8.93 20.28 17.08 20.86 32.41M617.24 57.46c-1.56-.19-2.91 0-4-.48-3.11-1.36-6.11-3-9.22-4.56 1.46-3 2.52-6.41 4.56-8.93a79.6 79.6 0 0 1 12.81-12.81c6.21-4.85 13.68-6.79 21.35-3.69 1.84.78 4.17 5.05 3.68 5.73-6.79 9.22-12.71 19.7-24.25 24.06a23.33 23.33 0 0 1-5 .68m25.13 914.72c1-6.6 1.74-13.88 3.39-21 1.85-8 10.1-14.85 18-15 1.85 0 5.54 3.11 5.34 4.18-2.13 10.28-4.27 20.57-8 30.37-1.35 3.59-6.4 6.3-10.38 8.15-5.82 2.52-8.54.19-8.34-6.79M338.47 63.38c.87-5.72 1.65-12.71 3.2-19.6 1.94-9 8.83-13.2 17.17-15.14 3.88-.87 7.18.59 6.5 4.86-1.35 8.63-2.62 17.66-5.92 25.61-1.94 4.76-7.27 8.93-12 11.74-6.5 3.79-9.31 1.36-8.92-7.47M956 415.12c1.07-.87 3.59-4.08 5.24-3.69 10.38 2.53 21.45 4.37 29.21 12.91 1.16 1.36 2.72 2.62 3 4.17 1.06 4.17 1.55 8.64 2.33 12.9-4-.09-8.16.39-12-.29a75.49 75.49 0 0 1-14.45-4.46c-8.64-3.4-12.62-10.19-13.3-21.54M801.79 886.5c-.29 9.7-2.62 17.07-9.51 22.51-4 3.1-7.76 3.1-8.93-2.52-1.74-7.86-3.49-15.72-4.07-23.78-.68-8.63 4.56-14.55 11.84-18.72 3.78-2.14 6.59-1.07 7.47 3 1.36 6.89 2.33 13.78 3.2 19.51m.58-23.48c.2-8.16 4.56-13.49 10.48-17.76 3.11-2.14 7-2.62 7.86 1.65 1.94 9.51 3.11 19.21 4.37 28.82a7.41 7.41 0 0 1-1.75 5.62c-3.4 3.69-7.18 7-11 10.39-2-3.69-4.56-7.38-5.92-11.36-1.75-5.53-2.62-11.54-4.08-17.36M227.56 120.44c-.1 10.28-2.52 17.46-9.22 22.7-4.85 3.88-7.86 3.11-9.31-2.81a178.26 178.26 0 0 1-4-21.54c-1.07-9.13 3.78-15.43 11.16-20 4.17-2.62 7.27-1.85 8.24 3.49 1.17 6.5 2.24 13.29 3.11 18.15m444.81 835.74c.58-5 .87-10.1 1.84-15 1.46-8.15 8.25-15 16.21-15.92 1.94-.29 6.31 2.62 6.21 3.69-1.07 9.7-2.82 19.31-4.56 28.92a6.22 6.22 0 0 1-2.43 3.68c-4.75 2.82-9.8 5.34-14.65 8-1.16-4.37-2.43-8.64-3.49-13.1a3 3 0 0 0 .87-.19M130.24 791.89c10.09.29 17 2.52 22.12 9 3.3 4.17 2.91 7.56-2.52 8.92a196.93 196.93 0 0 1-23.68 4.76c-8.73.87-14.65-4.37-19-11.36-2.33-3.68-1.06-6.4 3-7.37 7.28-1.65 14.75-3 20.09-4m833.5-441c-5.24-.58-10.58-1.06-15.72-1.94-8.93-1.45-15.82-8.24-16.79-17.07-.19-1.94 2.81-6.12 3.88-6 9.61 1.36 19.21 3.11 28.72 5.43a12.24 12.24 0 0 1 6.79 5.73c2 3.59 2.92 7.66 4.27 11.64L964.22 352a5 5 0 0 1-.48-1.07M941.81 733c-.1 1.56.19 3-.29 4.08-1.85 3.69-4 7.28-5.92 11-3-2.33-6.5-4.17-8.93-7a98.14 98.14 0 0 1-9.7-13.59c-4.66-7.76-3.5-15.62 1.45-22.7 1.26-1.65 6.6-3 7.18-2.23 7.18 9.21 15.92 17.85 16.21 30.46m43.76-320.42c-8.44-2.43-17.18-4.18-25.33-7.38-7.57-3-10.19-10.28-10.67-17.85-.1-1.65 3.49-5.34 4.37-5.05 10.18 3.2 20.47 6.31 30.07 11.06 3.5 1.75 5.44 7.57 7.09 12 1.45 4.17-.68 6.79-5.53 7.18M54.94 627.52c-10.67-3.2-19.7-5.63-28.43-8.73a10.88 10.88 0 0 1-6.11-6.31c-1.55-4.75-1.85-9.9-2.62-14.84 4.36.29 8.83-.39 12.9.87 6.89 2 14.07 4.36 19.89 8.44 3.89 2.72 6 8.44 7.77 13.2.58 1.55-2 4.56-3.4 7.37M587.25 51.25a68.92 68.92 0 0 1-6.89-1.25c-6.69-1.75-7.76-4.27-3.59-9.51 4.86-6.11 9.8-12.32 15.63-17.37 5.53-4.75 12.61-6.69 19.89-4.07 1.84.68 4.17 5 3.78 5.63q-10.34 12.8-21.54 24.74c-1.65 1.55-5 1.26-7.28 1.84m-6.79 936.84c2.91-8.64 5-17.47 8.83-25.62 3.2-7.08 10.48-9.22 17.86-9.22 1.65 0 4.94 2.92 4.65 4-2.42 12-3.78 24.75-14.65 32.8-2.52 1.94-5.82 3-8.83 4-4.85 1.36-7.47-.49-7.86-5.92M54.08 592.59c-3.5 1.94-6 4.66-7.86 4.17a178.4 178.4 0 0 1-25-8.15 14.23 14.23 0 0 1-6.94-7.61c-1.55-4.56-1.35-9.7-1.94-14.55 4.18.29 8.83-.29 12.62 1.26 7.18 2.81 14.36 6 20.47 10.58 3.65 2.71 5.24 8.28 8.65 14.3m279.83 341.06c1.94.2 3.59-.19 4.94.39 2.92 1.26 7 2.43 8 4.76.78 1.84-1.94 5.72-4 8a121.7 121.7 0 0 1-12.42 11.07c-7.66 6.11-17 7-24.64 1.94-1.85-1.27-3.5-6.21-2.82-6.89 9.12-8.54 17.18-19.12 31-19.22M57.85 654.5c-5.34-1.07-12.61-2-19.7-3.89-7.76-2-14.07-10.09-14-17.85 0-1.94 3.49-5.82 4.56-5.53 9.8 2.13 19.6 4.27 28.72 8.15 3.79 1.55 6.7 6.79 8.64 11 2.81 6.12.58 8.54-8.25 8.16m920.15-3.21c-.29 1.07-.68 3.88-1.46 6.41-1.36 4.17-4.56 5-7.66 2.23-6.6-5.92-13.49-11.64-18.92-18.53-5-6.21-3.69-14-.39-21 .77-1.46 4.27-3.11 5.82-2.53 9.41 3.4 22.51 22 22.61 33.38M850.08 852.34c-2.72 5.24-5.24 11.35-8.83 16.69-2.81 4.08-6.89 3.49-8.63-1.36-2.91-8-5.73-16.1-7.18-24.45-1.36-8.15 3.1-14.65 9.89-18.82 1.46-.88 6.41.48 6.89 1.84 2.82 7.86 4.85 16.11 7.86 26.1M278.31 908c1.65.29 4.07.19 6 1.26a69.13 69.13 0 0 1 8.64 6.4c-2.14 2.53-4 5.63-6.6 7.57a126.08 126.08 0 0 1-15.14 9.9c-7.37 4-16.78 2.81-22.51-2.91-1.45-1.36-2.33-6.11-1.45-6.7 9-7.08 17.85-14.84 31.05-15.52m187.08 92.8c-5-1.84-9.31-2.13-10.48-4.27-1.06-1.94.78-6 2.14-8.73a100.67 100.67 0 0 1 8.93-14.07c5-6.41 11.83-10 20.37-9.7 5.92.29 8.25 2.71 5.34 8.15-3.49 6.69-6.89 13.77-11.84 19.31-3.69 4.36-10 6.59-14.46 9.31M182.54 166.53c-2.53 5-4.85 11.06-8.45 16.2-2.91 4.17-7.18 4-9.12-1.46-2.62-7.56-5.43-15.33-7-23.19-1.65-8.24 2.81-14.55 9.12-19.5 3.78-3 6.79-1.94 8.25 2.33 2.52 7.86 4.46 15.82 7.18 25.62m-20.67 22.41c-2.72 5.34-5 11.16-8.25 16.2-2.52 3.89-6.31 3.3-8.25-1-3.3-7.57-6.69-15.33-8.83-23.28s1.65-14.85 7.86-20.09c3.11-2.62 6.41-2.72 8 1.36 3.49 8.34 6.11 17 9.51 26.78m751 78c-11.74.2-19.41-4.56-22.61-13.19-1.36-3.5-1.36-7.18 3.11-7.47 9.31-.49 18.82-1.27 27.75.29 5 .87 9.9 5.72 13.58 9.8 3.88 4.46 1.85 8.05-4 8.83-6.21 1-12.51 1.26-17.85 1.74M9.34 448.89c1.35-3.11 1.84-7.77 4.07-8.83s6.41 1.35 9.32 2.91c4.36 2.52 8.83 5 12.51 8.54 3.4 3.2 7 7.18 8.15 11.45 1.27 4.65-.29 10-.48 15-4.08-1.36-8.35-2.24-12.23-4.08a84.42 84.42 0 0 1-11.54-7.18 21.16 21.16 0 0 1-9.8-17.85m853.87-279.03c4.85 2.53 11.26 5.34 16.79 9.22 3.78 2.72 3.49 7-1.46 8.64a186.58 186.58 0 0 1-24.06 6.4c-8.35 1.36-14.36-3.49-19.12-9.89-2.52-3.5-1.84-6.41 2.23-7.67 7.57-2.33 15.43-4.17 25.62-6.7m-756.07 95.87c-.29 1.07-.19 3.11-.87 4.56-1.94 3.59-4.37 7-6.6 10.38-2.91-2.52-6.11-4.75-8.44-7.66a96.1 96.1 0 0 1-8.83-14.17c-4.27-8.15-2.43-15.91 3.11-22.61 1.26-1.55 6.59-2.32 7.18-1.35 6.59 9.16 13.87 18.16 14.45 30.85m842 56.18c-5.05-.48-10.09-.77-15-1.65-8.34-1.65-12.81-7.76-14.94-15.43-.49-1.74 1.84-6.11 2.81-6.11 11.45 0 23.77-2 33.38 5.92 4 3.3 5.73 9.32 8.64 14.17l-14.46 4.07a4.38 4.38 0 0 0-.39-1M375.43 983c-3.1-.29-5 0-6.59-.68-2.62-1.16-6.5-2.42-7.18-4.46s1.65-5.43 3.49-7.57a106.4 106.4 0 0 1 12.52-13.1c6.3-5.33 13.87-7 22-5 3.79.88 6.6 3.69 3.79 7a241.56 241.56 0 0 1-20.67 21.64c-1.84 1.84-5.63 1.75-7.38 2.13m236.47-2.81c1.65-6.4 3.11-15.14 6.11-23.39 2.82-7.56 9.9-10.67 17.57-11.06 1.74-.09 5.33 3.3 5 4.18-2.81 10.09-5.34 20.37-9.8 29.78-1.84 3.69-7.76 5.92-12.32 7.77-4.08 1.84-6.7-.29-6.6-7.28M123.08 238.23c-.2 1.94.29 4.37-.68 5.92-2.14 3.78-4.85 7.28-7.28 10.87-2.91-2.82-6.11-5.34-8.44-8.44a79.75 79.75 0 0 1-7.18-13.2c-3.69-8.25-2-18.24 4.36-23.58 1.56-1.36 6.8-1.36 7.28-.39 5 9.12 9.32 18.63 14 28a9.76 9.76 0 0 0-2 .87m750.74-20.72c-8.73.1-14.65-4.46-18.53-11.45-1-1.65.39-6.89 1.46-7.08 10.38-2.52 20.86-6.69 31.92-3.2 1.46.39 3.2.77 4.08 1.75 3.2 3.59 6.11 7.47 9.12 11.25-3.69 1.75-7.18 4-11.07 5-5.53 1.74-11.25 2.52-17 3.68M288.08 949.86c-1.17-.29-4-.2-6.12-1.36-3.2-1.75-5.92-4.27-8.83-6.5 2.24-2.52 4.18-5.34 6.7-7.67 2.81-2.52 5.63-5.33 9.12-6.79 5.63-2.42 11.74-5.14 17.76-5.34 4.36-.19 8.83 3.59 13.19 5.54-2.52 3.2-4.56 7-7.76 9.5-6.89 5.44-12.81 12.62-24.06 12.62m-122.26-88.4c-3.5-1.26-6.89-1.55-9.12-3.3-3.59-2.91-6.5-6.69-9.61-10.18 3.59-2.24 7.08-4.86 11-6.7a37.78 37.78 0 0 1 11.45-3.69c5-.48 10.39-1 14.75.88s7.77 6.4 11.45 9.7c-3.59 2.33-7 5.34-11 6.89-6.21 2.62-12.81 4.37-18.92 6.4m584.26 51.14c.88 11.35-.29 21-8.92 27.85-2.33 1.84-6 3.39-8.74 2.81-1.55-.29-2.91-4.85-3.2-7.57-.58-6-.39-12-.68-18.24-.29-8.64 4-14.26 11.16-18.24 7-3.88 9.9-2.33 10.29 5.43a75.29 75.29 0 0 1 .09 8m-550.17-57.1c5.72 2.62 11.25 4.47 15.81 7.57 4 2.62 3.88 6.5-1 8.64-6.89 3.1-13.68 6.4-21 8.83-8.54 2.81-15.91-.39-21.93-6.7-2.62-2.81-3.49-6.3.68-8 8.83-3.59 17.86-6.79 27.37-10.29m554.53 47.65c-.78-9.8 3.59-16.5 12-21 4.66-2.52 8-1.94 8.35 4.07.58 8.06 2 16.21.77 24.07-.77 5.43-4.75 11-8.73 15.23-4.95 5.24-9.22 3.49-10.38-3.59-1-6.31-1.36-12.61-2-18.82M92.49 292.86c-.19 1.36.2 3.11-.48 4.27-1.85 3.4-4.08 6.5-6.12 9.8-2.81-2.23-6.11-4.08-8.34-6.7a100.83 100.83 0 0 1-9.32-12.8c-4.85-7.57-4.56-17.86 1.17-24 1.45-1.55 6.6-2.52 7.18-1.65 7 9.31 15.91 17.85 15.91 31.05m433.15-247.5c-3.69-1.45-7.86-1.94-9.61-4.27-1.06-1.45.88-6 2.43-8.63 3.39-5.63 6.31-12.13 11.25-15.92 5.24-4 12.42-5.82 19-7.47 3.5-.87 7.09 2.14 5 6.12a181.75 181.75 0 0 1-15.75 24.74c-2.52 3-8 3.69-12.32 5.43m364.55 762.18c-.1 1.75.38 3.88-.39 5.24-2.72 4.56-5.82 8.83-8.83 13.2-2.72-3.3-5.73-6.4-8-10.09a77.49 77.49 0 0 1-6.11-13.1c-3.2-8.64-.78-18.15 6.11-23.19 1.55-1.17 6.7-.78 7.18.29 4.17 8.73 7.76 17.85 11.45 26.78a4.42 4.42 0 0 1-1.45.87M43.98 657.31c4 .78 11.83.78 18.14 3.88 5.82 2.91 10.77 8.64 14.56 14.26 2.81 4.18 0 8-5.54 7.48-7.76-.78-15.62-1.36-23.19-3-7.27-1.46-11.45-7-13.77-13.78-2.53-7.28-1.17-9.12 9.8-8.83m4.56-216.57c-.88 2.23-1.46 6.59-3.59 7.56s-6.12-1-8.64-2.52a122.39 122.39 0 0 1-14.07-10.09c-7.18-5.82-9.9-15-6.4-23.19.77-1.94 5.43-4.37 6.3-3.78 9.61 6.59 21 11.83 24.75 24.35.68 2.13 1 4.37 1.65 7.67m94.12-228.12c-2.82 5.91-4.56 11.06-7.47 15.62-2.43 3.88-6.31 3.49-8.35-.68-3.69-7.47-7.47-14.85-10.09-22.71s.68-15 6.89-20.28c1.36-1.26 6.69-.87 7.18.29 4.27 9 7.86 18.34 11.84 27.76M692.24 46.3c2.62.2 4.37-.09 5.63.49 2.91 1.36 7 2.52 7.76 4.75.68 1.94-2.13 5.73-4.17 7.86a104.53 104.53 0 0 1-13.1 11.45c-7.18 5.63-16.79 6.21-24.06 1.17-1.75-1.17-3.5-5.73-2.82-6.31 9-8.73 17.47-19 30.76-19.41m179.51 784.4c-2.72 5.73-4.56 11.16-7.76 15.82-2.91 4.27-7 4.17-9.22-1.07a199.1 199.1 0 0 1-8.25-21.93c-2.23-7.56 1.85-17.27 8.54-21 1.65-.88 6.21-.2 6.7 1 3.68 8.73 6.69 17.76 10 27.26M449.86 8.27c8.05 1.55 9.31 3.1 7 9.8s-4.65 13.29-7.95 19.5c-3.79 7-10.19 11.06-18.24 12-4.08.49-7-1.45-5.63-5.53 2.91-9 5.53-18.53 10.38-26.58 2.62-4.27 9.51-6.12 14.46-9.22m-83.64 48.8c2-8.34 3.49-16.88 6.21-24.93s9.89-11.26 17.95-11.65c1.74-.09 5.43 3.3 5.14 4.27-2.62 9.8-5.05 20-9.51 29.11-1.94 4-8.15 6.41-12.81 8.54-4.27 1.94-6.6-.58-7-5.34M153.43 814.31c7.76.77 14.07 3.2 18.92 9.12 3 3.68 2.52 6.89-1.85 8.24a183.41 183.41 0 0 1-24.16 6.41c-8.24 1.36-14.45-3.2-19.21-9.8-2.42-3.4-2-6.5 2-7.76 8.25-2.33 16.2-4.18 24.26-6.21M8.46 539.42c-.19-3 .49-7.38 5.53-5.34 9.32 4 18.34 8.93 27.27 13.78a8.26 8.26 0 0 1 3.49 4.75c.88 4.47 1.07 9.22 1.55 13.68-4-.38-8.15-.29-12-1.26a85.76 85.76 0 0 1-13.39-5c-8.47-3.63-12.54-10.43-12.45-20.61m875 230.64c.19-1.46-.29-3.4.49-4.46 2.81-4.27 6-8.35 9-12.52 2.81 3.1 6.11 6 8.34 9.61 5 8.15 9.71 16.78 7 27.07a32 32 0 0 1-2.43 6.4c-3.88 6.79-7.56 7-11.45.2-4.56-8.25-8.53-16.89-12.71-25.33.68-.39 1.17-.68 1.75-1m9.63-528.31c-9.32.39-15.33-4.65-19.6-12-2-3.68-1.75-7.37 3.2-7.95 8.44-1 17.08-1.56 25.61-1.75 2.82-.1 6.41 1 8.35 2.91 3.59 3.49 6.31 7.86 9.31 11.94-4 1.64-7.86 3.68-12 4.75-4.75 1.07-9.8 1.36-14.84 2.13m62.48 464.4c-.19 1.94.1 4-.67 5.43-1.36 2.81-2.72 6.89-5.05 7.57-1.84.68-5.63-2.14-7.76-4.27a157.87 157.87 0 0 1-11.45-14c-5.63-7.57-5.05-15.72-.29-23.29 1.06-1.75 6.21-3.11 6.89-2.43 8.34 9.12 18 17.47 18.33 31m19.51-325c-5.34-1-12.62-1.85-19.7-3.79-8.64-2.52-13.2-9.12-14.07-17.85-.19-1.84 3.11-5.92 4.17-5.72 9.32 1.84 18.92 3.49 27.46 7.08 4.27 1.84 7.67 7.18 9.9 11.74 3.3 6.4 1.26 8.73-7.76 8.54M224.55 875.92c1.94.19 4.37-.29 6 .58 4 2.23 7.76 5 11.54 7.57-3 2.91-5.72 6.41-9.21 8.64a80.93 80.93 0 0 1-13.59 6.69c-8.73 3.5-16.3 1.07-23-5-2.92-2.53-4-5.92.19-8.06 8.93-4.36 18.14-8.15 27.17-12.22.39.68.58 1.26.87 1.84M204.17 143c-.29 7.67-2.81 14.07-8.34 19.12-4.08 3.69-7.76 3.69-9.51-2.43-1.94-7.27-4.17-14.55-5.34-22-1.35-8.64 3.11-15 9.9-19.89 4.17-3 7.28-1.85 8.54 3 1.84 7.47 3.2 14.85 4.75 22.22m46.58 749.88c1.65.1 3.49-.29 4.66.29 4 2.23 7.76 4.76 11.64 7.28-2.81 2.91-5.14 6.31-8.34 8.64a91.78 91.78 0 0 1-13.69 7.95c-8.24 3.88-15.71 1.85-22.6-3.49-2.91-2.33-4.66-5.73-.78-8.05 8.93-5.54 17.56-12.72 29.11-12.62m544.83-786c6.11 2.52 11.06 3.69 15.23 6.21 4.56 2.72 4.56 6.6-.29 9.32a218.38 218.38 0 0 1-19.6 9.8c-7.86 3.3-17.75.87-22.8-5.53-1.26-1.56-1-6.7 0-7.18 9.12-4.66 18.53-8.54 27.46-12.62m-22.12-16.4c1.55.2 3.59-.19 5 .68 3.5 2 6.7 4.66 10.09 7-2.52 2.81-4.75 6-7.76 8.15a92.76 92.76 0 0 1-13.68 8c-8.25 4-18 2.43-23.68-4-1.35-1.45-1.74-6.21-.77-6.79 9.31-5.92 18.34-13.39 30.76-13.1m-379.45-38.9c3.88-11 6.79-20.28 10.57-29.3 1-2.52 4.18-4.75 6.8-5.63 4.46-1.26 9.21-1.26 13.77-1.74-.19 4.07.39 8.24-.67 12-1.85 6.21-3.5 13.1-7.48 18-3.59 4.56-9.8 7.37-15.23 10-1.46.88-4.66-1.74-7.76-3.3M87.74 742.79c10.77-1.74 20.86-.48 27.94 8.74 1.55 1.94 3 5.43 2.33 7.37-.68 1.75-4.27 3.11-6.69 3.4-6.21.87-12.52 1.26-18.93 1.55-9.21.48-15.23-4.27-19.4-12-3.11-5.82-1.75-8.44 4.85-9.12 3.3-.29 6.6.09 9.9.09m912.87-275.08c-.78 6-2.91 8.44-8.35 6.4-6.79-2.52-13.78-4.85-20.47-7.95-7.86-3.69-12.52-12.33-11-20.57.39-1.94 4.56-5.24 5.44-4.76 9.31 4.27 18.73 8.54 27.07 14.27 3.69 2.33 5 8.15 7.28 12.61M646.35 65.22c-1.46-.09-3.21.2-4.56-.38-3.11-1.36-7.57-2.53-8.54-5.05-.78-1.94 2.23-6 4.36-8.44 3.69-4.08 7.67-8.44 12.33-11.06a39.86 39.86 0 0 1 16.2-4.95c3.4-.29 7.08 2.81 10.58 4.37-1.85 3.1-3.21 6.59-5.53 9.31A52.92 52.92 0 0 1 661 59.11c-4.37 3.11-9.32 5-14.07 7.57a9.85 9.85 0 0 0-.58-1.46m-311-16.3c-.68 4.27-.48 12-3.4 18.54-2.52 5.82-7.76 10.86-12.9 14.75-4 3.1-8.54 1.74-8.25-4.86.39-7.56.78-15.13 1.85-22.6 1.16-8.16 6.79-12.62 14.07-15.34 6.59-2.23 8.73-.48 8.63 9.51m-105.17 52.59c-.39-9.41 4.07-15.91 12.13-20.18 4.66-2.52 8-1.65 8.44 4.08.58 8 1.26 16 1 24.06a17.84 17.84 0 0 1-4.08 10.29c-3 3.2-7.56 5-11.45 7.56-1.35-3.78-3.2-7.56-4.07-11.45-1-4.75-1.36-9.6-1.94-14.36m174.87 889.1c-3.11-.39-5.14-.39-7.18-.87-6.79-1.65-8.15-4.66-3.79-10 4.57-5.72 9.13-11.45 14.46-16.39a20.37 20.37 0 0 1 20.48-4.76c1.84.58 4.46 5.34 3.88 5.92a256 256 0 0 1-19.7 23.58c-1.94 1.94-6 1.94-8.15 2.52M61.15 379.7c-1.65 3.5-2.43 8.15-5.14 10.09-1.36 1-6.6-1.94-9.32-4.17a112.23 112.23 0 0 1-12-11.45c-6.6-6.89-6.79-14.84-3.3-23.09.78-1.84 4.27-4 6-3.69 8.92 2.23 22.7 22 23.77 32.31m26.3 357c-12.91 1.46-23.19.1-28.82-11.93-3.2-6.89-1.75-9.61 5.63-9.51 7.76.19 15.81-.29 23.19 1.74 5.24 1.46 10.38 6 14 10.48 4.27 5.34 2.13 8.83-4.66 9.22-3.78.2-7.28 0-9.31 0m846.65-443.65c-15.82 1.46-23.19-1.94-27.94-12.32-2.92-6.4-1.36-9.12 5.53-9 7.76.09 15.91-.49 23.19 1.65 5.53 1.65 10.67 6.4 14.45 11 4 4.85 1.75 8.35-4.65 8.64-3.5.29-7 .09-10.58.09"/>
  <path d="M515.35 643zm274.6-39c-8.92-33.86-18.53-67.63-27.65-101.49-7.47-27.75-13.1-56.18-22.32-83.35-12-35.61-26.49-70.45-40.46-105.38-5.73-14.36-14.85-26.39-29.3-33.47-20.87-10.29-44.06 1.65-47.55 24.54-2 13-3.3 26.2-6.31 38.91a72.23 72.23 0 0 1-30.66 44.54c-6.69 4.47-13.1.58-13.58-7.37-.2-2.91-1.36-5.73-2.14-8.64-7.95-28.43-15.81-57-23.67-85.39-1.46-5.24 1.06-7.47 6.21-7.76 2.81-.19 5.43-1.07 10.38-2-4.08-3-6-4.75-8.25-6.21-8-5.33-16.2-10.28-24-15.91-8.82-6.4-17.27-13.29-25.81-20-4.75-3.68-9.6-4.56-15.62-3.39-3.49.68-7.47-.78-11.06-1.94-6.69-2.24-13-6.21-19.79-7-15.5-1.69-24.23 10.5-18.12 23.31 4.27-.68 8.44-1.35 14.94-2.42-7.37 9.8-3.59 16.2 1.75 22a167.41 167.41 0 0 0 11.84 11.84c11.06 10.38 13.1 23.19 5 36.19-3.59 5.73-8.44 10.78-12.61 16.11-8.93 11.35-18.05 22.42-26.29 34.25-3 4.27-3.4 10.29-5.24 15.43-1.27 3.59-2.92 7.09-4.37 10.68l-2.81-.59c-.78-2.23-1.46-4.46-2.24-6.69-9.6-27.95-18.92-56-28.91-83.74-3.88-10.77-13-16.59-23.58-19.79-15-4.56-33.57 1.26-43.18 14.74-7.08 9.8-12.81 20.58-18.24 31.44-18.73 37.55-28.92 78-41 117.9-13.77 45.12-27.36 90.33-41.14 135.45-1.65 5.53-4.27 10.77-5.72 16.4-.78 3.1.1 6.6.19 9.9a81.58 81.58 0 0 0 11-1.17c1.74-.48 3.39-2.13 4.85-3.49 5-4.85 8.15-12.61 17.27-11.16.87.1 1.94-1.55 3-2.23 8.83-5.24 17.75-10.58 26.58-15.82.2-.09.49-.19.68-.29 4.08-2.72 8.64-4.75 11.94-8.15 5.34-5.53 9-12.52 17.27-15.14 2.62-.87 4.17-4.75 6.5-7.08 3-3 5.92-6.21 9.32-8.54 6.79-4.56 13.68-8.83 20.76-12.9a23.47 23.47 0 0 1 8.64-3c14.84-1.46 27.36 7.18 41.33 9.9a7.36 7.36 0 0 1 2.62 1.35c4.08 2.92 8.06 5.83 13.39 9.71.78 3.2 3.11 8.25 2.91 13.29-.48 14.46-2.13 28.82-3.1 43.28-.2 1.74.48 3.59 1 5.24 1.36 4.46 3.2 8.83 4 13.39 2.33 12.81 4.27 25.61 6.11 38.52a28 28 0 0 1-.49 9c-.87 4.76-2.81 9.22-8.73 8.44-5.43-.68-11.84 0-12.71-8.63-1.07-11-7.28-19.5-14.94-28.14-2.23 6.89-4.27 13-5.63 17.08-5.63-9.22-12.23-19.8-18.73-30.28-.77.29-1.45.49-2.23.78-.58 4.27-1.16 8.44-1.84 13.2-6.89-7.77-11.65-16.79-23-19.31 2.62 7 4.95 13 7.47 19.5-14.65-5.14-9.12-20-16.3-30.47-3.78 8.44-6.79 15.33-10 22.51-6.31-7.86-10.48-18.63-24.36-16.2 1.85 5.53 3.5 10.38 4.56 13.49-9.6-4.08-19.79-8.35-30-12.62-.68.58-1.36 1.17-2.13 1.75 3.49 8.83 6.88 17.76 10.38 26.59-3.3 1.55-7.18 3.2-11.26 5 4.85 12.52 15.24 11.64 25.33 11.84-1.94 3.2-3.59 5.82-6.21 10 8.54 2.23 15.72 4.27 23.19 6.21-2.33 3.5-4.95 7.38-8.44 12.71h23.67c-2.71 6.6-5.14 12.71-8.44 20.77 8.44-1.46 16.11-1.46 22.32-4.46 7.37-3.6 13.78-4.27 21.25-1.17-1.07 3.2-2.14 6.5-3.79 11.64 5.82-2.32 10.29-4.17 12.52-5 5.92 4 10.48 8.25 15.91 10.28 3.21 1.17 6 1.27 8.25 4.76 1.65 2.52 5.43 3.59 7.47 4.85 6.41-8.05 2.82-18.63 13.88-25.52.48 6.11 1.74 10.48.87 14.26-3.59 15 1 21.35 15.91 21.06 4.08 10.29 8.93 12.42 20.09 9 7.08 9.42 9.51 10 19.5 5.15 9.32 8.63 12.42 9 21.93 2.81 4.47 6.21 9.32 7.57 14 .29 11.55 5.82 13.2 5.73 19.6-.58 3.21.68 6 2 8.64 1.75a101.32 101.32 0 0 0 17-3c7.76-2.23 15.91-4.27 22.61-8.35 4.07-2.52 5-10.38 9-13.1 4.27-2.91 11-1.94 16.21-3.68 3-1 5.63-6 8-5.73 7.77 1 10.48-3.3 12.52-10 9.12 4.66 17.76 9.12 27 13.78-3.21 3.59-6.12 6.89-9.71 11 13.59.87 25.52 1.55 39.11 2.43-8-10.58-14.75-19.51-22-29.11-1.75 4.36-3.11 7.66-4.66 11.54-8.44-4.17-16.3-8.24-24.26-11.93-4.85-2.23-7-5.53-5.82-11.26h39.86c-.59 3.79-1.07 7.38-1.75 12 13.1-4.56 25.33-8.74 39.2-13.59-13-6.31-24.45-11.93-36.77-17.95V691c-13.3 0-26.2.29-39-.19-3.88-.2-7.76-2.43-11.64-3.79l.29-2.62c10.09-5.92 20.28-11.84 30.76-18 1.74 4.08 3.2 7.47 5 11.74 8.44-11.06 16.4-21.44 25.42-33.28-14.65 1.94-27.26 3.59-40.75 5.43 2.81 4.47 5.14 8.15 7.67 12.13-10.68 6.31-20.77 12-30.76 18-4.56 2.81-6.89 1.26-8.35-3.4-2.23-7-4.85-13.87-7-20.86-.59-1.84-1.17-4.66-.2-5.82 7.09-8.44 2.52-16.59.29-25-1.16-4.37-.68-9.32-.19-14 .48-4.36 2-8.63 2.72-13 .48-3.2-.49-6.89.77-9.7 3.79-8.44 1.94-16.4-.48-24.45-1.75-5.83-3.4-11.65-5.34-17.37-1.65-4.66-.19-7.38 4-10 5.43-3.39 11.45-6.69 15.33-11.54 6.79-8.54 15.33-14.17 24.94-18.63a16.76 16.76 0 0 1 5.92-1.36c4.07-.49 8.05-.68 12.61-1.07 2.33 9.12 11.16 4.85 17.85 5.92.49 1.65 1 3.11 1.36 4.56 2.14 8.44 3.79 18.53 12.52 21.35 9.12 2.91 10.67 9.22 13.19 16.1a107 107 0 0 0 6.89 16c1.46 2.72 4.37 6.31 6.8 6.41 7.47.39 10.18 5.34 13.29 10.58 1.65 2.91 3.88 5.33 5.72 8 3.5 5 7.86 6.69 13.78 4.56 1.85-.68 4.66-.78 6.21.19 8.74 5.53 16.79 12.13 25.81 16.89 4 2.13 10.19 1.84 14.65.29 1.85-.68 3-7.76 2-11.26zM654.08 718.63c2.81 3.69 5.82 7.67 9.9 13.2-7-.68-12.13-1.07-16.79-1.46 2.36-3.97 4.49-7.66 6.89-11.74zm8.28-34.63c6.59 3.11 12.32 5.92 20.08 9.71-7.86 2.62-13.87 4.75-20.08 6.89zm-4.18-33c-5.33 7-9.31 12-13.39 17.47-2.81-4.76-5.24-9.12-8.24-14.27 6.79-1.06 13.29-2.03 21.63-3.2zM484.5 306.83c6.89-23.19-13.59-30.85-23.77-47.35 6.11 1.26 12 2.52 18.14 3.69-9.22-11.45-15.33-26-32.21-26.88 4.17-12 13.77-7.28 22.6-3.88 4.86 1.94 9.13 5.05 14.56 5.34 8.05.48 8.05-4.18 15.14.19 7.27 4.56 10.09 15.23 17.75 20.09a227.46 227.46 0 0 0 27.27 14.26c-14.07 4.17 12.22 81.89 13.87 94.8-4.56-6.21-9.31-12.42-14-18.73-1.36 4.47-3 9.32-5 15.82-2.43-4.47-4.18-7.76-6.8-12.71-1.55 7-2.81 12.61-4 18.24-.29.1-.77.19-1.06.29-1.26-5.53-2.43-11.06-3.79-17-1.55.29-3.1.58-4.75.87-.87-3.1-1.65-6-2.72-9.8-2.91 3.69-5.63 6.89-8.15 10.09a22.18 22.18 0 0 0-2.42-.29c-.78-13.58-.1-27.17-4.95-40.07-3.3 14.84 4.85 29.4-6.7 41.14-.77-1-1.84-2.13-3.1-3.69-2 2.14-4 4.18-6.7 7.09-.68-3.3-1.26-6-2-10.1-5 5.73-9.31 10.48-14.55 16.21-.49-3.69-.78-6-1.36-9-7.66 4.17-15 8.34-22.32 12.42-.77-.3-1.26-.49-1.84-.78 13.1-17.47 36.48-39.1 42.89-60.26zm50.94 87.23c-1 .59-1.84 1.17-2.91 1.75l-15.82-12.61a19.91 19.91 0 0 0 1.85-2c4 3.2 7.76 6.4 13 10.67.77-4.56 1.36-7.57 1.84-10.57.39 0 .78-.1 1.26-.1.2 4.27.49 8.63.78 12.9zm-49-17.17c-4.95 7.86-8.35 15.91-18.53 20.28-.68-4.08-1.17-6.6-1.65-9.8 12.9 6.79 12.12-8.25 20.18-10.48zm-93.35-39h1.07c.2 3.4.29 6.89.49 11 2-.68 3.68-1.26 7.18-2.43-2.91 3.88-4.76 6.41-6.6 8.83-.78-.19-1.46-.29-2.23-.48l.09-16.89zm.88 112.46c1 2.72 1.84 5.44 3.2 9.12 2.43-1.94 4.08-3.1 5.72-4.46a4 4 0 0 0 .88.39c-1.94 3.3-4 6.69-6 10a24.92 24.92 0 0 0-2.71-.29c-.88-4.75-1.75-9.7-2.62-14.46.58-.09 1.06-.19 1.55-.29zm-1.55-44.83c-4.76 3.21-8.25 5.63-11.75 8-.77-.29-1.65-.78-2.42-1.07.77-6.89 1.45-13.78 2.23-20.67 2.14 14.75 2.14 14.75 11.94 13.78zm-17.86 27.66c.29-.1.58-.2.78-.29 1.07 3.68 2.13 7.56 3.39 11.93 2.91-1.16 5.05-1.94 7.28-2.91.29.29.58.78.87 1.07-3.29 3-6.69 5.92-9.89 8.92-.78-.48-1.65-.87-2.43-1.35v-17.38zm-1.55-72.49c2.91 16.11 2.91 16.11 14 16.11-16.72 4.07-18.93 1.25-14-16.12zm10.19-35.31c2.71-1.36 4.36-2.24 6-3.11.29.29.68.39 1 .68-8.24 11.74-13 3.2-9.51-9.32.88 3.59 1.65 7.18 2.53 11.75zm-13.3-30.67h1.36c.2 3.11.39 6.21.68 10.68 3.11-1.85 5.05-3 7-4.08a4.53 4.53 0 0 1 .87 1.07c-3 2.72-6.11 5.34-9.12 8.15-.78-.49-1.46-.87-2.23-1.36.48-4.85 1-9.6 1.45-14.46zm1 103.15a3.63 3.63 0 0 1 .68.48c-3.68 3.5-7.27 7-11 10.48-.78-.48-1.55-1.07-2.43-1.55l5.83-17.17a5.45 5.45 0 0 0 1.26.09c-.29 3.11-.68 6.31-1.07 10.29 2.72-1.17 4.66-1.85 6.69-2.62zm-33.08 9.41c.77-7.37 1.36-13.68 2.13-20 .49 0 1.07.1 1.55.1.39 3.78.78 7.66 1.46 13.58 5.63-4.17 10-7.47 14.46-10.67-4.5 7.28-8.57 14.85-19.63 16.98zm9 22.8c-4 6.41-7.76 13-18.34 14 1.36-8.63 2.43-15.91 3.59-23.38.58.1 1 .19 1.46.29.29 5.34.58 10.77.87 18.05 5.43-3.88 8.93-6.41 12.42-8.93zm8.15-2.33a12.93 12.93 0 0 0 1.36.29c-.29 2.72-.49 5.54-.78 9.71 3.69-1.85 6.31-3.2 8.93-4.56.29.29.49.58.78.87-4.37 3.88-8.83 7.67-13.1 11.55-.78-.39-1.56-.88-2.33-1.36 1.65-5.44 3.39-11 5.14-16.5zm-1.89-136.34c.48 2.43 1 4.76 1.74 8 2.92-1.94 5.05-3.39 7.18-4.75.39.58.88 1.06 1.36 1.65-3.2 2.32-6.5 4.65-9.7 7-.87-3.78-1.75-7.57-2.62-11.45.58-.09 1.36-.29 2-.39zm-1.22 33.6c.48 0 1-.1 1.45-.1 0 14.26-6.11 32.6 12.42 30.47-4.17 3-8.34 5.92-12.61 8.83-1.07-.58-2.14-1.07-3.2-1.55.67-12.65 1.35-25.16 1.94-37.65zm-20-2.91c1.07 8.44 2 16.88 3.1 26.1 3.69-1 5.63-1.46 9.51-2.53-3.49 4.66-5.92 8-9.31 12.42-7-12.51-3.5-24.35-3.3-36zm-6.7 69.18c2.53-1.94 5.05-3.88 7.67-5.92.29.19.68.29.87.58-3 4.76-6.11 9.51-10 15.62-7.86-11.25-4.37-21.63-2.72-31.92l1.75 21a9 9 0 0 0 2.42.68zm-.47 33.73c-3.59 4.17-7.18 8.24-11.45 13.19-6.89-10.77-2.82-20.57-1.36-30.47.58 7.09 1.07 14.17 1.75 22.9 4.56-2.91 7.37-4.75 10.18-6.4.27.21.59.6.88.78zm-11.61-95.27c3.79 3.79-3.49 14 9.22 13.2-1.55 2.71-3 5.24-4.95 8.44-6.4-7.08-5.82-14.17-4.27-21.64zm-12.13 32.6c1.36 4.76 2.43 8.64 3.5 12.42.77.3 1.45.59 2.23.88 1.84-3 3.78-5.92 5.63-8.93a16.88 16.88 0 0 0 1.84 1.94c-2.81 4.85-5.63 9.8-8.83 15.53-6.6-6.8-5.92-13.88-4.37-21.84zm-7.37 40.37c1.36 5.05 2.52 9.31 4.27 15.72 3.3-5.53 5.63-9.32 7.86-13.2a12.93 12.93 0 0 0 1.36.29c-1.65 7-3.2 14-5.05 21.84-10-7.38-12-13.69-8.44-24.65zm-66.12 196.1c11-27.85 22.8-53.27 30.28-82.57 8.24-32.8 18.82-64.53 27.84-97 1.07.2 2 .3 3 .49-3.88 32-17 64.62-26.1 95.67-8.05 27.56-13.2 63.17-35 83.45zm21.74-11.55c9.8-24.35 19.11-46.77 25.42-72.29 6.11-24.74 9.61-56.08 23-77.91.77 29.5-35 140-48.42 150.2zm23.77-11.16c-1.36-.48-2.52-1-3.88-1.45 10-21.35 22.12-46.77 25.71-70.25 2.91-18.73 3.59-44.25 17-59.68.68.39 1.36.68 1.94 1-14.16 43.28-17.27 90.15-40.75 130.41zm13.78-11c15.62-38.42 26.39-76.36 37.65-116.15 5.62 17.57-9.22 47.06-14.27 64.63-4 13.77-6.79 45.79-23.38 51.52zM311.2 545c-.68-.29-1.36-.39-2-.68 6.31-15.43 12.13-30.08 16.4-46.29 4.08-15.42 3.88-32.21 11.64-45.7.88.29 1.75.68 2.53 1-8.74 30.86-8 64.63-28.53 91.7zm30.57-29.21c1-2.52 2-5.24 3-7.86-5.43 5.92-10.19 17-18.53 18.44 15.14-23.39 18.53-50.65 26.1-78.31 4.85 8.25-.68 19.31-2 27.85-1.84 11-2.42 21-5.53 32 1.36-5.14 2.91-10.38 4.27-15.52 10.68-11.94 7.86-29.5 18.05-42.41 3.11 15.43-10.09 58.9-25.33 65.79zm16.1-4.27c4.47-9.51 9.22-18.05 11.55-28.33s2.62-18.73 9.12-27.56c1.75 16.64-10.77 51.37-20.67 55.84zm12.71 3.3c6.12-16.88 12-33.18 18.34-50.46 4.37 10.64-8.34 44.64-18.34 50.41zm19.6 1.55a19.14 19.14 0 0 1-2.52-.87c4.46-14.46 8.83-28.92 13.29-43.37 1.07.29 2.14.68 3.21 1a110.63 110.63 0 0 1-14 43.27zm11.55 2.23c3.3-9.7 6.5-19.3 9.9-29.4 4.45 5.29-.39 21.98-9.9 29.35zm8.64 7.48c2.52-7.48 5.14-14.85 7.86-22.71 4.07 7.03 1.55 15.96-7.86 22.63zm10 72.38a26.05 26.05 0 0 1-2.52-1.07c.29-4.17.77-8.34 1.06-12.51.3 0 .59-.1.78-.1.49 2.43.87 4.75 1.36 8.34 4-2.23 7.47-4.07 10.87-5.91l.77.77c-4.17 3.59-8.24 7.09-12.32 10.48zm13.1 30.86c1.65 10 15.14 14.26 27.46 8.73-5.92 18.73-33.77 6.5-32.51-10.77 1.07 2.52 1.85 4.46 3.11 7.37.86-2.37 1.44-3.73 1.93-5.38zm-.1-77.14c4.47 1.94 2.62 10.19 12 6-2.32 3.88-3.78 6.41-5.33 8.93-.78 0-1.55-.1-2.33-.1-1.46-5-2.81-9.89-4.37-14.84zm27 57.93l-9.32 10.18c-.77-.29-1.45-.38-2.23-.68-1.07-5.62-2.13-11.35-3.1-17.07 5.21 10.81 5.21 10.81 14.62 7.52zm-9.8-35.32c3.49 1.45 6.3 2.71 9.8 4.17-1.07 1.45-2.91 4.07-5.82 8.15-1.78-5.39-2.95-9.11-4.01-12.37zm-59.1 65.49c3.3 8.15 6.12 15.43 9.32 23.19-3.88-.87-6.11-1.36-9.61-2.13-5.1-10.05-5.27-12.86.26-21.11zm-19.6 19.21c-2.52-9.8-4.85-18.63-7.18-27.36 10.26 7.13 12.78 15.38 7.15 27.31zm-6.4-1.35c-2.91-2.43-5.53-4.47-8.05-6.51a10.37 10.37 0 0 0-.78 1.46c-3.4-9.41-6.69-18.92-10.38-29.3 10.35 9.65 16.56 20.61 19.18 34.3zm-38.13-43.77c2.71 8.35 5.33 16.4 8 24.65-10.94-3.35-13.37-10.82-8.03-24.7zm-25.81-2.13c3.75 6.26 7.55 12.56 11.32 18.76-.78.39-1.46.88-2.23 1.36-7.57-4-10.87-10.57-11.06-19 .68-.38 1.35-.77 1.94-1.16zm-26.49 6.21c7.18 3.49 13.68 6.7 20.37 9.8-.19.49-.29 1-.48 1.36-2.52-.39-5.05-.87-7.67-1.26a11.67 11.67 0 0 1-.77 1.16c5.82 4.17 11.64 8.44 17.75 12.81-14.07 4-27.65-6.89-29.2-23.87zM293.83 664c-.1-.77-.19-1.45-.29-2.23 13.2-11.16 25.81-12.81 35.32-5.92-11.93 3.79-22.61 6.7-35 8.15zm16.88 14.27c10.48-12 18.63-18.63 31.83-17.18-3.49 2.24-6.31 4.08-9.22 5.92.1.29.2.39.29.68 3.4-.87 6.8-1.84 11.26-3.1-9 12.42-22.22 11-34.16 13.68zm13.88 18.34c3.88-4.08 7.37-7.77 11-11.45a7 7 0 0 1-.67-1.17c-1.17.59-2.43 1.26-3.5 1.85 3.59-11.36 14.36-18.34 26.88-17.66-18.05 24-21.44 26.87-33.67 28.43zm26.2-3.11c-.29-.68-.78-1.36-1.07-2.13 7.67-18.73 14.07-23.1 25.33-18.83-8 8.74-14.07 14.85-24.26 21zm55.69-6.4c-8.83 5.43-13.39 15.91-12.32 26-6.4-9.8-4.75-16.69 6.6-30.27-9.7-2.82-14.07.68-25 19.89-2.72-17.66 12.9-28.14 28.43-28.53 6.59-.19 18.63 4.66 24.16.49s6.3-21.15 7.66-27.36c7.76 6.4 4.56 9.7 1.85 18.24-3 9.22-3.21 17.46-1.17 27.07-10.38-5.53-18.73-12.71-30.18-5.53zm14.27 41.14a27 27 0 0 1-2.82-.29c.88-4.47 1.75-24.94 10.19-19.89-3.98 6.11-5.33 13.19-7.37 20.18zm20.67 2c-1.07 3.2-1.94 6-2.82 8.73-4.27-8.25-2.33-19.89 3.5-22 .38 3 .77 5.53 1.26 8.54-.39.1-1.56.29-3.3.68 1.94.78 2.91 1.07 4.75 1.85-2 .48-3.49.87-5.24 1.26a20.33 20.33 0 0 0 1.85.98zm-23.87-33.34c-.1-.78-.2-1.55-.29-2.43 7.95-1.84 28.91 7 30.37 16.89-10.48-5.05-20.28-9.8-30.08-14.46zm34.83-7.28c-1.45 1.55-3.2 3.2-5.05 5.14 1.65.39 2.82.68 4 1a2.8 2.8 0 0 1 .2.88h-8.25c5.24-14.85 10.28-28.82 15.14-42.89l1.84.29c-1.36 9.22-6 18.63-4.46 27.46a4.05 4.05 0 0 1-.88.1c-1.84 3.3-2.91 5.43-4 7.47a9.74 9.74 0 0 1 1.45.58zm17 8c-1.84.58-3 .87-4.95 1.45 1.85.68 2.72 1 4.37 1.65-2.14.49-3.59.88-6.41 1.46 2.43.58 3.59.87 3.79.87-3.69 7.57-4 12.42-4 21h.19a.3.3 0 0 0-.19.1c-.39.09-1.16.39-2.13.58 1.45.78 2.52 1.26 4 1.94-1.84.29-3.1.68-5.62 1.16 1.26.49 2 .78 2.33.88-.78 5.53-1.65 10.86-2.72 17.75-8.25-29.2 8.73-64 17-91.79.78.29 1.65.49 2.42.78-2.42 9.22-3.49 31.63-10.38 38.13 1.55.29 2.72.68 5.05 1.17-2.72.38-4.37.58-8.06 1.16 2.67.79 3.45 1.09 5.29 1.67zm3.77-82.62c4.26 5.24 7.76 8 13.48 2.24-2.42 3.49-4.95 7-8.83 12.22-2-6.21-3.3-10.38-4.65-14.46zm11.64 93.35c-1.75.58-2.91.87-5.14 1.55 2 .58 3.2 1 4 1.16-2.81 3.5-6.88 17.08-1.16 20.28-1.65.3-3.3.78-6.5 1.36 3.1.68 4.66 1 5.53 1.07-6.31 4.27-2.72 10.38-3.69 16.59-10.57-26.2 4.27-63.36 11.55-89.27 2.23 16.21-4.56 30.67-7.18 46.29-.29 0 .87.39 2.62 1zm2.23-54.92c-1.94-4.08-4-8.15-6-12.23 4.66 4.17 8.83 7 14.27.68-1.85 3.88-3.49 7.67-5.34 11.45-.99 0-1.96.1-2.93.1zm8.54 70.35c1.16.29 2.72.58 4.95 1.06-1.94.59-3.11.88-5.24 1.56l3.49 1.16c-1.36 3.4-2.81 6.6-4.17 9.9 1.45.29 2.72.68 4.37 1.06-1.36.59-2.33.88-3.89 1.56 1.65.58 2.82 1 2.33.87-.58 2.81-1.06 5.34-1.55 8-.39.19-.78.39-1.26.58-6.31-24.36.48-56.08 5.34-80.63a23.29 23.29 0 0 0 2.62.38c-2.33 18-4.56 36.1-7 54.54zm20.76 28.33c-.19-3.11-.29-5.24-.38-7.86.09 0-1.07-.29-.68-.29-.1-4.37 5.24-8.83-3.5-11.45 1.46-.29 2.72-.39 4.86-.78-1.27-.87-1.95-1.45-2.92-2.13 1.07-.39 2-.78 3.79-1.46-2-.68-3.49-1.06-5.63-1.65 2.23-.39 3.69-.68 4-.77.48-2.24.78-4.08 1.26-6.5 5.24 7.37 4.85 23.87-.78 32.89zm-6.69-83.35c1.07-.19 2-.29 3.1-.49 2.62 15.92 5.24 31.73 7.77 47.65-1.36.29-2.82.38-4.27.68q-3.21-24.01-6.6-47.84zm14.46-13c-.78 0-1.56.09-2.33.09-2-4.36-4.08-8.63-6.12-12.9h-.19c-2.52 4.95-5.14 9.9-7.66 14.84l-2.43.3c-2.62-5.63-5.24-11.16-7.76-16.79.39-.29.77-.49 1.16-.78 2.23 3.21 4.56 6.41 7.67 10.87 3.49-4.75 6.3-8.44 10-13.39-.58 2.62-.78 3.78-1.07 5l.1-.1h.1s0 .1.09.1c7-.68 5.92 8.73 14.75.78-2.13 4-4.27 8-6.3 12zm-24.65-32.51c3.59 1.36 6.79 2.52 10.48 4.08-.78 1.65-2.23 4.27-4.75 9.21-2.53-5.91-4.27-9.8-5.73-13.29zm30.18 5.82c-1 0-1.94.1-2.91.1-2.72-3.78-5.53-7.57-8.25-11.45a13.46 13.46 0 0 0 1.45-1.07c2.33 1.85 4.56 3.69 8 6.31 2.72-4.85 5.05-9.12 7.28-13.29a4.59 4.59 0 0 0 1.07.29c-2.18 6.4-4.41 12.71-6.64 19.11zm31.92-25.13c.49 6.41-3.3 12.71-5.53 18.63-4-4.07-8-8.05-11.93-12 11.74 6.76 11.74 6.76 17.46-6.63zm-13.78-21c.29-.29.49-.68.78-1 1.75.88 3.49 1.75 5.53 2.72 1.36-1.94 2.72-3.69 4-5.43a5.24 5.24 0 0 0 1.16.38c-1.16 3.69-2.33 7.57-3.39 11.26l-2.33.29c-1.94-2.81-3.79-5.53-5.73-8.25zm1.26 109.16c-6.11-9.8-5.82-9.6 3.5-17.17.58.78 1.26 1.65 1.84 2.52-2.62 1.75-5.14 3.4-8 5.34 1.56 2.62 3.11 5.34 4.76 8a18.39 18.39 0 0 0-2.1 1.35zm9.51-1.74c-.48.48-1.06 1-1.55 1.45-2.13-2.91-4.27-5.82-6.69-9l10.28-3.81a18.93 18.93 0 0 1 .78 2c-1.85 1.06-3.69 2.23-5.83 3.59 1.27 2.52 2.14 4.17 3 5.82zm11.45 47c-2.91-5.63-5.92-8.83-4.27-14.94 5.34 3.1 4.66 8.92 5.73 14.75a7.3 7.3 0 0 0-1.46.19zm-15.81-91.31c24.25-.68 27.46-2.71 30-16.78 6.67 18.43-20.01 33.67-30 16.78zm37.84 39c10.57 9.51 21.35 10.09 18.34 28.14-3.5-11.64-7.67-20.38-19.41-22.71-3.2 9.9 1.46 19.31 3 30-10.19-7-5.63-18.44-11.35-28.53-1.85 11.45-1.75 17.95 1.06 29.21-11.45-8.83-7.47-15.92-5.43-27.75 2.43-14-4.46-24.17-6.21-37.26 10.48-8.35 13.88 23.38 20 28.91zm-5.24-108.38c.68-4.66 1.26-9.22 1.94-14.85 1.26 6.31 2.33 11.94 3.88 19.89-4.17-2.42-6.11-3.59-8-4.75.72-.09 1.4-.19 2.18-.28zm-3.4-66.08c.78-.29 1.65-.39 2.43-.68l5.28 20.29c-6.35-1.55-9.26-9.61-7.71-19.6zm5.44-26.49c-8 25.81-19.6 51-37.36 71.61-10.09 11.64-34 38.42-50.84 34.93-9-1.84-22.32-14.56-29.41-20.47a164.33 164.33 0 0 1-27.36-29.4c-28.62-39.3-40.95-91.12-26.78-138.08 16.21 0 33.19 1.65 49.2-1.75a80.44 80.44 0 0 0 17.07-5.72c5.83-2.62 14.27-11.26 20.67-11.35 5.43-.1 12.32 6.79 16.79 9.21a107.35 107.35 0 0 0 21.64 8.83c14.94 4.37 28.72 1.56 43.37 3.5 24.55 3.3 7.86 62.87 3 78.69zm6.3-1.65c3.11 13.58 4.37 27.17 8 40.56-6.83-2.51-13.03-27.01-8.03-40.55zm16.6 29.11c-6.41-12.81-7-26.59-7.77-40.27 1-.19 1.85-.39 2.91-.58 1.85 6.5 3.59 13.1 5.63 20.18-2.42 1.94 1.36 17.37 1.65 20.47a18.22 18.22 0 0 0-2.42.21zm104.69-92.18c.1-.58.29-1.17.39-1.75.78-3.78 1.55-7.66 2.52-11.54 3.5 8.63 1.26 15.42-8.34 22.22l-.1.09c-1.84-7.27-3.59-14.07-5.33-21h.09v-.09c.29-.1.68-.2 1-.29 2.43 4.17 4.85 8.34 7.18 12.61l2.62-.29zm-5-54.53c.48.09 1 .09 1.55.19-.68 6.5-1.36 13.1-2 19.6-1.26.1-2.42.29-3.69.39-2.62-4.56-5.24-9-7.76-13.58a13.09 13.09 0 0 1 1.26-.78c2.33 2 4.56 4.17 8.54 7.66.78-5.62 1.46-9.5 2.14-13.48zm-21.93 63.75c10.48 0 10.28-.29 12.61-10.48.2 0 .39.09.58.09a4 4 0 0 1 1 .2c-.58 6.69-1.06 13.29-1.65 20-1 .29-1.94.39-2.91.68-3.39-3.69-6.69-7.38-9.6-10.48zm11.45-97.23c-.78 6.89-1.75 13.68-2.53 20.48a15.11 15.11 0 0 1-2.91.29c-1.65-2.53-3.3-4.95-5.24-7.86 6.47.3 6.47.3 10.64-12.9zm-11.74 63.17c1.26-6 2.13-10.67 3-15.24l2.24.3c-.78 7.37-1.56 14.65-2.43 22l-3.49.58c-3.4-5.14-6.79-10.28-10.19-15.33a9.91 9.91 0 0 1 1.07-.77c2.81 2.52 5.62 4.85 9.8 8.44zM680.79 322c.39 12 3.59 24.35-3.1 37.94-3.5-4.56-6.12-8-9.32-12 15.71 2.36 11.55-14.04 12.42-25.94zm-24.71-31.76c5.14 4 9.22 4.95 9.31-3.59l2.14 1.36c-.87 3.69-1.84 7.18-2.72 10.87-3-2-6.11-4.18-9.12-6.21.07-.88.26-1.75.39-2.43zm2.39 69.76v-31.63a17.83 17.83 0 0 0 2.14-.09c.78 11.83 1.55 23.77 2.43 35.51-1 .68-1.85 1.26-2.82 1.84-4.46-2.71-8.83-5.53-13.29-8.24a16.64 16.64 0 0 1 1.07-1.85c3 1.26 6.11 2.53 10.47 4.47zm-17.07 39.58c2 .49 4.07 1 7.08 1.75-.29-3.59-.68-6.4-.87-9.31a3 3 0 0 1 .87-.39c2 5.43 4.08 11 6.11 16.4l-1.94 1.97c-4-3.11-8-6.31-11.93-9.32a4.06 4.06 0 0 1 .68-1.07zm-1.26-17.66c-3.89-1.26-7.77-2.52-11.45-3.68 9.39-.24 9.39-.24 11.74-14.84 1.65 7.09.68 11.35-.29 18.53zm.09-84.32c1.85.88 3.69 1.75 6.21 2.92.29-3.69.68-6.89.88-9.9.38-.1.77-.1 1.26-.2.58 4.76 1.16 9.42 1.74 14.17-.77.49-1.74 1-2.52 1.46-2.81-2.43-5.63-4.76-8.25-7.18.2-.49.49-.88.68-1.27zm-4.15 24.47c.78-4.47 1.46-8.06 2.14-11.55h1.06c0 7 .29 11-3.39 17-5.83-3.88-6.12-5.14-9.12-11.06 3.59 2 6 3.49 9.31 5.63zm-10.87 25.61c1.85 1 3.59 2 6.5 3.69.3-4.37.59-7.67.78-11h.87v16.1c-.68.29-1.35.58-1.94.88l-7-8.74a8.22 8.22 0 0 1 .77-1zm-4.85 57.93c2.62 1 5.24 1.84 9.22 3.11.78-4.27 1.36-7.67 1.84-11a8.72 8.72 0 0 0 1.56-.1c.38 5.44.87 10.87 1.35 16.31-.77.29-1.65.77-2.42 1.06-4-2.81-8-5.53-12-8.34a3.74 3.74 0 0 0 .43-1.04zm-3 65.21a21.48 21.48 0 0 0 2.33-.59c1.94 3.11 3.88 6.12 5.82 9.12-5.72 1.07 1.36 20.87 1.46 25.72-9.25-10-8.47-22.42-9.64-34.25zm6.7-27.76V443a7.21 7.21 0 0 1 .78-1.17c2.71 1.46 5.33 3 9 5.05 1.26-3.69 2.42-6.89 3.59-10.19a13.41 13.41 0 0 0 1.84.39l-1.45 15.43c-.78.29-1.36.77-2.14 1.06zm8.83 15.72l2.33-.58c4.46 15.14 4.56 29.11 7.76 44.05-10.32-13-9.44-28.33-10.12-43.47zm13.58-24.16a15.63 15.63 0 0 1 1.07-1.26c1 .68 1.84 1.36 2.91 2 2.14 1.45 4.46 3.2 7.57 5.34-.68-4.86-1.07-8.06-1.55-11.16.29-.1.58-.1.87-.2.1 0 .19-.09.29-.09 1.85 5.33 3.69 10.77 5.53 16.2v.1c-.77.58-1.45 1.16-2.23 1.84-2.23-1.94-4.46-4-6.69-5.92-.68-.58-1.27-1.16-2-1.74-1.94-1.75-3.88-3.4-5.82-5.15zm4 18.15c.68-.29 1.36-.68 1.84-.88 5.63 8.74 1 27.95 8.74 33.87-1.55 7.47 1.65 13.29 2.71 20.28-11.74-14.17-12.71-35.52-13.29-53.27zm4.76-60.94c4.36 3.3 8.83 6.5 13.1 9.8.67-.58 1.35-1 1.94-1.45v-16.11a4.61 4.61 0 0 1 1.16-.19c1.26 7.85 2.52 15.81 4 24.93-11.52-2.04-15.79-9.7-20.25-16.98zm10.57 39.88c3.5 2.43 7.09 4.76 12.42 8.44.49-7.47.88-13 1.26-18.53h.39c.2 0 .29-.1.49-.1 1.26 7.57 2.42 15.33 3.78 23.78h-.1c-10.48-.2-14-7.48-18.24-13.59-.09 0 0 .1 0 0zm.2 19.6c.77-.29 1.65-.58 2.42-.87 6.89 26.88 8.64 54.34 16.59 81-10.23-7.65-21.2-55.68-19.06-80.13zm46.47 122c-13.19-17.17-17.07-40.66-21.05-61.81-2.43-13.19-15.33-50.75-7.76-62.39 7.86 20.18 8.24 40.56 12.22 61.71a361.81 361.81 0 0 0 17.2 61.18 4.92 4.92 0 0 1-.68 1.26zm-1.26-51.14c-5.53-25.13-14.84-54-14.84-79.75a12 12 0 0 0 1.94-.68c9.31 26.1 14 54.43 18.92 81.6 2.42 13.29 2.91 27.36 8.25 39.88 5 12 8.54 21.54 11.45 34.45-14.85-22.52-20.09-49.39-25.72-75.5zm15.14-1.64c-6.89-27.76-16.59-57.25-18.73-85.78.78-.1 1.46-.29 2.23-.39 9.8 28.63 14.17 58.41 21.64 87.62 4 15.43 6.31 31.73 12.52 46.48 4.46 10.67 10.77 21.15 11.35 33.28-16.35-23.12-22.36-53.98-29.06-81.24zm47.25 81.89c-.38 2.43-.68 4.27-1.35 8.54-16.69-25.33-23.19-57.15-30.67-86.36-8.1-31.6-17.8-63.49-22.56-95.6.78-.29 1.56-.58 2.43-.87 1.84 3.69 3.78 7.38 5.63 11 .77-.29 1.45-.49 2.23-.78-1.07-8.25-2.14-16.5-3.11-24.84 1.07-.19 2.14-.29 3.11-.39 6.69 31.25 17.27 61.91 23.19 93 2.91 14.94 6.31 29.69 10.67 44.44.78 2.81 5 35.32 11.06 35 3.59 9.12 7 17.66 11.36 28.62-4.76-4.71-8.06-7.91-12.04-11.79z"/>
  <path d="M497.01 246.67c6.6 5.53 12.91 10.77 19.51 16.4-10.48 6.5-27.07-3.59-19.51-16.4m-19.4 94c-1.36-1.56-2.52-3.11-4-4.86 2.43-3.49 5.05-7 7.57-10.57 3 8.25 3 8.25-3.59 15.43M746.08 523.5c-1.35-6.59-3.39-12.8-2.32-19.5 5.24 5.14 5.62 13.58 7.47 20.47l-5.15-1m14.56 41.34c4.56 12.42 4.56 12.42-.87 15 1.94-4.66-5.44-9.32.87-15m-637.1 104.92l1.46 3q-3.8 2.32-5 4.65a6.43 6.43 0 0 0-.87 4 13.58 13.58 0 0 0 1.35 3.79l2.72 5.33 31.05-15.72a9.35 9.35 0 0 0 2.72-1.84 3.06 3.06 0 0 0 .68-2.52 13.15 13.15 0 0 0-1.46-4.27l2.91-1.46 10.77 21.25-2.91 1.46c-1.36-2.62-2.52-4.08-3.69-4.46s-2.62-.1-4.46.87l-31 15.72 2.27 4.47a19.76 19.76 0 0 0 2.62 4.17 6.47 6.47 0 0 0 3.88 1.94c1.75.3 3.89-.19 6.6-1.45l1.46 3-12 6.11-21.06-42 12-6zM135.48 602l7.66 22-3 1.06a9.61 9.61 0 0 0-2-3.88 3.06 3.06 0 0 0-2.33-1.16 10.58 10.58 0 0 0-3.11.58l-13.48 4.66 7.18 20.76 13.48-4.65c1.85-.68 3.11-1.46 3.59-2.53s.39-3-.58-5.72l3-1.07 7.66 22.22-3 1.07a10.34 10.34 0 0 0-2-3.88 3.48 3.48 0 0 0-2.33-1.26 10.69 10.69 0 0 0-3.11.58l-28.13 9.7a6.79 6.79 0 0 0-2.9 1.52 3.31 3.31 0 0 0-1.07 2.33 12.34 12.34 0 0 0 .78 4.36l-3 1.07-7.71-22.15 3-1.07c1 2.72 1.94 4.37 3 4.85a6.49 6.49 0 0 0 4.46-.19l11.06-3.79-7.18-20.76-11.06 3.78a8.52 8.52 0 0 0-2.81 1.36 3 3 0 0 0-1.07 2.33 12.84 12.84 0 0 0 .77 4.46l-3 1.07-7.57-22.22 3-1.07a13.43 13.43 0 0 0 2 4 3.18 3.18 0 0 0 2.33 1.16 9.07 9.07 0 0 0 3.11-.67l28.14-9.71a10.82 10.82 0 0 0 2.81-1.36 3.32 3.32 0 0 0 1.16-2.32 10.87 10.87 0 0 0-.77-4.47l3-1z"/>
  <path d="M112.08 563.58l15.33-2.72 8.54 41.43-3.1.68c-.59-2.81-1.36-4.66-2.33-5.24s-2.52-.77-4.47-.39l-29.2 6a8.11 8.11 0 0 0-3 1.07 3.1 3.1 0 0 0-1.36 2.23 13.75 13.75 0 0 0 .29 4.66l-3.1.68-8-38.53 11.94-3.1.68 3.1a16.73 16.73 0 0 0-5.22 3.61 5.53 5.53 0 0 0-1.46 3.59 26 26 0 0 0 .68 5.24l1.78 8.74 16.39-3.4-1-4.75a10.35 10.35 0 0 0-1.16-3.59 2.8 2.8 0 0 0-1.94-1.36 13.26 13.26 0 0 0-3.88.09l-.68-3.29 15.43-3.21.68 3.21a16 16 0 0 0-3.69 1.45 2.73 2.73 0 0 0-1.26 2 13.63 13.63 0 0 0 .29 3.69l1 4.75 11-2.23a34 34 0 0 0 4-1 4.63 4.63 0 0 0 1.94-1.17 3.07 3.07 0 0 0 .78-2.23 16.74 16.74 0 0 0-.39-4l-.78-3.68a16.58 16.58 0 0 0-1.55-4.37 9.15 9.15 0 0 0-4-3.59c-1.94-1.07-4.75-1.45-8.34-1.26l-.78-3.2zm-7.76-71.51a11.44 11.44 0 0 0 .78 3 2.38 2.38 0 0 0 1.55 1.36 13.32 13.32 0 0 0 3.3.29l11.16-.39a47.47 47.47 0 0 0 1.74 11c.78 2.81 1.26 4.95 1.56 6.31a34.93 34.93 0 0 1 .58 5 23.6 23.6 0 0 1-3.11 13.3 22.21 22.21 0 0 1-8.92 8.53 27.63 27.63 0 0 1-11.55 3.21 24.43 24.43 0 0 1-12.62-2.82 24.16 24.16 0 0 1-9.21-8.44 23.66 23.66 0 0 1-3.69-12 22.11 22.11 0 0 1 5-14.85 16.85 16.85 0 0 0-4.17-1.16l-.04-3.41 15.52-1 .1 3.2a17.88 17.88 0 0 0-6.41 3 15.39 15.39 0 0 0-4.46 5.24 13.11 13.11 0 0 0-1.46 6.7 15.93 15.93 0 0 0 1.17 5.14 13.6 13.6 0 0 0 3.4 4.66 15.4 15.4 0 0 0 6.4 3.3 30.23 30.23 0 0 0 9.8 1 38.47 38.47 0 0 0 9.51-1.46 16.17 16.17 0 0 0 7.66-4.56c2.14-2.23 3.11-5.34 2.91-9.22q-.13-4.65-1.74-7a6.56 6.56 0 0 0-3.69-2.92 18.56 18.56 0 0 0-4.75-.58 13.87 13.87 0 0 0-3.56.5 2.56 2.56 0 0 0-1.56 1.74 12.08 12.08 0 0 0-.38 4.18l-3.21.09-.77-21.15 3.2.2zM127.91 442l-1.17 12.61a25.94 25.94 0 0 1-2.42 1.55c-1.07.59-2.23 1.27-3.69 1.94l-3.49 1.75-5.63 2.72a38.56 38.56 0 0 0-5.14 2.81 6.14 6.14 0 0 0-1.94 2.33 23.24 23.24 0 0 0-.78 4.75l-.19 1.75 12.32 1.17a11.66 11.66 0 0 0 3.2-.1 3.36 3.36 0 0 0 2-1.84 14 14 0 0 0 1.1-4.44l3.2.29-2.2 23.65-3.21-.29c.3-2.91 0-4.76-.77-5.63a6.21 6.21 0 0 0-4.17-1.65l-29.7-2.72c-2-.19-3.49.1-4.36.78s-1.57 2.57-1.79 5.43l-3.3-.29.68-11c0-.88.1-1.85.2-2.91s.19-2.14.29-3c.09-.68.19-1.94.38-3.59.3-2.33.68-4.56 1.07-6.5a25.76 25.76 0 0 1 1.26-4.76 15.47 15.47 0 0 1 2.62-4.75 12.82 12.82 0 0 1 4.37-3.49 10.93 10.93 0 0 1 5.92-1 12.14 12.14 0 0 1 4.51 1.51 10.33 10.33 0 0 1 3.69 3.69 17 17 0 0 1 2.23 6.3 15.67 15.67 0 0 1 4.08-4c1.55-1.07 4.46-2.62 8.63-4.86 2.43-1.26 4.17-2.32 5.44-3.1a9.23 9.23 0 0 0 2.62-2.43 7.75 7.75 0 0 0 1.06-3l3.11.29zm-36.49 16.4c-3.78-.39-6.4.58-7.76 2.71a19.47 19.47 0 0 0-2.72 8.83c0 .49-.09.88-.09 1.17a3.54 3.54 0 0 1-.1 1l19 1.74.19-2.23a22.06 22.06 0 0 0-.87-9c-1-2.33-3.49-3.79-7.67-4.17z"/>
  <path d="M121.7 399l15.14 3.69-9 41.33-3.1-.67c.58-2.82.58-4.76 0-5.73a5.94 5.94 0 0 0-4-2.13l-29.11-6.31a10.12 10.12 0 0 0-3.2-.29 3.06 3.06 0 0 0-2.14 1.45 12.17 12.17 0 0 0-1.65 4.37l-3.1-.68 8.34-38.42 12.13 2-.68 3.11a16.25 16.25 0 0 0-6.31 1.16 5.83 5.83 0 0 0-2.81 2.62 37.06 37.06 0 0 0-1.55 5l-1.85 8.63 16.4 3.59 1.07-4.75a11.07 11.07 0 0 0 .39-3.69 2.6 2.6 0 0 0-1.26-2 14.56 14.56 0 0 0-3.59-1.46l.68-3.3 15.42 3.4-.68 3.1a10.75 10.75 0 0 0-3.88-.1 3.35 3.35 0 0 0-2 1.36 9.54 9.54 0 0 0-1.17 3.5l-1.11 4.81 10.87 2.33c1.85.39 3.2.68 4.08.78a4 4 0 0 0 2.23-.3 4.51 4.51 0 0 0 1.65-1.64 12.73 12.73 0 0 0 1.17-3.76l.78-3.69a15.26 15.26 0 0 0 .39-4.65 8.86 8.86 0 0 0-2.14-4.86c-1.36-1.74-3.78-3.2-7.18-4.56l.78-3.2zm30.66-41.82l-7.28 21.16-3-1.06a14.68 14.68 0 0 0 1-4.08 1.76 1.76 0 0 0-1.36-1.84 7.38 7.38 0 0 0-2.14-.29l-6 .29-5.05 14.55 2.52 2.14a12.5 12.5 0 0 0 3.21 2.13 2.39 2.39 0 0 0 3-.68 12.34 12.34 0 0 0 1.75-3.39l3 1.06-5.34 15.43-3-1.07a7 7 0 0 0 .39-3.39 8.07 8.07 0 0 0-1.75-3.4 40 40 0 0 0-4.56-4.46l-29.4-24.65 1.07-3.1 39.66-1.53a42 42 0 0 0 5.72-.49 5.39 5.39 0 0 0 2.72-1.26 8.31 8.31 0 0 0 1.94-3.2zm-22.61 14.27l-17.75.77 13.58 11.26zm10.68-67.34l-1.46 3c-2.81-1-5-1.35-6.7-1.06a6.27 6.27 0 0 0-3.68 1.74 12.7 12.7 0 0 0-2.14 3.4l-2.62 5.43 31.34 15a8.09 8.09 0 0 0 3.11 1 3.23 3.23 0 0 0 2.42-1 14.89 14.89 0 0 0 2.53-3.78l2.91 1.36-10.38 21.44-2.91-1.36c1.26-2.62 1.64-4.46 1.26-5.63s-1.56-2.13-3.4-3l-31.34-15-2.14 4.56a20.14 20.14 0 0 0-1.74 4.65 5.94 5.94 0 0 0 .87 4.27c.87 1.56 2.52 2.91 5.14 4.37l-1.45 3-12.13-5.82 20.28-42.31 12.23 5.73zm47.83-36.2a13.75 13.75 0 0 1 3.3 3.4 18.44 18.44 0 0 1 2.33 5 14.68 14.68 0 0 1-2.33 12.33 18.17 18.17 0 0 1-5.63 5.24 16.21 16.21 0 0 1-7.57 2.42 18.46 18.46 0 0 0 3.11 3.88l-1.84 2.62-13.39-9.12 1.84-2.62a34.62 34.62 0 0 0 6.79 1.75 16.2 16.2 0 0 0 6.79-.58 10.6 10.6 0 0 0 5.73-4.47 8.44 8.44 0 0 0 1.69-5.76 6.54 6.54 0 0 0-2.91-4.56 6.83 6.83 0 0 0-2.82-1.07 7.43 7.43 0 0 0-2.91.3 21.75 21.75 0 0 0-3.69 1.65c-1.45.77-3 1.74-4.75 2.81a33.15 33.15 0 0 1-7.37 3.49 17.09 17.09 0 0 1-5.63 1.17 13.61 13.61 0 0 1-4.17-.49 12.23 12.23 0 0 1-3.21-1.55 12.69 12.69 0 0 1-4.27-4.95 13.11 13.11 0 0 1-1.35-7 15.24 15.24 0 0 1 2.71-7.47 13.62 13.62 0 0 1 4.76-4.36 17.74 17.74 0 0 1 6.3-2 21.55 21.55 0 0 0-2.71-3.3l1.84-2.72 11 7.47-1.85 2.72c-7.28-2.13-12.52-.78-15.81 4a7.52 7.52 0 0 0-1.46 5.14 5.87 5.87 0 0 0 6 5 10 10 0 0 0 3.88-1.17c1.36-.68 3.39-1.84 6.11-3.39 3.3-1.94 6.11-3.4 8.15-4.37a17.37 17.37 0 0 1 6.6-1.55 11.73 11.73 0 0 1 6.79 2.13zm27.56-36l11.64 10.39-27.38 32.22-2.43-2c1.85-2.23 2.82-3.88 2.72-5.14s-1-2.42-2.52-3.78l-22.71-19.31a10.3 10.3 0 0 0-2.71-1.75 3.23 3.23 0 0 0-2.62.29 13.27 13.27 0 0 0-3.5 3.11l-2.42-2 25.52-30 9.8 7.47-2 2.42a14.49 14.49 0 0 0-6.11-1.84 5.53 5.53 0 0 0-3.69 1.07 23 23 0 0 0-3.79 3.78l-5.72 6.79 12.81 10.87 3.1-3.69a11.58 11.58 0 0 0 2-3.1 2.72 2.72 0 0 0-.19-2.43 14.3 14.3 0 0 0-2.53-3l2.14-2.53 12 10.19-2 2.43a9.61 9.61 0 0 0-3.39-1.94 2.69 2.69 0 0 0-2.43.29 10.2 10.2 0 0 0-2.72 2.52l-3.2 3.69 8.54 7.27c1.46 1.17 2.52 2 3.2 2.53a3.89 3.89 0 0 0 2.14.77 3.46 3.46 0 0 0 2.23-.68 17.38 17.38 0 0 0 2.81-2.71l2.43-2.91a19 19 0 0 0 2.52-3.88 8.57 8.57 0 0 0 .39-5.34c-.39-2.14-1.75-4.66-4.17-7.38l2.23-2.62zm46.77-22.6l-16.4 15.23-2.23-2.33a13.23 13.23 0 0 0 2.71-3.1 1.69 1.69 0 0 0-.38-2.24 5.89 5.89 0 0 0-1.75-1.26l-5.46-2.61-11.26 10.48 1.26 3a10.16 10.16 0 0 0 1.85 3.4 2.55 2.55 0 0 0 3 .87 12.41 12.41 0 0 0 3.21-2.13l2.23 2.32L227.46 242l-2.23-2.33a7.46 7.46 0 0 0 1.94-2.82 8.21 8.21 0 0 0 0-3.78 34.87 34.87 0 0 0-1.94-6l-14.36-35.51 2.43-2.23L249 206.5c2.53 1.17 4.27 1.94 5.34 2.33a5 5 0 0 0 2.91.19 7.15 7.15 0 0 0 3.2-1.94l2.14 2.24zm-26.69 1.94l-16.1-7.67 6.69 16.4 9.41-8.73z"/>
  <path d="M286.55 172.25l9.13 13-34.06 25-1.94-2.62q3.5-2.62 3.78-4.37c.19-1.16-.39-2.62-1.55-4.27l-17.56-24a10.41 10.41 0 0 0-2.24-2.32 3 3 0 0 0-2.62-.3 12.57 12.57 0 0 0-4 2.14l-1.91-2.51 19.21-14.17 1.94 2.62a14.84 14.84 0 0 0-3.3 3.11 3.28 3.28 0 0 0-.58 2.62 8.67 8.67 0 0 0 1.55 2.91l16.2 22a17.53 17.53 0 0 0 3 3.5 3.14 3.14 0 0 0 2.62.68 10.42 10.42 0 0 0 4.08-2.14 32.46 32.46 0 0 0 5.33-4.66 11.37 11.37 0 0 0 2.62-5.91c.29-2.43-.38-5.24-2.23-8.45l2.52-1.84zm60.26-41.34a25.74 25.74 0 0 1 2.72 12.23 24.26 24.26 0 0 1-4.08 12.23 27.94 27.94 0 0 1-11.25 9.41 30.46 30.46 0 0 1-11.55 3.39 24.25 24.25 0 0 1-10.09-1.45 23.33 23.33 0 0 1-7.86-4.95 26.67 26.67 0 0 1-5.34-7.08 24.58 24.58 0 0 1-2.71-12 22 22 0 0 1 4-12.13c2.53-3.88 6.31-7 11.26-9.51 4.56-2.23 8.73-3.5 12.61-3.59a22.46 22.46 0 0 1 10.19 1.84 25.93 25.93 0 0 1 7.38 5.14 26.65 26.65 0 0 1 4.72 6.47zm-10.19 5a36.94 36.94 0 0 0-4-6.4 17.65 17.65 0 0 0-5-4.66 14.39 14.39 0 0 0-6.21-2 15.83 15.83 0 0 0-7.38 1.75c-3.59 1.84-5.91 4.08-7.08 6.89a15 15 0 0 0-.78 8.73 38.82 38.82 0 0 0 3.3 9.32c.88 1.74 1.94 3.49 3.11 5.33a22 22 0 0 0 4.56 5.05 13.15 13.15 0 0 0 6.69 2.91 14.46 14.46 0 0 0 8.45-1.65 13.74 13.74 0 0 0 6.3-5.82 14.74 14.74 0 0 0 1.5-7.36 28.47 28.47 0 0 0-1.27-6.69 56.88 56.88 0 0 0-2.23-5.44zm47.55-30.08l-3.09 1.02a14.37 14.37 0 0 0-4.07-4.66 6.67 6.67 0 0 0-3.79-1.06 22 22 0 0 0-4.85 1.26l-7.95 2.81 5.6 15.8 4.18-1.46c1.94-.68 3.2-1.55 3.68-2.42s.39-2.62-.39-5l3-1.07 5.25 14.95-3.1 1.06a13.53 13.53 0 0 0-1.94-3.49 2.59 2.59 0 0 0-2-1 11.3 11.3 0 0 0-3.4.68l-4.07 1.45 4.65 13.3c.68 1.84 1.46 3 2.53 3.59s2.91.39 5.53-.49l1-.29 1.07 3-23 8.15-1.07-3c2.72-1 4.37-1.94 4.85-3.1a6.08 6.08 0 0 0-.29-4.47l-9.89-28.13a10.44 10.44 0 0 0-1.46-2.82 3.59 3.59 0 0 0-2.43-1.07 11.56 11.56 0 0 0-4.46.88l-1.07-3 36.58-12.91 4.47 11.45zm66.46-13.19l-3.29.58c-.88-2.81-1.85-4.85-3.11-6a6.37 6.37 0 0 0-3.59-1.94 14.87 14.87 0 0 0-4 .29l-5.92 1.07 6.36 34.09a12.8 12.8 0 0 0 1 3.1 3.07 3.07 0 0 0 2.23 1.36 12.84 12.84 0 0 0 4.56-.19l.58 3.2-23.38 4.36-.58-3.2c2.91-.58 4.66-1.26 5.33-2.23s.78-2.52.49-4.46l-6.4-34.16-4.95 1a22 22 0 0 0-4.76 1.36 6 6 0 0 0-2.91 3.2 12.89 12.89 0 0 0-.48 6.7l-3.3.58-2.43-13.2 46-8.66zm61.45 30.22L488.77 124l-.2-3.21a10.68 10.68 0 0 0 4.27-.87 2.85 2.85 0 0 0 1.75-1.94 14 14 0 0 0 .29-3.2l-.68-14.27-22 1.07.68 14.26c.1 1.95.59 3.4 1.46 4.18s2.72 1.16 5.63 1.06l.19 3.21-23.48 1.16-.19-3.2a11.54 11.54 0 0 0 4.27-.87 3.29 3.29 0 0 0 1.84-1.94 7.82 7.82 0 0 0 .29-3.21l-1.36-29.49a11.26 11.26 0 0 0-.58-3.11 3.18 3.18 0 0 0-1.94-1.75 11.15 11.15 0 0 0-4.46-.48l-.2-3.2 23.48-1.17.2 3.2c-2.91.2-4.76.68-5.53 1.56s-1.17 2.33-1.07 4.36l.58 11.65 22-1.07-.59-11.64a10.89 10.89 0 0 0-.58-3.11 3.18 3.18 0 0 0-1.94-1.75 11.13 11.13 0 0 0-4.46-.48l-.2-3.2 23.29-1.17.2 3.21a11.25 11.25 0 0 0-4.37.87 3.18 3.18 0 0 0-1.75 1.84 13.79 13.79 0 0 0-.29 3.11l1.55 29.79a10.82 10.82 0 0 0 .49 3 3.18 3.18 0 0 0 1.94 1.75 11.36 11.36 0 0 0 4.46.49l.29 3.39z"/>
  <path d="M555.52 110.93l-1.55 15.52-42.11-3.2.29-3.2c2.91.19 4.85-.1 5.73-.78s1.45-2.13 1.55-4.27l2.33-29.69a8.17 8.17 0 0 0-.2-3.2 3 3 0 0 0-1.74-1.94 11.25 11.25 0 0 0-4.56-1l.29-3.2 39.3 3-.39 12.33-3.2-.3a15.42 15.42 0 0 0-2-6 6 6 0 0 0-3-2.43 25.51 25.51 0 0 0-5.24-.77l-8.83-.68-1.31 16.71 4.85.39a10.44 10.44 0 0 0 3.69-.2 2.7 2.7 0 0 0 1.84-1.55 14.72 14.72 0 0 0 1-3.79l3.4.3-1.17 15.71-3.2-.29a13.26 13.26 0 0 0-.39-3.88 2.68 2.68 0 0 0-1.65-1.74 12.46 12.46 0 0 0-3.68-.68l-4.86-.39-.87 11.16c-.1 1.84-.19 3.2-.19 4.07a4 4 0 0 0 .58 2.23 3.4 3.4 0 0 0 1.84 1.36 15.91 15.91 0 0 0 3.88.68l3.79.29a18.48 18.48 0 0 0 4.66-.29 9.51 9.51 0 0 0 4.56-2.81c1.55-1.55 2.71-4.17 3.49-7.67l3.1.2zm53.18 12.9a12.35 12.35 0 0 1-1.94 4.37 16.33 16.33 0 0 1-3.79 4 14.56 14.56 0 0 1-5.53 2.52 15.18 15.18 0 0 1-6.89-.1 19.13 19.13 0 0 1-7-3.3 16.57 16.57 0 0 1-5-6.21 19.82 19.82 0 0 0-2.42 4.37l-3.11-.68 3.56-15.8 3.11.68a39.29 39.29 0 0 0 .87 7 15.22 15.22 0 0 0 3.1 6.11 10.63 10.63 0 0 0 6.21 3.69 8.32 8.32 0 0 0 6-.68 6.73 6.73 0 0 0 3.2-4.37 5.27 5.27 0 0 0 0-3 8.33 8.33 0 0 0-1.36-2.62 20.33 20.33 0 0 0-2.91-2.82c-1.26-1.06-2.71-2.23-4.36-3.39a43 43 0 0 1-6-5.53 22.86 22.86 0 0 1-3.2-4.86 11.57 11.57 0 0 1-1.07-4.07 11 11 0 0 1 .29-3.59 12.44 12.44 0 0 1 3.11-5.73 14.71 14.71 0 0 1 19.69-1.26 16.66 16.66 0 0 1 4.18 5.14 29.91 29.91 0 0 0 2-3.78l3.21.78-2.91 12.9-3.21-.77c-.68-7.57-3.88-11.94-9.51-13.2a7.58 7.58 0 0 0-5.33.48 5.44 5.44 0 0 0-2.82 3.79 5.6 5.6 0 0 0 .39 3.78 9.77 9.77 0 0 0 2.52 3.21c1.07 1 2.92 2.42 5.44 4.46 3 2.42 5.43 4.37 7.08 6a18.88 18.88 0 0 1 3.88 5.63 10.93 10.93 0 0 1 .49 6.89zm53.85-3.3l-3.1-1.06c.67-2.92.77-5.15.29-6.8a6.2 6.2 0 0 0-2.14-3.49 13.8 13.8 0 0 0-3.59-1.75l-5.72-1.94-11.45 32.7a8.92 8.92 0 0 0-.68 3.2 3.48 3.48 0 0 0 1.26 2.33 10.41 10.41 0 0 0 4.07 2l-1.06 3-22.51-7.86 1.06-3c2.72 1 4.66 1.17 5.73.68s1.94-1.75 2.62-3.69l11.54-32.79-4.79-1.61a18.32 18.32 0 0 0-4.85-1.17 6.17 6.17 0 0 0-4.08 1.26c-1.36 1-2.62 2.92-3.78 5.63l-3.11-1.07 4.47-12.71 44.24 15.43-4.46 12.71zm26.53 50.36l-20.18-9.6 1.36-2.92a22.26 22.26 0 0 0 3.88 1.46 1.78 1.78 0 0 0 1.94-1.16 7.86 7.86 0 0 0 .58-2.14l.39-6-13.88-6.6-2.33 2.33a13.73 13.73 0 0 0-2.52 2.91 2.57 2.57 0 0 0 .29 3.1 10.44 10.44 0 0 0 3.2 2.14l-1.35 2.91-14.75-7 1.36-2.91a7.38 7.38 0 0 0 3.29.78 8 8 0 0 0 3.59-1.36 35.65 35.65 0 0 0 4.95-4.08l27.75-26.49 3 1.46-2.81 39.59c-.2 2.81-.2 4.75-.2 5.82a5.58 5.58 0 0 0 .88 2.81 6.8 6.8 0 0 0 3 2.23l-1.44 2.72zm-11.55-24l1.26-17.76-12.71 12.26zm65.69 18l-2.81-1.74c1.26-2.62 1.94-4.86 1.84-6.5a6.14 6.14 0 0 0-1.36-3.89 14.06 14.06 0 0 0-3.1-2.52l-5.14-3.2-18.44 29.5a9.33 9.33 0 0 0-1.36 2.91 3.28 3.28 0 0 0 .68 2.52 14.71 14.71 0 0 0 3.45 3.03l-1.74 2.72-20.16-12.66 1.74-2.71c2.43 1.55 4.27 2.23 5.44 1.94s2.23-1.26 3.39-3l18.43-29.51-4.27-2.71a24.05 24.05 0 0 0-4.46-2.24 6.12 6.12 0 0 0-4.27.39 12.56 12.56 0 0 0-4.86 4.66l-2.81-1.75 7.18-11.45 39.78 24.84-7.19 11.48zm24.86 43.55l-10 11.94-32.89-26.49 2-2.52c2.23 1.84 4 2.71 5.15 2.52s2.42-1 3.68-2.62l18.73-23.19a9.67 9.67 0 0 0 1.65-2.72 3 3 0 0 0-.39-2.62 11 11 0 0 0-3.2-3.39l2-2.53 30.66 24.65-7.28 10-2.52-2a16.59 16.59 0 0 0 1.75-6.11 5.59 5.59 0 0 0-1.17-3.69 25.28 25.28 0 0 0-3.88-3.59l-6.89-5.53-10.48 13.1 3.79 3a8.31 8.31 0 0 0 3.2 1.94 2.79 2.79 0 0 0 2.33-.19 11 11 0 0 0 2.91-2.62l2.62 2.13-9.9 12.33-2.52-2a10.2 10.2 0 0 0 1.84-3.5 3.48 3.48 0 0 0-.29-2.42 13.24 13.24 0 0 0-2.62-2.62l-3.78-3.11-7 8.74a36.17 36.17 0 0 0-2.43 3.3 5.12 5.12 0 0 0-.77 2.13 3.65 3.65 0 0 0 .77 2.23 15.38 15.38 0 0 0 2.82 2.82l3 2.42a18.83 18.83 0 0 0 4 2.43 8.8 8.8 0 0 0 5.34.19c2.13-.48 4.56-1.94 7.28-4.36l2.52 2zm56.08 47.84a25.56 25.56 0 0 1-11.08 5.72 23.27 23.27 0 0 1-12.81-.77 28.74 28.74 0 0 1-12-8.44 29.75 29.75 0 0 1-6.21-10.29 22.94 22.94 0 0 1-1.17-10.09 25.38 25.38 0 0 1 8.35-15.82 26 26 0 0 1 11-5.72 22.79 22.79 0 0 1 12.71.68 27.87 27.87 0 0 1 12 8.44 29.11 29.11 0 0 1 6.7 11.35 22.65 22.65 0 0 1 .77 10.38 26.5 26.5 0 0 1-3.1 8.45 29.11 29.11 0 0 1-5 6.11zm-7.47-8.54a39.85 39.85 0 0 0 5.24-5.53 18.24 18.24 0 0 0 3.2-6.11 12.35 12.35 0 0 0 .3-6.5 14.39 14.39 0 0 0-3.59-6.6c-2.62-3-5.44-4.66-8.45-5.05a14.24 14.24 0 0 0-8.63 1.55 33.33 33.33 0 0 0-8.15 5.63 46.17 46.17 0 0 0-4.37 4.37 22.54 22.54 0 0 0-3.69 5.72 13.58 13.58 0 0 0 2.72 15 13.07 13.07 0 0 0 7.18 4.56 13.51 13.51 0 0 0 7.38-.38 22.76 22.76 0 0 0 6.11-3 51.7 51.7 0 0 0 4.79-3.66zm41.39 38.13l-1.85-2.71a15 15 0 0 0 3.5-5.15 5.64 5.64 0 0 0 0-4 21.79 21.79 0 0 0-2.53-4.37l-4.75-7-13.88 9.51 2.53 3.69c1.16 1.75 2.33 2.72 3.3 2.91s2.62-.29 4.65-1.65l1.85 2.62-13 8.93-1.82-2.65a16 16 0 0 0 2.91-2.72 3 3 0 0 0 .49-2.23 8.38 8.38 0 0 0-1.55-3.1l-2.43-3.59-11.64 7.95a6.6 6.6 0 0 0-2.82 3.3c-.29 1.17.29 2.91 1.94 5.24l.59.78-2.62 1.84-13.78-20.08 2.62-1.85c1.65 2.43 3 3.69 4.17 3.88s2.62-.29 4.27-1.45l24.64-16.88a7.27 7.27 0 0 0 2.33-2.14 3.28 3.28 0 0 0 .39-2.62 11.05 11.05 0 0 0-2-4.07l2.62-1.85 21.93 32zm6.4 92.57l-9.8-21.73 2.91-1.36a12.88 12.88 0 0 0 2.43 3.88 3.12 3.12 0 0 0 2.42 1 13.08 13.08 0 0 0 3.11-.87l27.17-12.23-42.5-.58-.87-1.94 27.73-32.44-25.72 11.55a29.2 29.2 0 0 0-3.1 1.55 4.68 4.68 0 0 0-1.55 1.55 4.4 4.4 0 0 0-.3 2.33 12.92 12.92 0 0 0 1.27 3.69l-2.92 1.36-7.18-16 2.92-1.36a15.75 15.75 0 0 0 1.94 3.39 3.54 3.54 0 0 0 1.94 1.36 3.9 3.9 0 0 0 2.13-.1 25.07 25.07 0 0 0 3.2-1.26l24.55-11.06a19.29 19.29 0 0 0 3.79-2 3.4 3.4 0 0 0 1.16-2.42 11.63 11.63 0 0 0-1.36-4.66l2.91-1.36 7.09 15.82-24.07 28 37 .68 7 15.52-2.91 1.36c-1.17-2.62-2.33-4.17-3.5-4.65a6.38 6.38 0 0 0-4.46.58l-27.17 12.22a10.1 10.1 0 0 0-2.71 1.65 3.13 3.13 0 0 0-.88 2.53 13.31 13.31 0 0 0 1.26 4.46l-2.91 1.55z"/>
  <path d="M870.39 401.24l-7.18-23 3.11-1a12.82 12.82 0 0 0 1.94 4.17 3 3 0 0 0 2.23 1.36 7.81 7.81 0 0 0 3.3-.58l28.43-8.93a6.07 6.07 0 0 0 3.78-2.52c.58-1.07.39-3-.48-5.83l3.1-1 7.18 23-3.1 1a13 13 0 0 0-1.94-4.17 3 3 0 0 0-2.24-1.36 9.3 9.3 0 0 0-3.29.48l-28.43 8.93a10.38 10.38 0 0 0-2.92 1.36 3.64 3.64 0 0 0-1.16 2.43 13.94 13.94 0 0 0 .78 4.65l-3.11 1zm21.54 32.32a12.94 12.94 0 0 1-4.75.09 18.45 18.45 0 0 1-5.24-1.74 14.75 14.75 0 0 1-4.66-3.91 15.22 15.22 0 0 1-2.91-6.21 18.6 18.6 0 0 1-.1-7.66 16.71 16.71 0 0 1 3.4-7.28 14.78 14.78 0 0 0-5-.29l-.68-3.1 15.82-3.59.68 3.1a34.23 34.23 0 0 0-5.92 3.78 15.5 15.5 0 0 0-4.18 5.44 10.8 10.8 0 0 0-.67 7.28 7.68 7.68 0 0 0 3.2 5.14 6.29 6.29 0 0 0 5.24 1 6.07 6.07 0 0 0 4.46-3.59 33.79 33.79 0 0 0 1.36-3.88c.39-1.56.87-3.4 1.26-5.44a37 37 0 0 1 2.43-7.76 19.35 19.35 0 0 1 3-4.95 12.57 12.57 0 0 1 6.51-4.07 12.38 12.38 0 0 1 6.5.29 13.75 13.75 0 0 1 6 3.78 14.14 14.14 0 0 1 3.59 7 13.37 13.37 0 0 1-.09 6.5 16.42 16.42 0 0 1-2.82 6 18.84 18.84 0 0 0 4.27.19l.78 3.2-12.91 2.91-.68-3.2q9.75-5.82 7.86-14.26a7.46 7.46 0 0 0-2.71-4.56 5.85 5.85 0 0 0-7.77 1.06 10.69 10.69 0 0 0-1.84 3.59c-.39 1.46-1 3.69-1.65 6.8a80.8 80.8 0 0 1-2.43 8.92 16.94 16.94 0 0 1-3.39 5.92 11.08 11.08 0 0 1-6 3.5zm5 44.44a11.89 11.89 0 0 1-4.76-.39 15.71 15.71 0 0 1-5-2.23 14.16 14.16 0 0 1-4.27-4.37 15.12 15.12 0 0 1-2.23-6.5 18.89 18.89 0 0 1 .68-7.67 16.63 16.63 0 0 1 4.07-6.89 27.23 27.23 0 0 0-5-.87l-.39-3.2 16.11-2 .39 3.2a31.59 31.59 0 0 0-6.21 3.2 15.62 15.62 0 0 0-4.75 4.95 10.88 10.88 0 0 0-1.36 7.09 8.24 8.24 0 0 0 2.62 5.43 6.53 6.53 0 0 0 5.14 1.55 5.43 5.43 0 0 0 2.81-1.06 7.64 7.64 0 0 0 2-2.24 14.58 14.58 0 0 0 1.65-3.68c.49-1.56 1.16-3.3 1.75-5.24a36.24 36.24 0 0 1 3.2-7.47 19.35 19.35 0 0 1 3.49-4.66 14.07 14.07 0 0 1 3.4-2.43 10.7 10.7 0 0 1 3.39-1 11.47 11.47 0 0 1 6.41 1 13 13 0 0 1 5.63 4.37 15.21 15.21 0 0 1 2.91 7.37 14.78 14.78 0 0 1-.68 6.5 16 16 0 0 1-3.4 5.63 27.91 27.91 0 0 0 4.27.68l.39 3.3-13 1.63-.39-3.3c6.89-3.2 9.9-7.66 9.22-13.39a7.82 7.82 0 0 0-2.23-4.85 5.31 5.31 0 0 0-4.47-1.36 5.37 5.37 0 0 0-3.39 1.65 10.85 10.85 0 0 0-2.23 3.4c-.59 1.35-1.36 3.59-2.33 6.59a69.81 69.81 0 0 1-3.3 8.64 16.1 16.1 0 0 1-4 5.53 8.78 8.78 0 0 1-6.09 3.09zm-11.65 24.74l-1.06-24.07 3.2-.09a15.62 15.62 0 0 0 .78 4.56 3.27 3.27 0 0 0 1.84 1.94 8.06 8.06 0 0 0 3.3.29l29.79-1.26c2-.1 3.49-.58 4.27-1.46s1.16-2.81 1-5.82l3.2-.1 1.07 24.07-3.21.09a15.4 15.4 0 0 0-.77-4.56 3.63 3.63 0 0 0-1.85-1.94 8.24 8.24 0 0 0-3.3-.29l-29.78 1.26a12 12 0 0 0-3.21.59 3.14 3.14 0 0 0-1.74 2 12.18 12.18 0 0 0-.39 4.66z"/>
  <path d="M896.88 536a14.7 14.7 0 0 1-4.66-1.07 14.83 14.83 0 0 1-9.31-14.75 19 19 0 0 1 1.94-7.47 16.41 16.41 0 0 1 5.14-6.11 22.89 22.89 0 0 0-4.75-1.65l.09-3.2 16.21.58-.1 3.2a38.11 38.11 0 0 0-6.69 2.14 15.12 15.12 0 0 0-5.44 4.17 10.67 10.67 0 0 0-2.42 6.79 8.18 8.18 0 0 0 1.74 5.82 6.6 6.6 0 0 0 4.85 2.33 7.19 7.19 0 0 0 3-.58 7 7 0 0 0 2.33-1.84 18.33 18.33 0 0 0 2.27-3.36c.78-1.45 1.65-3.1 2.62-4.85a38.93 38.93 0 0 1 4.37-6.89 22.89 22.89 0 0 1 4.17-4.08 13.49 13.49 0 0 1 3.79-1.84 11.23 11.23 0 0 1 3.59-.39 13.24 13.24 0 0 1 11.06 7.18 13.59 13.59 0 0 1 1.65 7.67 14.69 14.69 0 0 1-1.75 6.31 16.44 16.44 0 0 1-4.27 5 18.43 18.43 0 0 0 4.08 1.26l-.1 3.3-13.2-.48.1-3.3c7.28-2 11.06-6 11.26-11.74a7.41 7.41 0 0 0-1.46-5.15 5 5 0 0 0-4.17-2 5.12 5.12 0 0 0-3.59 1.06 10.31 10.31 0 0 0-2.72 3c-.78 1.26-1.84 3.3-3.3 6.21-1.74 3.4-3.3 6.11-4.56 8.06a18.88 18.88 0 0 1-4.75 4.85 11.64 11.64 0 0 1-7 1.84zm-5 38.81a12.26 12.26 0 0 1-4.47-1.55 16.14 16.14 0 0 1-4.27-3.49 14 14 0 0 1-3-5.24 14.75 14.75 0 0 1-.48-6.89 17.83 17.83 0 0 1 2.62-7.18 16.75 16.75 0 0 1 5.72-5.63 18.43 18.43 0 0 0-4.56-2l.39-3.2 16.11 2.23-.39 3.2a32.56 32.56 0 0 0-6.89 1.56 16.61 16.61 0 0 0-5.82 3.59 10.82 10.82 0 0 0-3.11 6.5 8.43 8.43 0 0 0 1.17 5.92 6.54 6.54 0 0 0 4.56 2.81 5.22 5.22 0 0 0 3-.29 6.66 6.66 0 0 0 2.52-1.65 24.43 24.43 0 0 0 2.62-3.1c1-1.36 1.94-2.92 3-4.66a37.78 37.78 0 0 1 5-6.41 20 20 0 0 1 4.56-3.59 13 13 0 0 1 3.89-1.45 14.38 14.38 0 0 1 3.59-.1 13.66 13.66 0 0 1 6 2.52 14.94 14.94 0 0 1 4.37 5.63 14 14 0 0 1 1 7.86 14.31 14.31 0 0 1-2.33 6.11 16.52 16.52 0 0 1-4.76 4.66 24.29 24.29 0 0 0 4 1.75l-.48 3.3-13.1-1.75.48-3.3c7.48-1.36 11.55-4.85 12.33-10.57a7.27 7.27 0 0 0-1-5.24 5.16 5.16 0 0 0-4-2.43 5.33 5.33 0 0 0-3.69.68 11.25 11.25 0 0 0-3 2.72c-.87 1.16-2.23 3.1-4 5.82-2.13 3.2-3.88 5.72-5.33 7.57a19.11 19.11 0 0 1-5.24 4.36 14.12 14.12 0 0 1-7.08 1zm-19.12 22.9l5.14-23.48 3.11.68a13.65 13.65 0 0 0-.39 4.56 3.42 3.42 0 0 0 1.26 2.33 8.77 8.77 0 0 0 3.11 1.16l29.09 6.43a6.31 6.31 0 0 0 4.56-.29c1-.68 1.84-2.43 2.42-5.34l3.11.68-5.15 23.48-3.1-.68a13.65 13.65 0 0 0 .39-4.56 3.5 3.5 0 0 0-1.26-2.33 8.77 8.77 0 0 0-3.11-1.16l-29.11-6.41a7.63 7.63 0 0 0-3.2-.19 3.62 3.62 0 0 0-2.14 1.55 14.18 14.18 0 0 0-1.64 4.37z"/>
  <path d="M893.68 648.77c-3.69-1.16-6.21-3.2-7.38-6.11a18.58 18.58 0 0 1-1.16-9.22 57.22 57.22 0 0 1 2.23-10.09l1-3-11.84-3.69a12.73 12.73 0 0 0-3.2-.58 3.34 3.34 0 0 0-2.23 1.36 12.82 12.82 0 0 0-1.94 4.17l-3.11-1 7.19-22.8 3.1 1a13.19 13.19 0 0 0-.78 4.46 3 3 0 0 0 1.17 2.33 10.17 10.17 0 0 0 2.91 1.36l28.53 9a11.25 11.25 0 0 0 3.1.59 3.13 3.13 0 0 0 2.23-1.27 11.21 11.21 0 0 0 1.94-4.07l3.11 1-3.69 13c-.19.68-.39 1.46-.68 2.23a15.74 15.74 0 0 1-.58 1.94c-.1.49-.39 1.17-.68 2-.39 1.17-.68 1.94-.87 2.52a74.48 74.48 0 0 1-3.2 7.38 18.54 18.54 0 0 1-5.73 6.4c-2.42 1.85-5.63 2.23-9.41 1.07zm3.1-10.38c3.59 1.16 6.31.87 8.25-.88a17.24 17.24 0 0 0 4.46-7.76c.2-.58.49-1.45.78-2.62l-18.14-5.72-1 3.1a16.49 16.49 0 0 0-.78 8.44c.42 2.43 2.55 4.27 6.43 5.44zm-21.83 53.07c-3.59-1.55-5.82-3.88-6.6-6.88a17.84 17.84 0 0 1-.09-9.32 57.88 57.88 0 0 1 3.39-9.7l1.26-2.91-11.35-5a8 8 0 0 0-3.2-.87 3.29 3.29 0 0 0-2.43 1.06 13.69 13.69 0 0 0-2.42 4l-2.91-1.26 9.7-21.83 2.91 1.26a12.65 12.65 0 0 0-1.26 4.37 3.23 3.23 0 0 0 .87 2.42 7.61 7.61 0 0 0 2.72 1.65l27.36 12.13a7.6 7.6 0 0 0 3.11.87 3.25 3.25 0 0 0 2.42-1 12.44 12.44 0 0 0 2.43-3.88l3 1.36-5.15 12.52c-.29.68-.58 1.36-.87 2.13s-.58 1.36-.78 1.85-.48 1.16-.87 2c-.48 1.07-.87 2-1.07 2.43a61.08 61.08 0 0 1-4 7 18.37 18.37 0 0 1-6.41 5.62c-2.91 1.65-6.21 1.65-9.8 0zm4.27-9.89c3.49 1.55 6.21 1.55 8.25.09s3.78-3.88 5.24-7.18c.29-.58.58-1.45 1.07-2.52l-17.47-7.76-1.23 2.91a17.71 17.71 0 0 0-1.75 8.34c.29 2.43 2.23 4.47 5.92 6.12zm-48.22 17l11.64-21.06 2.81 1.55a15.08 15.08 0 0 0-1.74 4.27 3 3 0 0 0 .58 2.62 7.72 7.72 0 0 0 2.62 2l26.1 14.46c1.75 1 3.3 1.36 4.37 1s2.42-1.84 3.88-4.46l2.81 1.55-11.64 21-2.81-1.5a11.83 11.83 0 0 0 1.64-4.27 3 3 0 0 0-.58-2.62 10.71 10.71 0 0 0-2.62-2l-26.1-14.45a8.56 8.56 0 0 0-3-1.17 3.52 3.52 0 0 0-2.52.88 13.43 13.43 0 0 0-2.81 3.78l-2.62-1.55zM209.32 815.08l-17-17.08 2.23-2.23a14.61 14.61 0 0 0 3.59 2.82 3.18 3.18 0 0 0 2.62.19 8.23 8.23 0 0 0 2.62-1.94l21.15-21.06c1.46-1.45 2.14-2.81 2.14-4s-1.07-2.82-3.21-4.95l2.33-2.23 17 17.07-2.33 2.24a14.61 14.61 0 0 0-3.59-2.82 3.18 3.18 0 0 0-2.62-.19 8.23 8.23 0 0 0-2.62 1.94l-21.05 21a9.17 9.17 0 0 0-1.94 2.52 3.53 3.53 0 0 0 .1 2.62 12.5 12.5 0 0 0 2.81 3.69z"/>
  <path d="M279.96 817.12c-1.75-1.46-3.11-2.33-4.18-2.52a3.22 3.22 0 0 0-2.7.4 18.25 18.25 0 0 0-3 3.1l-24 29-2.52-2-.48-48.26L226.49 817a17.61 17.61 0 0 0-2.42 3.59 3.23 3.23 0 0 0 .09 2.82 13 13 0 0 0 3.3 3.68l-2 2.53-13.58-11.26 2-2.52a9.84 9.84 0 0 0 4 2.33 3 3 0 0 0 2.62-.49 18.68 18.68 0 0 0 3-3.1L238.91 796c1.26-1.56 2.14-2.72 2.72-3.5a6.77 6.77 0 0 0 1.07-2.42 4.36 4.36 0 0 0-.39-2.62 11.41 11.41 0 0 0-2.33-3.11l2-2.52 10.67 8.83.49 41.82 13.77-16.69a15.15 15.15 0 0 0 2.33-3.39 3.54 3.54 0 0 0 0-2.82 9.56 9.56 0 0 0-3.1-3.49l2-2.52 13.68 11.25-1.94 2.33zm44.44 56.18a10.7 10.7 0 0 0-3-1 2.34 2.34 0 0 0-1.94.58 8.6 8.6 0 0 0-1.94 2.72l-5.53 9.61a49.26 49.26 0 0 0-10.2-4.21c-2.82-.88-4.85-1.56-6.21-2a28.19 28.19 0 0 1-4.56-2.23 23 23 0 0 1-12.13-21.83 26.64 26.64 0 0 1 3.39-11.45 23.56 23.56 0 0 1 9-9.22 23.17 23.17 0 0 1 12-3.3 24.42 24.42 0 0 1 12.13 3.2 22.27 22.27 0 0 1 10 12.13 14 14 0 0 0 3.21-2.91l2.96 1.61-7.38 13.68-2.81-1.68a17.17 17.17 0 0 0-1.26-13.58 12.4 12.4 0 0 0-4.95-4.76 15.32 15.32 0 0 0-5-1.75 13.09 13.09 0 0 0-5.73.39 17 17 0 0 0-6.21 3.69 30.76 30.76 0 0 0-6 7.76 46.9 46.9 0 0 0-3.88 8.83 16.45 16.45 0 0 0-.2 8.93c.78 3 2.82 5.43 6.21 7.37a14.06 14.06 0 0 0 6.8 2.23 7.25 7.25 0 0 0 4.46-1.55 14.05 14.05 0 0 0 2.91-3.68 16.77 16.77 0 0 0 1.46-3.3 2.53 2.53 0 0 0-.68-2.24 13.3 13.3 0 0 0-3.3-2.52l1.55-2.81 18.34 10.48-1.55 2.81zm56.57 17.18a25.37 25.37 0 0 1-7.28 10.18 23.47 23.47 0 0 1-11.84 5.15 28 28 0 0 1-14.55-2 30.88 30.88 0 0 1-10.22-6.35 23 23 0 0 1-5.6-8.46 23.37 23.37 0 0 1-1.55-9.22 25.46 25.46 0 0 1 8.92-18.72 22.07 22.07 0 0 1 11.65-5.15 28 28 0 0 1 14.58 2.09 30.43 30.43 0 0 1 11.16 7 22.69 22.69 0 0 1 5.43 8.83 23.61 23.61 0 0 1 1.07 8.92 30.59 30.59 0 0 1-1.74 7.77zm-10.58-4.27a46.34 46.34 0 0 0 2.13-7.28 18.2 18.2 0 0 0 .1-6.89 13.07 13.07 0 0 0-2.72-6 15.06 15.06 0 0 0-6.21-4.27c-3.68-1.45-7-1.65-9.8-.67a15 15 0 0 0-7 5.33 41.36 41.36 0 0 0-4.76 8.73 50.29 50.29 0 0 0-1.84 5.83 21.77 21.77 0 0 0-.68 6.79 13.36 13.36 0 0 0 9.22 12.13 12.7 12.7 0 0 0 8.54.77 15.06 15.06 0 0 0 6.4-3.68 22.62 22.62 0 0 0 4.08-5.44 52.8 52.8 0 0 0 2.52-5.33zm65.5 17.95a24.05 24.05 0 0 1-3.79 8.63 21.91 21.91 0 0 1-5.92 5.73 19.26 19.26 0 0 1-6.69 2.71 40.47 40.47 0 0 1-16.5-.77l-21.05-4.85.68-3.11a14.26 14.26 0 0 0 4.56.49 3.12 3.12 0 0 0 2.32-1.26 8.57 8.57 0 0 0 1.17-3.11l6.79-29.21c.49-2 .39-3.49-.29-4.46s-2.43-1.84-5.34-2.52l.78-3.2 10 2.13c.39.1 1.75.39 4.18.87s3.88.78 4.27.88a71.69 71.69 0 0 1 9.5 2.81 32 32 0 0 1 6.8 3.69 18.49 18.49 0 0 1 4.75 4.75 20.9 20.9 0 0 1 3.11 6 22.46 22.46 0 0 1 1.26 6.79 22.17 22.17 0 0 1-.58 7zm-11-2.82c1.07-4.75 1.17-9 0-12.71a14.57 14.57 0 0 0-5.92-8.44 16.34 16.34 0 0 0-4.07-2c-1.46-.48-3.69-1.06-6.5-1.74l-7.57 32.5a23.84 23.84 0 0 0-.68 4.17 2.91 2.91 0 0 0 1.16 2.33 10.33 10.33 0 0 0 4 1.65c5.53 1.26 9.9.29 13.1-3.1a27.52 27.52 0 0 0 6.5-12.62zm99.36-12.22a10.71 10.71 0 0 0-3.78.68 3.77 3.77 0 0 0-1.94 2.13 51.56 51.56 0 0 0-2 5.53l-11.16 36.1-4.85-.2-10.77-34.44-12.52 33.67-4.75-.2-9.71-37.84a32.84 32.84 0 0 0-1.65-5 4.84 4.84 0 0 0-1.84-2.24 6.66 6.66 0 0 0-3.11-.58l.1-3.2 20.57.68-.09 3.2a9.21 9.21 0 0 0-3.59.29c-.78.2-1.17.87-1.17 2a17.09 17.09 0 0 0 .68 3.88l6.11 24 12.3-32.83 4.56.19 10.57 33.58 6.7-22a16.55 16.55 0 0 0 .77-3.69c.1-1.74-.38-2.81-1.45-3.29a11.54 11.54 0 0 0-4.08-.88l.1-3.2 16.3.58zm46.48 22.8l1.35 15.52-42 4.66-.39-3.2c2.92-.29 4.76-1 5.44-1.84s1-2.43.77-4.47L532.63 893a9.67 9.67 0 0 0-.78-3.11 3.42 3.42 0 0 0-2-1.55 11.89 11.89 0 0 0-4.66-.1l-.38-3.2 39.1-4.36 1.94 12.12-3.2.39a17.36 17.36 0 0 0-3.11-5.53 6.17 6.17 0 0 0-3.39-1.84 26.64 26.64 0 0 0-5.34.19l-8.83 1 1.84 16.69 4.76-.48a11.4 11.4 0 0 0 3.59-.88 2.92 2.92 0 0 0 1.55-1.84 14.67 14.67 0 0 0 .2-3.88l3.29-.39 1.75 15.72-3.2.39a10.79 10.79 0 0 0-1.17-3.79 2.91 2.91 0 0 0-1.94-1.45 11.08 11.08 0 0 0-3.68 0l-4.85.58 1.26 11.06a37.51 37.51 0 0 0 .58 4.08 3.91 3.91 0 0 0 1 2 3.3 3.3 0 0 0 2.13 1 14 14 0 0 0 4-.09l3.79-.39a16.72 16.72 0 0 0 4.46-1.16 9 9 0 0 0 3.88-3.59c1.17-1.85 1.84-4.57 2-8.25l3.59-.39zm59-33.28l-3.2.87a14.59 14.59 0 0 0-3.59-5.82 6.39 6.39 0 0 0-3.76-1.69 15.61 15.61 0 0 0-4 .58l-5.82 1.55 9.12 33.58a9.7 9.7 0 0 0 1.26 3 3 3 0 0 0 2.33 1.17 14.87 14.87 0 0 0 4.56-.58l.87 3.1-23 6.21-.88-3.1c2.82-.78 4.56-1.65 5.15-2.72s.58-2.52.09-4.56l-9.12-33.57-4.85 1.36a18 18 0 0 0-4.66 1.74 6 6 0 0 0-2.62 3.4 12 12 0 0 0 .1 6.69l-3.2.88-3.5-13 45.22-12.22 3.49 13.1zm63.17 10.77l-11.74 4.85c-.58-.29-1.46-.78-2.43-1.36s-2.13-1.45-3.39-2.33-2.33-1.65-3.11-2.23l-5-3.69a39.13 39.13 0 0 0-4.85-3.2 5.6 5.6 0 0 0-3-.58 19.4 19.4 0 0 0-4.56 1.55l-1.65.68 4.75 11.45a11.05 11.05 0 0 0 1.56 2.72 3 3 0 0 0 2.52.87 14.66 14.66 0 0 0 4.46-1.16l1.26 3-21.93 9.13-1.26-3c2.72-1.07 4.27-2.23 4.66-3.3s.29-2.62-.49-4.46l-11.54-27.66a6.29 6.29 0 0 0-2.82-3.49c-1.06-.49-3-.2-5.62 1l-1.27-3 10-4.56c.78-.39 1.65-.78 2.62-1.16a21.12 21.12 0 0 1 2.81-1.17c.68-.29 1.75-.68 3.4-1.36 2.23-.87 4.27-1.55 6.31-2.13a43 43 0 0 1 4.75-1.17 17.11 17.11 0 0 1 5.43.1 12.93 12.93 0 0 1 5.15 2.23 10.94 10.94 0 0 1 3.59 4.85 10.7 10.7 0 0 1-.78 9.61 17 17 0 0 1-4.46 4.85 16.8 16.8 0 0 1 5.43 1.75 95.62 95.62 0 0 1 8.35 5.43 45.6 45.6 0 0 0 5.33 3.3 10.54 10.54 0 0 0 3.3 1.17 7.73 7.73 0 0 0 3.11-.49l1.16 3zm-31.53-24.55c-1.46-3.49-3.5-5.34-6.12-5.63a18.09 18.09 0 0 0-9 1.75c-.49.19-.87.39-1.07.48s-.58.29-.87.39l7.37 17.56 2-.87a21.35 21.35 0 0 0 7.57-4.95c1.65-1.94 1.65-4.85.1-8.73zM716.5 825a10.93 10.93 0 0 0-3.59 2.91 2.88 2.88 0 0 0-.39 2.62 21.18 21.18 0 0 0 1.84 3.78l8.72 15.22a60.48 60.48 0 0 1 3.3 6.5 14.32 14.32 0 0 1 .87 5.14 13.86 13.86 0 0 1-3.2 9.41 26 26 0 0 1-7.09 6.12 30 30 0 0 1-6.21 2.62 20.79 20.79 0 0 1-7 .77 13 13 0 0 1-6.5-2.23 23.35 23.35 0 0 1-2.91-2.42 16.89 16.89 0 0 1-2.14-2.62c-.58-.88-1.26-2-2.13-3.5l-9.9-17.07a6.7 6.7 0 0 0-3.2-3.21c-1.17-.29-2.91.2-5.53 1.75l-1.52-2.79 20.77-11.84 1.55 2.81a12.41 12.41 0 0 0-3.69 2.82 3.38 3.38 0 0 0-.87 2.52 8.7 8.7 0 0 0 1.17 3l9.8 17.17a29.24 29.24 0 0 0 2.91 4.46 16.56 16.56 0 0 0 2.81 3 9.88 9.88 0 0 0 5.73 1.94 12.18 12.18 0 0 0 6.3-1.65 14.49 14.49 0 0 0 5-4.94 9.39 9.39 0 0 0 1.45-6.21 18.09 18.09 0 0 0-1.16-4.66 37.5 37.5 0 0 0-2.62-5.15l-8.44-14.84a22.13 22.13 0 0 0-1.85-2.91 4.41 4.41 0 0 0-1.65-1.36 3.45 3.45 0 0 0-2.42 0 16.33 16.33 0 0 0-3.69 1.65l-1.5-2.81 15.14-8.64zm47.35 2.62a13.12 13.12 0 0 1 2 4.37 14.55 14.55 0 0 1 .48 5.53 15.88 15.88 0 0 1-1.65 5.82 15 15 0 0 1-4.56 5.14 19 19 0 0 1-7 3.11 17 17 0 0 1-8-.2 19.49 19.49 0 0 0 1.65 4.76l-2.62 1.94-9.51-13.09 2.62-1.94a32.47 32.47 0 0 0 5.83 3.88 15.48 15.48 0 0 0 6.69 1.65 10.55 10.55 0 0 0 6.89-2.33 7.88 7.88 0 0 0 3.4-5 6.54 6.54 0 0 0-3.5-7.18 7.07 7.07 0 0 0-2.91-.68 37.17 37.17 0 0 0-4.07.29c-1.65.29-3.4.58-5.44 1.07a45.07 45.07 0 0 1-8.15.87 19.1 19.1 0 0 1-5.72-.77 11.55 11.55 0 0 1-3.79-1.85 10.4 10.4 0 0 1-2.52-2.52 12.65 12.65 0 0 1-2.33-6.11 13.12 13.12 0 0 1 1.07-7.09 14.8 14.8 0 0 1 5-6.11 13.26 13.26 0 0 1 6-2.52 16.87 16.87 0 0 1 6.6.19 24.36 24.36 0 0 0-1.55-4l2.62-1.94 7.86 10.68-2.62 1.94c-6.11-4.37-11.55-5-16.21-1.46a7.9 7.9 0 0 0-3.1 4.37 5.47 5.47 0 0 0 1 4.56 5.32 5.32 0 0 0 3.11 2.13 9.51 9.51 0 0 0 4.07.2c1.46-.2 3.78-.58 6.89-1.26a82.84 82.84 0 0 1 9.12-1.46 17.89 17.89 0 0 1 6.79.68 11.41 11.41 0 0 1 5.63 4.27zm25.23-50.28l-2.43 2.23a14.66 14.66 0 0 0-5.82-3.49 5.59 5.59 0 0 0-4.07.29 16.64 16.64 0 0 0-3.21 2.33l-4.36 4.07 23.67 25.42a10.51 10.51 0 0 0 2.53 2 3.06 3.06 0 0 0 2.62 0 12.24 12.24 0 0 0 3.78-2.62l2.23 2.33-17.46 16.2-2.24-2.32c2.14-2 3.21-3.6 3.3-4.76s-.68-2.52-2-4.07l-23.68-25.43-3.69 3.4a26.48 26.48 0 0 0-3.3 3.69 6.09 6.09 0 0 0-.77 4.27c.19 1.74 1.26 3.68 3.2 5.91l-2.43 2.24-9.12-9.9 34.35-31.92 8.9 10.13zm-612.85-58.8l6.5 20h21.06l-17.08 12.42 6.5 20-17.08-12.42-17.05 12.39 6.5-20-17.1-12.41h21c.1 0 6.7-20 6.7-20zm646 0l6.5 20h21.06l-17.08 12.42 6.5 20-17.07-12.42-17.06 12.39 6.5-20-17.08-12.42h21.25l6.5-20zm-231.71-306c-13.29-1.36-27 .19-40.17-1.84-17.17-2.72-32.5-11.36-48.42-17.86-22.8 16.4-49.87 21-79.17 15.33a119.57 119.57 0 0 0-4.37 22.81h7.28l2.42-7.57 2.43 7.57h8.25l-6.6 4.94 2.52 7.86-6.4-4.75-6.6 4.75 2.52-7.86-5.92-4.36a147 147 0 0 0-.29 20.67h7.67l2.42-7.57 2.43 7.57h8.25l-6.6 4.94 2.52 7.86-6.6-4.75-6.6 4.75 2.53-7.86-6.21-4.56a158.78 158.78 0 0 0 2.91 21.74h.1a182 182 0 0 0 13.48 38.13v-38.17h15.33V538a162.76 162.76 0 0 0 15.24 18.15v-81.9h15.23v95.87a168 168 0 0 0 15.24 11.16V474.31h15.23v108c3.78-3 9.12-7.37 15.23-13.09v-95h15.28v79.28c5-5.73 10.19-12 15.23-19v-60.29h15.24v35.61a167.43 167.43 0 0 0 14-37.16h-.2c4.66-20.09 5.24-39.59 5.24-60.16zm-118.34 52.55l-6.6-4.75-6.6 4.75 2.52-7.86-6.69-5h8.15l2.42-7.57 2.43 7.57h8.27l-6.6 5 2.72 7.86zM469.65 436l2.53 7.86-6.6-4.75-6.6 4.75 2.52-7.86-6.69-5h8.15l2.42-7.57 2.43 7.57h8.27l-6.41 5zm37.36 21.25l2.52 7.86-6.6-4.75-6.59 4.75 2.62-7.86-6.7-5h8.15l2.43-7.57 2.42 7.57h8.25zm0-21.25l2.52 7.86-6.45-4.86-6.6 4.75 2.62-7.86-6.69-4.94h8.15l2.42-7.57 2.43 7.57h8.25zm0-21.35l2.52 7.86-6.5-4.85-6.6 4.76 2.62-7.86-6.69-5h8.15l2.42-7.57 2.43 7.57h8.25zm40 50.46l-6.6-4.75-6.6 4.75 2.62-7.86-6.7-5h8.16l2.42-7.57 2.43 7.57h8.24l-6.59 5 2.62 7.86zM544.37 436l2.52 7.86-6.6-4.75-6.6 4.75 2.62-7.86-6.69-5h8.15l2.42-7.57 2.43 7.57h8.25zm30.85-5l2.43-7.57 2.42 7.57h8.25l-6.6 4.94 2.53 7.86-6.51-4.8-6.59 4.75 2.52-7.86-6.7-4.94zm2.52 29.3l-6.59 4.7 2.52-7.86-6.7-4.94h8.16l2.42-7.57 2.43 7.57h8.24l-6.59 4.94 2.52 7.86z"/>
</svg>
