<svg data-name="Layer 1" xmlns="http://www.w3.org/2000/svg" viewBox="0 0 226.63 372.22">
  <path d="M220.68 75.3H5.94a4.63 4.63 0 0 1 0-9.25h214.74a4.63 4.63 0 1 1 0 9.25Z" fill="#010101"/>
  <path d="M211.91 301.19H14.15C6.09 301.19 0 294.88 0 286.51V73.94a15.25 15.25 0 0 1 2.42-9l41-57.83C46.61 2.67 51.12 0 55.51 0h58.91a4.63 4.63 0 0 1 0 9.25H55.49c-1.33 0-3.19 1.31-4.54 3.19L10 70.3a7 7 0 0 0-.76 3.7v212.51c0 2.7 1.51 5.43 4.89 5.43h197.78a5.43 5.43 0 0 0 5.52-5.32V73.94a5.58 5.58 0 0 0-1-3.23L175.1 12.43c-1.34-1.87-3.2-3.18-4.52-3.18h-58.29a4.63 4.63 0 1 1 0-9.25h58.28c4.38 0 8.88 2.64 12 7.06l41.33 58.29a14.77 14.77 0 0 1 2.73 8.59v212.57a14.74 14.74 0 0 1-14.72 14.68Z" fill="#010101"/>
  <rect x="26.72" y="93.94" width="173.18" height="22.14" rx="1" fill="none" stroke="#010101" stroke-miterlimit="10" stroke-width="8.322"/>
  <path d="M113.45 268.67a5.38 5.38 0 0 1 3.44 1.12l52.58 44.56c2 1.71 2 4.2 0 5.57a5.34 5.34 0 0 1-3 .86h-21.83l4 46.21c.23 2.85-2.16 5.19-5.36 5.23H83.05c-3.26 0-5.68-2.38-5.41-5.27L82 320.76H60.11c-2.84 0-4.83-1.81-4.45-4a4.2 4.2 0 0 1 1.49-2.42L110 269.77a5.5 5.5 0 0 1 3.45-1.1Z" fill="#995aa4"/>
  <path fill="#fff" stroke="#010101" stroke-linecap="round" stroke-linejoin="round" stroke-width="3" d="m202.07 257.72-32.94-153.46H57.28L24.54 257.72h177.53z"/>
  <g fill="#010101">
    <path d="M68.58 114.14h7.27a14.1 14.1 0 0 1 2.43.19 5.56 5.56 0 0 1 1.87.62 2.73 2.73 0 0 1 1.13 1.18 3.19 3.19 0 0 1 .25 1.82 3.4 3.4 0 0 1-1.08 2.15 5.12 5.12 0 0 1-2.65 1.23 4.56 4.56 0 0 1 2.82 1.12 2.94 2.94 0 0 1 .8 2.57 5.34 5.34 0 0 1-.55 1.81 4.45 4.45 0 0 1-1.37 1.52 7.23 7.23 0 0 1-2.32 1.05 12.9 12.9 0 0 1-3.41.39H66Zm3.42 6.23h1.26a6.33 6.33 0 0 0 2.74-.47 1.94 1.94 0 0 0 1-1.56 1.46 1.46 0 0 0-.56-1.54 4.68 4.68 0 0 0-2.35-.44h-1.5Zm-1 7h1.77a6.24 6.24 0 0 0 2.73-.52 2.31 2.31 0 0 0 1.26-1.93 2.1 2.1 0 0 0-.12-1.15 1.76 1.76 0 0 0-.62-.73 2.59 2.59 0 0 0-1-.39 8.05 8.05 0 0 0-1.36-.11h-1.99ZM89.54 114.14h5.37l5 15.69H95.1l-.82-3.46h-6l-1.36 3.46h-4.77Zm-.24 9.57h4.37l-1.62-7H92ZM101.48 129.83l.63-15.69h4.35l-.32 13h8.06v2.71ZM116.25 129.83l-.17-15.69h4.34l.35 13h8.06l.15 2.71ZM130.05 121.77a21.72 21.72 0 0 1 0-3.25 5.31 5.31 0 0 1 .85-2.5 4.58 4.58 0 0 1 2.12-1.6 10.43 10.43 0 0 1 3.84-.57 11.29 11.29 0 0 1 3.94.57 5.82 5.82 0 0 1 2.4 1.6 6.39 6.39 0 0 1 1.29 2.5 23.31 23.31 0 0 1 .6 3.25 21.38 21.38 0 0 1 .15 3.32 5.52 5.52 0 0 1-.74 2.67 4.55 4.55 0 0 1-2.15 1.76 10.35 10.35 0 0 1-4.06.64 11.18 11.18 0 0 1-4.16-.64 5.78 5.78 0 0 1-2.46-1.76 6.41 6.41 0 0 1-1.21-2.67 21.87 21.87 0 0 1-.41-3.32Zm4.47 0a26 26 0 0 0 .32 2.71 5.93 5.93 0 0 0 .58 1.85 2.43 2.43 0 0 0 1 1 3.63 3.63 0 0 0 1.66.33 3.29 3.29 0 0 0 1.6-.33 1.92 1.92 0 0 0 .85-1 5.55 5.55 0 0 0 .26-1.85c0-.75-.06-1.66-.16-2.71s-.23-1.94-.37-2.66a6 6 0 0 0-.61-1.75 2.27 2.27 0 0 0-1-1 3.71 3.71 0 0 0-1.6-.31 3.26 3.26 0 0 0-1.53.31 1.81 1.81 0 0 0-.84 1 5.22 5.22 0 0 0-.29 1.75c.01.72.05 1.61.13 2.66ZM158.69 114.14l.42 2.47h-4.75l2 13.22h-4.59L150 116.61h-4.75l-.29-2.47Z"/>
  </g>
  <path fill="none" stroke="#010101" stroke-linejoin="round" stroke-width="3.823" d="m107.21 182.75.55-32.19H70.48l-4.46 32.19h41.19z"/>
  <path fill="none" stroke="#995aa4" stroke-linecap="round" stroke-linejoin="round" stroke-width="9.556" d="m78.78 157.02 8.67 17.72 23.32-37.52"/>
  <path fill="none" stroke="#010101" stroke-linejoin="round" stroke-width="3.823" d="m159.33 182.75-4.38-32.19h-37.29l.49 32.19h41.18zM106.33 233.78l.72-41.98H64.77l-5.81 41.98h47.37zM166.29 233.78l-5.72-41.98h-42.29l.63 41.98h47.38z"/>
  <path fill="none" stroke="#995aa4" stroke-linecap="round" stroke-linejoin="round" stroke-width="9.556" d="m128.87 200.13 13.17 23.09 19.33-48.48"/>
</svg>
