<?xml version="1.0" encoding="utf-8"?>
<!-- Generator: Adobe Illustrator 25.4.1, SVG Export Plug-In . SVG Version: 6.00 Build 0)  -->
<svg version="1.1" xmlns="http://www.w3.org/2000/svg" xmlns:xlink="http://www.w3.org/1999/xlink" x="0px" y="0px"
	 viewBox="0 0 825 512" style="enable-background:new 0 0 825 512;" xml:space="preserve">
<style type="text/css">
	.st0{fill:#9959A4;}
	.st1{fill:#FFFFFF;}
	.st2{fill:none;}
	.st3{fill:#985AA3;}
</style>
<g id="Layer_1">
</g>
<g id="Layer_2">
	<path d="M140.85,122.3H154c1.49-0.01,2.98,0.15,4.44,0.49c1.27,0.29,2.47,0.84,3.51,1.63c1.01,0.79,1.79,1.82,2.29,3
		c0.59,1.49,0.86,3.08,0.82,4.68c0.05,1.91-0.46,3.8-1.47,5.42c-1.03,1.54-2.61,2.64-4.41,3.08v0.11c2.02,0.21,3.88,1.21,5.17,2.78
		c1.35,1.8,2.02,4.01,1.91,6.26c0.01,1.47-0.2,2.94-0.6,4.35c-0.37,1.35-1.06,2.59-2,3.62c-1.05,1.1-2.34,1.94-3.76,2.48
		c-1.84,0.67-3.79,0.98-5.74,0.93h-13.31V122.3z M148.69,138.3h2.23c1.67,0.14,3.34-0.28,4.76-1.17c1.09-1.01,1.65-2.47,1.5-3.95
		c0-1.85-0.45-3.16-1.36-3.92c-1.26-0.86-2.78-1.27-4.3-1.14h-2.83L148.69,138.3L148.69,138.3z M148.69,155.45h3
		c1.62,0.08,3.22-0.36,4.57-1.25c1.16-0.83,1.74-2.38,1.74-4.63c0.03-0.95-0.13-1.91-0.46-2.8c-0.27-0.69-0.7-1.31-1.25-1.8
		c-0.54-0.48-1.18-0.82-1.88-1c-0.79-0.19-1.59-0.28-2.4-0.27h-3.37v11.7L148.69,155.45z"/>
	<path d="M178.69,122.3h9.69l10.29,38.87h-8.17l-1.8-8.17h-10.34l-1.8,8.22h-8.16L178.69,122.3z M179.69,146.52h7.62l-3.76-17.47
		h-0.11L179.69,146.52z"/>
	<path d="M201.39,161.17V122.3h7.84v32.44h13.88v6.42L201.39,161.17L201.39,161.17z"/>
	<path d="M226.59,161.17V122.3h7.84v32.44h13.88v6.42L226.59,161.17L226.59,161.17z"/>
	<path d="M251,141.74c-0.01-2.72,0.13-5.44,0.41-8.14c0.2-2.23,0.81-4.4,1.8-6.4c0.9-1.75,2.29-3.19,4-4.16
		c4.46-1.98,9.54-1.98,14,0c1.71,0.97,3.1,2.41,4,4.16c0.99,2,1.6,4.17,1.8,6.4c0.54,5.41,0.54,10.87,0,16.28
		c-0.2,2.23-0.81,4.4-1.8,6.4c-0.9,1.75-2.29,3.2-4,4.16c-4.46,1.98-9.54,1.98-14,0c-1.71-0.96-3.1-2.41-4-4.16
		c-0.99-2-1.6-4.17-1.8-6.4C251.13,147.18,250.99,144.46,251,141.74z M258.84,141.74c0,2.61,0.06,4.84,0.19,6.67
		c0.07,1.51,0.33,3.01,0.76,4.46c0.28,0.98,0.84,1.85,1.63,2.5c1.72,1.05,3.89,1.05,5.61,0c0.79-0.65,1.35-1.52,1.63-2.5
		c0.43-1.45,0.69-2.95,0.76-4.46c0.13-1.83,0.19-4.06,0.19-6.67c0-2.61-0.06-4.83-0.19-6.64c-0.07-1.51-0.33-3.01-0.76-4.46
		c-0.28-1-0.86-1.89-1.66-2.54c-1.72-1.05-3.89-1.05-5.61,0c-0.79,0.66-1.36,1.54-1.63,2.53c-0.43,1.45-0.69,2.95-0.76,4.46
		c-0.13,1.82-0.19,4.04-0.18,6.65H258.84z"/>
	<path d="M303.51,122.3v6.42H295v32.44h-7.84v-32.43h-8.49v-6.43h24.82H303.51z"/>
	<path d="M212.43,267.31H153.1c-0.86,0-1.55-0.69-1.55-1.55v-59.33c0-0.86,0.69-1.55,1.55-1.55l0,0h59.33
		c0.86,0,1.55,0.69,1.55,1.55l0,0v59.33C213.98,266.62,213.29,267.31,212.43,267.31L212.43,267.31z M154.65,264.21h56.23V208h-56.23
		v56.23V264.21z"/>
	<path class="st0" d="M183.07,255.55c-1.35,0-2.57-0.78-3.15-2l-15.63-32.76c-0.78-1.76,0.01-3.82,1.77-4.61
		c1.7-0.76,3.69-0.05,4.53,1.61l12.42,26l30.87-67.26c0.86-1.72,2.96-2.42,4.68-1.56c1.64,0.82,2.36,2.77,1.66,4.47l-34,74
		c-0.57,1.22-1.8,1.99-3.14,2l0,0L183.07,255.55z"/>
	<path d="M287.52,267.31h-59.33c-0.86,0-1.55-0.69-1.55-1.55v-59.33c0-0.86,0.69-1.55,1.55-1.55l0,0h59.33
		c0.86,0,1.55,0.69,1.55,1.55v59.33C289.07,266.62,288.38,267.31,287.52,267.31L287.52,267.31z M229.74,264.21H286V208h-56.26v56.23
		L229.74,264.21z"/>
	<path d="M212.43,341.35H153.1c-0.86,0-1.55-0.69-1.55-1.55v-59.34c0-0.86,0.69-1.55,1.55-1.55h59.33c0.86,0,1.55,0.69,1.55,1.55
		v59.34C213.98,340.66,213.29,341.35,212.43,341.35L212.43,341.35z M154.65,338.25h56.23V282h-56.23v56.23V338.25z"/>
	<path d="M287.52,341.35h-59.33c-0.86,0-1.55-0.69-1.55-1.55v-59.34c0-0.86,0.69-1.55,1.55-1.55h59.33c0.86,0,1.55,0.69,1.55,1.55
		v59.34C289.07,340.66,288.38,341.35,287.52,341.35L287.52,341.35z M229.74,338.25H286V282h-56.26v56.23L229.74,338.25z"/>
	<path class="st0" d="M258.16,329.59c-1.35,0-2.57-0.78-3.15-2l-15.63-32.76c-0.78-1.76,0.01-3.82,1.77-4.61
		c1.7-0.76,3.69-0.05,4.53,1.61l12.42,26l30.9-67.22c0.86-1.72,2.96-2.42,4.68-1.56c1.64,0.82,2.36,2.77,1.66,4.47l-34,74
		c-0.57,1.22-1.8,1.99-3.14,2l0,0L258.16,329.59z"/>
	<path d="M325.91,391.17H116.38c-2.55,0-4.62-2.07-4.62-4.62V95.44c0-2.55,2.07-4.62,4.62-4.62h209.53c2.55,0,4.62,2.07,4.62,4.62
		v291.11C330.53,389.1,328.46,391.17,325.91,391.17L325.91,391.17z M121,381.93h200.28V100.06H121V381.93z"/>
	<path class="st1" d="M109.59,247.45c57.99,0,105,47.01,105,105s-47.01,105-105,105s-105-47.01-105-105S51.6,247.45,109.59,247.45z"
		/>
	<path d="M109.59,462C49.07,462,0,412.93,0,352.41s49.07-109.59,109.59-109.59s109.59,49.07,109.59,109.59l0,0
		C219.11,412.91,170.09,461.93,109.59,462z M109.59,252.07c-55.42,0-100.34,44.92-100.34,100.34s44.92,100.34,100.34,100.34
		s100.34-44.92,100.34-100.34l0,0C209.86,297.02,164.98,252.14,109.59,252.07z"/>
	<path d="M115.95,398.1c-13.49,0-19.59-1.85-44.13-14.25c-1.8-0.91-3.61-1.83-5.42-2.75c-2.27-1.17-3.16-3.96-1.99-6.23
		c1.17-2.27,3.96-3.16,6.22-1.99c1.77,0.91,3.55,1.82,5.34,2.72c26.9,13.6,29.49,13.53,46.29,13.17c3.29-0.07,7.07-0.16,11.63-0.16
		c8.4,0,13.46-4.63,16.89-15.45c0-0.12,0.05-0.24,0.09-0.36l8.54-28.49c0-0.13,0.06-0.25,0.09-0.37c0.7-2.32-0.61-4.77-2.93-5.47
		c-0.42-0.13-0.86-0.19-1.3-0.19h-22.18c-7.53,0.02-13.65-6.07-13.66-13.6c0-1.19,0.15-2.37,0.45-3.52l4-15
		c0.25-0.94,0.04-1.94-0.58-2.69c-1.09-1.35-3.07-1.55-4.42-0.46c0,0-0.01,0.01-0.01,0.01c-0.23,0.19-0.43,0.4-0.6,0.64l-22,33.81
		c-2.59,3.66-6.79,5.85-11.27,5.87H68.52c-2.55,0-4.62-2.07-4.62-4.62s2.07-4.62,4.62-4.62H85c1.44-0.01,2.8-0.71,3.64-1.88
		l22-33.83c0.67-0.96,1.47-1.83,2.38-2.58c5.27-4.32,13.06-3.55,17.38,1.72c2.51,3.06,3.4,7.13,2.4,10.95l-4,15.05
		c-0.35,1.31-0.07,2.71,0.76,3.78c0.85,1.09,2.15,1.72,3.53,1.72h22.16c7.53-0.02,13.65,6.06,13.67,13.59
		c0,1.24-0.16,2.47-0.49,3.66c0,0.13-0.03,0.26-0.09,0.39l-8.53,28.47c-0.03,0.15-0.07,0.3-0.11,0.44
		c-4.65,15-13.09,22.29-25.82,22.29c-4.47,0-8.19,0.08-11.42,0.15C120.08,398.06,117.93,398.1,115.95,398.1z"/>
	<path d="M68.52,398.11h-9.13c-2.55,0-4.62-2.07-4.62-4.62s2.07-4.62,4.62-4.62l0,0h4.5v-54.65h-4.5c-2.55,0-4.62-2.07-4.62-4.62
		s2.07-4.62,4.62-4.62l0,0h9.13c2.55,0,4.62,2.07,4.62,4.62v63.89c0.01,2.55-2.05,4.63-4.6,4.64
		C68.53,398.11,68.53,398.11,68.52,398.11z"/>
	<rect x="0" class="st2" width="825" height="512"/>
	<path d="M716.54,166.12H501.8c-2.55,0-4.62-2.07-4.62-4.62s2.07-4.62,4.62-4.62h214.74c2.55,0,4.62,2.07,4.62,4.62
		S719.09,166.12,716.54,166.12z"/>
	<path d="M707.76,392.01H510c-8.06,0-14.13-6.31-14.13-14.68V164.76c-0.15-3.18,0.7-6.32,2.42-9l41-57.83
		c3.17-4.44,7.68-7.08,12.07-7.08h58.91c2.55,0,4.62,2.07,4.62,4.62s-2.07,4.62-4.62,4.62h-58.93c-1.33,0-3.19,1.31-4.54,3.19
		l-41,57.83c-0.56,1.14-0.81,2.41-0.71,3.67v212.54c0,2.7,1.51,5.43,4.89,5.43h197.78c2.99,0.06,5.46-2.33,5.52-5.32
		c0-0.04,0-0.07,0-0.11V164.76c0.01-1.15-0.34-2.28-1-3.23l-41.33-58.28c-1.34-1.87-3.2-3.18-4.52-3.18h-58.29
		c-2.55,0-4.62-2.07-4.62-4.62s2.07-4.62,4.62-4.62h58.28c4.38,0,8.88,2.64,12,7.06l41.33,58.29c1.79,2.51,2.74,5.51,2.73,8.59
		v212.57C722.45,385.44,715.87,392,707.76,392.01z"/>
	<path d="M694.76,211.06H523.58c-2.85,0-5.16-2.32-5.16-5.16v-20.14c0-2.85,2.32-5.16,5.16-5.16h171.18c2.85,0,5.16,2.32,5.16,5.16
		v20.14C699.92,208.75,697.6,211.06,694.76,211.06z M526.74,202.74H691.6v-13.81H526.74V202.74z"/>
	<g>
		<polygon class="st1" points="697.92,348.54 664.99,195.08 553.14,195.08 520.39,348.54 		"/>
		<path d="M697.92,350.04H520.39c-0.45,0-0.88-0.2-1.17-0.56c-0.29-0.35-0.4-0.81-0.3-1.26l32.75-153.46
			c0.15-0.69,0.76-1.19,1.47-1.19h111.85c0.71,0,1.32,0.49,1.47,1.19l32.94,153.46c0.09,0.44-0.02,0.91-0.3,1.26
			C698.8,349.83,698.38,350.04,697.92,350.04z M522.24,347.04h173.82l-32.29-150.46H554.35L522.24,347.04z"/>
	</g>
	<g>
		<g>
			<path d="M564.43,204.96h7.27c0.88,0,1.7,0.06,2.43,0.19c0.74,0.12,1.36,0.33,1.87,0.63c0.51,0.29,0.89,0.68,1.13,1.18
				c0.25,0.49,0.33,1.1,0.25,1.83c-0.09,0.83-0.45,1.54-1.08,2.14c-0.63,0.6-1.51,1.01-2.65,1.23l-0.01,0.04
				c1.22,0.12,2.16,0.49,2.81,1.12c0.65,0.63,0.92,1.49,0.8,2.56c-0.07,0.63-0.25,1.23-0.55,1.81c-0.3,0.58-0.75,1.09-1.36,1.52
				c-0.61,0.44-1.39,0.79-2.32,1.05c-0.94,0.26-2.08,0.39-3.42,0.39h-7.75L564.43,204.96z M567.85,211.19h1.27
				c1.23,0,2.15-0.16,2.76-0.47c0.61-0.31,0.96-0.83,1.05-1.56c0.09-0.73-0.09-1.24-0.56-1.53c-0.47-0.3-1.25-0.44-2.34-0.44h-1.58
				L567.85,211.19z M566.81,218.21h1.77c1.1,0,2-0.17,2.73-0.52c0.72-0.35,1.14-0.99,1.26-1.92c0.06-0.46,0.02-0.85-0.12-1.15
				c-0.14-0.3-0.34-0.55-0.62-0.73c-0.28-0.18-0.62-0.31-1.02-0.39c-0.41-0.07-0.86-0.11-1.35-0.11h-1.93L566.81,218.21z"/>
			<path d="M585.39,204.96h5.37l4.98,15.69h-4.79l-0.82-3.47h-5.99l-1.36,3.47H578L585.39,204.96z M585.15,214.53h4.37l-1.62-6.97
				h-0.06L585.15,214.53z"/>
			<path d="M597.33,220.65l0.63-15.69h4.34l-0.32,12.98h8.06l0.01,2.72H597.33z"/>
			<path d="M612.11,220.65l-0.18-15.69h4.34l0.35,12.98h8.06l0.15,2.72H612.11z"/>
			<path d="M625.91,212.59c-0.07-1.18-0.06-2.26,0.03-3.25c0.09-0.98,0.38-1.81,0.85-2.5c0.47-0.69,1.17-1.22,2.11-1.6
				c0.94-0.38,2.22-0.57,3.84-0.57c1.63,0,2.94,0.19,3.94,0.57c1.01,0.38,1.81,0.92,2.4,1.6c0.59,0.69,1.02,1.52,1.29,2.5
				c0.27,0.98,0.47,2.06,0.6,3.25c0.14,1.19,0.19,2.3,0.15,3.32c-0.04,1.03-0.29,1.92-0.74,2.67c-0.46,0.75-1.17,1.34-2.15,1.76
				c-0.98,0.43-2.33,0.64-4.05,0.64c-1.72,0-3.11-0.21-4.17-0.64c-1.05-0.42-1.87-1.01-2.46-1.76c-0.59-0.75-0.99-1.64-1.21-2.67
				C626.12,214.89,625.98,213.78,625.91,212.59z M630.37,212.59c0.08,1.06,0.19,1.97,0.32,2.72c0.13,0.76,0.33,1.37,0.58,1.85
				c0.26,0.48,0.6,0.83,1.03,1.05c0.43,0.22,0.98,0.33,1.66,0.33c0.68,0,1.21-0.11,1.6-0.33c0.39-0.22,0.67-0.57,0.85-1.05
				c0.17-0.48,0.26-1.09,0.26-1.85c0-0.75-0.05-1.66-0.16-2.72c-0.1-1.05-0.23-1.93-0.37-2.65c-0.14-0.72-0.34-1.3-0.6-1.76
				c-0.26-0.45-0.59-0.78-1.01-0.99c-0.41-0.2-0.94-0.31-1.59-0.31c-0.65,0-1.16,0.1-1.54,0.31c-0.38,0.2-0.66,0.53-0.83,0.99
				c-0.18,0.45-0.28,1.04-0.29,1.76C630.26,210.65,630.29,211.54,630.37,212.59z"/>
			<path d="M654.54,204.96l0.42,2.47h-4.75l2,13.22h-4.59l-1.78-13.22h-4.75l-0.29-2.47H654.54z"/>
		</g>
	</g>
	<path d="M603.06,275.48h-41.19c-0.55,0-1.08-0.24-1.44-0.66c-0.36-0.42-0.53-0.97-0.45-1.52l4.45-32.19
		c0.13-0.95,0.94-1.65,1.89-1.65h37.29c0.51,0,1,0.21,1.36,0.57s0.56,0.86,0.55,1.37l-0.55,32.19
		C604.96,274.65,604.11,275.48,603.06,275.48z M564.07,271.66h37.11l0.49-28.37H568L564.07,271.66z"/>
	<path class="st3" d="M583.3,270.34c-0.08,0-0.16,0-0.24-0.01c-1.74-0.09-3.29-1.11-4.05-2.67l-8.66-17.72
		c-1.16-2.37-0.18-5.23,2.19-6.39c2.37-1.16,5.23-0.18,6.39,2.19l4.87,9.96l18.76-30.19c1.39-2.24,4.34-2.93,6.58-1.54
		c2.24,1.39,2.93,4.34,1.54,6.58l-23.32,37.52C586.49,269.49,584.95,270.34,583.3,270.34z"/>
	<path d="M655.19,275.48H614c-1.04,0-1.9-0.84-1.91-1.88l-0.48-32.19c-0.01-0.51,0.19-1,0.55-1.37c0.36-0.37,0.85-0.57,1.36-0.57
		h37.29c0.96,0,1.76,0.71,1.89,1.65l4.38,32.19c0.08,0.55-0.09,1.1-0.45,1.51C656.27,275.24,655.74,275.48,655.19,275.48z
		 M615.88,271.66H653l-3.86-28.37h-33.68L615.88,271.66z"/>
	<path d="M602.19,326.52h-47.37c-0.55,0-1.08-0.24-1.44-0.66c-0.36-0.42-0.53-0.97-0.45-1.52l5.81-41.99
		c0.13-0.95,0.94-1.65,1.89-1.65h42.28c0.51,0,1,0.21,1.36,0.57s0.56,0.86,0.55,1.37l-0.72,41.99
		C604.08,325.68,603.23,326.52,602.19,326.52z M557.01,322.69h43.3l0.66-38.17h-38.67L557.01,322.69z"/>
	<path d="M662.14,326.52h-47.37c-1.04,0-1.9-0.84-1.91-1.88l-0.63-41.99c-0.01-0.51,0.19-1,0.55-1.37c0.36-0.37,0.85-0.57,1.36-0.57
		h42.28c0.96,0,1.76,0.71,1.89,1.65l5.72,41.99c0.08,0.55-0.09,1.1-0.45,1.51C663.22,326.28,662.69,326.52,662.14,326.52z
		 M616.65,322.69h43.3l-5.2-38.17h-38.67L616.65,322.69z"/>
	<path class="st3" d="M637.89,318.82c-1.71,0-3.3-0.91-4.15-2.41l-13.17-23.09c-1.31-2.29-0.51-5.21,1.78-6.52
		c2.29-1.31,5.21-0.51,6.52,1.78l8.25,14.48l15.66-39.27c0.98-2.45,3.76-3.64,6.21-2.67c2.45,0.98,3.65,3.76,2.67,6.21l-19.33,48.48
		c-0.68,1.71-2.28,2.87-4.11,3C638.11,318.82,638,318.82,637.89,318.82z"/>
	<g>
		<path class="st3" d="M609.38,365c1.91,0,3.72,0.59,4.92,1.6l75.17,63.71c2.86,2.44,2.91,6,0.05,7.96
			c-1.16,0.8-2.69,1.23-4.33,1.23h-31.22l5.77,66.06c0.33,4.08-3.08,7.43-7.67,7.48h-86.16c-4.66,0-8.12-3.4-7.73-7.53l6.15-66.04
			h-31.22c-4.06,0-6.9-2.59-6.36-5.73c0.22-1.26,0.97-2.48,2.13-3.46l75.53-63.7C605.63,365.56,607.47,364.98,609.38,365z"/>
	</g>
</g>
</svg>
