<svg xmlns="http://www.w3.org/2000/svg" viewBox="0 0 259.16 73.5">
  <title>instructions-write-in-v2</title>
  <line x1="65.38" y1="50.64" x2="236.37" y2="50.64" style="stroke: #000;stroke-miterlimit: 10;stroke-width: 1.6955302142565394px"/>
  <path d="M156.88,27.16a2.14,2.14,0,0,0-.86-1.33q-.53-.24-1,.45c-.23.39-.46.75-.69,1.07l-.69,1q-1.64,2.55-3.15,4.71c-1,1.43-1.95,2.71-2.84,3.82a8.84,8.84,0,0,1-2.37,2.26c.06-.53.13-1.11.22-1.77s.2-1.44.34-2.35c.23-1.64.45-3.26.67-4.86s.42-2.95.62-4.07c.06-.39.11-.74.13-1s.08-.57.13-.83c.06-.53.11-1,.15-1.48a4.4,4.4,0,0,0-.15-1.56,2.09,2.09,0,0,0-.81-1.48.59.59,0,0,0-.82.1c-.81.72-1.54,1.36-2.2,1.92l-2.28,1.91c-.87.72-1.76,1.47-2.68,2.26a1.89,1.89,0,0,0-.25.3,3.2,3.2,0,0,0-.22.38c-.31.59-.67,1.29-1.08,2.11A23.08,23.08,0,0,1,135.77,31c-.46.72-.92,1.37-1.38,2A2.89,2.89,0,0,1,133.1,34c.06-.39.1-.75.13-1.07.14-.72.29-1.51.45-2.36s.33-1.7.5-2.55c.46-2.61.77-4.54.95-5.79a9.29,9.29,0,0,0,0-3.23,6.34,6.34,0,0,0-.34-1,1.37,1.37,0,0,0-.56-.69c-.49-.32-.91,0-1.25.88-.63,1.44-1.21,2.72-1.72,3.83s-1.12,2.35-1.81,3.73S128,28.57,127.2,30q-1.52,2.64-2.67,4.41a27.63,27.63,0,0,1-2,2.79,9.34,9.34,0,0,1-1.55,1.52,3.07,3.07,0,0,1-1.1.59l.09-.59c0-.19.07-.42.13-.68.14-.72.29-1.48.45-2.26s.31-1.57.45-2.35c.58-2.75,1-4.87,1.23-6.38a11,11,0,0,0,0-3.92c-.23-1.11-.57-1.77-1-2q-1.47-1-3.23,1.07a9.73,9.73,0,0,0-1.38,2c-.43.78-.85,1.5-1.25,2.16l0,.1-.06.09c-.31.59-.67,1.29-1.07,2.11a25.3,25.3,0,0,1-1.3,2.31c-.46.72-.92,1.37-1.38,2A2.89,2.89,0,0,1,110.18,34c.06-.39.1-.75.13-1.07.14-.72.29-1.51.45-2.36s.33-1.7.5-2.55c.46-2.61.77-4.54.95-5.79a9.29,9.29,0,0,0,0-3.23,6.34,6.34,0,0,0-.34-1,1.37,1.37,0,0,0-.56-.69c-.49-.32-.91,0-1.25.88-.63,1.44-1.21,2.72-1.72,3.83s-1.12,2.35-1.81,3.73-1.43,2.78-2.2,4.22q-1.52,2.64-2.67,4.41a27.63,27.63,0,0,1-2,2.79A9.34,9.34,0,0,1,98,38.73a3.07,3.07,0,0,1-1.1.59l.09-.59c0-.19.07-.42.13-.68.14-.72.29-1.48.45-2.26s.31-1.57.45-2.35c.58-2.75,1-4.87,1.23-6.38a11,11,0,0,0,0-3.92c-.23-1.11-.57-1.77-1-2-1-.66-2-.3-3.23,1.07a9.73,9.73,0,0,0-1.38,2c-.43.78-.85,1.5-1.25,2.16a.76.76,0,0,1,0,.11.35.35,0,0,1,0,.08c-.31.59-.67,1.29-1.07,2.11s-.84,1.59-1.29,2.31-.92,1.37-1.38,2A2.85,2.85,0,0,1,87.26,34c.06-.39.1-.75.13-1.07.15-.72.3-1.51.46-2.36s.32-1.7.49-2.55q.69-3.91,1-5.79A9.06,9.06,0,0,0,89.24,19a5.43,5.43,0,0,0-.34-1,1.37,1.37,0,0,0-.56-.69c-.49-.32-.9,0-1.25.88-.63,1.44-1.2,2.72-1.72,3.83s-1.12,2.35-1.81,3.73-1.42,2.78-2.2,4.22q-1.5,2.64-2.67,4.41a26.17,26.17,0,0,1-2,2.79,9,9,0,0,1-1.55,1.52,3.12,3.12,0,0,1-1.09.59c0-.19,0-.39.08-.59s.07-.42.13-.68c.14-.72.29-1.48.45-2.26s.31-1.57.46-2.35c.57-2.75,1-4.87,1.22-6.38a10.75,10.75,0,0,0,0-3.92c-.23-1.11-.57-1.77-1-2-1-.66-2-.3-3.23,1.07a9.73,9.73,0,0,0-1.38,2c-.43.78-.85,1.5-1.25,2.16A6.18,6.18,0,0,0,69,28.44a5.2,5.2,0,0,0,.26,2.15,1.69,1.69,0,0,0,.88,1.08c.36.14.68-.06,1-.59.43-.78.85-1.55,1.27-2.3a6.39,6.39,0,0,1,1.18-1.62c-.14.59-.27,1.21-.38,1.86s-.23,1.25-.35,1.77c-.63,2.94-1.08,5.35-1.35,7.21a14.07,14.07,0,0,0,0,4.76,3,3,0,0,0,1.08,2.06,3.92,3.92,0,0,0,.58.29,1.81,1.81,0,0,0,.63.1q3.32,0,9.26-10.69c.37-.72.72-1.38,1-2s.66-1.21,1-1.87c-.25,1.7-.42,3.09-.49,4.17a12.06,12.06,0,0,0,.15,3,3.45,3.45,0,0,0,1,2,2.1,2.1,0,0,0,2.11,0A6.61,6.61,0,0,0,89.91,38,23.74,23.74,0,0,0,92,34.86c.63-1.09,1.23-2.26,1.83-3.49a1.82,1.82,0,0,0,.2-.29c.43-.78.85-1.55,1.27-2.3a6.16,6.16,0,0,1,1.18-1.62c-.14.59-.27,1.21-.38,1.86s-.24,1.25-.35,1.77c-.63,2.94-1.08,5.35-1.36,7.21a14.3,14.3,0,0,0,0,4.76,3,3,0,0,0,1.08,2.06,3.49,3.49,0,0,0,.58.29,1.75,1.75,0,0,0,.62.1q3.33,0,9.27-10.69c.37-.72.72-1.38,1-2s.66-1.21,1-1.87c-.26,1.7-.42,3.09-.49,4.17a11.17,11.17,0,0,0,.15,3,3.45,3.45,0,0,0,1,2,2.1,2.1,0,0,0,2.11,0A6.61,6.61,0,0,0,112.83,38a23.74,23.74,0,0,0,2.09-3.14c.62-1.09,1.23-2.26,1.83-3.48a3.11,3.11,0,0,0,.2-.3c.43-.78.85-1.55,1.27-2.3a6.16,6.16,0,0,1,1.18-1.62Q119.19,28,119,29c-.11.66-.23,1.25-.34,1.77-.63,2.94-1.09,5.35-1.36,7.21a14.3,14.3,0,0,0,0,4.76,3,3,0,0,0,1.08,2.06,3.49,3.49,0,0,0,.58.29,1.75,1.75,0,0,0,.62.1q3.33,0,9.27-10.69c.37-.72.72-1.38,1-2s.66-1.21,1-1.87c-.26,1.7-.42,3.09-.49,4.17a11.17,11.17,0,0,0,.15,3,3.45,3.45,0,0,0,1,2,2.1,2.1,0,0,0,2.11,0A6.61,6.61,0,0,0,135.75,38a24.77,24.77,0,0,0,2.09-3.14c.61-1.08,1.21-2.22,1.8-3.43.8-.67,1.58-1.34,2.33-2s1.54-1.33,2.2-1.86q-.64,4.62-1,7.51c-.24,1.93-.42,3.45-.52,4.56a18.82,18.82,0,0,0-.1,2.5,7.67,7.67,0,0,0,.17,1.42,3.13,3.13,0,0,0,.86,1.67l.47.15a2.15,2.15,0,0,0,.43,0q1.64,0,4.44-3.33,1.38-1.66,2.93-3.92c1-1.51,2.1-3.08,3.19-4.71l.75-1.13c.25-.36.48-.74.71-1.13a3.73,3.73,0,0,0,.58-1.81A5.88,5.88,0,0,0,156.88,27.16Z"/>
  <rect x="0.96" y="0.96" width="257.18" height="71.52" style="fill: none;stroke: #000;stroke-miterlimit: 10;stroke-width: 1.9129544738457445px"/>
  <g>
    <path d="M258.09,10.13c-13.54,0-24.59-.08-29.16-.26-8.35-.32-15.53,35.86,25.34,44.4l3.87.81Z" style="fill: #b3b3b3;stroke: #000;stroke-miterlimit: 10;stroke-width: 2px"/>
    <path d="M258.14,57.4,218.31,45.55c-2,9.32-3.4,19,1.55,26.92h38.28Z" style="fill: #b3b3b3;stroke: #000;stroke-miterlimit: 10;stroke-width: 2px"/>
    <path d="M258.14,33.61c-11.95-2.77-18.84-4.32-21.49-4.77-12.71-2.18-46.67-4.72-54.3-4.91-3.24-.07-8.62,0-13.76.3L165.86,35.8c2.86,1.91,5.68,3.64,7.59,4.66,5.45,2.91,43.59,20.16,56.12,24.7,2.78,1,11.71,3.54,25.44,7.31h3.13Z" style="fill: #737373;stroke: #000;stroke-miterlimit: 10;stroke-width: 2px"/>
    <path d="M155.1,26.66c0,1.41,5.45,5.59,10.76,9.14l2.73-11.57C161.61,24.63,155.1,25.4,155.1,26.66Z" style="stroke: #000;stroke-miterlimit: 10;stroke-width: 2px"/>
    <path d="M233.78,72.45A26.16,26.16,0,0,1,248,62.11a40.65,40.65,0,0,1,10.13-1.17l0,11.53Z" style="fill: #b3b3b3;stroke: #000;stroke-miterlimit: 10;stroke-width: 2px"/>
    <path d="M258.14,68.73a18.2,18.2,0,0,0-14,3.77l14,0Z" style="fill: #d9d9d9;stroke: #000;stroke-linecap: round;stroke-linejoin: round;stroke-width: 2px"/>
  </g>
  <text transform="translate(65.84 65.79)" style="font-size: 16px;fill: #221f1f;font-family: HelveticaNeue, Helvetica Neue">write-in</text>
  <ellipse cx="36.33" cy="36.52" rx="23.12" ry="15.24"/>
</svg>
