<svg id="Layer_1" data-name="Layer 1" xmlns="http://www.w3.org/2000/svg" viewBox="0 0 512 512">
  <rect width="512" height="512" style="fill: none"/>
  <g>
    <polygon points="418.35 327.32 470.73 327.32 470.73 270.62 497.6 270.62 444.54 203.27 391.48 270.62 418.35 270.62 418.35 327.32" style="fill: #6638b6"/>
    <path d="M470.73,332.44H418.35a5.13,5.13,0,0,1-5.13-5.12V275.75H391.48a5.12,5.12,0,0,1-4-8.3l53.06-67.35a5.12,5.12,0,0,1,4-1.95h0a5.12,5.12,0,0,1,4,1.95l53.06,67.35a5.13,5.13,0,0,1-4,8.3H475.85v51.57A5.12,5.12,0,0,1,470.73,332.44ZM423.47,322.2h42.14V270.62a5.12,5.12,0,0,1,5.12-5.12H487l-42.5-53.95L402,265.5h16.31a5.12,5.12,0,0,1,5.12,5.12Z" style="fill: #6638b6"/>
  </g>
  <path d="M242.13,293.89H210.75a12.13,12.13,0,0,1-12.12-12.11V232.63a12.13,12.13,0,0,1,12.12-12.11h31.38a12.12,12.12,0,0,1,12.11,12.11v49.15A12.12,12.12,0,0,1,242.13,293.89Zm-31.38-63.13a1.89,1.89,0,0,0-1.87,1.87v49.15a1.89,1.89,0,0,0,1.87,1.87h31.38a1.9,1.9,0,0,0,1.87-1.87V232.63a1.9,1.9,0,0,0-1.87-1.87Z"/>
  <path d="M357.26,410H150.74a5.12,5.12,0,1,1,0-10.24H357.26a5.12,5.12,0,0,1,0,10.24Z"/>
  <path d="M403.67,404c0-.07,0-.14,0-.2,0-14.61-15.89-27.24-45.95-36.55C330,358.65,293.11,353.91,254,353.91s-75.95,4.74-103.73,13.34c-30.06,9.31-45.94,21.94-45.94,36.55v.2h0v58.11c0,14.6,15.88,27.24,45.94,36.55C178.05,507.26,214.89,512,254,512s75.95-4.74,103.73-13.34c30.06-9.31,45.95-22,45.95-36.55V404ZM153.3,377c26.83-8.3,62.59-12.88,100.7-12.88s73.88,4.58,100.7,12.88c24.25,7.52,38.73,17.52,38.73,26.77S379,423,354.7,430.55c-26.82,8.31-62.59,12.89-100.7,12.89s-73.87-4.58-100.7-12.89C129.05,423,114.57,413,114.57,403.8S129.05,384.55,153.3,377ZM354.7,488.87c-26.82,8.31-62.59,12.89-100.7,12.89s-73.87-4.58-100.7-12.89c-24.07-7.45-38.52-17.36-38.73-26.55V422.85c7.71,6.63,19.7,12.53,35.7,17.49,27.78,8.6,64.62,13.34,103.73,13.34s75.95-4.74,103.73-13.34c16-5,28-10.86,35.7-17.49v39.46C393.23,471.5,378.78,481.42,354.7,488.87Z"/>
  <path d="M506.88,0H354.55c-13,0-30.16,7-39,15.81C310,21.33,281.2,51.44,262,71.51H176.51a18,18,0,0,0-17.94,17.94V315a18,18,0,0,0,17.93,17.94h155A18,18,0,0,0,349.44,315V148.34c3.8-3.7,6.8-6.64,8.76-8.58,20.47,9.63,41.86,10.24,60.6,1.66,20-9.18,34.7-28,40.26-51.63a5.12,5.12,0,1,0-10-2.35c-4.83,20.54-17.42,36.82-34.55,44.66-16.84,7.71-36.37,6.61-55-3.1l-3.34-1.75-2.65,2.67c-.2.21-20.34,20.4-45.76,43.51-7.87,7.15-17.74,3.74-24-2.8-6.91-7.18-10.25-19.08-1.26-28.23,16.27-16.55,77-80.4,77.59-81a5.12,5.12,0,1,0-7.42-7.06c-.21.21-7.15,7.51-16.9,17.74a17.73,17.73,0,0,0-4.28-.53H276.19C294.75,52.1,318,27.83,322.77,23.05c7.66-7.66,22.62-12.81,31.78-12.81H506.88a5.12,5.12,0,1,0,0-10.24ZM275.2,135.22c-13.17,13.4-9.37,31.53,1.18,42.51a31.71,31.71,0,0,0,17.86,9.66,24.82,24.82,0,0,0,3.81.29A24.37,24.37,0,0,0,314.69,181c9.05-8.23,17.43-16.09,24.5-22.82V315a7.7,7.7,0,0,1-7.69,7.7h-155a7.7,7.7,0,0,1-7.69-7.7V89.45a7.7,7.7,0,0,1,7.7-7.7h150C307.82,101.37,284.38,125.88,275.2,135.22Z"/>
</svg>
