<?xml version="1.0" encoding="utf-8"?>
<!-- Generator: Adobe Illustrator 12.0.0, SVG Export Plug-In . SVG Version: 6.00 Build 51448)  -->
<!DOCTYPE svg PUBLIC "-//W3C//DTD SVG 1.1//EN" "http://www.w3.org/Graphics/SVG/1.1/DTD/svg11.dtd" [
	<!ENTITY ns_svg "http://www.w3.org/2000/svg">
	<!ENTITY ns_xlink "http://www.w3.org/1999/xlink">
]>
<svg  version="1.1" id="Layer_1" xmlns="&ns_svg;" xmlns:xlink="&ns_xlink;" width="336.666" height="336.666"
	 viewBox="-68.833 -25.166 336.666 336.666" overflow="visible" enable-background="new -68.833 -25.166 336.666 336.666"
	 xml:space="preserve">
<g id="Layer_2">
</g>
<circle fill="#97AEC0" cx="99.5" cy="143.167" r="168.333"/>
<circle cx="99.5" cy="143.166" r="158.416"/>
<circle fill="#97AEC0" cx="99.5" cy="143.167" r="117.833"/>
<path id="path1627" fill="#FFFFFF" stroke="#000000" d="M-0.119,208.208l197.67,0.27l-24.205,26.138c0,0-18.938,13.52-38.459,20.6
	c-19.756,7.164-40.114,7.888-41.882,7.617c-1.828-0.276-26.353-4.058-45.952-12.66c-18.046-7.92-27.511-21.784-27.511-21.784
	L-0.119,208.208z"/>
<path id="path1628" fill="#FFFFFF" stroke="#000000" d="M19.817,227.597l155.375,0.844l-2.528,5.898L26.841,234.62L19.817,227.597z"
	/>
<path fill="#FFFFFF" d="M99.5,22.348c-66.786,0-120.989,54.127-120.989,120.818c0,66.692,54.203,120.817,120.989,120.817
	s120.988-54.125,120.988-120.817C220.488,76.475,166.286,22.348,99.5,22.348z M99.5,257.271c-63,0-114.128-51.317-114.128-114.555
	c0-63.231,51.128-114.55,114.128-114.55s114.129,51.319,114.129,114.551C213.629,205.951,162.5,257.271,99.5,257.271z"/>
<g>
	<path fill="#FFFFFF" d="M110.366-1.514c-2.354-0.167-3.884-2.154-3.707-4.648s2.04-4.239,4.465-4.068
		c2.425,0.172,3.96,2.091,3.776,4.652c-0.176,2.494-1.971,4.245-4.465,4.068L110.366-1.514z"/>
	<path fill="#FFFFFF" d="M121.141-0.311c-2.336-0.342-3.714-2.438-3.353-4.911c0.36-2.474,2.351-4.078,4.757-3.727
		c2.404,0.353,3.791,2.381,3.42,4.922c-0.361,2.474-2.283,4.087-4.756,3.726L121.141-0.311z"/>
	<path fill="#FFFFFF" d="M131.771,1.689c-2.305-0.517-3.521-2.709-2.975-5.148c0.545-2.438,2.648-3.89,5.021-3.358
		c2.371,0.53,3.604,2.656,3.043,5.164c-0.547,2.438-2.584,3.904-5.022,3.357L131.771,1.689z"/>
	<path fill="#FFFFFF" d="M142.275,4.496c-2.258-0.688-3.307-2.967-2.576-5.359c0.729-2.391,2.937-3.678,5.26-2.97
		c2.324,0.708,3.393,2.921,2.645,5.378c-0.729,2.392-2.869,3.699-5.26,2.971L142.275,4.496z"/>
	<path fill="#FFFFFF" d="M152.499,8.071c-2.199-0.856-3.072-3.208-2.166-5.537c0.905-2.33,3.203-3.448,5.469-2.566
		c2.265,0.881,3.164,3.167,2.23,5.563c-0.906,2.329-3.138,3.473-5.468,2.566L152.499,8.071z"/>
	<path fill="#FFFFFF" d="M162.409,12.396c-2.13-1.019-2.822-3.429-1.746-5.685c1.078-2.255,3.455-3.196,5.646-2.148
		c2.191,1.048,2.916,3.396,1.81,5.713c-1.078,2.255-3.392,3.229-5.646,2.149L162.409,12.396z"/>
	<path fill="#FFFFFF" d="M172.012,17.478c-2.049-1.176-2.561-3.631-1.314-5.798c1.242-2.17,3.683-2.932,5.791-1.721
		c2.107,1.209,2.654,3.605,1.373,5.833c-1.241,2.168-3.62,2.964-5.789,1.721L172.012,17.478z"/>
	<path fill="#FFFFFF" d="M181.168,23.239c-1.955-1.324-2.281-3.813-0.881-5.88c1.402-2.07,3.895-2.647,5.904-1.284
		c2.012,1.363,2.379,3.793,0.938,5.92c-1.4,2.069-3.834,2.687-5.902,1.283L181.168,23.239z"/>
	<path fill="#FFFFFF" d="M189.938,29.713c-1.85-1.467-1.987-3.971-0.436-5.93c1.555-1.958,4.076-2.349,5.98-0.838
		c1.904,1.51,2.088,3.96,0.49,5.973c-1.554,1.958-4.021,2.393-5.98,0.838L189.938,29.713z"/>
	<path fill="#FFFFFF" d="M198.143,36.779c-1.735-1.602-1.688-4.108,0.006-5.947c1.693-1.838,4.24-2.039,6.027-0.392
		c1.785,1.646,1.787,4.104,0.049,5.993c-1.695,1.838-4.192,2.087-6.029,0.393L198.143,36.779z"/>
	<path fill="#FFFFFF" d="M205.801,44.43c-1.609-1.726-1.381-4.224,0.445-5.93c1.824-1.708,4.381-1.72,6.039,0.055
		c1.66,1.774,1.479,4.226-0.396,5.98c-1.824,1.708-4.334,1.771-6.041-0.056L205.801,44.43z"/>
	<path fill="#FFFFFF" d="M212.87,52.626c-1.479-1.839-1.063-4.313,0.885-5.88c1.945-1.567,4.496-1.391,6.019,0.502
		c1.524,1.895,1.164,4.323-0.838,5.935c-1.949,1.566-4.453,1.444-6.021-0.503L212.87,52.626z"/>
	<path fill="#FFFFFF" d="M219.32,61.339c-1.338-1.942-0.739-4.38,1.318-5.798c2.06-1.417,4.586-1.052,5.965,0.949
		c1.379,2.002,0.84,4.398-1.276,5.855c-2.06,1.418-4.548,1.108-5.966-0.949L219.32,61.339z"/>
	<path fill="#FFFFFF" d="M225.122,70.536c-1.192-2.038-0.412-4.423,1.746-5.683c2.159-1.262,4.653-0.706,5.879,1.394
		s0.506,4.447-1.713,5.743c-2.158,1.26-4.619,0.766-5.877-1.394L225.122,70.536z"/>
	<path fill="#FFFFFF" d="M230.188,80.08c-1.037-2.121-0.08-4.44,2.164-5.537c2.248-1.095,4.693-0.355,5.76,1.828
		c1.064,2.186,0.173,4.475-2.137,5.601c-2.248,1.095-4.662,0.419-5.758-1.828L230.188,80.08z"/>
	<path fill="#FFFFFF" d="M234.54,90.028c-0.871-2.193,0.256-4.435,2.58-5.357c2.321-0.924,4.705-0.003,5.604,2.256
		c0.897,2.26-0.164,4.475-2.554,5.424c-2.321,0.923-4.683,0.065-5.604-2.257L234.54,90.028z"/>
	<path fill="#FFFFFF" d="M238.125,100.241c-0.705-2.253,0.586-4.403,2.975-5.149c2.387-0.745,4.693,0.353,5.42,2.672
		c0.726,2.318-0.502,4.448-2.953,5.216c-2.387,0.746-4.674-0.285-5.42-2.671L238.125,100.241z"/>
	<path fill="#FFFFFF" d="M240.943,110.731c-0.534-2.3,0.916-4.347,3.353-4.91c2.435-0.564,4.654,0.704,5.203,3.071
		c0.547,2.366-0.836,4.397-3.338,4.979c-2.437,0.564-4.64-0.637-5.203-3.072L240.943,110.731z"/>
	<path fill="#FFFFFF" d="M242.961,121.406c-0.359-2.333,1.24-4.266,3.713-4.646c2.471-0.379,4.588,1.054,4.957,3.455
		c0.367,2.401-1.164,4.323-3.703,4.712c-2.471,0.382-4.576-0.98-4.955-3.452L242.961,121.406z"/>
	<path fill="#FFFFFF" d="M244.174,132.166c-0.188-2.354,1.557-4.162,4.049-4.354c2.488-0.194,4.494,1.39,4.685,3.813
		c0.188,2.424-1.48,4.226-4.041,4.425c-2.492,0.195-4.492-1.319-4.688-3.813L244.174,132.166z"/>
	<path fill="#FFFFFF" d="M244.588,142.983c-0.039-2.36,1.809-4.059,4.309-4.099c2.5-0.041,4.402,1.664,4.441,4.096
		c0.039,2.431-1.738,4.126-4.307,4.167c-2.502,0.041-4.402-1.599-4.443-4.097V142.983z"/>
	<path fill="#FFFFFF" d="M244.198,153.8c0.163-2.354,2.149-3.888,4.643-3.713c2.494,0.173,4.244,2.034,4.076,4.457
		c-0.168,2.426-2.086,3.964-4.647,3.785c-2.492-0.173-4.246-1.965-4.074-4.459L244.198,153.8z"/>
	<path fill="#FFFFFF" d="M243.014,164.583c0.336-2.339,2.43-3.718,4.902-3.359c2.477,0.356,4.082,2.346,3.734,4.75
		c-0.351,2.404-2.375,3.797-4.918,3.43c-2.476-0.359-4.092-2.277-3.73-4.752L243.014,164.583z"/>
	<path fill="#FFFFFF" d="M241.018,175.276c0.515-2.308,2.707-3.524,5.146-2.981c2.439,0.542,3.895,2.646,3.363,5.019
		c-0.527,2.371-2.65,3.605-5.158,3.047c-2.439-0.541-3.908-2.575-3.365-5.019L241.018,175.276z"/>
	<path fill="#FFFFFF" d="M238.236,185.731c0.688-2.263,2.964-3.313,5.354-2.588c2.394,0.726,3.687,2.931,2.979,5.256
		c-0.704,2.326-2.916,3.396-5.375,2.652c-2.395-0.725-3.702-2.863-2.979-5.257L238.236,185.731z"/>
	<path fill="#FFFFFF" d="M234.676,195.958c0.854-2.201,3.203-3.078,5.533-2.176c2.33,0.9,3.453,3.197,2.574,5.465
		c-0.877,2.268-3.162,3.168-5.559,2.238c-2.332-0.9-3.479-3.133-2.574-5.463L234.676,195.958z"/>
	<path fill="#FFFFFF" d="M230.342,205.925c1.016-2.131,3.426-2.826,5.684-1.752c2.257,1.076,3.201,3.449,2.154,5.646
		c-1.047,2.191-3.393,2.921-5.711,1.813c-2.256-1.074-3.23-3.387-2.156-5.643L230.342,205.925z"/>
	<path fill="#FFFFFF" d="M225.299,215.49c1.172-2.05,3.627-2.564,5.799-1.324c2.17,1.242,2.935,3.681,1.728,5.789
		c-1.205,2.106-3.601,2.657-5.83,1.383c-2.17-1.239-2.972-3.619-1.729-5.789L225.299,215.49z"/>
	<path fill="#FFFFFF" d="M219.521,224.701c1.322-1.955,3.81-2.287,5.879-0.886c2.07,1.398,2.652,3.888,1.289,5.9
		c-1.358,2.014-3.789,2.383-5.918,0.943c-2.069-1.4-2.688-3.83-1.289-5.902L219.521,224.701z"/>
	<path fill="#FFFFFF" d="M213.088,233.433c1.465-1.852,3.969-1.994,5.928-0.445c1.963,1.552,2.355,4.074,0.851,5.98
		c-1.509,1.906-3.957,2.094-5.974,0.502c-1.961-1.553-2.397-4.021-0.848-5.982L213.088,233.433z"/>
	<path fill="#FFFFFF" d="M206.036,241.651c1.596-1.737,4.104-1.694,5.946-0.004c1.838,1.689,2.045,4.236,0.398,6.025
		c-1.645,1.789-4.102,1.797-5.992,0.057c-1.84-1.69-2.094-4.188-0.4-6.026L206.036,241.651z"/>
	<path fill="#FFFFFF" d="M198.396,249.315c1.726-1.614,4.222-1.391,5.933,0.437c1.711,1.822,1.728,4.377-0.045,6.041
		c-1.772,1.662-4.224,1.485-5.981-0.39c-1.71-1.823-1.775-4.329,0.047-6.041L198.396,249.315z"/>
	<path fill="#FFFFFF" d="M190.167,256.437c1.838-1.479,4.313-1.067,5.883,0.877c1.568,1.945,1.396,4.494-0.498,6.021
		c-1.893,1.523-4.319,1.168-5.934-0.832c-1.57-1.945-1.451-4.453,0.493-6.021L190.167,256.437z"/>
	<path fill="#FFFFFF" d="M181.504,262.867c1.941-1.343,4.379-0.746,5.801,1.312c1.422,2.055,1.059,4.584-0.941,5.967
		c-1.999,1.381-4.396,0.842-5.856-1.271c-1.422-2.058-1.114-4.547,0.941-5.969L181.504,262.867z"/>
	<path fill="#FFFFFF" d="M172.318,268.679c2.037-1.193,4.423-0.418,5.688,1.738c1.261,2.158,0.714,4.65-1.387,5.881
		c-2.099,1.229-4.445,0.514-5.744-1.705c-1.265-2.154-0.772-4.617,1.383-5.879L172.318,268.679z"/>
	<path fill="#FFFFFF" d="M162.732,273.781c2.123-1.037,4.443-0.085,5.541,2.159c1.101,2.246,0.361,4.691-1.819,5.763
		c-2.187,1.065-4.476,0.178-5.603-2.132c-1.102-2.245-0.428-4.661,1.818-5.76L162.732,273.781z"/>
	<path fill="#FFFFFF" d="M152.844,278.126c2.191-0.875,4.436,0.25,5.363,2.568c0.926,2.322,0.008,4.707-2.248,5.607
		c-2.258,0.901-4.477-0.156-5.428-2.544c-0.928-2.321-0.074-4.682,2.248-5.606L152.844,278.126z"/>
	<path fill="#FFFFFF" d="M142.584,281.746c2.252-0.707,4.402,0.582,5.152,2.967c0.748,2.388-0.344,4.693-2.664,5.425
		c-2.317,0.728-4.448-0.496-5.219-2.947c-0.748-2.385,0.278-4.672,2.664-5.422L142.584,281.746z"/>
	<path fill="#FFFFFF" d="M132.152,284.56c2.301-0.537,4.35,0.912,4.916,3.346c0.566,2.435-0.696,4.656-3.063,5.207
		c-2.366,0.554-4.399-0.825-4.981-3.329c-0.567-2.435,0.627-4.64,3.063-5.207L132.152,284.56z"/>
	<path fill="#FFFFFF" d="M121.486,286.597c2.332-0.363,4.269,1.232,4.65,3.703c0.385,2.471-1.045,4.59-3.445,4.963
		c-2.402,0.371-4.326-1.156-4.721-3.693c-0.383-2.471,0.977-4.577,3.445-4.963L121.486,286.597z"/>
	<path fill="#FFFFFF" d="M110.732,287.819c2.354-0.188,4.164,1.55,4.363,4.039c0.197,2.494-1.383,4.498-3.806,4.691
		s-4.228-1.473-4.433-4.033c-0.197-2.492,1.314-4.494,3.806-4.692L110.732,287.819z"/>
	<path fill="#FFFFFF" d="M99.861,288.253c2.362-0.039,4.059,1.809,4.1,4.309c0.039,2.5-1.666,4.402-4.095,4.441
		c-2.431,0.039-4.127-1.738-4.168-4.309c-0.041-2.5,1.596-4.4,4.096-4.441H99.861z"/>
	<path fill="#FFFFFF" d="M89.039,287.875c2.354,0.164,3.89,2.146,3.72,4.642c-0.17,2.491-2.029,4.246-4.453,4.082
		c-2.425-0.168-3.965-2.08-3.791-4.646c0.17-2.494,1.961-4.252,4.454-4.082L89.039,287.875z"/>
	<path fill="#FFFFFF" d="M78.253,286.705c2.336,0.334,3.721,2.426,3.365,4.901c-0.355,2.476-2.341,4.084-4.746,3.736
		c-2.406-0.344-3.799-2.367-3.434-4.912c0.355-2.475,2.271-4.094,4.745-3.736L78.253,286.705z"/>
	<path fill="#FFFFFF" d="M67.612,284.731c2.305,0.511,3.527,2.699,2.988,5.142c-0.539,2.438-2.64,3.896-5.012,3.373
		c-2.373-0.524-3.611-2.647-3.057-5.156c0.539-2.44,2.571-3.912,5.012-3.373L67.612,284.731z"/>
	<path fill="#FFFFFF" d="M57.15,281.972c2.261,0.682,3.315,2.957,2.595,5.352c-0.722,2.394-2.924,3.687-5.251,2.986
		c-2.327-0.701-3.402-2.91-2.66-5.369c0.72-2.396,2.857-3.709,5.251-2.987L57.15,281.972z"/>
	<path fill="#FFFFFF" d="M46.911,278.423c2.203,0.85,3.084,3.197,2.185,5.531c-0.899,2.332-3.193,3.457-5.461,2.584
		c-2.268-0.877-3.174-3.158-2.25-5.559c0.9-2.332,3.129-3.479,5.462-2.582L46.911,278.423z"/>
	<path fill="#FFFFFF" d="M36.938,274.104c2.133,1.015,2.834,3.422,1.762,5.681c-1.072,2.258-3.445,3.205-5.64,2.164
		c-2.195-1.043-2.927-3.39-1.824-5.709c1.071-2.259,3.381-3.238,5.639-2.166L36.938,274.104z"/>
	<path fill="#FFFFFF" d="M27.366,269.071c2.052,1.171,2.571,3.625,1.333,5.796c-1.237,2.172-3.674,2.94-5.785,1.737
		c-2.111-1.205-2.665-3.6-1.394-5.83c1.238-2.172,3.614-2.977,5.786-1.735L27.366,269.071z"/>
	<path fill="#FFFFFF" d="M18.146,263.308c1.957,1.318,2.291,3.808,0.895,5.879c-1.396,2.072-3.885,2.656-5.9,1.299
		c-2.015-1.356-2.387-3.786-0.952-5.916c1.397-2.071,3.827-2.696,5.9-1.301L18.146,263.308z"/>
	<path fill="#FFFFFF" d="M9.403,256.894c1.854,1.461,2.002,3.965,0.454,5.928c-1.547,1.966-4.071,2.361-5.979,0.855
		c-1.909-1.504-2.1-3.953-0.51-5.971c1.548-1.965,4.017-2.404,5.98-0.855L9.403,256.894z"/>
	<path fill="#FFFFFF" d="M1.176,249.853c1.741,1.597,1.702,4.103,0.014,5.943c-1.689,1.846-4.236,2.055-6.028,0.412
		c-1.791-1.643-1.8-4.102-0.065-5.994c1.689-1.844,4.185-2.098,6.028-0.408L1.176,249.853z"/>
	<path fill="#FFFFFF" d="M-6.501,242.228c1.617,1.722,1.394,4.219-0.427,5.931c-1.821,1.715-4.376,1.731-6.04-0.037
		c-1.666-1.771-1.493-4.222,0.379-5.979c1.821-1.713,4.328-1.783,6.04,0.037L-6.501,242.228z"/>
	<path fill="#FFFFFF" d="M-13.632,234.003c1.485,1.838,1.076,4.313-0.868,5.885c-1.943,1.57-4.492,1.4-6.021-0.488
		c-1.529-1.887-1.173-4.319,0.824-5.938c1.943-1.57,4.449-1.457,6.021,0.488L-13.632,234.003z"/>
	<path fill="#FFFFFF" d="M-20.075,225.351c1.345,1.941,0.753,4.379-1.301,5.803c-2.055,1.425-4.584,1.066-5.969-0.93
		c-1.385-1.998-0.85-4.397,1.262-5.861c2.054-1.424,4.544-1.12,5.968,0.935L-20.075,225.351z"/>
	<path fill="#FFFFFF" d="M-25.9,216.173c1.196,2.035,0.423,4.424-1.731,5.688c-2.155,1.27-4.651,0.721-5.883-1.375
		c-1.231-2.096-0.519-4.445,1.696-5.748c2.155-1.266,4.616-0.777,5.882,1.377L-25.9,216.173z"/>
	<path fill="#FFFFFF" d="M-31.017,206.601c1.04,2.121,0.091,4.441-2.152,5.545c-2.244,1.101-4.692,0.367-5.763-1.813
		c-1.07-2.183-0.184-4.474,2.122-5.604c2.244-1.103,4.661-0.433,5.763,1.813L-31.017,206.601z"/>
	<path fill="#FFFFFF" d="M-35.399,196.666c0.877,2.19-0.244,4.437-2.563,5.364c-2.321,0.929-4.707,0.015-5.61-2.239
		c-0.904-2.256,0.152-4.478,2.538-5.433c2.32-0.928,4.68-0.077,5.61,2.242L-35.399,196.666z"/>
	<path fill="#FFFFFF" d="M-39.01,186.464c0.71,2.252-0.576,4.406-2.959,5.158c-2.385,0.754-4.694-0.338-5.427-2.654
		c-0.731-2.318,0.489-4.451,2.938-5.225c2.384-0.754,4.674,0.271,5.426,2.654L-39.01,186.464z"/>
	<path fill="#FFFFFF" d="M-41.842,176.038c0.541,2.3-0.903,4.352-3.337,4.922c-2.434,0.571-4.655-0.688-5.211-3.057
		c-0.556-2.364,0.82-4.398,3.322-4.986c2.433-0.573,4.64,0.621,5.211,3.055L-41.842,176.038z"/>
	<path fill="#FFFFFF" d="M-43.89,165.379c0.366,2.332-1.229,4.271-3.698,4.656c-2.47,0.389-4.592-1.035-4.968-3.438
		c-0.376-2.399,1.149-4.328,3.688-4.726c2.469-0.388,4.579,0.968,4.967,3.438L-43.89,165.379z"/>
	<path fill="#FFFFFF" d="M-45.139,154.569c0.19,2.353-1.544,4.164-4.036,4.365c-2.492,0.203-4.5-1.375-4.696-3.8
		c-0.196-2.423,1.469-4.229,4.031-4.437c2.491-0.201,4.494,1.309,4.695,3.799L-45.139,154.569z"/>
	<path fill="#FFFFFF" d="M-45.584,143.765c0.038,2.358-1.809,4.058-4.309,4.098c-2.5,0.039-4.401-1.665-4.441-4.096
		c-0.039-2.431,1.739-4.125,4.308-4.167c2.499-0.041,4.4,1.596,4.441,4.094L-45.584,143.765z"/>
	<path fill="#FFFFFF" d="M-45.227,132.936c-0.156,2.355-2.138,3.896-4.631,3.729c-2.495-0.166-4.25-2.021-4.088-4.447
		c0.162-2.425,2.073-3.968,4.637-3.798c2.495,0.167,4.255,1.953,4.088,4.448L-45.227,132.936z"/>
	<path fill="#FFFFFF" d="M-44.069,122.146c-0.332,2.338-2.423,3.724-4.898,3.373c-2.475-0.352-4.087-2.334-3.745-4.74
		c0.341-2.406,2.363-3.803,4.907-3.44c2.475,0.353,4.096,2.265,3.745,4.739L-44.069,122.146z"/>
	<path fill="#FFFFFF" d="M-42.115,111.499c-0.505,2.307-2.694,3.532-5.136,2.996c-2.441-0.536-3.901-2.633-3.38-5.007
		c0.521-2.374,2.641-3.614,5.151-3.065c2.442,0.537,3.915,2.565,3.38,5.008L-42.115,111.499z"/>
	<path fill="#FFFFFF" d="M-39.351,100.979c-0.678,2.262-2.953,3.318-5.347,2.601c-2.395-0.718-3.691-2.92-2.993-5.248
		c0.698-2.327,2.906-3.404,5.368-2.666c2.394,0.718,3.711,2.854,2.993,5.247L-39.351,100.979z"/>
	<path fill="#FFFFFF" d="M-35.817,90.733c-0.847,2.204-3.194,3.088-5.528,2.189c-2.333-0.896-3.46-3.188-2.589-5.458
		c0.872-2.269,3.154-3.177,5.552-2.256c2.334,0.897,3.486,3.124,2.59,5.459L-35.817,90.733z"/>
	<path fill="#FFFFFF" d="M-31.531,80.802c-1.009,2.136-3.417,2.841-5.676,1.771c-2.26-1.069-3.212-3.439-2.174-5.637
		c1.038-2.198,3.383-2.933,5.706-1.833c2.26,1.067,3.243,3.377,2.173,5.637L-31.531,80.802z"/>
	<path fill="#FFFFFF" d="M-26.489,71.177c-1.166,2.054-3.62,2.574-5.792,1.341c-2.174-1.235-2.946-3.671-1.745-5.785
		c1.201-2.112,3.594-2.669,5.828-1.398c2.173,1.235,2.979,3.611,1.745,5.784L-26.489,71.177z"/>
	<path fill="#FFFFFF" d="M-20.764,61.992c-1.317,1.961-3.802,2.299-5.878,0.904c-2.074-1.396-2.663-3.881-1.308-5.897
		c1.355-2.018,3.783-2.394,5.916-0.962c2.075,1.396,2.702,3.823,1.308,5.897L-20.764,61.992z"/>
	<path fill="#FFFFFF" d="M-14.358,53.241c-1.459,1.856-3.963,2.009-5.928,0.463c-1.965-1.544-2.366-4.066-0.865-5.979
		c1.502-1.911,3.952-2.105,5.971-0.519c1.966,1.544,2.41,4.014,0.865,5.979L-14.358,53.241z"/>
	<path fill="#FFFFFF" d="M-7.331,45.002c-1.592,1.744-4.1,1.708-5.946,0.022c-1.845-1.687-2.059-4.232-0.419-6.027
		c1.64-1.794,4.096-1.806,5.993-0.073c1.845,1.687,2.105,4.182,0.419,6.026L-7.331,45.002z"/>
	<path fill="#FFFFFF" d="M0.284,37.313c-1.718,1.621-4.216,1.399-5.932-0.418c-1.715-1.818-1.74-4.373,0.029-6.042
		c1.768-1.667,4.218-1.498,5.981,0.371c1.716,1.816,1.79,4.325-0.028,6.041L0.284,37.313z"/>
	<path fill="#FFFFFF" d="M8.493,30.171c-1.833,1.488-4.309,1.082-5.884-0.858c-1.575-1.942-1.409-4.491,0.479-6.022
		c1.887-1.531,4.318-1.18,5.937,0.815c1.575,1.94,1.463,4.446-0.479,6.021L8.493,30.171z"/>
	<path fill="#FFFFFF" d="M17.18,23.686c-1.938,1.348-4.377,0.759-5.803-1.293c-1.427-2.054-1.072-4.583,0.925-5.972
		c1.995-1.387,4.395-0.854,5.86,1.255c1.426,2.054,1.128,4.543-0.925,5.971L17.18,23.686z"/>
	<path fill="#FFFFFF" d="M26.303,17.876c-2.034,1.199-4.422,0.431-5.691-1.722c-1.27-2.153-0.727-4.65,1.367-5.885
		c2.093-1.234,4.446-0.525,5.751,1.688c1.27,2.152,0.786,4.614-1.366,5.884L26.303,17.876z"/>
	<path fill="#FFFFFF" d="M35.87,12.747c-2.118,1.044-4.441,0.1-5.547-2.145c-1.104-2.242-0.376-4.691,1.805-5.766
		c2.18-1.075,4.474-0.19,5.608,2.113c1.104,2.242,0.438,4.661-1.804,5.766L35.87,12.747z"/>
	<path fill="#FFFFFF" d="M45.797,8.35c-2.189,0.881-4.436-0.236-5.368-2.556c-0.934-2.318-0.023-4.707,2.231-5.613
		c2.254-0.907,4.476,0.146,5.434,2.528c0.933,2.319,0.087,4.682-2.232,5.614L45.797,8.35z"/>
	<path fill="#FFFFFF" d="M55.99,4.723c-2.25,0.715-4.406-0.568-5.162-2.951c-0.757-2.382,0.332-4.694,2.647-5.431
		c2.316-0.735,4.451,0.48,5.229,2.931c0.756,2.382-0.265,4.673-2.647,5.43L55.99,4.723z"/>
	<path fill="#FFFFFF" d="M66.461,1.864c-2.297,0.542-4.35-0.899-4.925-3.332c-0.575-2.433,0.684-4.656,3.049-5.215
		c2.365-0.56,4.402,0.813,4.993,3.314c0.574,2.434-0.616,4.642-3.049,5.216L66.461,1.864z"/>
	<path fill="#FFFFFF" d="M77.063-0.19C74.73,0.18,72.792-1.413,72.4-3.88c-0.39-2.469,1.031-4.593,3.431-4.973
		c2.401-0.38,4.329,1.143,4.731,3.68C80.953-2.704,79.6-0.592,77.131-0.2L77.063-0.19z"/>
	<path fill="#FFFFFF" d="M87.866-1.456c-2.353,0.194-4.167-1.537-4.372-4.028c-0.206-2.491,1.37-4.502,3.792-4.702
		c2.423-0.2,4.231,1.463,4.442,4.022c0.205,2.491-1.302,4.497-3.792,4.702L87.866-1.456z"/>
	<path fill="#FFFFFF" d="M98.667-1.916c-2.36,0.038-4.058-1.809-4.098-4.309c-0.041-2.5,1.664-4.401,4.095-4.441
		c2.432-0.039,4.126,1.738,4.167,4.309c0.041,2.499-1.595,4.399-4.095,4.44L98.667-1.916z"/>
</g>
<circle fill="none" stroke="#FFFFFF" stroke-width="3.1562" cx="99.238" cy="143.167" r="146.157"/>
<g>
	<path fill="#FFFFFF" d="M178.157,27.323l0.807,0.499l-2.696,5.241l-0.984-0.609c0.389-1.824,0.33-3.35-0.178-4.577
		c-0.506-1.228-1.318-2.188-2.439-2.883c-0.859-0.532-1.76-0.824-2.701-0.876c-0.939-0.052-1.863,0.205-2.764,0.771
		c-0.904,0.565-1.789,1.552-2.658,2.96c-0.979,1.581-1.541,2.859-1.688,3.835c-0.146,0.975,0.002,1.859,0.447,2.652
		c0.443,0.792,1.107,1.46,1.986,2.005c1.156,0.717,2.215,1.031,3.172,0.945s1.688-0.534,2.188-1.346l0.707-1.143
		c0.129-0.208,0.15-0.409,0.068-0.604c-0.084-0.195-0.266-0.38-0.543-0.553l-1.754-1.084l0.488-0.789l8.088,5.002l-0.488,0.789
		l-1.014-0.627c-0.361-0.224-0.654-0.33-0.887-0.32c-0.228,0.01-0.402,0.114-0.523,0.312l-2.848,4.603l-0.889-0.548l-0.111-2.97
		c-1.086,0.343-2.152,0.424-3.199,0.242c-1.049-0.181-2.141-0.622-3.275-1.324c-1.51-0.935-2.721-2.057-3.627-3.364
		c-0.904-1.309-1.406-2.643-1.502-4.001c-0.098-1.359,0.266-2.698,1.078-4.016c1.203-1.943,2.984-3.043,5.352-3.301
		c2.367-0.258,4.705,0.328,7.017,1.757c0.858,0.531,1.563,1.099,2.116,1.702c0.554,0.604,1.06,1.377,1.517,2.318L178.157,27.323z"/>
	<path fill="#FFFFFF" d="M186.971,34.051l7.537,6.935c1.225,1.126,2.111,2.163,2.666,3.109c0.555,0.946,0.83,1.798,0.836,2.553
		c0.002,0.755-0.227,1.382-0.688,1.881c-0.73,0.796-1.801,1.004-3.203,0.624c-1.07-0.289-2.408-1.069-4.016-2.34
		c0.672,0.789,1.117,1.472,1.34,2.049c0.223,0.578,0.307,1.209,0.254,1.896c-0.078,0.902-0.33,1.842-0.748,2.816
		c-0.275,0.623-0.408,1.051-0.395,1.287c0.016,0.234,0.1,0.426,0.258,0.569c0.434,0.398,1.09,0.204,1.973-0.583l0.854,0.785
		c-0.908,0.856-1.783,1.265-2.623,1.225c-0.841-0.041-1.693-0.46-2.562-1.258c-0.619-0.569-1.027-1.122-1.228-1.657
		c-0.199-0.535-0.229-1.076-0.086-1.622c0.075-0.317,0.363-0.962,0.873-1.931c0.594-1.131,0.938-1.941,1.035-2.431
		c0.096-0.49,0.061-0.952-0.107-1.384c-0.166-0.434-0.475-0.857-0.924-1.27l-1.063-0.98l-3.679,3.999
		c-0.162,0.177-0.219,0.374-0.168,0.594c0.084,0.303,0.256,0.573,0.519,0.813l1.313,1.207l-0.621,0.674l-7.314-6.729l0.621-0.674
		l1.133,1.042c0.294,0.271,0.566,0.416,0.822,0.439c0.256,0.021,0.479-0.068,0.666-0.273l7.525-8.18
		c0.205-0.224,0.289-0.452,0.248-0.685c-0.039-0.23-0.188-0.463-0.439-0.695l-1.229-1.132L186.971,34.051z M187.561,43.668
		l1.224,1.124c1.082,0.996,2.127,1.572,3.137,1.732c0.763,0.113,1.49-0.208,2.187-0.962c0.641-0.696,0.875-1.417,0.707-2.164
		c-0.166-0.747-0.82-1.646-1.963-2.694c-0.611-0.563-1.041-0.867-1.291-0.91c-0.25-0.044-0.533,0.109-0.854,0.456L187.561,43.668z"
		/>
	<path fill="#FFFFFF" d="M205.35,51.786l10.297,13.66l-3.873,3.409l-0.707-0.938c0.804-0.95,1.295-1.75,1.476-2.399
		c0.179-0.65,0.174-1.323-0.019-2.017c-0.19-0.693-0.61-1.473-1.262-2.336l-1.615-2.143c-0.25-0.332-0.479-0.535-0.69-0.61
		c-0.209-0.075-0.399-0.048-0.574,0.084l-4.063,3.063l0.549,0.729c0.633,0.839,1.305,1.354,2.014,1.544
		c0.709,0.188,1.496,0.024,2.361-0.494l0.719,0.953l-5.475,4.125l-0.719-0.953c0.856-0.743,1.293-1.488,1.313-2.233
		c0.02-0.743-0.324-1.585-1.031-2.522l-0.453-0.603l-4.354,3.277c-0.191,0.145-0.27,0.32-0.238,0.529
		c0.057,0.313,0.24,0.684,0.563,1.105l1.422,1.887c0.976,1.292,2.078,2.114,3.313,2.467c1.238,0.354,2.557,0.157,3.955-0.587
		l0.717,0.953l-4.645,3.14L193.6,60.642l0.738-0.559l1.063,1.409c0.24,0.317,0.482,0.514,0.729,0.588
		c0.248,0.074,0.476,0.032,0.683-0.122l9.043-6.815c0.19-0.145,0.27-0.332,0.233-0.566c-0.034-0.232-0.217-0.565-0.541-0.997
		l-0.937-1.24L205.35,51.786z"/>
	<path fill="#FFFFFF" d="M224.609,80.516l-8.438,12.546c-0.233,0.356-0.354,0.677-0.36,0.958c-0.006,0.28,0.082,0.602,0.268,0.965
		l0.324,0.638l-0.82,0.418l-4.172-8.203l0.82-0.418l0.393,0.77c0.309,0.605,0.57,0.999,0.789,1.177
		c0.215,0.177,0.406,0.224,0.572,0.14c0.129-0.066,0.258-0.189,0.381-0.373l1.744-2.588L212.781,80l-1.424-0.057
		c-0.596-0.026-1.006,0.019-1.229,0.133c-0.387,0.195-0.603,0.543-0.647,1.045c-0.047,0.499,0.098,1.077,0.43,1.733l0.283,0.556
		l-0.822,0.418l-3.375-6.642l0.82-0.418l0.192,0.38c0.218,0.427,0.509,0.751,0.873,0.974c0.519,0.313,1.063,0.484,1.638,0.513
		l14.414,0.555L224.609,80.516z M220.32,80.296l-6.42-0.255l2.834,5.574L220.32,80.296z"/>
	<path fill="#FFFFFF" d="M230.458,94.201l5.021,16.406l-5.218,2.045l-0.354-1.15c1.063-0.622,1.85-1.245,2.358-1.874
		c0.51-0.628,0.814-1.26,0.916-1.896c0.103-0.639,0.051-1.286-0.152-1.946c-0.116-0.381-0.26-0.642-0.432-0.784
		c-0.174-0.142-0.369-0.179-0.592-0.108l-10.896,3.333c-0.209,0.063-0.354,0.203-0.434,0.418s-0.084,0.443-0.01,0.689l0.652,2.135
		l-0.887,0.271l-3.072-10.044l0.889-0.271l0.621,2.033c0.094,0.307,0.232,0.526,0.416,0.665c0.188,0.138,0.387,0.174,0.604,0.107
		l10.84-3.316c0.252-0.077,0.412-0.226,0.478-0.442c0.065-0.222,0.039-0.523-0.08-0.913c-0.66-2.157-2.592-3.162-5.795-3.015
		l-0.342-1.118L230.458,94.201z"/>
	<path fill="#FFFFFF" d="M237.898,138.996l1.394,1.151l0.058,0.953l-5.07,0.425l-0.074-1.2c1.418-0.707,2.455-1.652,3.109-2.836
		c0.653-1.185,0.938-2.466,0.854-3.844c-0.071-1.174-0.369-2.116-0.894-2.824c-0.524-0.709-1.118-1.043-1.782-1.003
		c-0.397,0.024-0.75,0.191-1.063,0.504c-0.313,0.312-0.564,0.799-0.761,1.463c-0.194,0.663-0.371,1.813-0.521,3.453
		c-0.187,1.915-0.373,3.244-0.566,3.983c-0.314,1.174-0.77,2.066-1.367,2.681c-0.598,0.613-1.352,0.948-2.258,1.004
		c-1.355,0.082-2.479-0.474-3.361-1.67c-1.063-1.441-1.664-3.271-1.801-5.486c-0.125-2.039,0.293-3.935,1.256-5.686l-1.543-1.461
		l-0.061-0.986l5.441-0.332l0.067,1.167c-3.019,1.344-4.422,3.786-4.205,7.324c0.088,1.448,0.405,2.558,0.953,3.33
		c0.549,0.771,1.194,1.137,1.94,1.092c0.521-0.032,0.949-0.235,1.279-0.61c0.334-0.374,0.587-0.938,0.76-1.692
		c0.094-0.414,0.219-1.433,0.381-3.055c0.226-2.185,0.498-3.748,0.822-4.692c0.322-0.944,0.748-1.649,1.273-2.114
		c0.523-0.467,1.185-0.724,1.979-0.771c1.334-0.081,2.459,0.449,3.375,1.596c0.915,1.145,1.437,2.724,1.559,4.736
		C239.189,135.527,238.797,137.327,237.898,138.996z"/>
	<path fill="#FFFFFF" d="M239.23,148.317l-1.754,17.016l-5.151-0.146l0.118-1.168c1.236-0.149,2.142-0.399,2.714-0.754
		c0.571-0.354,1.022-0.852,1.354-1.486c0.334-0.637,0.555-1.49,0.664-2.563l0.275-2.665c0.043-0.412,0.012-0.717-0.092-0.914
		c-0.104-0.195-0.264-0.309-0.48-0.33l-5.076-0.521l-0.096,0.909c-0.105,1.049,0.033,1.885,0.424,2.508s1.076,1.04,2.063,1.247
		l-0.12,1.184l-6.806-0.698l0.121-1.186c1.137,0.037,1.963-0.212,2.484-0.746s0.842-1.385,0.963-2.557l0.078-0.754l-5.412-0.559
		c-0.234-0.023-0.414,0.051-0.531,0.225c-0.174,0.269-0.287,0.664-0.344,1.191l-0.24,2.348c-0.168,1.607,0.084,2.965,0.752,4.063
		c0.666,1.101,1.764,1.854,3.297,2.261l-0.123,1.185l-5.541-0.871l1.828-17.722l0.92,0.095l-0.182,1.76
		c-0.041,0.396,0.002,0.706,0.135,0.931c0.129,0.224,0.324,0.346,0.582,0.373l11.256,1.16c0.236,0.024,0.422-0.06,0.556-0.255
		c0.135-0.196,0.229-0.563,0.282-1.103l0.162-1.547L239.23,148.317z"/>
	<path fill="#FFFFFF" d="M233.736,182.59l-14.707,3.423c-0.413,0.104-0.721,0.254-0.916,0.453c-0.196,0.201-0.352,0.497-0.463,0.889
		l-0.198,0.688l-0.888-0.255l2.541-8.844l0.89,0.255l-0.236,0.827c-0.188,0.654-0.266,1.119-0.227,1.396
		c0.036,0.277,0.146,0.442,0.321,0.493c0.144,0.041,0.318,0.037,0.533-0.012l3.035-0.703l2.029-7.059l-1.004-1.017
		c-0.414-0.424-0.744-0.67-0.986-0.74c-0.414-0.118-0.811-0.01-1.186,0.325c-0.375,0.333-0.664,0.854-0.867,1.563l-0.174,0.601
		l-0.887-0.255l2.059-7.167l0.889,0.255l-0.117,0.409c-0.133,0.462-0.141,0.897-0.023,1.311c0.164,0.582,0.445,1.079,0.845,1.488
		l10.151,10.243L233.736,182.59z M230.752,179.504l-4.514-4.563l-1.729,6.012L230.752,179.504z"/>
	<path fill="#FFFFFF" d="M227.984,195.931l0.841,0.406l-4.408,9.059l-0.838-0.408l0.741-1.528c0.216-0.438,0.302-0.774,0.263-1.013
		c-0.041-0.233-0.201-0.422-0.479-0.557l-9.83-4.785c-0.4-0.194-0.693-0.235-0.89-0.121c-0.19,0.111-0.438,0.479-0.739,1.101
		l-1.232,2.537c-0.461,0.944-0.555,1.991-0.275,3.142c0.275,1.146,1.047,2.297,2.313,3.454l-0.521,1.068l-4.881-2.884l7.543-15.502
		l0.84,0.406l-0.754,1.547c-0.164,0.342-0.225,0.631-0.18,0.869c0.047,0.238,0.188,0.414,0.428,0.529l10.106,4.92
		c0.243,0.119,0.468,0.115,0.661-0.008c0.197-0.127,0.402-0.408,0.615-0.844L227.984,195.931z"/>
	<path fill="#FFFFFF" d="M206.016,233.853c-1.199,1.404-2.561,2.482-4.08,3.234c-1.522,0.752-3.008,1.084-4.451,0.994
		c-1.446-0.088-2.721-0.604-3.825-1.547c-1.681-1.434-2.457-3.357-2.326-5.775c0.127-2.418,1.115-4.711,2.963-6.873
		c1.228-1.438,2.58-2.512,4.063-3.217c1.48-0.705,2.937-1.02,4.361-0.938c1.43,0.078,2.715,0.605,3.859,1.584
		c1.697,1.451,2.482,3.369,2.355,5.759C208.809,229.46,207.834,231.722,206.016,233.853z M205.243,233.294
		c0.682-0.801,1.108-1.637,1.28-2.508c0.174-0.873,0.039-1.797-0.401-2.771c-0.438-0.977-1.302-2.01-2.582-3.104
		c-1.349-1.15-2.506-1.861-3.472-2.133c-0.969-0.273-1.879-0.244-2.735,0.084c-0.854,0.328-1.629,0.9-2.326,1.717
		c-1.026,1.203-1.463,2.498-1.303,3.879s1.198,2.891,3.114,4.523c1.345,1.146,2.482,1.854,3.423,2.117
		c0.938,0.266,1.834,0.231,2.687-0.101C203.779,234.669,204.551,234.103,205.243,233.294z"/>
	<path fill="#FFFFFF" d="M194.411,245.791l-13.414,10.972l-3.361-3.81l0.904-0.738c1.153,1.074,2.217,1.601,3.19,1.58
		c0.976-0.022,2.078-0.539,3.313-1.551l2.256-1.845c0.328-0.271,0.527-0.518,0.596-0.741c0.066-0.228,0.021-0.437-0.133-0.625
		l-3.117-3.814l-0.822,0.673c-1.631,1.336-1.979,2.836-1.038,4.5l-0.904,0.737l-4.303-5.26l0.903-0.738
		c0.492,0.543,0.979,0.89,1.463,1.035c0.486,0.147,0.998,0.155,1.537,0.026c0.537-0.131,1.06-0.401,1.563-0.817l1.035-0.847
		l-3.388-4.145c-0.18-0.219-0.393-0.314-0.633-0.289c-0.35,0.037-0.678,0.182-0.983,0.434l-1.443,1.181l-0.592-0.724l8.056-6.588
		l0.592,0.724l-1.349,1.104c-0.313,0.256-0.508,0.521-0.575,0.783c-0.066,0.266-0.023,0.494,0.131,0.684l7.106,8.691
		c0.181,0.221,0.392,0.307,0.631,0.258c0.238-0.053,0.619-0.289,1.14-0.717l1.049-0.857L194.411,245.791z"/>
	<path fill="#FFFFFF" d="M167.029,265.569l-15.483,7.367l-2.795-4.856l1.086-0.519c0.771,0.959,1.504,1.646,2.199,2.06
		c0.696,0.412,1.368,0.623,2.014,0.629c0.646,0.004,1.281-0.142,1.906-0.438c0.358-0.17,0.599-0.354,0.713-0.543
		c0.115-0.189,0.123-0.394,0.021-0.603l-4.893-10.285c-0.094-0.196-0.254-0.319-0.477-0.366c-0.223-0.05-0.449-0.019-0.682,0.092
		l-2.009,0.957l-0.397-0.84l9.453-4.498l0.397,0.84l-1.912,0.91c-0.287,0.135-0.483,0.307-0.594,0.508
		c-0.108,0.203-0.115,0.406-0.019,0.608l4.867,10.229c0.111,0.24,0.283,0.376,0.51,0.408c0.228,0.033,0.521-0.039,0.892-0.213
		c2.032-0.969,2.741-3.024,2.125-6.174l1.053-0.502L167.029,265.569z"/>
	<path fill="#FFFFFF" d="M145.307,275.392l-8.795,2.326l-0.234-0.887l1.296-0.342c0.368-0.1,0.625-0.232,0.771-0.4
		c0.148-0.172,0.195-0.357,0.141-0.563l-1.235-4.668l-7.231,1.914l1.17,4.429c0.092,0.342,0.252,0.553,0.479,0.639
		c0.229,0.082,0.569,0.063,1.024-0.057l1.105-0.294l0.234,0.888l-8.795,2.33l-0.233-0.888l1.175-0.313
		c0.452-0.118,0.758-0.269,0.908-0.444c0.154-0.179,0.195-0.402,0.124-0.672l-2.847-10.75c-0.084-0.313-0.24-0.521-0.471-0.611
		c-0.229-0.094-0.521-0.094-0.869-0.002l-1.316,0.35l-0.234-0.889l8.795-2.328l0.233,0.887l-1.337,0.355
		c-0.368,0.098-0.617,0.229-0.742,0.393c-0.127,0.162-0.152,0.393-0.076,0.678l1.356,5.119l7.233-1.914l-1.356-5.119
		c-0.072-0.274-0.204-0.457-0.392-0.545c-0.187-0.088-0.412-0.096-0.68-0.025l-1.525,0.402l-0.233-0.889l8.795-2.328l0.233,0.889
		l-1.411,0.375c-0.326,0.086-0.546,0.211-0.663,0.375c-0.117,0.166-0.139,0.389-0.063,0.672l2.842,10.73
		c0.088,0.334,0.25,0.543,0.481,0.629c0.233,0.086,0.569,0.07,1.005-0.045l1.106-0.293L145.307,275.392z"/>
	<path fill="#FFFFFF" d="M118.789,281.681l-17.063,1.203l-0.74-5.102l1.166-0.082c0.361,1.188,0.764,2.037,1.214,2.541
		c0.448,0.504,1.015,0.863,1.7,1.082c0.688,0.217,1.568,0.287,2.646,0.213l2.68-0.188c0.416-0.029,0.711-0.111,0.889-0.248
		c0.179-0.137,0.259-0.313,0.242-0.529l-0.357-5.092l-0.916,0.063c-1.053,0.074-1.852,0.354-2.398,0.848
		c-0.545,0.488-0.838,1.236-0.875,2.24l-1.184,0.084l-0.48-6.82l1.185-0.084c0.16,1.127,0.546,1.9,1.163,2.324
		c0.615,0.422,1.512,0.594,2.688,0.512l0.756-0.055l-0.381-5.439c-0.02-0.237-0.125-0.399-0.314-0.485
		c-0.295-0.127-0.705-0.17-1.235-0.133l-2.36,0.166c-1.617,0.114-2.912,0.594-3.881,1.44c-0.974,0.848-1.525,2.062-1.664,3.644
		l-1.184,0.082l-0.099-5.609l17.771-1.254l0.066,0.92l-1.76,0.123c-0.396,0.029-0.694,0.129-0.891,0.295
		c-0.197,0.166-0.285,0.377-0.268,0.638l0.796,11.299c0.019,0.238,0.134,0.408,0.35,0.508c0.216,0.096,0.593,0.127,1.128,0.088
		l1.547-0.107L118.789,281.681z"/>
	<path fill="#FFFFFF" d="M72.023,278.899l-1.438,1.095l-0.937-0.158l0.729-5.032l1.184,0.198c0.369,1.541,1.057,2.767,2.063,3.672
		c1.007,0.906,2.191,1.476,3.555,1.703c1.161,0.197,2.147,0.119,2.956-0.229c0.81-0.352,1.271-0.856,1.381-1.518
		c0.066-0.393-0.017-0.773-0.25-1.148s-0.65-0.731-1.253-1.073c-0.602-0.339-1.685-0.769-3.247-1.287
		c-1.826-0.613-3.077-1.099-3.755-1.453c-1.072-0.571-1.84-1.217-2.303-1.938c-0.464-0.722-0.62-1.527-0.468-2.426
		c0.226-1.341,1.021-2.308,2.387-2.897c1.646-0.714,3.565-0.884,5.757-0.515c2.016,0.34,3.77,1.176,5.259,2.512l1.772-1.176
		l0.97,0.164l-0.905,5.377l-1.15-0.193c-0.628-3.25-2.69-5.17-6.19-5.76c-1.43-0.242-2.585-0.185-3.462,0.178
		c-0.877,0.359-1.377,0.906-1.502,1.646c-0.087,0.519,0.015,0.979,0.305,1.387c0.29,0.41,0.783,0.783,1.479,1.121
		c0.381,0.187,1.345,0.539,2.889,1.062c2.079,0.713,3.541,1.334,4.388,1.864c0.847,0.527,1.438,1.101,1.772,1.718
		c0.335,0.619,0.437,1.319,0.304,2.103c-0.222,1.319-0.994,2.297-2.317,2.93c-1.323,0.635-2.979,0.781-4.97,0.447
		C75.113,280.942,73.446,280.155,72.023,278.899z"/>
	<path fill="#FFFFFF" d="M62.261,277.933l-16.225-5.561l1.402-5.438l1.134,0.393c-0.121,1.227-0.075,2.232,0.133,3.02
		c0.21,0.781,0.543,1.402,1,1.857c0.457,0.457,1.013,0.799,1.666,1.021c0.378,0.129,0.674,0.166,0.89,0.11
		c0.217-0.06,0.362-0.194,0.438-0.416l3.698-10.795c0.072-0.207,0.044-0.406-0.082-0.599c-0.128-0.19-0.313-0.327-0.555-0.409
		l-2.112-0.724l0.299-0.873l9.929,3.402l-0.299,0.871l-2.011-0.689c-0.302-0.104-0.562-0.121-0.783-0.051
		c-0.221,0.066-0.366,0.209-0.44,0.424l-3.679,10.734c-0.087,0.254-0.06,0.471,0.079,0.648c0.139,0.182,0.4,0.338,0.784,0.473
		c2.131,0.729,4.078-0.252,5.84-2.939l1.102,0.377L62.261,277.933z"/>
	<path fill="#FFFFFF" d="M31.508,265.429l-0.084-15.102c-0.007-0.432-0.087-0.762-0.241-0.996c-0.153-0.234-0.409-0.451-0.766-0.646
		l-0.629-0.35l0.443-0.807l8.071,4.44l-0.443,0.806l-0.756-0.414c-0.597-0.328-1.034-0.506-1.314-0.529
		c-0.279-0.023-0.463,0.043-0.553,0.205c-0.07,0.127-0.105,0.303-0.104,0.521l0.013,3.114l6.439,3.543l1.211-0.752
		c0.505-0.313,0.818-0.58,0.939-0.801c0.208-0.375,0.19-0.785-0.054-1.228c-0.242-0.438-0.685-0.836-1.329-1.188l-0.547-0.304
		l0.443-0.805l6.526,3.592l-0.443,0.806l-0.373-0.205c-0.419-0.229-0.842-0.334-1.269-0.313c-0.604,0.031-1.149,0.195-1.637,0.496
		l-12.24,7.629L31.508,265.429z M35.177,263.199l5.458-3.394l-5.485-3.018L35.177,263.199z"/>
	<path fill="#FFFFFF" d="M18.99,257.444L5.609,246.735l3.155-4.649l0.937,0.75c-0.529,1.115-0.828,2.078-0.898,2.886
		c-0.069,0.809,0.035,1.504,0.309,2.088c0.275,0.584,0.682,1.092,1.222,1.522c0.311,0.248,0.577,0.381,0.798,0.401
		c0.222,0.021,0.406-0.063,0.551-0.241l7.125-8.9c0.137-0.172,0.179-0.366,0.123-0.592c-0.054-0.224-0.181-0.412-0.382-0.571
		l-1.741-1.396l0.58-0.724l8.187,6.553l-0.58,0.724l-1.657-1.326c-0.248-0.196-0.487-0.303-0.718-0.313
		c-0.23-0.01-0.416,0.074-0.557,0.252l-7.088,8.852c-0.166,0.209-0.215,0.424-0.145,0.641c0.07,0.217,0.264,0.455,0.583,0.709
		c1.764,1.412,3.932,1.15,6.501-0.784l0.904,0.727L18.99,257.444z"/>
	<path fill="#FFFFFF" d="M1.216,242.625l-11.352-12.822l3.599-3.686l0.771,0.87c-0.726,1.013-1.152,1.849-1.278,2.511
		c-0.125,0.664-0.065,1.334,0.179,2.01c0.247,0.677,0.728,1.42,1.445,2.229l1.783,2.013c0.276,0.313,0.522,0.498,0.736,0.558
		c0.216,0.059,0.405,0.016,0.569-0.132l3.819-3.381l-0.61-0.688c-0.701-0.791-1.413-1.254-2.137-1.393
		c-0.724-0.139-1.495,0.086-2.315,0.67l-0.771-0.871l5.129-4.542l0.771,0.872c-0.797,0.813-1.175,1.592-1.134,2.338
		c0.041,0.748,0.454,1.563,1.237,2.449l0.505,0.568l4.076-3.607c0.179-0.158,0.243-0.342,0.194-0.547
		c-0.079-0.309-0.294-0.662-0.648-1.063l-1.57-1.773c-1.077-1.217-2.247-1.951-3.51-2.207c-1.264-0.256-2.564,0.041-3.901,0.893
		l-0.771-0.871l4.382-3.496l11.817,13.349l-0.69,0.61l-1.17-1.321c-0.264-0.3-0.522-0.474-0.774-0.527
		c-0.251-0.057-0.475,0.005-0.669,0.175l-8.478,7.506c-0.179,0.158-0.242,0.354-0.188,0.584c0.053,0.229,0.259,0.547,0.616,0.951
		l1.03,1.164L1.216,242.625z"/>
	<path fill="#FFFFFF" d="M-25.394,206.237c-0.832-1.647-1.303-3.323-1.41-5.018c-0.106-1.697,0.16-3.193,0.8-4.492
		c0.639-1.299,1.607-2.274,2.902-2.93c1.97-0.996,4.044-0.967,6.226,0.088c2.18,1.055,3.912,2.854,5.196,5.395
		c0.854,1.691,1.319,3.355,1.397,4.996c0.079,1.64-0.194,3.103-0.818,4.39c-0.624,1.285-1.607,2.269-2.95,2.946
		c-1.993,1.007-4.066,0.988-6.219-0.057C-22.42,210.513-24.129,208.742-25.394,206.237z M-24.571,205.742
		c0.475,0.94,1.08,1.657,1.817,2.151c0.736,0.496,1.639,0.729,2.707,0.699c1.069-0.029,2.355-0.424,3.857-1.182
		c1.578-0.799,2.68-1.59,3.303-2.377c0.624-0.785,0.949-1.637,0.977-2.553c0.027-0.914-0.2-1.853-0.683-2.808
		c-0.714-1.414-1.737-2.313-3.073-2.698c-1.333-0.388-3.125-0.015-5.371,1.121c-1.574,0.795-2.663,1.573-3.27,2.334
		c-0.606,0.764-0.92,1.602-0.945,2.516C-25.276,203.862-25.049,204.794-24.571,205.742z"/>
	<path fill="#FFFFFF" d="M-31.933,190.873l-4.891-16.604l4.808-1.629l0.339,1.148c-1.44,0.646-2.34,1.42-2.701,2.322
		c-0.359,0.902-0.314,2.115,0.135,3.642l0.82,2.784c0.12,0.406,0.271,0.686,0.453,0.834c0.182,0.148,0.391,0.188,0.625,0.119
		l4.724-1.395l-0.3-1.016c-0.596-2.021-1.844-2.924-3.744-2.706l-0.33-1.118l6.51-1.917l0.33,1.118
		c-0.688,0.24-1.195,0.557-1.519,0.945c-0.322,0.388-0.528,0.854-0.616,1.4c-0.087,0.547-0.039,1.133,0.146,1.76l0.378,1.281
		l5.152-1.52c0.274-0.08,0.447-0.236,0.517-0.471c0.102-0.336,0.096-0.694-0.017-1.078l-0.526-1.784l0.888-0.261l2.939,9.978
		l-0.888,0.263l-0.492-1.67c-0.115-0.393-0.282-0.67-0.5-0.836c-0.219-0.167-0.445-0.216-0.681-0.146l-10.789,3.18
		c-0.274,0.08-0.435,0.24-0.481,0.48c-0.047,0.237,0.025,0.684,0.215,1.328l0.383,1.301L-31.933,190.873z"/>
	<path fill="#FFFFFF" d="M-39.763,159.821l-0.131-7.891l0.92-0.016l0.012,0.741c0.008,0.469,0.055,0.784,0.14,0.946
		c0.086,0.16,0.211,0.239,0.377,0.237c0.12-0.002,0.255-0.034,0.407-0.101l8.619-4.033l-7.62-3.264l-1.271,0.599
		c-0.263,0.129-0.443,0.306-0.539,0.524c-0.127,0.295-0.187,0.682-0.18,1.158l0.016,0.951l-0.92,0.016l-0.151-9.073l0.92-0.016
		l0.013,0.834c0.011,0.608,0.071,1.021,0.182,1.234c0.11,0.216,0.269,0.32,0.477,0.316c0.087-0.001,0.18-0.024,0.28-0.07
		l8.612-4.012l-7.704-3.126c-0.233-0.102-0.459-0.151-0.679-0.148c-0.404,0.009-0.713,0.156-0.928,0.447
		c-0.214,0.291-0.317,0.671-0.31,1.14l0.009,0.558l-0.92,0.016l-0.106-6.396l0.921-0.016c0.024,0.716,0.158,1.283,0.4,1.703
		c0.243,0.421,0.598,0.727,1.065,0.914l12.723,5.217l0.027,1.62l-10.231,4.789l10.385,4.446l0.027,1.621l-13.209,6.201
		c-0.276,0.127-0.467,0.297-0.574,0.502c-0.105,0.204-0.156,0.467-0.15,0.784l0.011,0.625L-39.763,159.821z"/>
	<path fill="#FFFFFF" d="M-39.573,128.112l1.729-9.617l0.904,0.163l-0.239,1.334c-0.085,0.471-0.1,0.806-0.044,1.005
		c0.055,0.198,0.154,0.313,0.298,0.337c0.165,0.029,0.364-0.015,0.602-0.135l5.92-3.089l-3.707-3.595
		c-0.303-0.301-0.602-0.476-0.896-0.527c-0.327-0.061-0.613,0.047-0.858,0.32c-0.244,0.271-0.422,0.72-0.534,1.342l-0.107,0.591
		l-0.904-0.162l1.343-7.463l0.904,0.162c-0.142,0.864-0.138,1.579,0.013,2.144c0.152,0.566,0.465,1.081,0.942,1.544l5.057,4.912
		l4.558,0.819c0.268,0.049,0.485-0.013,0.65-0.188c0.167-0.172,0.287-0.467,0.362-0.884l0.358-1.993l0.904,0.162l-1.901,10.57
		l-0.904-0.162l0.355-1.98c0.082-0.451,0.075-0.779-0.021-0.985c-0.094-0.205-0.279-0.332-0.554-0.383l-4.054-0.729l-7.641,3.987
		c-0.491,0.253-0.849,0.551-1.072,0.894c-0.224,0.343-0.385,0.792-0.486,1.35l-0.075,0.418L-39.573,128.112z"/>
	<path fill="#FFFFFF" d="M-31.519,94.044c0.65-1.73,1.564-3.209,2.739-4.436c1.176-1.228,2.459-2.043,3.849-2.452
		c1.39-0.409,2.764-0.357,4.122,0.153c2.067,0.775,3.45,2.322,4.151,4.643c0.701,2.318,0.55,4.813-0.451,7.479
		c-0.667,1.771-1.576,3.241-2.731,4.409c-1.154,1.169-2.416,1.958-3.785,2.37c-1.368,0.412-2.757,0.354-4.166-0.177
		c-2.092-0.786-3.483-2.325-4.172-4.616S-32.505,96.669-31.519,94.044z M-30.605,94.31c-0.371,0.986-0.49,1.921-0.357,2.8
		c0.134,0.88,0.574,1.703,1.318,2.471c0.746,0.769,1.907,1.447,3.483,2.04c1.657,0.623,2.986,0.896,3.987,0.824
		c1.001-0.074,1.849-0.411,2.542-1.014c0.693-0.602,1.229-1.403,1.606-2.408c0.558-1.485,0.528-2.852-0.09-4.098
		c-0.62-1.245-2.107-2.313-4.466-3.196c-1.65-0.621-2.961-0.896-3.933-0.825c-0.972,0.07-1.803,0.406-2.494,1.009
		C-29.7,92.516-30.231,93.314-30.605,94.31z"/>
	<path fill="#FFFFFF" d="M-24.9,78.697l4.252-6.66l10.806,1.614l-6.012-9.122l4.357-6.824l0.772,0.493l-0.947,1.483
		c-0.234,0.366-0.345,0.651-0.333,0.854c0.013,0.204,0.142,0.384,0.389,0.541l9.496,6.063c0.241,0.153,0.454,0.185,0.64,0.093
		c0.278-0.14,0.539-0.399,0.783-0.782l0.839-1.313l0.772,0.492l-5.375,8.416l-0.772-0.493l1.014-1.588
		c0.185-0.29,0.265-0.551,0.239-0.782s-0.147-0.417-0.366-0.557l-10.161-6.487l8.268,12.692l-0.629,0.985l-15.076-2.252l9.078,5.796
		c0.521,0.332,1.087,0.385,1.701,0.159c0.613-0.226,1.219-0.733,1.818-1.522l0.772,0.493l-3.916,6.132l-0.772-0.493
		c0.445-0.808,0.625-1.54,0.541-2.197c-0.085-0.657-0.405-1.164-0.96-1.519l-8.034-5.13c-0.341-0.219-0.618-0.284-0.83-0.2
		c-0.212,0.085-0.46,0.353-0.746,0.8l-0.836,1.309L-24.9,78.697z"/>
	<path fill="#FFFFFF" d="M-7.531,53.516l6.742-7.479l0.69,0.623l-1.221,1.354c-0.261,0.29-0.408,0.54-0.441,0.749
		c-0.033,0.209,0.035,0.391,0.201,0.542l8.458,7.622c0.197,0.179,0.399,0.235,0.608,0.173c0.269-0.08,0.555-0.287,0.859-0.625
		l1.087-1.207l0.69,0.623L3.4,63.37l-0.69-0.623l1.032-1.144c0.355-0.396,0.557-0.718,0.603-0.968
		C4.392,60.387,4.319,60.174,4.127,60l-8.362-7.537c-0.207-0.186-0.425-0.25-0.658-0.19c-0.231,0.06-0.49,0.247-0.774,0.562
		l-1.173,1.304L-7.531,53.516z"/>
	<path fill="#FFFFFF" d="M2.988,41.904l4.679-3.847l14.646,1.015l-4.357-5.301c-0.43-0.523-0.971-0.78-1.624-0.771
		c-0.652,0.008-1.356,0.292-2.111,0.854l-0.58-0.707l5.523-4.542l0.58,0.707c-0.725,0.698-1.138,1.328-1.24,1.889
		s0.077,1.12,0.536,1.679l7.292,8.869l-1.174,0.966L8.406,41.456l5.111,6.218c0.585,0.712,1.229,1.053,1.928,1.022
		c0.701-0.031,1.372-0.309,2.012-0.836l0.256-0.21l0.582,0.707l-6.083,5l-0.582-0.706l0.42-0.345c0.6-0.493,0.958-1.088,1.073-1.781
		c0.115-0.694-0.057-1.321-0.52-1.882l-6.018-7.322c-0.848-0.097-1.627,0.147-2.339,0.733l-0.678,0.557L2.988,41.904z"/>
	<path fill="#FFFFFF" d="M38.365,17.164l0.822-0.446l3.214,4.957l-1.02,0.553c-1.394-1.251-2.749-1.964-4.068-2.14
		c-1.32-0.175-2.561,0.053-3.723,0.682c-0.889,0.48-1.591,1.116-2.105,1.907c-0.515,0.792-0.75,1.721-0.708,2.786
		c0.044,1.066,0.459,2.328,1.248,3.785c0.887,1.64,1.717,2.766,2.49,3.378c0.773,0.614,1.615,0.926,2.523,0.936
		c0.908,0.009,1.816-0.231,2.725-0.725c1.196-0.646,1.994-1.405,2.395-2.278c0.402-0.871,0.375-1.728-0.079-2.565l-0.638-1.179
		c-0.116-0.215-0.28-0.336-0.49-0.361c-0.21-0.027-0.458,0.039-0.746,0.195l-1.809,0.978l-0.445-0.821l8.351-4.521l0.445,0.822
		L45.7,23.67c-0.372,0.202-0.61,0.405-0.715,0.608c-0.106,0.204-0.104,0.407,0.007,0.611l2.578,4.762l-0.904,0.489l-2.639-1.378
		c-0.242,1.11-0.703,2.076-1.38,2.896c-0.677,0.819-1.603,1.546-2.776,2.181c-1.561,0.848-3.136,1.337-4.721,1.471
		c-1.584,0.135-2.991-0.096-4.217-0.69c-1.227-0.595-2.209-1.575-2.947-2.938c-1.088-2.012-1.156-4.108-0.202-6.291
		c0.954-2.183,2.627-3.921,5.019-5.216c0.888-0.48,1.731-0.812,2.529-0.992c0.799-0.182,1.72-0.237,2.763-0.172L38.365,17.164z"/>
</g>
<circle fill="#FFFFFF" cx="99.5" cy="10.605" r="4.578"/>
<path id="path2293" fill="#A7A1AB" stroke="#000000" d="M131.027,197.49c0,0-5.309-4.313-6.635-6.302
	c-1.326-1.991-4.976-8.293-4.976-8.293l9.287-9.619c0,0,6.964,8.623,6.964,10.283C135.669,185.217,131.027,197.49,131.027,197.49z"
	/>
<path id="path2294" fill="#A7A1AB" stroke="#000000" d="M132.354,150.724c0,0-11.607-9.62-12.603-11.94
	c-0.997-2.322-1.328-10.613-1.328-10.613l5.64-1.328c0,0,2.321,1.991,5.308,3.649c2.983,1.659,7.297,1.989,7.297,1.989
	L132.354,150.724z"/>
<path id="path2295" fill="#FFFFFF" stroke="#000000" d="M140.395,67.497c0,0-0.152-3.806-0.229-5.556
	c-0.075-1.751-2.513-3.958-2.513-3.958s-2.893,2.814-3.043,3.882c-0.152,1.064-0.229,6.316-0.229,6.316L140.395,67.497z"/>
<path id="path2296" fill="#FFFFFF" stroke="#000000" d="M144.883,201.582L142.814,89.89l-11.996,0.415l-1.653,112.105
	L144.883,201.582z"/>
<path id="path2297" fill="none" stroke="#000000" d="M133.188,202.658l1.061-116.388"/>
<path id="path2298" fill="none" stroke="#000000" d="M131.068,202.658l0.211-116.388"/>
<path id="path2299" fill="none" stroke="#000000" d="M139.547,203.292l0.85-117.447"/>
<path id="path2300" fill="none" stroke="#000000" d="M136.368,203.08c-0.212-1.062,0.847-117.446,0.847-117.446"/>
<path id="path2301" fill="none" stroke="#000000" d="M143.15,203.503l0.211-117.87"/>
<path id="path2302" fill="#FFFFFF" stroke="#000000" d="M147.366,209.856v-7.032l-2.07-1.654h-14.892l-3.723,2.067l0.827,7.445
	L147.366,209.856z"/>
<path id="path2303" fill="#FFFFFF" stroke="#000000" d="M144.426,73.434l-2.205-3.501l4.412-3.883l-17.884-0.305l3.881,4.188
	l-1.75,3.425L144.426,73.434z"/>
<path id="path2304" fill="#FFFFFF" stroke="#000000" d="M142.904,84.24c-0.456-0.152-3.273-3.195-3.273-3.195
	s7.23-6.851,8.223-6.851c0.986,0,1.597,1.599,2.662,1.521c1.064-0.075,1.676-0.531,1.676-1.675c0-1.143-1.065-1.675-2.666-1.599
	c-1.596,0.076-21.768-0.38-23.44-0.304c-1.675,0.074-2.207,1.063-2.131,1.901c0.075,0.836,1.218,1.675,2.206,1.6
	c0.99-0.076,1.295-1.676,2.361-1.6c1.063,0.076,5.631,6.394,5.631,6.85c0,0.458-3.805,3.652-3.805,3.652L142.904,84.24z"/>
<path id="path2305" fill="#F9C406" stroke="#000000" d="M145.288,87.372c3.317,4.312,5.639,6.302,5.639,12.271
	c0,5.971-8.147,15.037-14.225,20.505c-6.146,5.526-16.976,9.471-16.976,14.335c0,4.724,0.938,5.326,2.105,6.838
	c-0.962-1.099-6.063-4.528-6.063-12.489c0-7.96,6.633-16.584,14.262-21.229c7.629-4.643,16.914-10.943,16.914-14.262
	C146.945,90.024,145.288,87.372,145.288,87.372z"/>
<path id="path2306" fill="#F9C406" stroke="#000000" d="M144.063,138.108c0.113,3.259,0,5.98,0.23,8.634
	c0.289,3.136-9.62,9.618-13.602,13.6c-3.979,3.979-13.93,8.291-14.592,14.265c-0.664,5.969,5.225,11.525,6.6,13.795
	c-1.514-3.161,1.919-6.829,5.854-10.021c3.467-2.812,10.946-6.954,14.743-11.069c3.765-4.086,7.961-10.613,7.961-16.916
	C151.26,144.089,147.049,139.103,144.063,138.108z"/>
<path id="path2307" fill="#FFFFFF" stroke="#000000" d="M146.979,87.095l-4.188,3.081l-12.138,0.381l-4.033-3.349l4.033-2.74h12.291
	L146.979,87.095z"/>
<path id="path1773" fill="#A7A1AB" stroke="#000000" d="M63.842,198.269c0,0,5.309-4.313,6.636-6.303
	c1.325-1.988,4.975-8.293,4.975-8.293l-9.288-9.617c0,0-6.966,8.621-6.966,10.279C59.198,185.996,63.842,198.269,63.842,198.269z"/>
<path id="path1774" fill="#A7A1AB" stroke="#000000" d="M62.517,151.499c0,0,11.608-9.618,12.603-11.938
	c0.997-2.321,1.327-10.615,1.327-10.615l-5.638-1.325c0,0-2.322,1.989-5.308,3.647c-2.984,1.657-7.297,1.99-7.297,1.99
	L62.517,151.499z"/>
<path id="path1764" fill="#FFFFFF" stroke="#000000" d="M54.477,68.274c0,0,0.151-3.807,0.228-5.558s2.514-3.958,2.514-3.958
	s2.891,2.815,3.043,3.883c0.152,1.066,0.228,6.315,0.228,6.315L54.477,68.274z"/>
<path id="path1760" fill="#FFFFFF" stroke="#000000" d="M49.986,202.36l2.067-111.692l11.998,0.413l1.654,112.105L49.986,202.36z"/>
<path id="path1765" fill="none" stroke="#000000" d="M61.683,203.435L60.622,87.046"/>
<path id="path1769" fill="none" stroke="#000000" d="M63.801,203.435L63.59,87.046"/>
<path id="path1767" fill="none" stroke="#000000" d="M55.321,204.067L54.475,86.624"/>
<path id="path1766" fill="none" stroke="#000000" d="M58.502,203.856c0.211-1.061-0.849-117.446-0.849-117.446"/>
<path id="path1768" fill="none" stroke="#000000" d="M51.719,204.283L51.505,86.41"/>
<path id="path1759" fill="#FFFFFF" stroke="#000000" d="M47.504,210.634v-7.031l2.067-1.653h14.894l3.724,2.065l-0.828,7.447
	L47.504,210.634z"/>
<path id="path1763" fill="#FFFFFF" stroke="#000000" d="M50.442,74.21l2.207-3.502l-4.414-3.882l17.886-0.304l-3.882,4.186
	l1.751,3.426L50.442,74.21z"/>
<path id="path1762" fill="#FFFFFF" stroke="#000000" d="M51.965,85.019c0.457-0.153,3.271-3.197,3.271-3.197
	s-7.229-6.851-8.219-6.851c-0.989,0-1.599,1.599-2.663,1.521c-1.066-0.076-1.675-0.532-1.675-1.675c0-1.14,1.066-1.675,2.663-1.6
	c1.599,0.078,21.769-0.38,23.441-0.304c1.675,0.076,2.209,1.066,2.133,1.902c-0.076,0.839-1.219,1.675-2.209,1.599
	c-0.988-0.075-1.292-1.674-2.358-1.599c-1.064,0.076-5.633,6.396-5.633,6.852s3.806,3.653,3.806,3.653L51.965,85.019z"/>
<path id="path1770" fill="#F9C406" stroke="#000000" d="M49.579,88.148c-3.316,4.313-5.638,6.303-5.638,12.272
	c0,5.971,8.151,15.037,14.228,20.504c6.144,5.529,16.975,9.472,16.975,14.334c0,4.728-0.938,5.328-2.105,6.842
	c0.961-1.103,6.062-4.531,6.062-12.491c0-7.961-6.633-16.585-14.263-21.228c-7.628-4.645-16.916-10.945-16.916-14.263
	C47.922,90.8,49.579,88.148,49.579,88.148z"/>
<path id="path1772" fill="#F9C406" stroke="#000000" d="M50.807,138.884c-0.115,3.26,0,5.981-0.23,8.639
	c-0.29,3.134,9.619,9.617,13.599,13.597c3.98,3.979,13.93,8.293,14.594,14.263c0.664,5.973-5.228,11.529-6.6,13.797
	c1.51-3.16-1.92-6.83-5.854-10.021c-3.467-2.811-10.946-6.951-14.744-11.071c-3.764-4.085-7.96-10.612-7.96-16.915
	C43.61,144.866,47.82,139.878,50.807,138.884z"/>
<path id="path1761" fill="#FFFFFF" stroke="#000000" d="M47.893,87.873l4.186,3.082l12.141,0.381l4.033-3.35l-4.033-2.739H51.926
	L47.893,87.873z"/>
<path id="text1791" d="M75.271,124.096l0.466,0.412l-1.524,1.721l3.245-0.197l0.661,0.586l-2.729,0.123l-0.355,3.444l-0.623-0.552
	l0.333-2.865l-1.044,0.041l-1.091,1.229l-0.467-0.413L75.271,124.096 M73.325,122.201c0.446,0.396,0.688,0.82,0.728,1.274
	c0.04,0.454-0.062,0.843-0.3,1.167l-0.467-0.413c0.15-0.273,0.204-0.549,0.162-0.822c-0.039-0.271-0.201-0.534-0.486-0.786
	c-0.348-0.309-0.738-0.434-1.17-0.379c-0.429,0.054-0.866,0.335-1.313,0.839c-0.368,0.413-0.567,0.834-0.604,1.264
	c-0.032,0.429,0.142,0.813,0.524,1.15c0.354,0.313,0.741,0.413,1.165,0.307c0.224-0.056,0.464-0.179,0.717-0.369l0.467,0.412
	c-0.37,0.336-0.785,0.526-1.241,0.569c-0.549,0.056-1.061-0.128-1.537-0.549c-0.411-0.363-0.646-0.793-0.703-1.288
	c-0.075-0.653,0.189-1.323,0.796-2.01c0.462-0.521,0.978-0.826,1.549-0.915C72.23,121.554,72.802,121.737,73.325,122.201
	 M73.229,122.115L73.229,122.115 M69.534,118.843c0.623,0.554,0.908,1.161,0.853,1.827c-0.043,0.521-0.279,1.023-0.711,1.511
	c-0.466,0.527-0.988,0.849-1.565,0.96c-0.679,0.134-1.307-0.061-1.889-0.573c-0.545-0.481-0.812-1.04-0.806-1.673
	c0.031-0.592,0.279-1.152,0.746-1.682c0.424-0.479,0.904-0.78,1.442-0.909C68.295,118.137,68.938,118.317,69.534,118.843
	 M66.657,122.189c0.422,0.374,0.859,0.493,1.313,0.356c0.458-0.136,0.86-0.397,1.208-0.791c0.368-0.415,0.555-0.847,0.561-1.293
	c0.009-0.442-0.177-0.834-0.553-1.167c-0.365-0.323-0.774-0.462-1.229-0.415c-0.452,0.047-0.894,0.314-1.327,0.803
	c-0.348,0.392-0.541,0.81-0.582,1.253C66.012,121.379,66.214,121.796,66.657,122.189 M69.549,118.858L69.549,118.858
	 M67.485,117.202l-0.374,0.421l-1.189-1.054l-2.754,3.11l-0.484-0.43l2.753-3.11l-1.189-1.055l0.372-0.422L67.485,117.202
	 M59.899,114.752c-0.167,0.209-0.264,0.415-0.29,0.612c-0.05,0.376,0.127,0.739,0.528,1.095c0.179,0.158,0.365,0.277,0.557,0.355
	c0.374,0.153,0.674,0.103,0.902-0.154c0.168-0.192,0.229-0.382,0.183-0.571c-0.052-0.187-0.181-0.425-0.387-0.715l-0.384-0.532
	c-0.249-0.347-0.4-0.619-0.456-0.818c-0.095-0.346-0.011-0.666,0.248-0.96c0.282-0.316,0.621-0.48,1.021-0.489
	c0.4-0.008,0.802,0.165,1.202,0.521c0.372,0.327,0.606,0.695,0.705,1.104c0.103,0.408-0.021,0.807-0.368,1.201l-0.45-0.398
	c0.145-0.211,0.22-0.399,0.232-0.57c0.017-0.314-0.15-0.624-0.499-0.936c-0.282-0.249-0.536-0.37-0.765-0.358
	c-0.23,0.008-0.413,0.092-0.553,0.247c-0.152,0.174-0.193,0.364-0.119,0.571c0.049,0.136,0.205,0.39,0.473,0.761l0.395,0.554
	c0.191,0.265,0.309,0.503,0.355,0.713c0.078,0.363-0.022,0.703-0.3,1.018c-0.348,0.391-0.738,0.544-1.172,0.46
	s-0.836-0.292-1.214-0.625c-0.438-0.391-0.683-0.806-0.733-1.249c-0.052-0.443,0.094-0.853,0.438-1.23L59.899,114.752
	 M63.067,113.119L63.067,113.119 M58.471,109.221l2.575,2.278l-0.385,0.435l-2.108-1.867l-0.949,1.07l1.95,1.727l-0.361,0.409
	l-1.95-1.728l-1.059,1.198l2.144,1.898l-0.372,0.419l-2.611-2.311L58.471,109.221 M59.775,110.375L59.775,110.375 M55.405,106.506
	l-1.648,3.906l3.666-2.121l0.536,0.476l-4.416,2.392l-0.507-0.449l1.841-4.669L55.405,106.506 M53.87,105.148l0.482,0.427
	l-3.127,3.53l-0.483-0.428L53.87,105.148 M54.112,105.362L54.112,105.362 M51.041,102.644l0.479,0.423l-2.756,3.108l1.79,1.584
	l-0.372,0.423l-2.269-2.009L51.041,102.644"/>
<path id="text1794" d="M65.989,167.831l0.565,0.5l-0.75,4.439l2.533-2.859l0.454,0.402l-3.127,3.528l-0.536-0.475l0.721-4.461
	l-2.531,2.858l-0.456-0.406L65.989,167.831 M67.358,169.043L67.358,169.043 M64.732,166.717l0.482,0.429l-3.127,3.531l-0.483-0.428
	L64.732,166.717 M64.975,166.935L64.975,166.935 M61.284,167.383l0.845-2.036l-1.952,1.057L61.284,167.383 M62.342,164.605
	l0.541,0.479l-1.846,4.664l-0.523-0.464l0.579-1.375l-1.397-1.234l-1.319,0.72l-0.488-0.437L62.342,164.605 M62.589,164.821
	L62.589,164.821 M58.015,163.658c0.227,0.198,0.441,0.31,0.651,0.335c0.212,0.025,0.419-0.076,0.627-0.311
	c0.224-0.252,0.283-0.506,0.181-0.758c-0.054-0.136-0.164-0.273-0.327-0.42l-1.169-1.033l-1.068,1.207L58.015,163.658
	 M57.864,160.638l1.634,1.445c0.27,0.238,0.456,0.477,0.562,0.709c0.199,0.443,0.119,0.869-0.24,1.273
	c-0.188,0.211-0.385,0.346-0.592,0.401c-0.206,0.06-0.424,0.06-0.654,0c0.089,0.181,0.128,0.345,0.115,0.495
	c-0.01,0.154-0.103,0.337-0.275,0.553L58.012,166c-0.115,0.142-0.191,0.248-0.232,0.33c-0.069,0.139-0.084,0.255-0.039,0.354
	l-0.069,0.078l-0.586-0.521c0.01-0.043,0.033-0.096,0.065-0.15c0.033-0.058,0.107-0.156,0.222-0.3l0.493-0.615
	c0.193-0.239,0.245-0.472,0.154-0.69c-0.053-0.125-0.179-0.272-0.374-0.445l-1.089-0.964l-1.34,1.515l-0.479-0.423L57.864,160.638
	 M55.625,158.492c0.331,0.294,0.561,0.612,0.69,0.955c0.187,0.493,0.117,1.007-0.214,1.538l-0.473-0.418
	c0.171-0.313,0.216-0.604,0.14-0.883c-0.076-0.277-0.253-0.539-0.528-0.781c-0.326-0.291-0.711-0.411-1.152-0.366
	c-0.439,0.05-0.875,0.315-1.305,0.802c-0.372,0.419-0.582,0.844-0.633,1.271c-0.048,0.426,0.136,0.822,0.553,1.19
	c0.318,0.281,0.663,0.425,1.035,0.425c0.374,0,0.748-0.205,1.118-0.615l-1.105-0.979l0.352-0.396l1.551,1.373l-1.672,1.89
	l-0.309-0.271l0.285-0.559c-0.318,0.034-0.57,0.03-0.756-0.011c-0.316-0.067-0.635-0.244-0.96-0.532
	c-0.417-0.37-0.657-0.822-0.719-1.359c-0.026-0.632,0.222-1.242,0.746-1.836c0.523-0.592,1.102-0.921,1.73-0.984
	C54.6,157.881,55.142,158.063,55.625,158.492 M55.551,158.417L55.551,158.417"/>
<path id="text1797" d="M137.439,111.058c0.188,0.221,0.386,0.363,0.588,0.434c0.386,0.13,0.807,0.021,1.265-0.328
	c0.206-0.156,0.368-0.329,0.493-0.516c0.238-0.362,0.247-0.688,0.021-0.982c-0.166-0.22-0.354-0.323-0.563-0.313
	c-0.21,0.015-0.487,0.101-0.837,0.261l-0.642,0.292c-0.416,0.193-0.738,0.296-0.959,0.313c-0.385,0.026-0.705-0.128-0.959-0.463
	c-0.279-0.36-0.38-0.754-0.308-1.177c0.073-0.424,0.341-0.812,0.8-1.161c0.424-0.323,0.86-0.495,1.311-0.514
	c0.453-0.022,0.85,0.188,1.189,0.637l-0.514,0.394c-0.19-0.195-0.376-0.316-0.555-0.363c-0.326-0.083-0.688,0.026-1.088,0.33
	c-0.322,0.247-0.502,0.491-0.539,0.732c-0.037,0.243,0.012,0.454,0.148,0.635c0.15,0.198,0.344,0.278,0.578,0.246
	c0.15-0.024,0.451-0.139,0.898-0.342l0.664-0.303c0.32-0.146,0.596-0.22,0.826-0.226c0.4-0.006,0.735,0.169,1.012,0.527
	c0.338,0.445,0.42,0.891,0.242,1.329c-0.18,0.439-0.48,0.824-0.912,1.15c-0.502,0.385-0.99,0.556-1.471,0.517
	c-0.479-0.039-0.881-0.276-1.208-0.718L137.439,111.058 M136.376,107.375L136.376,107.375 M131.309,111.417l2.938-2.244l0.379,0.495
	l-2.405,1.837l0.932,1.224l2.227-1.697l0.357,0.467l-2.229,1.697l1.044,1.366l2.447-1.868l0.368,0.48l-2.982,2.274L131.309,111.417
	 M132.799,110.279L132.799,110.279 M127.229,114.53l0.646-0.49l4.528,1.711l-2.491-3.265l0.519-0.396l3.075,4.031l-0.61,0.467
	l-4.558-1.686l2.49,3.264l-0.521,0.396L127.229,114.53 M128.792,113.336L128.792,113.336 M125.792,115.625l0.554-0.419l3.075,4.031
	l-0.553,0.419L125.792,115.625 M126.068,115.414L126.068,115.414 M120.943,119.324l0.783-0.596l3.76,2.524l-1.451-4.286l0.773-0.592
	l3.076,4.031l-0.518,0.396l-1.816-2.379c-0.063-0.082-0.164-0.22-0.307-0.413c-0.143-0.192-0.296-0.397-0.462-0.615l1.446,4.276
	l-0.543,0.413l-3.752-2.517l0.094,0.123c0.076,0.099,0.191,0.249,0.353,0.448c0.158,0.196,0.272,0.343,0.347,0.438l1.814,2.38
	l-0.52,0.396L120.943,119.324"/>
<path id="text1800" d="M126.71,167.722l0.547-0.418l2.71,3.551l2.043-1.559l0.366,0.48l-2.588,1.975L126.71,167.722
	 M125.275,168.815l0.552-0.422l3.075,4.03l-0.551,0.423L125.275,168.815 M125.555,168.605L125.555,168.605 M122.438,170.808
	c0.713-0.545,1.414-0.719,2.104-0.521c0.541,0.152,1.022,0.507,1.446,1.064c0.461,0.602,0.689,1.217,0.689,1.851
	c-0.003,0.741-0.336,1.366-1,1.874c-0.619,0.473-1.264,0.64-1.932,0.502c-0.618-0.154-1.159-0.532-1.619-1.137
	c-0.415-0.547-0.637-1.115-0.661-1.709C121.434,171.965,121.758,171.324,122.438,170.808 M125.37,174.534
	c0.483-0.365,0.698-0.805,0.649-1.311c-0.047-0.512-0.242-0.992-0.584-1.438c-0.361-0.476-0.778-0.761-1.246-0.859
	c-0.469-0.101-0.918,0.015-1.348,0.343c-0.417,0.317-0.648,0.722-0.691,1.211c-0.045,0.482,0.144,1.006,0.568,1.563
	c0.342,0.446,0.742,0.738,1.202,0.873C124.382,175.047,124.865,174.922,125.37,174.534 M122.455,170.792L122.455,170.792"/>
<path id="path1634" fill="#FFFFFF" stroke="#000000" d="M76.29,177.301v42.429l4.215-1.125v-41.862L76.29,177.301z"/>
<path id="path1635" fill="#FFFFFF" stroke="#000000" d="M114.503,176.741l0.843,42.986h4.215l-0.563-42.986H114.503z"/>
<path id="path1630" fill="#FFFFFF" stroke="#000000" d="M72.357,218.886l0.281,7.307h49.729l-0.279-7.307H72.357z"/>
<path id="path1629" fill="#FFFFFF" stroke="#000000" d="M69.828,223.101v6.742l54.509,0.281l-0.28-7.023H69.828z"/>
<path id="path1651" stroke="#000000" d="M57.328,244.728c-0.471-6.237,1.885-9.414,3.767-9.414c1.883,0,67.904-0.235,71.668,0
	c3.768,0.232,4.709,3.884,4.709,5.886c0,2,0,6.706,0,6.706s-0.381-3.629-8.147-4.104c-7.769-0.469-3.033,1.631-32.571,1.396
	c-29.539-0.236-28.832-1.391-33.306-1.744C58.977,243.101,57.799,243.55,57.328,244.728z"/>
<path id="text1660" fill="#FFFFFF" d="M128.596,236.742c0.743,0,1.279,0.305,1.61,0.918c0.257,0.473,0.386,1.121,0.386,1.942
	c0,0.779-0.117,1.426-0.35,1.938c-0.338,0.73-0.889,1.098-1.651,1.098c-0.688,0-1.202-0.301-1.539-0.897
	c-0.28-0.5-0.422-1.173-0.422-2.013c0-0.651,0.085-1.213,0.253-1.682C127.199,237.179,127.77,236.742,128.596,236.742
	 M128.586,241.98c0.374,0,0.673-0.166,0.895-0.496c0.223-0.332,0.334-0.946,0.334-1.854c0-0.65-0.08-1.188-0.241-1.605
	c-0.16-0.424-0.47-0.633-0.933-0.633c-0.426,0-0.738,0.199-0.936,0.601c-0.195,0.397-0.292,0.985-0.292,1.764
	c0,0.586,0.062,1.058,0.188,1.412C127.793,241.708,128.122,241.98,128.586,241.98"/>
<path id="path1677" fill="#FFFFFF" d="M122.895,241.095c0.022,0.398,0.178,0.674,0.463,0.826c0.146,0.08,0.313,0.119,0.498,0.119
	c0.343,0,0.637-0.143,0.881-0.43c0.242-0.287,0.414-0.871,0.516-1.752c-0.16,0.256-0.357,0.434-0.596,0.539
	c-0.236,0.102-0.489,0.151-0.762,0.151c-0.554,0-0.992-0.174-1.315-0.521c-0.32-0.344-0.481-0.788-0.481-1.329
	c0-0.521,0.161-0.979,0.479-1.375c0.318-0.396,0.787-0.593,1.406-0.593c0.836,0,1.414,0.375,1.732,1.129
	c0.178,0.414,0.264,0.935,0.264,1.558c0,0.703-0.104,1.324-0.316,1.867c-0.35,0.901-0.943,1.354-1.779,1.354
	c-0.563,0-0.986-0.147-1.277-0.443c-0.293-0.293-0.438-0.659-0.438-1.104h0.728 M123.988,239.916c0.287,0,0.548-0.092,0.781-0.278
	c0.238-0.188,0.357-0.521,0.357-0.99c0-0.422-0.105-0.734-0.32-0.941c-0.211-0.209-0.479-0.313-0.81-0.313
	c-0.354,0-0.634,0.116-0.843,0.354c-0.205,0.235-0.309,0.551-0.309,0.946c0,0.373,0.09,0.673,0.272,0.896
	C123.302,239.808,123.591,239.916,123.988,239.916"/>
<path id="path1675" fill="#FFFFFF" d="M119.469,239.146c0.316,0,0.565-0.088,0.744-0.266c0.182-0.178,0.27-0.391,0.27-0.637
	c0-0.215-0.086-0.41-0.256-0.59c-0.172-0.18-0.433-0.269-0.781-0.269c-0.348,0-0.598,0.089-0.754,0.269
	c-0.154,0.18-0.232,0.391-0.232,0.631c0,0.27,0.102,0.48,0.3,0.633C118.959,239.069,119.195,239.146,119.469,239.146
	 M119.512,241.987c0.336,0,0.61-0.09,0.831-0.27c0.222-0.18,0.332-0.451,0.332-0.809c0-0.373-0.114-0.654-0.341-0.846
	c-0.229-0.193-0.518-0.291-0.873-0.291c-0.346,0-0.627,0.1-0.848,0.299c-0.215,0.193-0.324,0.465-0.324,0.813
	c0,0.298,0.1,0.558,0.296,0.775C118.787,241.88,119.096,241.987,119.512,241.987 M118.486,239.423
	c-0.201-0.086-0.357-0.188-0.471-0.301c-0.209-0.215-0.315-0.492-0.315-0.832c0-0.432,0.155-0.795,0.466-1.104
	c0.309-0.309,0.748-0.461,1.316-0.461c0.552,0,0.982,0.146,1.295,0.437c0.314,0.289,0.471,0.627,0.471,1.017
	c0,0.356-0.092,0.646-0.271,0.868c-0.102,0.125-0.261,0.248-0.474,0.369c0.238,0.108,0.425,0.233,0.562,0.377
	c0.252,0.269,0.379,0.613,0.379,1.041c0,0.506-0.168,0.937-0.506,1.287c-0.342,0.353-0.82,0.524-1.44,0.524
	c-0.56,0-1.032-0.151-1.418-0.453c-0.388-0.305-0.578-0.743-0.578-1.321c0-0.338,0.083-0.634,0.249-0.877
	C117.913,239.746,118.16,239.554,118.486,239.423"/>
<path id="path1672" fill="#FFFFFF" d="M113.452,238.417v-0.553c0.521-0.053,0.884-0.137,1.089-0.254
	c0.206-0.121,0.359-0.402,0.463-0.846h0.569v5.715h-0.771v-4.063H113.452"/>
<path id="path1671" fill="#FFFFFF" d="M79.268,240.949c0.021,0.397,0.175,0.674,0.461,0.825c0.147,0.08,0.313,0.119,0.497,0.119
	c0.345,0,0.639-0.143,0.882-0.43c0.242-0.289,0.415-0.871,0.518-1.752c-0.16,0.256-0.359,0.436-0.598,0.537
	c-0.234,0.104-0.489,0.15-0.763,0.15c-0.553,0-0.99-0.17-1.313-0.517c-0.322-0.346-0.482-0.788-0.482-1.332
	c0-0.52,0.16-0.977,0.479-1.372c0.316-0.396,0.787-0.595,1.405-0.595c0.837,0,1.414,0.377,1.732,1.131
	c0.177,0.414,0.266,0.933,0.266,1.556c0,0.701-0.107,1.324-0.316,1.867c-0.352,0.903-0.943,1.354-1.78,1.354
	c-0.563,0-0.988-0.146-1.279-0.44c-0.29-0.294-0.437-0.662-0.437-1.104L79.268,240.949 M80.361,239.771
	c0.285,0,0.547-0.094,0.783-0.278c0.235-0.191,0.355-0.521,0.355-0.99c0-0.424-0.107-0.735-0.321-0.94
	c-0.211-0.211-0.48-0.314-0.81-0.314c-0.354,0-0.633,0.119-0.842,0.357c-0.206,0.233-0.309,0.551-0.309,0.944
	c0,0.373,0.091,0.673,0.273,0.894C79.673,239.66,79.963,239.771,80.361,239.771"/>
<path id="path1669" fill="#FFFFFF" d="M76.009,236.572c0.642,0,1.087,0.165,1.338,0.502c0.255,0.329,0.382,0.672,0.382,1.024h-0.715
	c-0.041-0.229-0.11-0.404-0.203-0.535c-0.175-0.239-0.438-0.358-0.789-0.358c-0.405,0-0.726,0.188-0.964,0.562
	c-0.236,0.373-0.37,0.903-0.396,1.6c0.166-0.242,0.374-0.424,0.627-0.544c0.228-0.106,0.484-0.159,0.769-0.159
	c0.48,0,0.899,0.152,1.259,0.459c0.358,0.311,0.537,0.768,0.537,1.375c0,0.521-0.171,0.984-0.51,1.387
	c-0.339,0.4-0.822,0.604-1.451,0.604c-0.536,0-1-0.202-1.391-0.608c-0.391-0.409-0.586-1.097-0.586-2.062
	c0-0.713,0.089-1.317,0.261-1.815C74.511,237.046,75.121,236.572,76.009,236.572 M75.956,241.843c0.38,0,0.663-0.127,0.851-0.383
	c0.188-0.254,0.283-0.559,0.283-0.902c0-0.295-0.084-0.574-0.251-0.84c-0.168-0.268-0.475-0.4-0.918-0.4
	c-0.311,0-0.584,0.104-0.818,0.31c-0.231,0.205-0.349,0.517-0.349,0.933c0,0.362,0.106,0.668,0.316,0.916
	C75.283,241.72,75.579,241.843,75.956,241.843"/>
<path id="path1667" fill="#FFFFFF" d="M71.271,239.001c0.318,0,0.567-0.09,0.746-0.266c0.179-0.18,0.269-0.392,0.269-0.639
	c0-0.214-0.086-0.41-0.257-0.591c-0.172-0.178-0.431-0.269-0.782-0.269c-0.348,0-0.599,0.091-0.752,0.269
	c-0.156,0.181-0.234,0.39-0.234,0.63c0,0.271,0.101,0.481,0.302,0.635C70.761,238.925,70.997,239.001,71.271,239.001
	 M71.313,241.843c0.335,0,0.612-0.092,0.83-0.27c0.223-0.182,0.333-0.453,0.333-0.811c0-0.373-0.113-0.654-0.341-0.849
	c-0.227-0.188-0.518-0.287-0.873-0.287c-0.346,0-0.627,0.101-0.845,0.297c-0.218,0.195-0.325,0.466-0.325,0.813
	c0,0.301,0.099,0.559,0.296,0.779C70.588,241.733,70.898,241.843,71.313,241.843 M70.288,239.276
	c-0.199-0.084-0.355-0.186-0.469-0.301c-0.211-0.215-0.316-0.49-0.316-0.834c0-0.428,0.154-0.795,0.465-1.102
	c0.311-0.311,0.75-0.461,1.319-0.461c0.551,0,0.982,0.145,1.294,0.436c0.313,0.291,0.469,0.627,0.469,1.017
	c0,0.356-0.09,0.646-0.273,0.868c-0.101,0.125-0.259,0.248-0.473,0.367c0.238,0.111,0.426,0.236,0.562,0.379
	c0.255,0.269,0.382,0.613,0.382,1.041c0,0.506-0.17,0.937-0.51,1.287c-0.339,0.353-0.819,0.525-1.438,0.525
	c-0.559,0-1.031-0.15-1.419-0.455c-0.385-0.303-0.578-0.744-0.578-1.32c0-0.342,0.084-0.633,0.249-0.879
	C69.717,239.597,69.962,239.408,70.288,239.276"/>
<path id="path1664" fill="#FFFFFF" d="M65.254,238.271v-0.553c0.521-0.053,0.886-0.137,1.091-0.254
	c0.206-0.121,0.36-0.4,0.461-0.846h0.569v5.717h-0.771v-4.064H65.254"/>
<path id="path1631" fill="#FFFFFF" stroke="#000000" d="M73.481,175.617l0.279,3.091h9.835l0.281-3.372L73.481,175.617z"/>
<path id="path1632" fill="#FFFFFF" stroke="#000000" d="M112.255,175.335l0.281,3.372h8.429l0.281-3.372H112.255z"/>
<path id="path1638" fill="#FFFFFF" stroke="#000000" d="M102.42,193.878c-0.561-3.09-1.967-16.857-6.742-17.138
	c-4.777-0.281-6.181,3.651-6.181,3.651s6.742,0.842,6.181,3.651c-0.563,2.812-3.372,9.834-4.777,10.679
	C89.497,195.565,99.893,194.16,102.42,193.878z"/>
<path id="path1639" fill="#FFFFFF" stroke="#000000" d="M92.867,192.476l-1.124,19.105l13.487,0.277l-0.563-18.543L92.867,192.476z"
	/>
<path id="path1637" fill="#FFFFFF" stroke="#000000" d="M81.629,207.367c0,0-1.124-12.082-0.561-15.455
	c0.561-3.369,2.527-5.618,5.899-5.339c3.372,0.281,9.271,6.464,9.271,6.464s8.993-8.147,12.362-7.867
	c3.371,0.279,5.06,2.526,5.06,5.06c0,2.528-0.281,15.451-0.281,15.451s-5.62-6.742-7.587-7.306
	c-1.967-0.562-5.899-1.123-5.899-1.123l-0.563,16.015l-3.09-0.843c0,0-0.282-7.305-0.562-10.114
	c-0.281-2.81-1.405-5.338-1.405-5.338s-5.057,2.528-6.744,4.493C85.844,203.433,81.629,207.367,81.629,207.367z"/>
<g id="g1712">
	<path id="path1640" fill="#FFFFFF" stroke="#000000" d="M80.776,208.099l33.727,0.109c0,0,0,3.934,0,14.049
		c0,12.363-16.298,29.781-16.298,29.781s-17.419-16.014-17.7-30.344C80.224,207.367,80.776,208.099,80.776,208.099z"/>
	<path id="path1641" d="M85.282,224.505v10.396l2.527,4.494l-0.11-14.898L85.282,224.505z"/>
	<path id="path1642" d="M91.237,224.437L90.9,244.173l2.529,2.529l0.227-22.264L91.237,224.437z"/>
	<path id="path1643" d="M96.632,224.5l-0.675,24.449l2.248,3.09l0.845-1.687l-0.281-25.908L96.632,224.5z"/>
	<path id="path1644" d="M102.141,224.505l-0.281,22.197l1.967-2.248l0.227-20.016L102.141,224.505z"/>
	<path id="path1645" d="M106.916,224.5l0.281,15.459l2.248-4.496V224.5H106.916z"/>
	<path id="path1646" d="M80.447,224.378h2.084l-0.197,4.816L80.447,224.378z"/>
	<path id="path1647" d="M112.365,224.521l0.232,5.17l1.883-5.334L112.365,224.521z"/>
	<path id="path1649" fill="#FFFFFF" stroke="#000000" d="M81.621,208.028l31.965,0.111l-0.107,13.658H81.456L81.621,208.028z"/>
	<path id="path1650" d="M91.304,214.169l4.558,0.135l1.861-4.758l1.331,4.656h4.689l-4.059,2.129l1.531,4.189l-3.692-2.162
		l-4.059,2.229l1.763-4.323L91.304,214.169z"/>
</g>
<path id="path1547" fill="#6A4F3A" stroke="#000000" d="M182.713,200.856l1.184-45.775h3.158l-0.395,46.171L182.713,200.856z"/>
<path id="path1548" fill="#D7B882" stroke="#000000" d="M187.45,132.192c0,0,0,9.076,0,12.629c0,3.551-5.525,8.682-5.132,11.443
	c0.394,2.76,3.947,2.365,5.132,1.576c1.184-0.788,7.497-11.441,7.497-17.758c0-6.314,0.789-15.785-0.788-16.18
	c-1.58-0.396-7.104,5.92-7.104,5.92L187.45,132.192z"/>
<path id="path1543" fill="#383838" stroke="#000000" d="M161.799,192.964c0,0-0.789,14.996-0.789,18.943
	c0,3.945-0.395,8.287-3.158,10.654c-2.762,2.367-5.129,1.578-5.918,3.155c-0.789,1.578,0.396,2.765,0.396,2.765l17.758-0.396
	c0,0-0.789-14.205-0.396-19.336c0.396-5.129,3.945-13.021,1.974-14.604C169.691,192.569,163.377,192.569,161.799,192.964z"/>
<path id="path1544" fill="#383838" stroke="#000000" d="M143.252,188.625c0,0,9.471,7.498,9.077,10.26
	c-0.396,2.763-4.736,5.921-3.158,7.498c1.578,1.578,2.765,1.185,2.765,1.185l13.021-11.838l-14.996-12.234L143.252,188.625z"/>
<path id="path1546" fill="#383838" stroke="#000000" d="M174.032,194.542c0,0,3.946,5.523,9.075,5.523
	c5.131,0,11.84-14.207,11.84-14.207s-2.368,19.34-11.444,18.942C174.426,204.408,174.032,198.49,174.032,194.542z"/>
<path id="path1545" fill="#6A4F3A" stroke="#000000" d="M172.454,146.793c2.366-1.974,3.155-13.418,3.155-13.418l3.554-6.709
	c0,0,5.92,6.709,8.683,6.314c2.762-0.396,6.709-0.396,6.709-2.763c0-2.366,1.184-5.92-0.789-7.893
	c-1.976-1.973-12.234-10.26-14.207-11.443c-1.974-1.187-22.494-3.554-24.072-3.554s-7.894,3.948-8.682,7.499
	c-0.789,3.551-2.367,15.391-2.367,18.547c0,3.158,0.336,7.958,0.336,7.958l5.977-4.011l1.977,5.523L172.454,146.793z"/>
<path id="path1549" fill="#35251A" stroke="#000000" d="M151.54,108.908c4.34,4.737,5.522,16.97,5.522,16.97
	s1.185-6.707,4.342-9.076c3.156-2.366,10.654-2.762,10.654-6.313c0-3.554-8.287-4.737-10.654-4.737
	C159.036,105.751,155.09,106.146,151.54,108.908z"/>
<path id="path1550" fill="#D7B882" stroke="#000000" d="M157.063,106.936c0,3.947,1.578,5.525,3.554,5.921
	c1.973,0.395,6.707-1.974,6.313-3.948C166.534,106.936,157.063,106.936,157.063,106.936z"/>
<path id="path1551" fill="#FFFFFF" stroke="#000000" d="M158.641,106.541c0,0,0,4.737,2.369,4.343
	c2.367-0.395,4.34-5.132,4.34-5.132L158.641,106.541z"/>
<path id="path1554" fill="#D7B882" stroke="#000000" d="M157.247,87.794c-0.146,2.782-0.438,6.005-0.879,6.59
	c-0.438,0.589-1.904,2.932-2.052,4.103c-0.146,1.174,1.32,1.027,1.32,1.027s-0.295,5.419-0.441,6.443
	c-0.146,1.025,2.345,0.146,3.369,1.904c1.023,1.757,1.023,4.248,1.611,3.808c0.588-0.438,2.783-2.636,3.953-3.953
	c1.176-1.318,2.932-0.294,3.371-2.051c0.438-1.759,0.879-14.941,0.879-14.941L157.247,87.794z"/>
<path id="path1542" fill="#35251A" stroke="#000000" d="M166.534,193.358c-4.341,0.396-5.918-0.396-6.313-2.366
	c-0.396-1.974-0.396-14.603-1.187-18.942c-0.789-4.342-1.974-6.313-1.974-6.313s-10.26,7.498-10.26,11.049
	c0,3.553,3.156,6.314,3.156,6.314l-6.313,5.524c0,0-13.023-7.499-13.023-11.841c0-4.34,13.418-18.941,15.786-22.098
	c2.366-3.158,3.155-12.234,5.524-12.629c2.365-0.396,16.969,0.789,19.336,2.764c2.365,1.973,7.498,10.654,7.104,16.18
	c-0.396,5.523-2.369,4.734-2.766,6.707c-0.396,1.977,0,3.553-0.396,6.314c-0.396,2.761-2.366,0.789-2.366,3.154
	c0,2.369,0.788,12.631-0.396,14.604C171.266,193.753,170.48,193.358,166.534,193.358z"/>
<path id="path1552" stroke="#000000" d="M159.036,83.652c-2.763,2.369-4.341,3.158-3.552,4.736c0.789,1.577,7.104,1.973,7.894,3.944
	c0.789,1.976,0,5.131,0,5.131l3.156-0.789v9.076c0,0,7.893-6.313,7.104-12.629c-0.789-6.313-8.683-7.102-11.05-7.496
	C160.221,85.232,160.221,84.837,159.036,83.652z"/>
<path id="path1553" fill="#D7B882" stroke="#000000" d="M144.357,141.994c0.146,2.05,0.586,12.89-0.147,14.501
	c-0.731,1.609-2.051,4.247-0.292,6.298c1.756,2.051,3.809,2.931,4.688,1.319s-0.295-9.084,0.73-13.33
	c1.023-4.249,1.174-11.864,0.439-12.89C149.043,136.867,144.648,137.305,144.357,141.994z"/>
<path id="path1555" fill="none" stroke="#000000" d="M157.102,165.724c-2.346-4.688-2.051-9.375-2.051-9.375"/>
<path id="path1556" fill="none" stroke="#000000" d="M150.95,138.038l0.146-15.675"/>
<path id="path1557" fill="none" stroke="#000000" d="M175.704,133.497c0,0-2.345-1.757-3.076-2.637
	c-0.731-0.879-1.61-2.196-1.61-2.196"/>
<path id="path1558" fill="none" stroke="#000000" d="M184.786,131.885c-0.146-7.472,9.375-8.937,9.375-8.937"/>
<path id="path1559" fill="none" stroke="#000000" d="M155.342,102.15l2.346,0.146"/>
<path id="path1560" fill="none" stroke="#000000" d="M156.663,93.067l3.366,2.931"/>
<path id="path1603" fill="#383838" stroke="#000000" d="M23.3,95.85c0,0-1.234-4.637-0.153-5.563
	c1.08-0.929,8.036-5.872,10.044-5.718c2.01,0.153,5.872,5.872,5.872,5.872L23.3,95.85z"/>
<path id="path1588" fill="#4459AC" stroke="#000000" d="M27.25,110.42c0,0-25.559,18.744-25.842,23.571
	c-0.286,4.829,11.359,18.744,11.359,18.744l4.827-4.545c0,0-0.567-3.407-1.703-6.53c-1.137-3.126-3.69-6.532-3.69-6.532
	s0.566,0.283,3.406-0.854c2.84-1.136,4.827-2.557,4.827-2.557s-0.851,5.683,0.569,8.806s5.963,10.792,5.963,10.792l16.756-1.137
	c0,0,0.566-22.151,0.283-27.266c-0.283-5.111-6.53-14.768-6.53-14.768L27.25,110.42z"/>
<path id="path1595" fill="#383838" stroke="#000000" d="M31.226,195.05c0,0,6.816,4.828,9.372,7.1
	c2.557,2.271,3.407,3.431,3.407,3.431l0.275,2.576l-7.087-0.021l-7.388-8.538L31.226,195.05z"/>
<path id="path1592" fill="#192859" stroke="#000000" d="M27.948,109.957c-0.311,1.236,6.97,5.576,8.957,7.848
	c1.989,2.272,6.249,5.396,6.249,5.396s0.283-3.69-2.272-8.52c-2.557-4.827-1.474-5.601-2.61-5.886
	C37.136,108.512,26.849,108.362,27.948,109.957z"/>
<path fill="#192859" stroke="#000000" d="M44.005,155.007c0.569-1.986-0.283-4.824-0.283-4.824l-18.176,4.256
	c0,0-4.543,18.744-5.112,33.795c-0.567,15.054,3.125,30.104,3.125,30.104l10.793-1.42v-17.892c0,0,20.162-20.731,20.162-23.855
	C54.514,172.048,43.438,156.996,44.005,155.007z M42.585,174.89c-0.283,1.7-4.26-0.572-7.95,11.641
	c0.283-1.42,2.914-9.063,3.767-11.618c0.851-2.556,1.109-4.543,1.109-4.543S42.868,173.183,42.585,174.89z"/>
<path id="path1605" d="M18.511,193.205c0,0-0.311-8.499-0.927-10.972c-0.619-2.474-2.937-9.582-2.937-14.99
	s1.081-9.117,4.481-13.444c3.398-4.323,6.953-5.717,6.953-5.717s3.399,0,8.499-0.153c5.101-0.156,9.736-0.465,9.736-0.465
	l-0.156,5.408c0,0-6.489,1.855-10.661,1.855c-4.173,0-8.654-0.931-8.654-0.931s-7.108,6.802-6.8,13.291
	c0.311,6.489,2.164,15.917,2.01,18.543C19.901,188.261,18.511,193.205,18.511,193.205z"/>
<path id="path1593" fill="#D7B889" stroke="#000000" d="M26.837,110.6c0,0-0.438-6.711,0.129-9.552
	c0.569-2.84,3.123-9.654,3.123-9.654l9.939-0.284l-0.283,13.349l-1.987-0.286l0.851,4.546c0,0-3.406,1.703-6.53,1.986
	C28.955,110.988,26.837,110.6,26.837,110.6z"/>
<path id="path1586" fill="#383838" stroke="#000000" d="M28.778,100.276c-6.247,1.42-9.479,4.182-11.468,2.191
	c-1.987-1.986,2.272-7.951,11.359-11.643c9.088-3.692,17.607-1.704,18.175,0c0.569,1.703-3.977,4.826-6.247,5.11
	c-2.272,0.285-6.532,0-8.235,1.136C30.658,98.208,28.778,100.276,28.778,100.276z"/>
<path id="path1587" fill="#FFFCC8" stroke="#000000" d="M27.25,107.297c-3.975,0.567-4.827-3.126-3.124-5.68
	c1.704-2.557,4.829-7.102,8.52-8.236c3.692-1.136,6.816,0,7.1,1.987c0.284,1.987-0.567,3.409-0.567,3.409s-4.826-3.978-6.815-1.706
	c-1.987,2.273-2.273,6.533-3.977,8.52C26.683,107.581,27.25,107.297,27.25,107.297z"/>
<path id="path1594" fill="#383838" stroke="#000000" d="M23.275,148.76c0.283-4.827,4.442-5.966,5.68-5.966
	c1.081,0,2.84,5.396,2.84,9.089c0,3.693-2.272,11.075-4.26,11.359c-1.989,0.282-1.42-9.656-1.42-9.656h-2.272L23.275,148.76z"/>
<path id="path1596" fill="#383838" stroke="#000000" d="M23.843,218.054l-0.284,10.223l22.151-0.565c0,0,0.567-1.703-0.853-3.123
	s-7.667-1.989-8.803-3.978c-1.137-1.987-1.42-3.123-1.42-3.123L23.843,218.054z"/>
<path id="path1598" fill="none" stroke="#000000" d="M33.5,110.375c4.172,2.473,9.115,9.891,9.426,11.127
	c0.309,1.234,0.309,1.699,0.309,1.699"/>
<path id="path1599" fill="#D7B889" stroke="#000000" d="M11.247,151.019c2.009-4.326,5.873-4.175,5.873-4.175
	s5.408,2.783,5.254,4.175c-0.153,1.39-4.327-0.156-4.636,0.771c-0.31,0.927,2.318,3.863,0.927,5.255
	C17.273,158.435,12.638,154.265,11.247,151.019z"/>
<path id="path1601" fill="none" stroke="#000000" d="M38.753,106.513l-2.316-0.31"/>
<path id="path1602" fill="none" stroke="#000000" d="M34.427,199.078c0.104-4.431-0.566-9.17,0.309-13.289"/>
<path id="path1604" d="M38.3,100.73c0-0.545-0.464-0.985-1.039-0.985c-0.573,0-1.038,0.44-1.038,0.985
	c0,0.545,0.465,0.984,1.038,0.984C37.836,101.715,38.3,101.276,38.3,100.73z"/>
<path id="path1606" fill="none" stroke="#000000" d="M39.525,170.333c0.929-5.717,0.311-11.589,0.311-11.589"/>
<g>
	<path id="path1825" fill="#A7A1AB" stroke="#000000" d="M50.213,42.899c0-6.515,5.615-4.718,11.008-7.188
		c5.394-2.472,10.111-6.067,10.111-6.067l0.224,16.852H50.887L50.213,42.899z"/>
	<path id="path1826" fill="#A7A1AB" stroke="#000000" d="M139.411,59.076c-5.618,3.37-6.966,0.225-10.562-3.146
		c-3.595-3.37-14.379-11.234-14.379-11.234l28.758,4.718L139.411,59.076z"/>
	<path id="path1824" fill="#F9C406" stroke="#000000" d="M50.213,41.777c-0.677,6.516-0.227,11.233,3.144,14.379
		c3.37,3.145,6.068,2.021,8.538,1.572c2.472-0.45,32.579-12.582,41.791-12.582c9.213,0,21.799,0.445,28.76,6.966
		c3.135,2.932,6.293,5.166,5.843,6.963c-0.45,1.799,11.233-6.29,11.009-11.458c-0.227-5.168-16.4-15.504-33.701-17.976
		c-17.301-2.473-40.396,11.46-57.07,12.808C52.516,42.936,50.213,43.798,50.213,41.777z"/>
	<path id="text1827" d="M138.9,49.244c-0.205,0.286-0.319,0.562-0.344,0.824c-0.041,0.496,0.211,0.964,0.76,1.408
		c0.246,0.196,0.498,0.343,0.757,0.436c0.499,0.179,0.892,0.095,1.175-0.257c0.212-0.263,0.281-0.518,0.208-0.762
		c-0.078-0.245-0.265-0.552-0.554-0.918l-0.533-0.677c-0.352-0.44-0.567-0.793-0.651-1.052c-0.145-0.45-0.054-0.875,0.269-1.275
		c0.353-0.435,0.789-0.671,1.315-0.705c0.524-0.037,1.063,0.167,1.613,0.611c0.505,0.409,0.836,0.877,0.992,1.41
		c0.157,0.53,0.021,1.063-0.413,1.602l-0.614-0.497c0.175-0.286,0.265-0.541,0.271-0.766c0.004-0.413-0.232-0.813-0.711-1.2
		c-0.387-0.311-0.729-0.453-1.03-0.428c-0.3,0.025-0.536,0.146-0.709,0.362c-0.19,0.236-0.231,0.489-0.123,0.758
		c0.071,0.174,0.294,0.499,0.666,0.972l0.553,0.703c0.269,0.337,0.437,0.644,0.511,0.916c0.125,0.474,0.014,0.925-0.334,1.354
		c-0.432,0.536-0.938,0.76-1.513,0.676c-0.575-0.082-1.119-0.333-1.636-0.748c-0.6-0.485-0.947-1.019-1.037-1.601
		c-0.096-0.58,0.07-1.126,0.499-1.645L138.9,49.244"/>
	<path id="path1848" d="M139.6,44.498l-0.431,0.604l-1.706-1.21l-3.164,4.463l-0.695-0.495l3.164-4.463l-1.707-1.21l0.426-0.603
		L139.6,44.498"/>
	<path id="path1847" d="M128.044,38.347l0.772,0.354l-1.068,2.332l2.937,1.346l1.067-2.334l0.772,0.354l-2.586,5.646l-0.771-0.354
		l1.208-2.642l-2.937-1.344l-1.209,2.641l-0.771-0.354L128.044,38.347"/>
	<path id="path1846" d="M121.734,36.763c0.565,0.144,1.025,0.378,1.384,0.7c0.519,0.467,0.743,1.109,0.679,1.932l-0.809-0.205
		c0.015-0.465-0.108-0.836-0.365-1.114c-0.26-0.282-0.62-0.48-1.091-0.6c-0.558-0.143-1.081-0.055-1.57,0.267
		c-0.483,0.323-0.834,0.896-1.044,1.724c-0.184,0.716-0.172,1.338,0.027,1.87c0.199,0.528,0.654,0.882,1.363,1.063
		c0.545,0.138,1.033,0.095,1.469-0.129c0.438-0.225,0.75-0.688,0.938-1.392l-1.885-0.48l0.173-0.676l2.643,0.674l-0.819,3.22
		l-0.522-0.133V42.66c-0.354,0.232-0.652,0.38-0.895,0.444c-0.409,0.11-0.891,0.097-1.439-0.043
		c-0.715-0.184-1.27-0.569-1.666-1.161c-0.412-0.721-0.49-1.588-0.231-2.6c0.255-1.007,0.733-1.738,1.431-2.196
		C120.166,36.667,120.909,36.552,121.734,36.763"/>
	<path id="path1844" d="M114.918,35.694l0.846,0.086l-0.635,6.179l-0.845-0.088L114.918,35.694"/>
	<path id="path1842" d="M110.137,38.185c0.395,0.021,0.709-0.041,0.944-0.188c0.239-0.146,0.37-0.423,0.394-0.834
		c0.023-0.441-0.119-0.752-0.433-0.929c-0.168-0.095-0.396-0.148-0.683-0.165l-2.051-0.111l-0.115,2.119L110.137,38.185
		 M107.508,35.193l2.87,0.154c0.474,0.026,0.858,0.116,1.157,0.271c0.568,0.296,0.834,0.8,0.795,1.513
		c-0.021,0.37-0.112,0.67-0.281,0.898c-0.164,0.228-0.389,0.407-0.672,0.536c0.236,0.11,0.411,0.251,0.523,0.417
		c0.115,0.166,0.168,0.431,0.164,0.793l-0.017,0.832c-0.004,0.235,0.007,0.413,0.031,0.53c0.039,0.2,0.123,0.333,0.248,0.395
		l-0.007,0.14l-1.028-0.055c-0.026-0.056-0.045-0.125-0.058-0.21c-0.014-0.086-0.018-0.25-0.018-0.493l0.006-1.036
		c0.002-0.406-0.133-0.686-0.406-0.84c-0.155-0.084-0.406-0.136-0.75-0.154l-1.912-0.104l-0.146,2.661l-0.84-0.047L107.508,35.193"
		/>
	<path id="path1840" d="M83.509,39.389l0.822-0.176l1.139,5.352l3.076-0.654l0.154,0.724l-3.9,0.828L83.509,39.389"/>
	<path id="path1839" d="M79.82,44.514l-1.625-2.402l-0.251,2.91L79.82,44.514 M77.529,41.336l0.919-0.249l3.797,5.406l-0.89,0.241
		l-1.095-1.63l-2.37,0.642l-0.163,1.97l-0.832,0.225L77.529,41.336"/>
	<path id="path1836" d="M69.78,44.25l0.781,3.758c0.093,0.442,0.251,0.791,0.477,1.049c0.337,0.391,0.798,0.525,1.381,0.404
		c0.697-0.144,1.122-0.482,1.274-1.011c0.082-0.288,0.076-0.652-0.015-1.091l-0.78-3.758l0.836-0.173l0.709,3.416
		c0.156,0.747,0.175,1.344,0.058,1.787c-0.218,0.813-0.841,1.323-1.866,1.537c-1.027,0.213-1.8-0.008-2.319-0.666
		c-0.286-0.361-0.506-0.917-0.662-1.665l-0.709-3.415L69.78,44.25"/>
	<path id="path1832" d="M54.776,49.098l4.307-1.396l0.234,0.725l-3.526,1.142l0.58,1.794l3.263-1.056l0.22,0.684l-3.261,1.056
		l0.647,2.003l3.59-1.16l0.226,0.702l-4.366,1.414L54.776,49.098"/>
	<path id="path1849" d="M114.559,32.567L114.559,32.567 M97.274,37.096L97.274,37.096 M93.13,38.357L93.13,38.357 M76.148,42.806
		L76.148,42.806 M70.338,44.331L70.338,44.331 M68.468,51.223l-0.279,0.602l-1.114-0.465c-0.19,0.181-0.406,0.343-0.649,0.485
		c-0.24,0.142-0.514,0.252-0.821,0.332c-0.935,0.245-1.745,0.133-2.435-0.341c-0.62-0.473-1.05-1.154-1.284-2.049
		c-0.211-0.813-0.192-1.562,0.06-2.246c0.323-0.877,0.993-1.448,2.006-1.713c1.061-0.277,1.936-0.144,2.624,0.405
		c0.538,0.427,0.914,1.056,1.132,1.884c0.102,0.386,0.152,0.772,0.15,1.155c-0.002,0.582-0.13,1.091-0.384,1.523L68.468,51.223
		 M65.511,51.425c0.169-0.045,0.325-0.097,0.465-0.157c0.142-0.063,0.257-0.143,0.349-0.24l-0.794-0.341l0.277-0.61l0.943,0.403
		c0.175-0.35,0.259-0.709,0.255-1.085c-0.002-0.374-0.045-0.724-0.132-1.046c-0.185-0.705-0.518-1.226-1.003-1.561
		c-0.48-0.333-1.041-0.417-1.681-0.249c-0.649,0.17-1.109,0.512-1.381,1.025c-0.269,0.512-0.294,1.195-0.067,2.055
		c0.188,0.723,0.521,1.251,0.996,1.584C64.216,51.535,64.806,51.609,65.511,51.425 M58.121,47.532L58.121,47.532"/>
</g>
<path id="path1927" fill="#FFFFFF" stroke="#000000" d="M88.388,57.308c-8.573,1.372-10.63,12.343-10.63,12.343
	s3.772,0.685,3.772,4.114c0,3.428,0.341,7.543,0.341,7.543l7.544-8.229L88.388,57.308z"/>
<path id="path1928" fill="#FFFFFF" stroke="#000000" d="M78.444,69.308c-3.087,3.086-4.457,6.856-4.457,6.856
	s-4.114-9.258-3.087-11.313c1.029-2.058,3.773-4.457,3.43-6.515c-0.343-2.057-2.057-2.399-4.113-2.057
	c-2.058,0.343-2.058,11.998-2.058,15.084c0,3.087,0.685,8.571,2.4,10.628c1.714,2.057,3.084,5.144,4.798,5.486
	c1.716,0.344,6.514-6.856,6.514-6.856s0.687-6.856-0.341-8.571C80.501,70.334,78.444,69.308,78.444,69.308z"/>
<path id="path1926" fill="#FFFFFF" stroke="#000000" d="M110.329,60.394c11.313,6.514,9.94,15.428,9.598,18.515
	c-0.341,3.084,0,5.141,0,5.141s4.802,4.802,6.857,7.888c2.057,3.084,7.887,11.998,7.887,11.998l-2.058,2.058
	c0,0-8.57-6.171-12-10.285c-3.426-4.115-18.514-28.801-18.514-28.801L110.329,60.394z"/>
<path id="path1929" fill="none" stroke="#000000" stroke-width="2" d="M81.871,174.217l-8.57-120.763"/>
<path id="path1905" fill="#FFFFFF" stroke="#000000" d="M111.6,172.25l-29.683-0.024c0-0.817,4.035-100.331,4.035-105.818
	c0-5.488-0.817-9.695,0.35-10.979c1.169-1.283,11.563-0.935,13.899,0c2.336,0.936,9.46,3.154,10.044,4.438
	c0.585,1.284-1.401,8.994-1.401,11.68c0,2.688,3.037,9.929,2.803,13.665c-0.231,3.738,3.045,42.224,3.045,44.792
	c0,3.17-2.602-1.628-3.773-0.11C109.507,131.71,115.025,170.708,111.6,172.25z"/>
<g id="g1911">
	<path id="path1904" fill="#FFFFFF" stroke="#000000" d="M94.478,46.549c0,0-0.349,7.358-0.349,9.346
		c0,1.984,3.269,5.371,5.371,5.723c2.104,0.35,4.32-1.987,4.089-5.256c-0.233-3.271-1.286-2.803-1.286-6.658
		c0-3.854-0.699-6.658-0.699-6.658L94.478,46.549z"/>
	<path id="path1899" fill="#FFFFFF" stroke="#000000" d="M92.959,37.792c-0.583,3.27-0.466,8.644-0.116,9.927
		c0.351,1.285,0.351,4.788,2.453,5.14c2.102,0.35,5.604-4.204,6.657-6.191c1.051-1.984,1.52-4.438,1.52-4.438l-5.607-8.174
		L92.959,37.792z"/>
	<path id="path1902" fill="#FFFFFF" stroke="#000000" d="M93.193,49.47l3.154-0.232"/>
	<path id="path1903" fill="#FFFFFF" stroke="#000000" d="M96.463,42.346c0.818,0,2.453,0,2.453,0"/>
	<path id="path1898" fill="#FFFFFF" stroke="#000000" d="M92.376,37.908c-1.05-2.217,0.352-6.541,4.321-6.424
		c3.972,0.117,8.293,5.84,8.293,8.76s-0.817,5.606-1.52,5.606c-0.699,0-3.972-9.228-6.657-9.345
		C94.129,36.391,94.36,38.024,92.376,37.908z"/>
</g>
<path id="path1906" fill="#FFFFFF" stroke="#000000" d="M99.969,72.246c-5.957,11.68-10.513,15.768-12.615,15.884
	c-2.102,0.117-4.787-0.233-4.787-0.233l1.186,24.236l17.043,0.45"/>
<path id="path1907" fill="#FFFFFF" stroke="#000000" d="M105.105,72.596c-5.838,23.125-23.827,35.272-23.827,35.272l2.228,36.005
	l17.692-17.551"/>
<path id="path1908" fill="#FFFFFF" stroke="#000000" d="M102.186,89.998c-4.788,37.375-21.254,31.418-21.254,31.418l0.908,33.127
	c13.747-3.296,14.776-14.268,14.776-14.268s4.8,1.373,8.228-2.058c3.431-3.428,0.343-14.74,1.372-19.885
	c1.028-5.144,1.371-10.628,1.371-10.628"/>
<path id="path1919" fill="none" stroke="#000000" d="M106.215,92.62c-1.372,5.829-2.742,18.171-2.742,18.171"/>
<path id="path1920" fill="none" stroke="#000000" d="M87.015,111.478c5.83-2.743,13.028-21.256,13.028-21.256"/>
<path id="path1921" fill="none" stroke="#000000" d="M101.758,125.191c-0.686,3.771,0.342,8.914,0.342,8.914"/>
<path id="path1922" fill="none" stroke="#000000" d="M102.1,149.875c0.344-8.569-0.685-9.601-0.685-9.601"/>
<path id="path1923" fill="none" stroke="#000000" d="M104.499,68.278c2.058-3.428,2.399-9.599,2.399-9.599"/>
<path id="path1925" fill="none" stroke="#000000" d="M112.043,129.648c-3.771-1.714-5.828-3.087-5.828-3.087"/>
<path id="path1633" fill="#FFFFFF" stroke="#000000" d="M76.29,170.839l-0.281,4.496h42.146v-4.215L76.29,170.839z"/>
</svg>
